<svg width="120" height="240" fill="none" xmlns="http://www.w3.org/2000/svg"><path d="M59.561 34.148L121.255 70l58.437-33.148L118.004 1 59.561 34.148z" fill="#fff" stroke="#0C1447" stroke-width="2" stroke-miterlimit="10" stroke-linejoin="round"/><path d="M59.56 34.148l.194 68.335 61.688 35.851-.188-68.335L59.56 34.15z" fill="#FFEFDF" stroke="#0C1447" stroke-width="2" stroke-miterlimit="10" stroke-linejoin="round"/><path d="M1.002 134.651l61.688 35.845 58.443-33.148-61.694-35.851-58.437 33.154z" fill="#EAEDFF" stroke="#0C1447" stroke-width="2" stroke-miterlimit="10" stroke-linejoin="round"/><path d="M1 134.651l.188 68.329 61.694 35.851-.194-68.335L1 134.651z" fill="#fff" stroke="#0C1447" stroke-width="2" stroke-miterlimit="10" stroke-linejoin="round"/><path d="M62.689 170.496l.194 68.335 58.437-33.154-.188-68.329-58.443 33.148z" fill="#1F2656" stroke="#0C1447" stroke-width="2" stroke-miterlimit="10" stroke-linejoin="round"/><path d="M112.231 83.364l-33.708-19.59M112.231 95.715L92.004 83.962" stroke="#0C1447" stroke-width="2" stroke-miterlimit="10" stroke-linecap="round" stroke-linejoin="round"/><path d="M28.521 163.186l.078 27.958 25.244 14.666-.083-27.958-25.239-14.666z" fill="#0C1447" stroke="#0C1447" stroke-width="2" stroke-miterlimit="10" stroke-linejoin="round"/><path d="M22.213 169.992l-11.996-6.973M22.213 177.979l-11.996-6.973" stroke="#0C1447" stroke-width="2" stroke-miterlimit="10" stroke-linecap="round" stroke-linejoin="round"/><path d="M39.417 120.202c-.014-4.955 6.907-8.992 15.46-9.016 8.552-.024 15.497 3.973 15.511 8.928.014 4.956-6.908 8.993-15.46 9.017-8.553.024-15.497-3.973-15.511-8.929z" fill="#0C1447" stroke="#0C1447" stroke-width="2" stroke-miterlimit="10" stroke-linejoin="round"/><path d="M51.368 125.973c-9.244 0-16.738-7.494-16.738-16.737 0-9.244 7.494-16.738 16.738-16.738s16.738 7.494 16.738 16.738c0 9.243-7.494 16.737-16.738 16.737z" fill="#fff" stroke="#0C1447" stroke-width="2" stroke-miterlimit="10" stroke-linejoin="round"/></svg>