<svg width="167" height="148" fill="none" xmlns="http://www.w3.org/2000/svg"><path d="M85 133.467L105.112 122 129 135.533 108.888 147 85 133.467z" fill="#0C1447" stroke="#0C1447" stroke-width="1.4" stroke-miterlimit="10" stroke-linejoin="round"/><path d="M100.301 117.89a1.159 1.159 0 001.585-.425 1.159 1.159 0 00-.425-1.585 1.16 1.16 0 10-1.16 2.01z" fill="#0C1447"/><path d="M26.797 26.973c-4.812 8.392-1.382 15.46 7.594 16.783 2.055.87 4.272 2.582 5.786 7.837C44.09 65.16 77.47 46.633 75.05 38.587c-2.42-8.045-11.417-3.15-7.574-12.65.044-.108.077-.213.117-.32 3.524-8.26-1.19-14.788-11.352-14.962" fill="#fff"/><path d="M26.797 26.973c-4.812 8.392-1.382 15.46 7.594 16.783 2.055.87 4.272 2.582 5.786 7.837C44.09 65.16 77.47 46.633 75.05 38.587c-2.42-8.045-11.417-3.15-7.574-12.65.044-.108.077-.213.117-.32 3.524-8.26-1.19-14.788-11.352-14.962" stroke="#0C1447" stroke-width="1.8" stroke-miterlimit="10" stroke-linejoin="round"/><path d="M43.075 55.35a2.36 2.36 0 01-1.215-3.03c1.346-3.333 5.52-10.606 17.167-14.396 15.428-5.02 16.692.233 15.933 2.988-.759 2.756-14.952 18.351-29.952 15.137 0 0-.965-.26-1.933-.7z" fill="#0C1447" stroke="#0C1447" stroke-width="1.8" stroke-miterlimit="10" stroke-linejoin="round"/><path d="M103.041 132.876c3.054 1.763 7.089.492 9.012-2.839s1.007-7.461-2.047-9.224c-3.053-1.763-7.088-.492-9.011 2.84-1.924 3.331-1.007 7.46 2.046 9.223z" fill="#ED6F78" stroke="#0C1447" stroke-width="1.8" stroke-miterlimit="10" stroke-linejoin="round"/><path d="M107.387 106.536s.395 17.853 12.343 21.847c0 0-2.662-14.626-3.568-19.962" fill="#fff"/><path d="M107.387 106.536s.397 17.855 12.343 21.847c0 0-2.662-14.626-3.568-19.962" fill="#FFEFDF"/><path d="M107.387 106.536s.397 17.855 12.343 21.847c0 0-2.662-14.626-3.568-19.962" stroke="#0C1447" stroke-width="1.8" stroke-linejoin="round"/><path d="M66.358 35.134s.751 9.804 15.394 16.675c14.643 6.87 22.885 7.097 27.446 10.871 1.584 1.312 5.685 3.116 7.995 6.08 2.311 2.964 10.474 10.584 10.474 10.584s-3.135 3.412-8.706-1.444c-5.568-4.854-6.591-5.807-6.591-5.807l-11.301-4.21s2.464 5.757 6.275 8.511c3.811 2.754 9.484 7.123 7.719 13.316 0 0 .955.422-.001 9.785 0 0 14.065 14.064 17.462 28.297 0 0-5.561 2.184-10.035-7.984 0 0-8.571-12.727-23.597-18.919-15.026-6.192-13.723-5.435-13.723-5.435s1.844 5.668 9.924 12.519c8.077 6.849 7.904 13.603 5.787 17.965 0 0-4.113-1.303-10.571-10.099-8.072-10.989-28.806-17.703-38.646-41.987-9.84-24.284-9.498-24.015-9.498-24.015s4.996-11.161 24.193-14.703z" fill="#FFEFDF"/><path d="M66.358 35.134s.751 9.804 15.394 16.675c14.643 6.87 22.885 7.097 27.446 10.871 1.584 1.312 5.685 3.116 7.995 6.08 2.311 2.964 10.474 10.584 10.474 10.584s-3.135 3.412-8.706-1.444c-5.568-4.854-6.591-5.807-6.591-5.807l-11.301-4.21s2.464 5.757 6.275 8.511c3.811 2.754 9.484 7.123 7.719 13.316 0 0 .955.422-.001 9.785 0 0 14.065 14.064 17.462 28.297 0 0-5.561 2.184-10.035-7.984 0 0-8.571-12.727-23.597-18.919-15.026-6.192-13.723-5.435-13.723-5.435s1.844 5.668 9.924 12.519c8.08 6.85 7.904 13.603 5.787 17.965 0 0-4.113-1.303-10.571-10.099-8.072-10.989-28.806-17.703-38.646-41.987-9.84-24.284-9.498-24.015-9.498-24.015s4.996-11.161 24.193-14.703z" fill="#FFEFDF" stroke="#0C1447" stroke-width="1.8" stroke-linejoin="round"/><path d="M98.605 76.017s2.483 3.32 6.275 6.13c3.793 2.81 10.17 8.441 10.17 8.441M94.848 85.953s2.661 3.65 6.465 5.191c3.8 1.54 12.484 7.317 15.644 11.285" stroke="#0C1447" stroke-width="1.8" stroke-linejoin="round"/><path d="M85.008 94.97s-1.67-.88-4.496-.694z" fill="#fff"/><path d="M85.008 94.97s-1.67-.88-4.496-.694" stroke="#0C1447" stroke-width="1.8" stroke-linejoin="round"/><path d="M100.765 122.843c-4.315-4.45-6.965-2.98-6.965-2.98s3.504 3.23 6.631 4.765l.334-1.785zM125.039 81.239c-3.982-2.874-2.502-4.126-2.502-4.126l4.495 3.763s-.664.646-1.993.363zM118.131 121.483s-3.653.369-1.676 5.734l3.025 1.564-1.349-7.298zM129.172 127.856c-4.273-5.408-.572-7.031-.572-7.031s3.035 5.055 3.29 7.355c-.003-.001-1.43.469-2.718-.324z" fill="#0C1447"/><path d="M69.584 31.797s-8.033-.375-15.276 3.243z" fill="#fff"/><path d="M69.584 31.797s-8.033-.375-15.276 3.243" stroke="#0C1447" stroke-width="1.8" stroke-miterlimit="10" stroke-linejoin="round"/></svg>