<svg width="87" height="102" fill="none" xmlns="http://www.w3.org/2000/svg"><path d="M0 82.212c.657-1.3 1.224-2.922 2.193-4.26 2.346-3.22 3.672-6.591 2.843-10.654-.268-1.318-.249-2.77-.02-4.107.53-3.062-.171-5.153-3.276-6.598-1.02-.476-1.963-2.91-1.65-4.12 1.077-4.17 2.454-8.316 4.277-12.214.726-1.559 2.728-2.973 4.456-3.53 2.913-.938 4.927-2.51 6.674-4.97 2.99-4.214 6.49-8.074 9.454-12.302 1.46-2.079 2.709-4.57 3.142-7.035.657-3.708 2.06-6.383 5.502-8.278 10.225-5.654 6.738-5.368 16.332-.082 1.02.564 2.02 1.16 3.034 1.73 4.832 2.713 6.018 2.643 10.002-1.242 2.301-2.244 4.514-2.853 7.318-.881 1.9 1.337 3.914 2.63 6.063 3.467 4.507 1.749 7.006 5.412 8.995 9.336.752 1.483.77 4.443-.217 5.501-5.559 5.984-3.118 13.21-3.596 19.94-.057.799 1.275 2.15 2.231 2.491 2.882 1.014 3.468 2.84 2.563 5.451-1.25 3.588-2.218 7.32-3.952 10.667-.95 1.832-2.99 3.626-4.934 4.298-2.805.97-4.711 2.484-6.4 4.804-3.035 4.183-6.54 8.037-9.467 12.29-1.555 2.263-2.786 4.982-3.29 7.656-.637 3.398-1.956 5.908-5.048 7.53-2.161 1.129-4.188 2.504-6.343 3.638-2.913 1.534-4.59.919-5.017-2.193-.408-2.953-1.6-3.967-4.596-3.574-1.95.253-4.169.215-5.96-.476-3.105-1.198-5.215-.24-7.376 1.857-3.806 3.689-3.863 3.62-8.332.97-2.282-1.35-4.488-2.877-6.897-3.936-4.137-1.819-5.884-5.61-8.096-9.038-.325-.495-.35-1.185-.612-2.136zm44.75 17.595c2.493-1.439 5.088-3.024 7.759-4.469 2.358-1.274 3.206-3.251 3.876-5.767.847-3.157 2.116-6.351 3.913-9.07 2.837-4.298 6.07-8.38 9.505-12.22 1.804-2.016 4.437-3.284 6.624-4.982 1.574-1.224 3.589-2.314 4.424-3.956 1.561-3.074 2.377-6.515 3.57-9.786.599-1.648.56-2.865-1.492-3.327-2.671-.602-3.449-2.523-3.366-4.995.064-1.895.478-3.86.121-5.672-1.039-5.255.313-9.736 3.5-13.926.714-.938 1.173-2.757.74-3.74-.995-2.255-2.602-4.246-4.15-6.635-1.308 1.033-2.398 1.686-3.22 2.58-2.537 2.744-5.33 3.96-9.084 2.427-1.313-.539-2.913-.488-4.38-.5-6.03-.045-6.023-.02-7.93-5.781-.095-.285-.305-.526-.567-.976-2.62 1.515-4.928 2.991-7.363 4.221-2.824 1.426-3.92 3.62-4.615 6.668-.695 3.042-2.225 6.047-3.99 8.67-2.812 4.196-6.216 7.993-9.186 12.094-1.81 2.497-3.864 4.265-6.955 5.121-1.518.425-3.296 1.743-3.94 3.125-1.638 3.517-2.811 7.27-3.914 10.997-.217.722.548 2.42 1.147 2.58 3.52.925 3.953 3.39 3.736 6.37-.115 1.577-.453 3.232-.121 4.721 1.135 5.16-.35 9.501-3.398 13.634-.752 1.02-1.224 2.947-.771 4.005.969 2.257 2.639 4.215 4.143 6.49 1.192-.93 2.123-1.476 2.812-2.237 2.728-3.004 5.73-4.608 9.842-2.63.893.431 2.136.52 3.13.33 5.151-.996 8.415.576 9.02 6.122.013.095.16.152.58.514zm-3.933-84.61c.179-.367.357-.728.542-1.096-2.097-2.757-8.465-5.748-10.952-4.513 3.723 2.003 7.064 3.803 10.41 5.61zm-24.97 29.645c-.968-3.093-5.367-5.388-8.146-4.26 2.715 1.426 5.43 2.84 8.147 4.26z" fill="#0C1447"/><rect x="44.706" y="16.891" width="44.218" height="61.24" rx="10" transform="rotate(30 44.706 16.891)" fill="#FFEFDF"/><path d="M44.74 100.403c-.418-.357-.563-.42-.57-.497-.6-5.576-3.838-7.157-8.947-6.156-.987.191-2.213.102-3.105-.332-4.079-1.988-7.057-.376-9.764 2.645-.682.765-1.606 1.313-2.788 2.25-1.499-2.288-3.15-4.257-4.11-6.526-.456-1.064.019-3.002.765-4.028 3.022-4.155 4.496-8.52 3.37-13.709-.329-1.504.013-3.167.12-4.748.215-2.995-.215-5.474-3.705-6.405-.595-.159-1.347-1.867-1.138-2.593 1.094-3.754 2.257-7.52 3.882-11.058.639-1.39 2.397-2.721 3.908-3.142 3.06-.86 5.103-2.638 6.899-5.15 2.94-4.123 6.317-7.94 9.112-12.16 1.745-2.638 3.27-5.658 3.959-8.718.689-3.065 1.776-5.27 4.578-6.704 2.415-1.236 4.71-2.721 7.303-4.245.26.447.468.695.563.982 1.884 5.793 1.884 5.768 7.866 5.812 1.461.013 3.048-.038 4.345.504 3.724 1.542 6.494.318 9.01-2.441.816-.899 1.897-1.555 3.194-2.594 1.536 2.403 3.13 4.404 4.116 6.673.424.981-.025 2.81-.733 3.76-3.162 4.219-4.502 8.718-3.472 14.002.354 1.822-.057 3.798-.12 5.703-.082 2.48.69 4.417 3.339 5.023 2.036.465 2.074 1.688 1.48 3.345-1.177 3.289-1.992 6.75-3.541 9.84-.829 1.651-2.827 2.754-4.389 3.977-2.169 1.708-4.78 2.983-6.57 5.01-3.408 3.862-6.62 7.966-9.428 12.287-1.777 2.734-3.042 5.946-3.883 9.12-.67 2.53-1.511 4.518-3.845 5.8-2.655 1.433-5.229 3.02-7.702 4.473zm-6.122-17.507c6.602.064 10.731-2.039 14.43-4.926 10.99-8.572 17.061-20.107 18.471-33.854.582-5.691-.569-11.612-5.836-15.347-4.895-3.467-10.03-2.402-14.987-.025-13.57 6.507-24.579 26.416-22.973 41.393.873 8.075 5.52 12.778 10.895 12.76z" fill="#FFEFDF"/><path d="M40.566 14.832c-3.138-1.741-6.27-3.483-9.76-5.427 2.33-1.196 8.302 1.699 10.268 4.366-.173.35-.34.705-.508 1.061zM15.974 44.497l-7.987-4.271c2.725-1.132 7.037 1.17 7.987 4.27z" fill="#FFEEDF"/></svg>