<svg width="99" height="112" fill="none" xmlns="http://www.w3.org/2000/svg"><path d="M97.337 27.541L47.944 56.246 1.151 29.706 50.548 1l46.789 26.541z" fill="#EAEDFF" stroke="#0C1447" stroke-width="1.8" stroke-miterlimit="10" stroke-linejoin="round"/><path d="M97.337 27.541l-.15 54.714-49.393 28.705.15-54.714 49.393-28.705z" fill="#FFEFDF" stroke="#0C1447" stroke-width="1.8" stroke-miterlimit="10" stroke-linejoin="round"/><path d="M47.944 56.246l-.15 54.714L1 84.415l.15-54.71 46.794 26.541z" fill="#0C1447" stroke="#0C1447" stroke-width="1.8" stroke-miterlimit="10" stroke-linejoin="round"/><path d="M48.116 103.476s1.673-11.386 9.403-8.258c7.734 3.128 3.865-35.959 18.517-31.373 14.652 4.586 4.085-17.322 20.968-26.18" fill="#FFEFDF"/><path d="M48.116 103.476s1.673-11.386 9.403-8.258c7.734 3.128 3.865-35.959 18.517-31.373 14.652 4.586 4.085-17.322 20.968-26.18" stroke="#0C1447" stroke-width="1.8" stroke-miterlimit="10" stroke-linecap="round" stroke-linejoin="round"/></svg>