<svg width="202" height="58" viewBox="0 0 202 58" fill="none" xmlns="http://www.w3.org/2000/svg">
<path fill-rule="evenodd" clip-rule="evenodd" d="M7.63938 23.3153L0.709998 24.6765L9.41251 27.5904C11.3778 27.0407 13.1759 26.0463 14.6546 24.6913C16.1334 23.3364 17.2494 21.6607 17.9083 19.806L21.9811 8.31469L16.9532 8.23975L13.3765 18.3366C12.9382 19.5628 12.1821 20.6627 11.1788 21.5334C10.1754 22.4041 8.95767 23.0172 7.63938 23.3153ZM129.125 27.0413L140.89 15.8655H134.497L124.765 25.3949V8.33181H119.529V37.8679H124.765V29.0669L134.883 37.8679H141.892L129.125 27.0413ZM69.0175 26.8617C69.0175 19.8768 73.659 15.2668 80.4699 15.2668C87.2808 15.2668 91.9222 19.8768 91.9222 26.8617C91.9222 33.8466 87.2704 38.4666 80.4699 38.4666C73.659 38.4666 69.0175 33.8466 69.0175 26.8617ZM74.2743 26.8617C74.2743 31.352 76.6107 34.0362 80.4803 34.0362C84.3395 34.0362 86.6654 31.362 86.6654 26.8617C86.6654 22.3614 84.3395 19.6972 80.4803 19.6972C76.6107 19.6972 74.2743 22.3714 74.2743 26.8617ZM99.5855 26.8617C99.5855 31.352 101.922 34.0362 105.791 34.0362C109.119 34.0362 110.871 32.0205 111.392 29.3763H116.618C115.919 34.595 111.945 38.4666 105.781 38.4666C98.9805 38.4666 94.3287 33.8466 94.3287 26.8617C94.3287 19.8768 98.9701 15.2668 105.781 15.2668C111.945 15.2668 115.919 19.1284 116.618 24.3571H111.392C110.881 21.7129 109.129 19.6972 105.791 19.6972C101.922 19.6972 99.5855 22.3714 99.5855 26.8617ZM157.394 30.4939H162.442C161.222 35.4631 157.133 38.4666 151.647 38.4666C144.794 38.4666 140.184 33.7867 140.184 26.8418C140.184 19.9167 144.742 15.2668 151.522 15.2668C158.207 15.2668 162.546 19.797 162.546 26.7919C162.546 27.3107 162.526 27.8196 162.463 28.3884H145.357C145.795 32.0505 148.163 34.2457 151.782 34.2457C154.526 34.2457 156.372 32.9785 157.394 30.4939ZM145.43 24.7962H157.363C156.81 21.3137 154.797 19.4478 151.543 19.4478C148.205 19.4478 146.004 21.4235 145.43 24.7962ZM170.702 37.8679V26.1433C170.702 22.0322 172.882 19.6972 176.595 19.6972C180.068 19.6972 181.779 21.7428 181.779 25.824V37.8679H187.015V25.325C187.015 18.9488 184.105 15.2668 179.015 15.2668C174.728 15.2668 171.745 17.8612 170.702 22.3515V15.8655H165.466V37.8679H170.702ZM67.102 15.629L67.1331 15.9495V20.9918L61.6969 21.4745C58.3696 21.7699 55.8249 24.4409 55.8249 27.6377L55.825 38.5552L50.2405 38.5553L50.2404 27.6378C50.2403 21.6815 54.9816 16.7051 61.1809 16.1547L67.102 15.629ZM39.2513 30.8937L32.4176 32.2362C31.0974 32.5312 29.8771 33.1419 28.871 34.0113C27.8649 34.8806 27.1059 35.98 26.6652 37.2066L23.0341 47.4554L18.2477 47.3846L18.0302 47.318L22.1334 35.7371C22.7936 33.8811 23.9113 32.2045 25.392 30.8492C26.8727 29.4939 28.6728 28.4997 30.6401 27.9507L39.2513 30.8937ZM28.7572 25.8838L40.2336 29.9196V25.0408L30.3998 21.5857C28.0458 20.7531 26.4227 18.8799 25.2871 15.7078L23.1375 8.67066L20.5029 16.3364L20.7444 17.1232C22.35 21.6918 24.9803 24.5558 28.7572 25.8838ZM0 25.7029L11.298 29.6679C15.2272 31.05 18.0838 34.1887 19.3392 38.5138L19.5698 39.2132L17.0047 46.6604L14.7377 39.7731C13.9088 36.8883 12.1009 34.8381 9.64674 33.9743L0 30.5816V25.7029Z" fill="white"/>
<path d="M195.097 3.15051C195.597 3.15051 196.073 3.20929 196.527 3.32684C196.983 3.44249 197.406 3.60744 197.796 3.82169C198.187 4.03593 198.541 4.29473 198.858 4.59809C199.177 4.90144 199.448 5.23988 199.672 5.61338C199.896 5.98689 200.069 6.39168 200.189 6.82775C200.312 7.26193 200.374 7.71791 200.374 8.1957C200.374 8.67728 200.311 9.13895 200.186 9.58071C200.064 10.0225 199.888 10.4339 199.66 10.815C199.432 11.1942 199.157 11.5392 198.834 11.8502C198.513 12.1592 198.154 12.4228 197.758 12.6408C197.363 12.8607 196.936 13.0304 196.477 13.1499C196.019 13.2693 195.539 13.329 195.038 13.329C194.54 13.329 194.064 13.2703 193.608 13.1527C193.152 13.0352 192.727 12.8674 192.333 12.6493C191.94 12.4313 191.583 12.1697 191.262 11.8644C190.943 11.5573 190.67 11.216 190.442 10.8406C190.216 10.4633 190.042 10.0566 189.919 9.62052C189.796 9.18445 189.734 8.72847 189.734 8.25258C189.734 7.7729 189.797 7.31407 189.922 6.8761C190.047 6.43624 190.223 6.02765 190.451 5.65035C190.681 5.27116 190.957 4.92799 191.28 4.62084C191.603 4.31369 191.963 4.0511 192.359 3.83306C192.758 3.61503 193.188 3.44723 193.649 3.32968C194.111 3.21024 194.594 3.15051 195.097 3.15051ZM195.091 4.04636C194.675 4.04636 194.279 4.09376 193.902 4.18856C193.528 4.28336 193.18 4.41892 192.859 4.59525C192.54 4.77157 192.251 4.98487 191.994 5.23514C191.736 5.4854 191.516 5.76601 191.334 6.07695C191.153 6.38789 191.015 6.72537 190.918 7.0894C190.82 7.45343 190.772 7.83736 190.772 8.2412C190.772 8.64315 190.819 9.02614 190.915 9.39016C191.012 9.75229 191.149 10.0888 191.328 10.3998C191.508 10.7107 191.725 10.9913 191.979 11.2416C192.232 11.4918 192.517 11.7051 192.832 11.8815C193.147 12.0578 193.488 12.1943 193.855 12.291C194.223 12.3858 194.611 12.4332 195.017 12.4332C195.429 12.4332 195.822 12.3849 196.194 12.2882C196.569 12.1896 196.915 12.0502 197.235 11.8701C197.556 11.69 197.845 11.4719 198.103 11.216C198.362 10.96 198.583 10.6747 198.766 10.36C198.95 10.0433 199.091 9.7011 199.188 9.33328C199.287 8.96546 199.336 8.57774 199.336 8.1701C199.336 7.77195 199.289 7.3937 199.194 7.03536C199.098 6.67513 198.962 6.34238 198.783 6.03713C198.607 5.73188 198.392 5.45697 198.138 5.21238C197.887 4.96591 197.603 4.7564 197.288 4.58387C196.973 4.41134 196.63 4.27862 196.26 4.18571C195.891 4.09281 195.501 4.04636 195.091 4.04636ZM194.113 10.6358H193.088V5.94044H195.552C195.806 5.94044 196.039 5.97457 196.251 6.04282C196.463 6.10918 196.644 6.20398 196.795 6.32722C196.947 6.44856 197.066 6.59455 197.151 6.76519C197.237 6.93582 197.279 7.12353 197.279 7.32829C197.279 7.5122 197.244 7.67905 197.175 7.82883C197.108 7.97861 197.012 8.10754 196.887 8.21561C196.764 8.32178 196.614 8.40426 196.438 8.46303C196.263 8.51991 196.068 8.54835 195.852 8.54835V8.54551C195.949 8.54551 196.041 8.56162 196.126 8.59385C196.213 8.62419 196.295 8.67064 196.372 8.73321C196.45 8.79388 196.522 8.87067 196.589 8.96357C196.657 9.05458 196.719 9.1617 196.777 9.28494L197.41 10.6358H196.31L195.677 9.39585C195.635 9.31243 195.59 9.24322 195.54 9.18824C195.493 9.13136 195.436 9.08586 195.371 9.05173C195.305 9.0176 195.229 8.9939 195.142 8.98063C195.055 8.96547 194.952 8.95788 194.836 8.95788H193.869L194.113 8.69624V10.6358ZM193.902 6.87326L194.113 6.50923V8.28102L193.869 8.02222H195.267C195.421 8.02222 195.559 8.00895 195.68 7.9824C195.801 7.95586 195.904 7.91794 195.989 7.86864C196.074 7.81745 196.139 7.75583 196.182 7.68379C196.228 7.60984 196.251 7.52737 196.251 7.43636C196.251 7.34536 196.229 7.26478 196.185 7.19462C196.142 7.12447 196.078 7.0657 195.995 7.0183C195.912 6.9709 195.809 6.93488 195.686 6.91023C195.563 6.88558 195.422 6.87326 195.264 6.87326H193.902Z" fill="#F9F9F9"/>
</svg>
