<svg width="244" height="230" fill="none" xmlns="http://www.w3.org/2000/svg"><path d="M201.5 224.721v-31.696M166 229h31.696M205.305 229h31.696M157.5 224.025v-31.697M157.5 184.721v-31.697M122 189h31.696M161.305 189h31.696M114.5 180.025v-31.697M114.5 140.721v-31.697M79 145h31.696M118.305 145h31.696M200.5 185.025v-31.697M200.5 145.721v-31.697M165 150h31.696M204.305 150h31.696M157.5 148.025v-31.697M157.5 108.721V77.024M122 113h31.696M161.305 113h31.696M200.5 106.025V74.328M200.5 66.721V35.024M165 71h31.696M204.305 71h31.696M75.5 224.025v-31.697M75.5 184.721v-31.697M40 189h31.697M79.305 189H111M118.5 224.721v-31.696M83 229h31.696M122.305 229h31.696M35.5 224.721v-31.696M0 229h31.697M39.305 229H71M36.5 181.025v-31.697M36.5 141.721v-31.697M1 146h31.697M40.305 146H72M75.5 136.025v-31.697M75.5 96.721V65.024M40 101h31.697M79.305 101H111M242.5 224.025v-31.697M242.5 184.721v-31.697M207 189h31.696M242.5 148.025v-31.697M242.5 108.721V77.024M207 113h31.696M242.5 71.025V39.328M242.5 31.721V.025M207 36h31.696" stroke="#ECECEC" stroke-width="2"/></svg>