<svg width="744" height="418" fill="none" xmlns="http://www.w3.org/2000/svg"><path d="M45.094 0v40.264M45.094 49.927v40.264M0 44.492h40.264M49.922 44.492h40.264M154.059 0v40.264M154.059 49.928v40.264M108.965 44.492h40.264M158.887 44.492h40.264M263.031 0v40.264M263.031 49.927v40.265M217.938 44.492h40.264M267.859 44.492h40.264M371.996 0v40.264M371.996 49.928v40.264M326.902 44.492h40.264M376.824 44.492h40.264" stroke="#fff" stroke-opacity=".3" stroke-width="1.707"/><path d="M480.969 0v40.264M480.969 49.927v40.265M435.875 44.492h40.264M485.797 44.492h40.264" stroke="#fff" stroke-width="1.707"/><path d="M589.934 0v40.264M589.934 49.927v40.265M544.84 44.492h40.264M594.762 44.492h40.264M698.902 0v40.264M698.902 49.927v40.265M653.809 44.492h40.264M703.73 44.492h40.265M45.094 108.971v40.264M45.094 158.899v40.264M0 153.463h40.264M49.922 153.463h40.264M154.059 108.971v40.264M154.059 158.899v40.264M108.965 153.463h40.264M158.887 153.463h40.264M263.031 108.971v40.264M263.031 158.899v40.264M217.938 153.463h40.264M267.859 153.463h40.264" stroke="#fff" stroke-opacity=".3" stroke-width="1.707"/><path d="M371.996 108.971v40.264M371.996 158.899v40.264M326.902 153.463h40.264M376.824 153.463h40.264" stroke="#fff" stroke-width="1.707"/><path d="M480.969 108.971v40.264M480.969 158.899v40.264M435.875 153.463h40.264M485.797 153.463h40.264M589.934 108.971v40.264M589.934 158.899v40.264M544.84 153.463h40.264M594.762 153.463h40.264M698.902 108.971v40.264M698.902 158.899v40.264M653.809 153.463h40.264M703.73 153.463h40.265M45.094 217.943v40.264M45.094 267.87v40.264M0 262.434h40.264M49.922 262.434h40.264M154.059 217.942v40.265M154.059 267.87v40.264M108.965 262.434h40.264M158.887 262.434h40.264" stroke="#fff" stroke-opacity=".3" stroke-width="1.707"/><path d="M263.031 217.943v40.264M263.031 267.87v40.264M217.938 262.434h40.264M267.859 262.434h40.264" stroke="#fff" stroke-width="1.707"/><path d="M371.996 217.942v40.265M371.996 267.87v40.264M326.902 262.434h40.264M376.824 262.434h40.264M480.969 217.943v40.264M480.969 267.87v40.264M435.875 262.434h40.264M485.797 262.434h40.264M589.934 217.942v40.265M589.934 267.87v40.264M544.84 262.434h40.264M594.762 262.434h40.264M698.902 217.942v40.265M698.902 267.87v40.264M653.809 262.434h40.264M703.73 262.434h40.265M45.094 326.914v40.264M45.094 376.841v40.264M0 371.406h40.264M49.922 371.406h40.264" stroke="#fff" stroke-opacity=".3" stroke-width="1.707"/><path d="M154.059 326.914v40.264M154.059 376.841v40.264M108.965 371.406h40.264M158.887 371.406h40.264" stroke="#fff" stroke-width="1.707"/><path d="M263.031 326.914v40.264M263.031 376.841v40.264M217.938 371.406h40.264M267.859 371.406h40.264M371.996 326.914v40.264M371.996 376.841v40.264M326.902 371.406h40.264M376.824 371.406h40.264M480.969 326.914v40.264M480.969 376.841v40.264M435.875 371.406h40.264M485.797 371.406h40.264M589.934 326.914v40.264M589.934 376.841v40.264M544.84 371.406h40.264M594.762 371.406h40.264M698.902 326.914v40.264M698.902 376.841v40.264M653.809 371.406h40.264M703.73 371.406h40.265" stroke="#fff" stroke-opacity=".3" stroke-width="1.707"/></svg>