<svg viewBox="0 0 107 101" fill="none" xmlns="http://www.w3.org/2000/svg"><path d="M36.234 41.535V56.92M36.234 60.613V76M19 58.536h15.386M38.078 58.536h15.386M17.234 65.666v15.386M17.234 84.745v15.386M0 82.668h15.386M19.078 82.668h15.386M77.473 41.535V56.92M77.473 60.613V76M60.238 58.536h15.386M79.316 58.536h15.386M96.621 22.388v15.386M96.621 41.466v15.386M79.387 39.389h15.386M98.465 39.389h15.386M98.535 17.001h15.386M96.621 60.682v15.386M96.621 79.76v15.387M79.387 77.683h15.386M98.465 77.683h15.386" stroke="#4893F4"/></svg>
