<svg width="107" height="101" viewBox="0 0 107 101" fill="none" xmlns="http://www.w3.org/2000/svg">
<path d="M36.2344 41.5348L36.2344 56.9208" stroke="#4893F4"/>
<path d="M36.2344 60.6134L36.2344 75.9995" stroke="#4893F4"/>
<path d="M19 58.536H34.3861" stroke="#4893F4"/>
<path d="M38.0781 58.536H53.4642" stroke="#4893F4"/>
<path d="M17.2344 65.6659L17.2344 81.0519" stroke="#4893F4"/>
<path d="M17.2344 84.7451L17.2344 100.131" stroke="#4893F4"/>
<path d="M0 82.6677H15.3861" stroke="#4893F4"/>
<path d="M19.0781 82.6677H34.4642" stroke="#4893F4"/>
<path d="M77.4727 41.5348L77.4727 56.9209" stroke="#4893F4"/>
<path d="M77.4727 60.6134L77.4727 75.9995" stroke="#4893F4"/>
<path d="M60.2383 58.5361H75.6243" stroke="#4893F4"/>
<path d="M79.3164 58.5361H94.7025" stroke="#4893F4"/>
<path d="M96.6211 22.3877L96.6211 37.7737" stroke="#4893F4"/>
<path d="M96.6211 41.4663L96.6211 56.8524" stroke="#4893F4"/>
<path d="M79.3867 39.3889H94.7728" stroke="#4893F4"/>
<path d="M98.4648 39.3889H113.851" stroke="#4893F4"/>
<path d="M98.5352 17.0013H113.921" stroke="#4893F4"/>
<path d="M96.6211 60.6819L96.6211 76.068" stroke="#4893F4"/>
<path d="M96.6211 79.7605L96.6211 95.1466" stroke="#4893F4"/>
<path d="M79.3867 77.6832H94.7728" stroke="#4893F4"/>
<path d="M98.4648 77.6832H113.851" stroke="#4893F4"/>
</svg>
