<svg viewBox="0 0 1609 938" fill="none" xmlns="http://www.w3.org/2000/svg"><path d="M76.457 1.044v68.264M76.457 85.692v68.264M0 76.476h68.264M84.648 76.476h68.265M284.457 1.044v68.264M284.457 85.692v68.264M208 76.476h68.264M292.648 76.476h68.265M492.457 1.044v68.264M492.457 85.692v68.264M416 76.476h68.264M500.648 76.476h68.265M700.457 1.044v68.264M700.457 85.692v68.264M624 76.476h68.264M708.648 76.476h68.265M908.457 1.044v68.264M908.457 85.692v68.264M832 76.476h68.264M916.648 76.476h68.265M1116.46 1.044v68.264M1116.46 85.692v68.264M1040 76.476h68.26M1124.65 76.476h68.26M1324.46 1.044v68.264M1324.46 85.692v68.264M1248 76.476h68.26M1332.65 76.476h68.26M1532.46 0v68.264M1532.46 84.648v68.265M1456 75.432h68.26M1540.65 75.432h68.26M76.457 197v68.265M76.457 281.649v68.264M0 272.433h68.264M84.648 272.433h68.265M284.457 197v68.265M208 272.433h68.264M292.648 272.433h68.265M492.457 197v68.265M492.457 281.649v68.264M416 272.433h68.264M500.648 272.433h68.265M700.457 197v68.265M700.457 281.649v68.264M624 272.433h68.264M708.648 272.433h68.265M908.457 197v68.265M908.457 281.649v68.264M832 272.433h68.264M916.648 272.433h68.265M1116.46 197v68.265M1116.46 281.649v68.264M1040 272.433h68.26M1124.65 272.433h68.26M1324.46 197v68.265M1248 272.433h68.26M1332.65 272.433h68.26M1532.46 195.956v68.265M1532.46 280.605v68.264M1456 271.389h68.26M1540.65 271.389h68.26M76.457 392.957v68.264M76.457 477.605v68.264M0 468.389h68.264M492.457 392.957v68.264M492.457 477.605v68.264M500.648 468.389h68.265M700.457 392.957v68.264M700.457 477.605v68.264M624 468.389h68.264M708.648 468.389h68.265M908.457 392.957v68.264M908.457 477.605v68.264M832 468.389h68.264M916.648 468.389h68.265M1116.46 392.957v68.264M1116.46 477.605v68.264M1040 468.389h68.26M1532.46 391.913v68.264M1532.46 476.561v68.264M1540.65 467.345h68.26M76.457 588.913v68.265M76.457 673.561v68.265M0 664.346h68.264M84.648 664.346h68.265M284.457 673.561v68.265M208 664.346h68.264M292.648 664.346h68.265M492.457 588.913v68.265M492.457 673.561v68.265M416 664.346h68.264M500.648 664.346h68.265M700.457 588.913v68.265M700.457 673.561v68.265M624 664.346h68.264M708.648 664.346h68.265M908.457 588.913v68.265M908.457 673.561v68.265M832 664.346h68.264M916.648 664.346h68.265M1116.46 588.913v68.265M1116.46 673.561v68.265M1040 664.346h68.26M1124.65 664.346h68.26M1324.46 673.561v68.265M1248 664.346h68.26M1332.65 664.346h68.26M1532.46 587.869v68.265M1532.46 672.517v68.265M1456 663.302h68.26M1540.65 663.302h68.26M76.457 784.87v68.264M76.457 869.518v68.264M0 860.302h68.264M84.648 860.302h68.265M284.457 784.87v68.264M284.457 869.518v68.264M208 860.302h68.264M292.648 860.302h68.265M492.457 784.87v68.264M492.457 869.518v68.264M416 860.302h68.264M500.648 860.302h68.265M700.457 784.87v68.264M700.457 869.518v68.264M624 860.302h68.264M708.648 860.302h68.265M908.457 784.87v68.264M908.457 869.518v68.264M832 860.302h68.264M916.648 860.302h68.265M1116.46 784.87v68.264M1116.46 869.518v68.264M1040 860.302h68.26M1124.65 860.302h68.26M1324.46 784.87v68.264M1324.46 869.518v68.264M1248 860.302h68.26M1332.65 860.302h68.26M1532.46 783.826v68.264M1532.46 868.474v68.264M1456 859.258h68.26M1540.65 859.258h68.26" stroke="#000" stroke-opacity=".05" stroke-width="2"/></svg>
