<svg viewBox="0 0 45 159" fill="none" xmlns="http://www.w3.org/2000/svg"><g clip-path="url(#a)" fill="#F9F9F9"><path fill-rule="evenodd" clip-rule="evenodd" d="m18.352 152.987 1.072 5.455 2.293-6.85a10.156 10.156 0 0 0-2.282-4.127 9.567 9.567 0 0 0-3.845-2.561l-9.045-3.205-.06 3.957 7.948 2.816c.966.344 1.831.94 2.517 1.729a6.41 6.41 0 0 1 1.402 2.786Zm2.933-95.625L12.488 48.1v5.032l7.501 7.66H6.56v4.122h23.248v-4.122H22.88l6.927-7.963v-5.517l-8.522 10.049Zm-.141 47.312c-5.498 0-9.127-3.653-9.127-9.014 0-5.361 3.629-9.015 9.127-9.015 5.498 0 9.134 3.662 9.134 9.015 0 5.361-3.636 9.014-9.134 9.014Zm0-4.138c3.534 0 5.647-1.839 5.647-4.885 0-3.037-2.105-4.868-5.647-4.868-3.543 0-5.64 1.83-5.64 4.868 0 3.046 2.105 4.885 5.64 4.885Zm0-19.923c3.534 0 5.647-1.839 5.647-4.885 0-2.619-1.587-3.998-3.668-4.408v-4.114c4.108.55 7.155 3.678 7.155 8.53 0 5.353-3.636 9.015-9.134 9.015s-9.127-3.654-9.127-9.015c0-4.852 3.04-7.98 7.155-8.53v4.114c-2.081.402-3.668 1.781-3.668 4.408 0 3.046 2.105 4.885 5.64 4.885Zm2.859-45.502v-3.974c3.911.96 6.275 4.179 6.275 8.497 0 5.394-3.683 9.023-9.15 9.023-5.45 0-9.111-3.588-9.111-8.924 0-5.263 3.566-8.678 9.072-8.678.408 0 .809.016 1.256.066v13.464c2.883-.345 4.61-2.209 4.61-5.058 0-2.159-.997-3.612-2.952-4.416Zm-4.485 9.416v-9.392c-2.741.435-4.21 2.02-4.21 4.581 0 2.627 1.555 4.36 4.21 4.811Zm10.289-19.892h-9.229c-3.236 0-5.074-1.716-5.074-4.638 0-2.734 1.61-4.08 4.823-4.08h9.48v-4.122h-9.873c-5.019 0-7.917 2.29-7.917 6.297 0 3.374 2.042 5.722 5.577 6.543h-5.106v4.121h17.319v-4.12Zm-17.505 81.549.25-.024h3.972l.38 4.279c.232 2.619 2.334 4.622 4.85 4.622h8.594v4.396h-8.593c-4.689 0-8.606-3.732-9.039-8.612l-.414-4.661Zm12.015 21.921 1.057 5.379c.232 1.039.713 2 1.397 2.791a6.02 6.02 0 0 0 2.515 1.737l8.068 2.858-.056 3.767-.053.172-9.115-3.23a9.578 9.578 0 0 1-3.848-2.565 10.167 10.167 0 0 1-2.281-4.131l2.316-6.778Zm-3.943 8.259 3.177-9.033h-3.84l-2.72 7.74c-.655 1.853-2.13 3.131-4.627 4.025l-5.539 1.692 6.034 2.073.62-.19c3.595-1.263 5.85-3.334 6.895-6.307ZM20.232 159l3.12-8.893c1.088-3.093 3.559-5.341 6.963-6.329l.55-.182 5.863 2.019-5.421 1.785c-2.271.652-3.885 2.075-4.565 4.007L24.072 159h-3.84Z"/><path d="M2.48 5.433a4.472 4.472 0 0 1 .528-2.125 3.955 3.955 0 0 1 1.41-1.477 3.936 3.936 0 0 1 2.033-.552c.38 0 .743.05 1.09.148.348.096.672.234.972.414A3.954 3.954 0 0 1 9.95 3.338c.173.31.307.647.4 1.009.095.36.142.738.142 1.132 0 .392-.047.767-.139 1.126A4.124 4.124 0 0 1 9.339 8.45c-.242.251-.51.467-.806.646a3.94 3.94 0 0 1-2.037.557 3.933 3.933 0 0 1-3.479-2.066 4.533 4.533 0 0 1-.537-2.155Zm.705.004c0 .328.037.64.112.936.075.295.181.569.32.822a3.179 3.179 0 0 0 1.166 1.2c.245.142.51.251.797.328.287.076.59.114.907.114a3.314 3.314 0 0 0 1.7-.438 3.138 3.138 0 0 0 1.165-1.183 3.434 3.434 0 0 0 .435-1.72c0-.325-.038-.634-.115-.927a3.438 3.438 0 0 0-.329-.819 3.154 3.154 0 0 0-.514-.683 3.244 3.244 0 0 0-1.482-.854 3.505 3.505 0 0 0-.916-.117c-.313 0-.611.037-.893.112a3.136 3.136 0 0 0-.786.323c-.24.139-.457.308-.65.508a3.033 3.033 0 0 0-.494.67c-.136.247-.24.517-.313.809a3.75 3.75 0 0 0-.11.92Zm5.187.77v.807H4.676v-1.94c0-.2.027-.382.08-.55.053-.166.127-.309.224-.427a.978.978 0 0 1 .788-.381c.145 0 .277.026.394.081a.87.87 0 0 1 .305.227c.083.097.148.214.195.353.044.138.067.291.067.461h-.002a.644.644 0 0 1 .148-.41.9.9 0 0 1 .18-.17c.072-.053.157-.102.254-.147l1.063-.499v.866l-.976.498a.73.73 0 0 0-.164.108.434.434 0 0 0-.107.133.574.574 0 0 0-.056.18 1.424 1.424 0 0 0-.018.242v.76l-.206-.192h1.527Zm-2.962.166-.286-.166h1.394l-.203.192v-1.1c0-.121-.01-.23-.032-.325a.848.848 0 0 0-.09-.243.434.434 0 0 0-.145-.152.364.364 0 0 0-.194-.054.353.353 0 0 0-.19.051.41.41 0 0 0-.14.15.816.816 0 0 0-.085.243c-.019.097-.029.208-.029.333v1.071Z"/></g><defs><clipPath id="a"><path fill="#fff" transform="rotate(-90 79.5 79.5)" d="M0 0h159v44.452H0z"/></clipPath></defs></svg>
