<svg width="364" height="282" viewBox="0 0 364 282" fill="none" xmlns="http://www.w3.org/2000/svg">
<path d="M104.906 216.89L104.906 233.975" stroke="#4893F4" stroke-width="1.50877"/>
<path d="M104.906 237.882L104.906 254.967" stroke="#4893F4" stroke-width="1.50877"/>
<path d="M123.945 235.441H106.86" stroke="#4893F4" stroke-width="1.50877"/>
<path d="M102.953 235.441H85.8677" stroke="#4893F4" stroke-width="1.50877"/>
<path d="M125.906 243.74L125.906 260.826" stroke="#4893F4" stroke-width="1.50877"/>
<path d="M125.906 264.733L125.906 281.818" stroke="#4893F4" stroke-width="1.50877"/>
<path d="M144.945 262.292H127.86" stroke="#4893F4" stroke-width="1.50877"/>
<path d="M123.953 262.292H106.868" stroke="#4893F4" stroke-width="1.50877"/>
<path d="M308.039 213L308.039 230.085" stroke="#4893F4" stroke-width="1.50877"/>
<path d="M308.039 233.992L308.039 251.078" stroke="#4893F4" stroke-width="1.50877"/>
<path d="M327.078 231.551H309.993" stroke="#4893F4" stroke-width="1.50877"/>
<path d="M306.086 231.551H289.001" stroke="#4893F4" stroke-width="1.50877"/>
<path d="M344.039 182L344.039 199.085" stroke="#4893F4" stroke-width="1.50877"/>
<path d="M344.039 202.992L344.039 220.078" stroke="#4893F4" stroke-width="1.50877"/>
<path d="M363.078 200.551H345.993" stroke="#4893F4" stroke-width="1.50877"/>
<path d="M342.086 200.551H325.001" stroke="#4893F4" stroke-width="1.50877"/>
<path d="M327.039 0L327.039 17.0854" stroke="#4893F4" stroke-width="1.50877"/>
<path d="M327.039 20.9922L327.039 38.0776" stroke="#4893F4" stroke-width="1.50877"/>
<path d="M346.078 18.5512H328.993" stroke="#4893F4" stroke-width="1.50877"/>
<path d="M325.086 18.5512H308.001" stroke="#4893F4" stroke-width="1.50877"/>
<path d="M59.5078 216.89L59.5078 233.975" stroke="#4893F4" stroke-width="1.50877"/>
<path d="M59.5078 237.882L59.5078 254.968" stroke="#4893F4" stroke-width="1.50877"/>
<path d="M78.5469 235.441H61.4615" stroke="#4893F4" stroke-width="1.50877"/>
<path d="M57.5547 235.441H40.4693" stroke="#4893F4" stroke-width="1.50877"/>
<path d="M38.0234 195.898L38.0234 212.983" stroke="#4893F4" stroke-width="1.50877"/>
<path d="M38.0234 216.89L38.0234 233.975" stroke="#4893F4" stroke-width="1.50877"/>
<path d="M57.0625 214.449H39.9771" stroke="#4893F4" stroke-width="1.50877"/>
<path d="M36.0703 214.449H18.9849" stroke="#4893F4" stroke-width="1.50877"/>
<path d="M17.0391 171L17.0391 188.085" stroke="#4893F4" stroke-width="1.50877"/>
<path d="M17.0391 191.992L17.0391 209.078" stroke="#4893F4" stroke-width="1.50877"/>
<path d="M36.0781 189.551H18.9927" stroke="#4893F4" stroke-width="1.50877"/>
<path d="M15.0859 189.551H-1.99944" stroke="#4893F4" stroke-width="1.50877"/>
<path d="M38.0234 237.882L38.0234 254.967" stroke="#4893F4" stroke-width="1.50877"/>
<path d="M38.0234 258.874L38.0234 275.96" stroke="#4893F4" stroke-width="1.50877"/>
<path d="M57.0625 256.433H39.9771" stroke="#4893F4" stroke-width="1.50877"/>
<path d="M36.0703 256.433H18.9849" stroke="#4893F4" stroke-width="1.50877"/>
</svg>
