<svg width="1720" height="244" viewBox="0 0 1720 244" fill="none" xmlns="http://www.w3.org/2000/svg">
<path d="M217 104L217 139" stroke="#4893F4" stroke-width="1.50877"/>
<path d="M217 147L217 182" stroke="#4893F4" stroke-width="1.50877"/>
<path d="M256 142H221" stroke="#4893F4" stroke-width="1.50877"/>
<path d="M213 142H178" stroke="#4893F4" stroke-width="1.50877"/>
<path d="M1542 120L1542 155" stroke="#4893F4" stroke-width="1.50877"/>
<path d="M1542 163L1542 198" stroke="#4893F4" stroke-width="1.50877"/>
<path d="M1581 158H1546" stroke="#4893F4" stroke-width="1.50877"/>
<path d="M1538 158H1503" stroke="#4893F4" stroke-width="1.50877"/>
<path d="M1620 166L1620 201" stroke="#4893F4" stroke-width="1.50877"/>
<path d="M1620 209L1620 244" stroke="#4893F4" stroke-width="1.50877"/>
<path d="M1659 204H1624" stroke="#4893F4" stroke-width="1.50877"/>
<path d="M1616 204H1581" stroke="#4893F4" stroke-width="1.50877"/>
<path d="M1681 0L1681 35" stroke="#4893F4" stroke-width="1.50877"/>
<path d="M1681 43L1681 78" stroke="#4893F4" stroke-width="1.50877"/>
<path d="M1720 38H1685" stroke="#4893F4" stroke-width="1.50877"/>
<path d="M1677 38H1642" stroke="#4893F4" stroke-width="1.50877"/>
<path d="M260 159L260 194" stroke="#4893F4" stroke-width="1.50877"/>
<path d="M260 202L260 237" stroke="#4893F4" stroke-width="1.50877"/>
<path d="M299 197H264" stroke="#4893F4" stroke-width="1.50877"/>
<path d="M256 197H221" stroke="#4893F4" stroke-width="1.50877"/>
<path d="M124 104L124 139" stroke="#4893F4" stroke-width="1.50877"/>
<path d="M124 147L124 182" stroke="#4893F4" stroke-width="1.50877"/>
<path d="M163 142H128" stroke="#4893F4" stroke-width="1.50877"/>
<path d="M120 142H85" stroke="#4893F4" stroke-width="1.50877"/>
<path d="M80 61L80 96" stroke="#4893F4" stroke-width="1.50877"/>
<path d="M80 104L80 139" stroke="#4893F4" stroke-width="1.50877"/>
<path d="M119 99H84" stroke="#4893F4" stroke-width="1.50877"/>
<path d="M76 99H41" stroke="#4893F4" stroke-width="1.50877"/>
<path d="M37 10L37 45" stroke="#4893F4" stroke-width="1.50877"/>
<path d="M37 53L37 88" stroke="#4893F4" stroke-width="1.50877"/>
<path d="M76 48H41" stroke="#4893F4" stroke-width="1.50877"/>
<path d="M33 48H-2" stroke="#4893F4" stroke-width="1.50877"/>
<path d="M80 147L80 182" stroke="#4893F4" stroke-width="1.50877"/>
<path d="M80 190L80 225" stroke="#4893F4" stroke-width="1.50877"/>
<path d="M119 185H84" stroke="#4893F4" stroke-width="1.50877"/>
<path d="M76 185H41" stroke="#4893F4" stroke-width="1.50877"/>
</svg>
