<svg viewBox="0 0 335 658" fill="none" xmlns="http://www.w3.org/2000/svg"><path d="M27 0v25M27 30v25M0 27h25M30 27h25M96.988 0v25M96.988 30v25M69.988 27h25M100 27h25M166.988 0v25M166.988 30v25M139.988 27h25M170 27h25M236.984 0v25M236.984 30v25M209.984 27h25M240 27h25M306.988 0v25M306.988 30v25M279.988 27h25M310 27h25M27 67v25M27 97v25M0 94h25M30 94h25M96.988 67v25M96.988 97v25M69.988 94h25M100 94h25M166.988 67v25M166.988 97v25M139.988 94h25M170 94h25M236.984 67v25M236.984 97v25M209.984 94h25M240 94h25M306.988 67v25M306.988 97v25M279.988 94h25M310 94h25M27 134v25M27 164v25M0 161h25M30 161h25M96.988 134v25M96.988 164v25M69.988 161h25M100 161h25M166.988 134v25M166.988 164v25M139.988 161h25M170 161h25M236.984 134v25M236.984 164v25M209.984 161h25M240 161h25M306.988 134v25M306.988 164v25M279.988 161h25M310 161h25M27 201v25M27 231v25M0 228h25M30 228h25M96.988 201v25M96.988 231v25M69.988 228h25M100 228h25M166.988 201v25M166.988 231v25M139.988 228h25M170 228h25M236.984 201v25M236.984 231v25M209.984 228h25M240 228h25M306.988 201v25M306.988 231v25M279.988 228h25M310 228h25M27 268v25M27 298v25M0 295h25M30 295h25M96.988 268v25M96.988 298v25M69.988 295h25M100 295h25M166.988 268v25M166.988 298v25M139.988 295h25M170 295h25M236.984 268v25M236.984 298v25M209.984 295h25M240 295h25M306.988 268v25M306.988 298v25M279.988 295h25M310 295h25M27 335v25M27 365v25M0 362h25M30 362h25M96.988 335v25M96.988 365v25M69.988 362h25M100 362h25M166.988 335v25M166.988 365v25M139.988 362h25M170 362h25M236.984 335v25M236.984 365v25M209.984 362h25M240 362h25M306.988 335v25M306.988 365v25M279.988 362h25M310 362h25M27 402v25M27 432v25M0 429h25M30 429h25M96.988 402v25M96.988 432v25M69.988 429h25M100 429h25M166.988 402v25M166.988 432v25M139.988 429h25M170 429h25M236.984 402v25M236.984 432v25M209.984 429h25M240 429h25M306.988 402v25M306.988 432v25M279.988 429h25M310 429h25M27 469v25M27 499v25M0 496h25M30 496h25M96.988 469v25M96.988 499v25M69.988 496h25M100 496h25M166.988 469v25M166.988 499v25M139.988 496h25M170 496h25M236.984 469v25M236.984 499v25M209.984 496h25M240 496h25M306.988 469v25M306.988 499v25M279.988 496h25M310 496h25M27 536v25M27 566v25M0 563h25M30 563h25M96.988 536v25M96.988 566v25M69.988 563h25M100 563h25M166.988 536v25M166.988 566v25M139.988 563h25M170 563h25M236.984 536v25M236.984 566v25M209.984 563h25M240 563h25M306.988 536v25M306.988 566v25M279.988 563h25M310 563h25M27 603v25M27 633v25M0 630h25M30 630h25M96.988 603v25M96.988 633v25M69.988 630h25M100 630h25M166.988 603v25M166.988 633v25M139.988 630h25M170 630h25M236.984 603v25M236.984 633v25M209.984 630h25M240 630h25M306.988 603v25M306.988 633v25M279.988 630h25M310 630h25" stroke="#000" stroke-opacity=".05" stroke-width="1.399"/></svg>
