<svg width="167" height="80" fill="none" xmlns="http://www.w3.org/2000/svg"><path d="M1 15.88 15.88 1M22.38 36.786l14.881-14.88M22.38 1l14.881 14.88M1 21.905l14.88 14.881M43.913 15.88 58.793 1M65.294 36.786l14.88-14.88M65.294 1l14.88 14.88M43.913 21.905l14.88 14.881M86.826 15.88 101.706 1M108.206 36.786l14.881-14.88M108.206 1l14.881 14.88M86.826 21.905l14.88 14.881M129.739 15.88 144.62 1M151.12 36.786 166 21.906M151.12 1 166 15.88M129.739 21.905l14.881 14.881" stroke="#fff" stroke-opacity=".2" stroke-width="1.869"/><path d="m1 58.32 14.88-14.882" stroke="#fff" stroke-width="1.869"/><path d="m22.38 79.225 14.881-14.88" stroke="#fff" stroke-opacity=".2" stroke-width="1.869"/><path d="M22.38 43.438 37.261 58.32" stroke="#fff" stroke-width="1.869"/><path d="m1 64.344 14.88 14.88" stroke="#fff" stroke-opacity=".2" stroke-width="1.869"/><path d="m43.913 58.32 14.88-14.882" stroke="#fff" stroke-width="1.869"/><path d="m65.294 79.225 14.88-14.88" stroke="#fff" stroke-opacity=".2" stroke-width="1.869"/><path d="m65.294 43.438 14.88 14.881" stroke="#fff" stroke-width="1.869"/><path d="m43.913 64.344 14.88 14.88" stroke="#fff" stroke-opacity=".2" stroke-width="1.869"/><path d="m86.826 58.32 14.88-14.882" stroke="#fff" stroke-width="1.869"/><path d="m108.206 79.225 14.881-14.88" stroke="#fff" stroke-opacity=".2" stroke-width="1.869"/><path d="m108.206 43.438 14.881 14.881" stroke="#fff" stroke-width="1.869"/><path d="m86.826 64.344 14.88 14.88" stroke="#fff" stroke-opacity=".2" stroke-width="1.869"/><path d="m129.739 58.32 14.881-14.882" stroke="#fff" stroke-width="1.869"/><path d="M151.12 79.225 166 64.345" stroke="#fff" stroke-opacity=".2" stroke-width="1.869"/><path d="M151.12 43.438 166 58.32" stroke="#fff" stroke-width="1.869"/><path d="m129.739 64.344 14.881 14.88" stroke="#fff" stroke-opacity=".2" stroke-width="1.869"/></svg>