<svg width="349" height="348" viewBox="0 0 349 348" fill="none" xmlns="http://www.w3.org/2000/svg">
<path d="M296.695 187L296.695 233.159" stroke="#4893F4" stroke-width="2"/>
<path d="M296.695 244.237L296.695 290.395" stroke="#4893F4" stroke-width="2"/>
<path d="M245 238.005H291.159" stroke="#4893F4" stroke-width="2"/>
<path d="M302.234 238.005H348.393" stroke="#4893F4" stroke-width="2"/>
<path d="M230.695 244L230.695 290.159" stroke="#4893F4" stroke-width="2"/>
<path d="M230.695 301.237L230.695 347.395" stroke="#4893F4" stroke-width="2"/>
<path d="M179 295.005H225.159" stroke="#4893F4" stroke-width="2"/>
<path d="M236.234 295.005H282.393" stroke="#4893F4" stroke-width="2"/>
<path d="M103.695 73L103.695 119.159" stroke="#4893F4" stroke-width="2"/>
<path d="M103.695 130.237L103.695 176.395" stroke="#4893F4" stroke-width="2"/>
<path d="M52 124.005H98.1586" stroke="#4893F4" stroke-width="2"/>
<path d="M109.234 124.005H155.393" stroke="#4893F4" stroke-width="2"/>
<path d="M114.695 243L114.695 289.159" stroke="#4893F4" stroke-width="2"/>
<path d="M114.695 300.237L114.695 346.395" stroke="#4893F4" stroke-width="2"/>
<path d="M63 294.005H109.159" stroke="#4893F4" stroke-width="2"/>
<path d="M120.234 294.005H166.393" stroke="#4893F4" stroke-width="2"/>
<path d="M51.6953 187L51.6953 233.159" stroke="#4893F4" stroke-width="2"/>
<path d="M51.6953 244.237L51.6953 290.395" stroke="#4893F4" stroke-width="2"/>
<path d="M0 238.005H46.1586" stroke="#4893F4" stroke-width="2"/>
<path d="M57.2344 238.005H103.393" stroke="#4893F4" stroke-width="2"/>
<path d="M178.695 0L178.695 46.1586" stroke="#4893F4" stroke-width="2"/>
<path d="M178.695 57.2368L178.695 103.395" stroke="#4893F4" stroke-width="2"/>
<path d="M127 51.0054H173.159" stroke="#4893F4" stroke-width="2"/>
<path d="M184.234 51.0054H230.393" stroke="#4893F4" stroke-width="2"/>
</svg>
