<svg width="100" height="100" viewBox="0 0 100 100" fill="none" xmlns="http://www.w3.org/2000/svg">
<rect x="17.1641" y="15.9434" width="66.6721" height="68.0328" fill="#4893F4" fill-opacity="0.2"/>
<path d="M16.4844 22.0664V83.9762H82.4762" stroke="#4893F4" stroke-width="1.73196" stroke-dasharray="9.95 1.99"/>
<circle cx="18" cy="80.5" r="14" fill="#B3D4FF" stroke="#4893F4" stroke-width="1.73196"/>
<path d="M11.3359 86.166H24.6693" stroke="#4893F4" stroke-width="1.5" stroke-miterlimit="10" stroke-linecap="round" stroke-linejoin="round"/>
<path d="M11.9688 86.1675L12.0021 78.1475C12.0021 77.7408 12.1954 77.3542 12.5154 77.1008L17.1821 73.4675C17.6621 73.0942 18.3354 73.0942 18.8221 73.4675L23.4888 77.0942C23.8154 77.3475 24.0021 77.7341 24.0021 78.1475V86.1675" stroke="#4893F4" stroke-width="1.5" stroke-miterlimit="10" stroke-linejoin="round"/>
<path d="M23 76.5L22.9797 73.5H20" stroke="#4893F4" stroke-width="1.5" stroke-miterlimit="10" stroke-linecap="round" stroke-linejoin="round"/>
<circle cx="18" cy="19.5" r="14" fill="#B3D4FF" stroke="#4893F4" stroke-width="1.73196"/>
<path d="M24.7984 13H11.1984C10.7566 13 10.3984 13.3582 10.3984 13.8V21.8C10.3984 22.2418 10.7566 22.6 11.1984 22.6H24.7984C25.2403 22.6 25.5984 22.2418 25.5984 21.8V13.8C25.5984 13.3582 25.2403 13 24.7984 13Z" stroke="#4893F4" stroke-width="1.5"/>
<path d="M10 25.8004H26M17.2 15.4004H18.8" stroke="#4893F4" stroke-width="1.5" stroke-linecap="round" stroke-linejoin="round"/>
<path d="M43.6953 15.9434H84.515V55.4024" stroke="#4893F4" stroke-width="1.73196" stroke-dasharray="9.95 1.99"/>
<circle cx="50.9291" cy="49.4291" r="16.9291" fill="#4893F4"/>
<path d="M43.4531 49.4292L48.3482 54.6739C48.6742 55.0232 49.2336 55.004 49.5349 54.6332L59.2012 42.7363" stroke="#EAF3FE" stroke-width="3.14961" stroke-linecap="round"/>
<circle cx="83" cy="19.5" r="14" fill="#4893F4" stroke="#4893F4" stroke-width="1.73196"/>
<path d="M91.3307 19.4993C91.3307 24.0993 87.5974 27.8327 82.9974 27.8327C78.3974 27.8327 74.6641 24.0993 74.6641 19.4993C74.6641 14.8993 78.3974 11.166 82.9974 11.166C87.5974 11.166 91.3307 14.8993 91.3307 19.4993Z" stroke="white" stroke-width="1.5" stroke-linecap="round" stroke-linejoin="round"/>
<path d="M86.0953 22.1495L83.512 20.6078C83.062 20.3411 82.6953 19.6995 82.6953 19.1745V15.7578" stroke="white" stroke-width="1.5" stroke-linecap="round" stroke-linejoin="round"/>
<circle cx="83" cy="80.5" r="14" fill="#B3D4FF" stroke="#4893F4" stroke-width="1.73196"/>
<path d="M80.3359 72.584V74.959" stroke="#4893F4" stroke-width="1.5" stroke-miterlimit="10" stroke-linecap="round" stroke-linejoin="round"/>
<path d="M86.6641 72.584V74.959" stroke="#4893F4" stroke-width="1.5" stroke-miterlimit="10" stroke-linecap="round" stroke-linejoin="round"/>
<path d="M76.7734 78.1953H90.2318" stroke="#4893F4" stroke-width="1.5" stroke-miterlimit="10" stroke-linecap="round" stroke-linejoin="round"/>
<path d="M90.625 77.7298V84.459C90.625 86.834 89.4375 88.4173 86.6667 88.4173H80.3333C77.5625 88.4173 76.375 86.834 76.375 84.459V77.7298C76.375 75.3548 77.5625 73.7715 80.3333 73.7715H86.6667C89.4375 73.7715 90.625 75.3548 90.625 77.7298Z" stroke="#4893F4" stroke-width="1.5" stroke-miterlimit="10" stroke-linecap="round" stroke-linejoin="round"/>
<path d="M83.493 81.8451H83.5002" stroke="#4893F4" stroke-width="2" stroke-linecap="round" stroke-linejoin="round"/>
<path d="M80.5634 81.8451H80.5705" stroke="#4893F4" stroke-width="2" stroke-linecap="round" stroke-linejoin="round"/>
<path d="M80.5634 84.2201H80.5705" stroke="#4893F4" stroke-width="2" stroke-linecap="round" stroke-linejoin="round"/>
</svg>
