<svg width="100" height="100" viewBox="0 0 100 100" fill="none" xmlns="http://www.w3.org/2000/svg">
<path d="M18.6117 32.5139C16.8944 33.8271 13.3386 37.5446 12.8537 41.9086C12.3688 46.2725 12.6516 66.1528 12.8537 75.5474" stroke="white" stroke-width="2"/>
<path d="M41.6721 33.4241C43.5914 35.7475 47.2483 41.3035 46.5209 44.9401L45.0057 47.9706L46.2179 61.608H40.7629V70.0935H22.8828" stroke="white" stroke-width="2"/>
<path d="M30.7734 70.092V74.6378" stroke="white" stroke-width="2"/>
<path d="M81.2086 32.5137C82.9259 33.8269 86.4818 37.5444 86.9666 41.9083C87.4515 46.2723 87.1687 66.1526 86.9666 75.5472" stroke="white" stroke-width="2"/>
<path d="M58.1404 33.4238C56.2211 35.7472 52.5642 41.3032 53.2916 44.9398L54.8068 47.9704L53.5946 61.6078H59.0496V70.0932H76.9297" stroke="white" stroke-width="2"/>
<path d="M69.0469 70.0918V74.6376" stroke="white" stroke-width="2"/>
<path d="M29.7891 21.5062V13.5H70.8235V21.5062" stroke="white" stroke-width="1.44625" stroke-dasharray="8.31 1.66"/>
<path d="M62.1094 33.2134V31.8139C62.1094 30.9869 62.7853 30.303 63.6203 30.303C65.0596 30.303 65.648 29.2851 64.9244 28.0367C64.5109 27.321 64.7574 26.3906 65.481 25.9771L66.8567 25.1898C67.485 24.8161 68.2961 25.0387 68.6698 25.667L68.7573 25.818C69.473 27.0665 70.6499 27.0665 71.3735 25.818L71.461 25.667C71.8347 25.0387 72.6458 24.8161 73.274 25.1898L74.6497 25.9771C75.3734 26.3906 75.6199 27.321 75.2064 28.0367C74.4827 29.2851 75.0712 30.303 76.5105 30.303C77.3375 30.303 78.0214 30.9789 78.0214 31.8139V33.2134C78.0214 34.0405 77.3455 34.7243 76.5105 34.7243C75.0712 34.7243 74.4827 35.7422 75.2064 36.9907C75.6199 37.7143 75.3734 38.6367 74.6497 39.0502L73.274 39.8375C72.6458 40.2112 71.8347 39.9886 71.461 39.3604L71.3735 39.2093C70.6578 37.9608 69.4809 37.9608 68.7573 39.2093L68.6698 39.3604C68.2961 39.9886 67.485 40.2112 66.8567 39.8375L65.481 39.0502C64.7574 38.6367 64.5109 37.7063 64.9244 36.9907C65.648 35.7422 65.0596 34.7243 63.6203 34.7243C62.7853 34.7243 62.1094 34.0405 62.1094 33.2134Z" fill="white" fill-opacity="0.2" stroke="white" stroke-width="1.5" stroke-miterlimit="10" stroke-linecap="round" stroke-linejoin="round"/>
<path d="M70.0575 34.8982C71.375 34.8982 72.4431 33.8301 72.4431 32.5126C72.4431 31.195 71.375 30.127 70.0575 30.127C68.7399 30.127 67.6719 31.195 67.6719 32.5126C67.6719 33.8301 68.7399 34.8982 70.0575 34.8982Z" stroke="white" stroke-width="1.5" stroke-miterlimit="10" stroke-linecap="round" stroke-linejoin="round"/>
<path d="M26.4677 37.6632V36.6751C24.5084 35.491 22.8984 33.1825 22.8984 30.7292C22.8984 26.5125 26.7743 23.2074 31.1529 24.1614C33.078 24.5873 34.7647 25.8651 35.6421 27.6284C37.4225 31.2062 35.5484 35.0055 32.7969 36.6666V37.6547C32.7969 37.9017 32.8906 38.4725 31.9791 38.4725H29.6323H27.2855C26.3484 38.481 26.4677 38.1147 26.4677 37.6632Z" fill="white" fill-opacity="0.2"/>
<path d="M29.6323 38.4725H31.9791C32.8906 38.4725 32.7969 37.9017 32.7969 37.6547V36.6666C35.5484 35.0055 37.4225 31.2062 35.6421 27.6284C34.7647 25.8651 33.078 24.5873 31.1529 24.1614C26.7743 23.2074 22.8984 26.5125 22.8984 30.7292C22.8984 33.1825 24.5084 35.491 26.4677 36.6751V37.6632C26.4677 38.1147 26.3484 38.481 27.2855 38.4725H29.6323ZM29.6323 38.4725V32.1568H27.2855H31.9791" stroke="white" stroke-width="1.5" stroke-linecap="round" stroke-linejoin="round"/>
<path d="M26.6328 41.0364C28.5835 40.4827 30.645 40.4827 32.5958 41.0364" stroke="white" stroke-width="1.5" stroke-linecap="round" stroke-linejoin="round"/>
<path d="M2 15.2797V2.5H15.7627" stroke="white" stroke-width="1.7026" stroke-dasharray="9.78 1.96"/>
<path d="M2 81.4996V94.2793H15.7627" stroke="white" stroke-width="1.7026" stroke-dasharray="9.78 1.96"/>
<path d="M97.7656 81.4996V94.2793H84.0029" stroke="white" stroke-width="1.7026" stroke-dasharray="9.78 1.96"/>
<path d="M97.7656 15.2797V2.5H84.0029" stroke="white" stroke-width="1.7026" stroke-dasharray="9.78 1.96"/>
</svg>
