<svg width="100" height="100" viewBox="0 0 100 100" fill="none" xmlns="http://www.w3.org/2000/svg">
<ellipse cx="48.9999" cy="49.2858" rx="35.9999" ry="36.7858" fill="white" fill-opacity="0.1"/>
<path d="M59.5811 47.2963C60.0749 48.1852 60.4422 49.1111 60.6831 50.0741C60.924 51.037 61.0505 52.0309 61.0625 53.0556V54.963L49.5 60.9074L37.9375 54.963C37.9375 54.2222 37.9435 53.5309 37.9556 52.8889C37.9676 52.2469 38.0218 51.6235 38.1182 51.0185C38.2145 50.4136 38.359 49.8086 38.5518 49.2037C38.7445 48.5988 39.0335 47.963 39.4189 47.2963L35.625 45.3519V56.2222C35.9743 56.3457 36.2874 56.5185 36.5645 56.7407C36.8415 56.963 37.0884 57.2222 37.3052 57.5185C37.522 57.8148 37.6785 58.1358 37.7749 58.4815C37.8713 58.8272 37.9255 59.1914 37.9375 59.5741V65.5H31V59.5741C31 59.2037 31.0542 58.8457 31.1626 58.5C31.271 58.1543 31.4276 57.8272 31.6323 57.5185C31.8371 57.2099 32.078 56.9506 32.355 56.7407C32.632 56.5309 32.9512 56.358 33.3125 56.2222V44.1667L31 42.9815L49.5 33.5L68 42.9815L59.5811 47.2963ZM35.625 59.5741C35.625 59.2531 35.5106 58.9753 35.2817 58.7407C35.0529 58.5062 34.7819 58.3889 34.4688 58.3889C34.1556 58.3889 33.8846 58.5062 33.6558 58.7407C33.4269 58.9753 33.3125 59.2531 33.3125 59.5741V63.1296H35.625V59.5741ZM58.75 53.5C58.75 52.5494 58.6597 51.6667 58.479 50.8519C58.2983 50.037 57.9792 49.2037 57.5215 48.3519L49.5 52.463L41.4785 48.3519C41.0811 49.0679 40.7799 49.821 40.5752 50.6111C40.3704 51.4012 40.262 52.216 40.25 53.0556V53.5L49.5 58.2407L58.75 53.5Z" fill="white"/>
<path d="M82.5156 35.3711L72.9966 28.8349L83.4166 23.8593L82.5156 35.3711ZM78.8019 30.251C77.2502 27.7359 75.4083 25.4298 73.3184 23.3845L74.7173 21.9551C76.9244 24.1151 78.8679 26.5488 80.504 29.2008L78.8019 30.251ZM72.0299 22.1844C70.9325 21.2121 69.7749 20.308 68.5624 19.4787L69.6915 17.8279C70.9735 18.7047 72.1969 19.6603 73.3563 20.6875L72.0299 22.1844ZM68.5624 19.4787C67.3682 18.6619 66.1318 17.9252 64.8607 17.2708L65.7761 15.4926C67.1211 16.185 68.4289 16.9643 69.6915 17.8279L68.5624 19.4787ZM63.3081 16.5202C60.6784 15.3293 57.9185 14.4801 55.0912 13.9913L55.4319 12.0205C58.4272 12.5384 61.3498 13.4379 64.1332 14.6983L63.3081 16.5202ZM53.386 13.7413C51.9641 13.5699 50.5284 13.4891 49.0866 13.5012L49.0699 11.5012C50.5975 11.4884 52.1187 11.5741 53.6253 11.7557L53.386 13.7413ZM49.0866 13.5012C47.6445 13.5133 46.2099 13.6182 44.7904 13.8135L44.5178 11.8322C46.0217 11.6253 47.5418 11.5141 49.0699 11.5012L49.0866 13.5012ZM43.0889 14.0922C40.2696 14.6284 37.5232 15.5239 34.9121 16.7588L34.057 14.9508C36.8204 13.6439 39.7285 12.6954 42.7153 12.1274L43.0889 14.0922ZM33.3716 17.5353C32.111 18.2108 30.8864 18.968 29.7051 19.8046L28.5492 18.1724C29.798 17.288 31.0932 16.4871 32.4269 15.7724L33.3716 17.5353ZM29.7051 19.8046C28.5055 20.6541 27.362 21.5775 26.2798 22.5681L24.9294 21.0928C26.0726 20.0464 27.281 19.0706 28.5492 18.1724L29.7051 19.8046ZM25.01 23.7896C22.9519 25.8697 21.1458 28.2064 19.633 30.7472L17.9146 29.7241C19.5095 27.0452 21.415 24.5795 23.5883 22.3829L25.01 23.7896ZM18.7674 32.2837C18.0802 33.5745 17.4662 34.9123 16.9305 36.2908L15.0664 35.5663C15.6307 34.1142 16.2776 32.7045 17.0019 31.3439L18.7674 32.2837Z" fill="white"/>
<path d="M16 62.0566L25.519 68.5928L15.099 73.5684L16 62.0566ZM19.7137 67.1768C21.2654 69.6918 23.1074 71.998 25.1972 74.0433L23.7984 75.4727C21.5912 73.3126 19.6478 70.8789 18.0116 68.2269L19.7137 67.1768ZM26.4857 75.2433C27.5831 76.2156 28.7407 77.1197 29.9532 77.949L28.8241 79.5998C27.5421 78.723 26.3187 77.7674 25.1594 76.7402L26.4857 75.2433ZM29.9532 77.949C31.1474 78.7658 32.3839 79.5025 33.6549 80.1569L32.7395 81.9351C31.3945 81.2427 30.0868 80.4634 28.8241 79.5998L29.9532 77.949ZM35.2075 80.9075C37.8372 82.0984 40.5971 82.9477 43.4244 83.4364L43.0837 85.4072C40.0884 84.8894 37.1658 83.9899 34.3824 82.7294L35.2075 80.9075ZM45.1296 83.6864C46.5516 83.8578 47.9873 83.9386 49.429 83.9266L49.4457 85.9265C47.9181 85.9393 46.3969 85.8536 44.8903 85.6721L45.1296 83.6864ZM49.429 83.9266C50.8711 83.9145 52.3058 83.8095 53.7253 83.6142L53.9978 85.5956C52.4939 85.8025 50.9738 85.9137 49.4457 85.9265L49.429 83.9266ZM55.4267 83.3356C58.246 82.7994 60.9924 81.9039 63.6035 80.669L64.4586 82.4769C61.6953 83.7839 58.7872 84.7323 55.8004 85.3004L55.4267 83.3356ZM65.144 79.8925C66.4046 79.2169 67.6293 78.4597 68.8105 77.6232L69.9664 79.2553C68.7176 80.1397 67.4224 80.9406 66.0887 81.6553L65.144 79.8925ZM68.8105 77.6232C70.0101 76.7736 71.1536 75.8502 72.2358 74.8596L73.5862 76.3349C72.443 77.3813 71.2346 78.3572 69.9664 79.2553L68.8105 77.6232ZM73.5056 73.6382C75.5637 71.5581 77.3699 69.2213 78.8826 66.6805L80.6011 67.7037C79.0061 70.3825 77.1006 72.8483 74.9273 75.0448L73.5056 73.6382ZM79.7483 65.144C80.4355 63.8532 81.0494 62.5154 81.5851 61.137L83.4493 61.8614C82.8849 63.3135 82.238 64.7232 81.5137 66.0839L79.7483 65.144Z" fill="white"/>
<path d="M2 15.2797V2.5H15.7627" stroke="white" stroke-width="1.7026" stroke-dasharray="9.78 1.96"/>
<path d="M2 81.4996V94.2793H15.7627" stroke="white" stroke-width="1.7026" stroke-dasharray="9.78 1.96"/>
<path d="M97.7656 81.4996V94.2793H84.0029" stroke="white" stroke-width="1.7026" stroke-dasharray="9.78 1.96"/>
<path d="M97.7656 15.2797V2.5H84.0029" stroke="white" stroke-width="1.7026" stroke-dasharray="9.78 1.96"/>
</svg>
