<svg width="455" height="490" fill="none" xmlns="http://www.w3.org/2000/svg"><path d="M24.521 479.099c-.015-5.467 7.622-9.922 17.058-9.949 9.437-.026 17.1 4.385 17.115 9.853.015 5.467-7.622 9.922-17.058 9.949-9.437.026-17.1-4.385-17.115-9.853z" fill="#0C1447" stroke="#0C1447" stroke-width="2" stroke-miterlimit="10" stroke-linejoin="round"/><path d="M74.979 175.572l77.938 45.29 73.824-41.876-77.931-45.291-73.831 41.877z" fill="#fff" stroke="#0C1447" stroke-width="2" stroke-miterlimit="10" stroke-linejoin="round"/><path d="M74.978 175.572l.245 86.327 77.931 45.29-.238-86.327-77.938-45.29z" fill="#FFEFDF" stroke="#0C1447" stroke-width="2" stroke-miterlimit="10" stroke-linejoin="round"/><path d="M152.916 220.862l.238 86.327 73.831-41.883-.245-86.32-73.824 41.876z" fill="#ED6F78" stroke="#0C1447" stroke-width="2" stroke-miterlimit="10" stroke-linejoin="round"/><path d="M208.688 303.817l77.931 45.291 73.831-41.876-77.938-45.291-73.824 41.876z" fill="#EAEDFF" stroke="#0C1447" stroke-width="2" stroke-miterlimit="10" stroke-linejoin="round"/><path d="M208.688 303.817l.238 86.327 77.931 45.291-.238-86.327-77.931-45.291z" fill="#FFEFDF" stroke="#0C1447" stroke-width="2" stroke-miterlimit="10" stroke-linejoin="round"/><path d="M286.619 349.108l.238 86.327 73.831-41.883-.238-86.32-73.831 41.876z" fill="#0C1447" stroke="#0C1447" stroke-width="2" stroke-miterlimit="10" stroke-linejoin="round"/><path d="M1 302.537l77.932 45.283 73.83-41.876-77.938-45.29-73.823 41.883z" fill="#EAEDFF" stroke="#0C1447" stroke-width="2" stroke-miterlimit="10" stroke-linejoin="round"/><path d="M1 302.537l.238 86.32 77.938 45.291-.245-86.328L1 302.537z" fill="#fff" stroke="#0C1447" stroke-width="2" stroke-miterlimit="10" stroke-linejoin="round"/><path d="M78.931 347.821l.245 86.327L153 392.265l-.238-86.321-73.831 41.877z" fill="#0C1447" stroke="#0C1447" stroke-width="2" stroke-miterlimit="10" stroke-linejoin="round"/><path d="M246.324 176.46l-30.15-17.52.189 65.141 30.143 17.52-.182-65.141z" fill="#fff" stroke="#0C1447" stroke-width="2" stroke-miterlimit="10" stroke-linejoin="round"/><path d="M282.135 155.784l-30.15-17.52-35.81 20.676 30.15 17.52 35.81-20.676z" fill="#0C1447" stroke="#0C1447" stroke-width="2" stroke-miterlimit="10" stroke-linejoin="round"/><path d="M172.92 373.961l-30.143-17.513-63.86 36.866 30.15 17.52 63.853-36.873z" fill="#fff" stroke="#0C1447" stroke-width="2" stroke-miterlimit="10" stroke-linejoin="round"/><path d="M109.066 410.834l-30.15-17.52.12 41.141 30.149 17.521-.119-41.142z" fill="#0C1447" stroke="#0C1447" stroke-width="2" stroke-miterlimit="10" stroke-linejoin="round"/><path d="M246.324 176.46l.182 65.141-73.838 42.632.252 89.728-63.854 36.873.119 41.141 99.664-57.542-.252-89.734 73.838-42.632-.301-106.283-35.81 20.676z" fill="#fff" stroke="#0C1447" stroke-width="2" stroke-miterlimit="10" stroke-linejoin="round"/><path d="M246.506 241.601l-30.143-17.52-73.845 42.632 30.15 17.52 73.838-42.632z" fill="#fff" stroke="#0C1447" stroke-width="2" stroke-miterlimit="10" stroke-linejoin="round"/><path d="M172.668 284.233l-30.149-17.52.258 89.734 30.143 17.514-.252-89.728z" fill="#fff" stroke="#0C1447" stroke-width="2" stroke-miterlimit="10" stroke-linejoin="round"/><path d="M271.8 128.511a2.554 2.554 0 110-5.108 2.554 2.554 0 010 5.108z" fill="#0C1447"/><path d="M447.162 73.642a5.25 5.25 0 005.709-4.5c1.113-7.94 1.162-26.65-17.051-46.97-24.125-26.91-32.395-18.17-33.998-11.999-1.602 6.171 8.39 52.14 40.841 62.664 0 0 2.148.574 4.499.805z" fill="#0C1447" stroke="#0C1447" stroke-width="2" stroke-miterlimit="10" stroke-linejoin="round"/><path d="M248.381 151.572c-7.779 0-14.085-6.305-14.085-14.084s6.306-14.085 14.085-14.085c7.779 0 14.085 6.306 14.085 14.085 0 7.779-6.306 14.084-14.085 14.084z" fill="#ED6F78" stroke="#0C1447" stroke-width="3" stroke-miterlimit="10" stroke-linejoin="round"/><path d="M34.76 485.301c-8.919 0-16.149-7.23-16.149-16.148 0-8.919 7.23-16.149 16.149-16.149s16.149 7.23 16.149 16.149c0 8.918-7.23 16.148-16.15 16.148z" fill="#3856E6" stroke="#0C1447" stroke-width="3" stroke-miterlimit="10" stroke-linejoin="round"/><path d="M269.246 98.396s-19.158 32.802-46.152 28.233c0 0 20.172-24.524 27.407-33.536" fill="#fff"/><path d="M269.246 98.396s-19.165 32.802-46.152 28.233c0 0 20.172-24.524 27.407-33.536" stroke="#3B393B" stroke-width="2" stroke-linejoin="round"/><path d="M421.847 8.997s-11.461 17.325-46.599 15.268c-35.138-2.058-51.196-9.93-63.811-7.557-4.38.826-14.099.028-21.565 3.17-7.465 3.141-30.926 8.983-30.926 8.983s2.533 9.446 18.192 6.095c15.652-3.352 18.591-4.08 18.591-4.08l26 3.604s-10.614 8.137-20.746 9.383c-10.131 1.245-25.489 3.596-28.428 16.792 0 0-2.267-.182-9.998 18.045 0 0-41.38 11.79-62.447 34.621 0 0 8.445 9.62 27.427-4.632 0 0 29.464-14.848 64.644-11.153 35.18 3.694 31.906 3.778 31.906 3.778s-9.334 8.599-31.85 13.105c-22.509 4.506-29.079 17.135-29.471 27.309 0 0 9.229 1.735 30.619-7.991 26.728-12.146 73.404-3.673 117.113-38.56 43.709-34.886 42.779-34.732 42.779-34.732s1.812-25.608-31.43-51.448z" fill="#fff"/><path d="M421.847 8.997s-11.461 17.325-46.599 15.268c-35.138-2.058-51.196-9.93-63.811-7.557-4.38.826-14.099.028-21.565 3.17-7.465 3.141-30.926 8.983-30.926 8.983s2.533 9.446 18.192 6.095c15.652-3.352 18.591-4.08 18.591-4.08l26 3.604s-10.614 8.137-20.746 9.383c-10.131 1.245-25.489 3.596-28.428 16.792 0 0-2.267-.182-9.998 18.045 0 0-41.38 11.79-62.447 34.62 0 0 8.445 9.621 27.427-4.631 0 0 29.464-14.848 64.644-11.153 35.18 3.694 31.906 3.778 31.906 3.778s-9.334 8.599-31.85 13.105c-22.516 4.506-29.079 17.135-29.471 27.309 0 0 9.229 1.735 30.619-7.991 26.728-12.146 73.404-3.673 117.113-38.56 43.709-34.886 42.779-34.732 42.779-34.732s1.812-25.608-31.43-51.448z" stroke="#0C1447" stroke-width="2" stroke-linejoin="round"/><path d="M318.867 50.944s-8.109 3.484-18.241 4.73c-10.131 1.245-28.071 4.974-28.071 4.974M315.187 73.67s-8.753 3.827-17.639 2.742c-8.879-1.084-31.395.469-41.428 4.36" stroke="#0C1447" stroke-width="2" stroke-linejoin="round"/><path d="M323.912 101.461s4.107.077 9.362 3.26l-9.362-3.26z" fill="#fff"/><path d="M323.912 101.461s4.107.077 9.362 3.26" stroke="#0C1447" stroke-width="2" stroke-linejoin="round"/><path d="M263.753 135.64c13.476-5.779 17.002 3.072 17.002 3.072s-10.509 3.561-18.367 2.764l1.365-5.836zM262.549 33.43c11.37-1.735 9.845-8.095 9.845-8.095l-13.441 3.526s.588 3.107 3.596 4.57zM233.624 114.111s6.508 4.758-3.092 12.867l-7.431-.349 10.523-12.518zM205.483 116.119c13.7-6.612 8.579-15.064 8.579-15.064s-11.027 7.424-13.959 12.266c.007 0 2.148 2.91 5.38 2.798z" fill="#0C1447"/><path d="M344.742 12.713l-13.203-2.19" stroke="#0C1447" stroke-width="2" stroke-miterlimit="10" stroke-linejoin="round"/><path d="M421.469 1s14.449 7.396 23.475 20.928L421.469 1z" fill="#fff"/><path d="M421.469 1s14.449 7.396 23.475 20.928" stroke="#0C1447" stroke-width="2" stroke-miterlimit="10" stroke-linejoin="round"/><path d="M396.442 111.235s-7.914 6.319-24.755 9.411l24.755-9.411z" fill="#fff"/><path d="M396.442 111.235s-7.914 6.319-24.755 9.411" stroke="#0C1447" stroke-width="2" stroke-miterlimit="10" stroke-linejoin="round"/><path d="M67.596 444.881l-14.49 8.368M78.917 449.128l-11.965 6.913M141.518 237.746l-42.583-24.748M141.518 253.349l-25.553-14.847" stroke="#0C1447" stroke-width="2" stroke-miterlimit="10" stroke-linecap="round" stroke-linejoin="round"/><path d="M35.767 338.584l.098 35.32 31.892 18.528-.105-35.32-31.885-18.528z" fill="#0C1447" stroke="#0C1447" stroke-width="2" stroke-miterlimit="10" stroke-linejoin="round"/><path d="M27.798 347.184l-15.155-8.809M27.798 357.273l-15.155-8.809M286.619 422.645s-2.666-17.702-14.981-12.839c-12.321 4.862-6.157-55.905-29.498-48.776-23.342 7.13-6.507-26.93-33.403-40.7" stroke="#0C1447" stroke-width="2" stroke-miterlimit="10" stroke-linecap="round" stroke-linejoin="round"/><path d="M49.531 284.284c-.018-6.261 8.727-11.36 19.531-11.391 10.805-.03 19.578 5.02 19.596 11.28.017 6.26-8.727 11.359-19.532 11.39-10.804.031-19.577-5.019-19.595-11.279z" fill="#0C1447" stroke="#0C1447" stroke-width="2" stroke-miterlimit="10" stroke-linejoin="round"/><path d="M64.63 291.433c-11.678 0-21.145-9.467-21.145-21.145 0-11.678 9.467-21.144 21.144-21.144 11.678 0 21.145 9.466 21.145 21.144 0 11.678-9.467 21.145-21.145 21.145z" fill="#fff" stroke="#0C1447" stroke-width="2" stroke-miterlimit="10" stroke-linejoin="round"/></svg>