<svg width="225" height="198" fill="none" xmlns="http://www.w3.org/2000/svg"><path d="M46.562 132.776c15.111 3.997 33.154-4.599 48.007-1.525 15.404 3.187 30.877-.925 34.211-3.109 3.333-2.183 15.175-8.392 24.486-11.256 7.458-2.293 13.23-11.826 15.236-15.533a4.06 4.06 0 012.429-1.969c2.553-.75 7.605-2.26 12.053-3.723 6.265-2.06 14.157-15.472 20.532-20.347 3.643-2.786 4.527-5.371 4.618-7.075.072-1.377.779-2.64 1.97-3.336 4.897-2.843 15.495-9.707 9.699-12.814-7.408-3.975-23.876 5.32-23.876 5.32s15.582-8.816 4.653-10.04c-10.929-1.224-32.995 15.279-36.663 17.306-3.12 1.723-23.329 5.183-29.306 6.178-.994.165-2.002-.06-2.861-.587-8.027-4.914-28.519-3.638-32.321-4.553-1.729-.416-3-1.346-3.89-2.271a4.061 4.061 0 01-.513-4.948c3.64-5.848 12.297-7.84 13.64-9.448 1.309-1.565 4.579-2.56 5.458-2.803.155-.042.309-.095.459-.155 16.697-6.666 23.357-22.622 17.983-24.578-5.402-1.967-23.821 15.521-28.097 14.996-3.792-.466-16.392 4.129-19.2 5.177a4.02 4.02 0 00-1.005.55c-2.416 1.802-14.11 10.3-23.566 13.207-10.26 3.152-35.27 31.25-36.863 33.049-.053.058-.104.12-.151.182" fill="#fff"/><path d="M46.562 132.776c15.111 3.997 33.154-4.599 48.007-1.525 15.404 3.187 30.877-.925 34.211-3.109 3.333-2.183 15.175-8.392 24.486-11.256 7.458-2.293 13.23-11.826 15.236-15.533a4.06 4.06 0 012.429-1.969c2.553-.75 7.605-2.26 12.053-3.723 6.265-2.06 14.157-15.472 20.532-20.347 3.643-2.786 4.527-5.371 4.618-7.075.072-1.377.779-2.64 1.97-3.336 4.897-2.843 15.495-9.707 9.699-12.814-7.408-3.975-23.876 5.32-23.876 5.32s15.582-8.816 4.653-10.04c-10.929-1.224-32.995 15.279-36.663 17.306-3.12 1.723-23.329 5.183-29.306 6.178-.994.165-2.002-.06-2.861-.587-8.027-4.914-28.519-3.638-32.321-4.553-1.729-.416-3-1.346-3.89-2.271a4.061 4.061 0 01-.513-4.948c3.64-5.848 12.297-7.84 13.64-9.448 1.309-1.565 4.579-2.56 5.458-2.803.155-.042.309-.095.459-.155 16.697-6.666 23.357-22.622 17.983-24.578-5.402-1.967-23.821 15.521-28.097 14.996-3.792-.466-16.392 4.129-19.2 5.177a4.02 4.02 0 00-1.005.55c-2.416 1.802-14.11 10.3-23.566 13.207-10.26 3.152-35.27 31.25-36.863 33.049-.053.058-.104.12-.151.182M135.18 83.979l13.708-.816" stroke="#0C1447" stroke-width="2" stroke-miterlimit="10" stroke-linecap="round" stroke-linejoin="round"/><path d="M154.484 81.77l14.842-6.73a44.368 44.368 0 0011.111-7.23c4.088-3.627 10.26-8.545 15.498-10.401M207.824 66.178s-6.622-3.112-12.148 2.318-18.017 14.45-18.017 14.45M169.267 99.874s15.47-15.78 7.022-17.092c-8.447-1.313-17.261 9.404-17.261 9.404s-15.442 20.596-38.278 21.126M130.968 94.538s22.53-1.298 31.091-5.49M127.298 84.505s4.655 10.706 4.794 19.75M31.235 113.386s7.945-12.829 23.03-14.586M60.825 95.505s26.24-.96 41.554 9.202" stroke="#0C1447" stroke-width="2" stroke-miterlimit="10" stroke-linecap="round" stroke-linejoin="round"/><path d="M-46.976 99.41c3.136-3.524 9.612-6.89 22.946-5.16C1.014 97.497 6.053 79.849 16.881 81.898c10.33 1.956 34.405 26.373 27.768 58.117-.91 4.35-4.139 7.921-8.446 9.025-1.434.368-3.018.493-4.69.169-13.806-2.673-22.853 26.007-40.071 22.664" fill="#EAEDFF"/><path d="M-46.976 99.41c3.136-3.524 9.612-6.89 22.946-5.16C1.014 97.497 6.053 79.849 16.881 81.898c10.33 1.956 34.405 26.373 27.768 58.117-.91 4.35-4.139 7.921-8.446 9.025-1.434.368-3.018.493-4.69.169-13.806-2.673-22.853 26.007-40.071 22.664" stroke="#0C1447" stroke-width="2" stroke-miterlimit="10" stroke-linecap="round" stroke-linejoin="round"/></svg>