<svg width="278" height="138" fill="none" xmlns="http://www.w3.org/2000/svg"><path d="M206.546 81.096c-4.513 5.003-12.486 5.76-18.822 2.113-7.162-4.118-14.316-8.241-21.397-12.486-2.126-1.274-4.064-1.777-6.592-1.187-6.075 1.415-12.23 2.461-18.869 3.755 6.297 1.563 12.11 2.85 17.823 4.473 6.471 1.837 11.145 5.96 13.921 12.117.476 1.052.597 2.273 1.026 3.969-3.796-.315-7.081-.603-10.367-.865-24.468-1.918-48.936-3.916-73.41-5.686-9.06-.657-16.643-4.607-23.979-9.441-3.024-1.992-6.081-3.997-9.32-5.6-1.395-.69-3.3-.314-4.955-.529-1.663-.215-3.896.02-4.868-.952-3.977-3.963-8.677-4.379-13.666-3.38-3.701.745-7.289 2.039-10.957 3.004C12.526 72.93 4.54 69.563.731 61.396.329 60.538.235 59.539 0 58.6c.335-.14.67-.282 1.006-.43.47.745.992 1.456 1.388 2.234 3.762 7.315 10.071 10.259 18.131 8.334 2.273-.543 4.48-1.347 6.726-2.018 7.255-2.172 10.266-2.233 17.588-.335.094-15.966 3.279-30.637 18.225-41.077-3.01-.222-5.244-.396-7.47-.55-4.814-.335-7.262-2.12-7.765-6.692C46.334 4.508 36.477.518 24.475 1.61c-2.113.194-4.205.563-6.31.845-.094-.349-.181-.698-.275-1.053.69-.375 1.375-1.073 2.072-1.086C25.165.243 30.516-.454 35.545.49c8.06 1.522 12.58 7.148 13.827 15.288.898 5.894 1.944 6.786 8.04 7.068 1.776.08 3.553.315 5.31.59 4.446.704 7.316 3.259 8.207 7.67.47 2.32 1.677 2.971 3.863 3.085 6.832.362 13.343-1.073 19.626-3.52 13.72-5.344 27.694-6.551 42.056-3.205 4.211.986 8.382 1.864 9.784 6.86.134.476.952.965 1.528 1.079 3.206.603 4.788 3.46 7.162 4.989 4.834 3.118 6.484 8.83 10.641 11.969 10.494 7.906 21.558 15.04 32.374 22.517 2.903 2.011 5.706 4.13 8.583 6.215zm-9.804 3.004c.141-.368.282-.73.423-1.1-.53-1.32-1.489-2.641-1.502-3.962-.027-3.158-1.925-4.694-4.204-6.296-7.484-5.27-14.779-10.816-22.376-15.92-2.045-1.374-4.915-2.145-7.396-2.125-7.691.067-15.376.724-23.074 1.013-4.123.154-5.994-.845-7.174-3.527 10.346 3.346 20.511.087 30.958.57-3.721-8.395-5.216-9.267-13.397-8.255-.442.054-.885.202-1.328.188-5.652-.147-11.305-.255-16.951-.523-1.032-.047-2.031-.77-3.051-1.187.074-.127.148-.255.215-.382h25.373c-2.421-4.687-5.049-5.465-10.688-5.431-5.405.033-10.816-.838-16.207-1.428-.745-.08-1.415-.812-2.119-1.241l.382-.945c3.199.637 6.37 1.515 9.602 1.83 3.225.315 6.511.067 10.139.067-1.281-4.432-4.285-5.096-7.202-5.82-14.437-3.56-28.457-2.307-42.358 2.977-11.862 4.513-23.837 5.995-35.599-2.159-1.032 1.723-2.32 3.198-2.85 4.902-1.153 3.708-2.393 7.496-2.769 11.332-1.146 11.768.98 22.309 12.379 28.8 3.004 1.71 5.699 4.096 8.87 5.33 4.829 1.884 9.864 3.903 14.94 4.352 20.445 1.817 40.943 3.07 61.421 4.479 2.307.161 4.714.349 6.947-.1 3.326-.678 6.531-1.918 9.944-2.971-2.139-3.373-5.444-5.673-9.34-6.672-7.222-1.85-14.571-3.232-21.853-4.834-1.281-.282-2.535-.691-4.58-1.254 1.335-.758 1.77-1.167 2.267-1.26 9.072-1.818 18.144-3.669 27.25-5.312 1.254-.228 2.857.329 4.03 1 7.57 4.29 15 8.837 22.631 13.021 2.508 1.368 5.485 1.911 8.247 2.843zM60.972 29.478c2.944 1.409 5.384 2.575 8.294 3.97-1.14-6.343-3.258-7.376-8.294-3.97z" fill="#0C1447"/><path fill-rule="evenodd" clip-rule="evenodd" d="M234.548 107.8l-.093.048-4.568-4.988-1.916-2.093c-.436.396-.878.798-1.314 1.201.194.255.376.523.558.791.397.585.793 1.17 1.313 1.616 5.713 4.922 5.532 10.963-.597 15.369-5.378 3.869-11.614 5.196-18.044 5.23-7.249.04-14.289-1.288-20.089-6.102-5.988-4.969-4.614-12.64 3.051-15.717 0 .7.016 1.389.033 2.069.036 1.468.07 2.894-.067 4.301-.463 4.626 1.924 7.362 5.8 9.153 6.042 2.789 12.271 3.097 18.594 1.133 7.651-2.374 9.696-5.914 8.228-14.296-4.03 3.654-8.59 5.471-13.827 5.049l-.079-.436a44.45 44.45 0 00-.162-.872c.366-.095.736-.183 1.105-.272.773-.185 1.546-.37 2.294-.619a43.248 43.248 0 011.871-.559c1.647-.467 3.301-.935 4.654-1.842 4.566-3.051 6.531-8.931-.061-12.284-7.771-3.956-15.684-4.057-23.448-.107-1.327.673-2.383 1.912-3.425 3.134-.347.408-.694.815-1.048 1.197-.473.513-.893 1.085-1.312 1.656-.655.893-1.308 1.781-2.155 2.428-3.915 2.984-6.222 6.578-5.793 11.701.201 2.447.235 4.928.034 7.369-.47 5.646 2.273 9.535 6.873 12.036 11.828 6.431 23.951 6.457 35.94.537 4.426-2.186 7.846-5.606 7.933-11.118.014-.856.041-1.715.068-2.573.08-2.498.159-5-.095-7.465-.073-.708-.051-1.263.085-1.722A60.574 60.574 0 00234.5 108l.048-.2zm-48.257 11.434c15.241 10.601 30.529 10.648 46.126.148 1.254 5.988-1.529 9.997-6.571 12.532-10.762 5.418-21.719 5.431-32.535.228-5.27-2.528-8.415-6.598-7.02-12.908z" fill="#0C1447"/><path d="M196.432 84.498c-2.762-.926-5.74-1.469-8.254-2.85-7.631-4.184-15.06-8.73-22.631-13.022-1.173-.664-2.776-1.22-4.03-.999-9.106 1.643-18.178 3.493-27.25 5.31-.497.101-.926.504-2.267 1.261 2.045.564 3.299.973 4.58 1.254 7.289 1.603 14.631 2.984 21.853 4.835 3.896.999 7.201 3.299 9.34 6.672-3.413 1.046-6.618 2.293-9.944 2.97-2.233.456-4.633.261-6.946.1-20.479-1.407-40.977-2.661-61.422-4.479-5.082-.449-10.118-2.467-14.94-4.351-3.164-1.234-5.867-3.621-8.87-5.331-11.393-6.491-13.518-17.032-12.379-28.8.376-3.835 1.61-7.624 2.77-11.332.53-1.703 1.817-3.178 2.85-4.901 11.76 8.16 23.736 6.671 35.598 2.159 13.894-5.284 27.922-6.538 42.358-2.977 2.91.717 5.921 1.387 7.202 5.82-3.628 0-6.913.248-10.139-.067-3.232-.315-6.403-1.2-9.602-1.83l-.382.945c.704.429 1.375 1.16 2.119 1.24 5.398.584 10.809 1.462 16.207 1.428 5.639-.033 8.267.745 10.688 5.432h-25.373c-.074.127-.148.255-.215.382 1.013.416 2.019 1.133 3.051 1.187 5.646.268 11.299.375 16.952.523.442.013.878-.134 1.327-.188 8.181-1.013 9.676-.134 13.398 8.254-10.447-.476-20.613 2.776-30.959-.57 1.173 2.682 3.051 3.682 7.175 3.527 7.691-.288 15.382-.945 23.073-1.012 2.481-.02 5.351.75 7.396 2.126 7.597 5.096 14.892 10.648 22.376 15.918 2.273 1.603 4.177 3.145 4.204 6.296.013 1.328.972 2.642 1.502 3.963a71.08 71.08 0 01-.416 1.107z" fill="#FFEFDF"/><path d="M232.335 119.673c1.254 5.987-1.529 9.997-6.572 12.539-10.762 5.418-21.718 5.424-32.534.228-5.271-2.535-8.409-6.605-7.021-12.908 15.242 10.594 30.53 10.641 46.127.141z" fill="#3856E6"/><path d="M251.646 93.645l24.382-13.625M233 86.474L253.08 75" stroke="#0C1447" stroke-width="3" stroke-miterlimit="10" stroke-linecap="round" stroke-linejoin="round"/></svg>