<svg width="286" height="142" fill="none" xmlns="http://www.w3.org/2000/svg"><path d="M1.403 18.689A21.637 21.637 0 0 1 19.092 1.33l.286 1.707a19.907 19.907 0 0 0-16.274 15.97l-1.701-.318Z" fill="#000" fill-opacity=".15"/><path d="M23.061 5.308v13.475M23.061 26.686v13.475M26.687 22.8h13.475M5.438 22.8h13.475" stroke="#000" stroke-opacity=".15" stroke-width="2.093"/><path d="M26.485 1.371a21.637 21.637 0 0 1 17.498 17.551l-1.704.3A19.908 19.908 0 0 0 26.18 3.075l.305-1.704ZM19.735 44.108A21.637 21.637 0 0 1 1.532 27.29l1.691-.37A19.907 19.907 0 0 0 19.97 42.394l-.235 1.715ZM44.008 26.27a21.638 21.638 0 0 1-17.375 17.673l-.316-1.702A19.906 19.906 0 0 0 42.3 25.98l1.707.288ZM49.534 18.689A21.637 21.637 0 0 1 67.224 1.33l.286 1.707a19.907 19.907 0 0 0-16.274 15.97l-1.702-.318Z" fill="#000" fill-opacity=".15"/><path d="M71.193 5.308v13.475M71.193 26.686v13.475M74.819 22.8h13.475M53.57 22.8h13.475" stroke="#000" stroke-opacity=".15" stroke-width="2.093"/><path d="M74.617 1.371a21.637 21.637 0 0 1 17.498 17.551l-1.705.3A19.907 19.907 0 0 0 74.312 3.075l.305-1.704ZM67.867 44.108A21.638 21.638 0 0 1 49.664 27.29l1.69-.37a19.906 19.906 0 0 0 16.748 15.473l-.235 1.715ZM92.14 26.27a21.638 21.638 0 0 1-17.375 17.673l-.317-1.702a19.906 19.906 0 0 0 15.985-16.26l1.707.288Z" fill="#000" fill-opacity=".15"/><path d="M97.666 18.689A21.635 21.635 0 0 1 115.355 1.33l.286 1.707a19.905 19.905 0 0 0-16.273 15.97l-1.702-.318Z" fill="#000"/><path d="M119.325 5.308v13.475M119.325 26.686v13.475M122.951 22.8h13.475M101.702 22.8h13.475" stroke="#000" stroke-width="2.093"/><path d="M122.748 1.371a21.633 21.633 0 0 1 17.499 17.551l-1.705.3a19.906 19.906 0 0 0-16.099-16.147l.305-1.704ZM115.999 44.108A21.633 21.633 0 0 1 97.795 27.29l1.691-.37a19.908 19.908 0 0 0 16.748 15.473l-.235 1.715ZM140.272 26.27a21.64 21.64 0 0 1-17.375 17.673l-.317-1.702a19.908 19.908 0 0 0 15.985-16.26l1.707.288ZM145.798 18.689A21.632 21.632 0 0 1 163.487 1.33l.286 1.707a19.908 19.908 0 0 0-16.274 15.97l-1.701-.318Z" fill="#000"/><path d="M167.456 5.308v13.475M167.456 26.686v13.475M171.082 22.8h13.475M149.834 22.8h13.475" stroke="#000" stroke-width="2.093"/><path d="M170.88 1.371a21.64 21.64 0 0 1 17.498 17.551l-1.704.3a19.913 19.913 0 0 0-16.099-16.147l.305-1.704ZM164.131 44.108a21.64 21.64 0 0 1-18.204-16.818l1.691-.37a19.911 19.911 0 0 0 16.747 15.473l-.234 1.715ZM188.403 26.27a21.64 21.64 0 0 1-17.374 17.673l-.317-1.702a19.908 19.908 0 0 0 15.984-16.26l1.707.288Z" fill="#000"/><path d="M193.929 18.689a21.64 21.64 0 0 1 17.69-17.359l.286 1.707a19.908 19.908 0 0 0-16.274 15.97l-1.702-.318Z" fill="#000" fill-opacity=".15"/><path d="M215.588 5.308v13.475M215.588 26.686v13.475M219.214 22.8h13.475M197.965 22.8h13.475" stroke="#000" stroke-opacity=".15" stroke-width="2.093"/><path d="M219.012 1.371a21.64 21.64 0 0 1 17.498 17.551l-1.705.3a19.905 19.905 0 0 0-16.098-16.147l.305-1.704ZM212.262 44.108a21.64 21.64 0 0 1-18.203-16.818l1.691-.37a19.906 19.906 0 0 0 16.747 15.473l-.235 1.715ZM236.535 26.27a21.64 21.64 0 0 1-17.375 17.673l-.317-1.702a19.908 19.908 0 0 0 15.985-16.26l1.707.288ZM242.061 18.689A21.639 21.639 0 0 1 259.75 1.33l.286 1.707a19.905 19.905 0 0 0-16.274 15.97l-1.701-.318Z" fill="#000" fill-opacity=".15"/><path d="M263.72 5.308v13.475M263.72 26.686v13.475M267.346 22.8h13.475M246.097 22.8h13.475" stroke="#000" stroke-opacity=".15" stroke-width="2.093"/><path d="M267.144 1.371a21.634 21.634 0 0 1 17.498 17.551l-1.705.3a19.905 19.905 0 0 0-16.098-16.147l.305-1.704ZM260.394 44.108A21.633 21.633 0 0 1 242.19 27.29l1.691-.37a19.911 19.911 0 0 0 16.748 15.473l-.235 1.715ZM284.667 26.27a21.64 21.64 0 0 1-17.375 17.673l-.317-1.702a19.908 19.908 0 0 0 15.985-16.26l1.707.288ZM1.403 66.82a21.637 21.637 0 0 1 17.689-17.358l.286 1.707A19.906 19.906 0 0 0 3.104 67.14l-1.701-.318Z" fill="#000" fill-opacity=".15"/><path d="M23.061 53.44v13.475M23.061 74.818v13.475M26.687 70.931h13.475M5.438 70.931h13.475" stroke="#000" stroke-opacity=".15" stroke-width="2.093"/><path d="M26.485 49.503a21.637 21.637 0 0 1 17.498 17.55l-1.704.3A19.908 19.908 0 0 0 26.18 51.208l.305-1.704ZM19.735 92.24A21.637 21.637 0 0 1 1.532 75.422l1.691-.37A19.907 19.907 0 0 0 19.97 90.525l-.235 1.715ZM44.008 74.4a21.638 21.638 0 0 1-17.375 17.674l-.316-1.701A19.906 19.906 0 0 0 42.3 74.112l1.707.288ZM49.534 66.82a21.637 21.637 0 0 1 17.69-17.358l.286 1.707a19.906 19.906 0 0 0-16.274 15.97l-1.702-.318Z" fill="#000" fill-opacity=".15"/><path d="M71.193 53.44v13.475M71.193 74.818v13.475M74.819 70.931h13.475M53.57 70.931h13.475" stroke="#000" stroke-opacity=".15" stroke-width="2.093"/><path d="M74.617 49.503a21.637 21.637 0 0 1 17.498 17.55l-1.705.3a19.907 19.907 0 0 0-16.098-16.146l.305-1.704ZM67.867 92.24a21.638 21.638 0 0 1-18.203-16.818l1.69-.37a19.906 19.906 0 0 0 16.748 15.473l-.235 1.715ZM92.14 74.4a21.638 21.638 0 0 1-17.375 17.674l-.317-1.701a19.906 19.906 0 0 0 15.985-16.26l1.707.288Z" fill="#000" fill-opacity=".15"/><path d="M97.666 66.82a21.635 21.635 0 0 1 17.689-17.358l.286 1.707a19.904 19.904 0 0 0-16.273 15.97l-1.702-.318Z" fill="#000"/><path d="M119.325 53.44v13.475M119.325 74.818v13.475M122.951 70.931h13.475M101.702 70.931h13.475" stroke="#000" stroke-width="2.093"/><path d="M122.748 49.503a21.633 21.633 0 0 1 17.499 17.55l-1.705.3a19.906 19.906 0 0 0-16.099-16.146l.305-1.704ZM115.999 92.24a21.633 21.633 0 0 1-18.204-16.818l1.691-.37a19.908 19.908 0 0 0 16.748 15.473l-.235 1.715ZM140.272 74.4a21.64 21.64 0 0 1-17.375 17.674l-.317-1.701a19.907 19.907 0 0 0 15.985-16.26l1.707.288ZM145.798 66.82a21.632 21.632 0 0 1 17.689-17.358l.286 1.707a19.907 19.907 0 0 0-16.274 15.97l-1.701-.318Z" fill="#000"/><path d="M167.456 53.44v13.475M167.456 74.818v13.475M171.082 70.931h13.475M149.834 70.931h13.475" stroke="#000" stroke-width="2.093"/><path d="M170.88 49.503a21.64 21.64 0 0 1 17.498 17.55l-1.704.3a19.913 19.913 0 0 0-16.099-16.146l.305-1.704ZM164.131 92.24a21.64 21.64 0 0 1-18.204-16.818l1.691-.37a19.912 19.912 0 0 0 16.747 15.473l-.234 1.715ZM188.403 74.4a21.639 21.639 0 0 1-17.374 17.674l-.317-1.701a19.907 19.907 0 0 0 15.984-16.26l1.707.288Z" fill="#000"/><path d="M193.929 66.82a21.64 21.64 0 0 1 17.69-17.358l.286 1.707a19.907 19.907 0 0 0-16.274 15.97l-1.702-.318Z" fill="#000" fill-opacity=".15"/><path d="M215.588 53.44v13.475M215.588 74.818v13.475M219.214 70.931h13.475M197.965 70.931h13.475" stroke="#000" stroke-opacity=".15" stroke-width="2.093"/><path d="M219.012 49.503a21.64 21.64 0 0 1 17.498 17.55l-1.705.3a19.905 19.905 0 0 0-16.098-16.146l.305-1.704ZM212.262 92.24a21.64 21.64 0 0 1-18.203-16.818l1.691-.37a19.906 19.906 0 0 0 16.747 15.473l-.235 1.715ZM236.535 74.4a21.639 21.639 0 0 1-17.375 17.674l-.317-1.701a19.907 19.907 0 0 0 15.985-16.26l1.707.288ZM242.061 66.82a21.639 21.639 0 0 1 17.689-17.358l.286 1.707a19.904 19.904 0 0 0-16.274 15.97l-1.701-.318Z" fill="#000" fill-opacity=".15"/><path d="M263.72 53.44v13.475M263.72 74.818v13.475M267.346 70.931h13.475M246.097 70.931h13.475" stroke="#000" stroke-opacity=".15" stroke-width="2.093"/><path d="M267.144 49.503a21.633 21.633 0 0 1 17.498 17.55l-1.705.3a19.905 19.905 0 0 0-16.098-16.146l.305-1.704ZM260.394 92.24a21.633 21.633 0 0 1-18.204-16.818l1.691-.37a19.912 19.912 0 0 0 16.748 15.473l-.235 1.715ZM284.667 74.4a21.64 21.64 0 0 1-17.375 17.674l-.317-1.701a19.907 19.907 0 0 0 15.985-16.26l1.707.288ZM1.403 114.952a21.636 21.636 0 0 1 17.689-17.358l.286 1.707a19.909 19.909 0 0 0-16.274 15.97l-1.701-.319Z" fill="#000" fill-opacity=".15"/><path d="M23.061 101.571v13.475" stroke="#000" stroke-opacity=".15" stroke-width="2.093"/><path d="M26.485 97.635a21.638 21.638 0 0 1 17.498 17.551l-1.704.299A19.907 19.907 0 0 0 26.18 99.338l.305-1.703ZM49.534 114.952a21.636 21.636 0 0 1 17.69-17.358l.286 1.707a19.909 19.909 0 0 0-16.274 15.97l-1.702-.319Z" fill="#000" fill-opacity=".15"/><path d="M71.193 101.571v13.475" stroke="#000" stroke-opacity=".15" stroke-width="2.093"/><path d="M74.617 97.635a21.638 21.638 0 0 1 17.498 17.551l-1.705.299a19.906 19.906 0 0 0-16.098-16.147l.305-1.703ZM97.666 114.952a21.634 21.634 0 0 1 17.689-17.358l.286 1.707a19.906 19.906 0 0 0-16.273 15.97l-1.702-.319Z" fill="#000" fill-opacity=".15"/><path d="M119.325 101.571v13.475" stroke="#000" stroke-opacity=".15" stroke-width="2.093"/><path d="M122.748 97.635a21.634 21.634 0 0 1 17.499 17.551l-1.705.299a19.906 19.906 0 0 0-16.099-16.147l.305-1.703ZM145.798 114.952a21.635 21.635 0 0 1 17.689-17.358l.286 1.707a19.91 19.91 0 0 0-16.274 15.97l-1.701-.319Z" fill="#000" fill-opacity=".15"/><path d="M167.456 101.571v13.475" stroke="#000" stroke-opacity=".15" stroke-width="2.093"/><path d="M170.88 97.635a21.641 21.641 0 0 1 17.498 17.551l-1.704.299a19.913 19.913 0 0 0-16.099-16.147l.305-1.703ZM193.929 114.952a21.64 21.64 0 0 1 17.69-17.358l.286 1.707a19.91 19.91 0 0 0-16.274 15.97l-1.702-.319Z" fill="#000" fill-opacity=".15"/><path d="M215.588 101.571v13.475" stroke="#000" stroke-opacity=".15" stroke-width="2.093"/><path d="M219.012 97.635a21.641 21.641 0 0 1 17.498 17.551l-1.705.299a19.904 19.904 0 0 0-16.098-16.147l.305-1.703ZM242.061 114.952a21.638 21.638 0 0 1 17.689-17.358l.286 1.707a19.906 19.906 0 0 0-16.274 15.97l-1.701-.319Z" fill="#000" fill-opacity=".15"/><path d="M263.72 101.571v13.475" stroke="#000" stroke-opacity=".15" stroke-width="2.093"/><path d="M267.144 97.635a21.635 21.635 0 0 1 17.498 17.551l-1.705.299a19.904 19.904 0 0 0-16.098-16.147l.305-1.703Z" fill="#000" fill-opacity=".15"/></svg>