<svg width="289" height="120" fill="none" xmlns="http://www.w3.org/2000/svg"><path d="M25.464 18.027 42.491 1M1 1l17.027 17.027M74.566 18.027 91.593 1M50.102 1l17.027 17.027M123.667 18.027 140.694 1M99.204 1l17.027 17.027M172.769 18.027 189.796 1M148.305 1l17.027 17.027M221.871 18.027 238.898 1M197.407 1l17.027 17.027M270.973 18.027 288 1M246.509 1l17.027 17.027M1 42.665l17.027-17.027M25.464 66.585l17.027-17.027M25.464 25.638l17.027 17.027M1 49.558l17.027 17.027M50.102 42.665 67.13 25.638M74.566 66.585l17.027-17.027M74.566 25.638l17.027 17.026M50.102 49.558 67.13 66.585" stroke="#fff" stroke-opacity=".2" stroke-width="2.138"/><path d="m99.204 42.665 17.027-17.027M123.668 66.585l17.027-17.027M123.668 25.638l17.027 17.026M99.204 49.558l17.027 17.027M148.306 42.665l17.026-17.027M172.769 66.585l17.027-17.027M172.769 25.638l17.027 17.026M148.306 49.558l17.026 17.027" stroke="#fff" stroke-width="2.138"/><path d="m197.407 42.665 17.027-17.027M221.871 66.585l17.027-17.027M221.871 25.638l17.027 17.026M197.407 49.558l17.027 17.027M246.509 42.665l17.027-17.027M270.973 66.585 288 49.558M270.973 25.638 288 42.664M246.509 49.558l17.027 17.027M1 91.223l17.027-17.027M25.464 115.143l17.027-17.026M25.464 74.196l17.027 17.027M1 98.117l17.027 17.027M50.102 91.223 67.13 74.196M74.566 115.143l17.027-17.027M74.566 74.196l17.027 17.027M50.102 98.117l17.027 17.026M99.204 91.223l17.027-17.027M123.668 115.143l17.027-17.027" stroke="#fff" stroke-opacity=".2" stroke-width="2.138"/><path d="m123.668 74.196 17.027 17.027" stroke="#fff" stroke-width="2.138"/><path d="m99.204 98.117 17.027 17.026" stroke="#fff" stroke-opacity=".2" stroke-width="2.138"/><path d="m148.306 91.223 17.026-17.027" stroke="#fff" stroke-width="2.138"/><path d="m172.769 115.143 17.027-17.027M172.769 74.196l17.027 17.027M148.306 98.117l17.026 17.026M197.407 91.223l17.027-17.027M221.871 115.143l17.027-17.027M221.871 74.196l17.027 17.027M197.407 98.117l17.027 17.026M246.509 91.223l17.027-17.027M270.973 115.143 288 98.116M270.973 74.196 288 91.223M246.509 98.117l17.027 17.026" stroke="#fff" stroke-opacity=".2" stroke-width="2.138"/></svg>