<svg width="410" height="168" fill="none" xmlns="http://www.w3.org/2000/svg"><path d="M2 52.389V10.127M8.501 2h41.45M66.452 2h41.449M117.901 52.389V10.127M134.156 43.886l31.32-31.32M124.403 2h41.449M175.852 52.389V10.127" stroke="#151518" stroke-width="3"/><path d="m192.107 43.886 31.32-31.32M182.354 2h41.449M233.803 52.389V10.127M250.058 43.886l31.32-31.32M240.305 2h41.448M291.753 52.389V10.127M308.008 43.886l31.32-31.32M298.255 2h41.449M349.704 52.389V10.127M365.959 43.886l31.32-31.32M356.206 2h41.449M407.655 48.325V6.064" stroke="#000" stroke-opacity=".1" stroke-width="3"/><path d="M2 110.092V67.831M117.901 110.092V67.831M134.156 101.589l31.32-31.32M124.403 59.703h41.449M175.852 110.092V67.831" stroke="#151518" stroke-width="3"/><path d="m192.107 101.589 31.32-31.32M182.354 59.703h41.449M233.803 110.092V67.831M250.058 101.589l31.32-31.32M240.305 59.703h41.448M291.753 110.092V67.831M308.008 101.589l31.32-31.32M298.255 59.703h41.449M349.704 110.092V67.831M365.959 101.589l31.32-31.32M356.206 59.703h41.449M407.655 106.029V63.767M2 167.795v-42.261M18.254 159.292l31.32-31.32" stroke="#000" stroke-opacity=".1" stroke-width="3"/><path d="M8.501 117.406h41.45" stroke="#151518" stroke-width="3"/><path d="M59.95 167.795v-42.261M76.206 159.292l31.32-31.32" stroke="#000" stroke-opacity=".1" stroke-width="3"/><path d="M66.452 117.406h41.449" stroke="#151518" stroke-width="3"/><path d="M117.901 167.795v-42.261M134.156 159.292l31.32-31.32" stroke="#000" stroke-opacity=".1" stroke-width="3"/><path d="M124.403 117.406h41.449" stroke="#151518" stroke-width="3"/><path d="M175.852 167.795v-42.261M192.107 159.292l31.32-31.32M182.354 117.406h41.449M233.803 167.795v-42.261M250.058 159.292l31.32-31.32M240.305 117.406h41.448M291.753 167.795v-42.261M308.008 159.292l31.32-31.32M298.255 117.406h41.449M349.704 167.795v-42.261M365.959 159.292l31.32-31.32M356.206 117.406h41.449M407.655 163.732V121.47" stroke="#000" stroke-opacity=".1" stroke-width="3"/><circle cx="59.743" cy="42.03" r="9.03" fill="#151518"/><path d="M42.84 77.85 59.5 55.863l16.66 21.985H42.84Z" stroke="#151518" stroke-width="1.087"/></svg>