<svg width="317" height="297" fill="none" xmlns="http://www.w3.org/2000/svg"><path d="M165.298 261.532c-.053-18.633 33.618-33.834 75.207-33.952 41.589-.118 75.346 14.892 75.399 33.525.053 18.634-33.618 33.835-75.207 33.953-41.589.117-75.347-14.892-75.399-33.526z" fill="#0C1447" stroke="#0C1447" stroke-width="1.201" stroke-miterlimit="10" stroke-linejoin="round"/><path d="M25.318 259.73c-.053-18.633 33.619-33.834 75.208-33.952 41.589-.118 75.346 14.892 75.399 33.525.053 18.634-33.619 33.835-75.208 33.953-41.589.118-75.346-14.892-75.4-33.526zM108.792 137.256c-.053-18.633 33.618-33.834 75.207-33.952 41.589-.118 75.347 14.892 75.399 33.525.053 18.634-33.618 33.835-75.207 33.953-41.589.118-75.347-14.892-75.399-33.526z" fill="#0C1447" stroke="#0C1447" stroke-width="1.201" stroke-miterlimit="10" stroke-linejoin="round"/><path d="M240.062 86.576c0 46.847-37.978 84.824-84.825 84.824s-84.825-37.977-84.825-84.825c0-46.847 37.978-84.824 84.825-84.824s84.825 37.977 84.825 84.825z" fill="#ED6F78" stroke="#0C1447" stroke-width="1.501"/><path d="M171.001 207.882c0 46.845-38.109 84.825-85.125 84.825S.75 254.727.75 207.882c0-46.845 38.109-84.824 85.125-84.824S171 161.037 171 207.882z" fill="#EAEDFF" stroke="#0C1447" stroke-width="1.501"/><circle cx="224.298" cy="207.882" r="84.825" fill="#3856E6" stroke="#0C1447" stroke-width="1.501"/><path d="M129.075 88.444c6.886 0 10.556-4.994 10.556-14.377 0-3.972-.643-6.658-2.005-8.626-1.589-2.27-4.048-3.48-7.037-3.48-5.221 0-8.967 3.745-8.967 8.966 0 5.032 3.557 8.626 8.588 8.626 1.892 0 3.368-.605 4.692-1.589-.152 3.708-2.422 6.167-5.751 6.167-1.475 0-3.14-.416-4.805-1.21l-1.627 3.934c2.233 1.097 4.162 1.59 6.356 1.59zm1.4-13.204c-2.686 0-4.54-1.778-4.54-4.426 0-2.649 1.854-4.54 4.578-4.54 2.686 0 4.616 1.816 4.616 4.464 0 2.648-1.892 4.502-4.654 4.502zm24.752 13.204c7 0 12.561-5.486 12.561-13.242 0-7.718-5.561-13.241-12.561-13.241-6.961 0-12.522 5.523-12.522 13.241 0 7.756 5.561 13.242 12.522 13.242zm0-4.313c-4.691 0-8.209-3.67-8.209-8.929 0-5.22 3.518-8.928 8.209-8.928 4.73 0 8.248 3.707 8.248 8.928 0 5.26-3.518 8.93-8.248 8.93zm.038-5.713c1.778 0 3.178-1.4 3.178-3.216 0-1.816-1.4-3.215-3.178-3.215-1.816 0-3.216 1.4-3.216 3.215 0 1.816 1.4 3.216 3.216 3.216zm25.972-4.653h7.529v2.686h-7.529v7.794h-2.724V76.45h-7.529v-2.686h7.529v-7.832h2.724v7.832zM134.19 110.154h.977v-3.099c.533.647 1.192.965 1.997.965 1.612 0 2.736-1.226 2.736-2.974 0-1.748-1.124-2.974-2.736-2.974-.84 0-1.532.329-1.997.953v-.817h-.977v7.946zm2.804-3.042c-1.146 0-1.895-.806-1.895-2.066 0-1.26.749-2.066 1.895-2.066 1.147 0 1.896.817 1.896 2.066 0 1.248-.749 2.066-1.896 2.066zm4.978-4.053v-.851h-.942v5.676h.976v-2.645c0-1.283.397-2.146 1.669-2.146.204 0 .374.023.567.068v-1.032a2.896 2.896 0 00-.556-.057c-.794 0-1.362.363-1.714.987zm2.439 1.987c0 1.702 1.272 2.974 2.974 2.974 1.703 0 2.974-1.272 2.974-2.974 0-1.703-1.271-2.974-2.974-2.974-1.702 0-2.974 1.271-2.974 2.974zm4.938 0c0 1.18-.783 2.032-1.964 2.032-1.18 0-1.963-.852-1.963-2.032 0-1.181.783-2.032 1.963-2.032 1.181 0 1.964.851 1.964 2.032zm2.683-3.701c.454 0 .772-.318.772-.772s-.318-.771-.772-.771-.772.317-.772.771.318.772.772.772zm.488.863h-.976v5.948c0 .681-.216 1.101-1.306 1.101h-.045v.942h.045c1.703 0 2.282-.67 2.282-2.043v-5.948zm1.081 2.883c0 1.794 1.18 2.929 2.894 2.929a3.005 3.005 0 002.271-1.022l-.511-.76c-.397.465-.976.874-1.805.874-.965 0-1.805-.602-1.862-1.76v-.011h4.541v-.295c0-1.68-.942-2.974-2.724-2.974-1.714 0-2.804 1.351-2.804 3.019zm4.461-.533h-3.428c.136-.942.715-1.578 1.782-1.578 1.022 0 1.555.636 1.646 1.578zm1.747.499c0 1.76 1.18 2.963 2.928 2.963.852 0 1.601-.295 2.157-.852l-.59-.76c-.488.443-1.022.67-1.578.67-1.124 0-1.907-.84-1.907-2.032 0-1.215.772-2.032 1.918-2.032.534 0 1.01.204 1.487.636l.636-.75c-.556-.556-1.237-.828-2.066-.828-1.748 0-2.985 1.226-2.985 2.985zm9.149 2.747v-.863a4.564 4.564 0 01-.919.091c-.477 0-.647-.25-.647-.681v-3.292h1.555v-.851h-1.555v-1.521h-.977v1.521h-1.123v.851h1.123v3.235c0 1.204.534 1.646 1.567 1.646.363 0 .681-.056.976-.136zm.889-4.052c0 1.18 1.078 1.475 2.134 1.725.828.193 1.26.307 1.26.84 0 .522-.409.795-1.169.795-.84 0-1.442-.33-1.737-.931l-.806.511c.409.84 1.328 1.328 2.509 1.328 1.384 0 2.179-.659 2.179-1.771 0-1.158-.851-1.408-2.043-1.703-.874-.215-1.351-.34-1.351-.828 0-.477.454-.738 1.112-.738.693 0 1.192.284 1.476.828l.806-.51c-.454-.818-1.203-1.226-2.236-1.226-1.317 0-2.134.658-2.134 1.68zM83.612 182.067h-3.594l-14.945 17.857v3.821H79.3v4.805h4.313v-4.805h4.615v-4.313h-4.615v-17.365zm-4.313 7.604v9.761h-8.134l8.134-9.761zm10.62 18.879h4.842l11.766-22.662v-3.821H88.783v4.313h12.637l-11.502 22.17zM63.572 228.59c1.407 0 2.36-.851 2.36-2.157 0-1.475-1.225-1.929-2.28-2.315-.864-.307-1.5-.545-1.5-1.328 0-.704.512-1.124 1.34-1.124.84 0 1.374.431 1.6 1.305l.931-.431c-.329-1.181-1.237-1.896-2.53-1.896-1.408 0-2.362.852-2.362 2.157 0 1.476 1.226 1.93 2.282 2.316.862.306 1.498.544 1.498 1.328 0 .703-.51 1.123-1.34 1.123-.84 0-1.373-.431-1.6-1.305l-.93.431c.329 1.181 1.237 1.896 2.53 1.896zm3.616-4.381l.862.465c.114-.658.636-1.022 1.465-1.022.794 0 1.26.341 1.26.931v.148c0 .193-.103.283-.364.306l-1.6.159c-1.135.114-1.828.772-1.828 1.748 0 1.056.772 1.782 1.93 1.782.806 0 1.464-.352 1.862-.942v.806h.976v-3.689c0-1.408-.772-2.123-2.282-2.123-1.248 0-2.043.5-2.281 1.431zm3.587 1.668v.42c0 .829-.76 1.51-1.714 1.51-.659 0-1.056-.341-1.056-.851 0-.466.34-.784.92-.852l1.85-.227zm3.333-5.233h-1v7.946h1v-7.946zm1.13 5.154c0 1.793 1.18 2.928 2.894 2.928a3.007 3.007 0 002.27-1.021l-.51-.761c-.398.466-.977.874-1.805.874-.965 0-1.805-.601-1.862-1.759v-.012h4.54v-.295c0-1.68-.941-2.974-2.724-2.974-1.714 0-2.803 1.351-2.803 3.02zm4.46-.534h-3.427c.136-.942.715-1.578 1.782-1.578 1.021 0 1.555.636 1.646 1.578zm2.009-.806c0 1.181 1.078 1.476 2.134 1.726.828.193 1.26.306 1.26.84 0 .522-.41.794-1.17.794-.84 0-1.441-.329-1.736-.931l-.806.511c.408.84 1.328 1.328 2.508 1.328 1.385 0 2.18-.658 2.18-1.77 0-1.158-.852-1.408-2.043-1.703-.875-.216-1.351-.341-1.351-.829 0-.477.454-.738 1.112-.738.692 0 1.192.284 1.476.829l.806-.511c-.454-.817-1.204-1.226-2.236-1.226-1.317 0-2.134.659-2.134 1.68zm7.07-.692h1.646v-.851h-1.646v-.318c0-.874.284-1.192.976-1.192.227 0 .466.034.75.079v-.896a5.372 5.372 0 00-.875-.08c-1.078 0-1.827.568-1.827 2.089v.318h-1.272v.851h1.272v4.824h.976v-4.824zm1.836 1.986c0 1.703 1.271 2.974 2.974 2.974 1.703 0 2.974-1.271 2.974-2.974 0-1.702-1.272-2.974-2.974-2.974-1.703 0-2.974 1.272-2.974 2.974zm4.938 0c0 1.181-.784 2.032-1.964 2.032s-1.964-.851-1.964-2.032c0-1.18.783-2.032 1.964-2.032 1.18 0 1.963.852 1.963 2.032zm3.087-1.986v-.851h-.942v5.675h.976v-2.645c0-1.282.397-2.145 1.669-2.145.204 0 .374.023.567.068v-1.033a2.986 2.986 0 00-.556-.057c-.795 0-1.362.364-1.714.988zm2.439 1.998c0 1.759 1.181 2.962 2.929 2.962.851 0 1.6-.295 2.156-.851l-.59-.761c-.488.443-1.021.67-1.578.67-1.123 0-1.907-.84-1.907-2.032 0-1.214.772-2.032 1.919-2.032.533 0 1.01.205 1.487.636l.635-.749c-.556-.556-1.237-.829-2.066-.829-1.748 0-2.985 1.226-2.985 2.986zm5.654.034c0 1.793 1.18 2.928 2.894 2.928a3.006 3.006 0 002.27-1.021l-.51-.761c-.398.466-.977.874-1.805.874-.965 0-1.805-.601-1.862-1.759v-.012h4.541v-.295c0-1.68-.943-2.974-2.725-2.974-1.714 0-2.803 1.351-2.803 3.02zm4.461-.534h-3.429c.137-.942.716-1.578 1.783-1.578 1.021 0 1.555.636 1.646 1.578zm-53.79 20.326c.533 0 1.01-.102 1.646-.329l-.182-1.022a3.31 3.31 0 01-1.464.329c-1.635 0-2.883-1.191-2.883-2.951 0-1.759 1.248-2.951 2.883-2.951 1.021 0 1.805.465 2.372 1.067l.465-.965c-.737-.681-1.668-1.124-2.792-1.124-2.225 0-3.95 1.714-3.95 3.973s1.748 3.973 3.905 3.973zm2.544-2.792c0 1.793 1.18 2.928 2.894 2.928a3.007 3.007 0 002.27-1.021l-.51-.761c-.397.466-.976.874-1.805.874-.965 0-1.805-.601-1.862-1.759v-.012h4.54v-.295c0-1.68-.941-2.974-2.724-2.974-1.714 0-2.803 1.351-2.803 3.02zm4.46-.534H60.98c.136-.942.715-1.578 1.782-1.578 1.021 0 1.555.636 1.646 1.578zm3.144-1.498v-.851h-.942v5.675h.976v-2.645c0-1.282.397-2.145 1.668-2.145.205 0 .375.023.568.068v-1.033a2.985 2.985 0 00-.556-.057c-.795 0-1.362.364-1.714.988zm6.334 4.745v-.863a4.57 4.57 0 01-.92.091c-.476 0-.646-.25-.646-.681v-3.292h1.555v-.851h-1.555v-1.522h-.977v1.522h-1.123v.851h1.123v3.235c0 1.203.534 1.646 1.567 1.646.363 0 .681-.057.976-.136zm1.737-6.459c.455 0 .772-.318.772-.772s-.317-.772-.772-.772c-.454 0-.771.318-.771.772s.317.772.771.772zm.489.863h-.977v5.675h.977v-5.675zm3.272.851h1.646v-.851h-1.646v-.318c0-.874.284-1.192.977-1.192.227 0 .465.034.749.079v-.896a5.37 5.37 0 00-.874-.08c-1.079 0-1.828.568-1.828 2.089v.318h-1.271v.851h1.271v4.824h.976v-4.824zm3.234-1.714c.454 0 .772-.318.772-.772s-.318-.772-.772-.772-.772.318-.772.772.318.772.772.772zm.488.863h-.976v5.675h.976v-5.675zm1.03 2.849c0 1.759 1.18 2.962 2.928 2.962.852 0 1.6-.295 2.157-.851l-.59-.761c-.489.443-1.022.67-1.578.67-1.124 0-1.907-.84-1.907-2.032 0-1.214.772-2.032 1.918-2.032.534 0 1.01.205 1.487.636l.636-.749c-.556-.556-1.237-.829-2.066-.829-1.748 0-2.986 1.226-2.986 2.986zm5.806-1.555l.862.465c.114-.658.636-1.022 1.465-1.022.794 0 1.26.341 1.26.931v.148c0 .193-.102.283-.363.306l-1.601.159c-1.135.114-1.828.772-1.828 1.748 0 1.056.772 1.782 1.93 1.782.806 0 1.464-.352 1.862-.942v.806h.976v-3.689c0-1.408-.772-2.123-2.282-2.123-1.248 0-2.043.5-2.281 1.431zm3.587 1.668v.42c0 .829-.76 1.51-1.714 1.51-.659 0-1.056-.341-1.056-.851 0-.466.34-.784.92-.852l1.85-.227zm5.265 2.634v-.863a4.57 4.57 0 01-.919.091c-.477 0-.647-.25-.647-.681v-3.292h1.555v-.851h-1.555v-1.522h-.976v1.522h-1.124v.851h1.124v3.235c0 1.203.533 1.646 1.566 1.646.363 0 .681-.057.976-.136zm1.738-6.459c.454 0 .772-.318.772-.772s-.318-.772-.772-.772-.772.318-.772.772.318.772.772.772zm.488.863h-.976v5.675h.976v-5.675zm1.029 2.837c0 1.703 1.271 2.974 2.974 2.974 1.703 0 2.974-1.271 2.974-2.974 0-1.702-1.271-2.974-2.974-2.974-1.703 0-2.974 1.272-2.974 2.974zm4.938 0c0 1.181-.783 2.032-1.964 2.032-1.18 0-1.964-.851-1.964-2.032 0-1.18.784-2.032 1.964-2.032 1.181 0 1.964.852 1.964 2.032zm2.145 2.838h.976v-2.645c0-1.498.534-2.259 1.589-2.259.897 0 1.397.545 1.397 1.521v3.383h.998v-3.417c0-1.509-.783-2.395-2.122-2.395-.806 0-1.476.318-1.896 1.011v-.874h-.942v5.675zm6.358-4.132c0 1.181 1.079 1.476 2.134 1.726.829.193 1.26.306 1.26.84 0 .522-.408.794-1.169.794-.84 0-1.441-.329-1.737-.931l-.805.511c.408.84 1.328 1.328 2.508 1.328 1.385 0 2.18-.658 2.18-1.77 0-1.158-.852-1.408-2.044-1.703-.874-.216-1.35-.341-1.35-.829 0-.477.454-.738 1.112-.738.692 0 1.192.284 1.476.829l.806-.511c-.454-.817-1.204-1.226-2.237-1.226-1.316 0-2.134.659-2.134 1.68z" fill="#0C1447"/><path d="M198.64 208.55c6.885 0 10.555-4.994 10.555-14.376 0-3.973-.643-6.659-2.005-8.626-1.589-2.27-4.048-3.481-7.037-3.481-5.221 0-8.966 3.745-8.966 8.966 0 5.032 3.556 8.626 8.588 8.626 1.891 0 3.367-.605 4.691-1.589-.151 3.708-2.421 6.167-5.751 6.167-1.475 0-3.14-.416-4.804-1.21l-1.627 3.934c2.232 1.097 4.161 1.589 6.356 1.589zm1.4-13.204c-2.687 0-4.54-1.778-4.54-4.426s1.853-4.54 4.577-4.54c2.687 0 4.616 1.816 4.616 4.464 0 2.649-1.892 4.502-4.653 4.502zm11.282 13.204h4.842l11.766-22.662v-3.821h-17.743v4.313h12.636l-11.501 22.17zm24.515-27.391c1.867 0 3.279.744 4.238 2.232.958 1.463 1.437 3.531 1.437 6.205 0 2.673-.466 4.767-1.399 6.28-.908 1.488-2.334 2.232-4.276 2.232-1.79 0-3.165-.744-4.123-2.232-.934-1.513-1.4-3.607-1.4-6.28 0-2.674.441-4.742 1.324-6.205.883-1.488 2.282-2.232 4.199-2.232zm17.29.378l-14.982 27.013h-2.913l14.982-27.013h2.913zm-17.29 1.968c-.958 0-1.664.517-2.118 1.551-.429 1.009-.643 2.522-.643 4.54 0 2.018.214 3.543.643 4.578.454 1.034 1.16 1.551 2.118 1.551 1.942 0 2.914-2.043 2.914-6.129 0-4.061-.972-6.091-2.914-6.091zm16.534 8.474c1.841 0 3.241.744 4.199 2.232.984 1.463 1.476 3.532 1.476 6.205 0 2.674-.467 4.767-1.4 6.28-.908 1.489-2.333 2.233-4.275 2.233-1.791 0-3.166-.744-4.124-2.233-.933-1.513-1.4-3.606-1.4-6.28 0-2.673.441-4.742 1.324-6.205.883-1.488 2.283-2.232 4.2-2.232zm0 2.384c-.959 0-1.665.504-2.119 1.513-.429 1.009-.643 2.522-.643 4.54 0 2.043.214 3.582.643 4.616.454 1.009 1.16 1.513 2.119 1.513 1.942 0 2.913-2.043 2.913-6.129 0-4.035-.971-6.053-2.913-6.053zM184.011 225.752c0 1.703 1.271 2.974 2.974 2.974 1.703 0 2.974-1.271 2.974-2.974 0-1.702-1.271-2.974-2.974-2.974-1.703 0-2.974 1.272-2.974 2.974zm4.938 0c0 1.181-.784 2.032-1.964 2.032-1.181 0-1.964-.851-1.964-2.032 0-1.18.783-2.032 1.964-2.032 1.18 0 1.964.852 1.964 2.032zm3.513-1.986h1.646v-.851h-1.646v-.318c0-.874.284-1.192.976-1.192.227 0 .466.034.749.079v-.896a5.367 5.367 0 00-.874-.08c-1.078 0-1.827.568-1.827 2.089v.318h-1.271v.851h1.271v4.824h.976v-4.824zm5.527 1.998c0 1.759 1.181 2.962 2.929 2.962.851 0 1.6-.295 2.156-.851l-.59-.761c-.488.443-1.021.67-1.578.67-1.123 0-1.907-.84-1.907-2.032 0-1.214.772-2.032 1.919-2.032.533 0 1.01.205 1.487.636l.635-.749c-.556-.556-1.237-.829-2.065-.829-1.749 0-2.986 1.226-2.986 2.986zm7.107-5.12h-.999v7.946h.999v-7.946zm2.128 1.408c.454 0 .772-.318.772-.772s-.318-.772-.772-.772-.772.318-.772.772.318.772.772.772zm.488.863h-.976v5.675h.976v-5.675zm1.03 2.883c0 1.793 1.18 2.928 2.894 2.928a3.006 3.006 0 002.27-1.021l-.51-.761c-.398.466-.977.874-1.805.874-.965 0-1.805-.601-1.862-1.759v-.012h4.541v-.295c0-1.68-.942-2.974-2.725-2.974-1.714 0-2.803 1.351-2.803 3.02zm4.461-.534h-3.428c.136-.942.715-1.578 1.782-1.578 1.021 0 1.555.636 1.646 1.578zm2.2 3.326h.977v-2.645c0-1.498.533-2.259 1.589-2.259.897 0 1.396.545 1.396 1.521v3.383h.999v-3.417c0-1.509-.783-2.395-2.123-2.395-.806 0-1.475.318-1.895 1.011v-.874h-.943v5.675zm9.483-.079v-.863a4.564 4.564 0 01-.919.091c-.477 0-.647-.25-.647-.681v-3.292h1.555v-.851h-1.555v-1.522h-.977v1.522h-1.123v.851h1.123v3.235c0 1.203.534 1.646 1.567 1.646.363 0 .681-.057.976-.136zm.889-4.053c0 1.181 1.078 1.476 2.134 1.726.828.193 1.26.306 1.26.84 0 .522-.409.794-1.17.794-.84 0-1.441-.329-1.736-.931l-.806.511c.408.84 1.328 1.328 2.508 1.328 1.385 0 2.18-.658 2.18-1.77 0-1.158-.852-1.408-2.043-1.703-.874-.216-1.351-.341-1.351-.829 0-.477.454-.738 1.112-.738.693 0 1.192.284 1.476.829l.806-.511c-.454-.817-1.203-1.226-2.236-1.226-1.317 0-2.134.659-2.134 1.68zm10.385 4.132h.749l1.726-4.075 1.725 4.075h.749l2.327-5.675h-1.112l-1.612 4.211-1.725-4.211h-.704l-1.726 4.211-1.611-4.211h-1.113l2.327 5.675zm7.444-2.838c0 1.703 1.272 2.974 2.974 2.974 1.703 0 2.974-1.271 2.974-2.974 0-1.702-1.271-2.974-2.974-2.974-1.702 0-2.974 1.272-2.974 2.974zm4.938 0c0 1.181-.783 2.032-1.964 2.032-1.18 0-1.963-.851-1.963-2.032 0-1.18.783-2.032 1.963-2.032 1.181 0 1.964.852 1.964 2.032zm7.026-2.837h-.976v2.644c0 1.192-.318 2.259-1.612 2.259-1.033 0-1.294-.647-1.294-1.544v-3.359h-.999v3.359c0 1.408.534 2.452 2.123 2.452.851 0 1.374-.318 1.816-.953v.817h.942v-5.675zm2.592-2.271h-.999v7.946h.999v-7.946zm6.839 0h-.976v3.099c-.533-.647-1.192-.965-1.998-.965-1.611 0-2.735 1.226-2.735 2.974 0 1.748 1.124 2.974 2.735 2.974.84 0 1.533-.329 1.998-.953v.817h.976v-7.946zm-2.803 3.042c1.146 0 1.895.806 1.895 2.066 0 1.26-.749 2.066-1.895 2.066-1.147 0-1.896-.817-1.896-2.066 0-1.248.749-2.066 1.896-2.066zm-65.554 17.08v-.851h-.942v5.675h.976v-2.645c0-1.282.397-2.145 1.668-2.145.205 0 .375.023.568.068v-1.033a2.986 2.986 0 00-.556-.057c-.795 0-1.362.364-1.714.988zm2.439 2.032c0 1.793 1.181 2.928 2.895 2.928a3.008 3.008 0 002.27-1.021l-.511-.761c-.397.466-.976.874-1.805.874-.965 0-1.805-.601-1.861-1.759v-.012h4.54v-.295c0-1.68-.942-2.974-2.724-2.974-1.714 0-2.804 1.351-2.804 3.02zm4.461-.534h-3.428c.136-.942.715-1.578 1.782-1.578 1.022 0 1.555.636 1.646 1.578zm1.747.5c0 1.759 1.18 2.962 2.928 2.962.852 0 1.601-.295 2.157-.851l-.59-.761c-.488.443-1.022.67-1.578.67-1.124 0-1.907-.84-1.907-2.032 0-1.214.772-2.032 1.918-2.032.534 0 1.011.205 1.487.636l.636-.749c-.556-.556-1.237-.829-2.066-.829-1.748 0-2.985 1.226-2.985 2.986zm5.653-.012c0 1.703 1.271 2.974 2.974 2.974 1.703 0 2.974-1.271 2.974-2.974 0-1.702-1.271-2.974-2.974-2.974-1.703 0-2.974 1.272-2.974 2.974zm4.938 0c0 1.181-.783 2.032-1.964 2.032-1.18 0-1.964-.851-1.964-2.032 0-1.18.784-2.032 1.964-2.032 1.181 0 1.964.852 1.964 2.032zm6.754-1.85c-.341-.738-.977-1.124-1.862-1.124-.806 0-1.442.329-1.805 1.045v-.908h-.942v5.675h.976v-2.645c0-1.509.545-2.259 1.646-2.259.874 0 1.34.523 1.34 1.51v3.394h.976v-2.645c0-1.509.556-2.259 1.68-2.259.862 0 1.317.523 1.317 1.51v3.394h.987v-3.269c0-1.68-.749-2.543-2.202-2.543-.942 0-1.601.352-2.111 1.124zm10.508 0c-.34-.738-.976-1.124-1.861-1.124-.806 0-1.442.329-1.805 1.045v-.908h-.942v5.675h.976v-2.645c0-1.509.545-2.259 1.646-2.259.874 0 1.339.523 1.339 1.51v3.394h.977v-2.645c0-1.509.556-2.259 1.679-2.259.863 0 1.317.523 1.317 1.51v3.394h.988v-3.269c0-1.68-.749-2.543-2.202-2.543-.943 0-1.601.352-2.112 1.124zm5.446 1.896c0 1.793 1.181 2.928 2.895 2.928a3.006 3.006 0 002.27-1.021l-.511-.761c-.397.466-.976.874-1.804.874-.965 0-1.805-.601-1.862-1.759v-.012h4.54v-.295c0-1.68-.942-2.974-2.724-2.974-1.714 0-2.804 1.351-2.804 3.02zm4.461-.534h-3.428c.137-.942.715-1.578 1.782-1.578 1.022 0 1.556.636 1.646 1.578zm2.201 3.326h.976v-2.645c0-1.498.534-2.259 1.589-2.259.897 0 1.397.545 1.397 1.521v3.383h.999v-3.417c0-1.509-.784-2.395-2.123-2.395-.806 0-1.476.318-1.896 1.011v-.874h-.942v5.675zm11.807-7.946h-.976v3.099c-.534-.647-1.192-.965-1.998-.965-1.612 0-2.736 1.226-2.736 2.974 0 1.748 1.124 2.974 2.736 2.974.84 0 1.532-.329 1.998-.953v.817h.976v-7.946zm-2.804 3.042c1.147 0 1.896.806 1.896 2.066 0 1.26-.749 2.066-1.896 2.066-1.146 0-1.895-.817-1.895-2.066 0-1.248.749-2.066 1.895-2.066z" fill="#fff"/><path d="M184.395 285.36c.017-5.948-8.291-10.794-18.556-10.823-10.265-.029-18.601 4.769-18.618 10.718-.017 5.948 8.292 10.793 18.557 10.822 10.265.029 18.6-4.769 18.617-10.717z" fill="#0C1447" stroke="#0C1447" stroke-width="1.081" stroke-miterlimit="10" stroke-linejoin="round"/><path d="M160.098 292.851c9.816 0 17.773-8.064 17.773-18.012 0-9.949-7.957-18.013-17.773-18.013-9.815 0-17.772 8.064-17.772 18.013 0 9.948 7.957 18.012 17.772 18.012z" fill="#EAEDFF" stroke="#0C1447" stroke-width="1.501" stroke-miterlimit="10" stroke-linejoin="round"/><g clip-path="url(#clip0_117_1585)" fill="#0C1447"><path d="M168.583 272.037l-.02-3.42a1.037 1.037 0 10-2.074.011l.021 3.784a140.64 140.64 0 00-3.02.599l-.482-7.761a1.037 1.037 0 10-2.07.13l.501 8.078c-.974.22-1.912.442-2.815.664l-.139-5.637a1.036 1.036 0 10-2.072.052l.15 6.11c-1.074.282-2.087.562-3.033.835l-.457-6.324a1.038 1.038 0 10-2.069.15l.491 6.779a105.764 105.764 0 00-4.583 1.508 13.705 13.705 0 01-.321-2.346c-.366-7.454 5.379-13.792 12.833-14.158 6.558-.322 12.251 4.086 13.775 10.225-1.589.223-3.13.464-4.616.721zM173.542 273.364c-.296.04-.593.083-.885.125a141.278 141.278 0 00-4.213.679l.063 4.646c.01.682-.424 1.235-.974 1.262l-.046.002c-.574-.003-1.047-.573-1.055-1.274l-.058-4.256a146.81 146.81 0 00-2.804.566l.461 7.725c.041.7-.389 1.296-.96 1.334l-.014.001c-.565.027-1.056-.507-1.096-1.202l-.443-7.405a126.084 126.084 0 00-2.949.707l.193 6.631c.02.689-.415 1.26-.975 1.288l-.026.001c-.573.012-1.053-.548-1.074-1.249l-.178-6.139c-1.001.27-1.943.533-2.825.79l-.04.012.201 2.976c.049.7-.376 1.302-.948 1.346l-.023.001c-.561.028-1.049-.498-1.097-1.187l-.172-2.522c-1.075.336-2.03.649-2.85.928-.451.152-.861.297-1.229.428 2.074 5.224 7.297 8.797 13.224 8.506 7.454-.366 13.199-6.704 12.833-14.158-.01-.19-.023-.377-.041-.562z"/></g><path d="M218.74 11.209l13.256-7.655M208.384 7.324L219.329 1" stroke="#0C1447" stroke-width="1.501" stroke-miterlimit="10" stroke-linecap="round" stroke-linejoin="round"/><defs><clipPath id="clip0_117_1585"><path fill="#fff" transform="rotate(-2.811 5406.883 -2842.806)" d="M0 0h27.024v27.024H0z"/></clipPath></defs></svg>