<svg width="514" height="647" fill="none" xmlns="http://www.w3.org/2000/svg"><path d="M501.982 628.955c.025-8.862-12.352-16.081-27.645-16.124-15.294-.043-27.711 7.105-27.737 15.966-.025 8.862 12.352 16.081 27.646 16.124 15.293.043 27.71-7.105 27.736-15.966z" fill="#0C1447" stroke="#0C1447" stroke-width="3" stroke-miterlimit="10" stroke-linejoin="round"/><path d="M485.257 638.838c14.527 0 26.303-11.777 26.303-26.303 0-14.527-11.776-26.304-26.303-26.304-14.527 0-26.303 11.777-26.303 26.304 0 14.526 11.776 26.303 26.303 26.303z" fill="#3856E6" stroke="#0C1447" stroke-width="3" stroke-miterlimit="10" stroke-linejoin="round"/><path d="M431.958 573.772l23.535 13.152M166.443 14.448l-.003 27.118M413.961 580.695l19.382 11.075M151.309 2l-.007 22.394" stroke="#0C1447" stroke-width="3" stroke-miterlimit="10" stroke-linecap="round" stroke-linejoin="round"/><path d="M154.078 136.472l48.86-28.393-.306 105.568-48.849 28.394.295-105.569z" fill="#fff" stroke="#0C1447" stroke-width="3" stroke-miterlimit="10" stroke-linejoin="round"/><path d="M96.043 102.965l48.861-28.394 58.035 33.508-48.861 28.393-58.035-33.507z" fill="#0C1447" stroke="#0C1447" stroke-width="3" stroke-miterlimit="10" stroke-linejoin="round"/><path d="M273.038 456.547l48.85-28.383 103.493 59.747-48.861 28.394-103.482-59.758z" fill="#fff" stroke="#0C1447" stroke-width="3" stroke-miterlimit="10" stroke-linejoin="round"/><path d="M376.52 516.305l48.861-28.394-.193 66.675-48.861 28.394.193-66.675z" fill="#0C1447" stroke="#0C1447" stroke-width="3" stroke-miterlimit="10" stroke-linejoin="round"/><path d="M23.99 385.294l69.391-40.899 315.782 200.781-46.923 29.776L23.99 385.294z" fill="#0C1447" stroke="#0C1447" stroke-width="1.4" stroke-miterlimit="10" stroke-linejoin="round"/><path d="M154.078 136.473l-.295 105.568 119.663 69.091-.408 145.415 103.482 59.758-.193 66.675-161.516-93.255.408-145.426-119.663-69.09.487-172.244 58.035 33.508z" fill="#fff" stroke="#0C1447" stroke-width="3" stroke-miterlimit="10" stroke-linejoin="round"/><path d="M153.783 242.041l48.849-28.394 119.675 69.091-48.861 28.393-119.663-69.09zM273.446 311.132l48.861-28.394-.419 145.426-48.85 28.383.408-145.415z" fill="#fff" stroke="#0C1447" stroke-width="3" stroke-miterlimit="10" stroke-linejoin="round"/><path d="M155.083 103.777c12.616 0 22.843-10.381 22.843-23.188 0-12.806-10.227-23.188-22.843-23.188-12.615 0-22.842 10.382-22.842 23.188 0 12.807 10.227 23.188 22.842 23.188z" fill="#ED6F78" stroke="#0C1447" stroke-width="3" stroke-miterlimit="10" stroke-linejoin="round"/></svg>