<svg width="309" height="299" fill="none" xmlns="http://www.w3.org/2000/svg"><path d="M115.09 244.263c18.154 2.492 37.921-10.088 55.642-8.634 18.379 1.509 35.795-5.487 39.362-8.504 3.566-3.016 16.458-11.933 26.883-16.596 8.35-3.733 13.704-15.65 15.508-20.25a4.763 4.763 0 012.546-2.637c2.862-1.238 8.525-3.717 13.492-6.055 6.995-3.291 14.262-20.025 20.983-26.608 3.841-3.763 4.5-6.896 4.362-8.892-.112-1.612.529-3.183 1.817-4.162 5.291-4.009 16.641-13.509 9.454-16.296-9.188-3.567-27.021 9.6-27.021 9.6s16.871-12.484 3.979-12.346c-12.891.137-36.208 22.492-40.187 25.375-3.383 2.45-26.404 9.363-33.216 11.375-1.134.333-2.338.217-3.413-.275-10.041-4.571-33.704-.158-38.258-.679-2.071-.238-3.683-1.138-4.85-2.088a4.76 4.76 0 01-1.304-5.683c3.4-7.325 13.188-10.879 14.521-12.942 1.3-2.008 4.962-3.633 5.95-4.041a4.91 4.91 0 00.512-.246c18.475-10.142 23.946-29.659 17.413-31.167-6.567-1.517-25.5 21.462-30.55 21.462-4.479 0-18.483 7.146-21.6 8.767-.4.209-.767.471-1.092.784-2.554 2.441-14.945 14-25.533 18.733-11.487 5.133-36.574 41.4-38.17 43.721a2.775 2.775 0 00-.15.233" fill="#fff"/><path d="M115.09 244.263c18.154 2.491 37.921-10.088 55.642-8.634 18.379 1.509 35.795-5.487 39.362-8.504 3.566-3.016 16.458-11.933 26.883-16.596 8.35-3.733 13.704-15.65 15.508-20.25a4.763 4.763 0 012.546-2.637c2.862-1.238 8.525-3.717 13.492-6.055 6.995-3.291 14.262-20.025 20.983-26.608 3.841-3.763 4.5-6.896 4.362-8.892-.112-1.612.529-3.183 1.817-4.162 5.291-4.009 16.641-13.509 9.454-16.296-9.188-3.567-27.021 9.6-27.021 9.6s16.871-12.484 3.979-12.346c-12.891.137-36.208 22.492-40.187 25.375-3.383 2.45-26.404 9.363-33.216 11.375-1.134.333-2.338.217-3.413-.275-10.041-4.571-33.704-.158-38.258-.679-2.071-.238-3.683-1.138-4.85-2.088a4.76 4.76 0 01-1.304-5.683c3.4-7.325 13.188-10.879 14.521-12.942 1.3-2.008 4.962-3.633 5.95-4.041a4.91 4.91 0 00.512-.246c18.475-10.142 23.946-29.659 17.413-31.167-6.567-1.517-25.5 21.462-30.55 21.462-4.479 0-18.483 7.146-21.6 8.767-.4.209-.767.471-1.092.784-2.554 2.441-14.945 14-25.533 18.733-11.487 5.133-36.574 41.4-38.17 43.721a2.775 2.775 0 00-.15.233M211.231 174.824l15.834-2.908" stroke="#0C1447" stroke-width="2" stroke-miterlimit="10" stroke-linecap="round" stroke-linejoin="round"/><path d="M233.377 169.495l16.308-9.95c4.45-2.712 8.446-6.096 11.896-10 4.237-4.804 10.716-11.408 16.546-14.316M293.214 143.733s-8.15-2.675-13.804 4.433c-5.654 7.109-18.9 19.388-18.9 19.388M253.164 188.45s15.746-20.571 5.729-20.892c-10.016-.321-18.741 13.408-18.741 13.408s-15.025 26.171-41.521 30.05M207.839 187.713s26.029-4.73 35.392-10.83M202.135 176.562s6.946 11.792 8.4 22.296M94.486 223.892s7.413-16.063 24.713-20.263M126.361 198.858s30.396-4.867 49.666 4.771" stroke="#0C1447" stroke-width="2" stroke-miterlimit="10" stroke-linecap="round" stroke-linejoin="round"/><path d="M187.857 96.7c-6.384 11.178-10.325 23.616-10.292 34.895.029 10.771 3.7 18.555 9.571 22.525l-12.759 20.701 39.154-22.48c14.346-8.283 26.779-25.104 32.475-42.371l-11.467 6.621a6.284 6.284 0 00-.22.129c-23.846 13.771-43.646 4.813-46.462-20.02z" fill="#fff" stroke="#0C1447" stroke-width="2" stroke-miterlimit="10" stroke-linecap="round" stroke-linejoin="round"/><path fill="#ED6F78" d="M221.68 32.677l40.974 22.408-25.608 46.827-40.975-22.408z"/><path d="M269.798 49.432c.033 12.425-4.013 26.063-10.721 38.446l14.716 6.734-44.903 26.05c-22.834 13.183-41.308 2.654-41.492-23.396-.075-26.113 18.171-57.98 41.208-71.28 22.633-13.067 41.121-2.592 41.192 23.446zm-56.696 32.996c2.438 3.667 15.054 10.092 16.158 10.6l.109-.187c1.533-2.53 13.529-22.667 15.937-29.005.321-.633 6.379-12.695-.046-15.596-.162-.062-3.279-1.287-7.366 1.071-2.792 1.613-5.963 4.93-8.725 11.521-2.796-3.346-5.967-2.987-8.742-1.383-4.05 2.337-7.1 7.07-7.262 7.32-6.492 10.355-.384 15.397-.063 15.66zM163.798 76.09c.025 8.117-2.621 17.03-7.004 25.122l9.617 4.4-29.342 17.021c-14.92 8.612-26.991 1.733-27.112-15.288-.05-17.062 11.875-37.883 26.925-46.575 14.791-8.534 26.87-1.688 26.916 15.32zm-37.045 21.563c1.591 2.396 9.837 6.596 10.558 6.925l.071-.125c1.004-1.654 8.841-14.808 10.412-18.95.208-.416 4.167-8.296-.029-10.187-.108-.042-2.142-.842-4.812.7-1.825 1.054-3.896 3.22-5.7 7.529-1.83-2.188-3.9-1.95-5.713-.904-2.646 1.525-4.637 4.62-4.746 4.783-4.241 6.763-.25 10.054-.041 10.23z" fill="#0C1447"/><circle cx="140.964" cy="166.534" r="10.007" fill="#ED6F78"/><path d="M154.94 158.52c.013 4.18-1.35 8.767-3.608 12.934l4.95 2.266-15.108 8.763c-7.684 4.433-13.9.892-13.959-7.871-.025-8.783 6.113-19.508 13.863-23.983 7.616-4.392 13.837-.867 13.862 7.891zm-19.075 11.1c.821 1.234 5.067 3.396 5.438 3.567l.037-.062c.517-.85 4.55-7.625 5.363-9.759.108-.212 2.145-4.271-.017-5.246-.054-.02-1.104-.433-2.479.359-.942.541-2.008 1.658-2.938 3.875-.941-1.125-2.008-1.004-2.941-.467-1.363.788-2.388 2.379-2.442 2.463-2.183 3.487-.129 5.183-.021 5.27z" fill="#0C1447"/><path d="M196.881 13.721c.017 5.438-1.754 11.404-4.691 16.825l6.441 2.946-19.649 11.4c-9.992 5.771-18.079 1.163-18.159-10.238-.033-11.429 7.954-25.375 18.034-31.191 9.904-5.721 17.995-1.138 18.024 10.258z" fill="#EAEDFF" stroke="#0C1447" stroke-width="2" stroke-miterlimit="10" stroke-linecap="round" stroke-linejoin="round"/><path d="M172.302 25.009l15.279-8.58M172.302 31.763l8.729-4.9M194.498 128.825l29.646-16.646M194.498 138.333l16.942-9.508" stroke="#0C1447" stroke-width="2" stroke-miterlimit="10" stroke-linecap="round" stroke-linejoin="round"/><path d="M1.487 218.804c3.146-4.55 10.2-9.392 25.962-9.283 29.604.2 32.946-21.055 45.838-20.217 12.3.8 43.799 25.771 40.612 63.655-.438 5.191-3.684 9.808-8.538 11.708-1.616.633-3.441 1.004-5.433.867-16.446-1.138-22.875 33.525-43.387 32.096" fill="#EAEDFF"/><path d="M1.487 218.804c3.146-4.55 10.2-9.392 25.962-9.283 29.604.2 32.946-21.055 45.838-20.217 12.3.8 43.799 25.771 40.612 63.655-.438 5.191-3.684 9.808-8.538 11.708-1.616.633-3.441 1.004-5.433.867-16.446-1.138-22.875 33.525-43.387 32.096" stroke="#0C1447" stroke-width="2" stroke-miterlimit="10" stroke-linecap="round" stroke-linejoin="round"/></svg>