<svg width="63" height="72" fill="none" xmlns="http://www.w3.org/2000/svg"><path d="M62 17.806L30.725 35.98 1.095 19.176 32.374 1 62 17.806z" fill="#EAEDFF" stroke="#0C1447" stroke-width="1.8" stroke-miterlimit="10" stroke-linejoin="round"/><path d="M62 17.806l-.096 34.644L30.63 70.626l.096-34.644L62 17.806z" fill="#FFEFDF" stroke="#0C1447" stroke-width="1.8" stroke-miterlimit="10" stroke-linejoin="round"/><path d="M30.725 35.981l-.096 34.645L1 53.817l.095-34.641 29.63 16.805z" fill="#3856E6" stroke="#0C1447" stroke-width="1.8" stroke-miterlimit="10" stroke-linejoin="round"/><path d="M9 35.455V50M23.222 48.21v10M9 42.727l14.222 8.21" stroke="#FFEFDF" stroke-width="1.8" stroke-miterlimit="10" stroke-linecap="round" stroke-linejoin="round"/><path d="M13.525 45.34v-.909c0-.964-.272-2.047-.757-3.008-.485-.962-1.143-1.725-1.829-2.121L9 38.182" fill="#FFEFDF"/><path d="M13.525 45.34v-.909c0-.964-.272-2.047-.757-3.008-.485-.962-1.143-1.725-1.829-2.121L9 38.182" stroke="#FFEFDF" stroke-width="1.8" stroke-miterlimit="10" stroke-linecap="round" stroke-linejoin="round"/><path d="M9.434 42.562l13.52 7.888-.388 5.988-13.52-7.889.388-5.987z" fill="#FFEFDF"/></svg>