<svg width="63" height="72" fill="none" xmlns="http://www.w3.org/2000/svg"><path d="M62 17.806L30.725 35.98 1.095 19.176 32.373 1 62 17.806z" fill="#EAEDFF" stroke="#0C1447" stroke-width="1.8" stroke-miterlimit="10" stroke-linejoin="round"/><path d="M62 17.806l-.096 34.644L30.63 70.626l.096-34.644L62 17.806z" fill="#0C1447" stroke="#0C1447" stroke-width="1.8" stroke-miterlimit="10" stroke-linejoin="round"/><path d="M30.725 35.981l-.096 34.645L1 53.817l.095-34.641 29.63 16.805z" fill="#ED6F78" stroke="#0C1447" stroke-width="1.8" stroke-miterlimit="10" stroke-linejoin="round"/><path d="M12.681 52.518l6.638 3.832c1.395.023 2.579-.555 3.409-1.665.83-1.109 1.271-2.703 1.272-4.592L8 40.855c0 1.89.442 3.994 1.272 6.062.83 2.068 2.014 4.012 3.41 5.6v0z" stroke="#0C1447" stroke-width="1.8" stroke-miterlimit="10" stroke-linecap="round" stroke-linejoin="round"/><path d="M24 52.713c0 3.694-3.16 4.116-7.572 2.059C12.355 54.772 8 45.088 8 41.394c0-2.059 4.355 3.63 8.428 3.63C19.786 47.082 24 49.02 24 52.713z" fill="#0C1447"/><path d="M16 35.619v4.48M11.636 34.891v4.48M20.363 39.93v4.48" stroke="#0C1447" stroke-width="1.8" stroke-miterlimit="10" stroke-linecap="round" stroke-linejoin="round"/></svg>