<svg width="63" height="72" fill="none" xmlns="http://www.w3.org/2000/svg"><path d="M62 17.806L30.725 35.98 1.095 19.176 32.373 1 62 17.806z" fill="#0C1447" stroke="#0C1447" stroke-width="1.8" stroke-miterlimit="10" stroke-linejoin="round"/><path d="M62 17.806l-.096 34.644L30.63 70.626l.096-34.644L62 17.806z" fill="#FFEFDF" stroke="#0C1447" stroke-width="1.8" stroke-miterlimit="10" stroke-linejoin="round"/><path d="M30.725 35.981l-.096 34.645L1 53.817l.095-34.641 29.63 16.805z" fill="#EAEDFF" stroke="#0C1447" stroke-width="1.8" stroke-miterlimit="10" stroke-linejoin="round"/><path d="M24.424 46.685a3.814 3.814 0 00-.798-1.526 2.963 2.963 0 00-.6-.537 1.731 1.731 0 00-.617-.266l-10.953-2.104-2.12-2.644-1.789-.356 1.718 4.773 4.358 2.516 9.792 1.887a.923.923 0 00.54-.042.798.798 0 00.383-.347c.093-.162.15-.365.164-.597a2.513 2.513 0 00-.078-.757v0z" stroke="#0C1447" stroke-width="1.8" stroke-miterlimit="10" stroke-linecap="round" stroke-linejoin="round"/><path fill-rule="evenodd" clip-rule="evenodd" d="M8 39.5L9.5 44l4 2 11 2.5L24 45l-12-2.5-4-3zm11.5 8l-3.846-.741-1.823 5.599L16.5 54l3-6.5z" fill="#0C1447"/><path d="M15.392 46.882l-1.231 6.4 2.387 1.378 3.165-6.947" stroke="#0C1447" stroke-width="1.8" stroke-miterlimit="10" stroke-linecap="round" stroke-linejoin="round"/><path d="M10.5 33.215a.3.3 0 01.374-.402l2.861.997a.3.3 0 01.15.114l4.39 6.436a.3.3 0 01-.294.465l-4.347-.686a.3.3 0 01-.228-.178L10.5 33.215z" fill="#0C1447"/></svg>