<svg width="63" height="72" fill="none" xmlns="http://www.w3.org/2000/svg"><path d="M62 17.806L30.725 35.98 1.095 19.176 32.374 1 62 17.806z" fill="#0C1447" stroke="#0C1447" stroke-width="1.8" stroke-miterlimit="10" stroke-linejoin="round"/><path d="M62 17.806l-.096 34.644L30.63 70.626l.096-34.644L62 17.806z" fill="#EAEDFF" stroke="#0C1447" stroke-width="1.8" stroke-miterlimit="10" stroke-linejoin="round"/><path d="M30.725 35.981l-.096 34.645L1 53.817l.095-34.641 29.63 16.805z" fill="#ED6F78" stroke="#0C1447" stroke-width="1.8" stroke-miterlimit="10" stroke-linejoin="round"/><ellipse cx="15.377" cy="45.665" rx="7" ry="11.764" transform="rotate(-29.572 15.377 45.665)" fill="#0C1447"/><path d="M15.306 54.941c4.587 2.73 8.306.615 8.306-4.723 0-5.337-3.72-11.877-8.306-14.606C10.719 32.883 7 34.998 7 40.336c0 5.337 3.719 11.876 8.306 14.605z" stroke="#0C1447" stroke-width="1.8" stroke-miterlimit="10" stroke-linecap="round" stroke-linejoin="round"/><path d="M17.533 43.088c-.175-1.107-.937-2.315-1.85-2.858-1.042-.62-1.887-.14-1.887 1.073v7.469M12.286 47.873l5.285 3.145M12.286 43.48l3.775 2.246" stroke="#ED6F78" stroke-width="1.8" stroke-miterlimit="10" stroke-linecap="round" stroke-linejoin="round"/></svg>