<svg width="63" height="72" fill="none" xmlns="http://www.w3.org/2000/svg"><path d="M62 17.806L30.725 35.98 1.095 19.176 32.373 1 62 17.806z" fill="#EAEDFF" stroke="#0C1447" stroke-width="1.8" stroke-miterlimit="10" stroke-linejoin="round"/><path d="M62 17.806l-.096 34.644L30.63 70.626l.096-34.644L62 17.806z" fill="#ED6F78" stroke="#0C1447" stroke-width="1.8" stroke-miterlimit="10" stroke-linejoin="round"/><path d="M30.725 35.981l-.096 34.645L1 53.817l.095-34.641 29.63 16.805z" fill="#FFEFDF" stroke="#0C1447" stroke-width="1.8" stroke-miterlimit="10" stroke-linejoin="round"/><path d="M17.14 44.356l-3.12-1.802v12.314l3.12 1.801V44.356z" stroke="#0C1447" stroke-width="1.5" stroke-miterlimit="10" stroke-linecap="round" stroke-linejoin="round"/><path d="M14 43l3 .65V56l-3-.65V43zM21 40l3 1v19l-3-1V40z" fill="#0C1447"/><path d="M10.12 48.113L7 46.312v4.503l3.12 1.801v-4.503z" stroke="#0C1447" stroke-width="1.5" stroke-miterlimit="10" stroke-linecap="round" stroke-linejoin="round"/><path d="M7.696 47l2.925.699-.66 4.016-2.926-.7L7.696 47z" fill="#0C1447"/><path d="M24.16 41.184l-3.12-1.801V58.92l3.12 1.802V41.184z" stroke="#0C1447" stroke-width="1.5" stroke-miterlimit="10" stroke-linecap="round" stroke-linejoin="round"/></svg>