<svg width="100%" height="100%" fill="none" xmlns="http://www.w3.org/2000/svg"><path
        d="M.417 13.733A16.668 16.668 0 0 1 14.044.36l.165.987A15.668 15.668 0 0 0 1.4 13.917l-.983-.184Z" fill="#10222C"/><path d="M17.098 3.426v10.38M17.098 19.895v10.38M19.89 16.9h10.38M3.52 16.9H13.9" stroke="#10222C" stroke-width="1.015"/><path d="M14.54 33.315A16.669 16.669 0 0 1 .515 20.359l.977-.214a15.668 15.668 0 0 0 13.182 12.179l-.136.99ZM33.236 19.573A16.668 16.668 0 0 1 19.85 33.187l-.183-.983a15.668 15.668 0 0 0 12.581-12.798l.986.167Z" fill="#10222C"/><path d="M50.7 19.894v10.38M53.494 16.898h10.38M37.126 16.898h10.38" stroke="#10222C" stroke-width="1.015"/><path d="M48.14 33.315a16.669 16.669 0 0 1-14.024-12.956l.977-.214a15.67 15.67 0 0 0 13.182 12.179l-.136.99ZM66.838 19.573a16.668 16.668 0 0 1-13.385 13.614l-.183-.983a15.667 15.667 0 0 0 12.581-12.798l.987.167Z" fill="#10222C"/><path d="M84.3 19.894v10.38M87.094 16.898h10.38M70.726 16.898h10.38" stroke="#10222C" stroke-width="1.015"/><path d="M81.74 33.315a16.669 16.669 0 0 1-14.023-12.956l.977-.214a15.67 15.67 0 0 0 13.181 12.179l-.135.99ZM100.438 19.573a16.67 16.67 0 0 1-13.385 13.614l-.183-.983a15.667 15.667 0 0 0 12.581-12.798l.987.167Z" fill="#10222C"/><path d="M117.898 19.894v10.38M120.693 16.898h10.38M104.324 16.898h10.381" stroke="#10222C" stroke-width="1.015"/><path d="M115.339 33.315a16.668 16.668 0 0 1-14.023-12.956l.977-.214a15.665 15.665 0 0 0 13.182 12.179l-.136.99ZM134.037 19.573a16.668 16.668 0 0 1-13.385 13.614l-.183-.983a15.67 15.67 0 0 0 12.582-12.798l.986.167Z" fill="#10222C"/><path d="M151.498 3.425v10.38M151.498 19.894v10.38M154.292 16.9h10.38M137.923 16.9h10.38" stroke="#10222C" stroke-width="1.015"/><path d="M154.134.392a16.672 16.672 0 0 1 13.48 13.52l-.985.174a15.663 15.663 0 0 0-12.671-12.71l.176-.984ZM148.937 33.315a16.668 16.668 0 0 1-14.023-12.956l.977-.214a15.671 15.671 0 0 0 13.182 12.179l-.136.99ZM167.635 19.573a16.663 16.663 0 0 1-13.384 13.615l-.183-.984a15.667 15.667 0 0 0 12.581-12.798l.986.167Z" fill="#10222C"/></svg>
