<svg width="100%" height="100%" fill="none" xmlns="http://www.w3.org/2000/svg"><path
        d="M2 25.89 25.89 2M36.324 59.451l23.89-23.89M36.324 2l23.89 23.89M2 35.562l23.89 23.89M70.893 25.89 94.783 2M105.218 59.451l23.89-23.89M105.218 2l23.89 23.89M70.893 35.562l23.89 23.89M139.786 25.89 163.675 2M174.11 59.451 198 35.561M174.11 2 198 25.89M139.786 35.562l23.889 23.89M208.679 25.89 232.569 2M243.003 59.451l23.89-23.89M243.003 2l23.89 23.89M208.679 35.562l23.89 23.89" stroke="#fff" stroke-opacity=".2" stroke-width="3"/><path d="m2 94.02 23.89-23.89" stroke="#fff" stroke-width="3"/><path d="m36.324 127.581 23.89-23.89" stroke="#fff" stroke-opacity=".2" stroke-width="3"/><path d="m36.324 70.13 23.89 23.89" stroke="#fff" stroke-width="3"/><path d="m2 103.691 23.89 23.89" stroke="#fff" stroke-opacity=".2" stroke-width="3"/><path d="m70.893 94.02 23.89-23.89" stroke="#fff" stroke-width="3"/><path d="m105.218 127.581 23.89-23.89" stroke="#fff" stroke-opacity=".2" stroke-width="3"/><path d="m105.218 70.13 23.89 23.89" stroke="#fff" stroke-width="3"/><path d="m70.893 103.691 23.89 23.89" stroke="#fff" stroke-opacity=".2" stroke-width="3"/><path d="m139.786 94.02 23.889-23.89" stroke="#fff" stroke-width="3"/><path d="m174.11 127.581 23.89-23.89" stroke="#fff" stroke-opacity=".2" stroke-width="3"/><path d="M174.11 70.13 198 94.02" stroke="#fff" stroke-width="3"/><path d="m139.786 103.691 23.889 23.89" stroke="#fff" stroke-opacity=".2" stroke-width="3"/><path d="m208.679 94.02 23.89-23.89" stroke="#fff" stroke-width="3"/><path d="m243.003 127.581 23.89-23.89" stroke="#fff" stroke-opacity=".2" stroke-width="3"/><path d="m243.003 70.13 23.89 23.89" stroke="#fff" stroke-width="3"/><path d="m208.679 103.691 23.89 23.89M2 162.15l23.89-23.889M36.324 195.712l23.89-23.89M36.324 138.261l23.89 23.89M2 171.822l23.89 23.89M70.893 162.15l23.89-23.889M105.218 195.712l23.89-23.89M105.218 138.261l23.89 23.89M70.893 171.822l23.89 23.89M139.786 162.15l23.889-23.889M174.11 195.712l23.89-23.89M174.11 138.261l23.89 23.89M139.786 171.822l23.889 23.89M208.679 162.15l23.89-23.889M243.003 195.712l23.89-23.89M243.003 138.261l23.89 23.89M208.679 171.822l23.89 23.89M2 230.28l23.89-23.89M36.324 206.391l23.89 23.889M70.893 230.28l23.89-23.89M105.218 206.391l23.89 23.889M139.786 230.28l23.889-23.89M174.11 206.391 198 230.28M208.679 230.28l23.89-23.89M243.003 206.391l23.89 23.889" stroke="#fff" stroke-opacity=".2" stroke-width="3"/></svg>
