<svg width="60" height="60" viewBox="0 0 60 60" fill="none" xmlns="http://www.w3.org/2000/svg">
<g clip-path="url(#clip0_5921_9429)">
<path d="M30 0C24.0351 0.00791264 18.3167 2.38098 14.0988 6.59884C9.88098 10.8167 7.50791 16.5351 7.5 22.5C7.5 38.6531 28.4625 58.8844 29.3531 59.7375C29.5264 59.9059 29.7584 60.0001 30 60.0001C30.2416 60.0001 30.4736 59.9059 30.6469 59.7375C31.5375 58.8844 52.5 38.6531 52.5 22.5C52.4921 16.5351 50.119 10.8167 45.9012 6.59884C41.6833 2.38098 35.9649 0.00791264 30 0ZM30 32.8125C27.9604 32.8125 25.9666 32.2077 24.2707 31.0745C22.5748 29.9414 21.253 28.3308 20.4725 26.4464C19.692 24.5621 19.4877 22.4886 19.8857 20.4881C20.2836 18.4877 21.2657 16.6502 22.708 15.208C24.1502 13.7657 25.9877 12.7836 27.9881 12.3857C29.9886 11.9877 32.0621 12.192 33.9464 12.9725C35.8308 13.753 37.4414 15.0748 38.5745 16.7707C39.7077 18.4666 40.3125 20.4604 40.3125 22.5C40.3109 25.2345 39.2238 27.8566 37.2902 29.7902C35.3566 31.7238 32.7345 32.8109 30 32.8125Z" fill="#4893F4"/>
</g>
<defs>
<clipPath id="clip0_5921_9429">
<rect width="60" height="60" fill="white"/>
</clipPath>
</defs>
</svg>
