<svg width="22" height="28" viewBox="0 0 22 28" fill="none" xmlns="http://www.w3.org/2000/svg">
<path d="M11 0C8.21636 0.00369256 5.54779 1.11113 3.57946 3.07946C1.61112 5.04779 0.503693 7.71636 0.5 10.5C0.5 18.0381 10.2825 27.4794 10.6981 27.8775C10.779 27.9561 10.8873 28 11 28C11.1127 28 11.221 27.9561 11.3019 27.8775C11.7175 27.4794 21.5 18.0381 21.5 10.5C21.4963 7.71636 20.3889 5.04779 18.4205 3.07946C16.4522 1.11113 13.7836 0.00369256 11 0ZM11 15.3125C10.0482 15.3125 9.11773 15.0303 8.32632 14.5014C7.53491 13.9726 6.91808 13.221 6.55383 12.3417C6.18958 11.4623 6.09428 10.4947 6.27997 9.56113C6.46566 8.62759 6.92401 7.77009 7.59705 7.09705C8.27009 6.42401 9.12759 5.96566 10.0611 5.77997C10.9947 5.59428 11.9623 5.68958 12.8417 6.05383C13.721 6.41808 14.4726 7.03491 15.0014 7.82632C15.5303 8.61773 15.8125 9.54818 15.8125 10.5C15.8117 11.7761 15.3045 12.9998 14.4021 13.9021C13.4998 14.8045 12.2761 15.3117 11 15.3125Z" fill="#4893F4"/>
</svg>
