<svg width="286" height="190" fill="none" xmlns="http://www.w3.org/2000/svg"><path d="M208.306 180.243l-132.272-75.73c-7.159-4.101-13.296-9.814-17.7-16.79-6.008-9.527-9.713-22.727 3.191-34.586 0 0 12.952-15.249 40.987 4.733 7.448 5.307 15.194 10.179 23.114 14.75l144.533 83.362s19.075 6.356 13.71 15.287c-2.516 4.189-9.919 9.946-20.435 13.822-18.141 6.685-38.349 4.758-55.128-4.848z" fill="#0C1447"/><path d="M106.366 93.029c.025-8.65-6.06-19.194-13.602-23.545-3.715-2.143-7.082-2.38-9.55-1.035-.326.177-.64.382-.931.614l-9.797 6.463c-.466.233-.9.518-1.3.858l-.01.007v.003c-1.884 1.601-3.017 4.359-3.03 8.068-.025 8.657 6.06 19.204 13.602 23.552 3.426 1.976 6.561 2.33 8.962 1.316l11.997-7.751c2.262-1.494 3.649-4.438 3.659-8.55zM220.762 158.736c.024-8.65-6.061-19.194-13.603-23.545-3.715-2.143-7.082-2.379-9.55-1.035a6.351 6.351 0 00-.931.615l-9.797 6.463a6.44 6.44 0 00-1.3.857l-.01.007v.004c-1.884 1.601-3.016 4.358-3.03 8.067-.025 8.658 6.06 19.204 13.602 23.552 3.426 1.976 6.561 2.33 8.962 1.316l11.997-7.751c2.259-1.497 3.649-4.442 3.66-8.55z" fill="#fff" stroke="#0C1447" stroke-width="2" stroke-miterlimit="10" stroke-linecap="round" stroke-linejoin="round"/><path d="M208.397 148.719L76.001 73.128c-7.166-4.095-13.31-9.797-17.718-16.762-6.015-9.51-9.723-22.686 3.194-34.525 0 0 12.965-15.223 41.029 4.725 7.455 5.297 15.209 10.16 23.137 14.723l144.681 83.219s19.095 6.344 13.724 15.26c-2.435 4.043-9.442 9.551-19.416 13.406-18.409 7.117-39.098 5.329-56.235-4.455z" fill="#fff" stroke="#0C1447" stroke-width="2" stroke-miterlimit="10" stroke-linejoin="round"/><path d="M208.408 144.797L76.001 69.202c-7.166-4.094-13.31-9.797-17.718-16.76-6.015-9.51-9.723-22.686 3.194-34.524 0 0 12.965-15.222 41.029 4.725 7.455 5.296 15.209 10.16 23.137 14.722l144.681 83.215s19.095 6.343 13.724 15.259c-2.519 4.181-9.929 9.929-20.456 13.797-18.159 6.673-38.388 4.749-55.184-4.839z" fill="#FFEFDF" stroke="#0C1447" stroke-width="2" stroke-miterlimit="10" stroke-linejoin="round"/><path d="M91.855 51.93c.001-.5-.696-.905-1.558-.908-.862-.002-1.562.4-1.563.899-.001.498.696.904 1.558.907.862.002 1.561-.4 1.563-.899zM101.807 46.285c.001-.498-.696-.905-1.558-.907-.862-.002-1.561.4-1.563.898-.001.5.696.905 1.558.908.862.002 1.562-.4 1.563-.899zM104.928 59.975c.001-.499-.697-.905-1.558-.908-.862-.002-1.562.4-1.563.899-.002.498.696.905 1.558.907.861.003 1.561-.4 1.563-.898zM114.879 54.275c.002-.499-.696-.905-1.558-.908-.861-.002-1.561.4-1.563.899-.001.498.696.905 1.558.907.862.003 1.562-.4 1.563-.898zM223.548 124.851c.002-.499-.696-.905-1.558-.907-.861-.003-1.561.4-1.563.898-.001.499.696.905 1.558.908.862.002 1.562-.4 1.563-.899zM233.5 119.211c.002-.498-.696-.905-1.558-.907-.861-.002-1.561.4-1.562.898-.002.499.696.905 1.557.908.862.002 1.562-.4 1.563-.899zM236.621 132.896c.001-.498-.696-.905-1.558-.907-.862-.002-1.561.4-1.563.898-.001.499.696.905 1.558.908.862.002 1.562-.4 1.563-.899zM246.574 127.198c.001-.499-.697-.905-1.558-.908-.862-.002-1.562.4-1.563.899-.002.498.696.905 1.558.907.861.003 1.561-.4 1.563-.898z" fill="#0C1447"/><path d="M1 1l41.773 23.917M20.21 21.202l19.153 10.963" stroke="#0C1447" stroke-width="2" stroke-miterlimit="10" stroke-linecap="round" stroke-linejoin="round"/><path d="M71.55 83.037c.32.274.678.576 1.071.924.716.618 1.536 1.344 2.46 2.177l-1.035 1.542c-.285.42-.177 1.167.236 1.68.129.157.25.261.38.334.35.202.722.16.93-.156l1.224-1.816c.778.719 1.57 1.465 2.405 2.26l-2.69 3.522c-.306.403-.22 1.16.194 1.691.136.17.268.281.4.358.334.19.688.163.904-.118l2.905-3.81.09.087c.758.733 1.536 1.504 2.34 2.306l-3.08 4.466c-.295.413-.188 1.174.226 1.688.125.152.254.26.382.336.348.202.71.16.925-.145l3.218-4.66c.76.773 1.501 1.537 2.259 2.33l-1.912 2.382c-.316.389-.243 1.146.167 1.687.15.184.282.296.414.372.326.187.67.163.89-.108l2.092-2.597.114.125a211.9 211.9 0 013.197 3.469l.689.764c-.073.122-.153.229-.233.347-2.106 2.949-5.919 3.067-9.853.796-1.967-1.136-3.965-2.865-5.79-5.14-4.358-5.414-6.436-12.287-5.518-17.093zM83.047 78.617c1.964 1.132 3.958 2.861 5.783 5.132 4.824 5.998 6.853 13.77 5.122 18.559a244.25 244.25 0 00-3.62-3.952l1.553-1.893c.264-.313.142-1.004-.268-1.542a1.724 1.724 0 00-.476-.438c-.288-.166-.567-.166-.737.039l-1.724 2.09a220.63 220.63 0 00-2.425-2.517l3.221-4.692c.237-.35.08-1.052-.34-1.566a1.606 1.606 0 00-.435-.382c-.305-.177-.6-.164-.764.073l-3.347 4.89a176.702 176.702 0 00-2.311-2.29l2.488-3.215c.254-.323.122-1.018-.295-1.545a1.654 1.654 0 00-.462-.42c-.296-.17-.58-.167-.744.048l-2.693 3.48a245.521 245.521 0 00-2.54-2.4l2.574-3.886c.233-.354.077-1.056-.35-1.573a1.625 1.625 0 00-.425-.368c-.309-.18-.608-.167-.768.07l-2.759 4.17a185.742 185.742 0 00-3.962-3.494c.233-.57.511-1.104.852-1.58 2.106-2.948 5.922-3.066 9.852-.799zM185.095 148.675c.32.275.678.577 1.071.924.716.618 1.536 1.344 2.46 2.177l-1.036 1.542c-.285.42-.177 1.167.237 1.681.128.156.25.261.379.333.351.202.722.16.931-.156l1.223-1.816c.779.719 1.571 1.465 2.405 2.261l-2.69 3.521c-.306.403-.219 1.16.195 1.691a1.4 1.4 0 00.4.358c.333.191.688.163.903-.118l2.905-3.81.091.087a213.47 213.47 0 012.339 2.306l-3.079 4.466c-.296.413-.188 1.174.225 1.688.126.153.254.26.383.337.347.201.709.159.924-.146l3.218-4.661c.761.775 1.502 1.539 2.259 2.33l-1.911 2.383c-.316.389-.243 1.146.167 1.688.149.184.281.295.413.371.327.188.671.163.89-.108l2.092-2.597.115.125a218.496 218.496 0 013.197 3.469l.688.764c-.073.122-.153.229-.233.347-2.106 2.949-5.918 3.067-9.852.796-1.967-1.136-3.966-2.865-5.79-5.14-4.358-5.414-6.436-12.287-5.519-17.093zM196.594 144.258c1.964 1.132 3.959 2.862 5.783 5.133 4.824 5.997 6.854 13.769 5.123 18.558a251.97 251.97 0 00-3.621-3.952l1.553-1.892c.264-.313.143-1.004-.268-1.542a1.713 1.713 0 00-.476-.438c-.288-.166-.566-.166-.736.039l-1.724 2.09a227.738 227.738 0 00-2.426-2.518l3.222-4.691c.236-.351.08-1.053-.341-1.567a1.617 1.617 0 00-.434-.382c-.306-.177-.601-.163-.765.073l-3.347 4.89a174.368 174.368 0 00-2.311-2.289l2.489-3.215c.253-.323.121-1.018-.296-1.546a1.617 1.617 0 00-.465-.42c-.296-.17-.581-.167-.744.049l-2.693 3.479a246.955 246.955 0 00-2.541-2.399l2.575-3.886c.233-.354.077-1.056-.351-1.573a1.588 1.588 0 00-.424-.368c-.309-.181-.608-.167-.768.069l-2.759 4.171a185.837 185.837 0 00-3.962-3.494 7.741 7.741 0 01.852-1.58c2.106-2.952 5.921-3.07 9.855-.799z" fill="#0C1447"/></svg>