<svg width="978" height="510" fill="none" xmlns="http://www.w3.org/2000/svg"><path d="M703.577 200.912c2.025 7.517 3.755 15.121 6.163 22.51 1.77 5.438 1.703 10.856 1.683 16.408-.067 18.078-.041 36.163.14 54.247.027 2.608.993 5.223 1.637 7.805.885 3.567 2.152 7.054 2.776 10.662 1.81 10.547-2.776 17.078-13.405 18.895-2.655.456-5.619.275-8.24-.395-7.309-1.878-13.304-6.23-18.728-11.279-1.382-1.28-2.703-3.399-2.777-5.183-.415-9.877-1.046-19.808-.382-29.644.503-7.504 3.091-14.839 4.225-22.329.516-3.413.382-7.175-.483-10.514-4.727-18.306-8.436-36.759-9.415-55.689-.65-12.552.115-24.997 3.145-37.241 4.185-16.925 13.451-30.148 28.297-39.515 39.025-24.622 80.277-29.718 123.513-13.277 17.213 6.545 31.462 17.696 41.781 33.319.845 1.274 1.529 2.656 2.582 4.5-13.089.288-24.26 4.358-34.017 11.996.188.429.369.858.557 1.287 1.086-.57 2.226-1.053 3.245-1.717 9.287-6.021 19.265-10.165 30.517-9.32 12.451.939 23.636 5.659 32.983 13.94 17.736 15.704 28.746 35.043 30.684 59.041.583 7.235 2.924 13.793 6.645 20.123 2.119 3.608 3.185 8.14 3.621 12.372 1.126 10.949 1.649 21.966 2.421 33.117-5.284.711-9.556-.395-13.666-2.145-9.528-4.05-16.696-11.031-22.966-19.023-2.132-2.716-4.11-5.573-6.001-8.469-2.984-4.567-5.988-5.606-10.313-3.346-4.218 2.199-5.874 6.665-4.05 11.097.536 1.308 1.22 2.555 1.857 3.876-15.295 2.427-39.95-2.441-50.116-17.568-3.956-5.894-6.068-12.332-6.698-19.339-.087-.932-.289-1.857-.597-3.734-1.321 1.602-2.059 2.474-2.769 3.366-4.661 5.833-9.247 11.721-14.001 17.474-1.187 1.435-2.796 2.568-4.359 3.634-5.304 3.628-7.376 3.46-12.432-.429a286.625 286.625 0 00-11.606-8.496c-1.348-.938-2.964-1.817-4.553-2.031-6.122-.819-8.738-4.942-9.911-10.28-.932-4.244-1.113-8.656-2.173-12.861-.744-2.95-1.931-6.048-3.781-8.402-2.475-3.138-3.279-6.464-1.516-9.615 3.286-5.894 7.235-11.426 10.943-17.079.577-.885 2.039-2.454 2.039-2.454l-.496-.778c-.671.262-1.63.322-1.972.812-4.077 5.82-8.449 11.473-11.929 17.642-2.501 4.432-1.897 9.059 1.858 13.269 3.681 4.131 3.373 9.77 4.251 14.913.375 2.193.731 4.399 1.274 6.551 1.167 4.62 3.963 7.893 8.368 9.804 6.907 2.99 11.768 7.852 14.068 15.187 1.113 3.554 4.265 5.324 8.717 4.225 4.935-1.221 9.683-3.232 14.464-5.036 1.756-.664 3.366-1.73 5.257-2.729.764 2.045 1.227 4.157 2.286 5.914 2.052 3.406 3.93 7.168 6.793 9.776 4.915 4.473 7.027 10.575 6.611 16.1-1.656 22.027-4.372 43.974-6.886 65.927-.584 5.076-2.474 10.032-2.743 15.094-.241 4.566.45 9.327 1.596 13.78 1.395 5.431.067 9.709-4.975 12.371-6.806 3.594-13.981 4.178-21.042 1.395-4.821-1.898-9.3-4.728-13.793-7.376-3.5-2.065-4.412-5.452-3.721-9.307.416-2.307.966-4.587 1.442-6.88.952-4.58.804-8.925-1.268-13.357-2.823-6.042-1.542-12.485-.731-18.802 1.248-9.703 4.828-19.144 3.494-29.128-1.2-8.958-2.736-17.87-3.903-26.835-.818-6.296-1.347-12.64-1.87-18.976-.403-4.922-2.106-7.242-6.927-8.576-18.266-5.063-35.304-12.559-49.787-25.112-8.469-7.342-15.161-16.039-19.661-26.352-.288-.657-.65-1.287-.985-1.931a2.093 2.093 0 01-.289.12z" fill="#fff"/><path d="M597.217 62.802c15.764-9.193 31.18-18.185 46.595-27.184 17.736-10.36 35.465-20.726 53.194-31.093.577-.335 1.174-.65 1.737-1.012 7.999-5.13 12.586-4.741 19.593 1.824 6.075 5.686 8.569 12.847 8.556 21.068-.04 24.14-.013 48.272-.013 72.411v3.816c6.517-1.643 12.78-3.588 19.177-4.775 28.022-5.216 55.42-3.574 81.47 8.878 16.422 7.852 30.201 18.976 39.85 35.411.584-1.73 1.046-3.091 1.509-4.459.503-1.475.838-3.044 1.549-4.412 2.34-4.533 4.338-9.354 7.356-13.411 4.278-5.739 11.238-5.625 15.697.027 2.602 3.299 4.607 7.101 6.632 10.816 2.876 5.29 6.477 9.656 11.714 12.982 3.661 2.326 6.947 5.672 9.522 9.206 4.372 5.995 3.808 13.391-.684 19.311-1.207 1.59-2.555 3.078-3.896 4.681 6.417 9.595 11.6 19.673 13.625 31.086.939 5.27 1.174 10.682 2.381 15.878.992 4.285 2.95 8.342 4.465 12.506 1.63 4.459 3.199 8.945 4.902 13.377.617 1.603 1.234 3.38 2.38 4.58 6.733 7.081 14.404 12.74 24.301 14.517 2.548.456 5.176.436 7.765 1.287-10.622 4.117-21.377 3.869-32.347.711 0 6.283-.128 12.291.027 18.292.328 12.834.617 25.675 1.267 38.496.583 11.6 1.763 23.147 5.203 34.345 2.119 6.886 5.666 12.365 12.331 15.905 4.077 2.166 7.799 5.237 11.151 8.456 4.138 3.976 3.574 7.825-.945 11.271-10.836 8.268-23.717 6.203-33.205-5.25-4.788-5.787-7.597-12.519-9.729-20.069a645936.24 645936.24 0 00-85.447 49.432c.208.429.416.858.617 1.28 1.133-.415 2.347-.683 3.379-1.267 10.199-5.773 20.344-11.64 30.577-17.347 1.039-.576 2.876-.777 3.855-.248 13.056 7.054 26.031 14.269 39.012 21.471.644.355 1.174.925 2.159 1.716-1.227.852-2.145 1.576-3.151 2.16-36.37 21.383-72.76 42.746-109.11 64.17-1.965 1.153-3.453 1.173-5.472.054-66.684-36.92-133.403-73.78-200.128-110.619-2.857-1.576-5.921-2.789-8.777-4.365-9.442-5.203-14.249-13.31-14.269-24.039-.101-44.584-.101-89.175-.148-133.759-.007-9.495-.06-18.996-.107-28.491-.007-.972-.101-1.944-.161-2.957-7.805.503-14.061 3.467-18.145 10.038-8.053 12.948-17.28 24.944-27.874 35.934-5.016 5.197-6.84 11.949-7.343 19.003-.583 8.248-4.15 14.289-11.721 18.132-5.86 2.97-11.405 6.578-17.058 9.95-3.158 1.885-5.847 1.918-9.227-.241-8.173-5.23-16.602-10.092-25.158-14.671-3.38-1.811-7.329-3.219-11.098-3.44-2.782-.168-6.008 1.414-8.468 3.064-3.025 2.018-5.445 4.928-8.154 7.43-4.392 4.056-6.685 4.11-11.761 1.066-8.999-5.398-18.185-10.481-27.137-15.952-2.38-1.455-4.466-3.621-6.203-5.841-2.541-3.245-4.465-6.967-6.973-10.239-3.487-4.533-3.232-9.106-.644-13.759 1.73-3.118 3.695-6.116 5.713-9.059 4.298-6.27 5.773-12.942 4.855-20.619-.791-6.598-.356-13.377-.094-20.063.154-3.896-.188-7.034-4.439-8.576-1.75-.637-3.286-1.871-4.922-2.836-3.715-2.2-5.324-4.915-4.03-8.871 3.581-10.903 7.323-21.773 11.473-32.475 1.663-4.284 5.21-7.308 10.105-7.905 8.415-1.033 13.807-5.988 18.018-12.962 6.899-11.412 15.147-21.826 24.494-31.354 5.412-5.519 8.107-12.27 8.576-19.855.544-8.79 4.292-15.167 12.385-19.157 5.492-2.709 10.689-6.041 15.892-9.293 3.493-2.193 6.598-2.408 10.239-.108 6.41 4.05 12.968 7.912 19.674 11.453 4.794 2.528 9.877 4.533 14.926 6.531 3.379 1.341 6.437-.14 9.005-2.233 3.111-2.535 5.961-5.384 8.918-8.107 4.412-4.07 6.692-4.318 11.896-1.294 8.589 4.996 17.112 10.105 25.795 14.92 3.239 1.797 5.713 4.07 7.564 7.235 1.435 2.494 3.172 4.828 4.962 7.49zm106.36 138.11c.101-.033.195-.074.296-.107.328.644.697 1.267.985 1.931 4.499 10.32 11.191 19.01 19.66 26.352 14.477 12.553 31.516 20.049 49.788 25.112 4.821 1.334 6.524 3.661 6.926 8.576.523 6.337 1.053 12.673 1.871 18.976 1.167 8.959 2.702 17.877 3.903 26.835 1.341 9.984-2.24 19.426-3.494 29.128-.811 6.317-2.092 12.761.731 18.802 2.072 4.439 2.22 8.777 1.267 13.357-.476 2.293-1.032 4.573-1.441 6.88-.691 3.855.221 7.242 3.721 9.307 4.493 2.649 8.972 5.478 13.793 7.376 7.061 2.783 14.236 2.199 21.042-1.395 5.035-2.662 6.363-6.94 4.975-12.371-1.14-4.453-1.83-9.213-1.596-13.78.262-5.062 2.159-10.018 2.743-15.094 2.514-21.953 5.23-43.906 6.886-65.927.416-5.525-1.696-11.627-6.611-16.099-2.864-2.609-4.741-6.371-6.793-9.777-1.059-1.757-1.522-3.869-2.286-5.914-1.898.999-3.501 2.065-5.257 2.729-4.775 1.804-9.529 3.815-14.464 5.036-4.452 1.099-7.604-.664-8.717-4.225-2.3-7.335-7.161-12.197-14.068-15.187-4.405-1.911-7.201-5.177-8.368-9.803-.543-2.153-.899-4.359-1.274-6.552-.879-5.136-.563-10.775-4.251-14.912-3.755-4.211-4.359-8.838-1.858-13.27 3.48-6.163 7.859-11.822 11.929-17.642.342-.49 1.301-.55 1.971-.812.168.262.329.517.497.778-.684.818-1.455 1.569-2.039 2.454-3.708 5.66-7.657 11.185-10.943 17.079-1.757 3.152-.959 6.477 1.515 9.616 1.851 2.353 3.038 5.451 3.782 8.401 1.06 4.205 1.241 8.617 2.173 12.861 1.173 5.338 3.788 9.462 9.91 10.28 1.59.208 3.199 1.093 4.553 2.031a287.621 287.621 0 0111.607 8.496c5.056 3.889 7.128 4.05 12.432.429 1.562-1.066 3.172-2.199 4.359-3.634 4.754-5.753 9.347-11.641 14-17.474.711-.892 1.449-1.764 2.77-3.366.302 1.877.509 2.802.596 3.735.631 7 2.743 13.444 6.699 19.338 10.166 15.127 34.815 19.995 50.116 17.568-.637-1.321-1.321-2.568-1.857-3.876-1.817-4.425-.168-8.891 4.05-11.097 4.325-2.253 7.329-1.221 10.313 3.346 1.891 2.896 3.862 5.753 6.001 8.469 6.276 7.992 13.438 14.973 22.966 19.023 4.11 1.75 8.375 2.856 13.665 2.145-.771-11.151-1.287-22.167-2.42-33.117-.436-4.231-1.495-8.764-3.621-12.372-3.722-6.33-6.062-12.894-6.645-20.123-1.938-23.998-12.948-43.336-30.684-59.04-9.347-8.282-20.532-13.002-32.984-13.941-11.245-.845-21.229 3.292-30.516 9.321-1.026.663-2.159 1.146-3.245 1.716-.188-.429-.369-.858-.557-1.287 9.757-7.631 20.928-11.708 34.017-11.996-1.053-1.844-1.737-3.225-2.582-4.499-10.32-15.624-24.568-26.775-41.781-33.319-43.236-16.442-84.488-11.346-123.513 13.276-14.846 9.368-24.113 22.584-28.297 39.515-3.024 12.244-3.788 24.689-3.145 37.242.979 18.929 4.687 37.382 9.415 55.688.865 3.339.999 7.101.482 10.514-1.139 7.49-3.721 14.825-4.224 22.329-.664 9.83-.027 19.767.382 29.644.074 1.784 1.395 3.903 2.776 5.183 5.432 5.049 11.42 9.408 18.728 11.279 2.622.67 5.579.851 8.241.395 10.622-1.823 15.215-8.348 13.404-18.895-.616-3.608-1.891-7.101-2.776-10.662-.643-2.581-1.609-5.197-1.636-7.805-.174-18.078-.201-36.162-.14-54.246.02-5.546.087-10.964-1.684-16.408-2.414-7.403-4.144-15.007-6.169-22.524zm-108.13-137.05c-2.327-3.488-4.493-6.606-6.511-9.81-1.294-2.053-3.024-2.214-4.902-1.288-1.274.63-2.434 1.582-3.493 2.548-2.481 2.253-4.768 4.72-7.323 6.886-3.399 2.884-7.282 5.425-11.868 3.762-8.523-3.091-17.112-3.748-26.03-2.501-4.278.596-7.262-1.724-8.443-5.955-.596-2.139-.905-4.365-1.381-6.544-1.14-5.257-2.742-6.022-7.329-3.366-6.665 3.862-13.518 7.456-19.828 11.828-2.836 1.965-4.955 5.318-6.651 8.442-1.16 2.132-1.214 4.955-1.449 7.497-.764 8.335-3.996 15.389-9.91 21.397-9.2 9.347-17.126 19.727-23.932 30.938-4.083 6.726-9.454 11.533-17.534 12.647-5.901.811-9.26 4.512-11.151 9.83-3.219 9.032-6.451 18.064-9.562 27.13-1.918 5.585-.805 7.724 4.861 9.307 3.695 1.026 6.706 2.709 7.51 6.712.436 2.159.416 4.419.443 6.638.087 6.685-.409 13.417.261 20.042.792 7.873-.798 14.813-5.29 21.223-1.73 2.467-3.333 5.022-4.915 7.59-2.743 4.426-3.527 8.737.107 13.277 2.568 3.212 4.607 6.853 6.893 10.293 3.031 4.553 5.197 4.808 9.267 1.053 2.87-2.649 5.586-5.492 8.603-7.96 3.386-2.769 7.295-4.707 11.761-2.964 8.047 3.145 16.281 3.501 24.709 2.361 4.647-.624 8.034 1.757 9.167 6.35.536 2.166.898 4.372 1.327 6.558.926 4.727 2.75 5.565 6.987 3.097 5.794-3.366 11.406-7.06 17.354-10.105 6.893-3.533 10.152-9.018 10.661-16.535.617-9.159 4.54-16.589 10.669-23.536 8.093-9.179 15.563-18.983 22.53-29.061 4.942-7.155 10.319-12.847 19.351-13.887 2.314-.268 3.004-1.455 2.991-3.815-.087-28.491-.047-56.982-.067-85.48-.007-6.699-.087-13.404-.208-20.103-.094-5.217 2.092-8.992 6.766-11.365 1.77-.892 3.467-1.952 5.559-3.132zm19.881 245.57c1.348.805 2.106 1.281 2.883 1.71 65.834 36.376 131.681 72.74 197.474 109.183 2.206 1.221 3.681.993 5.719-.207 34.513-20.358 69.086-40.628 103.605-60.966 1.113-.657 2.649-1.877 2.629-2.809-.021-1.006-1.469-2.287-2.589-2.917-15.784-8.811-31.622-17.528-47.454-26.258-.932-.517-1.884-.993-2.829-1.482-.302.161-.604.315-.899.476 1.194 6.209 2.092 12.492 3.655 18.607 1.978 7.752-.128 13.076-7.43 16.475-6.37 2.964-13.096 3.293-19.989 2.481-10.755-1.274-15.952-6.048-17.89-16.696-.053-.308-.201-.597-.368-1.066-.979 4.11-1.958 7.885-2.77 11.694-1.394 6.585-2.534 13.23-.288 19.841 3.031 8.912.597 14.397-8.167 17.649-11.212 4.164-21.276 1.026-30.764-5.143-8.107-5.271-9.234-7.986-6.947-17.347 1.381-5.666 2.145-11.165-.999-16.536-.483-.824-.745-1.937-.704-2.896.288-6.659.462-13.331 1.099-19.962.731-7.638 2.964-15.275 2.629-22.825-.443-10.085-2.702-20.096-4.278-30.128-.134-.838-.798-2.011-1.496-2.279-5.484-2.092-11.043-4.003-16.864-6.069 0 6.062.047 11.969-.013 17.87-.08 8.885-5.156 14.578-13.893 15.469-7.41.758-14.444-.596-21.049-4.117-7.06-3.761-10.815-9.461-10.46-17.608.121-2.783.094-5.606.523-8.348 1.281-8.261-1.167-15.999-3.125-23.932-.851 1.12-1.327 2.273-1.341 3.434-.1 8.489-.194 16.984-.114 25.473.087 8.704.476 17.293 3.594 25.695 1.542 4.151 1.67 8.992 1.589 13.505-.047 2.568-1.119 5.867-2.93 7.517-6.015 5.478-13.297 9.025-21.444 5.88-6.034-2.327-11.586-6.048-17.105-9.528-4.499-2.837-6.256-7.289-6.035-12.66.201-4.794.657-9.703-.127-14.376-.899-5.365-.322-10.42.697-15.577.255-1.287.449-2.588.771-4.425-18.969 11.151-37.503 22.034-56.506 33.198zM613.565 135.3c1.515-.811 2.581-1.334 3.6-1.938 7.416-4.345 14.819-8.703 22.235-13.055 27.62-16.227 55.246-32.434 82.825-48.728 1.147-.677 2.568-2.16 2.575-3.279.147-14.86.147-29.718-.02-44.577-.047-4.352-1.254-8.51-4.037-12.124-37.241 21.873-74.242 43.612-111.329 65.391 3.339 5.64 4.251 11.373 4.191 17.42-.128 12.399-.04 24.804-.04 37.209v3.681zm111.342-62.682c-.784.37-1.173.51-1.529.718-35.994 21.142-72.002 42.27-107.943 63.5-.959.563-1.783 2.226-1.79 3.386-.114 15.865-.08 31.736-.074 47.608v9.294c1.757-.966 2.736-1.476 3.688-2.032 15.114-8.871 30.181-17.83 45.382-26.54 2.81-1.609 4.05-3.574 4.681-6.638 3.667-17.796 12.103-32.696 27.86-42.425 8.798-5.431 18.199-9.87 27.285-14.832.945-.517 2.326-1.482 2.34-2.26.154-9.777.1-19.566.1-29.779zm-59.684 96.792c-.168.067-.483.161-.758.322-16.254 9.529-32.481 19.097-48.775 28.558-1.77 1.026-2.052 2.294-2.045 4.077.04 17.749.02 35.492.034 53.241 0 .919.147 1.837.241 2.91.697-.268 1.026-.349 1.301-.51 17.119-10.031 34.224-20.096 51.37-30.08 1.589-.925 1.676-1.938 1.455-3.54-1.02-7.396-2.401-14.792-2.709-22.229-.456-10.869-.114-21.785-.114-32.749zM889.98 270.454c-4.479 1.924-8.811 3.647-12.981 5.699-.906.443-1.724 2.045-1.757 3.138-.483 13.471-.778 26.949-1.214 40.427-.08 2.454.966 3.768 3.058 4.908 15.744 8.597 31.428 17.307 47.139 25.977.932.516 1.917.939 3.205 1.569 0-1.562.073-2.675-.014-3.768-.684-8.657-.979-17.374-2.233-25.95-1.2-8.214-3.077-16.368-5.263-24.381-1.616-5.948-4.506-10.722-11.527-12.747-7.852-2.273-13.551-8.314-18.413-14.872zm-221.284-41.071c-.442.101-.798.101-1.059.255-17.401 10.206-34.815 20.398-52.135 30.737-1.005.597-1.743 2.481-1.75 3.776-.127 13.504-.08 27.002-.067 40.507 0 .925.154 1.85.235 2.789.53-.087.778-.06.952-.167a59485.244 59485.244 0 0056.245-32.998c.55-.321 1.334-.798 1.408-1.294.892-6.014 2.856-12.177 2.186-18.031-.979-8.549-3.876-16.884-6.015-25.574zm-56.982.215h-.114V125.007c0-11.064.067-22.127-.027-33.191-.074-9.019-3.882-16.133-11.379-21.21-3.232-2.185-6.652-3.198-10.36-1.173-3.681 2.005-4.828 5.338-4.781 9.287.087 6.927.222 13.847.228 20.773.061 39.897.094 79.788.128 119.685.04 45.147.06 90.294.134 135.441.006 2.213.228 4.493.791 6.625 1.696 6.424 5.438 11.406 11.104 14.947 3.158 1.971 6.404 2.662 9.803.811 3.521-1.911 4.748-5.089 4.728-8.958-.108-21.002-.208-42.003-.242-63.011-.047-25.145-.013-50.29-.013-75.435zm261.463 48.258c-2.79.369-4.419 1.489-5.727 3.782-4.298 7.53-9.193 14.853-17.514 18.279-6.773 2.789-10.467 7.624-12.6 14.175-3.5 10.769-4.244 21.826-3.064 33.004.51 4.801 2.286 9.394 6.866 11.654 9.911 4.888 20.063 4.915 29.859-.322 4.915-2.628 6.256-6.886 4.781-12.277-.469-1.717-1.053-3.413-1.395-5.157-2.769-14.001-2.715-28.156-2.145-42.331.281-6.866.617-13.739.939-20.807zm-258.828 33.581c0 2.481.107 4.452-.027 6.403-.228 3.259 1.14 5.07 4.091 6.692 62.541 34.433 125.008 68.992 187.489 103.525 3.761 2.078 7.536 4.124 11.674 6.39 0-2.273-.249-4.057.046-5.747.745-4.204-1.595-5.927-4.915-7.758-59.818-32.93-119.57-65.981-179.342-99.011-6.202-3.42-12.411-6.846-19.016-10.494zm105.093-301.42c-5.002-7.255-13.417-11.4-19.445-4.942-.51.55-1.321.818-1.992 1.214-32.742 19.117-65.484 38.234-98.227 57.358-1.327.77-2.622 1.589-3.426 2.078 4.117 2.99 8.194 5.948 12.633 9.166 36.484-21.43 73.464-43.149 110.457-64.874zm202.53 286.93c6.423 14.128 8.502 29.503 9.313 45.214.409 7.993 1.268 16.053 2.91 23.871 3.541 16.864 13.505 28.055 30.644 32.199 3.051.738 7.718-1.448 9.508-4.667 1.864-3.346-.731-5.391-2.749-7.06-3.594-2.978-7.416-5.754-11.426-8.134-4.332-2.575-7.443-6.048-9.314-10.608-1.307-3.185-2.501-6.464-3.299-9.803-3.694-15.516-4.258-31.368-4.687-47.219-.201-7.557-.033-15.128-.033-23.168-7.41 3.326-13.921 6.257-20.867 9.375zm-207.847-60.201c.791 4.03 1.71 8.046 2.347 12.103 1.374 8.764 4.218 17.36 2.91 26.453-.463 3.185-.536 6.443-.51 9.669.041 5.639 2.421 10.044 7.276 13.122 6.752 4.278 14.068 6.089 21.993 5.244 7.873-.838 12.13-5.646 12.211-13.652.054-5.465-.101-10.937.067-16.402.067-2.152-.845-3.098-2.595-4.05-5.384-2.917-10.776-5.854-15.932-9.139-10.206-6.511-19.204-14.47-27.767-23.348zm-57.961 110.86c-14.323-7.906-27.995-15.456-42.204-23.302v48.413c13.894-8.261 27.727-16.495 42.204-25.111zm264.782-180.02c2.279-5.122 1.81-9.749-1.207-13.605-2.636-3.366-5.807-6.591-9.388-8.864-5.324-3.38-8.992-7.866-11.855-13.284-1.609-3.05-3.198-6.155-5.177-8.965-4.935-6.993-10.621-6.946-15.496.007-4.486 6.404-6.692 13.746-8.804 21.558 19.345 3.111 38.14 7.262 51.927 23.153zm13.249 119.316c-1.005-.423-1.555-.724-2.139-.892-6.785-1.958-12.908-5.364-17.662-10.427-5.847-6.216-11.05-13.062-16.334-19.787-2.353-2.998-4.385-3.708-7.644-1.784-3.319 1.958-4.305 5.364-2.595 8.938 8.201 17.173 26.6 26.829 46.374 23.952zm8.892-30.469c.174 3.319.214 6.437.563 9.521.114 1.04.798 2.609 1.582 2.884 6.739 2.367 13.693 2.937 20.968 2.098-4.238-2.078-8.382-3.708-12.09-6.041-3.822-2.401-7.215-5.492-11.023-8.462zM485.103 59.912c-1.086-3.467-14.289-10.75-17.602-10.065 5.257 3.795 11.084 6.605 17.602 10.065zm-73.96 192.799c-.617-3.601-13.639-10.346-16.469-8.884 5.76 3.111 11.118 6.001 16.469 8.884zm-5.626-122.5c-.161.335-.329.677-.49 1.012 5.438 2.924 10.877 5.847 16.321 8.771-.576-3.205-13.068-10.058-15.831-9.783z" fill="#0C1447"/><path d="M482.669 306.294c-.805 2.018-1.455 4.144-2.474 6.075-1.087 2.065-2.528 3.943-3.796 5.921-2.548 3.976-3.647 8.16-3.178 13.015.51 5.311.188 10.695.181 16.053-.007 4.633.644 5.572 5.036 6.993 4.311 1.395 5.673 3.407 4.285 7.785-2.32 7.329-4.936 14.578-7.665 21.766-1.341 3.534-4.063 5.968-7.925 6.491-5.854.804-9.307 4.432-12.566 9.025-5.351 7.537-11.131 14.786-17.045 21.893-3.393 4.077-6.035 8.328-6.337 13.693-.402 7.221-3.493 12.431-10.259 15.536-3.735 1.717-7.168 4.09-10.702 6.236-2.447 1.482-4.486 1.274-7.094-.215-7.517-4.298-15.282-8.173-22.98-12.156-3.5-1.811-6.477-.55-9.159 1.857-2.159 1.938-4.224 3.99-6.451 5.847-2.199 1.831-4.358 1.945-6.98.221-4.841-3.185-9.857-6.155-15.007-8.804-5.324-2.736-9.025-6.766-12.572-11.553-4.607-6.216-4.385-11.52.208-17.213 4.626-5.74 6.021-12.157 4.841-19.479-.61-3.789-.06-7.792.194-11.681.188-2.823-.207-5.062-3.225-6.189-1.234-.463-2.293-1.381-3.487-1.985-2.89-1.448-3.775-3.942-2.856-6.738 2.528-7.732 5.183-15.436 8.093-23.027 1.254-3.272 3.97-5.471 7.564-5.968 5.961-.824 9.515-4.512 12.821-9.233 5.109-7.295 10.614-14.343 16.394-21.122 3.923-4.593 6.686-9.421 7.061-15.496.382-6.169 3.078-10.735 8.791-13.592 4.184-2.092 8.12-4.68 12.143-7.081 2.213-1.321 4.265-1.388 6.565.027a343.259 343.259 0 0015.053 8.744c2.615 1.435 5.479 2.414 8.174 3.715 3.702 1.79 6.692.489 9.441-1.998 2.066-1.871 4.057-3.836 6.156-5.673 2.105-1.844 4.392-1.911 6.799-.503 7.135 4.164 14.296 8.281 21.417 12.459a6.237 6.237 0 011.918 1.783c2.327 3.413 4.633 6.846 6.819 10.347.751 1.173 1.127 2.588 1.804 4.224zm-85.547 137.199c3.48.02 5.404 1.669 6.303 4.499.469 1.475.637 3.051.932 4.586.731 3.762 1.623 4.238 4.895 2.394 3.594-2.025 7.007-4.419 10.735-6.162 6.169-2.883 8.898-7.624 9.274-14.256.315-5.538 2.97-10.038 6.557-14.302 6.022-7.155 11.829-14.531 17.213-22.168 3.46-4.902 7.276-8.684 13.411-9.542 3.306-.463 5.659-2.427 6.772-5.364 2.729-7.182 5.21-14.47 7.658-21.759.885-2.635.007-4.372-2.971-5.217-5.397-1.529-6.47-3.306-6.457-8.952.007-5.572.148-11.157-.221-16.703-.295-4.425.523-8.415 2.803-12.143 1.569-2.568 3.272-5.063 4.828-7.638 1.763-2.916 2.011-5.739-.262-8.67-1.978-2.548-3.681-5.324-5.371-8.08-1.421-2.32-3.051-2.36-4.922-.71-2.259 1.991-4.405 4.117-6.685 6.081-2.669 2.294-5.746 3.695-9.247 2.354-5.485-2.099-11.084-2.253-16.803-1.69-4.627.456-6.779-1.254-7.678-5.88-.194-.986-.402-1.965-.61-2.944-.811-3.862-1.636-4.238-5.17-2.206-4.258 2.447-8.429 5.036-12.727 7.409-3.963 2.186-6.028 5.438-6.43 9.904-.557 6.109-2.32 11.654-6.39 16.556-6.397 7.711-12.513 15.664-18.474 23.717-3.185 4.305-6.698 7.711-12.237 8.475-3.467.476-6.149 2.314-7.383 5.593a617.881 617.881 0 00-7.604 21.423c-.885 2.635-.234 4.607 2.991 5.532 5.519 1.583 6.383 3.152 6.35 8.972-.034 5.13-.389 10.313.188 15.382.617 5.431-.523 10.145-3.42 14.611-1.455 2.246-2.944 4.473-4.305 6.779-1.602 2.716-1.804 5.351.288 8.08 1.898 2.468 3.46 5.204 5.197 7.799 1.972 2.93 3.118 3.118 5.834.791 2.286-1.958 4.224-4.426 6.745-5.975 2.146-1.321 5.251-2.836 7.323-2.219 6.45 1.891 12.8 2.944 19.07 1.643zm-10.333-154.579c-.181.308-.369.61-.55.918 1.328 2.776 10.387 7.363 13.404 6.075a7457.94 7457.94 0 01-12.854-6.993zm-33.547 66.001c-.979-3.467-9.301-7.846-12.157-6.458 4.05 2.153 8.1 4.305 12.157 6.458zm-18.292 72.478c-.188.322-.383.65-.57.972 1.676 2.629 9.642 6.706 12.445 5.412-3.956-2.126-7.913-4.252-11.875-6.384zM206.546 452.096c-4.513 5.003-12.486 5.76-18.822 2.113-7.162-4.117-14.316-8.241-21.397-12.486-2.126-1.274-4.064-1.777-6.592-1.187-6.075 1.415-12.23 2.461-18.869 3.755 6.297 1.563 12.11 2.85 17.823 4.473 6.471 1.837 11.145 5.961 13.921 12.116.476 1.053.597 2.274 1.026 3.97-3.796-.315-7.081-.603-10.367-.865-24.468-1.918-48.936-3.916-73.41-5.686-9.06-.657-16.643-4.607-23.979-9.441-3.024-1.992-6.081-3.997-9.32-5.599-1.395-.691-3.3-.315-4.955-.53-1.663-.215-3.896.02-4.868-.952-3.977-3.963-8.677-4.379-13.666-3.38-3.701.745-7.289 2.039-10.957 3.004-9.588 2.528-17.574-.838-21.383-9.005-.402-.858-.496-1.857-.731-2.796.335-.141.67-.282 1.006-.429.47.744.992 1.455 1.388 2.233 3.762 7.315 10.071 10.259 18.131 8.334 2.273-.543 4.48-1.347 6.726-2.018 7.255-2.172 10.266-2.233 17.588-.335.094-15.966 3.279-30.637 18.225-41.077-3.01-.222-5.244-.396-7.47-.55-4.814-.335-7.262-2.119-7.765-6.692-1.495-13.558-11.352-17.548-23.354-16.455-2.113.194-4.205.563-6.31.845-.094-.349-.181-.698-.275-1.053.69-.375 1.375-1.073 2.072-1.086 5.203-.074 10.554-.771 15.583.174 8.06 1.522 12.58 7.148 13.827 15.288.898 5.894 1.944 6.786 8.04 7.068 1.776.08 3.553.315 5.31.59 4.446.704 7.316 3.259 8.207 7.671.47 2.32 1.677 2.97 3.863 3.084 6.832.362 13.343-1.073 19.626-3.52 13.72-5.344 27.694-6.551 42.056-3.205 4.211.986 8.382 1.864 9.784 6.859.134.476.952.966 1.528 1.08 3.206.603 4.788 3.46 7.162 4.989 4.834 3.118 6.484 8.831 10.641 11.969 10.494 7.906 21.558 15.04 32.374 22.517 2.903 2.011 5.706 4.13 8.583 6.215zm-9.804 3.004l.423-1.099c-.53-1.321-1.489-2.642-1.502-3.963-.027-3.158-1.925-4.694-4.204-6.297-7.484-5.27-14.779-10.815-22.376-15.918-2.045-1.375-4.915-2.146-7.396-2.126-7.691.067-15.376.725-23.074 1.013-4.123.154-5.994-.845-7.174-3.527 10.346 3.346 20.511.087 30.958.57-3.721-8.395-5.216-9.267-13.397-8.255-.442.054-.885.202-1.328.188-5.652-.147-11.305-.255-16.951-.523-1.032-.047-2.031-.771-3.051-1.187.074-.127.148-.254.215-.382h25.373c-2.421-4.687-5.049-5.465-10.688-5.431-5.405.033-10.816-.838-16.207-1.428-.745-.081-1.415-.812-2.119-1.241l.382-.945c3.199.637 6.37 1.515 9.602 1.83 3.225.315 6.511.067 10.139.067-1.281-4.432-4.285-5.096-7.202-5.82-14.437-3.561-28.457-2.307-42.358 2.977-11.862 4.513-23.837 5.995-35.599-2.159-1.032 1.723-2.32 3.198-2.85 4.902-1.153 3.708-2.393 7.496-2.769 11.332-1.146 11.768.98 22.308 12.379 28.799 3.004 1.71 5.699 4.097 8.87 5.331 4.829 1.884 9.864 3.903 14.94 4.352 20.445 1.817 40.943 3.071 61.421 4.479 2.307.161 4.714.349 6.947-.101 3.326-.677 6.531-1.917 9.944-2.97-2.139-3.373-5.444-5.673-9.34-6.672-7.222-1.851-14.571-3.232-21.853-4.834-1.281-.282-2.535-.691-4.58-1.254 1.335-.758 1.77-1.167 2.267-1.261 9.072-1.817 18.144-3.668 27.25-5.311 1.254-.228 2.857.329 4.03.999 7.57 4.292 15 8.838 22.631 13.022 2.508 1.368 5.485 1.911 8.247 2.843zm-135.77-54.622c2.944 1.409 5.384 2.575 8.294 3.97-1.14-6.343-3.258-7.376-8.294-3.97zM211.528 481.855c5.237.422 9.796-1.395 13.826-5.049 1.469 8.381-.577 11.922-8.227 14.295-6.324 1.965-12.553 1.657-18.594-1.133-3.876-1.79-6.263-4.526-5.801-9.153.202-2.058.034-4.157.034-6.37-7.664 3.078-9.039 10.749-3.051 15.718 5.8 4.814 12.841 6.142 20.089 6.102 6.431-.034 12.667-1.362 18.044-5.231 6.129-4.405 6.31-10.447.597-15.368-.757-.651-1.254-1.596-1.871-2.408.436-.402.879-.804 1.315-1.2 2.112 2.307 4.217 4.607 6.484 7.081 8.931-4.7 18.017-9.441 27.043-14.296.663-.355 1.173-1.502 1.267-2.333.55-4.768 3.802-6.551 7.993-4.5.892.436 2.575.329 3.352-.254 6.364-4.768 9.71-11.239 9.998-19.191.148-4.131.007-8.268.047-12.398.013-1.013.235-2.019.469-3.876.859 1.187 1.402 1.589 1.395 1.985-.107 6.242.148 12.532-.57 18.708-.818 7.094-4.901 12.545-10.554 16.857-.878.671-1.797 1.643-2.085 2.655-1.14 3.916-3.38 5.231-7.242 4.191-1.04-.281-2.428-.315-3.34.148-8.529 4.385-16.964 8.951-25.487 13.357-1.616.838-2.139 1.622-1.937 3.574.341 3.312.08 6.692.026 10.038-.087 5.512-3.507 8.931-7.932 11.117-11.989 5.921-24.113 5.894-35.941-.536-4.6-2.501-7.342-6.39-6.873-12.036.201-2.441.168-4.922-.033-7.37-.43-5.122 1.877-8.717 5.793-11.7 1.388-1.06 2.253-2.77 3.467-4.084 1.414-1.529 2.702-3.433 4.472-4.332 7.765-3.949 15.677-3.849 23.449.108 6.591 3.352 4.627 9.233.06 12.284-1.871 1.254-4.318 1.67-6.524 2.4-1.107.369-2.267.597-3.4.892.087.436.161.872.242 1.308zm20.806 8.817c-15.596 10.501-30.885 10.454-46.126-.147-1.395 6.31 1.75 10.38 7.021 12.908 10.815 5.203 21.772 5.19 32.534-.228 5.043-2.535 7.825-6.545 6.571-12.533z" fill="#0C1447"/><path d="M448.639 415.974c1.844-2.837 3.695-5.673 5.539-8.516.872 3.098-2.434 8.107-5.539 8.516z" fill="#0C1447"/><path d="M595.447 63.86c-2.085 1.188-3.789 2.24-5.566 3.145-4.673 2.368-6.859 6.143-6.765 11.366.12 6.699.201 13.404.208 20.103.02 28.491-.021 56.982.067 85.48.006 2.36-.678 3.554-2.991 3.815-9.039 1.033-14.41 6.726-19.352 13.887-6.96 10.072-14.43 19.882-22.53 29.061-6.128 6.947-10.051 14.377-10.668 23.536-.51 7.517-3.768 13.002-10.661 16.536-5.948 3.044-11.567 6.745-17.354 10.105-4.244 2.46-6.062 1.629-6.987-3.098-.429-2.186-.791-4.392-1.328-6.558-1.133-4.593-4.519-6.974-9.166-6.35-8.429 1.133-16.663.784-24.709-2.36-4.466-1.744-8.375.187-11.761 2.963-3.018 2.468-5.727 5.311-8.603 7.96-4.071 3.755-6.236 3.5-9.267-1.053-2.287-3.44-4.325-7.081-6.893-10.293-3.635-4.539-2.85-8.844-.108-13.277 1.59-2.561 3.192-5.122 4.915-7.59 4.493-6.41 6.082-13.35 5.291-21.223-.664-6.624-.174-13.357-.262-20.042-.026-2.219-.006-4.479-.442-6.638-.805-4.003-3.815-5.686-7.51-6.712-5.666-1.576-6.779-3.715-4.862-9.307 3.112-9.073 6.337-18.098 9.562-27.13 1.898-5.318 5.257-9.019 11.151-9.83 8.08-1.114 13.451-5.921 17.535-12.647 6.806-11.211 14.732-21.591 23.931-30.938 5.915-6.008 9.146-13.062 9.911-21.397.235-2.541.288-5.358 1.448-7.497 1.697-3.124 3.816-6.477 6.652-8.442 6.316-4.372 13.169-7.973 19.828-11.828 4.586-2.655 6.189-1.891 7.329 3.366.469 2.18.778 4.399 1.381 6.544 1.187 4.238 4.171 6.558 8.442 5.955 8.912-1.247 17.508-.59 26.03 2.5 4.594 1.664 8.476-.884 11.869-3.76 2.555-2.167 4.841-4.634 7.322-6.887 1.066-.966 2.22-1.925 3.494-2.548 1.877-.926 3.607-.771 4.901 1.287 2.019 3.192 4.191 6.31 6.518 9.797zM453.736 197.72c.502 3.024.972 8.744 2.434 14.189 4.499 16.683 17.762 25.084 34.754 22.483 8.918-1.368 16.85-5.15 24.072-10.34 22.516-16.187 36.839-38.187 45.053-64.385 4.332-13.826 6.022-27.888 2.488-42.19-3.581-14.49-14.772-25.031-31.314-24.005-8.469.523-16.08 3.513-23.248 7.764-14.631 8.684-25.822 20.874-34.861 35.083-11.399 17.91-18.674 37.235-19.378 61.401zM615.328 309.432c19.003-11.164 37.537-22.047 56.513-33.198-.315 1.837-.516 3.138-.771 4.425-1.019 5.157-1.596 10.212-.698 15.577.785 4.673.329 9.582.128 14.376-.221 5.364 1.535 9.817 6.035 12.66 5.525 3.487 11.07 7.201 17.105 9.528 8.147 3.138 15.422-.402 21.444-5.88 1.81-1.65 2.883-4.949 2.93-7.517.081-4.513-.047-9.354-1.589-13.505-3.118-8.402-3.507-16.991-3.594-25.695-.081-8.489.013-16.984.114-25.473.013-1.16.489-2.321 1.341-3.434 1.965 7.94 4.405 15.678 3.125 23.932-.423 2.742-.403 5.559-.523 8.348-.356 8.147 3.406 13.84 10.46 17.608 6.605 3.521 13.645 4.875 21.048 4.117 8.737-.891 13.813-6.584 13.894-15.469.053-5.907.013-11.808.013-17.87 5.82 2.066 11.379 3.977 16.864 6.069.704.268 1.368 1.441 1.495 2.28 1.576 10.031 3.829 20.042 4.278 30.127.336 7.55-1.897 15.194-2.628 22.825-.637 6.625-.811 13.303-1.1 19.962-.04.959.222 2.072.704 2.896 3.145 5.365 2.387 10.863.999 16.536-2.286 9.361-1.16 12.07 6.947 17.347 9.488 6.175 19.546 9.307 30.764 5.143 8.764-3.252 11.198-8.744 8.168-17.649-2.247-6.611-1.107-13.256.288-19.841.805-3.809 1.79-7.584 2.769-11.694.168.469.315.758.369 1.066 1.938 10.655 7.141 15.429 17.89 16.696 6.893.818 13.619.49 19.989-2.481 7.302-3.399 9.414-8.723 7.429-16.475-1.562-6.115-2.461-12.398-3.654-18.607.302-.161.603-.315.898-.476.946.496 1.898.965 2.83 1.482 15.831 8.737 31.663 17.454 47.454 26.258 1.12.624 2.568 1.911 2.588 2.917.02.925-1.515 2.152-2.628 2.809-34.526 20.338-69.092 40.608-103.605 60.966-2.038 1.2-3.52 1.428-5.72.207-65.793-36.443-131.64-72.806-197.473-109.183-.785-.429-1.536-.905-2.89-1.71z" fill="#FFEFDF"/><path d="M613.564 135.3v-3.681c0-12.405-.087-24.804.041-37.209.06-6.048-.852-11.78-4.191-17.42 37.087-21.786 74.088-43.518 111.329-65.39 2.783 3.613 3.99 7.777 4.037 12.122.167 14.86.167 29.719.02 44.578-.013 1.12-1.435 2.608-2.575 3.279-27.579 16.294-55.205 32.501-82.825 48.728-7.409 4.351-14.819 8.71-22.235 13.055-1.019.603-2.085 1.127-3.601 1.938zm67.731-55.226L668.562 68.73c-2.206 7.624-4.131 14.296-6.062 20.968l1.087.784c5.666-3.332 11.332-6.665 17.708-10.407zM724.907 72.619c0 10.205.054 19.995-.107 29.785-.013.778-1.395 1.743-2.34 2.26-9.093 4.955-18.493 9.401-27.284 14.832-15.758 9.729-24.186 24.629-27.861 42.425-.63 3.064-1.871 5.022-4.68 6.638-15.201 8.717-30.268 17.675-45.382 26.54-.953.557-1.932 1.066-3.688 2.032v-9.294c0-15.872-.041-31.736.073-47.608.007-1.16.839-2.823 1.791-3.386 35.941-21.229 71.942-42.365 107.943-63.5.355-.208.744-.356 1.535-.724zM665.223 169.41c0 10.964-.342 21.873.121 32.756.315 7.436 1.689 14.832 2.709 22.228.221 1.603.134 2.615-1.455 3.541-17.153 9.977-34.252 20.042-51.37 30.08-.275.161-.604.241-1.301.51-.094-1.073-.242-1.992-.242-2.91-.013-17.75.007-35.492-.033-53.241-.007-1.79.275-3.051 2.045-4.077 16.294-9.461 32.521-19.03 48.775-28.558.268-.168.583-.255.751-.329zM668.696 229.383c2.139 8.691 5.036 17.025 6.008 25.581.67 5.854-1.301 12.023-2.186 18.031-.074.496-.858.972-1.408 1.294a47459.214 47459.214 0 01-56.245 32.997c-.174.101-.422.081-.952.168-.081-.945-.235-1.871-.235-2.789-.013-13.505-.06-27.01.067-40.507.014-1.295.751-3.179 1.75-3.776 17.32-10.346 34.734-20.531 52.135-30.737.268-.161.63-.161 1.066-.262z" fill="#fff"/><path d="M611.714 229.598c0 25.145-.034 50.29.006 75.435.034 21.002.135 42.003.242 63.011.02 3.869-1.214 7.047-4.727 8.958-3.4 1.851-6.652 1.167-9.804-.811-5.666-3.541-9.407-8.523-11.104-14.946-.563-2.133-.784-4.413-.791-6.625-.08-45.148-.101-90.295-.134-135.442-.034-39.897-.067-79.787-.127-119.684-.014-6.927-.141-13.847-.228-20.774-.047-3.942 1.099-7.282 4.78-9.287 3.715-2.025 7.128-1.019 10.36 1.174 7.497 5.076 11.306 12.19 11.379 21.209.087 11.064.027 22.128.027 33.191v104.591h.121zm-4.312-1.013h.114c0-44.919.047-89.845-.047-134.764-.013-6.726-3.165-12.077-9.085-15.396-4.734-2.648-8.845-.127-8.972 5.297-.067 2.904.174 5.807.174 8.71.014 47.602.034 95.204 0 142.805-.027 39.555-.174 79.117-.168 118.672 0 6.645 3.192 11.835 8.912 15.154 4.781 2.776 9.045.161 9.173-5.378.06-2.789-.094-5.585-.094-8.381-.007-42.238-.007-84.481-.007-126.719zM873.177 277.856c-.322 7.068-.658 13.934-.932 20.807-.57 14.175-.624 28.33 2.145 42.331.342 1.744.926 3.44 1.395 5.157 1.475 5.397.134 9.655-4.781 12.277-9.803 5.237-19.948 5.21-29.859.322-4.58-2.26-6.363-6.853-6.866-11.654-1.18-11.178-.443-22.235 3.064-33.004 2.132-6.551 5.827-11.386 12.599-14.175 8.322-3.426 13.217-10.749 17.515-18.279 1.301-2.286 2.93-3.406 5.72-3.782z" fill="#fff"/><path d="M614.349 311.436c6.605 3.648 12.821 7.075 19.03 10.501 59.765 33.024 119.523 66.075 179.342 99.012 3.319 1.83 5.659 3.553 4.915 7.758-.302 1.683-.047 3.466-.047 5.746-4.137-2.266-7.919-4.311-11.674-6.39-62.481-34.533-124.948-69.092-187.489-103.524-2.957-1.63-4.318-3.433-4.09-6.692.12-1.958.013-3.93.013-6.411z" fill="#FFEFDF"/><path d="M719.442 10.017c-36.993 21.732-73.973 43.444-110.464 64.881-4.432-3.218-8.516-6.182-12.633-9.166.805-.49 2.099-1.308 3.426-2.079 32.743-19.123 65.485-38.24 98.227-57.358.678-.395 1.482-.663 1.992-1.213 6.035-6.464 14.45-2.32 19.452 4.935zM921.972 296.946c6.946-3.124 13.457-6.048 20.874-9.38 0 8.039-.168 15.61.033 23.167.422 15.844.986 31.703 4.687 47.219.798 3.346 1.992 6.618 3.299 9.803 1.871 4.56 4.982 8.026 9.314 10.608 4.01 2.387 7.832 5.156 11.426 8.134 2.018 1.669 4.613 3.714 2.749 7.06-1.797 3.219-6.457 5.405-9.508 4.667-17.146-4.144-27.11-15.335-30.644-32.199-1.643-7.825-2.501-15.878-2.91-23.871-.818-15.704-2.897-31.079-9.32-45.208zM714.125 236.746c8.563 8.884 17.555 16.844 27.753 23.341 5.157 3.286 10.555 6.223 15.932 9.14 1.757.952 2.662 1.897 2.595 4.05-.167 5.464-.013 10.936-.067 16.401-.08 8.006-4.338 12.814-12.21 13.652-7.926.845-15.241-.965-21.994-5.244-4.854-3.077-7.235-7.483-7.275-13.122-.02-3.225.054-6.484.51-9.669 1.314-9.093-1.536-17.689-2.911-26.453-.616-4.057-1.542-8.066-2.333-12.096zM656.164 347.606c-14.477 8.616-28.31 16.85-42.204 25.111v-48.412c14.209 7.845 27.888 15.395 42.204 23.301zM920.946 167.586c-13.787-15.898-32.575-20.049-51.927-23.153 2.112-7.812 4.325-15.155 8.804-21.558 4.875-6.96 10.561-7.007 15.497-.007 1.984 2.81 3.567 5.914 5.176 8.965 2.863 5.418 6.524 9.904 11.855 13.284 3.581 2.273 6.752 5.498 9.388 8.864 3.01 3.856 3.48 8.482 1.207 13.605z" fill="#fff"/><path d="M934.195 286.902c-19.767 2.877-38.167-6.779-46.381-23.952-1.71-3.574-.724-6.98 2.595-8.938 3.259-1.924 5.284-1.214 7.644 1.784 5.284 6.725 10.488 13.565 16.335 19.787 4.761 5.063 10.876 8.469 17.662 10.427.59.168 1.133.47 2.145.892zM943.087 256.432c3.808 2.971 7.201 6.055 11.023 8.463 3.708 2.333 7.852 3.963 12.09 6.041-7.275.838-14.229.268-20.968-2.099-.791-.274-1.468-1.844-1.582-2.883-.349-3.084-.389-6.202-.563-9.522z" fill="#FFEFDF"/><path d="M485.103 59.911c-6.518-3.466-12.345-6.269-17.602-10.064 3.313-.678 16.516 6.605 17.602 10.064zM411.143 252.711c-5.351-2.89-10.709-5.773-16.469-8.884 2.83-1.462 15.852 5.284 16.469 8.884zM405.517 130.211c2.763-.275 15.255 6.578 15.825 9.776-5.438-2.923-10.876-5.847-16.321-8.77.167-.336.335-.671.496-1.006z" fill="#fff"/><path d="M397.122 443.493c-6.276 1.294-12.62.241-19.07-1.67-2.072-.617-5.17.899-7.322 2.219-2.522 1.549-4.459 4.017-6.746 5.975-2.716 2.333-3.862 2.146-5.834-.791-1.743-2.595-3.299-5.324-5.196-7.799-2.092-2.722-1.891-5.364-.289-8.08 1.362-2.306 2.85-4.532 4.305-6.779 2.897-4.459 4.037-9.179 3.42-14.611-.577-5.069-.221-10.252-.188-15.382.034-5.82-.831-7.389-6.35-8.972-3.225-.925-3.869-2.896-2.99-5.532a613.733 613.733 0 017.604-21.423c1.233-3.279 3.915-5.116 7.382-5.593 5.539-.764 9.052-4.17 12.237-8.475 5.961-8.053 12.077-16.006 18.474-23.717 4.063-4.902 5.833-10.447 6.39-16.556.409-4.465 2.474-7.718 6.43-9.903 4.299-2.374 8.469-4.962 12.727-7.41 3.527-2.032 4.359-1.656 5.17 2.206.208.979.422 1.965.61 2.944.899 4.633 3.051 6.336 7.678 5.88 5.726-.563 11.325-.409 16.804 1.69 3.5 1.341 6.578-.06 9.246-2.353 2.28-1.965 4.426-4.091 6.686-6.082 1.87-1.65 3.5-1.609 4.921.711 1.69 2.756 3.393 5.532 5.371 8.08 2.273 2.93 2.025 5.753.262 8.67-1.556 2.574-3.259 5.069-4.828 7.637-2.28 3.728-3.098 7.718-2.803 12.143.369 5.553.235 11.138.221 16.704-.006 5.646 1.06 7.422 6.458 8.951 2.97.845 3.855 2.582 2.97 5.217-2.447 7.289-4.922 14.571-7.657 21.759-1.114 2.93-3.467 4.902-6.773 5.364-6.135.852-9.951 4.634-13.411 9.542-5.384 7.644-11.191 15.013-17.212 22.168-3.588 4.265-6.243 8.764-6.558 14.303-.376 6.631-3.111 11.372-9.274 14.255-3.721 1.744-7.141 4.137-10.735 6.162-3.272 1.844-4.164 1.375-4.895-2.393-.295-1.529-.463-3.105-.932-4.587-.898-2.803-2.823-4.446-6.303-4.472zm-21.162-49.097c.275 2.467.422 5.72 1.019 8.885 2.843 15.12 14.812 22.724 29.484 18.205 5.23-1.61 10.386-4.245 14.839-7.437 14.932-10.695 24.521-25.467 30.395-42.659 3.487-10.206 5.498-20.639 2.964-31.529-2.555-10.97-9.16-18.017-19.841-18.627-5.096-.295-10.642 1.24-15.456 3.225-10.132 4.191-17.87 11.707-24.488 20.304-11.078 14.41-17.998 30.462-18.916 49.633z" fill="#FFEFDF"/><path d="M386.789 288.914c4.13 2.246 8.261 4.499 12.854 6.994-3.017 1.28-12.076-3.306-13.404-6.075.181-.309.369-.611.55-.919zM353.242 354.915c-4.05-2.153-8.107-4.305-12.157-6.458 2.85-1.388 11.178 2.991 12.157 6.458zM334.95 427.393l11.875 6.384c-2.809 1.294-10.769-2.783-12.445-5.412.194-.322.382-.65.57-.972z" fill="#fff"/><path d="M196.432 455.498c-2.762-.926-5.74-1.469-8.254-2.85-7.631-4.184-15.06-8.731-22.631-13.022-1.173-.664-2.776-1.22-4.03-.999-9.106 1.643-18.178 3.493-27.25 5.311-.497.1-.926.503-2.267 1.26 2.045.563 3.299.972 4.58 1.254 7.289 1.603 14.631 2.984 21.853 4.835 3.896.999 7.201 3.299 9.34 6.672-3.413 1.046-6.618 2.293-9.944 2.97-2.233.456-4.633.262-6.946.101-20.479-1.409-40.977-2.662-61.422-4.48-5.082-.449-10.118-2.467-14.94-4.351-3.164-1.234-5.867-3.621-8.87-5.331-11.393-6.491-13.518-17.032-12.379-28.8.376-3.835 1.61-7.624 2.77-11.332.53-1.703 1.817-3.178 2.85-4.901 11.76 8.16 23.736 6.671 35.598 2.159 13.894-5.284 27.922-6.538 42.358-2.978 2.91.718 5.921 1.389 7.202 5.821-3.628 0-6.913.248-10.139-.067-3.232-.315-6.403-1.201-9.602-1.831l-.382.946c.704.429 1.375 1.16 2.119 1.24 5.398.583 10.809 1.462 16.207 1.428 5.639-.033 8.267.745 10.688 5.432h-25.373a10.5 10.5 0 00-.215.382c1.013.416 2.019 1.133 3.051 1.187 5.646.268 11.299.375 16.952.523.442.013.878-.134 1.327-.188 8.181-1.012 9.676-.134 13.398 8.254-10.447-.476-20.613 2.776-30.959-.57 1.173 2.683 3.051 3.682 7.175 3.527 7.691-.288 15.382-.945 23.073-1.012 2.481-.02 5.351.751 7.396 2.125 7.597 5.097 14.892 10.649 22.376 15.919 2.273 1.603 4.177 3.145 4.204 6.296.013 1.328.972 2.642 1.502 3.963-.134.369-.275.738-.416 1.107z" fill="#FFEFDF"/><path d="M63.972 420.647c5.043-3.406 7.155-2.367 8.295 3.97-2.91-1.395-5.358-2.569-8.295-3.97z" fill="#fff"/><path d="M232.335 490.673c1.254 5.987-1.529 9.997-6.572 12.539-10.762 5.418-21.718 5.424-32.534.228-5.271-2.535-8.409-6.605-7.021-12.908 15.242 10.594 30.53 10.641 46.127.141z" fill="#ED6F78"/><path d="M453.735 197.72c.704-24.166 7.98-43.491 19.379-61.401 9.045-14.208 20.237-26.405 34.861-35.082 7.161-4.251 14.779-7.242 23.248-7.765 16.549-1.026 27.733 9.522 31.314 24.005 3.54 14.303 1.844 28.364-2.488 42.19-8.207 26.198-22.537 48.205-45.053 64.385-7.222 5.19-15.154 8.972-24.073 10.34-16.991 2.609-30.261-5.8-34.754-22.483-1.461-5.445-1.931-11.164-2.434-14.189zm5.995 17.401c3.064 11.205 16.784 19.325 28.82 17.628 10.245-1.448 19.251-5.619 27.311-11.801 23.167-17.749 37.476-41.278 44.269-69.448 4.009-16.616-10.917-35.277-28.069-35.485-.369 3.541-.812 7.081-1.053 10.635-.054.838.322 2.018.925 2.542 5.143 4.452 7.128 10.366 6.981 16.776-.51 22.135-10.394 39.374-28.512 51.793-6.148 4.217-13.149 6.081-20.699 3.399-.744-.268-2.012 0-2.655.496-8.181 6.384-17.099 11.252-27.318 13.465zm62.554-89.711c-7.818-4.553-15.073-8.684-22.221-12.995-1.851-1.12-3.205-1.16-4.62.476-6.33 7.329-13.243 14.242-18.889 22.067-9.079 12.593-15.134 26.755-18.5 41.969-.242 1.086-.081 3.024.583 3.427 7.396 4.506 14.933 8.784 22.879 13.383-5.103-15.616-1.006-29.376 6.618-42.31 7.637-12.982 17.635-23.302 34.15-26.017zm-35.417 73.806c-10.293-5.975-19.915-11.567-29.906-17.367-1.522 11.003-1.858 21.122 1.689 31.327 10.682-1.931 19.433-7.101 28.217-13.96zm40.158-103.297c-10.695 2.173-19.439 7.088-27.693 13.827 10.031 5.82 19.62 11.379 29.316 17.005 2.836-10.642-.141-20.472-1.623-30.832zM681.295 80.075c-6.376 3.748-12.042 7.074-17.708 10.406l-1.087-.784c1.931-6.672 3.856-13.344 6.062-20.968l12.733 11.346zM607.402 228.586c0 42.237 0 84.481.007 126.718 0 2.796.154 5.585.094 8.382-.121 5.532-4.386 8.147-9.173 5.377-5.72-3.312-8.912-8.502-8.912-15.154-.006-39.555.134-79.117.168-118.672.034-47.601.013-95.202 0-142.804 0-2.903-.241-5.807-.174-8.71.12-5.418 4.237-7.94 8.971-5.297 5.921 3.312 9.073 8.663 9.086 15.395.094 44.919.047 89.845.047 134.765h-.114zM591.705 93.137v126.578c6.518-1.972 9.837 2.574 13.585 6.752V99.621c-6.457 2.166-9.776-2.24-13.585-6.484zm.087 141.651v112.06c2.85.738 5.492.926 7.57 2.106 2.206 1.247 3.869 3.44 5.841 5.284V241.333c-6.424 1.937-9.783-2.092-13.411-6.545zM375.96 394.396c.918-19.171 7.838-35.23 18.922-49.634 6.612-8.596 14.357-16.119 24.488-20.304 4.815-1.991 10.36-3.52 15.456-3.225 10.682.61 17.287 7.658 19.842 18.628 2.534 10.889.523 21.323-2.964 31.528-5.874 17.193-15.47 31.965-30.396 42.66-4.459 3.192-9.615 5.827-14.839 7.436-14.671 4.52-26.64-3.084-29.483-18.205-.604-3.165-.751-6.41-1.026-8.884zm5.284 15.328c1.938 5.183 6.477 8.63 12.445 10.293 7.255 2.018 14.081.033 20.183-3.635 23.04-13.866 35.445-34.874 39.401-61.045 1.73-11.46-7.463-22.483-20.519-22.845-.301 3.989-.697 7.972-.845 11.962-.033.945.705 1.931 1.127 2.883 1.415 3.192 3.876 6.31 4.084 9.576 1.066 16.287-6.236 28.833-18.916 38.435-4.681 3.54-10.052 5.27-16.06 3.366-.61-.195-1.515.114-2.139.456-6.189 3.433-12.331 6.926-18.761 10.554zm42.86-65.894c-5.143-2.984-10.004-5.9-14.979-8.589-.751-.403-2.428-.121-3.085.483-13.344 12.284-22.027 27.344-26.332 44.926-.214.871.121 2.467.738 2.849 4.774 2.977 9.676 5.733 14.906 8.771-5.304-18.809 10.024-44.618 28.752-48.44zm-25.078 52.939c-6.638-3.862-13.216-7.691-20.236-11.774-1.02 7.57-1.261 14.557 1.133 21.423 6.423-.831 14.866-5.076 19.103-9.649zm10.367-63.828c6.926 4.023 13.484 7.838 20.297 11.795 1.328-7.537 1.301-14.477-1.509-21.303-7.067 1.642-13.042 4.801-18.788 9.508z" fill="#0C1447"/><path d="M459.73 215.121c10.219-2.213 19.137-7.081 27.324-13.451.644-.503 1.905-.764 2.656-.496 7.557 2.689 14.55.818 20.699-3.4 18.118-12.418 28.002-29.658 28.511-51.792.148-6.411-1.837-12.325-6.98-16.777-.61-.523-.986-1.703-.925-2.541.241-3.554.684-7.095 1.053-10.635 17.152.215 32.078 18.869 28.068 35.485-6.792 28.169-21.108 51.698-44.269 69.447-8.066 6.183-17.065 10.353-27.311 11.802-12.042 1.69-25.762-6.437-28.826-17.642z" fill="#fff"/><path d="M522.284 125.41c-16.515 2.715-26.513 13.035-34.157 26.01-7.624 12.941-11.727 26.701-6.618 42.311-7.946-4.6-15.476-8.878-22.879-13.384-.664-.403-.818-2.34-.583-3.427 3.373-15.214 9.428-29.376 18.5-41.969 5.639-7.825 12.559-14.738 18.889-22.067 1.415-1.636 2.763-1.596 4.62-.476 7.155 4.318 14.41 8.449 22.228 13.002zM591.705 93.137c3.808 4.251 7.128 8.65 13.585 6.484v126.846c-3.748-4.178-7.068-8.717-13.585-6.753V93.137zM591.792 234.787c3.621 4.453 6.987 8.483 13.411 6.545v112.905c-1.972-1.844-3.635-4.037-5.841-5.284-2.078-1.18-4.72-1.361-7.57-2.106v-112.06zM381.244 409.724c6.423-3.627 12.572-7.121 18.748-10.554.617-.342 1.529-.65 2.139-.456 6.008 1.904 11.385.174 16.059-3.366 12.68-9.602 19.982-22.148 18.916-38.435-.215-3.266-2.675-6.384-4.084-9.576-.422-.952-1.166-1.937-1.126-2.883.154-3.99.543-7.973.845-11.962 13.055.362 22.248 11.385 20.518 22.845-3.949 26.171-16.354 47.179-39.401 61.046-6.095 3.668-12.928 5.652-20.183 3.634-5.954-1.663-10.494-5.11-12.431-10.293z" fill="#fff"/><path d="M424.104 343.831c-18.728 3.822-34.056 29.631-28.752 48.446-5.231-3.037-10.132-5.793-14.906-8.771-.624-.388-.953-1.984-.738-2.849 4.305-17.582 12.995-32.642 26.332-44.926.657-.604 2.333-.885 3.084-.483 4.976 2.682 9.837 5.599 14.98 8.583z" fill="#fff"/><path d="M235.925 417.885c.69-1.375 1.287-3.092 2.306-4.507 2.468-3.406 3.863-6.973 2.991-11.271-.282-1.395-.262-2.93-.02-4.345.556-3.239-.181-5.452-3.447-6.981-1.073-.503-2.065-3.077-1.737-4.358 1.134-4.412 2.582-8.798 4.5-12.921.764-1.65 2.87-3.145 4.687-3.735 3.064-.993 5.183-2.656 7.02-5.257 3.145-4.459 6.826-8.543 9.944-13.015 1.536-2.2 2.85-4.835 3.306-7.443.691-3.923 2.166-6.753 5.787-8.758 10.755-5.981 7.087-5.679 17.179-.087 1.073.597 2.126 1.227 3.192 1.831 5.082 2.87 6.33 2.796 10.521-1.314 2.42-2.374 4.747-3.018 7.697-.933 1.999 1.415 4.117 2.783 6.377 3.668 4.741 1.851 7.369 5.727 9.461 9.877.792 1.569.812 4.701-.228 5.821-5.847 6.329-3.279 13.974-3.781 21.095-.061.845 1.341 2.273 2.346 2.635 3.031 1.073 3.648 3.004 2.696 5.767-1.314 3.795-2.333 7.744-4.157 11.285-.999 1.938-3.145 3.835-5.19 4.546-2.951 1.026-4.956 2.628-6.732 5.083-3.192 4.425-6.88 8.502-9.958 13.001-1.636 2.394-2.93 5.271-3.46 8.1-.67 3.595-2.058 6.25-5.311 7.966-2.273 1.194-4.405 2.649-6.671 3.849-3.065 1.623-4.828.973-5.278-2.32-.429-3.124-1.683-4.197-4.834-3.782-2.052.269-4.385.228-6.27-.502-3.265-1.268-5.485-.255-7.758 1.964-4.003 3.903-4.063 3.829-8.764 1.026-2.4-1.428-4.72-3.044-7.255-4.164-4.352-1.924-6.189-5.934-8.516-9.562-.342-.523-.369-1.254-.643-2.259zm47.071 18.614c2.622-1.522 5.351-3.199 8.161-4.728 2.481-1.347 3.373-3.44 4.077-6.102.891-3.339 2.226-6.718 4.117-9.595 2.984-4.546 6.383-8.864 9.997-12.928 1.898-2.132 4.667-3.473 6.967-5.27 1.657-1.294 3.775-2.448 4.654-4.184 1.643-3.253 2.501-6.894 3.755-10.354.63-1.743.59-3.03-1.569-3.52-2.81-.637-3.628-2.669-3.541-5.284.067-2.005.503-4.083.128-6.001-1.093-5.559.328-10.3 3.681-14.732.751-.992 1.234-2.917.778-3.956-1.046-2.387-2.736-4.493-4.365-7.02-1.375 1.093-2.522 1.783-3.387 2.729-2.668 2.903-5.605 4.19-9.555 2.568-1.381-.57-3.064-.517-4.606-.53-6.344-.047-6.337-.02-8.342-6.115-.1-.302-.322-.557-.597-1.033-2.756 1.603-5.183 3.165-7.744 4.466-2.971 1.509-4.124 3.829-4.855 7.054-.731 3.219-2.34 6.397-4.198 9.173-2.957 4.439-6.537 8.455-9.662 12.794-1.904 2.642-4.063 4.512-7.316 5.418-1.595.449-3.466 1.844-4.144 3.305-1.723 3.722-2.957 7.692-4.117 11.634-.228.765.577 2.562 1.207 2.729 3.702.979 4.158 3.588 3.93 6.739-.121 1.67-.476 3.42-.128 4.996 1.194 5.458-.368 10.051-3.574 14.423-.791 1.08-1.287 3.118-.811 4.238 1.019 2.387 2.776 4.459 4.358 6.866 1.254-.986 2.233-1.562 2.958-2.367 2.869-3.178 6.028-4.875 10.353-2.783.938.456 2.246.55 3.292.349 5.418-1.053 8.851.61 9.488 6.477.014.101.168.161.61.544zm-4.137-89.51c.188-.389.376-.772.57-1.16-2.206-2.917-8.905-6.082-11.52-4.775 3.916 2.119 7.43 4.024 10.95 5.935zm-26.265 31.361c-1.019-3.273-5.646-5.7-8.569-4.506 2.856 1.508 5.713 3.004 8.569 4.506z" fill="#0C1447"/><path d="M282.996 436.499c-.442-.375-.597-.442-.603-.523-.637-5.867-4.071-7.53-9.488-6.477-1.046.201-2.347.107-3.293-.349-4.325-2.092-7.483-.396-10.353 2.783-.724.804-1.703 1.381-2.957 2.367-1.589-2.407-3.339-4.479-4.358-6.867-.483-1.119.02-3.158.811-4.237 3.205-4.372 4.767-8.965 3.574-14.424-.349-1.582.013-3.332.127-4.995.228-3.152-.228-5.76-3.929-6.739-.63-.168-1.428-1.965-1.207-2.729 1.16-3.95 2.394-7.912 4.117-11.634.677-1.462 2.541-2.863 4.144-3.306 3.245-.905 5.411-2.776 7.316-5.418 3.118-4.338 6.698-8.355 9.662-12.794 1.851-2.776 3.467-5.954 4.198-9.172.73-3.226 1.884-5.546 4.854-7.054 2.562-1.301 4.996-2.864 7.745-4.466.275.469.496.731.597 1.032 1.998 6.096 1.998 6.069 8.341 6.116 1.549.013 3.232-.041 4.607.529 3.949 1.623 6.886.336 9.555-2.568.865-.945 2.012-1.636 3.386-2.729 1.63 2.528 3.319 4.634 4.365 7.021.45 1.032-.026 2.957-.777 3.956-3.353 4.439-4.775 9.173-3.682 14.732.376 1.917-.06 3.996-.127 6.001-.087 2.608.731 4.647 3.54 5.284 2.159.489 2.2 1.777 1.569 3.52-1.247 3.46-2.112 7.101-3.755 10.353-.878 1.737-2.997 2.897-4.653 4.184-2.3 1.797-5.069 3.138-6.967 5.271-3.614 4.063-7.021 8.381-9.998 12.928-1.884 2.876-3.225 6.256-4.117 9.595-.711 2.662-1.602 4.754-4.077 6.102-2.816 1.509-5.545 3.178-8.167 4.707zm-6.491-18.42c7.001.067 11.379-2.145 15.302-5.183 11.654-9.019 18.091-21.155 19.586-35.619.617-5.988-.603-12.217-6.189-16.146-5.19-3.648-10.634-2.528-15.891-.027-14.39 6.846-26.064 27.794-24.361 43.551.925 8.496 5.854 13.445 11.553 13.424z" fill="#FFEFDF"/><path d="M278.859 346.989c-3.52-1.904-7.034-3.809-10.95-5.934 2.615-1.308 9.314 1.857 11.52 4.774-.194.382-.382.771-.57 1.16zM252.594 378.35l-8.569-4.506c2.923-1.193 7.55 1.234 8.569 4.506z" fill="#fff"/><path d="M276.506 418.079c-5.7.02-10.628-4.928-11.554-13.431-1.71-15.751 9.971-36.705 24.361-43.551 5.257-2.501 10.702-3.621 15.892.027 5.585 3.929 6.806 10.158 6.189 16.146-1.496 14.464-7.933 26.601-19.587 35.619-3.922 3.051-8.301 5.264-15.301 5.19zm-8.878-7.141c1.14.516 2.239.811 3.104 1.442 6.317 4.6 12.573 3.862 18.601-.369 11.178-7.845 17.514-18.836 19.714-32.152 1.16-7.028-3.266-12.379-10.487-13.364.006 3.433-1.295 6.9 1.535 10.051.899 1.006 1.006 2.937 1.039 4.459.182 7.886-3.232 14.229-8.898 19.419-3.03 2.776-6.49 4.734-10.916 3.695-.556-.128-1.301.127-1.844.409-3.493 1.857-6.96 3.761-11.848 6.41zm23.978-38.63c-2.226-1.321-4.291-2.38-6.155-3.708-1.65-1.18-2.776-.724-4.024.55-6.37 6.504-10.923 14.068-13.276 22.886-.195.737.114 2.092.664 2.467 2.253 1.529 4.693 2.79 7.275 4.265-.409-12.197 4.519-20.767 15.516-26.46zm-13.411 31.14l-.02-1.066c-3.56-2.059-7.121-4.117-11.506-6.658.228 4.666.402 8.22.623 12.787 4.346-2.012 7.624-3.534 10.903-5.063zm17.032-42.867c-3.822 1.937-6.866 3.486-10.521 5.337 4.225 2.434 7.691 4.432 11.151 6.431l.885-.644c-.462-3.433-.932-6.86-1.515-11.124z" fill="#0C1447"/><path d="M267.627 410.938c4.889-2.649 8.355-4.553 11.856-6.397.543-.288 1.287-.543 1.844-.409 4.432 1.039 7.892-.918 10.916-3.695 5.666-5.189 9.079-11.533 8.898-19.418-.034-1.522-.141-3.454-1.039-4.459-2.83-3.152-1.523-6.619-1.536-10.052 7.215.979 11.647 6.33 10.487 13.364-2.199 13.317-8.536 24.3-19.714 32.152-6.021 4.225-12.284 4.969-18.6.369-.872-.644-1.978-.939-3.112-1.455zM291.606 372.308c-11.004 5.693-15.925 14.262-15.51 26.453-2.581-1.482-5.022-2.736-7.275-4.265-.55-.369-.858-1.73-.664-2.467 2.347-8.818 6.9-16.382 13.277-22.886 1.247-1.274 2.367-1.73 4.023-.55 1.864 1.341 3.923 2.394 6.149 3.715zM764.278 156.644l29.445 17-16 27.713-29.445-17zM829 135l29.445 17-16 27.713-29.445-17z" fill="#fff"/><ellipse cx="209.5" cy="469.799" rx="13.5" ry="6.968" fill="#ED6F78"/></svg>