<svg width="145" height="22" fill="none" xmlns="http://www.w3.org/2000/svg"><g clip-path="url(#clip0_2_650)"><path d="M17.301 5.637l-5.155 15.232H10.76L5.28 5.637 3.929 17.381a5.491 5.491 0 00-.058.678c0 1.418.59 1.708 2.577 1.817v.993H.173v-.993c1.548-.085 2.069-.399 2.23-1.671l1.71-14.166c.186-1.537-.519-1.986-2.31-2.107V.975h6.136c.058.619.185 1.103.404 1.731l4.427 12.362L16.873 2.67c.22-.617.38-1.076.428-1.695h6.032v.957c-1.745.12-2.45.57-2.253 2.107l1.653 14.165c.161 1.333.729 1.588 2.23 1.671v.993h-8.771v-.993c1.872-.108 2.519-.398 2.519-1.816 0-.17-.024-.46-.046-.678L17.3 5.637zm19.566 12.082c0 .969.219 1.587.902 1.587.404 0 .786-.133 1.085-.277l.162.617c-.787.968-1.815 1.513-3.063 1.513-1.502 0-2.45-.945-2.716-2.507-.868 1.199-2.277 2.446-4.265 2.446-2.172 0-3.606-1.391-3.606-3.669 0-2.409 1.653-3.44 3.688-4.2l4.102-1.562V9.27c0-1.646-.521-2.808-1.908-2.808-1.27 0-2.033.338-2.437.932.844.206 1.328.908 1.328 1.792 0 1.224-.808 2.023-2.057 2.023-1.167 0-1.906-.8-1.906-2.046 0-2.385 2.334-3.584 5.374-3.584 3.445 0 5.317 1.308 5.317 4.662v7.48zm-3.71.255v-5.267l-2.335.968c-1.144.484-1.872 1.114-1.872 2.7 0 1.489.647 2.505 2.115 2.505.786.002 1.33-.312 2.092-.906zm6.298 1.793l-.173-3.923h1.006c.6 2.47 1.953 4.322 4.044 4.322 1.469 0 2.554-.714 2.554-2.277 0-1.538-.982-2.13-3.12-2.93-2.879-1.053-4.368-2.252-4.368-4.868 0-2.868 2.056-4.516 5.015-4.516 1.769 0 3.26.46 4.427 1.224v3.44h-.925c-.462-2.024-1.57-3.693-3.502-3.693-1.375 0-2.196.847-2.196 2.107 0 1.27.844 1.902 2.935 2.724 2.925 1.053 4.634 2.215 4.634 5 0 3.016-2.137 4.783-5.478 4.783-2.067-.001-3.743-.57-4.853-1.393zm16.17-13.936h3.536v1.283h-3.536v9.431c0 1.707.623 2.446 1.906 2.446.729 0 1.33-.255 2-.763l.359.484c-.867 1.417-2.232 2.447-4.207 2.447-2.196 0-3.825-1.223-3.825-4.408V7.114H50.17v-.605c1.872-.91 3.443-2.47 4.611-4.347h.844l-.001 3.669zm16.4 5.653v.653h-8.83c-.103 3.96 1.826 6.344 4.484 6.344 1.849 0 3.063-.847 4.046-2.324l.404.255c-.68 2.81-2.658 4.745-5.756 4.745-3.929 0-6.563-3.039-6.563-7.398 0-4.831 2.982-8.185 6.68-8.185 3.627.002 5.534 2.508 5.534 5.91zm-8.75-.363h5.374c0-2.7-.67-4.516-2.439-4.516-1.79 0-2.738 1.9-2.935 4.516zm36.07-8.753l.058 4.541H98.34c-.624-3.269-2.219-5.025-4.855-5.025-3.721 0-5.431 3.886-5.431 8.73 0 5.278 1.987 9.322 5.674 9.322 2.555 0 4.288-1.683 5.213-5.8h1.109l-.428 5.34c-1.571 1.053-3.698 1.681-6.24 1.681-5.895 0-9.534-3.863-9.534-9.722C83.848 4.813 88.055.66 93.382.66c2.415 0 4.414.618 5.963 1.708zm6.842 16.321c0 .993.404 1.163 1.687 1.247v.933h-7.142v-.933c1.248-.085 1.686-.254 1.686-1.247V3.555l-1.627-.884v-.593L105.587.71h.601l-.001 17.979zm9.95-.727v-5.254l-2.334.968c-1.11.449-1.849 1.103-1.849 2.7 0 1.477.659 2.505 2.092 2.505.786 0 1.329-.313 2.091-.92zm6.312 1.805l-.162-3.923h1.006c.589 2.47 1.953 4.322 4.034 4.322 1.467 0 2.588-.714 2.588-2.277 0-1.538-1.005-2.13-3.156-2.93-2.877-1.053-4.368-2.252-4.368-4.868 0-2.868 2.057-4.516 5.05-4.516 1.733 0 3.224.46 4.392 1.224v3.44h-.924c-.45-2.024-1.573-3.693-3.467-3.693-1.41 0-2.231.847-2.231 2.107 0 1.27.844 1.902 2.936 2.724 2.935 1.053 4.669 2.215 4.669 5 0 3.016-2.172 4.783-5.512 4.783-2.059-.001-3.746-.57-4.855-1.393zm11.753 0l-.139-3.923h1.006c.589 2.47 1.975 4.322 4.044 4.322 1.456 0 2.577-.714 2.577-2.277 0-1.538-1.028-2.13-3.12-2.93-2.913-1.053-4.403-2.252-4.403-4.868 0-2.868 2.069-4.516 5.05-4.516 1.733 0 3.224.46 4.403 1.224v3.44h-.925c-.439-2.024-1.584-3.693-3.478-3.693-1.411 0-2.196.847-2.196 2.107 0 1.27.808 1.902 2.901 2.724 2.96 1.052 4.647 2.214 4.647 4.999 0 3.016-2.149 4.783-5.49 4.783-2.035 0-3.745-.57-4.877-1.392zM119.87 17.72c0 .968.208 1.586.89 1.586.405 0 .787-.133 1.087-.277l.162.617c-.786.968-1.816 1.513-3.063 1.513-1.49 0-2.45-.945-2.716-2.507-.866 1.199-2.276 2.446-4.265 2.446-2.172 0-3.605-1.391-3.605-3.669 0-2.409 1.652-3.44 3.687-4.2l4.103-1.562V9.27c0-1.646-.519-2.808-1.895-2.808-1.283 0-2.047.338-2.451.932.844.206 1.33.908 1.33 1.792 0 1.224-.81 2.023-2.057 2.023-1.167 0-1.906-.8-1.906-2.046 0-2.385 2.334-3.584 5.374-3.584 3.456 0 5.328 1.308 5.328 4.662v7.48h-.003zM79.213 7.454c0 1.391.786 2.276 1.977 2.276 1.306 0 2.126-.885 2.126-2.13 0-1.284-.739-2.024-1.79-2.024-1.468 0-2.416 1.079-3.479 4.214l.104-4.214h-.624l-4.854 1.54v.53l1.629 1.029v10.013c0 .992-.44 1.163-1.687 1.247v.932h7.71v-.932c-1.653-.146-2.278-.315-2.278-1.454v-7.3c.601-1.768 1.549-2.99 3.12-3.958l-1.954.23z" fill="#0C1447"/></g><defs><clipPath id="clip0_2_650"><path fill="#fff" transform="translate(.173 .66)" d="M0 0h144.396v20.628H0z"/></clipPath></defs></svg>