<svg width="181" height="30" fill="none" xmlns="http://www.w3.org/2000/svg"><g clip-path="url(#clip0_2_612)" fill="#0C1447"><path d="M58.407 13.669c0 1.772-.516 3.177-1.524 4.235-1.144 1.244-2.668 1.888-4.53 1.888-1.793 0-3.317-.645-4.55-1.91-1.233-1.267-1.861-2.855-1.861-4.72 0-1.864.628-3.43 1.86-4.718 1.234-1.266 2.758-1.91 4.552-1.91.897 0 1.77.16 2.578.506a5.031 5.031 0 011.973 1.404L55.76 9.618a3.841 3.841 0 00-1.48-1.105c-.605-.277-1.255-.392-1.95-.392-1.345 0-2.488.484-3.407 1.428-.92.966-1.39 2.186-1.39 3.637 0 1.45.47 2.67 1.39 3.637.941.966 2.062 1.427 3.407 1.427 1.233 0 2.242-.346 3.072-1.06.807-.713 1.278-1.68 1.412-2.923h-4.484v-1.519h5.986c.068.3.09.622.09.921zM60.963 19.493H59.37v-8.678h1.525v1.427h.067c.157-.46.493-.852.986-1.174.494-.322.987-.483 1.48-.483.47 0 .852.068 1.166.207l-.493 1.565c-.202-.092-.516-.115-.942-.115-.605 0-1.121.253-1.57.736-.448.507-.672 1.082-.672 1.727v4.788h.045zM68.832 10.539c1.166 0 2.107.322 2.78.966.672.645 1.009 1.52 1.009 2.647v5.34h-1.525v-1.196h-.067c-.65.99-1.525 1.496-2.623 1.496-.942 0-1.704-.276-2.332-.852-.627-.575-.941-1.266-.941-2.117 0-.898.336-1.612.986-2.141.65-.53 1.547-.806 2.646-.806.941 0 1.726.184 2.331.53v-.369c0-.575-.224-1.036-.65-1.45a2.2 2.2 0 00-1.524-.598c-.875 0-1.592.391-2.108 1.15l-1.39-.897c.762-1.151 1.906-1.704 3.408-1.704zm-2.04 6.307c0 .414.18.782.515 1.058.36.277.763.415 1.233.415.673 0 1.256-.253 1.794-.76.516-.506.785-1.105.785-1.795-.493-.392-1.189-.599-2.063-.599-.65 0-1.188.161-1.614.484-.448.322-.65.713-.65 1.197zM77.912 19.77c-1.099 0-2.063-.438-2.847-1.336-.785-.898-1.166-2.003-1.166-3.269s.381-2.37 1.166-3.268c.784-.898 1.748-1.335 2.847-1.335.628 0 1.188.138 1.704.414a3.05 3.05 0 011.188 1.082h.067l-.067-1.197V6.809h1.592v12.684H80.87v-1.197h-.067c-.269.437-.672.806-1.188 1.082a3.796 3.796 0 01-1.704.391zm.247-1.474c.784 0 1.412-.3 1.905-.875.516-.575.785-1.335.785-2.256 0-.897-.27-1.657-.785-2.255-.515-.599-1.143-.875-1.905-.875-.763 0-1.39.299-1.906.874-.516.599-.785 1.336-.785 2.256 0 .921.27 1.68.785 2.256.516.576 1.166.875 1.906.875zM86.364 7.822c0 .322-.112.599-.336.806-.224.23-.493.345-.785.345-.291 0-.583-.115-.785-.345a1.131 1.131 0 01-.336-.806c0-.299.112-.598.336-.805.225-.23.494-.346.785-.346.292 0 .583.115.785.346.224.207.336.483.336.805zm-.336 2.993v8.678h-1.592v-8.678h1.592zM91.812 19.77c-1.233 0-2.264-.438-3.071-1.313-.808-.875-1.211-1.98-1.211-3.315 0-1.312.381-2.417 1.166-3.291.784-.875 1.77-1.313 3.004-1.313 1.255 0 2.242.415 2.982 1.243.74.83 1.12 2.003 1.12 3.5l-.022.183h-6.636c.022.852.292 1.543.83 2.05.538.529 1.165.782 1.905.782 1.01 0 1.794-.53 2.377-1.565l1.412.713c-.381.737-.897 1.312-1.57 1.727a4.47 4.47 0 01-2.286.598zm-2.533-5.664h4.842a2.2 2.2 0 00-.717-1.496c-.426-.391-1.01-.598-1.727-.598-.605 0-1.12.184-1.546.575-.426.368-.718.875-.852 1.52zM97.26 10.815h1.524v1.197h.068a2.826 2.826 0 011.12-1.06c.516-.275 1.01-.413 1.57-.413 1.031 0 1.838.299 2.399.92.56.599.829 1.473.829 2.601v5.456h-1.591v-5.364c-.045-1.427-.74-2.117-2.085-2.117-.628 0-1.166.253-1.592.782-.426.53-.628 1.151-.628 1.888v4.788h-1.592v-8.678h-.022zM109.523 19.63c-.695 0-1.255-.206-1.726-.644-.448-.437-.695-1.035-.695-1.818V12.31h-1.48v-1.496h1.48V8.167h1.592v2.648h2.062v1.496h-2.062v4.328c0 .575.112.966.336 1.173.224.208.471.3.74.3.134 0 .247-.023.381-.046.112-.023.224-.07.336-.115l.494 1.45c-.426.16-.92.23-1.458.23zM119.747 19.493h-1.659l-4.327-12.684h1.748l3.386 10.29h.067l3.52-10.29h1.749l-4.484 12.684zM129.028 19.77c-1.233 0-2.264-.438-3.071-1.313-.807-.875-1.211-1.98-1.211-3.315 0-1.312.381-2.417 1.166-3.291.785-.875 1.771-1.313 3.004-1.313 1.256 0 2.242.415 2.982 1.243.74.83 1.121 2.003 1.121 3.5l-.022.183h-6.637c.023.852.292 1.543.83 2.05.538.529 1.166.782 1.906.782 1.008 0 1.793-.53 2.376-1.565l1.412.713c-.381.737-.896 1.312-1.569 1.727a4.472 4.472 0 01-2.287.598zm-2.533-5.664h4.842a2.195 2.195 0 00-.717-1.496c-.426-.391-1.009-.598-1.726-.598-.606 0-1.121.184-1.547.575-.426.368-.718.875-.852 1.52zM134.476 10.815h1.525v1.197h.067a2.826 2.826 0 011.121-1.06c.516-.275 1.009-.413 1.569-.413 1.032 0 1.839.299 2.399.92.561.599.83 1.473.83 2.601v5.456h-1.592v-5.364c-.045-1.427-.74-2.117-2.085-2.117-.628 0-1.166.253-1.592.782-.426.53-.628 1.151-.628 1.888v4.788h-1.591v-8.678h-.023zM146.74 19.63c-.695 0-1.256-.206-1.727-.644-.448-.437-.695-1.035-.695-1.818V12.31h-1.479v-1.496h1.479V8.167h1.592v2.648h2.063v1.496h-2.063v4.328c0 .575.112.966.336 1.173.225.208.471.3.74.3.135 0 .247-.023.381-.046.112-.023.224-.07.337-.115l.493 1.45c-.426.16-.897.23-1.457.23zM156.918 19.493h-1.525v-1.197h-.067a2.827 2.827 0 01-1.121 1.059 3.268 3.268 0 01-1.569.414c-1.032 0-1.839-.3-2.399-.92-.561-.6-.83-1.474-.83-2.602v-5.432h1.592v5.34c.045 1.427.74 2.118 2.085 2.118.628 0 1.166-.253 1.592-.783.426-.53.628-1.15.628-1.887v-4.788h1.591v8.678h.023zM160.438 19.493h-1.592v-8.678h1.525v1.427h.067c.157-.46.493-.852.986-1.174.494-.322.987-.483 1.48-.483.448 0 .852.068 1.166.207l-.493 1.565c-.202-.092-.516-.115-.942-.115-.605 0-1.121.253-1.569.736-.449.507-.673 1.082-.673 1.727v4.788h.045zM168.374 19.77c-1.233 0-2.264-.438-3.071-1.313-.807-.875-1.211-1.98-1.211-3.315 0-1.312.381-2.417 1.166-3.291.785-.875 1.771-1.313 3.004-1.313 1.256 0 2.242.415 2.982 1.243.74.83 1.121 2.003 1.121 3.5l-.022.183h-6.637c.023.852.292 1.543.83 2.05.538.529 1.166.782 1.906.782 1.009 0 1.793-.53 2.376-1.565l1.413.713c-.382.737-.897 1.312-1.57 1.727a4.47 4.47 0 01-2.287.598zm-2.533-5.664h4.843a2.2 2.2 0 00-.718-1.496c-.426-.391-1.009-.598-1.726-.598-.605 0-1.121.184-1.547.575-.426.368-.717.875-.852 1.52zM180.369 17.076c0 .76-.314 1.404-.964 1.91-.65.53-1.458.783-2.422.783-.852 0-1.591-.23-2.242-.69-.65-.46-1.098-1.06-1.39-1.796l1.413-.622c.202.53.516.921.897 1.22.403.3.829.438 1.3.438.516 0 .919-.115 1.278-.345.336-.23.516-.484.516-.806 0-.553-.404-.967-1.234-1.22l-1.457-.368c-1.636-.415-2.466-1.244-2.466-2.44 0-.783.314-1.428.942-1.911.627-.483 1.435-.714 2.399-.714.739 0 1.412.184 2.017.553.606.368 1.032.851 1.278 1.473l-1.412.598c-.157-.368-.426-.644-.785-.851-.359-.207-.762-.3-1.211-.3-.403 0-.784.116-1.121.323-.336.207-.493.483-.493.783 0 .506.449.851 1.368 1.058l1.278.346c1.681.414 2.511 1.266 2.511 2.578zM.116 3.195c0 1.68 1.346 3.062 2.982 3.062h15.873c1.637 0 2.982-1.381 2.982-3.062H.116z"/><path d="M18.59 24.626L5.677 1.653C4.847.203 3.03-.303 1.597.548l15.872 28.245a3.11 3.11 0 001.121-4.167z"/><path d="M1.596.548A3.095 3.095 0 00.52 4.715l12.914 22.95c.83 1.473 2.645 1.956 4.058 1.128L1.596.547z"/><path d="M21.953 3.195c0-1.68-1.345-3.061-2.982-3.061H3.098C1.462.134.116 1.515.116 3.195h21.837zM30.405.548c-1.412-.852-3.25-.345-4.058 1.128l-12.913 22.95c-.83 1.473-.337 3.338 1.098 4.166L30.405.549z"/><path d="M30.405.548L14.51 28.793c1.412.851 3.25.345 4.058-1.105L31.48 4.738c.83-1.474.337-3.361-1.076-4.19z"/></g><defs><clipPath id="clip0_2_612"><path fill="#fff" transform="translate(.116 .134)" d="M0 0h180.252v29.073H0z"/></clipPath></defs></svg>