<svg width="178" height="158" fill="none" xmlns="http://www.w3.org/2000/svg"><path d="M86.669 142.547l-21.48-12.248-25.513 14.453L61.156 157l25.513-14.453z" fill="#0C1447" stroke="#0C1447" stroke-width="1.4" stroke-miterlimit="10" stroke-linejoin="round"/><path d="M70.328 125.91a1.24 1.24 0 11-1.24-2.148 1.24 1.24 0 011.24 2.148z" fill="#0C1447"/><path d="M148.832 28.807c5.139 8.964 1.476 16.513-8.111 17.925-2.195.93-4.562 2.759-6.18 8.37-4.178 14.49-39.83-5.297-37.245-13.89 2.584-8.592 12.194-3.363 8.09-13.51-.047-.116-.083-.228-.126-.343-3.763-8.821 1.272-15.793 12.124-15.98" fill="#fff"/><path d="M148.832 28.807c5.139 8.964 1.476 16.513-8.111 17.925-2.195.93-4.562 2.759-6.18 8.37-4.178 14.49-39.83-5.297-37.245-13.89 2.584-8.592 12.194-3.363 8.09-13.51-.047-.116-.083-.228-.126-.343-3.763-8.821 1.272-15.793 12.124-15.98" stroke="#0C1447" stroke-width="1.8" stroke-miterlimit="10" stroke-linejoin="round"/><path d="M131.447 59.115a2.52 2.52 0 001.298-3.236c-1.437-3.56-5.895-11.327-18.335-15.375-16.478-5.361-17.827.248-17.016 3.191.81 2.944 15.969 19.6 31.989 16.167 0 0 1.031-.278 2.064-.747z" fill="#0C1447" stroke="#0C1447" stroke-width="1.8" stroke-miterlimit="10" stroke-linejoin="round"/><path d="M67.4 141.916c-3.26 1.883-7.57.525-9.624-3.033-2.054-3.558-1.075-7.968 2.186-9.851 3.261-1.883 7.57-.525 9.624 3.032 2.055 3.558 1.076 7.969-2.185 9.852z" fill="#ED6F78" stroke="#0C1447" stroke-width="1.8" stroke-miterlimit="10" stroke-linejoin="round"/><path d="M62.87 113.76s-.601 18.987-13.421 23.358c0 0 2.994-15.579 4.017-21.262" fill="#fff"/><path d="M62.87 113.76s-.604 18.989-13.421 23.358c0 0 2.994-15.579 4.017-21.262" fill="#FFEFDF"/><path d="M62.87 113.76s-.604 18.989-13.421 23.358c0 0 2.994-15.579 4.017-21.262" stroke="#0C1447" stroke-width="1.8" stroke-linejoin="round"/><path d="M107.07 37.61s-.9 10.412-16.608 17.856c-15.709 7.444-24.514 7.77-29.423 11.824-1.704 1.408-6.102 3.365-8.6 6.535-2.498 3.17-11.292 11.341-11.292 11.341s3.314 3.589 9.313-1.623c5.995-5.21 7.097-6.23 7.097-6.23l12.112-4.586s-2.69 6.135-6.787 9.097c-4.098 2.962-10.2 7.658-8.377 14.212 0 0-1.026.459-.098 10.384 0 0-15.163 15.073-18.934 30.213 0 0 5.917 2.26 10.797-8.578 0 0 9.283-13.595 25.393-20.323s14.712-5.912 14.712-5.912-2.027 6.035-10.726 13.389c-8.695 7.353-8.578 14.519-6.36 19.126 0 0 4.405-1.425 11.39-10.827 8.732-11.746 30.945-19.088 41.697-44.962 10.753-25.875 10.386-25.585 10.386-25.585s-5.224-11.793-25.692-15.352z" fill="#FFEFDF"/><path d="M107.07 37.61s-.9 10.412-16.608 17.856c-15.709 7.444-24.514 7.77-29.423 11.824-1.704 1.408-6.102 3.365-8.6 6.535-2.498 3.17-11.292 11.341-11.292 11.341s3.314 3.589 9.313-1.623c5.995-5.21 7.097-6.23 7.097-6.23l12.112-4.586s-2.69 6.135-6.787 9.097c-4.098 2.962-10.2 7.658-8.377 14.212 0 0-1.026.459-.098 10.384 0 0-15.163 15.073-18.934 30.213 0 0 5.917 2.26 10.797-8.578 0 0 9.283-13.595 25.393-20.323s14.712-5.912 14.712-5.912-2.027 6.035-10.726 13.389c-8.698 7.355-8.578 14.519-6.36 19.126 0 0 4.405-1.425 11.39-10.827 8.732-11.746 30.945-19.088 41.697-44.962 10.753-25.875 10.386-25.585 10.386-25.585s-5.224-11.793-25.692-15.352z" fill="#FFEFDF" stroke="#0C1447" stroke-width="1.8" stroke-linejoin="round"/><path d="M72.189 81.188s-2.678 3.532-6.745 6.54c-4.068 3.008-10.916 9.023-10.916 9.023M76.19 91.8s-2.868 3.876-6.93 5.54c-4.06 1.662-13.356 7.842-16.758 12.057" stroke="#0C1447" stroke-width="1.8" stroke-linejoin="round"/><path d="M86.66 101.451s1.79-.949 4.802-.782l-4.802.782z" fill="#fff"/><path d="M86.66 101.451s1.79-.949 4.802-.782" stroke="#0C1447" stroke-width="1.8" stroke-linejoin="round"/><path d="M69.832 131.2c4.609-4.753 7.439-3.183 7.439-3.183s-3.742 3.45-7.083 5.089l-.356-1.906zM43.908 86.765c4.252-3.069 2.672-4.406 2.672-4.406l-4.8 4.02s.709.689 2.128.386zM51.285 129.747s3.901.394 1.79 6.124l-3.23 1.671 1.44-7.795zM39.492 136.554c4.565-5.777.611-7.509.611-7.509s-3.241 5.398-3.513 7.855c.003-.002 1.527.501 2.902-.346z" fill="#0C1447"/><path d="M103.134 33.96s8.58-.4 16.316 3.464l-16.316-3.464z" fill="#fff"/><path d="M103.134 33.96s8.58-.4 16.316 3.464" stroke="#0C1447" stroke-width="1.8" stroke-miterlimit="10" stroke-linejoin="round"/></svg>