<svg viewBox="0 0 299 227" fill="none" xmlns="http://www.w3.org/2000/svg">
    <path d="M217.004 94L217.004 128.821" stroke="#4893F4" stroke-width="1.50877"/>
    <path d="M217.004 137.179L217.004 172" stroke="#4893F4" stroke-width="1.50877"/>
    <path d="M256.004 132.478H221.182" stroke="#4893F4" stroke-width="1.50877"/>
    <path d="M212.824 132.478H178.003" stroke="#4893F4" stroke-width="1.50877"/>
    <path d="M260.004 148.614L260.004 183.435" stroke="#4893F4" stroke-width="1.50877"/>
    <path d="M260.004 191.793L260.004 226.614" stroke="#4893F4" stroke-width="1.50877"/>
    <path d="M299.004 187.092H264.182" stroke="#4893F4" stroke-width="1.50877"/>
    <path d="M255.824 187.092H221.003" stroke="#4893F4" stroke-width="1.50877"/>
    <path d="M123.672 94L123.672 128.821" stroke="#4893F4" stroke-width="1.50877"/>
    <path d="M123.672 137.179L123.672 172" stroke="#4893F4" stroke-width="1.50877"/>
    <path d="M162.672 132.478H127.85" stroke="#4893F4" stroke-width="1.50877"/>
    <path d="M119.492 132.478H84.6708" stroke="#4893F4" stroke-width="1.50877"/>
    <path d="M80.3359 50.6667L80.3359 85.4881" stroke="#4893F4" stroke-width="1.50877"/>
    <path d="M80.3359 93.8452L80.3359 128.667" stroke="#4893F4" stroke-width="1.50877"/>
    <path d="M119.336 89.1443H84.5145" stroke="#4893F4" stroke-width="1.50877"/>
    <path d="M76.1562 89.1443H41.3348" stroke="#4893F4" stroke-width="1.50877"/>
    <path d="M37.0039 1.52588e-05L37.0039 34.8214" stroke="#4893F4" stroke-width="1.50877"/>
    <path d="M37.0039 43.1786L37.0039 78" stroke="#4893F4" stroke-width="1.50877"/>
    <path d="M76.0039 38.4777H41.1825" stroke="#4893F4" stroke-width="1.50877"/>
    <path d="M32.8242 38.4777H-1.99721" stroke="#4893F4" stroke-width="1.50877"/>
    <path d="M80.3359 137.333L80.3359 172.155" stroke="#4893F4" stroke-width="1.50877"/>
    <path d="M80.3359 180.512L80.3359 215.333" stroke="#4893F4" stroke-width="1.50877"/>
    <path d="M119.336 175.811H84.5145" stroke="#4893F4" stroke-width="1.50877"/>
    <path d="M76.1562 175.811H41.3348" stroke="#4893F4" stroke-width="1.50877"/>
    </svg>
