<svg width="100%" height="100%" viewBox="0 0 634 771" fill="none" xmlns="http://www.w3.org/2000/svg"><path d="M252 131v106.25M252 262.751v106.25M133 248.405h106.25M2 248h106.25M264.75 248.405H371M393 0v106.25M393 131.751v106.25M274 117.405h106.25M405.75 117.405H512M119 533v106.25M119 664.751v106.25M0 650.405h106.25M131.75 650.405H238M252 396v106.25M252 527.751v106.25M133 513.405h106.25M264.75 513.405H371M538 396v106.25M538 527.751v106.25M419 513.405h106.25M550.75 513.405H657M393 258v106.25M393 389.751v106.25M274 375.405h106.25M405.75 375.405H512" stroke="#F0F0F0" stroke-width="2"/></svg>
