<svg width="646" height="791" fill="none" xmlns="http://www.w3.org/2000/svg"><path d="M515 269v106.25M515 400.751v106.25M396 386.405h106.25M527.75 386.405H634M527 553v106.25M527 684.751v106.25M408 670.405h106.25M539.75 670.405H646M383 415v106.25M264 532.405h106.25M395.75 532.405H502M251 269v106.25M251 400.751v106.25M132 386.405h106.25M263.75 386.405H370M251 0v106.25M251 131.751v106.25M132 117.405h106.25M263.75 117.405H370M381 267.345v106.25M262 253h106.25M393.75 253H500M109 412v106.25M109 543.751v106.25M-10 529.405H96.25M121.75 529.405H228" stroke="#ECECEC" stroke-width="2"/></svg>