<svg viewBox="0 0 248 277" fill="none" xmlns="http://www.w3.org/2000/svg"><path d="M42 8v31.697M42 47.304V79M77.5 43.025H45.803M38.195 43.025H6.5M86 5.279v31.697M121.5 1H89.803M82.195 1H50.5M168 5.279v31.697M203.5 1h-31.696M164.195 1h-31.696M86 48v31.697M86 87.304V119M121.5 83.025H89.803M82.195 83.025H50.5M128.5 87v31.696M128.5 126.304V158M164 122.025h-31.696M124.695 122.025H92.999M85.5 206v31.696M85.5 245.304V277M121 241.025H89.303M81.695 241.025H50M168.5 124v31.696M168.5 163.304V195M204 159.025h-31.696M164.695 159.025h-31.696M212.5 86v31.696M212.5 125.304V157M248 121.025h-31.696M208.695 121.025h-31.696M43 87v31.696M43 126.304V158M78.5 122.025H46.803M39.195 122.025H7.5M86 124v31.696M86 163.304V195M121.5 159.025H89.803M82.195 159.025H50.5M43 166v31.696M43 205.304V237M78.5 201.025H46.803M39.195 201.025H7.5M168 48v31.697M168 87.304V119M203.5 83.025h-31.696M164.195 83.025h-31.696M125 8v31.697M125 47.304V79M160.5 43.025h-31.696M121.195 43.025H89.499M208 8v31.697M208 47.304V79M243.5 43.025h-31.696M204.195 43.025h-31.696M1 48v31.697M1 87.304V119M36.5 83.025H4.804M1 124v31.696M1 163.304V195M36.5 159.025H4.804M1 201v31.696M1 240.304V272M36.5 236.025H4.804" stroke="#ECECEC" stroke-width="2"/></svg>
