<svg viewBox="0 0 138 154" fill="none" xmlns="http://www.w3.org/2000/svg"><path d="M114 149v-18M114 127v-18M94 129h18M116 129h18M89 151v-18M69 153h18M91 153h18M43 151v-18M23 153h18M45 153h18M89 126v-18M89 104V86M69 106h18M91 106h18M65 102V84M65 80V62M45 82h18M67 82h18M113 104V86M113 82V64M93 84h18M115 84h18M89 84V66M89 62V44M69 64h18M91 64h18M113 60V42M113 38V20M93 40h18M115 40h18M43 126v-18M43 104V86M23 106h18M45 106h18M67 149v-18M67 127v-18M47 129h18M69 129h18M20 149v-18M20 127v-18M0 129h18M22 129h18M21 102V84M21 80V62M1 82h18M23 82h18M43 77V59M43 55V37M23 57h18M45 57h18M137 126v-18M137 104V86M117 106h18M137 84V66M137 62V44M117 64h18M137 40V22M137 18V0M117 20h18" stroke="#ECECEC" stroke-width="1.13"/></svg>
