<svg viewBox="0 0 244 272" fill="none" xmlns="http://www.w3.org/2000/svg"><path d="M201.5 264v-31.696M201.5 224.696V193M166 228.975h31.696M205.305 228.975h31.696M157.5 266.721v-31.697M122 271h31.696M161.305 271h31.696M75.5 266.721v-31.697M40 271h31.697M79.305 271H111M157.5 224v-31.696M157.5 184.696V153M122 188.975h31.696M161.305 188.975h31.696M114.5 180v-31.696M114.5 140.696V109M79 144.975h31.696M118.305 144.975h31.696M200.5 185v-31.696M200.5 145.696V114M165 149.975h31.696M204.305 149.975h31.696M157.5 148v-31.696M157.5 108.696V77M122 112.975h31.696M161.305 112.975h31.696M200.5 106V74.303M200.5 66.696V35M165 70.975h31.696M204.305 70.975h31.696M75.5 224v-31.696M75.5 184.696V153M40 188.975h31.697M79.305 188.975H111M118.5 264v-31.696M118.5 224.696V193M83 228.975h31.696M122.305 228.975h31.696M35.5 264v-31.696M35.5 224.696V193M0 228.975h31.697M39.305 228.975H71M36.5 181v-31.696M36.5 141.696V110M1 145.975h31.697M40.305 145.975H72M75.5 136v-31.696M75.5 96.696V65M40 100.975h31.697M79.305 100.975H111M242.5 224v-31.696M242.5 184.696V153M207 188.975h31.696M242.5 148v-31.696M242.5 108.696V77M207 112.975h31.696M242.5 71V39.303M242.5 31.696V0M207 35.975h31.696" stroke="#ECECEC" stroke-width="2"/></svg>
