<svg viewBox="0 0 244 272" fill="none" xmlns="http://www.w3.org/2000/svg"><path d="M201.5 8v31.697M201.5 47.304V79M166 43.025h31.696M205.305 43.025h31.696M157.5 5.279v31.697M122 1h31.696M161.305 1h31.696M75.5 5.279v31.697M40 1h31.697M79.305 1H111M157.5 48v31.697M157.5 87.304V119M122 83.025h31.696M161.305 83.025h31.696M114.5 92v31.696M114.5 131.304V163M79 127.025h31.696M118.305 127.025h31.696M200.5 87v31.696M200.5 126.304V158M165 122.025h31.696M204.305 122.025h31.696M157.5 124v31.696M157.5 163.304V195M122 159.025h31.696M161.305 159.025h31.696M200.5 166v31.696M200.5 205.304V237M165 201.025h31.696M204.305 201.025h31.696M75.5 48v31.697M75.5 87.304V119M40 83.025h31.697M79.305 83.025H111M118.5 8v31.697M118.5 47.304V79M83 43.025h31.696M122.305 43.025h31.696M35.5 8v31.697M35.5 47.304V79M0 43.025h31.697M39.305 43.025H71M36.5 91v31.696M36.5 130.304V162M1 126.025h31.697M40.305 126.025H72M75.5 136v31.696M75.5 175.304V207M40 171.025h31.697M79.305 171.025H111M242.5 48v31.697M242.5 87.304V119M207 83.025h31.696M242.5 124v31.696M242.5 163.304V195M207 159.025h31.696M242.5 201v31.696M242.5 240.304V272M207 236.025h31.696" stroke="#ECECEC" stroke-width="2"/></svg>
