<svg width="79" height="69" viewBox="0 0 79 69" fill="none" xmlns="http://www.w3.org/2000/svg">
<path d="M67.6149 50.7866C67.6408 41.6687 54.9054 34.2409 39.1697 34.1963C23.434 34.1517 10.6567 41.5071 10.6308 50.6251C10.6049 59.743 23.3404 67.1707 39.0761 67.2153C54.8118 67.2599 67.589 59.9046 67.6149 50.7866Z" fill="#0C1447" stroke="#0C1447" stroke-width="1.8" stroke-miterlimit="10" stroke-linejoin="round"/>
<path d="M50.9076 61.1468C65.6992 61.1468 77.6902 48.9938 77.6902 34.0023C77.6902 19.0108 65.6992 6.85779 50.9076 6.85779C36.116 6.85779 24.125 19.0108 24.125 34.0023C24.125 48.9938 36.116 61.1468 50.9076 61.1468Z" fill="#FFEFDF" stroke="#0C1447" stroke-width="1.8" stroke-miterlimit="10" stroke-linejoin="round"/>
<path d="M5 1L21 10" stroke="#0C1447" stroke-width="1.8" stroke-miterlimit="10" stroke-linecap="round" stroke-linejoin="round"/>
<path d="M1 12L14 20" stroke="#0C1447" stroke-width="1.8" stroke-miterlimit="10" stroke-linecap="round" stroke-linejoin="round"/>
<path d="M43.525 32.44C44.17 31.765 44.965 31.435 45.895 31.435C46.825 31.435 47.605 31.765 48.25 32.44C48.895 33.1 49.225 33.91 49.225 34.855C49.225 35.8 48.895 36.61 48.25 37.27C47.605 37.93 46.825 38.26 45.895 38.26C44.965 38.26 44.17 37.93 43.525 37.27C42.88 36.61 42.565 35.8 42.565 34.855C42.565 33.91 42.88 33.1 43.525 32.44ZM40.66 34.855C40.66 36.31 41.17 37.57 42.175 38.605C43.195 39.64 44.44 40.15 45.895 40.15C47.35 40.15 48.595 39.64 49.615 38.605C50.635 37.57 51.145 36.31 51.145 34.855C51.145 33.385 50.635 32.14 49.615 31.105C48.61 30.07 47.365 29.545 45.895 29.545C44.425 29.545 43.18 30.07 42.175 31.105C41.17 32.14 40.66 33.385 40.66 34.855ZM57.1466 31.375C58.0466 31.375 58.5416 32.17 58.5416 33.01C58.5416 33.865 58.0316 34.615 57.0866 34.615H55.0166V31.375H57.1466ZM57.9116 36.25C58.7666 36.115 59.4266 35.74 59.8616 35.125C60.3116 34.51 60.5366 33.805 60.5366 33.01C60.5366 32.095 60.2516 31.3 59.6816 30.655C59.1266 29.995 58.3016 29.665 57.2366 29.665H53.0966V40H55.0166V36.325H55.8116L58.2416 40H60.5516L57.9116 36.25Z" fill="#0C1447"/>
</svg>
