<svg width="137" height="278" viewBox="0 0 137 278" fill="none" xmlns="http://www.w3.org/2000/svg">
<path d="M67.6459 39.4549L-3.92448 81.0452L-71.7168 42.5904L-0.152863 1L67.6459 39.4549Z" fill="white" stroke="#0C1447" stroke-width="2" stroke-miterlimit="10" stroke-linejoin="round"/>
<path d="M67.6472 39.455L67.4223 118.729L-4.1416 160.319L-3.92315 81.0453L67.6472 39.455Z" fill="#FFEFDF" stroke="#0C1447" stroke-width="2" stroke-miterlimit="10" stroke-linejoin="round"/>
<path d="M135.58 156.047L64.0165 197.631L-3.78223 159.176L67.7881 117.585L135.58 156.047Z" fill="#EAEDFF" stroke="#0C1447" stroke-width="2" stroke-miterlimit="10" stroke-linejoin="round"/>
<path d="M135.581 156.047L135.362 235.314L63.792 276.905L64.0169 197.631L135.581 156.047Z" fill="white" stroke="#0C1447" stroke-width="2" stroke-miterlimit="10" stroke-linejoin="round"/>
<path d="M64.0172 197.631L63.7923 276.905L-4 238.444L-3.78155 159.176L64.0172 197.631Z" fill="#1F2656" stroke="#0C1447" stroke-width="2" stroke-miterlimit="10" stroke-linejoin="round"/>
<path d="M6.54297 96.5492L45.6468 73.8232" stroke="#0C1447" stroke-width="2" stroke-miterlimit="10" stroke-linecap="round" stroke-linejoin="round"/>
<path d="M6.54297 110.877L30.0078 97.2432" stroke="#0C1447" stroke-width="2" stroke-miterlimit="10" stroke-linecap="round" stroke-linejoin="round"/>
<path d="M103.654 189.149L103.564 221.584L74.2783 238.598L74.3747 206.163L103.654 189.149Z" fill="#0C1447" stroke="#0C1447" stroke-width="2" stroke-miterlimit="10" stroke-linejoin="round"/>
<path d="M110.972 197.046L124.889 188.957" stroke="#0C1447" stroke-width="2" stroke-miterlimit="10" stroke-linecap="round" stroke-linejoin="round"/>
<path d="M110.972 206.311L124.889 198.222" stroke="#0C1447" stroke-width="2" stroke-miterlimit="10" stroke-linecap="round" stroke-linejoin="round"/>
<path d="M91.0149 139.285C91.0312 133.536 83.0013 128.853 73.0796 128.825C63.1578 128.797 55.1015 133.435 55.0852 139.183C55.0689 144.932 63.0988 149.615 73.0205 149.643C82.9423 149.671 90.9986 145.034 91.0149 139.285Z" fill="#0C1447" stroke="#0C1447" stroke-width="2" stroke-miterlimit="10" stroke-linejoin="round"/>
<path d="M77.1504 145.98C87.8741 145.98 96.5673 137.287 96.5673 126.563C96.5673 115.839 87.8741 107.146 77.1504 107.146C66.4267 107.146 57.7334 115.839 57.7334 126.563C57.7334 137.287 66.4267 145.98 77.1504 145.98Z" fill="white" stroke="#0C1447" stroke-width="2" stroke-miterlimit="10" stroke-linejoin="round"/>
</svg>
