<svg width="366" height="312" fill="none" xmlns="http://www.w3.org/2000/svg"><path d="M265.242 299.989l-168.6-96.529c-9.125-5.228-16.948-12.509-22.56-21.402-7.66-12.142-12.381-28.967 4.066-44.084 0 0 16.51-19.437 52.245 6.033 9.492 6.764 19.366 12.974 29.462 18.8l184.228 106.259s24.315 8.1 17.475 19.485c-3.207 5.339-12.642 12.678-26.047 17.618-23.123 8.521-48.882 6.064-70.269-6.18z" fill="#0C1447"/><path d="M135.305 188.822c.031-11.027-7.725-24.466-17.338-30.012-4.735-2.731-9.028-3.032-12.173-1.319a8.17 8.17 0 00-1.187.783l-12.487 8.238a8.205 8.205 0 00-1.657 1.094l-.013.008v.005c-2.401 2.04-3.845 5.555-3.863 10.283-.031 11.035 7.725 24.478 17.338 30.02 4.368 2.519 8.363 2.971 11.424 1.678l15.292-9.88c2.883-1.903 4.651-5.657 4.664-10.898zM281.119 272.576c.031-11.027-7.726-24.466-17.338-30.012-4.736-2.731-9.028-3.032-12.173-1.319a8.116 8.116 0 00-1.187.783l-12.488 8.238a8.279 8.279 0 00-1.657 1.093l-.013.009v.005c-2.401 2.04-3.845 5.555-3.863 10.283-.031 11.035 7.726 24.478 17.338 30.02 4.368 2.519 8.364 2.97 11.425 1.678l15.291-9.88c2.879-1.908 4.651-5.662 4.665-10.898z" fill="#fff" stroke="#0C1447" stroke-width="2" stroke-miterlimit="10" stroke-linecap="round" stroke-linejoin="round"/><path d="M265.229 259.894L96.642 163.373c-9.125-5.228-16.948-12.509-22.56-21.402-7.66-12.142-12.381-28.967 4.066-44.084 0 0 16.51-19.437 52.245 6.033 9.492 6.764 19.366 12.975 29.462 18.8l184.228 106.259s24.315 8.1 17.475 19.485c-3.101 5.162-12.022 12.195-24.722 17.118-23.442 9.087-49.786 6.803-71.607-5.688z" fill="#fff" stroke="#0C1447" stroke-width="2" stroke-miterlimit="10" stroke-linejoin="round"/><path d="M265.242 254.644l-168.6-96.529c-9.125-5.228-16.948-12.51-22.56-21.402-7.66-12.142-12.381-28.968 4.066-44.084 0 0 16.51-19.437 52.245 6.033 9.492 6.764 19.366 12.974 29.462 18.8L344.083 223.72s24.315 8.101 17.475 19.486c-3.207 5.338-12.642 12.678-26.047 17.618-23.123 8.521-48.882 6.064-70.269-6.18z" fill="#FFEFDF" stroke="#0C1447" stroke-width="2" stroke-miterlimit="10" stroke-linejoin="round"/><path d="M116.807 136.435c.002-.636-.887-1.154-1.986-1.157-1.098-.003-1.99.51-1.992 1.145-.002.636.887 1.154 1.986 1.157 1.098.003 1.99-.51 1.992-1.145zM129.492 129.24c.002-.635-.887-1.153-1.986-1.156-1.098-.003-1.99.509-1.992 1.145-.002.636.887 1.153 1.986 1.157 1.098.003 1.99-.51 1.992-1.146zM133.469 146.689c.002-.635-.887-1.153-1.985-1.156-1.099-.003-1.991.51-1.992 1.145-.002.636.887 1.154 1.985 1.157 1.099.003 1.991-.51 1.992-1.146zM146.155 139.424c.001-.636-.888-1.154-1.986-1.157-1.099-.003-1.99.51-1.992 1.146-.002.635.887 1.153 1.985 1.156 1.099.003 1.991-.51 1.993-1.145z" fill="#0C1447"/><path d="M321.97 115.894c-.253-1.562-.293-5.36 4.766-6.914a3.827 3.827 0 014.39 1.695c3.995 6.636 16.859 25.404 33.874 23.974 0 0-28.745 9.637-42.663-17.644a3.81 3.81 0 01-.367-1.111z" fill="#FFEFDF" stroke="#0C1447" stroke-width="2" stroke-miterlimit="10" stroke-linecap="round" stroke-linejoin="round"/><path d="M283.661 41.024s4.833-22.014 13.374-21.606c8.54.407 9.342 14.85 17.479 19.592 12.253 7.135 14.636 16.984 4.877 25.315" stroke="#0C1447" stroke-width="2" stroke-miterlimit="10" stroke-linecap="round" stroke-linejoin="round"/><path d="M260.321 143.537s1.794 5.976-.997 10.159c-2.791 4.183-3.074 19.601-1.94 23.58 1.134 3.984-2.844 18.441 5.13 24.214 7.973 5.772 32.687 3.983 27.703-10.558-4.983-14.536-1.395-52.976-1.395-52.976l-28.501 5.581z" fill="#fff" stroke="#0C1447" stroke-width="2" stroke-miterlimit="10" stroke-linecap="round" stroke-linejoin="round"/><path d="M258.159 176.608s1.041-16.356 10.459-19.552c9.418-3.2 15.818-17.126 15.818-17.126l-23.871 4.639s1.896 5.387-1.241 9.123c-3.136 3.736-1.165 22.916-1.165 22.916z" fill="#0C1447" stroke="#0C1447" stroke-width="2" stroke-miterlimit="10" stroke-linecap="round" stroke-linejoin="round"/><path d="M167.655 107.209c15.633 18.725 34.256 28.038 50.889 32.774 0 0 4.532 22.487 3.796 29.826-.735 7.34-5.918 23.483-1.86 30.822 4.062 7.34-4.589 16.144 1.94 21.283 5.537 4.36 16.687 11.093 28.235 4.745 3.602-1.978 5.077-6.409 3.349-10.136-2.175-4.684-1.143-13.36.386-18.171 2.569-8.074 6.17-53.787 6.17-53.787 12.851 2.935 41.458-11.452 41.458-11.452 24.603 11.009 25.334 30.088 27.54 64.947 2.201 34.858 22.764 38.161 29.373 34.124 6.609-4.037 11.748-6.972-6.609-17.614-18.357-10.641-6.977-90.261-16.155-103.47-9.179-13.208 0-21.65-16.155-45.863-16.156-24.217-36.351-24.217-36.351-24.217-5.138-11.377-16.695-21.235-28.638-27.52C228.391-.51 192.475-9.704 150.007 25.243c-32.89 27.064-11.016 94.299-10.281 99.071" fill="#fff"/><path d="M167.655 107.209c15.633 18.725 34.256 28.038 50.889 32.774 0 0 4.532 22.487 3.796 29.826-.735 7.34-5.918 23.483-1.86 30.822 4.062 7.34-4.589 16.144 1.94 21.283 5.537 4.36 16.687 11.093 28.235 4.745 3.602-1.978 5.077-6.409 3.349-10.136-2.175-4.684-1.143-13.36.386-18.171 2.569-8.074 6.17-53.787 6.17-53.787 12.851 2.935 41.458-11.452 41.458-11.452 24.603 11.009 25.334 30.088 27.54 64.947 2.201 34.858 22.764 38.161 29.373 34.124 6.609-4.037 11.748-6.972-6.609-17.614-18.357-10.641-6.977-90.261-16.155-103.47-9.179-13.208 0-21.65-16.155-45.863-16.156-24.217-36.351-24.217-36.351-24.217-5.138-11.377-16.695-21.235-28.638-27.52C228.391-.51 192.475-9.704 150.007 25.243c-32.89 27.064-11.016 94.299-10.281 99.071" stroke="#0C1447" stroke-width="2" stroke-miterlimit="10" stroke-linecap="round" stroke-linejoin="round"/><path d="M214.092 66.18s-15.491 15.466-8.859 22.092c6.631 6.627.274 21.261 12.159 24.577 11.881 3.315 11.332 13.607 21.002 9.012 9.67-4.595 16.58-18.676 16.58-18.676s-1.244 34.474 47.044 29.937" stroke="#0C1447" stroke-width="2" stroke-miterlimit="10" stroke-linecap="round" stroke-linejoin="round"/><path d="M166.898 104.845s7.929 26.692 7.929 29.711c0 3.019.979 16.883 4.536 21.951 6.516 9.278 24.222 8.911 24.222-6.533v-17.45" fill="#fff"/><path d="M166.898 104.845s7.929 26.692 7.929 29.711c0 3.019.979 16.883 4.536 21.951 6.516 9.278 24.222 8.911 24.222-6.533v-17.45" stroke="#0C1447" stroke-width="2" stroke-miterlimit="10" stroke-linecap="round" stroke-linejoin="round"/><path d="M216.48 112.552s8.19 3.275 10.498 11.61c2.308 8.336 21.369-3.634 21.369-3.634s2.064 10.907 8.811 14.099l3.402 9.937s15.761 1.585 39.73-10.738c0 0-43.774 4.068-45.32-30.65 0 0-13.67 22.708-22.432 19.627.008.005-12.891-11.221-16.058-10.251zM330.089 180.494c-1.391-19.003-10.139-32.867-10.139-32.867 7.353 11.465 8.168 27.551 9.612 50.441 2.202 34.859 22.765 38.161 29.374 34.124-29.192-5.6-27.456-32.694-28.847-51.698z" fill="#0C1447" stroke="#0C1447" stroke-width="2" stroke-miterlimit="10" stroke-linecap="round" stroke-linejoin="round"/><path d="M219.461 141.249l-.917-12.403a6.197 6.197 0 00-4.664-6.007c-12.474-3.156-46.238-14.386-54.929-44.982l7.947 29.211s16.421 23.416 52.563 34.181z" fill="#0C1447"/><path d="M297.442 128.023c-.252-1.563-.292-5.361 4.767-6.915a3.824 3.824 0 014.389 1.696c3.996 6.635 16.86 25.404 33.875 23.974 0 0-28.745 9.636-42.663-17.644a3.607 3.607 0 01-.368-1.111z" fill="#FFEFDF" stroke="#0C1447" stroke-width="2" stroke-miterlimit="10" stroke-linecap="round" stroke-linejoin="round"/><path d="M283.661 41.023s-12.239-1.885-26.277 8.455" stroke="#0C1447" stroke-width="2" stroke-miterlimit="10" stroke-linecap="round" stroke-linejoin="round"/><path d="M339.44 146.839s-6.303 6.184-15.969 7.313l-2.737-5.989c0 .004 10.241.801 18.706-1.324z" fill="#0C1447"/><path d="M287.869 41.865s24.072 1.536 35.948 17.295l-4.426 5.165c0-.004-9.594-18.153-31.522-22.46z" fill="#0C1447" stroke="#0C1447" stroke-width="2" stroke-miterlimit="10" stroke-linejoin="round"/><path d="M284.67 229.384c.002-.635-.887-1.153-1.986-1.156-1.098-.003-1.99.509-1.992 1.145-.002.636.887 1.153 1.986 1.157 1.098.003 1.99-.51 1.992-1.146zM297.355 222.195c.002-.635-.887-1.153-1.986-1.156-1.098-.003-1.99.509-1.992 1.145-.002.636.887 1.153 1.986 1.157 1.098.003 1.99-.51 1.992-1.146zM301.333 239.639c.002-.635-.887-1.153-1.986-1.156-1.098-.003-1.99.509-1.992 1.145-.002.636.887 1.153 1.986 1.156 1.098.004 1.99-.509 1.992-1.145zM314.018 232.375c.002-.636-.887-1.153-1.986-1.157-1.098-.003-1.99.51-1.992 1.146-.002.635.887 1.153 1.986 1.156 1.098.003 1.99-.509 1.992-1.145z" fill="#0C1447"/><path d="M163.425 91.438l8.908 34.403c1.24 4.794-.881 9.92-5.285 12.191a10.67 10.67 0 01-6.13 1.115c-12.758-1.456-49.516-13.664-58.632-33.101 0 0-3.5-12.222 4.425-23.346 2.175-3.054 6.525-3.546 9.356-1.093l26.104 17.007" fill="#fff"/><path d="M163.425 91.438l8.908 34.403c1.24 4.794-.881 9.92-5.285 12.191a10.67 10.67 0 01-6.13 1.115c-12.758-1.456-49.516-13.664-58.632-33.101 0 0-3.5-12.222 4.425-23.346 2.175-3.054 6.525-3.546 9.356-1.093l26.104 17.007M1 71.518l53.245 30.485M25.488 97.268L49.9 111.242" stroke="#0C1447" stroke-width="2" stroke-miterlimit="10" stroke-linecap="round" stroke-linejoin="round"/><path d="M290.873 104.319s13.586-10.699 21.302-12.08c7.717-1.38 7.256-5.524 13.356-8.286 6.1-2.762 10.592-6.33 16.005-8.056v3.895s-1.382 4.12-1.205 5.998c.177 1.881-1.794 10.654-8.155 14.058-6.361 3.404-10.933 5.91-15.146-6.267l-1.971 1.252s-3.047 12.806-6.631 17.104-10.662 8.238-13.799 6.268c-3.131-1.965-3.756-13.886-3.756-13.886z" fill="#0C1447" stroke="#0C1447" stroke-width="2" stroke-miterlimit="10" stroke-linecap="round" stroke-linejoin="round"/><path d="M293.309 106.342L256.76 90.097M342.094 75.896l-21.298-9.464" stroke="#0C1447" stroke-width="2" stroke-miterlimit="10" stroke-linecap="round" stroke-linejoin="round"/><path d="M90.928 176.086c.407.35.864.735 1.364 1.177.913.788 1.958 1.713 3.136 2.776l-1.32 1.965c-.363.536-.226 1.488.302 2.143.163.199.319.332.483.425.447.256.92.203 1.187-.2l1.559-2.315c.992.917 2.002 1.868 3.065 2.882l-3.428 4.489c-.39.513-.28 1.478.248 2.155.172.217.34.359.51.456.424.244.876.208 1.15-.15l3.704-4.856.115.11c.966.934 1.958 1.917 2.982 2.94l-3.925 5.692c-.377.527-.239 1.496.288 2.151.159.195.323.332.487.43.443.257.904.203 1.178-.186l4.102-5.94c.97.987 1.914 1.96 2.88 2.97l-2.437 3.036c-.403.496-.31 1.461.213 2.152.19.234.359.376.527.473.416.239.855.208 1.134-.137l2.667-3.311.146.159a268.83 268.83 0 014.075 4.422l.877.974c-.093.155-.195.292-.296.443-2.685 3.758-7.544 3.909-12.559 1.014-2.507-1.448-5.054-3.652-7.38-6.552-5.555-6.901-8.204-15.661-7.034-21.787zM105.582 170.451c2.502 1.443 5.045 3.648 7.371 6.543 6.148 7.644 8.735 17.551 6.529 23.655a311.22 311.22 0 00-4.616-5.037l1.98-2.413c.337-.398.182-1.279-.341-1.965a2.194 2.194 0 00-.607-.558c-.367-.212-.722-.212-.939.049l-2.197 2.665a276.82 276.82 0 00-3.092-3.21l4.107-5.98c.301-.447.101-1.341-.435-1.996a2.035 2.035 0 00-.553-.487c-.39-.226-.767-.208-.975.093l-4.266 6.232a226.417 226.417 0 00-2.945-2.917l3.171-4.099c.324-.411.155-1.297-.376-1.97a2.108 2.108 0 00-.589-.535c-.377-.217-.74-.213-.948.062l-3.433 4.435a317.576 317.576 0 00-3.239-3.059l3.283-4.953c.297-.451.097-1.346-.448-2.005a2.048 2.048 0 00-.54-.469c-.394-.23-.775-.213-.979.088l-3.517 5.317a237.229 237.229 0 00-5.05-4.454 9.87 9.87 0 011.085-2.014c2.685-3.758 7.549-3.908 12.559-1.018zM235.656 259.751c.408.35.864.735 1.365 1.178a205.87 205.87 0 013.136 2.775l-1.32 1.966c-.364.535-.226 1.487.301 2.142.164.199.319.332.483.425.447.257.921.204 1.187-.199l1.559-2.315c.992.916 2.002 1.868 3.066 2.882l-3.429 4.488c-.39.514-.279 1.478.248 2.156.173.217.341.358.509.456.426.243.878.208 1.152-.151l3.703-4.856.116.111c.965.934 1.958 1.917 2.981 2.939l-3.925 5.693c-.376.526-.239 1.496.288 2.151.159.195.323.332.487.429.443.257.904.204 1.179-.186l4.102-5.94c.97.987 1.913 1.961 2.879 2.97l-2.436 3.037c-.404.496-.311 1.461.212 2.151.191.235.359.376.527.474.417.239.855.208 1.134-.137l2.667-3.312.146.16a273.273 273.273 0 014.076 4.422c.287.319.584.651.877.974-.093.155-.195.292-.297.442-2.685 3.759-7.544 3.909-12.558 1.014-2.508-1.447-5.055-3.652-7.38-6.551-5.555-6.901-8.204-15.661-7.035-21.788zM250.314 254.122c2.503 1.443 5.046 3.647 7.371 6.542 6.149 7.645 8.736 17.551 6.53 23.655a311.22 311.22 0 00-4.616-5.037l1.98-2.413c.337-.398.182-1.279-.341-1.965a2.208 2.208 0 00-.607-.558c-.368-.212-.722-.212-.939.049l-2.197 2.665a276.581 276.581 0 00-3.092-3.209l4.106-5.981c.301-.447.102-1.341-.434-1.996a2.038 2.038 0 00-.554-.487c-.39-.226-.766-.208-.974.093l-4.266 6.233a220.38 220.38 0 00-2.946-2.918l3.172-4.098c.323-.412.155-1.297-.377-1.97a2.058 2.058 0 00-.593-.536c-.377-.217-.74-.212-.948.062l-3.433 4.435a322.484 322.484 0 00-3.238-3.058l3.282-4.954c.297-.451.097-1.345-.447-2.005a2.067 2.067 0 00-.541-.469c-.394-.23-.775-.212-.979.089l-3.517 5.316a233.67 233.67 0 00-5.05-4.453 9.858 9.858 0 011.085-2.014c2.685-3.763 7.549-3.913 12.563-1.018z" fill="#0C1447"/><circle cx="212.5" cy="60.5" r="22.5" fill="#fff"/><circle cx="265.5" cy="55.5" r="22.5" fill="#fff"/></svg>