<svg viewBox="0 0 63 61" fill="none" xmlns="http://www.w3.org/2000/svg">
<circle cx="27" cy="33" r="27" fill="#EAF3FE" stroke="#4893F4" stroke-width="1.73196" stroke-dasharray="9.95 1.99"/>
<circle cx="27" cy="6" r="6" fill="#EAF3FE" stroke="#4893F4" stroke-width="1.73196"/>
<circle cx="55" cy="33" r="7" fill="#4893F4" stroke="#4893F4" stroke-width="1.73196"/>
<path d="M38.5743 30.1768L36.5375 29.9179C36.3696 29.4012 36.1627 28.9028 35.9211 28.4294L37.1789 26.8098C37.6881 26.1544 37.6285 25.2293 37.0467 24.6659L35.3404 22.9597C34.7716 22.3725 33.8464 22.314 33.1899 22.8221L31.5724 24.0798C31.099 23.8383 30.6006 23.6313 30.0828 23.4634L29.8238 21.43C29.7263 20.6143 29.034 20 28.2139 20H25.7872C24.967 20 24.2748 20.6143 24.1773 21.4268L23.9183 23.4634C23.4005 23.6313 22.9021 23.8372 22.4287 24.0798L20.8101 22.8221C20.1558 22.314 19.2306 22.3725 18.6661 22.9543L16.9598 24.6594C16.3726 25.2293 16.313 26.1544 16.8222 26.8109L18.08 28.4294C17.8373 28.9028 17.6315 29.4012 17.4636 29.9179L15.4301 30.1768C14.6143 30.2743 14 30.9666 14 31.7867V34.2133C14 35.0334 14.6143 35.7257 15.4268 35.8232L17.4636 36.0821C17.6315 36.5988 17.8384 37.0972 18.08 37.5706L16.8222 39.1902C16.313 39.8456 16.3726 40.7708 16.9544 41.3341L18.6607 43.0403C19.2306 43.6264 20.1547 43.6849 20.8112 43.1768L22.4298 41.9191C22.9032 42.1618 23.4016 42.3687 23.9183 42.5355L24.1773 44.5678C24.2748 45.3857 24.967 46 25.7872 46H28.2139C29.034 46 29.7263 45.3858 29.8238 44.5733L30.0828 42.5366C30.5995 42.3687 31.0979 42.1618 31.5713 41.9202L33.191 43.1779C33.8464 43.6871 34.7716 43.6275 35.335 43.0458L37.0413 41.3395C37.6285 40.7697 37.6881 39.8456 37.1789 39.1891L35.9211 37.5706C36.1638 37.0972 36.3707 36.5988 36.5375 36.0821L38.5699 35.8232C39.3857 35.7257 40 35.0334 40 34.2133V31.7867C40.0011 30.9666 39.3868 30.2743 38.5743 30.1768ZM27.0005 38.4167C24.0137 38.4167 21.5836 35.9868 21.5836 33C21.5836 30.0133 24.0137 27.5833 27.0005 27.5833C29.9874 27.5833 32.4174 30.0133 32.4174 33C32.4174 35.9868 29.9874 38.4167 27.0005 38.4167Z" fill="#4893F4"/>
</svg>
