<svg viewBox="0 0 66 66" fill="none" xmlns="http://www.w3.org/2000/svg">
<g clip-path="url(#clip0_4276_3556)">
<path d="M2 2H46.0278V59.3193H16.4502L2 44.6399V2Z" fill="#D2E5FD"/>
<path d="M16.4502 59.3193H46.0278V2H2V44.6399M16.4502 59.3193L2 44.6399M16.4502 59.3193V44.6399H2" stroke="#4893F4" stroke-width="1.24257" stroke-dasharray="7.14 1.43"/>
<path d="M5.91797 17.8263H21.0293" stroke="#4893F4" stroke-width="1.43876"/>
<path d="M26.7773 17.8263H41.8886" stroke="#4893F4" stroke-width="1.43876"/>
<path d="M5.91797 11.3519H21.0293" stroke="#4893F4" stroke-width="1.43876"/>
<path d="M26.7773 11.3519H41.8886" stroke="#4893F4" stroke-width="1.43876"/>
<path d="M5.92188 30.7753H20.8788" stroke="#4893F4" stroke-width="1.43876"/>
<path d="M5.92188 24.3008H21.0332" stroke="#4893F4" stroke-width="1.43876"/>
<path d="M26.7852 24.3008H41.8964" stroke="#4893F4" stroke-width="1.43876"/>
<ellipse cx="45.3216" cy="49.9696" rx="16.0521" ry="16.4025" fill="#EAF3FE"/>
<mask id="path-11-inside-1_4276_3556" fill="white">
<path d="M30.4438 56.1245C31.6351 59.1315 33.6723 61.7101 36.2978 63.5341C38.9233 65.358 42.0191 66.3455 45.1938 66.3716C48.3685 66.3977 51.4795 65.4613 54.1333 63.6807C56.7872 61.9001 58.8647 59.3554 60.1032 56.3683L58.9378 55.8638C57.797 58.6153 55.8832 60.9594 53.4386 62.5996C50.994 64.2398 48.1284 65.1024 45.204 65.0783C42.2796 65.0543 39.4279 64.1447 37.0094 62.4645C34.591 60.7844 32.7144 58.4091 31.617 55.6392L30.4438 56.1245Z"/>
</mask>
<path d="M30.4438 56.1245C31.6351 59.1315 33.6723 61.7101 36.2978 63.5341C38.9233 65.358 42.0191 66.3455 45.1938 66.3716C48.3685 66.3977 51.4795 65.4613 54.1333 63.6807C56.7872 61.9001 58.8647 59.3554 60.1032 56.3683L58.9378 55.8638C57.797 58.6153 55.8832 60.9594 53.4386 62.5996C50.994 64.2398 48.1284 65.1024 45.204 65.0783C42.2796 65.0543 39.4279 64.1447 37.0094 62.4645C34.591 60.7844 32.7144 58.4091 31.617 55.6392L30.4438 56.1245Z" fill="#EAF3FE" stroke="#4893F4" stroke-width="1.215" mask="url(#path-11-inside-1_4276_3556)"/>
<mask id="path-12-inside-2_4276_3556" fill="white">
<path d="M30.4438 43.8147C31.6351 40.8077 33.6723 38.2291 36.2978 36.4051C38.9233 34.5812 42.0191 33.5937 45.1938 33.5676C48.3685 33.5415 51.4795 34.478 54.1333 36.2585C56.7872 38.0391 58.8647 40.5838 60.1032 43.5709L59.0362 44.0328C57.8871 41.2614 55.9596 38.9003 53.4973 37.2483C51.035 35.5963 48.1486 34.7274 45.2031 34.7516C42.2576 34.7759 39.3853 35.692 36.9493 37.3843C34.5134 39.0766 32.6232 41.4691 31.5179 44.259L30.4438 43.8147Z"/>
</mask>
<path d="M30.4438 43.8147C31.6351 40.8077 33.6723 38.2291 36.2978 36.4051C38.9233 34.5812 42.0191 33.5937 45.1938 33.5676C48.3685 33.5415 51.4795 34.478 54.1333 36.2585C56.7872 38.0391 58.8647 40.5838 60.1032 43.5709L59.0362 44.0328C57.8871 41.2614 55.9596 38.9003 53.4973 37.2483C51.035 35.5963 48.1486 34.7274 45.2031 34.7516C42.2576 34.7759 39.3853 35.692 36.9493 37.3843C34.5134 39.0766 32.6232 41.4691 31.5179 44.259L30.4438 43.8147Z" fill="#EAF3FE" stroke="#4893F4" stroke-width="1.215" mask="url(#path-12-inside-2_4276_3556)"/>
<ellipse cx="60.6242" cy="49.5991" rx="2.37808" ry="2.43" fill="#4893F4" stroke="#4893F4" stroke-width="1.215"/>
<ellipse cx="29.3" cy="49.5991" rx="2.37808" ry="2.43" stroke="#4893F4" stroke-width="1.215"/>
<path d="M40.2148 55.0516L50.9001 44.3663" stroke="#4893F4" stroke-width="1.43876"/>
<path d="M40.2148 44.3663L50.9001 55.0516" stroke="#4893F4" stroke-width="1.43876"/>
</g>
<defs>
<clipPath id="clip0_4276_3556">
<rect width="66" height="66" fill="white"/>
</clipPath>
</defs>
</svg>
