<svg viewBox="0 0 410 203" fill="none" xmlns="http://www.w3.org/2000/svg"><path d="M2.011 26.792A31.02 31.02 0 0 1 27.369 1.907l.411 2.447A28.538 28.538 0 0 0 4.45 27.248l-2.439-.456Z" fill="#000" fill-opacity=".15"/><path d="M33.06 7.61v19.316M33.06 38.256v19.318M38.258 32.685h19.317M7.796 32.685h19.317" stroke="#000" stroke-opacity=".15" stroke-width="3"/><path d="M37.968 1.966a31.02 31.02 0 0 1 25.085 25.16l-2.444.43A28.538 28.538 0 0 0 37.531 4.408l.437-2.442ZM28.292 63.232a31.02 31.02 0 0 1-26.096-24.11l2.424-.53A28.537 28.537 0 0 0 28.63 60.774l-.337 2.458ZM63.088 37.658a31.019 31.019 0 0 1-24.907 25.337l-.455-2.44a28.538 28.538 0 0 0 22.916-23.31l2.446.413ZM71.011 26.792A31.018 31.018 0 0 1 96.37 1.907l.41 2.447a28.538 28.538 0 0 0-23.33 22.894l-2.439-.456Z" fill="#000" fill-opacity=".15"/><path d="M102.06 7.61v19.316M102.06 38.256v19.318M107.258 32.685h19.317M76.796 32.685h19.317" stroke="#000" stroke-opacity=".15" stroke-width="3"/><path d="M106.968 1.966a31.022 31.022 0 0 1 25.085 25.16l-2.444.43a28.535 28.535 0 0 0-23.078-23.148l.437-2.442ZM97.292 63.232a31.02 31.02 0 0 1-26.096-24.11l2.424-.53A28.537 28.537 0 0 0 97.63 60.774l-.337 2.458ZM132.088 37.658a31.012 31.012 0 0 1-24.907 25.337l-.455-2.44a28.54 28.54 0 0 0 22.915-23.31l2.447.413Z" fill="#000" fill-opacity=".15"/><path d="M140.011 26.792a31.015 31.015 0 0 1 25.358-24.885l.411 2.447a28.536 28.536 0 0 0-23.33 22.894l-2.439-.456Z" fill="#000"/><path d="M171.06 7.61v19.316M171.06 38.256v19.318M176.258 32.685h19.317M145.796 32.685h19.317" stroke="#000" stroke-width="3"/><path d="M175.968 1.966a31.022 31.022 0 0 1 25.085 25.16l-2.444.43a28.535 28.535 0 0 0-23.078-23.148l.437-2.442ZM166.292 63.232a31.017 31.017 0 0 1-26.096-24.11l2.424-.53a28.537 28.537 0 0 0 24.009 22.182l-.337 2.458ZM201.088 37.658a31.012 31.012 0 0 1-24.907 25.337l-.455-2.44a28.54 28.54 0 0 0 22.915-23.31l2.447.413ZM209.011 26.792a31.015 31.015 0 0 1 25.358-24.885l.411 2.447a28.536 28.536 0 0 0-23.33 22.894l-2.439-.456Z" fill="#000"/><path d="M240.06 7.61v19.316M240.06 38.256v19.318M245.258 32.685h19.317M214.796 32.685h19.317" stroke="#000" stroke-width="3"/><path d="M244.968 1.966a31.022 31.022 0 0 1 25.085 25.16l-2.444.43a28.535 28.535 0 0 0-23.078-23.148l.437-2.442ZM235.292 63.232a31.017 31.017 0 0 1-26.096-24.11l2.424-.53a28.537 28.537 0 0 0 24.009 22.182l-.337 2.458ZM270.088 37.658a31.012 31.012 0 0 1-24.907 25.337l-.455-2.44a28.54 28.54 0 0 0 22.915-23.31l2.447.413Z" fill="#000"/><path d="M278.011 26.792a31.015 31.015 0 0 1 25.358-24.885l.411 2.447a28.536 28.536 0 0 0-23.33 22.894l-2.439-.456Z" fill="#000" fill-opacity=".15"/><path d="M309.06 7.61v19.316M309.06 38.256v19.318M314.258 32.685h19.317M283.796 32.685h19.317" stroke="#000" stroke-opacity=".15" stroke-width="3"/><path d="M313.968 1.966a31.022 31.022 0 0 1 25.085 25.16l-2.444.43a28.535 28.535 0 0 0-23.078-23.148l.437-2.442ZM304.292 63.232a31.017 31.017 0 0 1-26.096-24.11l2.424-.53a28.537 28.537 0 0 0 24.009 22.182l-.337 2.458ZM339.088 37.658a31.012 31.012 0 0 1-24.907 25.337l-.455-2.44a28.54 28.54 0 0 0 22.915-23.31l2.447.413ZM347.011 26.792a31.015 31.015 0 0 1 25.358-24.885l.411 2.447a28.536 28.536 0 0 0-23.33 22.894l-2.439-.456Z" fill="#000" fill-opacity=".15"/><path d="M378.06 7.61v19.316M378.06 38.256v19.318M383.258 32.685h19.317M352.796 32.685h19.317" stroke="#000" stroke-opacity=".15" stroke-width="3"/><path d="M382.968 1.966a31.022 31.022 0 0 1 25.085 25.16l-2.444.43a28.535 28.535 0 0 0-23.078-23.148l.437-2.442ZM373.292 63.232a31.017 31.017 0 0 1-26.096-24.11l2.424-.53a28.537 28.537 0 0 0 24.009 22.182l-.337 2.458ZM408.088 37.658a31.012 31.012 0 0 1-24.907 25.337l-.455-2.44a28.54 28.54 0 0 0 22.915-23.31l2.447.413ZM2.011 95.792a31.02 31.02 0 0 1 25.358-24.885l.411 2.447A28.538 28.538 0 0 0 4.45 96.248l-2.439-.456Z" fill="#000" fill-opacity=".15"/><path d="M33.06 76.61v19.316M33.06 107.256v19.318M38.258 101.685h19.317M7.796 101.685h19.317" stroke="#000" stroke-opacity=".15" stroke-width="3"/><path d="M37.968 70.966a31.02 31.02 0 0 1 25.085 25.16l-2.444.43a28.538 28.538 0 0 0-23.078-23.148l.437-2.442ZM28.292 132.232a31.019 31.019 0 0 1-26.096-24.11l2.424-.53a28.535 28.535 0 0 0 24.009 22.182l-.337 2.458ZM63.088 106.659a31.02 31.02 0 0 1-24.907 25.336l-.455-2.44a28.535 28.535 0 0 0 22.916-23.309l2.446.413ZM71.011 95.792A31.018 31.018 0 0 1 96.37 70.907l.41 2.447a28.538 28.538 0 0 0-23.33 22.894l-2.439-.456Z" fill="#000" fill-opacity=".15"/><path d="M102.06 76.61v19.316M102.06 107.256v19.318M107.258 101.685h19.317M76.796 101.685h19.317" stroke="#000" stroke-opacity=".15" stroke-width="3"/><path d="M106.968 70.966a31.022 31.022 0 0 1 25.085 25.16l-2.444.43a28.535 28.535 0 0 0-23.078-23.148l.437-2.442ZM97.292 132.232a31.019 31.019 0 0 1-26.096-24.11l2.424-.53a28.535 28.535 0 0 0 24.009 22.182l-.337 2.458ZM132.088 106.659a31.021 31.021 0 0 1-24.907 25.336l-.455-2.44a28.535 28.535 0 0 0 22.915-23.309l2.447.413Z" fill="#000" fill-opacity=".15"/><path d="M140.011 95.792a31.015 31.015 0 0 1 25.358-24.885l.411 2.447a28.537 28.537 0 0 0-23.33 22.894l-2.439-.456Z" fill="#000"/><path d="M171.06 76.61v19.316M171.06 107.256v19.318M176.258 101.685h19.317M145.796 101.685h19.317" stroke="#000" stroke-width="3"/><path d="M175.968 70.966a31.022 31.022 0 0 1 25.085 25.16l-2.444.43a28.535 28.535 0 0 0-23.078-23.148l.437-2.442ZM166.292 132.232a31.017 31.017 0 0 1-26.096-24.11l2.424-.53a28.535 28.535 0 0 0 24.009 22.182l-.337 2.458ZM201.088 106.659a31.021 31.021 0 0 1-24.907 25.336l-.455-2.44a28.535 28.535 0 0 0 22.915-23.309l2.447.413ZM209.011 95.792a31.015 31.015 0 0 1 25.358-24.885l.411 2.447a28.537 28.537 0 0 0-23.33 22.894l-2.439-.456Z" fill="#000"/><path d="M240.06 76.61v19.316M240.06 107.256v19.318M245.258 101.685h19.317M214.796 101.685h19.317" stroke="#000" stroke-width="3"/><path d="M244.968 70.966a31.022 31.022 0 0 1 25.085 25.16l-2.444.43a28.535 28.535 0 0 0-23.078-23.148l.437-2.442ZM235.292 132.232a31.017 31.017 0 0 1-26.096-24.11l2.424-.53a28.535 28.535 0 0 0 24.009 22.182l-.337 2.458ZM270.088 106.659a31.021 31.021 0 0 1-24.907 25.336l-.455-2.44a28.535 28.535 0 0 0 22.915-23.309l2.447.413Z" fill="#000"/><path d="M278.011 95.792a31.015 31.015 0 0 1 25.358-24.885l.411 2.447a28.537 28.537 0 0 0-23.33 22.894l-2.439-.456Z" fill="#000" fill-opacity=".15"/><path d="M309.06 76.61v19.316M309.06 107.256v19.318M314.258 101.685h19.317M283.796 101.685h19.317" stroke="#000" stroke-opacity=".15" stroke-width="3"/><path d="M313.968 70.966a31.022 31.022 0 0 1 25.085 25.16l-2.444.43a28.535 28.535 0 0 0-23.078-23.148l.437-2.442ZM304.292 132.232a31.017 31.017 0 0 1-26.096-24.11l2.424-.53a28.535 28.535 0 0 0 24.009 22.182l-.337 2.458ZM339.088 106.659a31.021 31.021 0 0 1-24.907 25.336l-.455-2.44a28.535 28.535 0 0 0 22.915-23.309l2.447.413ZM347.011 95.792a31.015 31.015 0 0 1 25.358-24.885l.411 2.447a28.537 28.537 0 0 0-23.33 22.894l-2.439-.456Z" fill="#000" fill-opacity=".15"/><path d="M378.06 76.61v19.316M378.06 107.256v19.318M383.258 101.685h19.317M352.796 101.685h19.317" stroke="#000" stroke-opacity=".15" stroke-width="3"/><path d="M382.968 70.966a31.022 31.022 0 0 1 25.085 25.16l-2.444.43a28.535 28.535 0 0 0-23.078-23.148l.437-2.442ZM373.292 132.232a31.017 31.017 0 0 1-26.096-24.11l2.424-.53a28.535 28.535 0 0 0 24.009 22.182l-.337 2.458ZM408.088 106.659a31.021 31.021 0 0 1-24.907 25.336l-.455-2.44a28.535 28.535 0 0 0 22.915-23.309l2.447.413ZM2.011 164.792a31.021 31.021 0 0 1 25.358-24.885l.411 2.447a28.541 28.541 0 0 0-23.33 22.894l-2.439-.456Z" fill="#000" fill-opacity=".15"/><path d="M33.06 145.609v19.317" stroke="#000" stroke-opacity=".15" stroke-width="3"/><path d="M37.968 139.966a31.015 31.015 0 0 1 25.085 25.16l-2.444.43a28.536 28.536 0 0 0-23.078-23.148l.437-2.442ZM71.011 164.792a31.02 31.02 0 0 1 25.359-24.885l.41 2.447a28.541 28.541 0 0 0-23.33 22.894l-2.439-.456Z" fill="#000" fill-opacity=".15"/><path d="M102.06 145.609v19.317" stroke="#000" stroke-opacity=".15" stroke-width="3"/><path d="M106.968 139.966a31.018 31.018 0 0 1 25.085 25.16l-2.444.43a28.533 28.533 0 0 0-23.078-23.148l.437-2.442ZM140.011 164.792a31.017 31.017 0 0 1 25.358-24.885l.411 2.447a28.54 28.54 0 0 0-23.33 22.894l-2.439-.456Z" fill="#000" fill-opacity=".15"/><path d="M171.06 145.609v19.317" stroke="#000" stroke-opacity=".15" stroke-width="3"/><path d="M175.968 139.966a31.018 31.018 0 0 1 25.085 25.16l-2.444.43a28.533 28.533 0 0 0-23.078-23.148l.437-2.442ZM209.011 164.792a31.017 31.017 0 0 1 25.358-24.885l.411 2.447a28.54 28.54 0 0 0-23.33 22.894l-2.439-.456Z" fill="#000" fill-opacity=".15"/><path d="M240.06 145.609v19.317" stroke="#000" stroke-opacity=".15" stroke-width="3"/><path d="M244.968 139.966a31.018 31.018 0 0 1 25.085 25.16l-2.444.43a28.533 28.533 0 0 0-23.078-23.148l.437-2.442ZM278.011 164.792a31.017 31.017 0 0 1 25.358-24.885l.411 2.447a28.54 28.54 0 0 0-23.33 22.894l-2.439-.456Z" fill="#000" fill-opacity=".15"/><path d="M309.06 145.609v19.317" stroke="#000" stroke-opacity=".15" stroke-width="3"/><path d="M313.968 139.966a31.018 31.018 0 0 1 25.085 25.16l-2.444.43a28.533 28.533 0 0 0-23.078-23.148l.437-2.442ZM347.011 164.792a31.017 31.017 0 0 1 25.358-24.885l.411 2.447a28.54 28.54 0 0 0-23.33 22.894l-2.439-.456Z" fill="#000" fill-opacity=".15"/><path d="M378.06 145.609v19.317" stroke="#000" stroke-opacity=".15" stroke-width="3"/><path d="M382.968 139.966a31.018 31.018 0 0 1 25.085 25.16l-2.444.43a28.533 28.533 0 0 0-23.078-23.148l.437-2.442Z" fill="#000" fill-opacity=".15"/></svg>
