<svg width="28" height="28" fill="none" xmlns="http://www.w3.org/2000/svg"><path d="M23.218 14.619c.044.406.068.82.068 1.238C23.286 22.012 18.297 27 12.143 27 5.988 27 1 22.012 1 15.857 1 9.703 5.988 4.714 12.143 4.714c.418 0 .832.024 1.238.068M23.286 4.714L27 1M12.143 15.857L19.57 8.43M23.286 4.714L22.048 1l-3.715 3.714 1.239 3.715 3.714 1.238L27 5.952l-3.714-1.238z" stroke="#0C1447" stroke-width="2" stroke-miterlimit="10" stroke-linecap="round" stroke-linejoin="round"/><path d="M23.286 4.714L22.048 1l-3.715 3.714 1.239 3.715 3.714 1.238L27 5.952l-3.714-1.238z" stroke="#0C1447" stroke-width="2" stroke-miterlimit="10" stroke-linecap="round" stroke-linejoin="round"/></svg>