<svg width="24" height="24" fill="none" xmlns="http://www.w3.org/2000/svg"><path d="M14.935 2.964l5.947 5.947M12.603 4.258A8.002 8.002 0 003.779 5.95a7.98 7.98 0 00-1.229 1.6l3.428 3.428M19.597 11.216a7.998 7.998 0 01-1.676 8.876 7.98 7.98 0 01-1.6 1.23l-3.442-3.443" stroke="#0C1447" stroke-width="2" stroke-miterlimit="10" stroke-linecap="round" stroke-linejoin="round"/><path d="M10.143 19.385l-5.657-5.657S9.318 1.707 22.871 1c-.767 13.494-12.728 18.385-12.728 18.385z" stroke="#0C1447" stroke-width="2" stroke-miterlimit="10" stroke-linecap="round" stroke-linejoin="round"/><path d="M1.113 18.715a2.843 2.843 0 114.022 4.022C4.024 23.848 0 23.871 0 23.871s.002-4.046 1.113-5.156z" fill="#0C1447"/></svg>