<svg width="25" height="26" fill="none" xmlns="http://www.w3.org/2000/svg"><path d="M21.21 13a8.783 8.783 0 00-.205-1.869l2.96-2.242-2.181-3.778-3.429 1.446a8.713 8.713 0 00-3.23-1.875L14.665 1H10.3l-.46 3.682a8.713 8.713 0 00-3.23 1.875L3.18 5.111 1 8.889l2.96 2.242a8.618 8.618 0 000 3.738L1 17.11l2.182 3.78 3.429-1.447a8.714 8.714 0 003.23 1.875L10.3 25h4.364l.46-3.682a8.715 8.715 0 003.23-1.875l3.429 1.447 2.182-3.78-2.96-2.241c.134-.614.203-1.24.204-1.869v0z" stroke="#0C1447" stroke-width="2" stroke-miterlimit="10" stroke-linecap="round" stroke-linejoin="round"/></svg>