<svg width="248" height="277" viewBox="0 0 248 277" fill="none" xmlns="http://www.w3.org/2000/svg">
<path d="M206 8L206 39.6965" stroke="#ECECEC" stroke-width="2"/>
<path d="M206 47.3036L206 79" stroke="#ECECEC" stroke-width="2"/>
<path d="M170.5 43.0246H202.196" stroke="#ECECEC" stroke-width="2"/>
<path d="M209.805 43.0246H241.501" stroke="#ECECEC" stroke-width="2"/>
<path d="M162 5.27905L162 36.9755" stroke="#ECECEC" stroke-width="2"/>
<path d="M126.5 1L158.196 1" stroke="#ECECEC" stroke-width="2"/>
<path d="M165.805 1L197.501 1" stroke="#ECECEC" stroke-width="2"/>
<path d="M80 5.27905L80 36.9755" stroke="#ECECEC" stroke-width="2"/>
<path d="M44.5 1L76.1965 1" stroke="#ECECEC" stroke-width="2"/>
<path d="M83.8047 1L115.501 1" stroke="#ECECEC" stroke-width="2"/>
<path d="M162 48L162 79.6965" stroke="#ECECEC" stroke-width="2"/>
<path d="M162 87.3036L162 119" stroke="#ECECEC" stroke-width="2"/>
<path d="M126.5 83.0246H158.196" stroke="#ECECEC" stroke-width="2"/>
<path d="M165.805 83.0246H197.501" stroke="#ECECEC" stroke-width="2"/>
<path d="M119.5 87L119.5 118.696" stroke="#ECECEC" stroke-width="2"/>
<path d="M119.5 126.304L119.5 158" stroke="#ECECEC" stroke-width="2"/>
<path d="M84 122.025H115.696" stroke="#ECECEC" stroke-width="2"/>
<path d="M123.305 122.025H155.001" stroke="#ECECEC" stroke-width="2"/>
<path d="M162.5 206L162.5 237.696" stroke="#ECECEC" stroke-width="2"/>
<path d="M162.5 245.304L162.5 277" stroke="#ECECEC" stroke-width="2"/>
<path d="M127 241.025H158.696" stroke="#ECECEC" stroke-width="2"/>
<path d="M166.305 241.025H198.001" stroke="#ECECEC" stroke-width="2"/>
<path d="M79.5 124L79.5 155.696" stroke="#ECECEC" stroke-width="2"/>
<path d="M79.5 163.304L79.5 195" stroke="#ECECEC" stroke-width="2"/>
<path d="M44 159.025H75.6965" stroke="#ECECEC" stroke-width="2"/>
<path d="M83.3047 159.025H115.001" stroke="#ECECEC" stroke-width="2"/>
<path d="M35.5 86L35.5 117.696" stroke="#ECECEC" stroke-width="2"/>
<path d="M35.5 125.304L35.5 157" stroke="#ECECEC" stroke-width="2"/>
<path d="M0 121.025H31.6965" stroke="#ECECEC" stroke-width="2"/>
<path d="M39.3047 121.025H71.0011" stroke="#ECECEC" stroke-width="2"/>
<path d="M205 87L205 118.696" stroke="#ECECEC" stroke-width="2"/>
<path d="M205 126.304L205 158" stroke="#ECECEC" stroke-width="2"/>
<path d="M169.5 122.025H201.196" stroke="#ECECEC" stroke-width="2"/>
<path d="M208.805 122.025H240.501" stroke="#ECECEC" stroke-width="2"/>
<path d="M162 124L162 155.696" stroke="#ECECEC" stroke-width="2"/>
<path d="M162 163.304L162 195" stroke="#ECECEC" stroke-width="2"/>
<path d="M126.5 159.025H158.196" stroke="#ECECEC" stroke-width="2"/>
<path d="M165.805 159.025H197.501" stroke="#ECECEC" stroke-width="2"/>
<path d="M205 166L205 197.696" stroke="#ECECEC" stroke-width="2"/>
<path d="M205 205.304L205 237" stroke="#ECECEC" stroke-width="2"/>
<path d="M169.5 201.025H201.196" stroke="#ECECEC" stroke-width="2"/>
<path d="M208.805 201.025H240.501" stroke="#ECECEC" stroke-width="2"/>
<path d="M80 48L80 79.6965" stroke="#ECECEC" stroke-width="2"/>
<path d="M80 87.3036L80 119" stroke="#ECECEC" stroke-width="2"/>
<path d="M44.5 83.0246H76.1965" stroke="#ECECEC" stroke-width="2"/>
<path d="M83.8047 83.0246H115.501" stroke="#ECECEC" stroke-width="2"/>
<path d="M123 8L123 39.6965" stroke="#ECECEC" stroke-width="2"/>
<path d="M123 47.3036L123 79" stroke="#ECECEC" stroke-width="2"/>
<path d="M87.5 43.0246H119.196" stroke="#ECECEC" stroke-width="2"/>
<path d="M126.805 43.0246H158.501" stroke="#ECECEC" stroke-width="2"/>
<path d="M40 8L40 39.6965" stroke="#ECECEC" stroke-width="2"/>
<path d="M40 47.3036L40 79" stroke="#ECECEC" stroke-width="2"/>
<path d="M4.5 43.0246H36.1965" stroke="#ECECEC" stroke-width="2"/>
<path d="M43.8047 43.0246H75.5011" stroke="#ECECEC" stroke-width="2"/>
<path d="M247 48L247 79.6965" stroke="#ECECEC" stroke-width="2"/>
<path d="M247 87.3036L247 119" stroke="#ECECEC" stroke-width="2"/>
<path d="M211.5 83.0246H243.196" stroke="#ECECEC" stroke-width="2"/>
<path d="M247 124L247 155.696" stroke="#ECECEC" stroke-width="2"/>
<path d="M247 163.304L247 195" stroke="#ECECEC" stroke-width="2"/>
<path d="M211.5 159.025H243.196" stroke="#ECECEC" stroke-width="2"/>
<path d="M247 201L247 232.696" stroke="#ECECEC" stroke-width="2"/>
<path d="M247 240.304L247 272" stroke="#ECECEC" stroke-width="2"/>
<path d="M211.5 236.025H243.196" stroke="#ECECEC" stroke-width="2"/>
</svg>
