<svg width="276" height="235" viewBox="0 0 276 235" fill="none" xmlns="http://www.w3.org/2000/svg">
<path d="M35.6875 227.615L35.6875 200.795" stroke="#ECECEC" stroke-opacity="0.2" stroke-width="2"/>
<path d="M35.6875 194.358L35.6875 167.538" stroke="#ECECEC" stroke-opacity="0.2" stroke-width="2"/>
<path d="M65.7266 197.979H38.9065" stroke="#ECECEC" stroke-opacity="0.2" stroke-width="2"/>
<path d="M32.4688 197.979H5.64867" stroke="#ECECEC" stroke-opacity="0.2" stroke-width="2"/>
<path d="M72.9219 229.918L72.9219 203.098" stroke="#ECECEC" stroke-opacity="0.2" stroke-width="2"/>
<path d="M102.961 233.539H76.1409" stroke="#ECECEC" stroke-opacity="0.2" stroke-width="2"/>
<path d="M69.7031 233.539H42.883" stroke="#ECECEC" stroke-opacity="0.2" stroke-width="2"/>
<path d="M142.312 229.918L142.313 203.098" stroke="#ECECEC" stroke-opacity="0.2" stroke-width="2"/>
<path d="M172.352 233.539H145.531" stroke="#ECECEC" stroke-opacity="0.2" stroke-width="2"/>
<path d="M139.094 233.539H112.274" stroke="#ECECEC" stroke-opacity="0.2" stroke-width="2"/>
<path d="M72.9219 193.769L72.9219 166.949" stroke="#ECECEC" stroke-opacity="0.2" stroke-width="2"/>
<path d="M72.9219 160.512L72.9219 133.692" stroke="#ECECEC" stroke-opacity="0.2" stroke-width="2"/>
<path d="M102.961 164.133H76.1409" stroke="#ECECEC" stroke-opacity="0.2" stroke-width="2"/>
<path d="M69.7031 164.133H42.883" stroke="#ECECEC" stroke-opacity="0.2" stroke-width="2"/>
<path d="M108.883 160.769L108.883 133.949" stroke="#ECECEC" stroke-opacity="0.2" stroke-width="2"/>
<path d="M108.883 127.512L108.883 100.692" stroke="#ECECEC" stroke-opacity="0.2" stroke-width="2"/>
<path d="M138.922 131.133H112.102" stroke="#ECECEC" stroke-opacity="0.2" stroke-width="2"/>
<path d="M105.664 131.133H78.844" stroke="#ECECEC" stroke-opacity="0.2" stroke-width="2"/>
<path d="M72.5 60.0771L72.5 33.2571" stroke="#ECECEC" stroke-opacity="0.2" stroke-width="2"/>
<path d="M72.5 26.8201L72.5 -1.70246e-05" stroke="#ECECEC" stroke-opacity="0.2" stroke-width="2"/>
<path d="M102.539 30.4409H75.719" stroke="#ECECEC" stroke-opacity="0.2" stroke-width="2"/>
<path d="M69.2812 30.4409H42.4612" stroke="#ECECEC" stroke-opacity="0.2" stroke-width="2"/>
<path d="M142.734 129.462L142.734 102.642" stroke="#ECECEC" stroke-opacity="0.2" stroke-width="2"/>
<path d="M142.734 96.2046L142.734 69.3845" stroke="#ECECEC" stroke-opacity="0.2" stroke-width="2"/>
<path d="M172.773 99.8254H145.953" stroke="#ECECEC" stroke-opacity="0.2" stroke-width="2"/>
<path d="M139.516 99.8254H112.696" stroke="#ECECEC" stroke-opacity="0.2" stroke-width="2"/>
<path d="M179.961 161.615L179.961 134.795" stroke="#ECECEC" stroke-opacity="0.2" stroke-width="2"/>
<path d="M179.961 128.358L179.961 101.538" stroke="#ECECEC" stroke-opacity="0.2" stroke-width="2"/>
<path d="M210 131.979H183.18" stroke="#ECECEC" stroke-opacity="0.2" stroke-width="2"/>
<path d="M176.742 131.979H149.922" stroke="#ECECEC" stroke-opacity="0.2" stroke-width="2"/>
<path d="M36.5391 160.769L36.5391 133.949" stroke="#ECECEC" stroke-opacity="0.2" stroke-width="2"/>
<path d="M36.5391 127.512L36.5391 100.692" stroke="#ECECEC" stroke-opacity="0.2" stroke-width="2"/>
<path d="M66.5781 131.133H39.758" stroke="#ECECEC" stroke-opacity="0.2" stroke-width="2"/>
<path d="M33.3203 131.133H6.50023" stroke="#ECECEC" stroke-opacity="0.2" stroke-width="2"/>
<path d="M72.9219 129.462L72.9219 102.642" stroke="#ECECEC" stroke-opacity="0.2" stroke-width="2"/>
<path d="M72.9219 96.2046L72.9219 69.3845" stroke="#ECECEC" stroke-opacity="0.2" stroke-width="2"/>
<path d="M102.961 99.8254H76.1409" stroke="#ECECEC" stroke-opacity="0.2" stroke-width="2"/>
<path d="M69.7031 99.8254H42.883" stroke="#ECECEC" stroke-opacity="0.2" stroke-width="2"/>
<path d="M36.5391 93.9233L36.5391 67.1033" stroke="#ECECEC" stroke-opacity="0.2" stroke-width="2"/>
<path d="M36.5391 60.6663L36.5391 33.8462" stroke="#ECECEC" stroke-opacity="0.2" stroke-width="2"/>
<path d="M66.5781 64.2871H39.758" stroke="#ECECEC" stroke-opacity="0.2" stroke-width="2"/>
<path d="M33.3203 64.2871H6.50023" stroke="#ECECEC" stroke-opacity="0.2" stroke-width="2"/>
<path d="M142.312 193.769L142.312 166.949" stroke="#ECECEC" stroke-opacity="0.2" stroke-width="2"/>
<path d="M142.312 160.512L142.313 133.692" stroke="#ECECEC" stroke-opacity="0.2" stroke-width="2"/>
<path d="M172.352 164.133H145.531" stroke="#ECECEC" stroke-opacity="0.2" stroke-width="2"/>
<path d="M139.094 164.133H112.274" stroke="#ECECEC" stroke-opacity="0.2" stroke-width="2"/>
<path d="M105.922 227.615L105.922 200.795" stroke="#ECECEC" stroke-opacity="0.2" stroke-width="2"/>
<path d="M105.922 194.358L105.922 167.538" stroke="#ECECEC" stroke-opacity="0.2" stroke-width="2"/>
<path d="M135.961 197.979H109.141" stroke="#ECECEC" stroke-opacity="0.2" stroke-width="2"/>
<path d="M102.703 197.979H75.883" stroke="#ECECEC" stroke-opacity="0.2" stroke-width="2"/>
<path d="M176.148 227.615L176.148 200.795" stroke="#ECECEC" stroke-opacity="0.2" stroke-width="2"/>
<path d="M176.148 194.358L176.148 167.538" stroke="#ECECEC" stroke-opacity="0.2" stroke-width="2"/>
<path d="M206.188 197.979H179.367" stroke="#ECECEC" stroke-opacity="0.2" stroke-width="2"/>
<path d="M172.93 197.979H146.11" stroke="#ECECEC" stroke-opacity="0.2" stroke-width="2"/>
<path d="M245.961 227.615L245.961 200.795" stroke="#ECECEC" stroke-opacity="0.2" stroke-width="2"/>
<path d="M245.961 194.358L245.961 167.538" stroke="#ECECEC" stroke-opacity="0.2" stroke-width="2"/>
<path d="M276 197.979H249.18" stroke="#ECECEC" stroke-opacity="0.2" stroke-width="2"/>
<path d="M242.742 197.979H215.922" stroke="#ECECEC" stroke-opacity="0.2" stroke-width="2"/>
<path d="M1 193.769L0.999999 166.949" stroke="#ECECEC" stroke-opacity="0.2" stroke-width="2"/>
<path d="M1 160.512L1 133.692" stroke="#ECECEC" stroke-opacity="0.2" stroke-width="2"/>
<path d="M31.0391 164.133H4.21898" stroke="#ECECEC" stroke-opacity="0.2" stroke-width="2"/>
<path d="M1 129.462L0.999999 102.642" stroke="#ECECEC" stroke-opacity="0.2" stroke-width="2"/>
<path d="M1 96.2046L1 69.3845" stroke="#ECECEC" stroke-opacity="0.2" stroke-width="2"/>
<path d="M31.0391 99.8254H4.21898" stroke="#ECECEC" stroke-opacity="0.2" stroke-width="2"/>
<path d="M1 64.3076L0.999999 37.4875" stroke="#ECECEC" stroke-opacity="0.2" stroke-width="2"/>
<path d="M1 31.0505L1 4.23045" stroke="#ECECEC" stroke-opacity="0.2" stroke-width="2"/>
<path d="M31.0391 34.6714H4.21898" stroke="#ECECEC" stroke-opacity="0.2" stroke-width="2"/>
</svg>
