<svg width="160" height="143" fill="none" xmlns="http://www.w3.org/2000/svg"><path d="M159.969 92.174c-.732-1.456-1.364-3.276-2.445-4.775-2.615-3.61-4.093-7.39-3.169-11.946.298-1.478.277-3.105.021-4.605-.589-3.432.192-5.777 3.653-7.397 1.137-.533 2.189-3.262 1.84-4.62-1.2-4.675-2.735-9.323-4.768-13.693-.81-1.748-3.041-3.333-4.967-3.958-3.248-1.052-5.493-2.814-7.44-5.572-3.333-4.725-7.235-9.053-10.539-13.793-1.627-2.33-3.02-5.124-3.504-7.888-.731-4.157-2.295-7.156-6.132-9.28-11.399-6.34-7.512-6.02-18.207-.093-1.137.632-2.252 1.3-3.382 1.94-5.387 3.041-6.709 2.963-11.15-1.393-2.565-2.516-5.031-3.198-8.158-.988-2.118 1.5-4.363 2.95-6.758 3.887-5.024 1.962-7.81 6.07-10.027 10.468-.839 1.663-.86 4.981.242 6.168 6.196 6.709 3.474 14.81 4.007 22.357.064.895-1.42 2.409-2.487 2.792-3.212 1.137-3.866 3.184-2.857 6.112 1.393 4.022 2.474 8.208 4.406 11.96 1.06 2.053 3.333 4.065 5.5 4.818 3.127 1.087 5.252 2.785 7.135 5.386 3.383 4.69 7.291 9.011 10.553 13.78 1.734 2.537 3.106 5.585 3.667 8.584.71 3.809 2.182 6.623 5.628 8.442 2.409 1.265 4.669 2.807 7.071 4.079 3.248 1.72 5.117 1.031 5.593-2.459.455-3.311 1.783-4.448 5.123-4.007 2.175.284 4.648.241 6.645-.533 3.461-1.344 5.813-.27 8.222 2.082 4.242 4.136 4.306 4.057 9.288 1.087 2.544-1.514 5.003-3.226 7.689-4.413 4.612-2.04 6.559-6.29 9.025-10.134.362-.554.391-1.329.682-2.395zm-49.886 19.728c-2.779-1.613-5.671-3.39-8.649-5.01-2.629-1.429-3.574-3.646-4.32-6.467-.946-3.539-2.36-7.12-4.364-10.17-3.162-4.817-6.765-9.394-10.595-13.7-2.011-2.26-4.946-3.681-7.383-5.586-1.756-1.371-4.001-2.593-4.932-4.434-1.741-3.447-2.651-7.305-3.98-10.972-.668-1.848-.625-3.212 1.663-3.731 2.978-.675 3.845-2.828 3.752-5.6-.07-2.124-.533-4.328-.135-6.36 1.158-5.891-.348-10.915-3.901-15.612-.796-1.052-1.308-3.092-.825-4.193 1.109-2.53 2.9-4.761 4.627-7.44 1.457 1.158 2.672 1.89 3.588 2.892 2.829 3.077 5.941 4.441 10.127 2.722 1.464-.604 3.247-.548 4.882-.562 6.722-.05 6.715-.021 8.84-6.48.107-.32.341-.59.633-1.095 2.92 1.698 5.493 3.354 8.207 4.733 3.148 1.599 4.371 4.057 5.145 7.475.775 3.412 2.48 6.78 4.449 9.722 3.134 4.704 6.929 8.96 10.24 13.559 2.018 2.8 4.306 4.782 7.753 5.742 1.691.476 3.674 1.954 4.392 3.503 1.826 3.944 3.134 8.15 4.363 12.33.242.81-.611 2.714-1.279 2.892-3.923 1.037-4.406 3.802-4.164 7.142.127 1.769.504 3.624.135 5.294-1.265 5.784.39 10.652 3.787 15.285.839 1.144 1.365 3.305.86 4.492-1.08 2.529-2.942 4.725-4.619 7.276-1.329-1.044-2.366-1.655-3.134-2.508-3.041-3.368-6.388-5.166-10.972-2.949-.995.483-2.381.583-3.489.369-5.742-1.115-9.381.647-10.056 6.865-.014.107-.177.171-.646.576zm4.384-94.862a100.25 100.25 0 00-.604-1.23c2.338-3.091 9.437-6.445 12.209-5.06-4.15 2.246-7.874 4.264-11.605 6.29zm27.836 33.236c1.08-3.468 5.983-6.04 9.082-4.776-3.028 1.6-6.055 3.184-9.082 4.776z" fill="#0C1447"/><path d="M110.083 111.902c.469-.398.632-.469.64-.554.675-6.218 4.313-7.981 10.055-6.865 1.109.213 2.487.114 3.489-.369 4.584-2.218 7.931-.42 10.972 2.949.768.852 1.805 1.464 3.134 2.508 1.684-2.551 3.539-4.747 4.619-7.277.512-1.186-.021-3.347-.86-4.49-3.396-4.634-5.052-9.502-3.787-15.287.369-1.677-.014-3.531-.135-5.294-.242-3.34.241-6.104 4.164-7.142.668-.177 1.514-2.082 1.279-2.892-1.229-4.185-2.537-8.385-4.363-12.33-.718-1.549-2.693-3.034-4.392-3.503-3.439-.96-5.735-2.942-7.753-5.742-3.304-4.597-7.099-8.854-10.24-13.558-1.961-2.942-3.674-6.31-4.449-9.722-.774-3.418-1.996-5.877-5.145-7.476-2.714-1.378-5.294-3.034-8.207-4.732-.292.497-.526.774-.633 1.094-2.118 6.46-2.118 6.431-8.84 6.48-1.642.015-3.425-.042-4.882.562-4.186 1.72-7.298.355-10.126-2.722-.917-1.001-2.132-1.733-3.59-2.892-1.726 2.68-3.517 4.91-4.625 7.44-.477 1.095.028 3.134.824 4.193 3.553 4.705 5.06 9.722 3.901 15.613-.398 2.032.064 4.235.135 6.36.093 2.764-.774 4.925-3.752 5.6-2.288.519-2.33 1.883-1.663 3.73 1.322 3.667 2.239 7.526 3.98 10.973.93 1.84 3.176 3.07 4.932 4.434 2.437 1.904 5.372 3.326 7.383 5.586 3.83 4.306 7.44 8.882 10.596 13.7 1.996 3.05 3.418 6.63 4.363 10.17.753 2.821 1.698 5.038 4.32 6.466 2.985 1.599 5.877 3.369 8.656 4.989zm6.879-19.521c-7.419.071-12.06-2.274-16.217-5.493-12.35-9.558-19.173-22.42-20.757-37.749-.654-6.346.64-12.948 6.559-17.112 5.5-3.866 11.27-2.679 16.842-.028 15.25 7.255 27.622 29.455 25.817 46.155-.981 9.004-6.204 14.248-12.244 14.227z" fill="#FFEFDF"/><path d="M114.467 17.04c3.731-2.018 7.455-4.036 11.605-6.29-2.771-1.385-9.871 1.97-12.209 5.06.206.406.405.818.604 1.23zM142.303 50.276l9.082-4.775c-3.099-1.265-8.002 1.307-9.082 4.775z" fill="#fff"/><path d="M116.962 92.38c6.04.022 11.263-5.222 12.244-14.233 1.812-16.693-10.567-38.9-25.817-46.156-5.572-2.65-11.342-3.837-16.842.029-5.92 4.164-7.213 10.766-6.56 17.112 1.585 15.328 8.407 28.19 20.758 37.749 4.157 3.233 8.798 5.578 16.217 5.5zm9.408-7.567c-1.208.547-2.373.86-3.29 1.528-6.694 4.874-13.324 4.093-19.713-.391-11.846-8.315-18.562-19.962-20.892-34.075-1.23-7.447 3.46-13.118 11.114-14.163-.007 3.638 1.371 7.312-1.627 10.652-.953 1.066-1.066 3.113-1.102 4.726-.192 8.357 3.425 15.08 9.43 20.58 3.212 2.942 6.879 5.017 11.569 3.915.59-.134 1.379.136 1.954.434 3.703 1.968 7.377 3.987 12.557 6.794zm-25.412-40.94c2.359-1.4 4.548-2.523 6.524-3.93 1.748-1.25 2.942-.767 4.264.583 6.751 6.893 11.576 14.91 14.07 24.254.206.782-.121 2.217-.704 2.615-2.387 1.62-4.974 2.956-7.71 4.52.434-12.927-4.79-22.009-16.444-28.042zm14.213 33.002l.021-1.13c3.774-2.182 7.547-4.363 12.195-7.057-.242 4.946-.427 8.713-.661 13.552-4.605-2.132-8.08-3.745-11.555-5.365zm-18.05-45.43c4.05 2.053 7.277 3.694 11.15 5.656-4.477 2.58-8.151 4.697-11.818 6.815l-.938-.682c.49-3.639.987-7.27 1.606-11.79z" fill="#0C1447"/><path d="M126.371 84.813c-5.181-2.807-8.855-4.826-12.564-6.78-.576-.305-1.365-.575-1.955-.433-4.697 1.101-8.364-.974-11.569-3.916-6.005-5.5-9.622-12.223-9.43-20.58.036-1.613.15-3.66 1.102-4.725 2.999-3.34 1.613-7.014 1.627-10.653-7.646 1.038-12.344 6.709-11.114 14.163 2.33 14.113 9.046 25.753 20.892 34.075 6.382 4.477 13.019 5.266 19.713.39.924-.681 2.097-.994 3.298-1.541zM100.958 43.873c11.662 6.033 16.878 15.115 16.437 28.035 2.736-1.571 5.323-2.9 7.711-4.52.582-.391.909-1.834.703-2.615-2.487-9.345-7.312-17.361-14.07-24.254-1.322-1.35-2.509-1.834-4.264-.583-1.976 1.422-4.157 2.537-6.517 3.937z" fill="#fff"/><path d="M39.958 127.609c-.023-7.835 10.92-14.217 24.442-14.256 13.521-.038 24.5 6.282 24.523 14.117.022 7.835-10.921 14.217-24.443 14.256-13.521.038-24.5-6.282-24.523-14.117z" fill="#0C1447" stroke="#0C1447" stroke-width="2" stroke-miterlimit="10" stroke-linejoin="round"/><path d="M54.804 136.713c-12.877 0-23.315-10.438-23.315-23.315s10.438-23.316 23.315-23.316 23.316 10.439 23.316 23.316c0 12.877-10.44 23.315-23.316 23.315z" fill="#fff" stroke="#0C1447" stroke-width="2" stroke-miterlimit="10" stroke-linejoin="round"/><path d="M14.777 78.425l18.017 9.538M1 83.724l14.837 8.478" stroke="#0C1447" stroke-width="1.5" stroke-miterlimit="10" stroke-linecap="round" stroke-linejoin="round"/></svg>