<svg viewBox="0 0 335 793" fill="none" xmlns="http://www.w3.org/2000/svg"><path d="M27.504 0v24.558M0 27.137h24.558M30.453 27.137h24.558M97.5 0v24.558M69.996 27.137h24.558M100.449 27.137h24.558M167.5 0v24.558M167.5 30.452V55.01M139.996 27.137h24.558M170.449 27.137h24.558M237.496 0v24.558M237.496 30.452V55.01M209.992 27.137h24.558M240.445 27.137h24.558M307.492 0v24.558M307.492 30.452V55.01M279.988 27.137h24.558M310.441 27.137h24.558M237.496 67.01v24.558M237.496 97.461v24.558M240.445 94.146h24.558M307.492 67.01v24.558M307.492 97.461v24.558M279.988 94.146h24.558M310.441 94.146h24.558M27.504 164.471v24.558M0 161.156h24.558M30.453 161.156h24.558M97.5 164.471v24.558M69.996 161.156h24.558M100.449 161.156h24.558M167.5 164.471v24.558M139.996 161.156h24.558M170.449 161.156h24.558M237.496 134.019v24.558M237.496 164.471v24.558M209.992 161.156h24.558M240.445 161.156h24.558M307.492 134.019v24.558M307.492 164.471v24.558M279.988 161.156h24.558M310.441 161.156h24.558M27.504 201.029v24.558M27.504 231.48v24.558M0 228.165h24.558M30.453 228.165h24.558M97.5 201.029v24.558M97.5 231.48v24.558M69.996 228.165h24.558M100.449 228.165h24.558M167.5 201.029v24.558M167.5 231.48v24.558M139.996 228.165h24.558M170.449 228.165h24.558M237.496 201.029v24.558M237.496 231.48v24.558M209.992 228.165h24.558M240.445 228.165h24.558M307.492 201.029v24.558M307.492 231.48v24.558M279.988 228.165h24.558M310.441 228.165h24.558M27.504 268.038v24.558M27.504 298.49v24.558M0 295.175h24.558M30.453 295.175h24.558M97.5 268.038v24.558M97.5 298.49v24.558M69.996 295.175h24.558M100.449 295.175h24.558M167.5 268.038v24.558M167.5 298.49v24.558M139.996 295.175h24.558M170.449 295.175h24.558M237.496 268.038v24.558M237.496 298.49v24.558M209.992 295.175h24.558M240.445 295.175h24.558M307.492 268.038v24.558M307.492 298.49v24.558M279.988 295.175h24.558M310.441 295.175h24.558M27.504 335.048v24.558M27.504 365.5v24.558M0 362.185h24.558M30.453 362.185h24.558M97.5 335.048v24.558M97.5 365.5v24.558M69.996 362.185h24.558M100.449 362.185h24.558M167.5 335.048v24.558M167.5 365.5v24.558M139.996 362.185h24.558M170.449 362.185h24.558M237.496 335.048v24.558M237.496 365.5v24.558M209.992 362.185h24.558M240.445 362.185h24.558M307.492 335.048v24.558M307.492 365.5v24.558M279.988 362.185h24.558M310.441 362.185h24.558M27.504 402.058v24.558M27.504 432.509v24.558M0 429.194h24.558M30.453 429.194h24.558M97.5 402.058v24.558M97.5 432.509v24.558M69.996 429.194h24.558M100.449 429.194h24.558M167.5 402.058v24.558M167.5 432.509v24.558M139.996 429.194h24.558M170.449 429.194h24.558M237.496 402.058v24.558M237.496 432.509v24.558M209.992 429.194h24.558M240.445 429.194h24.558M307.492 402.058v24.558M307.492 432.509v24.558M279.988 429.194h24.558M310.441 429.194h24.558M27.504 469.067v24.558M27.504 499.519v24.558M0 496.204h24.558M30.453 496.204h24.558M97.5 469.067v24.558M97.5 499.519v24.558M69.996 496.204h24.558M100.449 496.204h24.558M167.5 469.067v24.558M167.5 499.519v24.558M139.996 496.204h24.558M170.449 496.204h24.558M237.496 469.067v24.558M237.496 499.519v24.558M209.992 496.204h24.558M240.445 496.204h24.558M307.492 469.067v24.558M307.492 499.519v24.558M279.988 496.204h24.558M310.441 496.204h24.558M27.504 536.077v24.558M27.504 566.529v24.558M0 563.213h24.558M30.453 563.213h24.558M97.5 536.077v24.558M97.5 566.529v24.558M69.996 563.213h24.558M100.449 563.213h24.558M167.5 536.077v24.558M167.5 566.529v24.558M139.996 563.213h24.558M170.449 563.213h24.558M237.496 536.077v24.558M237.496 566.529v24.558M209.992 563.213h24.558M240.445 563.213h24.558M307.492 536.077v24.558M307.492 566.529v24.558M279.988 563.213h24.558M310.441 563.213h24.558M27.504 603.087v24.558M27.504 633.538v24.558M0 630.223h24.558M30.453 630.223h24.558M97.5 603.087v24.558M97.5 633.538v24.558M69.996 630.223h24.558M100.449 630.223h24.558M167.5 603.087v24.558M167.5 633.538v24.558M139.996 630.223h24.558M170.449 630.223h24.558M237.496 603.087v24.558M237.496 633.538v24.558M209.992 630.223h24.558M240.445 630.223h24.558M307.492 603.087v24.558M307.492 633.538v24.558M279.988 630.223h24.558M310.441 630.223h24.558M27.504 670.096v24.558M27.504 700.548v24.558M0 697.233h24.558M30.453 697.233h24.558M97.5 670.096v24.558M97.5 700.548v24.558M69.996 697.233h24.558M100.449 697.233h24.558M167.5 670.096v24.558M167.5 700.548v24.558M139.996 697.233h24.558M170.449 697.233h24.558M237.496 670.096v24.558M237.496 700.548v24.558M209.992 697.233h24.558M240.445 697.233h24.558M307.492 670.096v24.558M307.492 700.548v24.558M279.988 697.233h24.558M310.441 697.233h24.558M27.504 737.106v24.558M27.504 767.557v24.558M0 764.242h24.558M30.453 764.242h24.558M97.5 737.106v24.558M97.5 767.557v24.558M69.996 764.242h24.558M100.449 764.242h24.558M167.5 737.106v24.558M167.5 767.557v24.558M139.996 764.242h24.558M170.449 764.242h24.558M237.496 737.106v24.558M237.496 767.557v24.558M209.992 764.242h24.558M240.445 764.242h24.558M307.492 737.106v24.558M307.492 767.557v24.558M279.988 764.242h24.558M310.441 764.242h24.558" stroke="#fff" stroke-opacity=".2" stroke-width="1.399"/></svg>
