<svg width="138" height="152" fill="none" xmlns="http://www.w3.org/2000/svg"><path d="M69 0L0 38.145v76.288L69 152l69-37.567V38.145L69 0z" fill="#3B3D40"/><path d="M69 7L6 41.631v69.263L69 145l63-34.106V41.631L69 7z" fill="#000"/><g clip-path="url(#clip0_108_1264)"><path d="M95.667 62.667H77v-5.333h18.667v5.333zm4.602 26.667c-1.178 3.459-5.41 8-13.602 8-8.198 0-14.838-4.61-14.838-15.133 0-10.427 6.2-15.787 14.576-15.787 8.219 0 13.238 4.752 14.334 11.803.208 1.349.29 3.168.253 5.706H79.587c.346 8.563 9.288 8.832 12.234 5.411h8.448zM79.773 78.667h13.24c-.28-4.125-3.029-5.917-6.605-5.917-3.91 0-6.072 2.048-6.635 5.917zm-25.53 18.635H37V57.39h18.541c14.603.216 14.88 14.517 7.254 18.416 9.229 3.36 9.538 21.496-8.552 21.496zM45 73.334h9.557c6.688 0 7.75-8-.832-8H45v8zm9.043 8H45v8.043h8.91c8.146 0 7.647-8.043.133-8.043z" fill="#B8BEC8"/></g><defs><clipPath id="clip0_108_1264"><path fill="#fff" transform="translate(37 44)" d="M0 0h64v64H0z"/></clipPath></defs></svg>