<svg width="138" height="152" fill="none" xmlns="http://www.w3.org/2000/svg"><path d="M69 0L0 38.145v76.288L69 152l69-37.567V38.145L69 0z" fill="#3B3D40"/><path d="M69 7L6 41.631v69.263L69 145l63-34.106V41.631L69 7z" fill="#000"/><g clip-path="url(#clip0_23_1005)"><path d="M52.18 67h3.004v18H52.18V67zm13.515 12.258c0 2.755-2.415 2.974-3.133 2.974-1.796 0-2.122-1.611-2.122-2.583V72.76h-3.004v6.875c0 1.706.559 3.114 1.538 4.053.865.83 2.16 1.284 3.565 1.284.995 0 2.406-.297 3.156-.955V85H68.7V72.76h-3.004v6.498zm9.01-10.818h-3.003v4.32H69.45v2.88h2.252V85h3.003v-9.36h2.253v-2.88h-2.253v-4.32zm11.71 12.9c-.653.564-1.517.876-2.464.876-2.089 0-3.623-1.47-3.623-3.49 0-2.02 1.485-3.429 3.623-3.429.93 0 1.81.298 2.481.861l.456.376 2.025-1.94-.507-.44c-1.191-1.031-2.773-1.61-4.456-1.61-3.754 0-6.48 2.598-6.48 6.167 0 3.554 2.791 6.244 6.48 6.244 1.714 0 3.313-.579 4.49-1.627l.489-.438-2.057-1.94-.456.39zm13.217-7.513c-.865-.83-1.878-1.283-3.282-1.283-.996 0-2.124.297-2.874.954V67h-3.004v18h3.004v-6.743c0-2.755 2.04-2.973 2.759-2.973 1.795 0 1.746 1.612 1.746 2.582V85h3.003v-7.119c0-1.706-.372-3.114-1.352-4.054z" fill="#B8BEC8"/><path d="M83.852 76.676c.575 0 1.128.22 1.535.61.407.39.636.92.636 1.472a2.04 2.04 0 01-.636 1.472c-.407.39-.96.61-1.535.61a2.22 2.22 0 01-1.536-.61 2.04 2.04 0 01-.636-1.472c0-.552.229-1.082.636-1.472.407-.39.96-.61 1.535-.61z" fill="#3B3D40"/><path d="M47.976 80.479c-1.142 1.127-2.693 1.737-4.325 1.737-3.346 0-5.779-2.52-5.779-5.978 0-3.475 2.433-5.995 5.779-5.995 1.616 0 3.15.61 4.31 1.721l.456.439 2.008-1.925-.441-.439c-1.665-1.644-3.917-2.535-6.333-2.535-4.93 0-8.635 3.756-8.635 8.749 0 4.977 3.722 8.718 8.635 8.718 2.432 0 4.685-.907 6.35-2.55l.44-.44-1.991-1.956-.474.454z" fill="#B8BEC8"/></g><path d="M64.923 25.77v1.105h-2.175V33h-1.345v-6.125h-2.185V25.77h5.705zm7.396 3.615c0 .53-.088 1.022-.265 1.475-.176.45-.425.84-.745 1.17-.32.33-.705.588-1.155.775-.45.183-.948.275-1.495.275a3.966 3.966 0 01-1.5-.275A3.458 3.458 0 0166 32.03c-.32-.33-.568-.72-.745-1.17a4.026 4.026 0 01-.265-1.475c0-.53.089-1.02.265-1.47.177-.453.425-.845.745-1.175.324-.33.71-.587 1.16-.77.454-.187.954-.28 1.5-.28.547 0 1.045.093 1.495.28.45.187.835.445 1.155.775.32.327.569.717.745 1.17.177.45.265.94.265 1.47zm-1.38 0c0-.397-.053-.752-.16-1.065a2.225 2.225 0 00-.45-.805 1.945 1.945 0 00-.72-.505 2.45 2.45 0 00-.95-.175c-.353 0-.671.058-.955.175a1.99 1.99 0 00-.725.505c-.196.22-.348.488-.455.805-.106.313-.16.668-.16 1.065 0 .397.054.753.16 1.07.107.313.259.58.455.8.2.217.442.383.725.5.284.117.602.175.955.175.354 0 .67-.058.95-.175.284-.117.524-.283.72-.5a2.23 2.23 0 00.45-.8 3.34 3.34 0 00.16-1.07zm3.833 1.07V33h-1.345v-7.23h2.355c.484 0 .902.057 1.255.17.354.113.645.272.875.475.23.203.4.447.51.73.11.283.165.593.165.93 0 .35-.058.672-.175.965a2 2 0 01-.525.75c-.233.21-.525.373-.875.49-.35.117-.76.175-1.23.175h-1.01zm0-1.05h1.01c.247 0 .462-.03.645-.09.184-.063.335-.152.455-.265.12-.117.21-.257.27-.42.06-.167.09-.352.09-.555 0-.193-.03-.368-.09-.525-.06-.157-.15-.29-.27-.4a1.175 1.175 0 00-.455-.25 2.078 2.078 0 00-.645-.09h-1.01v2.595zM30.165 49v-7.23h2.495c.473 0 .876.045 1.21.135.336.09.611.218.825.385.216.167.375.368.475.605.1.237.15.503.15.8 0 .17-.025.333-.075.49-.05.153-.129.298-.235.435a1.705 1.705 0 01-.4.365 2.37 2.37 0 01-.575.28c.993.223 1.49.76 1.49 1.61 0 .307-.059.59-.175.85-.117.26-.287.485-.51.675a2.464 2.464 0 01-.825.44c-.327.107-.7.16-1.12.16h-2.73zm1.345-3.17v2.12h1.365c.25 0 .458-.03.625-.09.17-.06.305-.14.405-.24a.845.845 0 00.22-.35 1.279 1.279 0 00-.005-.845.771.771 0 00-.235-.32 1.078 1.078 0 00-.41-.205 2.268 2.268 0 00-.605-.07h-1.36zm0-.93h1.075c.456 0 .803-.083 1.04-.25.236-.167.355-.432.355-.795 0-.377-.107-.645-.32-.805-.214-.16-.547-.24-1-.24h-1.15v2.09zm7.448-3.21c.334 0 .639.05.915.15.277.097.514.235.71.415.197.18.35.397.46.65a2.1 2.1 0 01.165.845c0 .267-.04.513-.12.74a2.917 2.917 0 01-.315.65c-.13.207-.283.407-.46.6-.176.193-.361.39-.555.59l-1.63 1.665a3.62 3.62 0 01.91-.145h1.855c.134 0 .239.038.315.115a.38.38 0 01.12.295V49h-4.96v-.41c0-.083.017-.17.05-.26a.76.76 0 01.17-.25l2.195-2.2c.184-.187.347-.365.49-.535.147-.17.269-.338.365-.505.1-.167.175-.335.225-.505a1.84 1.84 0 00.08-.545c0-.173-.025-.325-.075-.455a.892.892 0 00-.215-.335.872.872 0 00-.335-.2 1.237 1.237 0 00-.43-.07c-.296 0-.541.075-.735.225-.19.15-.323.352-.4.605a.516.516 0 01-.165.275.464.464 0 01-.28.08 1.01 1.01 0 01-.165-.015l-.65-.115c.05-.347.147-.65.29-.91.144-.263.322-.482.535-.655a2.2 2.2 0 01.74-.395c.28-.09.58-.135.9-.135zM42.48 49v-7.23h2.495c.473 0 .877.045 1.21.135.337.09.612.218.825.385.217.167.375.368.475.605.1.237.15.503.15.8 0 .17-.025.333-.075.49a1.42 1.42 0 01-.235.435 1.702 1.702 0 01-.4.365c-.16.11-.352.203-.575.28.993.223 1.49.76 1.49 1.61 0 .307-.058.59-.175.85-.117.26-.287.485-.51.675a2.462 2.462 0 01-.825.44c-.327.107-.7.16-1.12.16h-2.73zm1.345-3.17v2.12h1.365c.25 0 .458-.03.625-.09.17-.06.305-.14.405-.24a.843.843 0 00.22-.35 1.276 1.276 0 00-.005-.845.77.77 0 00-.235-.32 1.077 1.077 0 00-.41-.205 2.267 2.267 0 00-.605-.07h-1.36zm0-.93h1.075c.457 0 .803-.083 1.04-.25.237-.167.355-.432.355-.795 0-.377-.107-.645-.32-.805-.213-.16-.547-.24-1-.24h-1.15v2.09zm12.072 2.395c.074 0 .137.028.19.085l.53.575a2.906 2.906 0 01-1.085.835c-.426.193-.94.29-1.54.29-.536 0-1.02-.092-1.45-.275a3.195 3.195 0 01-1.095-.765 3.38 3.38 0 01-.7-1.17 4.433 4.433 0 01-.24-1.485c0-.543.09-1.04.27-1.49.18-.453.434-.843.76-1.17.327-.327.717-.58 1.17-.76.457-.183.96-.275 1.51-.275.537 0 1.005.087 1.405.26.404.17.749.397 1.035.68l-.45.625a.394.394 0 01-.105.105.279.279 0 01-.17.045.393.393 0 01-.235-.09 2.469 2.469 0 00-.775-.39 2.38 2.38 0 00-.715-.09c-.34 0-.653.06-.94.18a2.087 2.087 0 00-.735.505c-.203.22-.363.488-.48.805-.113.313-.17.667-.17 1.06 0 .407.057.768.17 1.085.117.317.274.583.47.8a2.025 2.025 0 001.555.67c.184 0 .349-.01.495-.03.15-.02.287-.052.41-.095.127-.043.245-.098.355-.165.114-.07.225-.155.335-.255a.412.412 0 01.105-.07.247.247 0 01.12-.03zm8.674-1.91c0 .53-.088 1.022-.265 1.475-.176.45-.425.84-.745 1.17-.32.33-.705.588-1.155.775-.45.183-.948.275-1.495.275a3.966 3.966 0 01-1.5-.275 3.458 3.458 0 01-1.16-.775c-.32-.33-.568-.72-.745-1.17a4.026 4.026 0 01-.265-1.475c0-.53.089-1.02.265-1.47.177-.453.425-.845.745-1.175.324-.33.71-.587 1.16-.77.454-.187.954-.28 1.5-.28.547 0 1.045.093 1.495.28.45.187.835.445 1.155.775.32.327.569.717.745 1.17.177.45.265.94.265 1.47zm-1.38 0c0-.397-.053-.752-.16-1.065a2.228 2.228 0 00-.45-.805 1.945 1.945 0 00-.72-.505 2.45 2.45 0 00-.95-.175c-.353 0-.671.058-.955.175a1.99 1.99 0 00-.725.505c-.196.22-.348.488-.455.805-.106.313-.16.668-.16 1.065 0 .397.054.753.16 1.07.107.313.259.58.455.8.2.217.442.383.725.5.284.117.602.175.955.175.354 0 .67-.058.95-.175.284-.117.524-.283.72-.5.197-.22.347-.487.45-.8.107-.317.16-.673.16-1.07zm6.073.615a3.4 3.4 0 01.155.335c.05.113.099.228.145.345.047-.12.095-.238.145-.355.05-.117.104-.228.16-.335l2.14-4.005a.627.627 0 01.08-.12.285.285 0 01.095-.065.452.452 0 01.12-.025c.044-.003.095-.005.155-.005h1.015V49h-1.185v-4.67c0-.087.002-.182.005-.285.007-.103.015-.208.025-.315l-2.185 4.1a.597.597 0 01-.195.22.517.517 0 01-.28.075h-.185a.517.517 0 01-.28-.075.597.597 0 01-.195-.22l-2.215-4.115c.014.11.022.218.025.325.007.103.01.2.01.29V49h-1.185v-7.23h1.015c.06 0 .112.002.155.005a.389.389 0 01.115.025c.037.013.07.035.1.065s.059.07.085.12L69.263 46zm7.057.455V49h-1.345v-7.23h2.355c.484 0 .902.057 1.255.17.354.113.645.272.875.475.23.203.4.447.51.73.11.283.165.593.165.93 0 .35-.058.672-.175.965-.116.29-.291.54-.525.75-.233.21-.525.373-.875.49-.35.117-.76.175-1.23.175h-1.01zm0-1.05h1.01c.247 0 .462-.03.645-.09.184-.063.335-.152.455-.265.12-.117.21-.257.27-.42.06-.167.09-.352.09-.555 0-.193-.03-.368-.09-.525-.06-.157-.15-.29-.27-.4a1.176 1.176 0 00-.455-.25 2.078 2.078 0 00-.645-.09h-1.01v2.595zM86.764 49h-1.04a.475.475 0 01-.29-.085.522.522 0 01-.16-.22l-.54-1.475h-2.995l-.54 1.475a.468.468 0 01-.16.21.433.433 0 01-.285.095h-1.045l2.84-7.23h1.375l2.84 7.23zm-4.68-2.73h2.305l-.88-2.405a17.63 17.63 0 01-.135-.375 12.396 12.396 0 01-.14-.475 12.396 12.396 0 01-.27.86l-.88 2.395zm6.13-4.5c.06 0 .11.003.15.01.04.003.074.013.104.03a.284.284 0 01.095.065c.03.027.064.063.1.11l3.795 4.835a6.487 6.487 0 01-.03-.34 10.88 10.88 0 01-.005-.315V41.77h1.185V49h-.695a.617.617 0 01-.265-.05.59.59 0 01-.205-.18l-3.78-4.815c.01.107.017.213.02.32.007.103.01.198.01.285V49h-1.185v-7.23h.705zM96.581 49h-1.35v-7.23h1.35V49zm6.189-7.23v1.07h-3.205v2.005h2.525v1.035h-2.525v2.045h3.205V49h-4.56v-7.23h4.56zm5.038 1.315a.365.365 0 01-.13.155.308.308 0 01-.17.045.446.446 0 01-.225-.075 5.823 5.823 0 00-.295-.175 2.257 2.257 0 00-.4-.17 1.6 1.6 0 00-.535-.08c-.187 0-.35.023-.49.07a1.03 1.03 0 00-.35.185.763.763 0 00-.21.29.92.92 0 00-.07.365c0 .17.047.312.14.425.097.113.223.21.38.29.157.08.335.152.535.215s.403.132.61.205c.21.07.415.153.615.25.2.093.378.213.535.36.157.143.282.32.375.53.097.21.145.465.145.765 0 .327-.057.633-.17.92-.11.283-.273.532-.49.745-.213.21-.475.377-.785.5-.31.12-.665.18-1.065.18-.23 0-.457-.023-.68-.07a3.522 3.522 0 01-.645-.19 3.49 3.49 0 01-.575-.3 2.867 2.867 0 01-.475-.39l.39-.645a.48.48 0 01.13-.115.324.324 0 01.175-.05c.083 0 .173.035.27.105.097.067.21.142.34.225.133.083.288.16.465.23.18.067.395.1.645.1.383 0 .68-.09.89-.27.21-.183.315-.445.315-.785a.716.716 0 00-.145-.465 1.091 1.091 0 00-.375-.3 2.724 2.724 0 00-.535-.21c-.2-.057-.403-.118-.61-.185a5.249 5.249 0 01-.61-.24 1.98 1.98 0 01-.535-.365 1.697 1.697 0 01-.38-.56 2.204 2.204 0 01-.14-.835c0-.263.052-.52.155-.77.107-.25.26-.472.46-.665.203-.193.452-.348.745-.465a2.7 2.7 0 011.005-.175c.427 0 .82.067 1.18.2s.667.32.92.56l-.33.635zM50.972 109.915c.26 0 .492-.043.695-.13.207-.087.38-.208.52-.365a1.55 1.55 0 00.325-.57c.077-.223.115-.473.115-.75v-4.33h1.345v4.33c0 .43-.07.828-.21 1.195a2.7 2.7 0 01-.595.945c-.26.263-.575.47-.945.62-.37.147-.787.22-1.25.22-.463 0-.88-.073-1.25-.22a2.778 2.778 0 01-.945-.62 2.802 2.802 0 01-.595-.945 3.398 3.398 0 01-.205-1.195v-4.33h1.345v4.325c0 .277.037.527.11.75.077.223.185.415.325.575.14.157.312.278.515.365.207.087.44.13.7.13zm5.755-3.115h.315a.861.861 0 00.315-.05.554.554 0 00.215-.17l1.995-2.525a.703.703 0 01.26-.22.836.836 0 01.35-.065h1.16l-2.435 3.005c-.076.093-.15.172-.22.235s-.145.115-.225.155c.11.04.209.097.295.17.09.073.177.167.26.28l2.51 3.385h-1.19a.783.783 0 01-.36-.065.592.592 0 01-.195-.2l-2.045-2.67a.582.582 0 00-.225-.185.84.84 0 00-.355-.06h-.425V111h-1.345v-7.235h1.345v3.035zm6.983 1.375V111h-1.345v-7.23h2.205c.493 0 .915.052 1.265.155.353.1.642.242.865.425.227.183.391.403.495.66.107.253.16.533.16.84 0 .243-.037.473-.11.69a2.015 2.015 0 01-.81 1.055c-.197.133-.422.24-.675.32.17.097.316.235.44.415l1.81 2.67H66.8a.602.602 0 01-.3-.07.617.617 0 01-.205-.2l-1.52-2.315a.525.525 0 00-.19-.185.636.636 0 00-.3-.055h-.575zm0-.965h.84c.253 0 .473-.032.66-.095.19-.063.345-.15.465-.26.123-.113.215-.247.275-.4.06-.153.09-.322.09-.505 0-.367-.122-.648-.365-.845-.24-.197-.608-.295-1.105-.295h-.86v2.4zM75.228 111h-1.04a.472.472 0 01-.29-.085.52.52 0 01-.16-.22l-.54-1.475h-2.995l-.54 1.475a.465.465 0 01-.16.21.435.435 0 01-.285.095h-1.045l2.84-7.23h1.375l2.84 7.23zm-4.68-2.73h2.305l-.88-2.405a18.92 18.92 0 01-.135-.375 12.376 12.376 0 01-.14-.475 12.746 12.746 0 01-.27.86l-.88 2.395zm6.94 2.73h-1.35v-7.23h1.35V111zm2.334-7.23c.06 0 .11.003.15.01.04.003.075.013.105.03a.28.28 0 01.095.065c.03.027.063.063.1.11l3.795 4.835a6.516 6.516 0 01-.03-.34 10.847 10.847 0 01-.005-.315v-4.395h1.185V111h-.695a.621.621 0 01-.265-.05.584.584 0 01-.205-.18l-3.78-4.815c.01.107.016.213.02.32.006.103.01.198.01.285V111h-1.185v-7.23h.705zm11.413 0v1.07H88.03v2.005h2.525v1.035H88.03v2.045h3.205V111h-4.56v-7.23h4.56zm-30.327 15.92c.334 0 .639.05.915.15.277.097.514.235.71.415.197.18.35.397.46.65.11.253.165.535.165.845 0 .267-.04.513-.12.74a2.917 2.917 0 01-.315.65c-.13.207-.283.407-.46.6-.176.193-.361.39-.555.59l-1.63 1.665c.16-.047.317-.082.47-.105.154-.027.3-.04.44-.04h1.855c.134 0 .239.038.315.115a.38.38 0 01.12.295v.74h-4.96v-.41a.75.75 0 01.05-.26.763.763 0 01.17-.25l2.195-2.2c.184-.187.347-.365.49-.535.147-.17.269-.338.365-.505.1-.167.175-.335.225-.505.054-.173.08-.355.08-.545 0-.173-.025-.325-.075-.455a.869.869 0 00-.55-.535 1.23 1.23 0 00-.43-.07c-.296 0-.541.075-.735.225-.19.15-.323.352-.4.605a.516.516 0 01-.165.275.466.466 0 01-.28.08 1.01 1.01 0 01-.165-.015l-.65-.115c.05-.347.147-.65.29-.91.144-.263.322-.482.535-.655a2.2 2.2 0 01.74-.395c.28-.09.58-.135.9-.135zm8.341 3.695c0 .63-.068 1.178-.205 1.645-.133.463-.32.847-.56 1.15-.236.303-.518.53-.845.68-.323.147-.673.22-1.05.22-.376 0-.726-.073-1.05-.22a2.288 2.288 0 01-.835-.68c-.236-.303-.421-.687-.555-1.15-.133-.467-.2-1.015-.2-1.645 0-.633.067-1.182.2-1.645.134-.463.319-.847.555-1.15.237-.303.515-.528.835-.675.324-.15.674-.225 1.05-.225.377 0 .727.075 1.05.225.327.147.609.372.845.675.24.303.427.687.56 1.15.137.463.205 1.012.205 1.645zm-1.275 0c0-.523-.038-.957-.115-1.3-.076-.343-.18-.617-.31-.82a1.09 1.09 0 00-.96-.55c-.176 0-.348.042-.515.125-.163.08-.308.222-.435.425-.126.203-.228.477-.305.82-.073.343-.11.777-.11 1.3s.037.957.11 1.3c.077.343.179.617.305.82.127.203.272.347.435.43a1.178 1.178 0 001.035 0c.167-.083.314-.227.44-.43.13-.203.234-.477.31-.82.077-.343.115-.777.115-1.3zm4.536-3.695c.333 0 .638.05.915.15.277.097.513.235.71.415.197.18.35.397.46.65.11.253.165.535.165.845 0 .267-.04.513-.12.74a2.926 2.926 0 01-.315.65c-.13.207-.283.407-.46.6-.177.193-.362.39-.555.59l-1.63 1.665c.16-.047.317-.082.47-.105.153-.027.3-.04.44-.04h1.855c.133 0 .238.038.315.115a.38.38 0 01.12.295v.74h-4.96v-.41a.75.75 0 01.05-.26.761.761 0 01.17-.25l2.195-2.2c.183-.187.347-.365.49-.535a3.34 3.34 0 00.365-.505c.1-.167.175-.335.225-.505.053-.173.08-.355.08-.545 0-.173-.025-.325-.075-.455a.869.869 0 00-.55-.535 1.23 1.23 0 00-.43-.07c-.297 0-.542.075-.735.225-.19.15-.323.352-.4.605a.517.517 0 01-.165.275.466.466 0 01-.28.08 1.01 1.01 0 01-.165-.015l-.65-.115c.05-.347.147-.65.29-.91.143-.263.322-.482.535-.655.217-.177.463-.308.74-.395.28-.09.58-.135.9-.135zm4.136 6.385h1.465v-4.215c0-.163.005-.335.015-.515l-1.04.87a.356.356 0 01-.135.075.452.452 0 01-.315-.02.363.363 0 01-.12-.1l-.39-.535 2.205-1.875h1.015v6.315h1.3V127h-4v-.925z" fill="#B8BEC8"/><path d="M18.5 55H119M18.5 97H119" stroke="#3B3D40" stroke-width=".5"/><defs><clipPath id="clip0_23_1005"><path fill="#fff" transform="translate(35 67)" d="M0 0h66v18H0z"/></clipPath></defs></svg>