<svg width="138" height="152" fill="none" xmlns="http://www.w3.org/2000/svg"><path d="M69 0L0 38.145v76.288L69 152l69-37.567V38.145L69 0z" fill="#3B3D40"/><path d="M69 7L6 41.631v69.263L69 145l63-34.106V41.631L69 7z" fill="#000"/><g clip-path="url(#clip0_23_993)"><path d="M52.18 67h3.004v18H52.18V67zm13.515 12.258c0 2.755-2.415 2.974-3.133 2.974-1.796 0-2.122-1.611-2.122-2.583V72.76h-3.004v6.875c0 1.706.559 3.114 1.538 4.053.865.83 2.16 1.284 3.565 1.284.995 0 2.406-.297 3.156-.955V85H68.7V72.76h-3.004v6.498zm9.01-10.818h-3.003v4.32H69.45v2.88h2.252V85h3.003v-9.36h2.253v-2.88h-2.253v-4.32zm11.71 12.9c-.653.564-1.517.876-2.464.876-2.089 0-3.623-1.47-3.623-3.49 0-2.02 1.485-3.429 3.623-3.429.93 0 1.81.298 2.481.861l.456.376 2.025-1.94-.507-.44c-1.191-1.031-2.773-1.61-4.456-1.61-3.754 0-6.48 2.598-6.48 6.167 0 3.554 2.791 6.244 6.48 6.244 1.714 0 3.313-.579 4.49-1.627l.489-.438-2.057-1.94-.456.39zm13.217-7.513c-.865-.83-1.878-1.283-3.282-1.283-.996 0-2.124.297-2.874.954V67h-3.004v18h3.004v-6.743c0-2.755 2.04-2.973 2.759-2.973 1.795 0 1.746 1.612 1.746 2.582V85h3.003v-7.119c0-1.706-.372-3.114-1.352-4.054z" fill="#B8BEC8"/><path d="M83.852 76.676c.575 0 1.128.22 1.535.61.407.39.636.92.636 1.472a2.04 2.04 0 01-.636 1.472c-.407.39-.96.61-1.535.61a2.22 2.22 0 01-1.536-.61 2.04 2.04 0 01-.636-1.472c0-.552.229-1.082.636-1.472.407-.39.96-.61 1.535-.61z" fill="#3B3D40"/><path d="M47.976 80.479c-1.142 1.127-2.693 1.737-4.325 1.737-3.346 0-5.779-2.52-5.779-5.978 0-3.475 2.433-5.995 5.779-5.995 1.616 0 3.15.61 4.31 1.721l.456.439 2.008-1.925-.441-.439c-1.665-1.644-3.917-2.535-6.333-2.535-4.93 0-8.635 3.756-8.635 8.749 0 4.977 3.722 8.718 8.635 8.718 2.432 0 4.685-.907 6.35-2.55l.44-.44-1.991-1.956-.474.454z" fill="#B8BEC8"/></g><path d="M64.96 26.65h-2.32V33h-.965v-6.35H59.35v-.815h5.61v.815zm7.361 2.77c0 .537-.085 1.03-.255 1.48a3.242 3.242 0 01-1.84 1.91 3.78 3.78 0 01-1.44.265 3.78 3.78 0 01-1.44-.265 3.253 3.253 0 01-1.835-1.91 4.156 4.156 0 01-.255-1.48c0-.537.085-1.028.255-1.475.17-.45.41-.837.72-1.16.31-.327.682-.58 1.115-.76a3.72 3.72 0 011.44-.27c.527 0 1.007.09 1.44.27.437.18.81.433 1.12.76.31.323.55.71.72 1.16.17.447.255.938.255 1.475zm-.995 0c0-.44-.06-.835-.18-1.185a2.48 2.48 0 00-.51-.885 2.199 2.199 0 00-.8-.56 2.716 2.716 0 00-1.05-.195c-.383 0-.731.065-1.045.195-.313.13-.582.317-.805.56-.22.24-.39.535-.51.885s-.18.745-.18 1.185c0 .44.06.835.18 1.185.12.347.29.642.51.885.223.24.492.425.805.555.314.127.662.19 1.045.19.387 0 .737-.063 1.05-.19.314-.13.58-.315.8-.555.22-.243.39-.538.51-.885.12-.35.18-.745.18-1.185zm4.498.13c.277 0 .52-.037.73-.11.213-.073.392-.175.535-.305.147-.133.257-.292.33-.475.073-.183.11-.385.11-.605 0-.457-.142-.813-.425-1.07-.28-.257-.707-.385-1.28-.385h-1.15v2.95h1.15zm0-3.715c.453 0 .847.053 1.18.16.337.103.615.252.835.445.22.193.383.427.49.7.11.273.165.578.165.915 0 .333-.058.638-.175.915a1.954 1.954 0 01-.515.715c-.223.2-.502.357-.835.47a3.62 3.62 0 01-1.145.165h-1.15V33h-.965v-7.165h2.115zM32.908 48.23c.277 0 .515-.032.715-.095.2-.063.364-.152.49-.265a1.05 1.05 0 00.285-.41c.06-.16.09-.335.09-.525 0-.37-.131-.662-.395-.875-.263-.217-.658-.325-1.185-.325h-1.55v2.495h1.55zm-1.55-5.63v2.445h1.28c.274 0 .51-.03.71-.09.204-.06.37-.143.5-.25a.973.973 0 00.296-.385c.063-.153.095-.32.095-.5 0-.423-.127-.732-.38-.925-.254-.197-.647-.295-1.18-.295h-1.32zm1.32-.765c.44 0 .819.043 1.136.13.32.087.581.21.785.37.206.16.358.357.455.59.096.23.145.49.145.78a1.544 1.544 0 01-.33.96c-.11.14-.25.267-.42.38-.167.11-.364.2-.59.27.526.1.921.288 1.184.565.267.273.4.633.4 1.08 0 .303-.056.58-.17.83-.11.25-.273.465-.49.645-.213.18-.476.32-.79.42-.313.097-.67.145-1.07.145h-2.53v-7.165h2.285zm8.2 6.32a.31.31 0 01.23.085c.057.057.085.13.085.22V49h-4.78v-.305a.55.55 0 01.165-.38l2.295-2.305c.19-.193.364-.378.52-.555.157-.18.29-.36.4-.54.11-.18.195-.362.255-.545.06-.187.09-.385.09-.595 0-.21-.033-.393-.1-.55a1.066 1.066 0 00-.68-.625 1.558 1.558 0 00-.505-.08c-.183 0-.351.027-.505.08-.153.053-.29.128-.41.225a1.292 1.292 0 00-.295.335c-.08.13-.136.273-.17.43-.04.117-.095.195-.165.235-.066.037-.161.047-.285.03l-.465-.08c.047-.327.137-.615.27-.865a2.14 2.14 0 01.51-.635c.207-.17.442-.298.705-.385.264-.09.549-.135.855-.135.304 0 .587.045.85.135.264.09.492.222.685.395.194.17.345.378.455.625.11.247.165.527.165.84 0 .267-.04.515-.12.745-.08.227-.188.443-.325.65a4.908 4.908 0 01-.475.605c-.176.197-.365.395-.565.595l-1.89 1.93c.134-.037.269-.065.405-.085a2.35 2.35 0 01.395-.035h2.4zm4.296.075c.277 0 .515-.032.715-.095.2-.063.363-.152.49-.265a1.05 1.05 0 00.285-.41c.06-.16.09-.335.09-.525 0-.37-.131-.662-.395-.875-.263-.217-.658-.325-1.185-.325h-1.55v2.495h1.55zm-1.55-5.63v2.445h1.28c.273 0 .51-.03.71-.09.204-.06.37-.143.5-.25a.972.972 0 00.295-.385c.063-.153.095-.32.095-.5 0-.423-.127-.732-.38-.925-.253-.197-.647-.295-1.18-.295h-1.32zm1.32-.765c.44 0 .819.043 1.135.13.32.087.582.21.785.37.207.16.358.357.455.59.097.23.145.49.145.78a1.544 1.544 0 01-.33.96c-.11.14-.25.267-.42.38-.166.11-.363.2-.59.27.527.1.922.288 1.185.565.267.273.4.633.4 1.08 0 .303-.056.58-.17.83-.11.25-.273.465-.49.645-.213.18-.477.32-.79.42-.313.097-.67.145-1.07.145h-2.53v-7.165h2.285zm11.769 5.685c.053 0 .1.022.14.065l.385.415a3.06 3.06 0 01-1.07.795c-.417.19-.922.285-1.515.285-.514 0-.98-.088-1.4-.265-.42-.18-.779-.43-1.075-.75a3.416 3.416 0 01-.69-1.16 4.322 4.322 0 01-.245-1.485c0-.54.085-1.035.255-1.485.17-.45.408-.837.715-1.16.31-.323.68-.573 1.11-.75.43-.18.905-.27 1.425-.27.51 0 .96.082 1.35.245.39.163.733.385 1.03.665l-.32.445a.278.278 0 01-.08.085.224.224 0 01-.125.03c-.06 0-.134-.032-.22-.095a2.548 2.548 0 00-.865-.435 2.59 2.59 0 00-.775-.1c-.37 0-.709.065-1.015.195a2.213 2.213 0 00-.795.555c-.22.243-.392.54-.515.89a3.55 3.55 0 00-.185 1.185c0 .447.063.845.19 1.195.13.35.305.647.525.89.223.24.485.423.785.55.303.127.63.19.98.19.213 0 .405-.012.575-.035a2.42 2.42 0 00.475-.12c.146-.053.281-.12.405-.2.126-.083.251-.182.375-.295a.258.258 0 01.17-.075zm8.133-2.1c0 .537-.086 1.03-.255 1.48a3.242 3.242 0 01-1.84 1.91 3.78 3.78 0 01-1.44.265 3.78 3.78 0 01-1.44-.265 3.253 3.253 0 01-1.836-1.91 4.156 4.156 0 01-.254-1.48c0-.537.084-1.028.255-1.475.17-.45.41-.837.72-1.16.31-.327.681-.58 1.114-.76a3.72 3.72 0 011.44-.27c.527 0 1.007.09 1.44.27.437.18.81.433 1.12.76.31.323.55.71.72 1.16.17.447.255.938.255 1.475zm-.996 0c0-.44-.06-.835-.18-1.185a2.48 2.48 0 00-.51-.885 2.199 2.199 0 00-.8-.56 2.716 2.716 0 00-1.05-.195c-.383 0-.731.065-1.044.195-.314.13-.582.317-.805.56-.22.24-.39.535-.51.885s-.18.745-.18 1.185c0 .44.06.835.18 1.185.12.347.29.642.51.885.223.24.491.425.805.555.313.127.661.19 1.044.19.387 0 .737-.063 1.05-.19.314-.13.58-.315.8-.555.22-.243.39-.538.51-.885.12-.35.18-.745.18-1.185zm9.838-3.585V49h-.85v-5.265c0-.07.002-.145.005-.225l.02-.245-2.46 4.48c-.076.15-.193.225-.35.225h-.14c-.156 0-.273-.075-.35-.225l-2.51-4.5c.02.177.03.34.03.49V49h-.85v-7.165h.715c.087 0 .154.008.2.025.047.017.092.063.135.14l2.475 4.41c.04.08.079.163.115.25.04.087.077.175.11.265.034-.09.069-.178.105-.265.037-.09.077-.175.12-.255L72.638 42c.04-.077.084-.123.13-.14a.67.67 0 01.205-.025h.715zm3.947 3.715c.277 0 .52-.037.73-.11a1.52 1.52 0 00.535-.305c.147-.133.257-.292.33-.475.074-.183.11-.385.11-.605 0-.457-.141-.813-.425-1.07-.28-.257-.706-.385-1.28-.385h-1.15v2.95h1.15zm0-3.715c.454 0 .847.053 1.18.16.337.103.615.252.835.445.22.193.384.427.49.7.11.273.165.578.165.915 0 .333-.058.638-.175.915a1.957 1.957 0 01-.514.715c-.224.2-.502.357-.835.47a3.62 3.62 0 01-1.146.165h-1.15V49h-.965v-7.165h2.115zm7.198 4.505l-1.125-2.915a5.818 5.818 0 01-.21-.67c-.07.27-.141.495-.215.675l-1.125 2.91h2.675zm2.02 2.66h-.75a.323.323 0 01-.21-.065.398.398 0 01-.12-.165l-.67-1.73h-3.215l-.67 1.73a.352.352 0 01-.115.16.32.32 0 01-.21.07h-.75l2.865-7.165h.98L86.853 49zm6.748-7.165V49h-.485a.432.432 0 01-.195-.04.5.5 0 01-.15-.135l-4.145-5.4a6.711 6.711 0 01.02.47V49h-.85v-7.165h.5a.514.514 0 01.19.035.23.23 0 01.07.05c.023.02.048.047.075.08l4.145 5.395-.02-.25a5.774 5.774 0 01-.005-.235v-5.075h.85zM96.403 49h-.97v-7.165h.97V49zm6.252-.79l-.005.79h-4.415v-7.165h4.415v.79h-3.445v2.38h2.79v.76h-2.79v2.445h3.45zm5.017-5.255a.393.393 0 01-.1.115.214.214 0 01-.125.035c-.057 0-.124-.028-.2-.085a3.125 3.125 0 00-.29-.185 2.135 2.135 0 00-.415-.19 1.762 1.762 0 00-.585-.085c-.217 0-.409.03-.575.09a1.217 1.217 0 00-.415.235.975.975 0 00-.25.355 1.095 1.095 0 00-.085.435c0 .2.048.367.145.5.1.13.23.242.39.335.163.093.346.175.55.245.206.067.416.137.63.21.216.073.426.157.63.25.206.09.39.205.55.345.163.14.293.312.39.515.1.203.15.453.15.75 0 .313-.054.608-.16.885a2.037 2.037 0 01-.47.715 2.163 2.163 0 01-.755.48 2.758 2.758 0 01-1.015.175c-.467 0-.89-.083-1.27-.25a3.01 3.01 0 01-.975-.685l.28-.46a.333.333 0 01.095-.09.229.229 0 01.13-.04c.043 0 .091.018.145.055.056.033.12.077.19.13.07.053.15.112.24.175a2 2 0 001.195.36c.23 0 .435-.032.615-.095s.331-.152.455-.265c.126-.117.223-.255.29-.415.066-.16.1-.338.1-.535a.875.875 0 00-.15-.53 1.187 1.187 0 00-.385-.35 2.616 2.616 0 00-.55-.235 80.215 80.215 0 00-.63-.2 7.038 7.038 0 01-.63-.24 2.03 2.03 0 01-.55-.35 1.644 1.644 0 01-.39-.535c-.097-.217-.145-.483-.145-.8 0-.253.048-.498.145-.735.1-.237.243-.447.43-.63.19-.183.421-.33.695-.44.276-.11.593-.165.95-.165.4 0 .763.063 1.09.19.33.127.62.31.87.55l-.235.46zM51.069 110.23c.296 0 .561-.05.795-.15.233-.1.43-.24.59-.42.163-.18.286-.395.37-.645.086-.25.13-.525.13-.825v-4.355h.965v4.355c0 .413-.067.797-.2 1.15-.13.353-.319.66-.565.92a2.576 2.576 0 01-.895.605c-.354.147-.75.22-1.19.22-.44 0-.837-.073-1.19-.22a2.626 2.626 0 01-.9-.605 2.712 2.712 0 01-.57-.92 3.306 3.306 0 01-.195-1.15v-4.355h.965v4.35c0 .3.041.575.125.825.086.25.21.465.37.645.163.18.361.322.595.425.236.1.503.15.8.15zm5.553-3.255h.365a.854.854 0 00.305-.045.561.561 0 00.21-.165l2.385-2.7a.568.568 0 01.21-.18.656.656 0 01.27-.05h.82l-2.73 3.085c-.066.08-.132.147-.195.2a.911.911 0 01-.195.125c.09.03.172.075.245.135.074.057.145.132.215.225l2.85 3.395h-.84c-.063 0-.118-.003-.165-.01a.5.5 0 01-.115-.04.653.653 0 01-.09-.065 1.176 1.176 0 01-.07-.09l-2.47-2.845a.574.574 0 00-.215-.175.843.843 0 00-.35-.055h-.44V111h-.965v-7.165h.965v3.14zm7.641.33c.28 0 .527-.033.74-.1.217-.07.397-.167.54-.29a1.22 1.22 0 00.33-.45 1.46 1.46 0 00.11-.575c0-.427-.14-.748-.42-.965-.28-.217-.7-.325-1.26-.325h-1.06v2.705h1.02zm3.31 3.695h-.86c-.176 0-.306-.068-.39-.205l-1.86-2.56a.515.515 0 00-.185-.17.619.619 0 00-.3-.055h-.735V111h-.965v-7.165h2.025c.454 0 .845.047 1.175.14.33.09.602.222.815.395.217.173.377.383.48.63.104.243.155.517.155.82 0 .253-.04.49-.12.71-.08.22-.196.418-.35.595-.15.173-.335.322-.555.445a2.71 2.71 0 01-.74.28c.124.07.23.172.32.305l2.09 2.845zm4.78-2.66l-1.125-2.915a6.237 6.237 0 01-.21-.67c-.07.27-.142.495-.215.675l-1.125 2.91h2.675zm2.02 2.66h-.75a.324.324 0 01-.21-.065.396.396 0 01-.12-.165l-.67-1.73h-3.215l-.67 1.73a.353.353 0 01-.115.16.318.318 0 01-.21.07h-.75l2.865-7.165h.98L74.373 111zm1.912 0h-.97v-7.165h.97V111zm7.638-7.165V111h-.485a.429.429 0 01-.195-.04.508.508 0 01-.15-.135l-4.145-5.4a6.256 6.256 0 01.02.47V111h-.85v-7.165h.5a.495.495 0 01.19.035c.023.01.047.027.07.05.023.02.049.047.075.08l4.145 5.395-.02-.25a5.961 5.961 0 01-.005-.235v-5.075h.85zm6.252 6.375l-.005.79h-4.415v-7.165h4.415v.79h-3.445v2.38h2.79v.76h-2.79v2.445h3.45zm-27.842 15.945a.31.31 0 01.23.085c.057.057.085.13.085.22v.54h-4.78v-.305a.527.527 0 01.165-.38l2.295-2.305c.19-.193.364-.378.52-.555.157-.18.29-.36.4-.54a2.6 2.6 0 00.255-.545c.06-.187.09-.385.09-.595 0-.21-.033-.393-.1-.55a1.06 1.06 0 00-.68-.625 1.566 1.566 0 00-.505-.08c-.183 0-.351.027-.505.08a1.345 1.345 0 00-.705.56c-.08.13-.136.273-.17.43-.04.117-.095.195-.165.235-.066.037-.161.047-.285.03l-.465-.08c.047-.327.137-.615.27-.865.137-.253.307-.465.51-.635a2.17 2.17 0 01.705-.385c.264-.09.549-.135.855-.135.304 0 .587.045.85.135.264.09.492.222.685.395.194.17.345.378.455.625.11.247.165.527.165.84 0 .267-.04.515-.12.745-.08.227-.188.443-.325.65a4.898 4.898 0 01-.475.605c-.176.197-.365.395-.565.595l-1.89 1.93c.134-.037.269-.065.405-.085.137-.023.269-.035.395-.035h2.4zm6.366-2.735c0 .627-.068 1.17-.205 1.63-.133.457-.316.835-.55 1.135-.233.3-.51.523-.83.67-.316.147-.656.22-1.02.22-.366 0-.708-.073-1.025-.22a2.242 2.242 0 01-.82-.67c-.233-.3-.416-.678-.55-1.135-.133-.46-.2-1.003-.2-1.63s.067-1.17.2-1.63c.134-.46.317-.84.55-1.14.234-.303.507-.528.82-.675.317-.147.659-.22 1.025-.22.364 0 .704.073 1.02.22.32.147.597.372.83.675.234.3.417.68.55 1.14.137.46.205 1.003.205 1.63zm-.925 0c0-.547-.046-1.005-.14-1.375-.09-.373-.213-.673-.37-.9a1.358 1.358 0 00-.535-.485 1.422 1.422 0 00-1.27 0 1.36 1.36 0 00-.535.485c-.153.227-.276.527-.37.9-.09.37-.135.828-.135 1.375s.045 1.005.135 1.375c.094.37.217.668.37.895.154.227.332.39.535.49a1.458 1.458 0 001.27 0c.204-.1.382-.263.535-.49.157-.227.28-.525.37-.895.094-.37.14-.828.14-1.375zm6.161 2.735a.31.31 0 01.23.085c.057.057.085.13.085.22v.54h-4.78v-.305a.55.55 0 01.165-.38l2.295-2.305c.19-.193.363-.378.52-.555.157-.18.29-.36.4-.54a2.6 2.6 0 00.255-.545c.06-.187.09-.385.09-.595 0-.21-.033-.393-.1-.55a1.062 1.062 0 00-.68-.625 1.566 1.566 0 00-.505-.08c-.183 0-.352.027-.505.08a1.345 1.345 0 00-.705.56c-.08.13-.137.273-.17.43-.04.117-.095.195-.165.235-.067.037-.162.047-.285.03l-.465-.08c.047-.327.137-.615.27-.865.137-.253.307-.465.51-.635a2.17 2.17 0 01.705-.385c.263-.09.548-.135.855-.135.303 0 .587.045.85.135.263.09.492.222.685.395.193.17.345.378.455.625.11.247.165.527.165.84 0 .267-.04.515-.12.745-.08.227-.188.443-.325.65a4.908 4.908 0 01-.475.605 15.13 15.13 0 01-.565.595l-1.89 1.93c.133-.037.268-.065.405-.085.137-.023.268-.035.395-.035h2.4zm6.366-2.735c0 .627-.069 1.17-.205 1.63-.134.457-.317.835-.55 1.135-.234.3-.51.523-.83.67-.317.147-.657.22-1.02.22-.367 0-.709-.073-1.025-.22a2.24 2.24 0 01-.82-.67c-.234-.3-.417-.678-.55-1.135-.134-.46-.2-1.003-.2-1.63s.066-1.17.2-1.63c.133-.46.316-.84.55-1.14.233-.303.506-.528.82-.675.316-.147.658-.22 1.025-.22.363 0 .703.073 1.02.22.32.147.596.372.83.675.233.3.416.68.55 1.14.136.46.205 1.003.205 1.63zm-.925 0c0-.547-.047-1.005-.14-1.375-.09-.373-.214-.673-.37-.9a1.36 1.36 0 00-.535-.485 1.422 1.422 0 00-1.27 0 1.358 1.358 0 00-.535.485c-.154.227-.277.527-.37.9-.09.37-.135.828-.135 1.375s.045 1.005.135 1.375c.093.37.216.668.37.895.153.227.331.39.535.49a1.457 1.457 0 001.27 0c.203-.1.381-.263.535-.49.156-.227.28-.525.37-.895.093-.37.14-.828.14-1.375z" fill="#B8BEC8"/><path d="M18.5 55H119M18.5 97H119" stroke="#3B3D40" stroke-width=".5"/><defs><clipPath id="clip0_23_993"><path fill="#fff" transform="translate(35 67)" d="M0 0h66v18H0z"/></clipPath></defs></svg>