<svg width="32" height="32" fill="none" xmlns="http://www.w3.org/2000/svg"><path d="M28.436 7.124A3.561 3.561 0 0032 3.565 3.561 3.561 0 0028.436.007a3.561 3.561 0 00-3.563 3.558 3.561 3.561 0 003.563 3.559zM28.112 31.133c-.616 0-1.18-.23-1.608-.607a2.052 2.052 0 01-.5-.61c-.01-.014-.014-.026-.022-.04a2.426 2.426 0 01-.291-.956v-.009a4.438 4.438 0 01-.022-.235c-.012-.226-.008-.452-.008-.679V16.11c0-.137 0-.274-.004-.406a11.35 11.35 0 00-.133-1.5 6.753 6.753 0 00-4.976-5.314h-.008a.315.315 0 01-.06-.016c-.026-.005-.047-.013-.073-.018l-.017-.004c-.047-.008-.09-.021-.133-.03a7.079 7.079 0 00-1.249-.132c-.068 0-.137 0-.205.004h-.017c-.103.004-.206.004-.308.013h-.017c-.017 0-.039 0-.056.004h-.004a8.305 8.305 0 00-.325.022c-2.392.188-4.672 1.059-6.277 3.14V0A47.688 47.688 0 01.235 4.203C.154 4.23.077 4.25 0 4.272c.24.124.475.265.697.414l.124.086.142.102a6.592 6.592 0 01.736.636 6.684 6.684 0 011.446 2.145 6.7 6.7 0 01.53 2.623c0 .09-.004.184-.004.273-.005 1.034-.034 2.068-.034 3.102v14.34c0 .188 0 .376-.005.564v.077a2.443 2.443 0 01-2.836 2.41l-.013.952H13.66v-.697a2.49 2.49 0 01-1.856-2.409V15.032a2.492 2.492 0 012.494-2.49 2.492 2.492 0 012.494 2.49V28.9a2.493 2.493 0 01-1.95 2.43V32h13.664v-.901a2.334 2.334 0 01-.394.034z" fill="#fff"/></svg>
