<svg width="98" height="20" viewBox="0 0 98 20" fill="none" xmlns="http://www.w3.org/2000/svg">
<path d="M43.6772 5.4162C42.1515 5.4162 40.8221 6.31372 39.9637 7.39542V0.106293C37.6843 1.29694 35.2244 2.19965 32.6388 2.76254C32.6362 2.76254 32.6336 2.76514 32.6283 2.76514C33.0156 2.95969 33.3663 3.21131 33.6751 3.51999C34.0546 3.89612 34.3503 4.33191 34.5597 4.81958C34.6853 5.11011 34.7716 5.41361 34.8266 5.72229C34.8606 5.91166 34.8815 6.1088 34.8894 6.30594C34.892 6.35263 34.892 6.40192 34.892 6.44861C34.892 6.625 34.8894 6.7988 34.8868 6.97519V15.0036C34.8868 16.2072 35.3762 17.3641 36.2581 18.189C37.4854 19.3382 39.2309 19.7454 40.3772 19.8985C41.1597 20.0048 41.95 20.0282 42.7377 19.9659C42.9837 19.9478 43.2297 19.9192 43.473 19.8829C44.2817 19.7454 45.0642 19.4912 45.7995 19.1333C48.2909 17.9634 49.513 15.6936 49.513 12.5471C49.4999 8.32148 46.9772 5.4162 43.6772 5.4162ZM41.8846 18.8894C40.1443 18.8894 39.9794 17.0632 39.9794 13.2215C39.9794 9.37983 40.1443 7.55365 41.8846 7.55365C43.6248 7.55365 43.7635 9.38242 43.7635 13.2215C43.7635 17.0632 43.5987 18.8894 41.8846 18.8894Z" fill="white"/>
<path d="M84.5829 18.1217C84.0386 18.1217 83.5675 17.8052 83.3451 17.3487C83.298 17.2527 83.2613 17.149 83.2404 17.0426C83.2247 16.97 83.2142 16.8948 83.2116 16.8195C83.2116 16.8014 83.209 16.7806 83.209 16.7625C83.209 16.7469 83.209 16.7313 83.2116 16.7158C83.209 16.599 83.209 16.4823 83.2116 16.3682V9.38513C83.2116 8.99085 83.141 8.59656 82.9865 8.23081C82.806 7.8002 82.5233 7.40592 82.0785 6.99606C81.0343 6.05704 79.3149 5.48376 77.1455 5.48376C73.2357 5.48376 70.8019 7.4137 70.8019 9.73014C70.8019 10.8585 71.5347 11.6056 72.6626 11.6056C73.8455 11.6056 74.6908 10.7781 74.6908 9.42923C74.6908 9.30213 74.6803 9.14649 74.6698 8.9675C74.6541 8.7081 74.6044 8.44351 74.6044 8.18411C74.6044 7.35922 75.2168 6.677 76.0123 6.55508C76.0961 6.54211 76.1824 6.53433 76.2688 6.53433C77.1455 6.53433 77.8651 7.21137 77.9279 8.06479C77.9463 8.20487 77.9594 8.34754 77.9751 8.48242C78.0065 8.78852 78.0169 9.09461 78.0169 9.4007V11.1854C78.0169 11.1854 74.9394 11.7483 73.6204 12.1322C71.2992 12.8066 69.7682 13.5952 69.4647 15.5718C69.1977 17.2916 70.2733 19.966 73.4948 19.9998C75.3319 20.0179 76.8812 18.9985 78.2603 17.4551C78.2603 17.4525 78.2629 17.4525 78.2629 17.4499C78.2682 17.4654 78.276 17.4836 78.2812 17.4992C78.9145 18.7572 80.2256 19.621 81.7409 19.621C82.259 19.621 82.7536 19.5199 83.2064 19.3357C83.7062 19.1308 84.1563 18.8273 84.5253 18.4486C84.6326 18.3396 84.7321 18.2229 84.8263 18.101C84.7504 18.1113 84.6666 18.1217 84.5829 18.1217ZM78.0222 13.6886C78.0222 14.0595 78.0222 14.4331 78.0091 14.804C78.0038 14.97 77.996 15.136 77.9855 15.302C77.9672 15.5796 77.9567 15.8753 77.8992 16.1529C77.8965 16.171 77.8913 16.1866 77.8861 16.2022C77.7291 16.8351 77.1533 17.3072 76.4651 17.3072C75.659 17.3072 75.0022 16.6561 75.0022 15.8572C75.0022 15.852 75.0022 15.8468 75.0022 15.8416C74.9891 15.6782 74.9969 15.507 75.0074 15.328C75.0388 14.8688 75.1566 14.4149 75.3921 14.0154C75.837 13.2554 76.6325 12.7988 77.449 12.5161C77.6375 12.4512 77.8285 12.3942 78.0195 12.3423V13.6886H78.0222Z" fill="white"/>
<path d="M95.8201 18.8091C97.024 18.8091 98 17.8417 98 16.6483C98 15.4549 97.024 14.4875 95.8201 14.4875C94.6161 14.4875 93.6401 15.4549 93.6401 16.6483C93.6401 17.8417 94.6161 18.8091 95.8201 18.8091Z" fill="white"/>
<path d="M55.1943 4.3216C56.3982 4.3216 57.3742 3.35417 57.3742 2.1608C57.3742 0.967422 56.3982 0 55.1943 0C53.9903 0 53.0144 0.967422 53.0144 2.1608C53.0144 3.35417 53.9903 4.3216 55.1943 4.3216Z" fill="white"/>
<path d="M58.9133 19.0867C58.5103 19.0867 58.1439 18.9259 57.8743 18.6691C57.8717 18.6665 57.8691 18.6639 57.8639 18.6587C57.8612 18.6561 57.8586 18.6535 57.856 18.6509C57.767 18.5679 57.6911 18.4667 57.6283 18.3578C57.5237 18.184 57.4556 17.9869 57.4294 17.7793C57.4007 17.5796 57.4059 17.3747 57.4059 17.1723C57.4059 17.1697 57.4059 15.0219 57.4059 12.8585V5.66019C57.3352 5.68613 57.262 5.71207 57.1913 5.73801C55.5923 6.31128 53.9306 6.74966 52.2164 7.04019C51.5831 7.14655 50.9446 7.23474 50.2982 7.30219C50.2904 7.30219 50.2799 7.30478 50.272 7.30478C50.5233 7.46301 50.7562 7.64978 50.9682 7.85989C51.3476 8.23602 51.646 8.67441 51.8527 9.16208C51.9757 9.44742 52.062 9.74573 52.117 10.0492C52.1196 10.0674 52.1222 10.0829 52.1249 10.1011C52.1275 10.1167 52.1301 10.1348 52.1327 10.1504C52.1379 10.1763 52.1406 10.2049 52.1432 10.2308C52.1432 10.2386 52.1458 10.2438 52.1458 10.2516C52.1484 10.2645 52.1484 10.2775 52.151 10.2905C52.151 10.2931 52.151 10.2931 52.151 10.2931C52.1798 10.4954 52.1955 10.7055 52.1955 10.9286V12.8585H52.2007C52.2007 15.0219 52.2007 17.1697 52.2007 17.1723C52.2007 17.3461 52.2034 17.5225 52.185 17.6963C52.1667 17.9843 52.0673 18.2488 51.9076 18.4693C51.9024 18.4745 51.8998 18.4797 51.8946 18.4875C51.8919 18.4901 51.8893 18.4953 51.8867 18.4979C51.8605 18.5316 51.8344 18.5653 51.8056 18.5964C51.8004 18.6016 51.7951 18.6094 51.7873 18.6146C51.782 18.6198 51.7794 18.6224 51.7742 18.6276C51.502 18.9103 51.1173 19.0867 50.6934 19.0867C50.6122 19.0867 50.5337 19.0789 50.4552 19.0686V19.6055H59.1514V19.0686C59.0703 19.0789 58.9918 19.0867 58.9133 19.0867Z" fill="white"/>
<path d="M66.7769 10.5731C66.7664 12.7676 66.7559 14.9077 66.7559 15.0581C66.7638 15.787 66.8501 16.394 66.9731 16.8947C67.0281 17.1593 67.1066 17.4161 67.2139 17.6651C67.295 17.8544 67.3892 18.036 67.4965 18.2072C67.6457 18.4588 67.7975 18.6482 67.9309 18.7857C67.9859 18.8479 68.0409 18.9076 68.101 18.9647C68.1298 18.9932 68.2005 19.0555 68.2738 19.1177C68.2764 19.1203 68.2764 19.1203 68.279 19.1229C68.1665 19.1826 68.0487 19.237 67.9283 19.2863C67.3605 19.525 66.7585 19.6443 66.1383 19.6443C65.5155 19.6443 64.9136 19.5224 64.3457 19.2863C63.7987 19.0555 63.3041 18.7286 62.8828 18.3084C62.4615 17.8882 62.1291 17.4005 61.8962 16.8583C61.6842 16.3603 61.5639 15.8337 61.5403 15.289V14.8843L61.5298 7.69117C61.5272 7.60038 61.5246 7.51478 61.5194 7.42917C61.5168 7.39286 61.5141 7.35654 61.5089 7.32282C61.4932 6.97782 61.4173 6.64579 61.2812 6.32932C61.1321 5.98172 60.9201 5.67044 60.6505 5.40326C60.381 5.13608 60.0643 4.92597 59.7163 4.77811C59.6849 4.76514 59.6509 4.75217 59.6195 4.7392C59.6221 4.73661 59.6247 4.73661 59.6273 4.73401C62.2495 3.52002 64.6571 1.9325 66.7873 0.0388794V4.71585H67.4965C68.6323 4.71585 69.4907 4.60431 70.1266 4.33454L69.7105 5.71714L66.803 5.71973C66.803 5.71973 66.7899 8.17106 66.7795 10.5653C66.7769 10.5705 66.7769 10.5731 66.7769 10.5731Z" fill="white"/>
<path d="M33.4945 18.1217C32.9502 18.1217 32.4791 17.8052 32.2567 17.3487C32.2096 17.2527 32.1729 17.149 32.152 17.0426C32.1363 16.97 32.1258 16.8948 32.1232 16.8195C32.1232 16.8014 32.1206 16.7806 32.1206 16.7625C32.1206 16.7469 32.1206 16.7313 32.1232 16.7158C32.1206 16.599 32.1206 16.4823 32.1232 16.3682V9.38513C32.1232 8.99085 32.0526 8.59656 31.8982 8.23081C31.7176 7.8002 31.435 7.40592 30.9901 6.99606C29.9459 6.05704 28.2265 5.48376 26.0571 5.48376C22.1473 5.48376 19.7136 7.4137 19.7136 9.73014C19.7136 10.8585 20.4463 11.6056 21.5742 11.6056C22.7571 11.6056 23.6024 10.7781 23.6024 9.42923C23.6024 9.30213 23.5919 9.14649 23.5814 8.9675C23.5657 8.7081 23.516 8.44351 23.516 8.18411C23.516 7.35922 24.1284 6.677 24.9239 6.55508C25.0077 6.54211 25.094 6.53433 25.1804 6.53433C26.0571 6.53433 26.7767 7.21137 26.8396 8.06479C26.8579 8.20487 26.871 8.34754 26.8867 8.48242C26.9181 8.78852 26.9285 9.09461 26.9285 9.4007V11.1854C26.9285 11.1854 23.851 11.7483 22.532 12.1322C20.2108 12.8066 18.6798 13.5952 18.3763 15.5718C18.1093 17.2916 19.1849 19.966 22.4064 19.9998C24.2435 20.0179 25.7928 18.9985 27.1719 17.4551C27.1719 17.4525 27.1745 17.4525 27.1745 17.4499C27.1798 17.4654 27.1876 17.4836 27.1928 17.4992C27.8262 18.7572 29.1373 19.621 30.6525 19.621C31.1706 19.621 31.6652 19.5199 32.118 19.3357C32.6178 19.1308 33.0679 18.8273 33.4369 18.4486C33.5442 18.3396 33.6437 18.2229 33.7379 18.101C33.6646 18.1113 33.5809 18.1217 33.4945 18.1217ZM26.9364 13.6886C26.9364 14.0595 26.9364 14.4331 26.9233 14.804C26.9181 14.97 26.9102 15.136 26.8997 15.302C26.8814 15.5796 26.871 15.8753 26.8134 16.1529C26.8108 16.171 26.8055 16.1866 26.8003 16.2022C26.6433 16.8351 26.0675 17.3072 25.3793 17.3072C24.5733 17.3072 23.9164 16.6561 23.9164 15.8572C23.9164 15.852 23.9164 15.8468 23.9164 15.8416C23.9033 15.6782 23.9112 15.507 23.9216 15.328C23.953 14.8688 24.0708 14.4149 24.3063 14.0154C24.7512 13.2554 25.5468 12.7988 26.3633 12.5161C26.5517 12.4512 26.7427 12.3942 26.9338 12.3423V13.6886H26.9364Z" fill="white"/>
<path d="M91.1383 10.5731C91.1279 12.7676 91.1174 14.9077 91.1174 15.0581C91.1253 15.787 91.2116 16.394 91.3346 16.8947C91.3896 17.1593 91.4681 17.4161 91.5754 17.6651C91.6565 17.8544 91.7507 18.036 91.858 18.2072C92.0072 18.4588 92.159 18.6482 92.2924 18.7857C92.3474 18.8479 92.4023 18.9076 92.4625 18.9647C92.4913 18.9932 92.562 19.0555 92.6352 19.1177C92.6379 19.1203 92.6379 19.1203 92.6405 19.1229C92.5279 19.1826 92.4102 19.237 92.2898 19.2863C91.7219 19.525 91.12 19.6443 90.4998 19.6443C89.877 19.6443 89.2751 19.5224 88.7072 19.2863C88.1602 19.0555 87.6656 18.7286 87.2443 18.3084C86.823 17.8882 86.4906 17.4005 86.2577 16.8583C86.0457 16.3603 85.9253 15.8337 85.9018 15.289V14.8843L85.8913 7.69117C85.8887 7.60038 85.8861 7.51478 85.8809 7.42917C85.8782 7.39286 85.8756 7.35654 85.8704 7.32282C85.8547 6.97782 85.7788 6.64579 85.6427 6.32932C85.4935 5.98172 85.2816 5.67044 85.012 5.40326C84.7425 5.13608 84.4258 4.92597 84.0778 4.77811C84.0463 4.76514 84.0123 4.75217 83.9809 4.7392C83.9835 4.73661 83.9862 4.73661 83.9888 4.73401C86.611 3.52002 89.0186 1.9325 91.1488 0.0388794V4.71585H91.858C92.9938 4.71585 93.8521 4.60431 94.4881 4.33454L94.072 5.71714L91.1645 5.71973C91.1645 5.71973 91.1514 8.17106 91.141 10.5653C91.1383 10.5705 91.1383 10.5731 91.1383 10.5731Z" fill="white"/>
<path d="M17.1961 19.0836C16.8193 19.0836 16.4738 18.9435 16.2121 18.7153C16.0891 18.6167 15.9844 18.487 15.9059 18.3443C15.9007 18.3365 15.8981 18.3288 15.8929 18.321C15.796 18.1446 15.7332 17.95 15.7149 17.7399C15.7149 17.7373 15.7149 17.7373 15.7149 17.7347C15.7097 17.688 15.7044 17.6388 15.7018 17.5921C15.694 17.4546 15.6966 17.3171 15.6966 17.1796V9.96053C15.6966 9.87752 15.6966 9.79451 15.694 9.7141C15.6913 9.58959 15.6835 9.47026 15.6756 9.35094C15.6626 9.16158 15.639 8.9774 15.6128 8.80361C15.5579 8.51308 15.4741 8.22774 15.3564 7.95278C15.147 7.46511 14.8513 7.02672 14.4718 6.65059C14.0924 6.27446 13.6501 5.97875 13.1581 5.77382C12.9671 5.69341 12.7682 5.62856 12.5693 5.57668C12.5667 5.57668 12.5667 5.57668 12.5641 5.57668C12.551 5.57408 12.5405 5.57149 12.5274 5.5663C12.5117 5.56371 12.4986 5.55852 12.4829 5.55592C12.4803 5.55592 12.4751 5.55333 12.4725 5.55333C12.4437 5.54814 12.4175 5.54036 12.3913 5.53517C12.1427 5.48589 11.8889 5.45995 11.6272 5.45476C11.5853 5.45476 11.5435 5.45476 11.5016 5.45735C11.499 5.45735 11.4937 5.45735 11.4911 5.45735C11.4283 5.45995 11.3655 5.45995 11.3027 5.46513C11.3001 5.46513 11.2975 5.46513 11.2922 5.46513C11.2818 5.46513 11.2687 5.46513 11.2582 5.46773H11.2556C11.1902 5.47032 11.1221 5.47551 11.0567 5.4807C9.59381 5.59483 8.19896 6.12401 7.2176 7.38728V0.178572C5.00888 1.31474 2.6379 2.17854 0.143933 2.73106C0.0942109 2.74663 0.0471054 2.7596 0 2.77257C0.14655 2.84779 0.290484 2.93339 0.426566 3.02418C0.452736 3.04234 0.476289 3.05791 0.502458 3.07606C0.531245 3.09682 0.560031 3.11757 0.588818 3.13832C0.591435 3.14091 0.594052 3.14351 0.599286 3.1461C0.753687 3.26024 0.900238 3.38734 1.03894 3.52483C1.4184 3.90096 1.71673 4.33934 1.92347 4.82701C2.13806 5.33025 2.24798 5.8672 2.24798 6.41972C2.24798 6.4742 2.24536 6.53127 2.24536 6.58574C2.24274 7.21349 2.22442 7.84123 2.22442 8.46898C2.22442 8.46898 2.22442 17.1744 2.22442 17.177C2.22442 17.2912 2.22442 17.4053 2.22181 17.5194C2.22181 17.535 2.22181 17.5506 2.22181 17.5661C2.22181 18.3832 1.55186 19.0473 0.727518 19.0473C0.646392 19.0473 0.565265 19.0395 0.486756 19.0291L0.478905 19.6076H8.35598V19.1848C7.70174 19.0136 7.22022 18.4247 7.22022 17.7218V9.30684C7.22022 8.47158 7.90325 7.79454 8.74591 7.79454C9.58857 7.79454 10.2716 8.47158 10.2716 9.30684V17.727C10.2716 18.4481 9.76129 19.0525 9.07827 19.2029V19.6102H17.4369V19.0629C17.361 19.0758 17.2798 19.0836 17.1961 19.0836Z" fill="white"/>
</svg>
