<svg width="150" height="32" fill="none" xmlns="http://www.w3.org/2000/svg"><path d="M76.84 11.803l.744.622c1.877 1.44 2.644 2.914 2.644 4.977v9.691c0 1.92-.566 2.825-2.075 2.977a.679.679 0 00-.6.673v.178h13.134v-.202a.667.667 0 00-.561-.676c-1.37-.208-1.904-1.116-1.904-2.95V9.197a44.454 44.454 0 01-11.383 2.606zM91.53 7.81l1.414 1.124c1.02.8 1.587 1.786 1.61 3.434l.018 11.713v.25c0 4.346 2.123 6.584 5.997 6.584 2.336 0 3.088-.27 4.402-.768 0 0-2.339-1.265-2.399-6.313 0-.488.069-14.54.069-14.54l4.459-.003.638-2.152c-.977.422-2.294.595-4.036.595h-1.088V.449A44.992 44.992 0 0191.529 7.81zM128.566 7.81l1.415 1.124c1.019.8 1.586 1.786 1.61 3.434l.018 11.713v.25c0 4.346 2.123 6.584 5.996 6.584 2.336 0 3.089-.27 4.402-.768 0 0-2.339-1.265-2.399-6.313 0-.488.069-14.54.069-14.54l4.459-.003.639-2.152c-.978.422-2.294.595-4.036.595h-1.089V.449a44.986 44.986 0 01-11.084 7.361z" fill="#fff"/><path fill-rule="evenodd" clip-rule="evenodd" d="M50.102 4.685l.738.617c1.877 1.44 2.645 2.914 2.645 4.983v13.594c.407 5.688 5.655 7.107 8.503 7.494a16.69 16.69 0 004.75-.023 13.096 13.096 0 003.567-1.167c3.82-1.822 5.697-5.358 5.697-10.26-.02-6.581-3.892-11.109-8.953-11.109-2.339 0-4.377.938-5.697 2.626V.543a44.457 44.457 0 01-11.25 4.142zm11.271 16.262c0 5.947.255 8.777 2.933 8.777 2.635 0 2.89-2.827 2.89-8.777 0-5.95-.213-8.781-2.89-8.781-2.678 0-2.933 2.833-2.933 8.78z" fill="#fff"/><path d="M.23 4.654A44.452 44.452 0 0011.079.68v11.218c1.724-2.253 4.288-3.006 6.881-3.006 3.91 0 6.129 2.458 6.129 7.018v11.24c0 2.009.62 2.83 2.315 2.902a.382.382 0 01.347.396v.497H14.314l-.009-.497a.405.405 0 01.264-.381c1.154-.42 1.526-1.298 1.526-2.911V16.583c-.018-2.7-.489-3.965-2.398-3.965-1.743 0-2.294 1.307-2.294 3.965v10.585c0 1.598.399 2.512 1.499 2.908a.433.433 0 01.3.404v.465H.762l-.015-.51a.41.41 0 01.386-.407c1.62-.104 2.291-.896 2.291-2.872V9.906a5.45 5.45 0 00-.538-2.202 5.488 5.488 0 00-1.39-1.798L.18 4.846 0 4.723l.23-.068zM86.166 6.788a3.32 3.32 0 01-1.313.258 3.347 3.347 0 01-2.392-.97 3.3 3.3 0 01-.97-2.38 3.281 3.281 0 011.04-2.349 3.33 3.33 0 012.421-.9c.836.03 1.63.37 2.227.952s.952 1.365.997 2.194a3.253 3.253 0 01-.909 2.44 3.3 3.3 0 01-1.1.755z" fill="#fff"/><path fill-rule="evenodd" clip-rule="evenodd" d="M49.416 16.842s-.174 8.98-.108 9.897c.162 2.173 2.258 1.747 2.258 1.747a2.582 2.582 0 01-.948 1.423c-1.172 1.036-2.821 1.036-3.922 1.036-2.515 0-4.197-1.173-4.986-3.387-2.117 2.408-4.494 3.997-7.316 3.97-4.941-.05-6.59-4.217-6.182-6.896.464-3.081 2.812-4.307 6.374-5.358 2.024-.598 6.743-1.474 6.743-1.474v-2.78c0-3.009-.69-4.381-2.596-4.381-1.514 0-2.597 1.03-2.597 2.319 0 .531.03.996.054 1.385.018.28.033.521.033.719 0 2.101-1.298 3.39-3.112 3.39-1.73 0-2.855-1.16-2.855-2.92 0-3.607 3.733-6.614 9.73-6.614 3.328 0 5.967.893 7.568 2.355 1.688 1.59 1.862 2.991 1.862 5.569zM41.332 21.7v-2.099c-2.63.7-4.752 2.11-4.63 5.313.043 1.125.6 2.524 2.379 2.43 2.252-.116 2.252-2.124 2.251-5.644zM127.472 26.778c-.069-.92.105-9.897.105-9.897 0-2.578-.174-3.983-1.859-5.572-1.601-1.462-4.24-2.364-7.571-2.364-5.997 0-9.729 3.01-9.729 6.614 0 1.762 1.124 2.92 2.854 2.92 1.817 0 3.115-1.289 3.115-3.39 0-.197-.015-.437-.033-.716v-.001c-.024-.39-.054-.856-.054-1.388 0-1.288 1.08-2.315 2.597-2.315 1.904 0 2.596 1.372 2.596 4.378v2.78s-4.722.875-6.743 1.474c-3.562 1.053-5.91 2.28-6.377 5.357-.405 2.68 1.241 6.846 6.182 6.897 2.825.03 5.199-1.563 7.319-3.97.777 2.232 2.462 3.39 4.972 3.39 1.1 0 2.749 0 3.924-1.033a2.6 2.6 0 00.945-1.423s-2.084.438-2.243-1.741zm-7.976-5.04c.001 3.52.001 5.526-2.251 5.644-1.781.092-2.339-1.304-2.381-2.432-.105-3.19 1.994-4.605 4.632-5.316v2.105z" fill="#fff"/><path d="M148.061 29.235a3.204 3.204 0 01-1.262.251 3.212 3.212 0 01-2.248-.963 3.163 3.163 0 01.068-4.492 3.213 3.213 0 012.276-.897 3.232 3.232 0 012.143.916c.574.56.916 1.314.958 2.112a3.143 3.143 0 01-.877 2.346 3.18 3.18 0 01-1.058.727z" fill="#fff"/></svg>