<svg width="32" height="32" viewBox="0 0 32 32" fill="none" xmlns="http://www.w3.org/2000/svg">
<g clip-path="url(#clip0_1_139)">
<path d="M28.4365 7.12365C30.4047 7.12365 32.0002 5.5305 32.0002 3.56525C32.0002 1.6 30.4047 0.00684568 28.4365 0.00684568C26.4683 0.00684568 24.8727 1.6 24.8727 3.56525C24.8727 5.5305 26.4683 7.12365 28.4365 7.12365Z" fill="black"/>
<path d="M28.1123 31.1328C27.4962 31.1328 26.9315 30.9021 26.5037 30.5262C26.3026 30.3639 26.1315 30.1503 26.0031 29.9154C25.9946 29.9025 25.9903 29.8897 25.9818 29.8769C25.8235 29.5864 25.7208 29.2661 25.6908 28.92C25.6908 28.9158 25.6908 28.9158 25.6908 28.9115C25.6823 28.8346 25.6737 28.7534 25.6694 28.6765C25.6566 28.4501 25.6609 28.2237 25.6609 27.9973V16.1089C25.6609 15.9722 25.6609 15.8355 25.6566 15.7031C25.6523 15.4981 25.6395 15.3016 25.6267 15.1051C25.6053 14.7932 25.5668 14.4899 25.524 14.2037C25.4341 13.7253 25.2972 13.2554 25.1047 12.8026C24.7625 11.9995 24.279 11.2775 23.6587 10.6581C23.0383 10.0387 22.3153 9.55173 21.511 9.21426C21.1987 9.08183 20.8735 8.97504 20.5484 8.8896C20.5441 8.8896 20.5441 8.8896 20.5398 8.8896C20.5184 8.88533 20.5013 8.88106 20.4799 8.87251C20.4543 8.86824 20.4329 8.8597 20.4072 8.85543C20.4029 8.85543 20.3944 8.85115 20.3901 8.85115C20.343 8.84261 20.3002 8.8298 20.2575 8.82125C19.851 8.74009 19.436 8.69737 19.0082 8.68883C18.9398 8.68883 18.8713 8.68883 18.8029 8.6931C18.7986 8.6931 18.79 8.6931 18.7857 8.6931C18.6831 8.69737 18.5804 8.69737 18.4777 8.70591C18.4734 8.70591 18.4692 8.70591 18.4606 8.70591C18.4435 8.70591 18.4221 8.70591 18.405 8.71019H18.4007C18.2938 8.71446 18.1825 8.723 18.0756 8.73154C15.684 8.9195 13.4037 9.79095 11.7994 11.8713V0C8.18855 1.87105 4.31247 3.29355 0.235303 4.20344C0.154017 4.22907 0.0770083 4.25043 0 4.27179C0.239581 4.39567 0.474885 4.53664 0.697353 4.68616C0.740136 4.71606 0.77864 4.74169 0.821423 4.77159C0.868483 4.80577 0.915543 4.83994 0.962604 4.87412C0.966882 4.87839 0.971161 4.88266 0.979717 4.88693C1.23213 5.07489 1.47171 5.28421 1.69846 5.51061C2.31881 6.13002 2.80653 6.85196 3.14451 7.65505C3.49532 8.48378 3.67501 9.36804 3.67501 10.2779C3.67501 10.3676 3.67073 10.4616 3.67073 10.5513C3.66645 11.5851 3.6365 12.6189 3.6365 13.6526C3.6365 13.6526 3.6365 27.9888 3.6365 27.9931C3.6365 28.181 3.6365 28.369 3.63223 28.5569C3.63223 28.5826 3.63223 28.6082 3.63223 28.6338C3.63223 29.9794 2.537 31.073 1.18935 31.073C1.05673 31.073 0.9241 31.0602 0.795753 31.0431L0.782918 31.9957H13.6604V31.2994C12.5909 31.0175 11.8037 30.0478 11.8037 28.8901V15.0324C11.8037 13.6569 12.9203 12.542 14.2979 12.542C15.6755 12.542 16.7921 13.6569 16.7921 15.0324V28.8987C16.7921 30.0862 15.9578 31.0816 14.8412 31.3293V32H28.5059V31.0987C28.3818 31.12 28.2492 31.1328 28.1123 31.1328Z" fill="black"/>
</g>
<defs>
<clipPath id="clip0_1_139">
<rect width="32" height="32" fill="white"/>
</clipPath>
</defs>
</svg>
