<svg width="1052" height="692" fill="none" xmlns="http://www.w3.org/2000/svg"><path d="M989.517 195.949l-2.746 1.615c-52.646 30.868-107.046 62.872-140.515 119.799-2.712 4.612-5.41 9.39-8.023 14.018-10.473 18.542-21.256 37.688-35.864 51.389-25.477 23.899-60.29 29.389-91.076 31.637-20.015 1.456-40.654 1.713-60.602 1.96-27.295.336-55.525.682-82.516 4.075-55.388 7.068-95.563 26.642-122.814 59.858-8.531 10.398-17.088 27.56-26.144 45.733-10.407 20.961-21.208 42.563-32.235 53.728-28.078 28.29-63.657 21.611-101.356 14.481-13.849-2.603-28.162-5.297-42.68-6.418-3.732-.287-7.474-.583-11.227-.887-50.789-4.091-103.303-8.318-144.325 16.849l-.866-1.402c41.492-25.42 94.306-21.197 145.332-17.073 3.753.318 7.492.615 11.219.891 14.621 1.124 28.954 3.841 42.851 6.442 37.24 7.005 72.408 13.597 99.877-14.054 10.859-10.958 21.603-32.464 31.953-53.259 9.112-18.228 17.698-35.504 26.346-46.046 27.535-33.545 68.054-53.315 123.863-60.433 27.077-3.452 55.347-3.795 82.676-4.147 19.936-.251 40.537-.502 60.511-1.96 30.46-2.211 64.992-7.654 90.065-31.198 14.386-13.501 25.157-32.541 35.556-50.999 2.622-4.632 5.309-9.455 8.045-14.038 33.685-57.296 88.284-89.371 141.096-120.384l2.747-1.616.852 1.439z" fill="url(#paint0_radial_399_699)"/><path d="M984.663 184.236c-95.028 50.866-127.473 93.434-146.681 128.362-3.07 5.56-6.114 11.331-9.053 16.912-7.799 14.824-15.874 30.155-25.374 42.957a122.996 122.996 0 01-8.03 9.679c-14.36 15.564-32.912 26.294-56.763 32.73a123.75 123.75 0 01-33.161 4.329c-5.748-.05-11.862-.286-18.697-.711-15.201-.913-30.706-2.233-45.729-3.579l-10.077-.883c-26.217-2.247-50.937-1.655-73.524 1.76-45.582 6.886-79.84 21.536-104.726 44.804a142.354 142.354 0 00-13.496 14.509c-8.096 10.091-16.186 26.366-24.754 43.593-10.231 20.589-20.811 41.88-31.855 52.851-27.263 27.216-61.781 20.813-98.432 14.015-13.401-2.483-27.242-5.049-41.261-6.113l-8.529-.626c-17.925-1.343-36.465-2.731-54.34-2.626-40.678.123-70.925 6.993-95.182 21.624l-.846-1.401c24.552-14.804 55.04-21.744 96.022-21.862 17.955-.061 36.533 1.319 54.487 2.659l8.532.635c14.101 1.068 27.999 3.648 41.433 6.136 36.147 6.663 70.305 13.007 96.961-13.591 10.852-10.794 21.369-31.955 31.547-52.419 8.607-17.316 16.737-33.66 24.938-43.899a144.226 144.226 0 0113.651-14.679c25.131-23.46 59.655-38.281 105.551-45.207 22.719-3.435 47.575-4.018 73.906-1.762l10.085.879c14.985 1.283 30.508 2.665 45.676 3.572 6.818.433 12.908.66 18.615.709a122.525 122.525 0 0032.727-4.264c23.55-6.321 41.842-16.913 55.982-32.227a121.615 121.615 0 007.889-9.614c9.381-12.687 17.462-27.981 25.238-42.744 2.947-5.585 5.955-11.349 9.07-16.94 34.431-62.622 93.798-100.359 147.344-129.014l.856 1.446z" fill="url(#paint1_radial_399_699)"/><path d="M979.797 172.542c-71.981 35.121-121.081 79.378-150.101 135.31-3.371 6.563-6.717 13.316-9.928 19.878-7.297 14.888-14.835 30.289-23.498 43.428a152.855 152.855 0 01-7.569 10.477c-14.045 17.618-31.892 29.974-54.551 37.775a83.822 83.822 0 01-34.246 4.559c-5.67-.458-11.634-1.206-19.166-2.414-14.418-2.325-29.111-4.969-43.352-7.596l-13.321-2.418a223.818 223.818 0 00-77.105-.449c-45.01 7.815-76.996 21.982-100.66 44.587a134.936 134.936 0 00-12.916 14.165c-7.727 9.814-15.383 25.267-23.498 41.645-10.015 20.199-20.327 41.056-31.343 51.844-26.425 26.06-59.843 20.016-95.261 13.517-13.039-2.375-26.531-4.836-40.155-5.808l-3.541-.252c-19.953-1.413-40.562-2.873-60.416-2.396-40.708.992-71.412 8.412-96.602 23.364l-.84-1.413c25.429-15.091 56.396-22.599 97.404-23.596 19.929-.511 40.585.987 60.57 2.427l3.55.248c13.706.974 27.243 3.446 40.327 5.831 34.959 6.354 67.994 12.399 93.817-13.076 10.811-10.594 21.103-31.342 31.013-51.393 8.151-16.454 15.839-31.993 23.666-41.942a137.606 137.606 0 0113.067-14.344c23.936-22.849 56.174-37.15 101.524-45.018a225.47 225.47 0 0177.679.451l13.35 2.415c14.233 2.63 28.914 5.27 43.328 7.607 7.548 1.221 13.428 1.987 19.065 2.46a82.21 82.21 0 0033.521-4.624c22.355-7.694 39.961-19.87 53.807-37.237 2.59-3.187 5.044-6.676 7.481-10.337 8.605-13.042 16.125-28.394 23.4-43.243 3.219-6.565 6.546-13.36 9.942-19.914 29.189-56.25 78.532-100.749 150.844-136.029l.714 1.511z" fill="url(#paint2_radial_399_699)"/><path d="M974.299 159.322l.678 1.497c-48.916 21.754-115.257 64.107-153.525 142.269-3.838 7.782-7.538 15.935-11.124 23.785-6.687 14.632-13.602 29.762-21.314 42.953a171.914 171.914 0 01-7.123 11.193c-13.74 19.809-30.862 33.811-52.348 42.825-12 5.025-23.865 6.695-35.285 4.958a199.628 199.628 0 01-19.672-4.201c-11.825-3.034-23.846-6.343-35.48-9.534-7.302-1.984-14.653-3.989-22.055-6.015a180.033 180.033 0 00-80.697-2.643c-44.245 8.638-74.038 22.327-96.608 44.386a131.896 131.896 0 00-12.356 13.822c-7.337 9.516-14.571 24.165-22.233 39.672-9.756 19.769-19.85 40.216-30.815 50.829-25.685 24.909-58.045 19.132-92.294 13.011-12.62-2.251-25.661-4.585-38.774-5.495l-.602-.04c-21.333-1.434-43.403-2.958-64.467-1.994-40.711 1.9-71.875 9.841-98.049 25.137l-.836-1.426c26.4-15.418 57.807-23.469 98.783-25.318 21.164-.968 43.29.571 64.648 1.994l.602.039c13.241.903 26.32 3.209 39.003 5.533 33.833 6.048 65.796 11.752 90.871-12.569 10.756-10.428 20.78-30.742 30.485-50.378 7.693-15.571 14.963-30.297 22.4-39.949a132.62 132.62 0 0112.49-13.993c22.822-22.304 52.88-36.122 97.448-44.826a181.673 181.673 0 0181.444 2.668 2848.223 2848.223 0 0122.063 6.011c11.626 3.195 23.642 6.495 35.451 9.537 5.282 1.359 12.269 3.056 19.501 4.157 11.135 1.644 22.678.02 34.39-4.885 21.181-8.886 38.107-22.72 51.631-42.249a166.778 166.778 0 007.078-11.092c7.676-13.115 14.565-28.212 21.238-42.808 3.591-7.862 7.311-15.994 11.147-23.825 38.454-78.599 105.14-121.168 154.306-143.036z" fill="url(#paint3_radial_399_699)"/><path d="M969.513 147.581l.618 1.524a294.038 294.038 0 00-156.952 149.221c-4.349 9.394-8.481 19.133-12.516 28.575-6.279 14.731-12.216 28.702-18.93 41.604a214.109 214.109 0 01-6.696 11.937c-13.368 22.169-29.773 37.802-50.136 47.87-12.246 6.064-24.465 7.842-36.33 5.279a168.382 168.382 0 01-20.142-5.932c-9.763-3.423-19.671-7.053-29.254-10.568-9.584-3.514-19.333-7.084-29.137-10.529a155.388 155.388 0 00-84.302-4.842c-28.763 6.23-65.273 16.881-92.61 44.18a126.127 126.127 0 00-11.775 13.478c-6.934 9.183-13.767 23.046-20.918 37.677-9.531 19.375-19.387 39.412-30.33 49.873-24.898 23.798-56.202 18.37-89.327 12.506-12.194-2.132-24.807-4.346-37.495-5.207-20.646-1.341-44.055-2.864-66.15-1.394-40.017 2.655-72.496 11.432-99.399 26.877l-.816-1.425c27.077-15.573 59.838-24.418 100.158-27.048 22.215-1.474 45.673.046 66.372 1.394 12.763.827 25.418 3.043 37.612 5.154 32.706 5.741 63.609 11.149 87.909-12.076 10.733-10.256 20.519-30.16 29.987-49.406 7.231-14.698 14.062-28.589 21.088-37.925a128.63 128.63 0 0111.96-13.672c27.594-27.597 64.396-38.36 93.374-44.627a156.948 156.948 0 0185.193 4.893c9.824 3.445 19.65 7.051 29.161 10.538 9.51 3.487 19.482 7.148 29.23 10.558a166.945 166.945 0 0019.946 5.901c11.644 2.521 23.181.84 35.251-5.145 20.063-9.931 36.243-25.392 49.459-47.251a197.52 197.52 0 006.631-11.836c6.693-12.903 12.606-26.793 18.876-41.499 4.014-9.444 8.177-19.206 12.539-28.616a295.642 295.642 0 01157.851-150.041z" fill="url(#paint4_radial_399_699)"/><path d="M964.71 135.849l.568 1.546c-69.621 25.72-128.075 82.653-160.384 156.185-4.962 11.313-9.63 23.078-14.134 34.446-5.47 13.8-10.635 26.828-16.312 39.17a254.957 254.957 0 01-6.256 12.664c-12.961 24.605-28.634 41.923-47.916 52.912-12.456 7.116-25.028 9.004-37.374 5.6a149.437 149.437 0 01-20.612-7.685c-8.558-3.766-17.236-7.73-25.631-11.581-10.947-5.014-22.273-10.198-33.632-15.076-27.372-11.731-57.812-14.154-87.908-7.019-52.66 12.475-74.969 30.053-88.521 43.972A123.423 123.423 0 00415.4 454.11c-6.537 8.902-12.896 21.895-19.635 35.655-9.294 18.986-18.909 38.621-29.836 48.915-24.116 22.698-54.345 17.529-86.377 12.008-11.767-2.013-23.934-4.107-36.112-4.825-24.237-1.501-46.031-2.596-67.245-.758-39.939 3.405-72.936 12.729-100.874 28.581l-.812-1.436c28.156-15.951 61.367-25.361 101.525-28.795 21.341-1.845 43.189-.745 67.476.713 12.28.763 24.479 2.863 36.299 4.882 31.604 5.423 61.43 10.502 84.972-11.594 10.709-10.084 20.257-29.578 29.496-48.439 6.771-13.824 13.161-26.882 19.785-35.904a124.27 124.27 0 0111.349-13.306c13.698-14.086 36.24-31.86 89.311-44.43 30.491-7.223 61.237-4.767 88.91 7.14 11.38 4.878 22.698 10.066 33.666 15.081 8.387 3.834 17.056 7.802 25.614 11.589a151.632 151.632 0 0020.393 7.602c12.078 3.324 23.882 1.541 36.123-5.447 19.223-10.983 34.286-27.601 47.27-52.267a228.392 228.392 0 006.212-12.584c5.663-12.306 10.823-25.321 16.279-39.085 4.525-11.367 9.268-23.166 14.223-34.496 32.472-73.928 91.268-131.177 161.298-157.061z" fill="url(#paint5_radial_399_699)"/><path d="M959.907 124.118l.531 1.553c-70.717 23.787-130.488 83.291-163.813 163.156-5.736 13.68-10.971 27.978-16.043 41.769-4.542 12.353-8.828 24.026-13.419 35.292a341.726 341.726 0 01-5.808 13.409c-12.637 27.552-27.165 45.974-45.713 57.961-12.583 8.171-25.53 10.168-38.393 5.931a142.383 142.383 0 01-21.099-9.43c-7.935-4.17-15.967-8.557-23.697-12.809-11.831-6.478-24.098-13.162-36.424-19.375-35.631-17.911-69.454-14.934-91.522-9.214-28.128 7.232-60.139 18.136-84.468 43.772a120.183 120.183 0 00-10.626 12.787c-6.138 8.581-12.059 20.761-18.336 33.647-9.056 18.596-18.413 37.822-29.346 47.947-23.318 21.632-52.529 16.709-83.433 11.543-11.343-1.923-23.05-3.872-34.75-4.555-23.558-1.384-46.471-2.456-68.35-.127-39.724 4.125-73.184 14.031-102.293 30.282l-.799-1.432c29.31-16.362 62.979-26.343 102.927-30.508 21.952-2.322 44.977-1.271 68.601.124 11.801.708 23.553 2.667 34.93 4.574 30.532 5.102 59.315 9.948 82.051-11.099 10.718-9.886 20-29.008 28.99-47.464 6.316-12.933 12.26-25.195 18.473-33.88a120.836 120.836 0 0110.788-12.941c24.597-25.979 56.881-36.925 85.246-44.234 22.357-5.75 56.582-8.798 92.671 9.348 12.376 6.212 24.63 12.911 36.477 19.402 7.751 4.233 15.763 8.619 23.677 12.788a138.589 138.589 0 0020.848 9.321c12.36 4.082 24.803 2.152 36.989-5.738 18.258-11.826 32.593-30.03 45.102-57.282 2.004-4.373 3.962-8.846 5.777-13.345 4.577-11.23 8.871-22.885 13.409-35.226 5.057-13.845 10.295-28.115 16.051-41.863 33.539-80.326 93.606-140.135 164.794-164.084z" fill="url(#paint6_radial_399_699)"/><path d="M955.115 112.387l.477 1.568c-70.989 21.714-133.518 85.306-167.262 170.128-6.658 16.746-12.565 34.17-18.253 51.011-3.483 10.261-6.767 19.959-10.196 29.47a450.17 450.17 0 01-5.376 14.141c-12.219 30.658-25.624 50.093-43.493 63.003-12.769 9.252-26.036 11.344-39.424 6.236-7.739-2.959-14.943-7.116-21.574-11.17-7.579-4.633-15.26-9.512-22.672-14.22-12.421-7.894-25.275-16.055-38.305-23.512-28.697-16.422-62.493-20.471-95.132-11.379-26.805 7.439-57.323 18.433-80.428 43.566a115.34 115.34 0 00-10.042 12.452c-5.735 8.247-11.229 19.61-17.058 31.638-8.798 18.208-17.905 37.029-28.852 46.989-22.534 20.511-50.705 15.883-80.511 11.027-10.888-1.786-22.164-3.628-33.373-4.251-23.786-1.332-47.066-2.278-69.435.505-39.436 4.851-73.359 15.339-103.714 32.043l-.794-1.444c30.537-16.837 64.662-27.346 104.305-32.23 22.509-2.806 45.825-1.846 69.731-.518 11.291.626 22.603 2.482 33.545 4.274 29.403 4.836 57.207 9.389 79.146-10.612 10.709-9.751 19.74-28.427 28.484-46.489 5.843-12.085 11.369-23.512 17.177-31.863a116.752 116.752 0 0110.178-12.665c23.371-25.435 54.153-36.538 81.182-44.038 33.082-9.182 67.324-5.082 96.403 11.559 13.062 7.483 25.929 15.649 38.37 23.544 7.412 4.708 15.076 9.574 22.647 14.211 6.564 4.014 13.69 8.136 21.304 11.04 12.842 4.902 25.58 2.868 37.867-6.046 17.583-12.74 30.823-31.959 42.919-62.31a430.88 430.88 0 005.35-14.088c3.425-9.499 6.724-19.164 10.191-29.438 5.717-16.865 11.634-34.313 18.31-51.108 33.928-85.216 96.836-149.172 168.308-171.024z" fill="url(#paint7_radial_399_699)"/><path d="M950.303 100.657l.444 1.583c-72.418 20.093-136.228 86.29-170.627 177.061-7.86 20.685-14.519 42.198-20.957 62.995-2.2 7.102-4.379 14.073-6.537 20.934a603.498 603.498 0 01-4.942 14.881c-8.264 23.891-19.606 50.716-41.28 68.048-12.906 10.332-26.506 12.534-40.436 6.542-7.907-3.396-15.265-8.209-22.048-12.91-7.448-5.166-14.943-10.572-22.199-15.804-12.855-9.3-26.104-18.824-39.639-27.463-29.637-18.879-64.747-23.694-98.796-13.551-23.94 7.131-54.251 18.495-76.367 43.362a111.367 111.367 0 00-9.482 12.108c-5.326 7.901-10.399 18.458-15.763 29.641-8.549 17.803-17.393 36.223-28.354 46.018-21.756 19.424-48.906 15.069-77.611 10.531-10.449-1.662-21.261-3.391-32.016-3.927-23.171-1.217-47.714-2.126-70.529 1.141-38.468 5.43-73.839 16.795-105.092 33.764l-.786-1.448c31.425-17.057 66.987-28.488 105.679-33.959 22.968-3.286 47.589-2.382 70.846-1.153 10.799.566 21.652 2.297 32.154 3.965 28.328 4.507 55.074 8.772 76.247-10.136 10.727-9.578 19.491-27.841 27.973-45.503 5.391-11.235 10.479-21.87 15.878-29.854a116.026 116.026 0 019.582-12.265c22.396-25.164 52.978-36.641 77.127-43.846 34.519-10.284 70.081-5.382 100.134 13.792 13.579 8.67 26.863 18.249 39.673 27.538 7.252 5.224 14.748 10.63 22.179 15.783 6.703 4.656 13.977 9.417 21.759 12.759 13.327 5.73 26.365 3.601 38.758-6.328 21.337-17.098 32.569-43.631 40.743-67.32 1.683-4.792 3.326-9.828 4.924-14.853 2.173-6.828 4.34-13.824 6.536-20.913 6.448-20.823 13.099-42.352 20.982-63.098 34.711-91.305 98.922-157.885 171.843-178.115z" fill="url(#paint8_radial_399_699)"/><path d="M945.509 88.923l.402 1.602c-73.97 18.578-139.078 87.388-174.113 184.039-9.419 25.975-16.918 52.916-24.169 78.958l-2.342 8.415a1042.02 1042.02 0 01-4.497 15.618c-8.092 27.259-18.466 54.997-39.069 73.093-13.019 11.441-26.964 13.749-41.447 6.868-8.091-3.847-15.604-9.315-22.51-14.665-7.397-5.723-14.825-11.694-22.022-17.487-13.143-10.58-26.731-21.523-40.698-31.317-30.606-21.422-66.99-27.072-102.407-15.787-22.591 7.196-51.218 18.605-72.319 43.153a109.252 109.252 0 00-8.901 11.765c-4.926 7.539-9.57 17.308-14.481 27.641-8.258 17.399-16.86 35.417-27.856 45.047-20.933 18.346-47.077 14.322-74.715 10.047-9.994-1.525-20.354-3.147-30.56-3.649-23.514-1.152-48.414-1.96-71.622 1.777a337.565 337.565 0 00-106.526 35.541l-.778-1.451a339.543 339.543 0 01107.041-35.674c23.361-3.756 48.363-2.944 71.96-1.788 10.305.497 20.69 2.108 30.736 3.659 27.25 4.219 52.988 8.195 73.38-9.655 10.745-9.405 19.23-27.259 27.449-44.52 4.938-10.386 9.612-20.198 14.621-27.845a109.115 109.115 0 019.035-11.936c21.363-24.859 50.271-36.384 73.061-43.65 35.909-11.447 72.808-5.729 103.85 16.01 13.995 9.792 27.607 20.764 40.781 31.391 7.196 5.814 14.613 11.759 22.007 17.453 6.838 5.29 14.256 10.681 22.217 14.486 13.829 6.571 27.167 4.347 39.645-6.618 20.319-17.877 30.534-45.321 38.559-72.349 1.472-4.968 2.98-10.215 4.488-15.593l2.342-8.415c7.257-26.075 14.769-53.032 24.206-79.076 35.233-97.173 100.75-166.37 175.252-185.088z" fill="url(#paint9_radial_399_699)"/><path d="M940.717 77.236l.36 1.6C865.47 95.978 799.089 167.39 763.531 269.86c-10.47 30.179-18.347 61.412-25.527 90.819a1970.778 1970.778 0 01-4.062 16.357c-6.946 27.406-16.1 58.31-36.857 78.139-13.12 12.555-27.398 14.973-42.442 7.187-8.282-4.315-15.931-10.417-22.985-16.406-7.391-6.289-14.816-12.876-22.001-19.269-13.437-11.878-27.244-24.193-41.582-35.099-31.649-24.084-69.316-30.473-106.041-17.982-31.453 10.691-52.541 23.949-68.26 42.969a105.619 105.619 0 00-8.332 11.418c-4.521 7.164-8.747 16.139-13.216 25.647-8.008 17.014-16.309 34.584-27.345 44.08-20.177 17.279-45.283 13.541-71.823 9.555-9.558-1.43-19.455-2.898-29.142-3.342-23.878-1.089-49.193-1.79-72.718 2.403a368.144 368.144 0 00-107.97 37.253l-.77-1.456a369.99 369.99 0 01108.458-37.443c23.72-4.231 49.11-3.523 73.082-2.427 9.785.441 19.711 1.926 29.313 3.366 26.177 3.919 50.903 7.617 70.509-9.183 10.78-9.239 18.994-26.668 26.926-43.537 4.495-9.54 8.739-18.564 13.309-25.821a107.42 107.42 0 018.467-11.588c15.92-19.243 37.203-32.65 68.997-43.454 37.292-12.688 75.502-6.212 107.565 18.229 14.386 10.945 28.254 23.263 41.677 35.177 7.166 6.371 14.579 12.954 21.985 19.277 6.97 5.915 14.547 11.99 22.677 16.192 14.331 7.393 27.973 5.061 40.533-6.949 20.4-19.526 29.495-50.181 36.388-77.372a1746.96 1746.96 0 004.057-16.345c7.182-29.447 15.081-60.72 25.574-90.96C797.719 166.277 864.534 94.467 940.717 77.236z" fill="url(#paint10_radial_399_699)"/><path d="M935.906 65.466l.327 1.616c-77.338 15.768-144.995 89.772-180.987 197.99-8.745 26.305-16.286 55.361-24.547 94.254l-.847 4.011c-.915 4.35-1.842 8.713-2.779 13.087-6.598 30.785-14.705 62.576-34.646 83.184-13.049 13.49-28.012 16.067-43.44 7.498-8.576-4.786-16.318-11.562-23.451-18.15-7.645-7.051-15.289-14.456-22.683-21.621-13.41-12.999-27.283-26.442-41.758-38.274-32.263-26.377-72.242-33.735-109.675-20.177-28.983 10.49-49.389 24.074-64.21 42.739a101.934 101.934 0 00-7.761 11.078c-4.111 6.777-7.924 14.971-11.954 23.646-7.733 16.597-15.708 33.818-26.856 43.133-19.395 16.22-43.464 12.749-68.956 9.075-9.101-1.314-18.538-2.698-27.71-3.053-24.271-1.022-49.968-1.631-73.808 3.027-36.635 7.12-73.43 20.238-109.373 38.986l-.757-1.451c36.094-18.837 73.036-32.031 109.832-39.153 24.017-4.688 49.821-4.088 74.212-3.069 9.253.399 18.727 1.756 27.87 3.071 25.115 3.623 48.837 7.04 67.634-8.698 10.846-9.068 18.752-26.086 26.398-42.543 4.047-8.723 7.882-16.957 12.03-23.811a106.782 106.782 0 017.91-11.237c15.032-18.891 35.634-32.644 64.942-43.261 37.999-13.754 78.551-6.312 111.284 20.457 14.526 11.878 28.419 25.344 41.848 38.363 7.391 7.157 15.022 14.557 22.66 21.592 7.04 6.539 14.712 13.226 23.139 17.928 14.846 8.308 28.855 5.851 41.452-7.214 19.629-20.315 27.676-51.817 34.212-82.403a3931.69 3931.69 0 002.779-13.087l.847-4.01c8.243-38.936 15.824-68.06 24.6-94.43C789.866 155.782 857.988 81.356 935.906 65.466z" fill="url(#paint11_radial_399_699)"/><path d="M931.098 53.744l.29 1.622C852.033 69.841 783.09 146.462 746.96 260.324c-9.002 28.054-16.713 60.008-23.564 97.699l-2.19 12.226-1 5.612c-6.122 34.288-13.211 66.837-32.434 88.229-13.118 14.61-28.459 17.307-44.427 7.813-8.744-5.203-16.655-12.618-23.917-19.893-7.668-7.616-15.308-15.637-22.679-23.396-13.647-14.303-27.751-29.103-42.609-42.051-33.374-29.098-74.683-37.256-113.318-22.368-26.873 10.342-46.001 23.831-60.154 42.526a102.104 102.104 0 00-7.234 10.749c-3.692 6.366-7.085 13.796-10.684 21.661-7.427 16.227-15.09 33.025-26.304 42.128-18.589 15.17-41.658 11.972-66.084 8.602-8.613-1.213-17.595-2.44-26.262-2.771-24.691-.923-50.831-1.442-74.947 3.673-36.188 7.643-72.428 20.963-110.802 40.73l-.753-1.463c38.505-19.836 74.886-33.2 111.211-40.875 24.273-5.146 50.513-4.652 75.317-3.7 8.75.335 17.74 1.579 26.452 2.767 24.054 3.326 46.775 6.47 64.817-8.241 10.905-8.893 18.503-25.5 25.849-41.549 3.613-7.902 7.028-15.372 10.764-21.798a105.7 105.7 0 017.33-10.893c14.366-18.913 33.708-32.599 60.877-43.065 39.232-15.107 81.141-6.849 114.996 22.667 14.943 12.98 29.045 27.822 42.712 42.145 7.384 7.744 15.016 15.748 22.664 23.363 7.18 7.181 15.007 14.523 23.594 19.646 19.208 11.465 33.637 2.227 42.368-7.506 18.927-21.087 25.949-53.384 32.02-87.428l1-5.611c.735-4.101 1.458-8.187 2.199-12.23 6.857-37.765 14.588-69.788 23.609-97.911 36.342-114.442 105.761-191.48 185.721-206.067z" fill="url(#paint12_radial_399_699)"/><path d="M926.295 42.013l.27 1.622c-81.158 13.183-151.391 92.413-187.869 211.945-9.296 30.101-16.892 64.16-22.584 101.135a2041.431 2041.431 0 00-2.619 17.609l-.145.973c-4.5 30.874-10.108 69.283-30.213 93.271-16.67 19.904-33.901 15.416-45.414 8.149-8.921-5.638-16.986-13.729-24.384-21.638-7.736-8.189-15.356-16.834-22.766-25.17-13.858-15.617-28.185-31.758-43.404-45.813-34.587-31.894-77.184-40.87-116.955-24.572-24.403 10.031-42.763 23.838-56.114 42.322a101.955 101.955 0 00-6.603 10.383c-3.285 5.929-6.283 12.606-9.448 19.67-7.111 15.833-14.453 32.203-25.735 41.156-17.813 14.103-40.887 11.069-63.221 8.113-8.191-1.082-16.659-2.199-24.819-2.477-25.149-.867-51.739-1.243-76.003 4.302-35.552 8.111-71.215 21.594-112.276 42.485l-.749-1.455c41.191-20.96 76.971-34.495 112.605-42.604 24.456-5.591 51.16-5.206 76.428-4.343 8.208.318 16.76 1.397 24.966 2.491 23.009 3.044 44.738 5.911 62.004-7.774 10.994-8.721 18.259-24.906 25.281-40.557 3.187-7.104 6.19-13.813 9.51-19.799a104.32 104.32 0 016.733-10.563c13.525-18.724 32.116-32.756 56.829-42.836 40.394-16.55 83.665-7.486 118.714 24.895 15.274 14.11 29.628 30.289 43.515 45.923 7.401 8.341 15.047 16.953 22.742 25.141 7.315 7.836 15.301 15.841 24.058 21.362 19.856 12.541 34.481 2.691 43.275-7.796 19.808-23.642 25.378-61.802 29.853-92.463l.137-.969c.868-5.925 1.695-11.851 2.623-17.621 5.708-37.074 13.326-71.172 22.676-101.399 36.598-120.16 107.3-199.844 189.102-213.098z" fill="url(#paint13_radial_399_699)"/><path d="M921.495 30.289l.233 1.628c-82.991 11.917-154.513 93.756-191.285 218.902a666.241 666.241 0 00-21.618 104.628 1123.588 1123.588 0 00-2.2 18.246l-.124 1.063c-3.999 34.457-8.518 73.512-28.01 98.32-13.079 16.658-29.554 19.657-46.395 8.452-9.098-6.051-17.322-14.806-24.847-23.373-7.761-8.802-15.452-18.049-22.888-26.999-14.055-16.899-28.584-34.379-44.166-49.549-35.258-34.312-80.35-44.325-120.614-26.776-21.998 9.598-39.512 23.758-52.045 42.113a98.822 98.822 0 00-6.055 10.055c-2.885 5.456-5.48 11.396-8.24 17.683-6.759 15.432-13.745 31.409-25.168 40.183-16.999 13.071-39.045 10.307-60.359 7.645-7.738-.974-15.723-1.957-23.362-2.199-25.675-.76-52.742-1.01-77.159 4.956-34.503 8.403-69.551 22.04-113.637 44.2l-.736-1.471c44.2-22.221 79.352-35.895 114.009-44.338 24.599-6.008 51.823-5.768 77.541-4.978 7.714.229 15.751 1.239 23.519 2.209 20.983 2.6 42.73 5.328 59.183-7.324 11.114-8.544 18.036-24.281 24.695-39.556 2.777-6.295 5.382-12.279 8.289-17.796a103.728 103.728 0 016.148-10.208c12.745-18.622 30.447-32.968 52.75-42.694 40.846-17.802 86.624-7.696 122.389 27.112 15.629 15.209 30.175 32.702 44.268 49.663 7.437 8.93 15.115 18.173 22.854 26.945 7.453 8.478 15.583 17.135 24.549 23.074 20.536 13.665 35.372 3.145 44.191-8.089 19.185-24.438 23.7-63.259 27.666-97.499l.132-1.068c.7-6.03 1.419-12.26 2.2-18.266a667.917 667.917 0 0121.656-104.836c36.968-125.78 108.984-208.043 192.636-220.058z" fill="url(#paint14_radial_399_699)"/><path d="M916.691 18.576l.203 1.63c-84.879 10.686-157.674 95.126-194.746 225.89a636.976 636.976 0 00-20.606 108.07c-.682 6.425-1.234 12.871-1.893 20.061l-.115 1.06c-3.319 37.676-6.77 76.62-25.683 102.306-13.161 17.813-29.99 20.921-47.386 8.759-8.707-6.057-16.412-14.422-25.3-25.113-7.821-9.4-15.557-19.282-23.058-28.867-14.272-18.181-28.963-36.999-44.876-53.258-36.548-37.296-82.997-48.105-124.261-28.976a112.575 112.575 0 00-48.011 41.871 102.892 102.892 0 00-5.484 9.715c-2.47 4.967-4.796 10.432-7.008 15.705-6.421 14.996-13.017 30.586-24.603 39.202-16.198 12.033-37.195 9.56-57.508 7.171-7.27-.852-14.79-1.743-21.906-1.92-27.239-.697-53.725-.798-78.197 5.557-41.569 10.743-79.864 28.458-115.054 45.949l-.728-1.475c35.283-17.532 73.68-35.244 115.367-46.06 24.68-6.408 51.293-6.315 78.656-5.613 7.147.203 14.746 1.068 22.044 1.938 19.991 2.344 40.66 4.783 56.363-6.874 11.238-8.359 17.767-23.696 24.08-38.532 2.257-5.304 4.592-10.794 7.09-15.813a106.042 106.042 0 015.609-9.883 114.146 114.146 0 0148.605-42.432 99.813 99.813 0 0162.061-7.246c22.968 4.604 45.109 17.271 64.071 36.595 15.973 16.303 30.725 35.143 44.987 53.369 7.474 9.547 15.206 19.42 23.015 28.796 8.823 10.589 16.42 18.872 24.979 24.824 11.707 8.187 29.034 13.378 45.119-8.398 18.663-25.26 22.084-63.98 25.386-101.426l.116-1.06c.629-7.187 1.214-13.648 1.889-20.09a638.893 638.893 0 0120.634-108.365C757.851 114.198 831.135 29.325 916.691 18.576z" fill="url(#paint15_radial_399_699)"/><path d="M911.892 6.831l.183 1.63c-125.402 13.69-204.506 183.59-217.842 344.345-.651 7.852-1.166 16.116-1.667 24.102-2.428 38.642-4.919 78.594-23.367 105.086-6.583 9.447-14.526 15.196-22.949 16.608-8.121 1.367-16.658-1.17-25.411-7.529-8.928-6.501-16.759-15.434-25.767-26.856-7.891-10.003-15.681-20.516-23.208-30.694-14.419-19.465-29.322-39.597-45.572-56.913-37.353-39.813-86.365-51.761-127.898-31.18-17.909 8.877-32.702 22.904-43.952 41.687-4.207 7.012-7.571 15.174-10.845 23.154-5.997 14.643-12.205 29.775-23.989 38.199-15.398 10.996-35.325 8.815-54.651 6.715-6.809-.749-13.849-1.514-20.444-1.655-27.836-.568-54.841-.524-79.299 6.197-40.683 11.188-78.308 28.933-116.481 47.652l-.728-1.475c38.237-18.777 75.943-36.569 116.766-47.781 24.674-6.778 51.81-6.82 79.769-6.247 6.666.138 13.738.909 20.589 1.659 18.994 2.079 38.634 4.229 53.542-6.425 11.416-8.187 17.519-23.039 23.422-37.489 3.275-7.98 6.663-16.244 10.923-23.36 11.418-19.06 26.428-33.297 44.611-42.348 42.22-20.913 91.966-8.833 129.837 31.522 16.313 17.388 31.243 37.559 45.693 57.069 7.52 10.162 15.294 20.662 23.178 30.648 8.926 11.309 16.669 20.159 25.446 26.548 8.325 6.149 16.483 8.585 24.166 7.296 7.981-1.343 15.54-6.848 21.871-15.939 18.211-26.123 20.697-65.841 23.087-104.255.497-7.993 1.021-16.261 1.673-24.134C706.006 191.226 785.594 20.614 911.892 6.831z" fill="url(#paint16_radial_399_699)"/><path d="M913.355 10.51l.212 1.628c-44.565 5.77-85.289 31.527-121.104 76.406-31.401 39.395-57.698 92.523-76.065 153.621a597.674 597.674 0 00-20.916 98.961c-.936 7.557-1.74 15.518-2.517 23.205-.686 6.75-1.39 13.728-2.204 20.576-3.26 28.157-8.412 57.079-23.603 77.644-13.108 17.82-29.855 21.042-47.289 9.108-9.387-6.424-17.754-15.628-25.41-24.619-7.655-8.991-15.35-18.56-22.724-27.729-14.339-17.838-29.176-36.287-45.082-52.086-36.949-36.691-84.09-46.332-123.045-25.153-17.288 9.402-31.976 24.239-43.647 44.098-4.17 7.116-7.6 15.288-10.917 23.197-6.357 15.139-12.923 30.795-24.996 39.803a46.583 46.583 0 01-16.757 7.792c-13.1 3.306-27.947 2.062-42.31.86-5.784-.487-11.765-.985-17.446-1.176-6.602-.198-13.254-.464-19.873-.724l-2.811-.109c-17.629-.621-38.324-.711-58.084 3.381a398.939 398.939 0 00-41.406 10.971 494.79 494.79 0 00-78.383 32.978l-.757-1.451a496.257 496.257 0 0178.65-33.079 402.205 402.205 0 0141.534-10.999c19.938-4.122 40.753-4.035 58.484-3.411l2.811.109c6.619.261 13.259.522 19.861.72 5.714.176 11.716.675 17.513 1.146 14.228 1.192 28.939 2.427 41.774-.819a44.88 44.88 0 0016.17-7.506c11.718-8.747 18.202-24.185 24.469-39.121 3.335-7.958 6.796-16.174 11.019-23.395 11.82-20.129 26.718-35.171 44.283-44.719 39.644-21.55 87.504-11.791 124.987 25.434 15.977 15.867 30.838 34.346 45.204 52.222 7.373 9.17 14.994 18.641 22.697 27.691 7.577 8.906 15.861 18.016 25.113 24.321 11.704 8.046 29.084 13.042 45.042-8.727 15.012-20.293 20.062-48.927 23.302-76.863.805-6.844 1.524-13.789 2.195-20.551.781-7.7 1.584-15.661 2.521-23.239a599.65 599.65 0 0120.977-99.229c18.427-61.277 44.822-114.59 76.323-154.142 36.094-45.286 77.202-71.197 122.205-77.024z" fill="url(#paint17_radial_399_699)"/><path d="M914.832 14.177l.241 1.624c-79.461 12.033-150.398 92.781-194.622 221.53a582.973 582.973 0 00-23.703 92.109c-1.237 7.271-2.325 14.917-3.441 22.344-.885 6.043-1.795 12.299-2.791 18.453-4.152 26.274-10.101 53.279-25.377 72.855-16.635 21.319-34.319 16.743-46.258 9.156-9.352-5.967-17.907-14.673-25.049-22.395-7.466-8.059-14.87-16.449-22.022-24.57-14.334-16.268-29.16-33.09-44.823-47.437-36.472-33.431-81.759-40.756-118.169-19.097-16.687 9.907-31.246 25.541-43.334 46.507-4.131 7.179-7.617 15.315-10.986 23.177-6.708 15.61-13.629 31.84-26.015 41.474a50.35 50.35 0 01-16.878 8.481c-14.64 4.335-31.527 3.238-47.852 2.178-4.35-.279-8.859-.577-13.181-.748-6.751-.261-14.131-.712-23.219-1.437-17.922-1.426-38.964-2.528-59.026.34a377.378 377.378 0 00-42.32 8.504c-28.866 7.495-56.82 18.477-80.722 31.708l-.794-1.444c24.015-13.293 52.065-24.308 81.109-31.854a381.386 381.386 0 0142.503-8.545c20.23-2.854 41.372-1.777 59.384-.352 9.067.725 16.419 1.178 23.158 1.435 4.333.176 8.851.47 13.213.754 16.19 1.05 32.921 2.137 47.278-2.111a48.843 48.843 0 0016.337-8.206c12.043-9.367 18.906-25.369 25.547-40.838 3.387-7.91 6.895-16.087 11.071-23.347 12.233-21.223 27.01-37.067 43.94-47.083 37.068-22.007 83.104-14.608 120.131 19.337 15.719 14.403 30.581 31.259 44.943 47.565 7.143 8.104 14.518 16.497 21.997 24.541 7.067 7.645 15.531 16.261 24.723 22.119 20.501 13.055 35.261 2.409 44.025-8.811 15.047-19.281 20.929-46.055 25.04-72.108 1-6.145 1.914-12.393 2.772-18.384 1.087-7.424 2.234-15.117 3.454-22.38a583.272 583.272 0 0123.742-92.358c20.016-58.257 46.634-108.871 76.998-146.366 35.716-44.118 75.733-69.767 118.976-76.32z" fill="url(#paint18_radial_399_699)"/><path d="M916.304 17.853l.278 1.617C815.339 37.145 752.784 160.534 724.496 232.478a581.938 581.938 0 00-26.495 85.27c-1.623 7.264-3.152 14.958-4.634 22.4-1.017 5.106-2.032 10.26-3.116 15.396-5.138 24.563-12.003 49.765-27.13 68.065-9.074 11.027-24.312 21.507-45.147 9.207-9.297-5.488-17.694-13.267-24.684-20.161-6.989-6.895-14.145-14.178-20.95-21.156-15.072-15.491-29.375-30.04-44.917-43.052-35.959-30.024-79.363-35.057-113.338-13.119-16.262 10.51-30.343 26.513-43.034 48.93-4.066 7.21-7.59 15.263-10.993 23.05-7.102 16.231-14.44 33.012-27.166 43.273a54.546 54.546 0 01-17.009 9.196c-16.685 5.653-36.306 4.573-55.286 3.526-2.355-.124-4.705-.26-7.031-.367-7.384-.347-15.155-1.014-23.75-2.053-19.367-2.324-40.039-4.258-59.968-2.7a356.513 356.513 0 00-43.268 6.05c-31.034 6.29-59.76 16.815-83.064 30.431l-.833-1.417c23.465-13.708 52.365-24.292 83.569-30.629a358.063 358.063 0 0143.471-6.071c20.073-1.573 40.84.369 60.292 2.704 8.533 1.037 16.284 1.703 23.632 2.037 2.33.114 4.68.251 7.046.379 18.813 1.033 38.253 2.114 54.659-3.444a52.805 52.805 0 0016.5-8.915c12.405-10.014 19.665-26.609 26.69-42.655 3.425-7.827 6.963-15.916 11.065-23.203 12.836-22.654 27.093-38.847 43.574-49.497 34.582-22.334 78.757-17.266 115.286 13.236 15.587 13.021 30.562 28.345 45.04 43.168 6.813 6.995 13.84 14.174 20.93 21.134 6.914 6.818 15.216 14.519 24.36 19.915 19.843 11.711 34.374 1.672 43.064-8.799 14.914-17.992 21.693-43.005 26.794-67.359 1.072-5.14 2.095-10.278 3.12-15.387 1.478-7.451 3.007-15.145 4.636-22.442a584.36 584.36 0 0126.566-85.514c28.401-72.298 91.297-196.223 193.327-214.052z" fill="url(#paint19_radial_399_699)"/><path d="M917.772 21.521l.327 1.616c-71.048 14.162-134.784 82.976-189.55 204.554-12.561 27.94-22.13 53.581-29.289 78.423-2.074 7.226-3.979 14.557-5.983 22.315-1.078 4.146-2.162 8.324-3.278 12.496-6.075 22.76-13.78 46.217-28.864 63.298-12.944 14.571-28.149 17.771-44.131 9.181-9.323-5.013-17.883-12.214-24.315-17.92-6.431-5.706-12.993-11.656-19.256-17.367-15.436-14.068-30.022-27.35-45.645-39.045-35.366-26.485-76.936-29.203-108.488-7.101-15.584 10.919-29.544 27.743-42.712 51.334-3.98 7.201-7.512 15.126-10.93 22.789-7.501 16.845-15.261 34.251-28.343 45.196a59.337 59.337 0 01-17.113 9.878c-19.529 7.433-43.958 6.019-63.593 4.885a237.183 237.183 0 01-24.235-2.68c-23.121-3.648-42.337-6.04-60.895-5.707a334.677 334.677 0 00-44.229 3.593c-22.828 3.394-56.182 11.217-85.402 29.16l-.858-1.405c29.448-18.087 63.034-25.954 86.019-29.379a337.015 337.015 0 0144.44-3.617c18.681-.329 37.979 2.066 61.196 5.771a240.042 240.042 0 0024.118 2.643c19.479 1.124 43.719 2.522 62.914-4.78a57.578 57.578 0 0016.639-9.612c12.792-10.694 20.468-27.931 27.896-44.602 3.424-7.695 6.973-15.649 10.992-22.918 13.269-23.837 27.412-40.815 43.228-51.89 32.148-22.522 74.458-19.796 110.418 7.135 15.687 11.747 30.293 25.051 45.76 39.144 6.263 5.712 12.737 11.6 19.245 17.342 6.36 5.658 14.849 12.771 24.003 17.719 15.385 8.296 29.541 5.318 42.074-8.845 14.868-16.802 22.51-40.019 28.55-62.612a1954.41 1954.41 0 003.265-12.48c1.93-7.433 3.919-15.114 6.014-22.359 7.14-24.905 16.75-50.634 29.368-78.651C782.038 104.917 846.205 35.787 917.772 21.521z" fill="url(#paint20_radial_399_699)"/><path d="M919.244 25.2l.364 1.608C832.927 46.39 771.367 148.067 732.606 222.865c-13.726 26.502-24.224 49.912-32.119 71.611-2.653 7.327-5.123 14.792-7.737 22.695-1.001 3.023-2.012 6.07-3.035 9.112-6.493 19.584-14.846 41.852-30.615 58.467-12.966 13.675-27.457 16.783-43.002 9.225-9.173-4.456-17.613-10.725-23.95-15.687-5.157-4.046-10.251-8.11-15.297-12.135-16.539-13.185-32.156-25.649-48.623-36.448-34.707-22.822-74.431-23.243-103.655-1.096-15.145 11.487-28.635 28.572-42.421 53.762-3.878 7.135-7.378 14.885-10.795 22.396-7.92 17.498-16.148 35.609-29.602 47.247a64.38 64.38 0 01-17.219 10.58c-19.665 8.292-43.829 7.997-64.868 6.611a190.326 190.326 0 01-24.817-3.274c-21.115-4.162-41.727-7.968-61.855-8.788a322.639 322.639 0 00-45.189 1.115c-23.892 2.333-58.507 9.064-87.74 27.89l-.896-1.378c29.516-19.005 64.393-25.824 88.482-28.145a323.882 323.882 0 0145.404-1.152c20.243.829 40.927 4.662 62.104 8.827a188.513 188.513 0 0024.642 3.222c20.809 1.389 44.759 1.679 64.086-6.469a62.906 62.906 0 0016.789-10.305c13.199-11.422 21.321-29.344 29.173-46.68 3.409-7.528 6.931-15.318 10.845-22.51 13.898-25.431 27.517-42.676 42.881-54.282 29.807-22.551 70.232-22.186 105.54 1.029 16.542 10.876 32.184 23.349 48.788 36.545a3399.22 3399.22 0 0015.293 12.126c6.257 4.919 14.625 11.119 23.645 15.503 14.84 7.203 28.659 4.216 41.098-8.887 15.529-16.366 23.781-38.457 30.271-57.868 1.023-3.043 2.033-6.076 3.031-9.1 2.618-7.915 5.122-15.416 7.755-22.744 7.891-21.707 18.393-45.22 32.162-71.782 27.508-53.082 52.57-92.139 78.878-122.913C844.723 58.628 881.46 33.727 919.244 25.2z" fill="url(#paint21_radial_399_699)"/><path d="M920.713 28.847l.398 1.594C842.727 50.38 784.78 137.696 736.645 218.044c-15.602 26.032-26.356 46.001-34.868 64.754-3.494 7.697-6.782 15.603-10.261 23.978l-2.014 4.841c-7.498 17.963-16.799 38.403-32.418 53.68-12.849 12.574-26.953 15.689-41.918 9.258-7.143-3.066-14.412-7.214-23.576-13.457l-8.936-6.095c-18.467-12.636-35.918-24.562-54.009-34.717-33.984-19.039-71.849-17.156-98.821 4.91-18.812 15.392-32.395 38.112-42.121 56.185-3.746 7.005-7.213 14.538-10.56 21.826-8.371 18.216-17.035 37.058-30.951 49.48a70.274 70.274 0 01-17.34 11.27c-16.575 7.658-38.21 10.392-66.152 8.34a159.171 159.171 0 01-25.344-3.882c-19.668-4.595-41.955-9.809-62.805-11.825a311.248 311.248 0 00-46.13-1.301c-35.16 1.717-67.16 11.174-90.08 26.642l-.917-1.359c23.177-15.613 55.473-25.174 90.928-26.904a314.29 314.29 0 0146.365 1.306c20.948 2.031 43.292 7.26 63.009 11.873a158.955 158.955 0 0025.085 3.848c27.66 2.028 49.035-.658 65.342-8.195a68.506 68.506 0 0016.924-11.032c13.628-12.21 22.252-30.873 30.56-48.94 3.359-7.303 6.827-14.857 10.596-21.923 9.806-18.21 23.501-41.102 42.522-56.679 27.504-22.518 66.091-24.455 100.673-5.073 18.168 10.191 35.667 22.136 54.158 34.801l8.913 6.045c9.073 6.174 16.253 10.281 23.295 13.303 14.29 6.141 27.789 3.138 40.125-8.921 15.383-15.019 24.616-35.319 32.04-53.136l2.013-4.841c3.488-8.379 6.747-16.282 10.296-24.034 8.547-18.81 19.328-38.831 34.965-64.919 48.32-80.542 106.481-168.207 185.48-188.304z" fill="url(#paint22_radial_399_699)"/><path d="M922.187 32.553l.452 1.58c-71.985 20.47-124.824 96.77-171.47 164.01-3.545 5.11-7.038 10.156-10.482 15.09-12.946 18.532-26.51 38.261-37.671 57.91-4.477 7.93-8.739 16.045-13.79 25.827-8.846 17.1-18.77 34.981-34.166 48.878-12.712 11.474-26.447 14.604-40.83 9.28a153.133 153.133 0 01-23.212-11.204c-20.936-12.033-41.414-23.587-61.984-33.005-33.674-15.389-68.822-11.309-94.008 10.916-17.759 15.671-30.596 37.429-41.813 58.605-3.582 6.81-6.951 14.047-10.208 21.042-8.859 19.011-18.014 38.68-32.416 51.946a76.746 76.746 0 01-17.473 11.935c-21.971 11.037-48.794 11.572-67.424 10.074a141.905 141.905 0 01-25.862-4.493l-3.82-1.024c-20.775-5.616-40.411-10.941-59.906-13.861a304.294 304.294 0 00-47.066-3.77c-21.14.061-61.23 3.424-92.446 25.354l-.942-1.348c31.576-22.183 72.082-25.603 93.379-25.654a305.482 305.482 0 0147.332 3.78c19.605 2.961 40.151 8.54 60.09 13.889l3.823 1.032a139.155 139.155 0 0025.569 4.445c18.429 1.478 44.93.967 66.535-9.945a74.547 74.547 0 0017.09-11.711c14.17-13.019 23.254-32.535 32.046-51.405 3.266-7.02 6.648-14.273 10.248-21.111 11.292-21.321 24.233-43.206 42.176-59.072 25.677-22.699 61.513-26.818 95.748-11.168 20.623 9.423 41.153 21.025 62.117 33.075a151.338 151.338 0 0022.953 11.1c13.755 5.094 26.926 2.078 39.161-8.958 15.183-13.72 25.008-31.466 33.803-48.412 5.067-9.789 9.293-17.918 13.816-25.879 11.189-19.722 24.787-39.487 37.751-58.047a1921.06 1921.06 0 0010.485-15.082c46.836-67.467 99.869-143.984 172.415-164.619z" fill="url(#paint23_radial_399_699)"/><path d="M923.655 36.222l.498 1.568c-61.325 19.458-109.536 81.411-152.066 136.068-9.48 12.178-18.428 23.683-27.381 34.554l-5.824 7.068c-12.443 15.1-24.199 29.356-34.643 44.016-4.487 6.302-9.205 13.343-15.296 22.83-10.345 16.126-20.879 31.613-35.911 44.065-12.579 10.406-25.94 13.538-39.725 9.314a175.271 175.271 0 01-22.814-8.986c-23.11-10.777-42.497-18.784-61.014-25.201-32.765-11.377-66.111-5.029-89.203 16.924-17.689 16.829-30.701 40.318-41.504 61.025-3.374 6.514-6.605 13.366-9.724 19.997-9.383 19.903-19.072 40.489-34.033 54.632a84.013 84.013 0 01-17.58 12.658c-18.239 9.883-42.64 14.079-68.696 11.809a127.4 127.4 0 01-26.396-5.119l-9.099-2.776c-19.235-5.889-37.428-11.434-55.577-15.165a300.206 300.206 0 00-48.023-6.199c-37.214-1.535-71.75 7.266-94.801 24.092l-.964-1.328c23.329-17.062 58.254-25.958 95.813-24.397a300.522 300.522 0 0148.296 6.246c18.256 3.723 37.305 9.555 55.724 15.199l9.098 2.777a125.836 125.836 0 0026.05 5.044c25.753 2.246 49.822-1.881 67.776-11.615a81.604 81.604 0 0017.241-12.404c14.727-13.927 24.357-34.375 33.665-54.133 3.132-6.646 6.363-13.519 9.754-20.061 10.874-20.819 23.961-44.454 41.834-61.456 23.552-22.383 57.511-28.847 90.882-17.29 18.569 6.442 37.996 14.472 61.155 25.267a174 174 0 0022.611 8.917c13.24 4.088 26.08 1.03 38.201-9.008 14.853-12.29 25.304-27.669 35.571-43.679 6.109-9.515 10.839-16.572 15.344-22.902 10.483-14.708 22.249-28.988 34.716-44.099l5.824-7.069c8.924-10.868 17.876-22.364 27.348-34.539 42.686-54.868 91.061-117.037 152.873-136.644z" fill="url(#paint24_radial_399_699)"/><path d="M925.128 39.9l.543 1.559c-52.572 18.53-94.237 67.366-134.545 114.589-14.648 17.156-28.486 33.361-42.393 47.562-5.013 5.119-10.021 10.115-14.865 14.936-10.059 10.032-19.537 19.539-28.444 29.332-5.366 5.964-10.889 12.473-16.807 19.845-10.343 12.901-22.081 27.531-37.699 39.221-12.44 9.356-25.428 12.51-38.616 9.337a218.596 218.596 0 01-22.437-6.749 531.373 531.373 0 00-59.963-17.373c-32.215-7.373-62.988.985-84.386 22.917-16.731 17.141-29.036 39.787-41.195 63.445-3.116 6.105-6.146 12.463-9.066 18.621-9.944 20.913-20.233 42.535-35.813 57.674a92.07 92.07 0 01-17.7 13.348c-19.21 11.148-44.058 15.959-69.98 13.518a117.536 117.536 0 01-26.924-5.727 1032.594 1032.594 0 01-14.123-4.816c-17.002-5.832-34.597-11.859-51.485-16.17a295.262 295.262 0 00-48.987-8.664c-38.428-3.213-73.84 5.117-97.156 22.788l-1.001-1.3c23.627-17.963 59.446-26.397 98.284-23.168a299.152 299.152 0 0149.294 8.697c16.974 4.322 34.585 10.362 51.603 16.207 4.656 1.692 9.411 3.29 14.1 4.877a115.844 115.844 0 0026.557 5.651c25.575 2.387 50.075-2.348 68.99-13.323a90.34 90.34 0 0017.383-13.113c15.366-14.921 25.583-36.411 35.465-57.194 2.937-6.166 5.96-12.541 9.088-18.662 12.23-23.77 24.597-46.545 41.49-63.84 21.843-22.375 53.177-30.897 85.955-23.394a533.59 533.59 0 0160.197 17.468 216.914 216.914 0 0022.262 6.697c12.867 3.087 25.058.132 37.237-9.045 15.396-11.579 27.06-26.126 37.343-38.959 5.936-7.401 11.45-13.906 16.867-19.914 8.884-9.842 18.399-19.336 28.474-29.375 4.866-4.841 9.844-9.814 14.852-14.921 13.903-14.189 27.707-30.358 42.316-47.486 40.48-47.402 82.292-96.404 135.285-115.095z" fill="url(#paint25_radial_399_699)"/><path d="M926.591 43.581l.583 1.49c-45.147 17.651-82.502 58.279-118.595 97.55-19.139 20.819-37.209 40.481-55.859 56.142-7.535 6.34-15.05 12.299-22.32 18.066-8.325 6.598-16.197 12.839-23.763 19.355a357.155 357.155 0 00-18.306 16.846l-2.584 2.599c-11.02 10.89-22.417 22.152-36.783 31.885-12.298 8.334-24.915 11.482-37.5 9.355a321.62 321.62 0 01-22.042-4.518c-22.688-5.477-43.469-8.007-59.026-9.575-31.055-3.183-60.081 7.368-79.633 28.969-17.041 18.793-29.706 43.808-40.891 65.856-2.785 5.542-5.536 11.271-8.201 16.809-10.569 22.072-21.504 44.894-37.806 61.136a100.559 100.559 0 01-17.835 14.053c-19.786 12.235-45.753 17.804-71.243 15.269a109.848 109.848 0 01-27.443-6.339c-6.308-2.336-12.602-4.728-18.859-7.107-15.722-5.988-31.966-12.172-47.691-16.939-18.404-5.611-34.743-9.243-49.939-11.126-39.06-4.812-76.254 3.257-99.508 21.575l-1.018-1.292c23.934-18.888 60.66-26.856 100.729-21.906 15.315 1.879 31.745 5.531 50.202 11.148 15.776 4.793 32.053 10.983 47.799 16.98 6.258 2.379 12.539 4.767 18.844 7.094a108.41 108.41 0 0027.022 6.257c25.13 2.497 50.724-2.984 70.211-15.034a98.896 98.896 0 0017.534-13.806c16.096-16.047 26.96-38.737 37.475-60.683 2.662-5.547 5.418-11.288 8.219-16.817 11.207-22.199 23.972-47.281 41.144-66.233 19.915-21.977 49.45-32.717 81.03-29.49 15.621 1.6 36.479 4.145 59.257 9.641 7.214 1.775 14.575 3.252 21.929 4.49 12.323 2.084 24.209-.875 36.305-9.097 14.236-9.644 25.577-20.85 36.565-31.655l2.586-2.551c5.997-5.907 11.955-11.453 18.391-16.924 7.588-6.536 15.468-12.781 23.806-19.394 7.261-5.764 14.769-11.719 22.294-18.035 18.576-15.668 36.605-35.31 55.72-56.049 36.227-39.442 73.728-80.216 119.2-97.995z" fill="url(#paint26_radial_399_699)"/><path d="M928.054 47.262l.677 1.497c-38.708 16.754-71.888 50.767-103.984 83.655-23.05 23.627-44.825 45.952-67.982 61.566-9.629 6.502-19.235 12.318-28.533 17.945-7.123 4.31-13.779 8.359-20.373 12.632-7.244 4.687-13.727 9.232-19.809 13.858-2.427 1.853-4.86 3.74-7.326 5.641-10.413 8.066-21.178 16.402-33.759 23.977-12.332 7.433-24.227 10.506-36.362 9.395-6.041-.562-13.964-1.321-21.661-2.293-20.908-2.634-40.251-2.409-58.046-1.815-17.475.589-50.436 5.916-74.891 34.995-15.955 18.966-27.444 41.989-39.615 66.358l-.972 1.93c-2.373 4.782-4.716 9.63-7.029 14.455-11.275 23.43-22.935 47.658-40.078 65.157a108.893 108.893 0 01-17.944 14.726c-20.559 13.492-46.99 19.685-72.507 17-9.602-1-19.017-3.338-27.97-6.947-7.806-3.129-15.676-6.421-23.299-9.613-14.543-6.078-29.575-12.367-44.2-17.49-19.178-6.742-35.343-11.058-50.896-13.575-40.235-6.497-78.303 1.09-101.863 20.313l-1.04-1.273c23.913-19.513 62.476-27.253 103.168-20.661 15.647 2.525 31.906 6.869 51.181 13.647 14.653 5.141 29.717 11.436 44.276 17.526 7.607 3.179 15.477 6.471 23.283 9.621a102.226 102.226 0 0027.53 6.823c25.145 2.642 51.186-3.455 71.437-16.737a108.2 108.2 0 0017.634-14.496c16.947-17.309 28.553-41.412 39.774-64.716 2.335-4.845 4.686-9.697 7.042-14.471l.968-1.939c11.665-23.415 23.753-47.565 39.83-66.687 24.855-29.552 58.338-34.974 76.084-35.565 17.745-.591 37.297-.8 58.291 1.846 7.669.954 15.563 1.716 21.611 2.315 11.782 1.089 23.337-1.89 35.378-9.141 12.497-7.537 23.228-15.838 33.561-23.857 2.489-1.926 4.934-3.807 7.335-5.646 6.125-4.665 12.632-9.221 19.906-13.932 6.607-4.289 13.351-8.367 20.423-12.654 9.27-5.624 18.864-11.445 28.458-17.911 23.014-15.53 44.728-37.787 67.727-61.35 32.264-33.095 65.56-67.23 104.565-84.11z" fill="url(#paint27_radial_399_699)"/><path d="M930.232 52.432c-33.049 15.806-62.264 44.389-90.511 72.039-26.438 25.875-51.432 50.33-79 64.705-11.327 5.91-22.68 10.874-33.669 15.684-6.243 2.733-12.143 5.312-18.049 8.054-8.196 3.808-14.965 7.273-21.291 10.87-5.073 2.89-10.082 5.901-15.389 9.077-8.665 5.2-17.63 10.585-27.403 15.742-12.207 6.439-23.72 9.511-35.228 9.386-4.38-.034-8.641-.051-12.801-.044-2.865-.004-5.676-.002-8.466-.019-20.592-.107-39.591 2.794-57.055 5.968-20.27 3.678-48.893 13.784-70.14 41.039-14.962 19.202-26.503 42.712-37.693 65.417l-2.597 5.266c-1.845 3.767-3.644 7.543-5.498 11.334-12.083 25.054-24.585 50.963-42.74 69.947a119.44 119.44 0 01-18.074 15.441 110.078 110.078 0 01-73.771 18.73 99.056 99.056 0 01-28.492-7.567c-9.16-3.917-18.423-8.171-27.372-12.245-13.488-6.151-27.432-12.51-41.044-17.91-19.665-7.821-36.135-12.876-51.852-16.024-41.39-8.181-80.33-1.075-104.22 19.072l-1.052-1.258c24.242-20.457 63.722-27.706 105.601-19.403 15.8 3.13 32.37 8.25 52.133 16.108 13.656 5.41 27.616 11.782 41.125 17.934 8.907 4.092 18.18 8.281 27.335 12.231a97.544 97.544 0 0028.036 7.471 108.407 108.407 0 0072.658-18.448 117.83 117.83 0 0017.823-15.217c17.975-18.781 30.41-44.569 42.444-69.51a3629.08 3629.08 0 015.51-11.35l2.585-5.271c11.214-22.807 22.8-46.397 37.865-65.727 16.818-21.583 42.08-36.376 71.13-41.637 17.543-3.18 36.637-6.114 57.364-5.998 2.778.013 5.589.011 8.454.015 4.157-.006 8.427.007 12.81.04 11.224.122 22.495-2.881 34.456-9.198 9.765-5.153 18.681-10.466 27.315-15.691 5.323-3.184 10.307-6.184 15.422-9.093 6.414-3.647 13.191-7.116 21.429-10.943 5.923-2.75 11.824-5.348 18.091-8.072 10.939-4.787 22.283-9.748 33.564-15.627 27.371-14.275 52.255-38.641 78.612-64.429 28.344-27.744 57.654-56.43 90.935-72.371l.71 1.482z" fill="url(#paint28_radial_399_699)"/><path d="M931.759 56.096c-27.999 14.782-53.409 38.831-77.978 62.087-29.353 27.788-57.084 54.036-89.066 66.185-12.707 4.822-25.502 8.514-37.907 12.019-5.487 1.575-11.165 3.196-16.639 4.866-8.963 2.735-16.213 5.249-22.823 7.906-9.82 3.939-19.603 8.495-29.972 13.317-4.73 2.2-9.557 4.454-14.511 6.695-12.116 5.481-23.272 8.562-34.068 9.365-7.235.562-14.151 1.362-20.836 2.16-21.309 2.495-40.321 8.354-56.105 13.751-19.032 6.503-45.817 19.959-65.383 47.099-14.026 19.444-25.137 42.477-35.904 64.759l-4.059 8.386-3.46 7.168c-13.032 27.055-26.512 55.038-45.906 75.762a130.301 130.301 0 01-18.191 16.119c-21.929 15.965-49.269 23.446-75.043 20.463a95.227 95.227 0 01-29.014-8.187c-10.437-4.8-20.95-9.99-31.12-15.003-12.549-6.193-25.532-12.633-38.233-18.204-20.154-8.9-36.924-14.776-52.794-18.439-32.85-7.662-78.09-6.997-106.582 17.792l-1.074-1.237c28.93-25.179 74.787-25.91 108.031-18.156 15.978 3.725 32.85 9.626 53.097 18.575 12.744 5.621 25.732 12.029 38.302 18.223 10.15 5.012 20.658 10.193 31.075 14.993a93.459 93.459 0 0028.515 8.04c25.359 2.938 52.296-4.41 73.883-20.151a128.473 128.473 0 0017.995-15.929c19.214-20.541 32.636-48.408 45.618-75.35l3.466-7.18a1697.55 1697.55 0 004.05-8.382c10.793-22.335 21.953-45.44 36.057-65 19.819-27.495 46.925-41.107 66.175-47.689 15.867-5.434 34.978-11.318 56.412-13.829 6.705-.776 13.667-1.608 20.935-2.165 10.651-.787 21.604-3.848 33.533-9.254 4.954-2.241 9.772-4.491 14.503-6.691 10.385-4.829 20.193-9.397 30.056-13.354 6.651-2.677 13.946-5.201 22.952-7.955 5.483-1.673 11.169-3.298 16.667-4.869 12.349-3.52 25.122-7.172 37.767-11.975 31.681-12.033 59.334-38.186 88.518-65.837 24.654-23.334 50.148-47.462 78.341-62.352l.72 1.458z" fill="url(#paint29_radial_399_699)"/><path d="M933.274 59.735c-23.466 13.638-45.225 33.86-66.278 53.389-30.409 28.195-61.862 57.356-98.314 66.398-13.783 3.424-27.752 5.501-41.29 7.594-5.279.786-10.736 1.602-16.019 2.47-9.783 1.614-17.29 3.136-24.319 4.955-15.808 4.007-31.533 9.689-46.179 15.237a179.045 179.045 0 01-32.944 9.4c-7.225 1.253-14.117 2.839-20.482 4.368-17.541 4.297-35.05 11.139-55.089 21.524-25.559 13.245-45.952 31.135-60.618 53.176-13.149 19.622-23.883 42.242-34.27 64.07a3669.284 3669.284 0 01-5.439 11.419l-.718 1.443c-14.174 29.588-28.818 60.234-49.78 83.128a142.46 142.46 0 01-18.321 16.812c-22.53 17.245-50.346 25.323-76.302 22.182a91.68 91.68 0 01-29.545-8.803c-11.777-5.757-23.576-12.008-35.02-18.076-11.444-6.068-23.503-12.494-35.258-18.18-20.728-10.011-37.842-16.648-53.735-20.875-33.696-9.042-80.017-9.45-108.954 16.538l-1.1-1.226c29.432-26.413 76.367-26.051 110.473-16.902 16.033 4.245 33.177 10.949 54.062 21.04 11.774 5.707 23.742 12.063 35.31 18.206 11.569 6.143 23.226 12.347 34.972 18.057a89.89 89.89 0 0029.009 8.643c25.58 3.07 52.918-4.884 75.106-21.883a140.185 140.185 0 0018.108-16.615c20.794-22.707 35.4-53.215 49.51-82.723l.706-1.469c1.823-3.8 3.634-7.602 5.435-11.406 10.398-21.914 21.163-44.578 34.327-64.368 14.822-22.273 35.424-40.349 61.227-53.724 20.164-10.441 37.786-17.324 55.46-21.661 6.368-1.52 13.319-3.133 20.594-4.389a177.273 177.273 0 0032.636-9.321c14.692-5.558 30.48-11.259 46.366-15.291 7.09-1.797 14.626-3.321 24.463-4.95 5.32-.875 10.785-1.694 16.019-2.47 13.502-2.016 27.447-4.102 41.148-7.529 36.041-8.948 67.332-37.955 97.6-66.016 21.121-19.58 42.958-39.827 66.566-53.599l.877 1.427z" fill="url(#paint30_radial_399_699)"/><path d="M934.796 63.39c-19.339 12.445-37.641 29.3-55.324 45.581-32.34 29.744-65.764 60.542-106.807 65.696-14.385 1.802-29.107 2.214-43.344 2.608-5.522.161-11.225.322-16.798.546-10.069.403-18.28 1.014-25.855 1.941a282.274 282.274 0 00-47.892 10.469l-3.677 1.12c-9.234 2.806-18.775 5.712-28.095 8.285-6.211 1.711-12.789 3.861-20.108 6.577-18.335 6.843-36.036 16.422-54.113 29.295a202.512 202.512 0 00-55.85 59.261c-12.146 19.833-22.478 41.96-32.475 63.359a3685.312 3685.312 0 01-6.863 14.643c-15.732 33.254-30.473 62.705-51.613 86.254a155.217 155.217 0 01-18.44 17.551c-23.097 18.509-51.377 27.21-77.57 23.924a89.422 89.422 0 01-30.051-9.41c-12.72-6.55-25.491-13.812-37.835-20.823-10.933-6.209-22.236-12.634-33.384-18.493-21.165-11.134-38.557-18.562-54.718-23.383-52.838-15.84-92.988-1.669-111.318 15.279l-1.12-1.207c12.867-11.866 30.932-19.393 52.285-21.726 19.054-2.11 40.585.05 60.609 6.056 16.298 4.831 33.745 12.315 54.981 23.496 11.173 5.869 22.488 12.298 33.425 18.516 12.344 7.011 25.095 14.252 37.782 20.796a87.7 87.7 0 0029.5 9.237c25.755 3.232 53.578-5.364 76.339-23.569a154.631 154.631 0 0018.25-17.325c20.982-23.386 35.631-52.705 51.343-85.87 2.311-4.861 4.598-9.734 6.863-14.622 10.014-21.448 20.369-43.614 32.56-63.528a204.192 204.192 0 0156.303-59.729c18.199-12.958 36.031-22.606 54.495-29.498 7.373-2.73 13.993-4.898 20.25-6.62 9.302-2.566 18.816-5.489 28.049-8.275l3.681-1.111a282.35 282.35 0 0148.191-10.544c7.636-.945 15.876-1.559 25.986-1.961 5.579-.236 11.294-.393 16.816-.553 14.203-.379 28.871-.797 43.179-2.594 40.518-5.088 73.75-35.688 105.89-65.271 17.797-16.364 36.117-33.246 55.569-45.773l.904 1.395z" fill="url(#paint31_radial_399_699)"/><path d="M936.327 67.04c-15.624 11.098-30.652 25.05-45.189 38.529-33.783 31.343-68.725 63.755-114.515 64.255-15.123.171-30.748-1.124-45.883-2.36-14.655-1.2-29.785-2.447-44.416-2.368-84.916.464-159.333 46.511-204.167 126.313-11.095 19.75-20.949 41.197-30.45 61.929-21.231 46.212-43.168 93.982-79.849 124.601-34.106 28.467-74.999 34.309-109.399 15.62-13.604-7.389-27.235-15.642-40.459-23.616-28.232-17.065-57.421-34.705-87.372-44.584-33.92-11.167-84.027-14.196-113.697 14.028l-1.134-1.191c30.225-28.736 81.023-25.718 115.336-14.396 30.13 9.94 59.402 27.633 87.715 44.742 13.182 7.973 26.819 16.213 40.383 23.58 12.657 6.88 57.822 26.08 107.578-15.411 36.383-30.364 58.26-77.976 79.415-124.022 9.544-20.772 19.412-42.255 30.533-62.057C525.9 210.287 600.855 163.936 686.33 163.481c14.701-.08 29.884 1.173 44.559 2.374 15.085 1.238 30.678 2.527 45.732 2.358 45.139-.488 79.859-32.678 113.415-63.809 14.576-13.526 29.639-27.514 45.354-38.653l.937 1.29z" fill="url(#paint32_radial_399_699)"/><defs><radialGradient id="paint0_radial_399_699" cx="0" cy="0" r="1" gradientUnits="userSpaceOnUse" gradientTransform="rotate(-24.34 1316.342 -1074.098) scale(495.12 54.3913)"><stop stop-color="#fff"/><stop offset="1" stop-color="#fff" stop-opacity="0"/></radialGradient><radialGradient id="paint1_radial_399_699" cx="0" cy="0" r="1" gradientUnits="userSpaceOnUse" gradientTransform="matrix(451.16246 -204.08507 23.16206 51.20342 555.974 438.003)"><stop stop-color="#fff"/><stop offset="1" stop-color="#fff" stop-opacity="0"/></radialGradient><radialGradient id="paint2_radial_399_699" cx="0" cy="0" r="1" gradientUnits="userSpaceOnUse" gradientTransform="matrix(451.20437 -204.10403 25.95737 57.38289 553.861 432.507)"><stop stop-color="#fff"/><stop offset="1" stop-color="#fff" stop-opacity="0"/></radialGradient><radialGradient id="paint3_radial_399_699" cx="0" cy="0" r="1" gradientUnits="userSpaceOnUse" gradientTransform="matrix(451.2718 -204.13453 28.88976 63.8654 551.915 427.315)"><stop stop-color="#fff"/><stop offset="1" stop-color="#fff" stop-opacity="0"/></radialGradient><radialGradient id="paint4_radial_399_699" cx="0" cy="0" r="1" gradientUnits="userSpaceOnUse" gradientTransform="rotate(-24.34 1254.003 -1064.153) scale(495.387 77.6333)"><stop stop-color="#fff"/><stop offset="1" stop-color="#fff" stop-opacity="0"/></radialGradient><radialGradient id="paint5_radial_399_699" cx="0" cy="0" r="1" gradientUnits="userSpaceOnUse" gradientTransform="rotate(-24.34 1241.475 -1062.363) scale(495.469 85.3532)"><stop stop-color="#fff"/><stop offset="1" stop-color="#fff" stop-opacity="0"/></radialGradient><radialGradient id="paint6_radial_399_699" cx="0" cy="0" r="1" gradientUnits="userSpaceOnUse" gradientTransform="matrix(451.50595 -204.24045 38.4212 84.93617 546.35 412.25)"><stop stop-color="#fff"/><stop offset="1" stop-color="#fff" stop-opacity="0"/></radialGradient><radialGradient id="paint7_radial_399_699" cx="0" cy="0" r="1" gradientUnits="userSpaceOnUse" gradientTransform="rotate(-24.34 1216.537 -1058.825) scale(495.639 101.105)"><stop stop-color="#fff"/><stop offset="1" stop-color="#fff" stop-opacity="0"/></radialGradient><radialGradient id="paint8_radial_399_699" cx="0" cy="0" r="1" gradientUnits="userSpaceOnUse" gradientTransform="rotate(-24.34 1204.084 -1057.031) scale(495.722 109.07)"><stop stop-color="#fff"/><stop offset="1" stop-color="#fff" stop-opacity="0"/></radialGradient><radialGradient id="paint9_radial_399_699" cx="0" cy="0" r="1" gradientUnits="userSpaceOnUse" gradientTransform="matrix(451.7401 -204.34637 48.25174 106.66814 540.849 397.347)"><stop stop-color="#fff"/><stop offset="1" stop-color="#fff" stop-opacity="0"/></radialGradient><radialGradient id="paint10_radial_399_699" cx="0" cy="0" r="1" gradientUnits="userSpaceOnUse" gradientTransform="matrix(451.82393 -204.38429 51.56664 113.99625 539.021 392.438)"><stop stop-color="#fff"/><stop offset="1" stop-color="#fff" stop-opacity="0"/></radialGradient><radialGradient id="paint11_radial_399_699" cx="0" cy="0" r="1" gradientUnits="userSpaceOnUse" gradientTransform="matrix(451.9032 -204.42014 54.86258 121.28246 537.169 387.42)"><stop stop-color="#fff"/><stop offset="1" stop-color="#fff" stop-opacity="0"/></radialGradient><radialGradient id="paint12_radial_399_699" cx="0" cy="0" r="1" gradientUnits="userSpaceOnUse" gradientTransform="rotate(-24.34 1154.426 -1049.907) scale(496.08 141.189)"><stop stop-color="#fff"/><stop offset="1" stop-color="#fff" stop-opacity="0"/></radialGradient><radialGradient id="paint13_radial_399_699" cx="0" cy="0" r="1" gradientUnits="userSpaceOnUse" gradientTransform="matrix(452.04533 -204.48444 61.52618 136.0134 533.525 377.535)"><stop stop-color="#fff"/><stop offset="1" stop-color="#fff" stop-opacity="0"/></radialGradient><radialGradient id="paint14_radial_399_699" cx="0" cy="0" r="1" gradientUnits="userSpaceOnUse" gradientTransform="matrix(452.12916 -204.52236 64.83325 143.3242 531.681 372.567)"><stop stop-color="#fff"/><stop offset="1" stop-color="#fff" stop-opacity="0"/></radialGradient><radialGradient id="paint15_radial_399_699" cx="0" cy="0" r="1" gradientUnits="userSpaceOnUse" gradientTransform="rotate(-24.34 1117.33 -1044.75) scale(496.277 165.414)"><stop stop-color="#fff"/><stop offset="1" stop-color="#fff" stop-opacity="0"/></radialGradient><radialGradient id="paint16_radial_399_699" cx="0" cy="0" r="1" gradientUnits="userSpaceOnUse" gradientTransform="rotate(-24.34 1104.79 -1042.892) scale(496.397 173.471)"><stop stop-color="#fff"/><stop offset="1" stop-color="#fff" stop-opacity="0"/></radialGradient><radialGradient id="paint17_radial_399_699" cx="0" cy="0" r="1" gradientUnits="userSpaceOnUse" gradientTransform="matrix(452.14191 -204.52813 66.55891 147.13905 525.047 356.155)"><stop stop-color="#fff"/><stop offset="1" stop-color="#fff" stop-opacity="0"/></radialGradient><radialGradient id="paint18_radial_399_699" cx="0" cy="0" r="1" gradientUnits="userSpaceOnUse" gradientTransform="rotate(-24.34 1071.867 -1035.691) scale(496.089 149.489)"><stop stop-color="#fff"/><stop offset="1" stop-color="#fff" stop-opacity="0"/></radialGradient><radialGradient id="paint19_radial_399_699" cx="0" cy="0" r="1" gradientUnits="userSpaceOnUse" gradientTransform="rotate(-24.34 1055.33 -1032.037) scale(495.951 137.438)"><stop stop-color="#fff"/><stop offset="1" stop-color="#fff" stop-opacity="0"/></radialGradient><radialGradient id="paint20_radial_399_699" cx="0" cy="0" r="1" gradientUnits="userSpaceOnUse" gradientTransform="matrix(451.6982 -204.32741 51.71749 114.32972 516.203 336.668)"><stop stop-color="#fff"/><stop offset="1" stop-color="#fff" stop-opacity="0"/></radialGradient><radialGradient id="paint21_radial_399_699" cx="0" cy="0" r="1" gradientUnits="userSpaceOnUse" gradientTransform="matrix(451.57702 -204.2726 46.7915 103.44005 513.23 330.197)"><stop stop-color="#fff"/><stop offset="1" stop-color="#fff" stop-opacity="0"/></radialGradient><radialGradient id="paint22_radial_399_699" cx="0" cy="0" r="1" gradientUnits="userSpaceOnUse" gradientTransform="matrix(451.43853 -204.20995 41.88736 92.59866 510.232 323.603)"><stop stop-color="#fff"/><stop offset="1" stop-color="#fff" stop-opacity="0"/></radialGradient><radialGradient id="paint23_radial_399_699" cx="0" cy="0" r="1" gradientUnits="userSpaceOnUse" gradientTransform="matrix(451.2882 -204.14194 36.9948 81.78288 507.223 316.997)"><stop stop-color="#fff"/><stop offset="1" stop-color="#fff" stop-opacity="0"/></radialGradient><radialGradient id="paint24_radial_399_699" cx="0" cy="0" r="1" gradientUnits="userSpaceOnUse" gradientTransform="rotate(-24.34 971.707 -1013.802) scale(495.162 77.9247)"><stop stop-color="#fff"/><stop offset="1" stop-color="#fff" stop-opacity="0"/></radialGradient><radialGradient id="paint25_radial_399_699" cx="0" cy="0" r="1" gradientUnits="userSpaceOnUse" gradientTransform="rotate(-24.34 976.084 -1014.69) scale(495.01 75.3888)"><stop stop-color="#fff"/><stop offset="1" stop-color="#fff" stop-opacity="0"/></radialGradient><radialGradient id="paint26_radial_399_699" cx="0" cy="0" r="1" gradientUnits="userSpaceOnUse" gradientTransform="matrix(450.8782 -203.95648 30.88348 68.27284 506.512 315.625)"><stop stop-color="#fff"/><stop offset="1" stop-color="#fff" stop-opacity="0"/></radialGradient><radialGradient id="paint27_radial_399_699" cx="0" cy="0" r="1" gradientUnits="userSpaceOnUse" gradientTransform="rotate(-24.34 993.818 -1018.426) scale(494.679 74.5846)"><stop stop-color="#fff"/><stop offset="1" stop-color="#fff" stop-opacity="0"/></radialGradient><radialGradient id="paint28_radial_399_699" cx="0" cy="0" r="1" gradientUnits="userSpaceOnUse" gradientTransform="matrix(450.58572 -203.82418 32.06465 70.884 508.195 319.367)"><stop stop-color="#fff"/><stop offset="1" stop-color="#fff" stop-opacity="0"/></radialGradient><radialGradient id="paint29_radial_399_699" cx="0" cy="0" r="1" gradientUnits="userSpaceOnUse" gradientTransform="rotate(-24.34 993.243 -1018.325) scale(494.404 82.0066)"><stop stop-color="#fff"/><stop offset="1" stop-color="#fff" stop-opacity="0"/></radialGradient><radialGradient id="paint30_radial_399_699" cx="0" cy="0" r="1" gradientUnits="userSpaceOnUse" gradientTransform="matrix(450.35157 -203.71826 35.5651 78.6223 507.732 318.297)"><stop stop-color="#fff"/><stop offset="1" stop-color="#fff" stop-opacity="0"/></radialGradient><radialGradient id="paint31_radial_399_699" cx="0" cy="0" r="1" gradientUnits="userSpaceOnUse" gradientTransform="rotate(-24.34 990.83 -1017.826) scale(494.156 90.5538)"><stop stop-color="#fff"/><stop offset="1" stop-color="#fff" stop-opacity="0"/></radialGradient><radialGradient id="paint32_radial_399_699" cx="0" cy="0" r="1" gradientUnits="userSpaceOnUse" gradientTransform="rotate(-24.34 989.657 -1017.64) scale(494.018 94.9678)"><stop stop-color="#fff"/><stop offset="1" stop-color="#fff" stop-opacity="0"/></radialGradient></defs></svg>