<svg width="186" height="319" viewBox="0 0 186 319" fill="none" xmlns="http://www.w3.org/2000/svg">
<path d="M22.4418 112.898L24.0691 113.507C55.2493 125.147 87.4786 137.231 110.804 164.67C112.694 166.893 114.592 169.206 116.43 171.447C123.797 180.425 131.388 189.697 140.522 195.686C156.453 206.132 175.67 205.813 192.42 204.129C203.309 203.032 214.42 201.232 225.159 199.492C239.854 197.109 255.052 194.644 269.871 193.932C300.289 192.529 323.709 199.272 341.468 214.556C347.027 219.341 353.235 227.757 359.807 236.67C367.366 246.953 375.197 257.544 382.169 262.506C399.909 275.067 418.396 268.138 437.978 260.768C445.173 258.069 452.609 255.277 460.303 253.312C462.281 252.807 464.264 252.297 466.251 251.782C493.152 244.815 520.966 237.613 545.366 247.281L545.7 246.446C521.023 236.687 493.047 243.914 466.023 250.921C464.037 251.444 462.056 251.955 460.08 252.453C452.331 254.43 444.886 257.235 437.664 259.938C418.317 267.198 400.044 274.041 382.69 261.766C375.828 256.899 368.037 246.355 360.524 236.156C353.917 227.219 347.682 218.745 342.047 213.893C324.105 198.458 300.481 191.642 269.831 193.059C254.962 193.747 239.743 196.217 225.028 198.595C214.295 200.332 203.204 202.132 192.337 203.224C175.766 204.897 156.704 205.215 141.024 194.921C132.028 189.019 124.454 179.802 117.134 170.863C115.29 168.621 113.394 166.282 111.494 164.077C88.0183 136.46 55.675 124.356 24.3919 112.655L22.7645 112.045L22.4418 112.898Z" fill="url(#paint0_radial_840_7874)"/>
<path d="M23.9487 106.15C79.7748 124.553 101.202 144.374 114.8 161.334C116.971 164.033 119.149 166.847 121.251 169.569C126.833 176.8 132.611 184.278 138.916 190.263C140.58 191.833 142.323 193.317 144.139 194.708C153.315 201.721 164.289 205.743 177.706 206.961C183.787 207.524 189.917 207.259 195.927 206.173C199.01 205.607 202.273 204.905 205.904 204.035C213.985 202.117 222.19 199.953 230.134 197.819L235.465 196.398C249.337 192.729 262.673 190.726 275.128 190.44C300.261 189.859 320.04 194.512 335.594 204.675C338.613 206.648 341.491 208.829 344.207 211.202C349.504 215.863 355.378 223.846 361.598 232.296C369.028 242.396 376.711 252.84 383.674 257.697C400.876 269.757 418.817 263.076 437.869 255.983C444.835 253.391 452.029 250.713 459.46 248.824L463.983 247.687C473.487 245.282 483.316 242.796 492.929 241.174C514.793 237.42 531.687 238.271 546.092 243.853L546.414 243.021C531.835 237.373 514.805 236.508 492.778 240.293C483.126 241.946 473.276 244.432 463.757 246.838L459.233 247.98C451.758 249.878 444.534 252.569 437.551 255.167C418.758 262.141 401.004 268.756 384.187 256.971C377.343 252.191 369.706 241.81 362.317 231.773C356.067 223.279 350.165 215.262 344.798 210.532C342.051 208.131 339.14 205.925 336.086 203.928C320.382 193.685 300.445 188.965 275.138 189.554C262.611 189.842 249.204 191.862 235.27 195.547L229.935 196.966C222.005 199.063 213.796 201.262 205.733 203.174C202.111 204.047 198.86 204.741 195.799 205.303C189.868 206.374 183.819 206.637 177.818 206.085C164.572 204.901 153.751 200.929 144.717 194.03C142.929 192.644 141.214 191.167 139.577 189.606C133.346 183.671 127.569 176.214 122.005 169.013C119.897 166.29 117.74 163.476 115.542 160.765C91.1645 130.357 55.7288 115.659 24.2727 105.293L23.9487 106.15Z" fill="url(#paint1_radial_840_7874)"/>
<path d="M25.4648 99.411C67.4314 111.519 97.9637 130.684 118.806 158.006C121.233 161.215 123.665 164.529 126.006 167.752C131.324 175.065 136.82 182.631 142.707 188.875C144.361 190.629 146.063 192.277 147.757 193.793C156.956 201.939 167.704 206.901 180.609 208.964C186.87 210.018 193.281 209.757 199.435 208.197C202.438 207.419 205.571 206.457 209.504 205.1C217.031 202.498 224.676 199.698 232.08 196.949L239.009 194.399C252.265 189.531 266.265 186.999 280.388 186.918C305.302 186.89 323.815 191.497 338.65 201.418C341.555 203.352 344.318 205.49 346.919 207.815C351.992 212.361 357.556 219.944 363.453 227.98C370.73 237.891 378.228 248.128 385.159 252.888C401.802 264.407 419.186 258.022 437.603 251.205C444.385 248.705 451.402 246.115 458.629 244.314L460.508 243.846C471.094 241.213 482.028 238.494 492.739 236.886C514.7 233.596 531.892 234.699 546.828 240.366L547.147 239.528C532.069 233.809 514.728 232.683 492.605 235.998C481.851 237.596 470.895 240.34 460.294 242.99L458.41 243.457C451.139 245.267 444.099 247.866 437.294 250.376C419.11 257.072 401.931 263.421 385.667 252.161C378.864 247.485 371.387 237.305 364.18 227.464C358.257 219.391 352.667 211.765 347.528 207.155C344.895 204.801 342.1 202.636 339.162 200.676C324.158 190.649 305.496 185.994 280.395 186.025C266.167 186.107 252.062 188.657 238.707 193.562L231.763 196.113C224.363 198.862 216.724 201.659 209.201 204.268C205.261 205.632 202.174 206.596 199.19 207.379C193.155 208.877 186.875 209.103 180.748 208.043C168.016 206.009 157.415 201.121 148.346 193.092C146.655 191.623 145.009 189.979 143.356 188.241C137.509 182.043 132.027 174.502 126.725 167.208C124.379 163.984 121.954 160.646 119.514 157.443C98.5515 129.966 67.8658 110.695 25.7064 98.5322L25.4648 99.411Z" fill="url(#paint2_radial_840_7874)"/>
<path d="M27.1758 91.7928L26.9525 92.6607C55.2734 99.7542 94.889 116.277 122.786 154.673C125.579 158.493 128.333 162.525 130.996 166.405C135.962 173.638 141.098 181.117 146.479 187.479C148.065 189.355 149.708 191.153 151.357 192.823C160.598 202.174 171.111 208.089 183.5 210.914C190.418 212.486 196.949 212.269 202.921 210.264C206.379 209.068 209.774 207.698 213.094 206.16C219.162 203.419 225.309 200.513 231.259 197.706C234.996 195.955 238.757 194.187 242.542 192.404C256.042 186.181 270.781 183.104 285.645 183.407C310.225 183.892 327.516 188.449 341.712 198.18C344.501 200.079 347.153 202.173 349.647 204.444C354.483 208.868 359.744 216.058 365.317 223.669C372.414 233.373 379.757 243.409 386.643 248.081C402.781 259.051 419.622 252.909 437.446 246.404C444.015 244.01 450.801 241.532 457.76 239.811L458.08 239.733C469.405 236.96 481.118 234.069 492.525 232.609C514.573 229.807 532.061 231.146 547.558 236.905L547.873 236.061C532.243 230.257 514.615 228.882 492.429 231.736C480.968 233.203 469.227 236.107 457.886 238.877L457.566 238.955C450.538 240.684 443.729 243.15 437.133 245.59C419.526 252.016 402.891 258.081 387.136 247.37C380.379 242.778 373.087 232.807 366.029 223.17C360.434 215.527 355.146 208.299 350.244 203.812C347.723 201.511 345.042 199.39 342.221 197.468C327.866 187.629 310.422 183.028 285.662 182.537C270.66 182.231 255.785 185.336 242.16 191.618C238.37 193.38 234.607 195.147 230.872 196.919C224.927 199.727 218.781 202.629 212.723 205.372C210.013 206.598 206.419 208.165 202.637 209.436C196.81 211.364 190.456 211.576 183.704 210.041C171.491 207.256 161.099 201.414 152 192.192C150.357 190.539 148.743 188.77 147.156 186.899C141.801 180.574 136.682 173.11 131.727 165.896C129.06 162.01 126.298 157.99 123.502 154.143C95.4637 115.531 55.6421 98.9236 27.1758 91.7928Z" fill="url(#paint3_radial_840_7874)"/>
<path d="M28.6464 85.0359L28.4571 85.9126C68.3654 94.418 103.53 117.816 126.785 151.337C130.004 155.975 133.138 160.819 136.192 165.513C140.949 172.837 145.45 179.785 150.268 186.085C151.791 188.085 153.39 190.031 154.986 191.869C164.249 202.523 174.53 209.381 186.415 212.877C193.563 214.985 200.294 214.793 206.427 212.302C209.951 210.824 213.379 209.128 216.691 207.223C221.614 204.468 226.596 201.588 231.414 198.8C236.232 196.012 241.135 193.178 246.078 190.407C259.764 182.831 275.281 179.191 290.911 179.89C306.948 180.536 327.561 182.829 344.81 194.928C347.483 196.79 350.02 198.84 352.401 201.063C356.989 205.345 361.961 212.15 367.177 219.339C374.116 228.852 381.293 238.691 388.153 243.283C403.763 253.73 420.071 247.874 437.315 241.614C443.665 239.323 450.233 236.949 456.968 235.295C467.934 232.636 480.366 229.62 492.374 228.335C514.121 226.003 532.393 227.669 548.296 233.439L548.6 232.597C532.592 226.774 514.162 225.099 492.255 227.472C480.182 228.766 467.723 231.786 456.73 234.453C449.951 236.096 443.361 238.475 437.008 240.754C419.978 246.909 403.884 252.716 388.649 242.521C381.92 238.02 374.794 228.246 367.901 218.796C362.636 211.579 357.662 204.758 353.011 200.403C350.591 198.15 348.015 196.07 345.302 194.181C327.887 181.946 307.106 179.62 290.95 178.975C275.155 178.265 259.473 181.944 245.643 189.603C240.689 192.376 235.749 195.236 230.968 198.002C226.186 200.769 221.173 203.672 216.256 206.419C212.977 208.309 209.584 209.994 206.095 211.462C200.076 213.91 193.721 214.09 186.675 212.008C174.964 208.557 164.82 201.77 155.668 191.269C154.07 189.441 152.497 187.512 150.995 185.533C146.187 179.23 141.706 172.323 136.957 165.012C133.914 160.316 130.761 155.462 127.534 150.817C104.147 117.108 68.7808 93.5821 28.6464 85.0359Z" fill="url(#paint4_radial_840_7874)"/>
<path d="M30.1241 78.2822L29.9638 79.1664C69.7799 86.4456 106.528 111.542 130.79 148.01C134.518 153.621 138.13 159.503 141.617 165.187C145.852 172.087 149.85 178.601 154.058 184.698C155.52 186.816 157.051 188.906 158.608 190.914C167.881 202.915 177.927 210.746 189.317 214.839C196.677 217.492 203.608 217.326 209.921 214.338C213.516 212.574 216.975 210.547 220.272 208.274C224.516 205.447 228.806 202.503 232.954 199.646C238.364 195.925 243.962 192.076 249.606 188.389C263.209 179.517 279.333 175.357 296.172 176.364C325.632 178.12 339.268 185.469 347.854 191.674C350.408 193.502 352.83 195.507 355.103 197.674C359.45 201.842 364.087 208.225 368.999 214.984C375.775 224.311 382.783 233.956 389.62 238.46C404.707 248.389 420.461 242.774 437.151 236.8C443.283 234.614 449.622 232.346 456.097 230.817C468.976 227.735 480.581 225.1 492.15 224.095C513.925 222.174 532.528 224.085 549.025 229.978L549.326 229.13C532.702 223.205 513.978 221.268 492.082 223.194C480.444 224.207 468.811 226.85 455.9 229.913C449.375 231.476 443.019 233.75 436.859 235.944C420.39 241.825 404.844 247.354 390.122 237.695C383.422 233.283 376.462 223.707 369.728 214.443C364.793 207.652 360.134 201.237 355.728 197.013C353.425 194.815 350.97 192.783 348.382 190.93C339.701 184.65 325.922 177.218 296.231 175.448C279.173 174.431 262.887 178.638 249.138 187.633C243.483 191.322 237.89 195.172 232.469 198.896C228.324 201.743 224.039 204.689 219.797 207.527C216.532 209.769 213.109 211.774 209.556 213.526C203.38 216.445 196.871 216.596 189.639 213.991C178.28 209.896 168.628 202.383 159.337 190.352C157.782 188.354 156.25 186.27 154.818 184.175C150.621 178.096 146.626 171.589 142.403 164.707C138.904 159.025 135.249 153.132 131.523 147.511C107.137 110.845 70.1755 85.6116 30.1241 78.2822Z" fill="url(#paint5_radial_840_7874)"/>
<path d="M31.6028 71.529L31.4633 72.4134C71.6866 78.5515 109.384 104.905 134.785 144.68C139.152 151.49 143.307 158.68 147.326 165.612C150.926 171.822 154.325 177.69 157.849 183.311C159.258 185.555 160.729 187.795 162.228 189.969C171.604 203.584 181.138 212.116 192.228 216.814C199.755 220.022 206.898 219.879 213.41 216.395C217.079 214.333 220.573 211.976 223.859 209.348C227.73 206.363 231.634 203.252 235.387 200.241C241.134 195.651 247.096 190.908 253.135 186.413C270.594 173.445 289.043 171.868 301.436 172.869C317.225 174.113 335.446 176.964 350.923 188.452C353.359 190.247 355.667 192.209 357.832 194.323C361.935 198.357 366.259 204.344 370.842 210.677C377.453 219.817 384.285 229.267 391.109 233.679C405.667 243.11 420.897 237.722 437.014 232.046C442.927 229.948 449.033 227.801 455.254 226.336C467.78 223.38 479.988 220.652 491.96 219.849C513.688 218.335 532.593 220.515 549.756 226.511L550.051 225.667C532.769 219.629 513.745 217.429 491.893 218.943C479.882 219.757 467.612 222.484 455.052 225.452C448.779 226.94 442.649 229.096 436.717 231.189C420.794 236.796 405.786 242.102 391.596 232.931C384.91 228.626 378.128 219.225 371.566 210.155C366.958 203.8 362.613 197.771 358.46 193.689C356.265 191.549 353.922 189.564 351.45 187.75C335.797 176.103 317.425 173.255 301.501 171.992C288.951 171.002 270.279 172.579 252.595 185.716C246.53 190.214 240.576 194.964 234.821 199.564C231.055 202.565 227.163 205.674 223.303 208.657C220.059 211.258 216.606 213.588 212.978 215.622C206.722 218.975 199.856 219.107 192.569 216.012C181.65 211.374 172.24 202.941 162.961 189.475C161.474 187.314 160.002 185.095 158.604 182.849C155.091 177.246 151.69 171.387 148.093 165.184C144.076 158.221 139.922 151.047 135.539 144.202C109.979 104.2 72.0943 77.7103 31.6028 71.529Z" fill="url(#paint6_radial_840_7874)"/>
<path d="M33.0765 64.7777L32.9673 65.6647C73.1424 70.6634 112.705 98.9544 138.797 141.353C143.946 149.723 148.756 158.529 153.393 167.042C156.227 172.228 158.902 177.129 161.637 181.917C163 184.299 164.419 186.685 165.853 189.008C175.296 204.331 184.323 213.512 195.134 218.77C202.862 222.541 210.186 222.419 216.899 218.418C220.778 216.102 224.258 213.192 227.44 210.391C231.076 207.191 234.744 203.849 238.284 200.623C244.215 195.217 250.354 189.625 256.654 184.396C270.528 172.879 288.303 167.531 306.691 169.35C321.789 170.829 339.216 173.87 353.988 185.202C356.307 186.963 358.5 188.883 360.552 190.948C364.407 194.84 368.426 200.428 372.687 206.342C379.123 215.298 385.782 224.553 392.599 228.876C406.63 237.779 421.329 232.647 436.885 227.24C442.567 225.258 448.451 223.21 454.414 221.822C467.067 218.873 479.484 216.179 491.762 215.574C513.403 214.476 532.612 216.925 550.487 223.048L550.779 222.198C532.793 216.021 513.474 213.579 491.719 214.678C479.363 215.284 466.927 217.99 454.21 220.948C448.203 222.344 442.3 224.404 436.591 226.394C421.249 231.753 406.74 236.809 393.076 228.125C386.408 223.892 379.802 214.707 373.409 205.825C369.135 199.882 365.094 194.262 361.189 190.321C359.109 188.22 356.885 186.266 354.533 184.473C339.589 173.004 322.01 169.93 306.786 168.438C288.151 166.613 270.141 172.03 256.083 183.701C249.768 188.947 243.623 194.542 237.681 199.951C234.141 203.177 230.481 206.511 226.849 209.712C223.7 212.485 220.259 215.368 216.441 217.643C210.003 221.483 202.968 221.586 195.531 217.951C184.889 212.759 175.971 203.677 166.623 188.508C165.196 186.197 163.781 183.817 162.426 181.442C159.695 176.661 157.015 171.779 154.188 166.585C149.533 158.062 144.716 149.244 139.552 140.849C113.324 98.2555 73.5235 69.805 33.0765 64.7777Z" fill="url(#paint7_radial_840_7874)"/>
<path d="M34.5588 58.0241L34.469 58.9161C75.2595 62.9098 115.755 92.4799 142.758 138.013C148.922 148.387 154.519 159.318 159.931 169.886C161.78 173.495 163.605 177.035 165.409 180.518C166.742 183.074 168.103 185.606 169.461 188.048C176.144 200.107 184.755 213.453 198.027 220.728C205.93 225.067 213.443 224.972 220.363 220.445C224.292 217.879 227.793 214.602 230.996 211.44C234.511 207.965 238.03 204.357 241.437 200.865C247.47 194.662 253.693 188.302 260.152 182.39C274.301 169.465 292.71 163.582 311.954 165.833C325.484 167.416 342.835 170.674 357.051 181.956C359.255 183.682 361.336 185.558 363.281 187.571C366.885 191.315 370.601 196.51 374.533 202.014C380.797 210.775 387.278 219.84 394.086 224.073C407.598 232.464 421.774 227.576 436.768 222.442C442.225 220.568 447.871 218.624 453.599 217.326C465.932 214.497 479.031 211.704 491.594 211.316C512.77 210.621 532.839 213.405 551.221 219.587L551.508 218.735C533.024 212.523 512.846 209.721 491.547 210.415C478.9 210.807 465.758 213.604 453.38 216.448C447.631 217.766 441.964 219.715 436.479 221.597C421.684 226.679 407.716 231.482 394.566 223.312C387.904 219.174 381.481 210.186 375.267 201.494C371.316 195.965 367.584 190.73 363.933 186.947C361.963 184.912 359.859 183.011 357.634 181.258C343.24 169.843 325.733 166.549 312.084 164.946C292.574 162.663 273.93 168.636 259.586 181.758C253.105 187.69 246.868 194.084 240.859 200.277C237.454 203.764 233.935 207.372 230.426 210.838C227.263 213.969 223.802 217.21 219.935 219.736C213.314 224.066 206.11 224.146 198.52 219.976C185.452 212.794 176.927 199.595 170.311 187.637C168.957 185.22 167.602 182.669 166.271 180.12C164.463 176.656 162.641 173.101 160.796 169.499C155.377 158.918 149.783 147.977 143.6 137.573C116.379 91.7823 75.6321 62.0441 34.5588 58.0241Z" fill="url(#paint8_radial_840_7874)"/>
<path d="M36.0327 51.2704L35.9671 52.1686C77.4491 55.2029 118.887 86.0546 146.784 134.686C154.282 147.756 160.841 161.525 167.181 174.834L169.23 179.135C170.544 181.887 171.851 184.565 173.112 187.102C180.019 200.986 188.197 214.913 200.964 222.7C209.032 227.624 216.74 227.554 223.875 222.498C227.86 219.671 231.383 216.028 234.59 212.506C238.026 208.737 241.456 204.832 244.779 201.044C250.845 194.126 257.118 186.971 263.701 180.398C278.131 166.016 297.147 159.565 317.233 162.302C330.044 164.046 346.494 167.486 360.135 178.693C362.219 180.386 364.185 182.219 366.022 184.177C369.376 187.765 372.787 192.576 376.396 197.666C382.466 206.238 388.779 215.109 395.591 219.25C408.559 227.14 422.226 222.524 436.671 217.632C441.897 215.874 447.31 214.03 452.746 212.802C465.27 209.975 478.57 207.203 491.389 207.031C511.942 206.658 532.414 209.731 551.953 216.121L552.234 215.268C532.6 208.858 512.031 205.778 491.381 206.155C478.479 206.331 465.124 209.115 452.556 211.952C447.067 213.187 441.639 215.027 436.388 216.804C422.145 221.629 408.692 226.182 396.061 218.508C389.406 214.464 383.171 205.669 377.135 197.169C373.506 192.053 370.074 187.22 366.666 183.583C364.804 181.594 362.808 179.735 360.691 178.019C346.88 166.671 330.268 163.194 317.343 161.43C296.978 158.653 277.692 165.19 263.057 179.783C256.459 186.357 250.176 193.53 244.097 200.476C240.777 204.275 237.351 208.165 233.914 211.918C230.737 215.402 227.258 218.995 223.339 221.786C216.527 226.615 209.153 226.673 201.42 221.954C188.826 214.258 180.761 200.474 173.912 186.708C172.655 184.177 171.352 181.5 170.037 178.753L167.988 174.452C161.642 161.126 155.075 147.35 147.559 134.245C119.507 85.3509 77.8133 54.3299 36.0327 51.2704Z" fill="url(#paint9_radial_840_7874)"/>
<path d="M37.5097 44.5424L37.4661 45.4359C79.6928 47.5451 122.059 79.6746 150.783 131.383C159.241 146.612 166.405 162.651 173.024 177.774C174.249 180.571 175.49 183.387 176.742 186.18C183.047 200.251 190.867 215.993 203.879 224.696C212.106 230.209 220.004 230.167 227.354 224.572C231.398 221.476 234.934 217.48 238.161 213.6C241.541 209.527 244.912 205.292 248.172 201.183C254.275 193.54 260.535 185.628 267.214 178.423C281.954 162.513 301.589 155.543 322.491 158.805C340.392 161.595 352.965 166.737 363.196 175.479C365.163 177.137 367.016 178.925 368.744 180.83C371.846 184.254 374.959 188.679 378.252 193.367C384.152 201.755 390.261 210.414 397.081 214.48C409.543 221.867 422.679 217.502 436.562 212.869C441.562 211.203 446.742 209.485 451.903 208.336C464.629 205.509 478.163 202.756 491.194 202.799C512.083 202.871 532.833 206.203 552.695 212.673L552.971 211.819C533.019 205.316 512.175 201.966 491.191 201.888C478.051 201.843 464.478 204.607 451.703 207.447C446.488 208.603 441.295 210.333 436.272 212.008C422.577 216.571 409.642 220.879 397.531 213.696C390.873 209.745 384.824 201.153 378.978 192.835C375.668 188.132 372.541 183.683 369.404 180.214C367.648 178.281 365.765 176.466 363.768 174.784C353.408 165.941 340.716 160.738 322.621 157.919C301.396 154.605 281.478 161.671 266.548 177.812C259.848 185.043 253.555 192.962 247.462 200.623C244.211 204.719 240.847 208.951 237.462 213.043C234.273 216.875 230.773 220.85 226.8 223.871C219.795 229.188 212.248 229.216 204.373 223.944C191.58 215.37 183.816 199.756 177.56 185.796C176.308 183.003 175.066 180.192 173.845 177.396C167.222 162.251 160.042 146.193 151.566 130.933C122.69 78.9479 80.0536 46.6453 37.5097 44.5424Z" fill="url(#paint10_radial_840_7874)"/>
<path d="M38.9881 37.7673L38.9639 38.6658C81.9912 39.8746 125.286 73.2771 154.783 128.033C161.951 141.343 168.73 156.244 176.821 176.362L177.652 178.437C178.552 180.688 179.46 182.945 180.374 185.207C186.809 201.125 194.15 217.442 206.797 226.64C215.074 232.662 223.354 232.641 230.838 226.589C234.995 223.213 238.518 218.846 241.731 214.637C245.176 210.131 248.587 205.436 251.887 200.892C257.87 192.65 264.06 184.125 270.725 176.41C285.58 159.211 306.367 151.504 327.749 155.272C344.304 158.186 356.542 163.567 366.257 172.203C368.107 173.826 369.847 175.571 371.466 177.425C374.311 180.68 377.129 184.723 380.108 189.005C385.821 197.195 391.722 205.698 398.586 209.655C410.528 216.547 423.132 212.422 436.481 208.055C441.247 206.494 446.187 204.865 451.081 203.813C464.023 200.985 477.771 198.245 491.015 198.508C511.365 198.893 532.363 202.485 553.432 209.181L553.703 208.331C532.544 201.601 511.459 197.982 491.024 197.611C477.681 197.348 463.875 200.093 450.868 202.931C445.935 204.014 440.973 205.633 436.184 207.198C423.033 211.502 410.61 215.565 399.034 208.876C392.356 205.023 386.511 196.623 380.858 188.5C377.865 184.194 375.031 180.131 372.16 176.838C370.507 174.962 368.735 173.194 366.855 171.545C357.006 162.808 344.647 157.354 327.906 154.402C306.2 150.582 285.114 158.388 270.044 175.842C263.356 183.587 257.157 192.125 251.165 200.381C247.867 204.919 244.462 209.611 241.019 214.108C237.851 218.281 234.358 222.594 230.272 225.912C223.077 231.769 215.321 231.764 207.327 225.929C194.874 216.858 187.593 200.691 181.21 184.874C180.298 182.616 179.39 180.359 178.488 178.104L177.656 176.029C169.572 155.887 162.765 140.953 155.574 127.611C125.923 72.5722 82.3384 38.9869 38.9881 37.7673Z" fill="url(#paint11_radial_840_7874)"/>
<path d="M40.4717 31.0189L40.4681 31.9175C84.4574 32.2415 128.689 66.9292 158.79 124.705C166.26 138.93 173.403 155.372 180.623 174.977L182.948 181.339L184.012 184.259C190.52 202.104 197.385 218.924 209.72 228.611C218.139 235.228 226.634 235.237 234.32 228.637C238.529 225.02 242.082 220.294 245.301 215.704C248.705 210.893 252.056 205.867 255.287 201.006C261.275 192.041 267.462 182.766 274.229 174.415C289.425 155.649 310.85 147.388 333.004 151.758C348.411 154.79 359.953 160.241 369.312 168.955C371.05 170.548 372.685 172.25 374.207 174.05C376.789 177.123 379.309 180.796 381.981 184.683C387.494 192.703 393.188 201.007 400.067 204.845C411.478 211.249 423.571 207.364 436.376 203.26C440.889 201.8 445.599 200.298 450.224 199.306C463.401 196.491 477.395 193.758 490.831 194.241C510.989 194.949 531.708 198.702 554.179 205.718L554.446 204.861C531.899 197.82 511.099 194.058 490.865 193.345C477.342 192.86 463.292 195.589 450.056 198.43C445.387 199.431 440.675 200.944 436.106 202.4C423.497 206.446 411.586 210.268 400.512 204.06C393.819 200.306 388.178 192.098 382.724 184.166C380.041 180.26 377.505 176.568 374.895 173.467C373.35 171.645 371.694 169.92 369.934 168.304C360.441 159.492 348.765 153.956 333.187 150.885C310.692 146.453 288.954 154.825 273.539 173.86C266.73 182.236 260.548 191.533 254.551 200.511C251.311 205.365 247.963 210.382 244.569 215.19C241.387 219.722 237.871 224.401 233.739 227.96C224.497 235.923 215.878 232.315 210.274 227.906C198.126 218.355 191.321 201.664 184.863 183.946L183.799 181.025C183.019 178.891 182.247 176.764 181.469 174.662C174.239 155.018 167.079 138.541 159.592 124.28C129.323 66.2134 84.7962 31.3464 40.4717 31.0189Z" fill="url(#paint12_radial_840_7874)"/>
<path d="M41.9491 24.2661L41.9565 25.1624C86.7933 24.624 131.963 60.592 162.783 121.38C170.603 136.678 177.882 154.261 184.412 173.59C185.437 176.625 186.458 179.71 187.472 182.804L187.641 183.313C192.958 199.476 199.578 219.583 212.631 230.582C223.455 239.709 232.29 235.68 237.793 230.695C242.056 226.828 245.628 221.725 248.86 216.781C252.247 211.656 255.529 206.296 258.727 201.122C264.705 191.431 270.886 181.415 277.742 172.435C293.327 152.054 315.368 143.232 338.264 148.253C352.315 151.35 363.474 157.043 372.382 165.719C373.988 167.279 375.498 168.935 376.905 170.677C379.226 173.554 381.464 176.859 383.827 180.357C389.134 188.194 394.615 196.299 401.517 200.049C412.41 205.953 424.521 202.156 436.242 198.471C440.54 197.121 444.985 195.726 449.342 194.81C462.771 191.983 477.02 189.284 490.575 189.984C510.436 191.004 530.86 194.898 554.88 202.265L555.146 201.413C531.05 194.021 510.557 190.109 490.653 189.1C476.99 188.392 462.681 191.107 449.187 193.943C444.808 194.884 440.315 196.267 436.009 197.626C423.935 201.421 412.531 205.002 401.97 199.272C395.246 195.619 389.823 187.607 384.581 179.858C382.202 176.341 379.959 173.019 377.613 170.115C376.179 168.343 374.64 166.659 373.004 165.073C363.98 156.284 352.675 150.492 338.453 147.397C315.199 142.299 292.805 151.231 277.016 171.918C270.136 180.932 263.944 190.971 257.952 200.674C254.759 205.85 251.46 211.195 248.095 216.316C244.902 221.212 241.363 226.263 237.177 230.051C227.688 238.652 218.906 234.734 213.198 229.926C200.337 219.086 193.761 199.109 188.478 183.057L188.314 182.55C187.291 179.449 186.29 176.343 185.25 173.33C178.702 153.95 171.407 136.347 163.546 120.987C132.603 59.8726 87.1384 23.7047 41.9491 24.2661Z" fill="url(#paint13_radial_840_7874)"/>
<path d="M43.4269 17.5169L43.4549 18.4133C89.1575 17.0223 135.265 54.2706 166.77 118.047C175.355 135.504 182.524 153.621 188.208 172.224C189.188 175.372 190.174 178.655 191.103 181.82L191.269 182.379C196.653 200.514 202.748 221.071 215.549 232.568C224.139 240.288 233.271 240.352 241.267 232.751C245.586 228.646 249.182 223.171 252.42 217.862C255.763 212.405 259.026 206.715 262.18 201.209C268.144 190.811 274.308 180.056 281.254 170.443C296.973 148.7 320.256 139.087 343.534 144.733C356.253 147.824 366.992 153.786 375.448 162.47C376.941 163.996 378.343 165.61 379.645 167.303C381.707 169.963 383.659 172.91 385.732 176.028C390.812 183.684 396.065 191.611 403.025 195.252C413.385 200.677 424.968 197.122 436.168 193.691C440.234 192.441 444.431 191.163 448.512 190.316C462.234 187.497 476.751 184.82 490.428 185.733C509.752 187.007 529.861 191.042 555.625 198.807L555.883 197.947C530.052 190.161 509.884 186.115 490.473 184.835C476.694 183.917 462.092 186.602 448.349 189.442C444.227 190.289 440.004 191.586 435.923 192.837C424.894 196.204 413.468 199.711 403.441 194.459C396.668 190.913 391.472 183.109 386.461 175.528C384.378 172.408 382.416 169.437 380.336 166.746C379.011 165.031 377.588 163.393 376.075 161.84C367.48 153.033 356.623 146.988 343.729 143.858C320.114 138.13 296.471 147.857 280.526 169.915C273.558 179.553 267.387 190.316 261.408 200.751C258.252 206.247 254.995 211.933 251.661 217.372C248.453 222.627 244.899 228.04 240.64 232.073C230.891 241.342 221.933 237.084 216.14 231.877C203.539 220.55 197.468 200.119 192.123 182.098L191.952 181.537C191.01 178.363 190.038 175.084 189.054 171.93C183.359 153.29 176.177 135.137 167.577 117.645C135.906 53.5464 89.494 16.1163 43.4269 17.5169Z" fill="url(#paint14_radial_840_7874)"/>
<path d="M44.9081 10.7733L44.9518 11.6686C91.5529 9.43859 138.588 47.9647 170.783 114.731C179.461 132.792 186.56 151.569 192 170.852C192.97 174.24 193.872 177.651 194.901 181.452L195.062 182.01C200.383 201.938 205.893 222.535 218.466 234.558C227.209 242.891 236.541 242.981 244.744 234.814C248.853 230.742 252.207 225.525 255.978 218.947C259.296 213.163 262.524 207.128 265.654 201.274C271.614 190.167 277.739 178.679 284.761 168.45C300.892 144.982 324.83 134.814 348.794 141.215C360.227 144.224 370.548 150.469 378.517 159.2C379.888 160.698 381.176 162.268 382.376 163.905C384.169 166.341 385.932 169.059 387.615 171.684C392.473 179.137 397.48 186.892 404.513 190.433C414.345 195.376 425.392 192.076 436.081 188.885C439.906 187.745 443.862 186.56 447.668 185.797C462.236 182.865 476.455 180.323 490.198 181.439C513.538 183.307 535.774 189.228 556.321 195.319L556.573 194.459C535.973 188.354 513.683 182.444 490.272 180.548C476.412 179.423 462.124 181.972 447.491 184.919C443.67 185.699 439.669 186.877 435.83 188.03C425.311 191.166 414.437 194.418 404.906 189.629C398.084 186.194 393.136 178.568 388.352 171.191C386.641 168.554 384.871 165.824 383.058 163.362C381.831 161.698 380.515 160.102 379.117 158.579C371.048 149.735 360.598 143.405 349.022 140.349C337.766 137.336 325.841 138.014 315.002 142.284C303.095 146.914 292.391 155.798 284.018 167.959C276.968 178.217 270.813 189.723 264.862 200.853C261.744 206.684 258.517 212.714 255.202 218.484C251.457 225.001 248.154 230.164 244.115 234.166C238.594 239.663 229.773 244.078 219.087 233.891C206.69 222.073 201.216 201.594 195.926 181.788L195.764 181.229C194.751 177.427 193.83 174.011 192.863 170.614C187.412 151.278 180.299 132.449 171.603 114.337C139.217 47.227 91.8786 8.51428 44.9081 10.7733Z" fill="url(#paint15_radial_840_7874)"/>
<path d="M46.3826 4.0136L46.4374 4.90653C115.09 0.485491 173.539 84.329 195.798 169.436C196.885 173.593 197.938 177.984 198.957 182.227C203.89 202.758 208.98 223.986 221.378 236.486C225.801 240.943 230.608 243.285 235.266 243.253C239.757 243.224 244.104 241.06 248.209 236.822C252.395 232.491 255.763 226.957 259.53 219.975C262.83 213.86 266.027 207.481 269.115 201.307C275.034 189.496 281.149 177.282 288.253 166.453C304.581 141.558 329.788 130.537 354.033 137.694C364.487 140.781 373.751 146.927 381.559 155.961C384.477 159.333 387.051 163.402 389.559 167.381C394.155 174.685 398.912 182.231 406.033 185.649C415.337 190.111 425.837 187.068 436.022 184.125C439.61 183.083 443.32 182.011 446.85 181.316C461.75 178.397 476.262 175.885 490.032 177.199C512.937 179.389 534.816 185.389 557.081 191.86L557.333 191C535.029 184.503 513.102 178.485 490.119 176.296C476.228 174.972 461.646 177.497 446.68 180.43C443.112 181.13 439.385 182.209 435.775 183.255C425.767 186.155 415.418 189.154 406.409 184.831C399.507 181.505 394.834 174.099 390.306 166.891C387.797 162.911 385.201 158.79 382.244 155.367C374.321 146.2 364.92 139.962 354.303 136.807C329.658 129.537 304.068 140.697 287.513 165.932C280.382 176.805 274.256 189.043 268.325 200.881C265.239 207.046 262.049 213.417 258.752 219.522C255.019 226.435 251.69 231.917 247.575 236.173C243.68 240.258 239.526 242.333 235.278 242.362C230.864 242.39 226.286 240.142 222.032 235.853C209.795 223.529 204.73 202.426 199.839 182.014C198.822 177.767 197.764 173.374 196.674 169.206C174.301 83.7392 115.525 -0.441738 46.3826 4.0136Z" fill="url(#paint16_radial_840_7874)"/>
<path d="M45.9436 6.12725L45.9825 7.02129C70.4648 5.93625 94.761 15.9493 118.215 36.6953C138.783 54.9101 157.899 80.9817 173.503 112.08C181.78 128.536 188.648 145.663 194.032 163.278C195.244 167.25 196.424 171.451 197.563 175.508C198.565 179.069 199.599 182.752 200.679 186.354C205.074 201.174 210.558 216.227 220.65 225.849C229.365 234.191 238.664 234.35 246.909 226.301C251.349 221.969 254.979 216.239 258.247 210.69C261.516 205.141 264.751 199.278 267.851 193.66C273.879 182.73 280.117 171.426 287.179 161.445C303.583 138.265 328.002 128.66 350.918 136.379C361.088 139.806 370.372 146.398 378.506 155.97C381.414 159.402 384.024 163.469 386.549 167.407C391.385 174.942 396.383 182.737 403.715 186.442C406.752 187.954 410.062 188.842 413.448 189.054C420.796 189.6 428.655 187.538 436.258 185.544C439.32 184.739 442.486 183.909 445.52 183.273C449.048 182.547 452.596 181.78 456.128 181.018L457.628 180.696C467.04 178.707 478.149 176.715 489.149 177.058C496.937 177.309 504.706 177.979 512.422 179.064C527.76 181.212 542.884 184.677 557.627 189.42L557.897 188.569C543.104 183.812 527.929 180.337 512.54 178.184C504.799 177.099 497.007 176.428 489.195 176.175C478.096 175.833 466.923 177.834 457.456 179.835L455.956 180.157C452.425 180.919 448.882 181.683 445.355 182.409C442.301 183.04 439.124 183.872 436.054 184.669C428.522 186.645 420.736 188.69 413.536 188.152C410.268 187.95 407.075 187.095 404.144 185.638C397.028 182.039 392.095 174.355 387.326 166.919C384.787 162.957 382.156 158.869 379.21 155.386C370.969 145.683 361.554 139.001 351.221 135.521C327.9 127.667 303.106 137.403 286.466 160.921C279.372 170.945 273.124 182.267 267.085 193.22C263.985 198.838 260.781 204.641 257.492 210.227C254.258 215.723 250.664 221.394 246.285 225.65C240.753 231.072 231.886 235.387 221.269 225.191C211.299 215.699 205.897 200.791 201.533 186.088C200.458 182.487 199.42 178.824 198.425 175.254C197.282 171.191 196.103 166.99 194.888 163.007C189.488 145.344 182.601 128.171 174.301 111.67C158.648 80.4816 139.462 54.3197 118.826 36.0304C95.1834 15.0912 70.6665 5.03173 45.9436 6.12725Z" fill="url(#paint17_radial_840_7874)"/>
<path d="M45.4934 8.23579L45.5166 9.13094C89.3336 8.1338 135.024 44.8509 170.871 109.863C179.274 125.007 186.425 140.812 192.254 157.119C193.601 160.909 194.903 164.914 196.2 168.8C197.243 171.963 198.319 175.238 199.432 178.451C204.13 192.175 209.861 206.124 219.906 215.206C230.844 225.097 239.915 220.978 245.616 215.781C250.08 211.697 253.858 206.217 256.97 201.398C260.224 196.367 263.413 191.165 266.493 186.131C272.666 176.045 279.051 165.616 286.118 156.438C302.572 135.054 326.212 126.867 347.806 135.083C357.7 138.838 366.99 145.87 375.452 155.998C378.345 159.467 380.982 163.51 383.53 167.417C388.6 175.173 393.842 183.242 401.4 187.254C404.471 188.858 407.818 189.866 411.264 190.226C419.536 191.18 428.504 189.005 437.175 186.903C439.485 186.344 441.88 185.761 444.185 185.263C447.787 184.489 451.71 183.554 456.524 182.31C466.018 179.862 477.218 177.294 488.265 176.951C496.114 176.7 503.972 176.898 511.798 177.545C528.009 178.861 544.057 182.136 558.14 186.999L558.431 186.149C544.282 181.263 528.179 177.979 511.867 176.653C504.007 176.005 496.116 175.805 488.232 176.053C477.096 176.42 465.84 178.984 456.298 181.441C451.495 182.682 447.588 183.615 443.992 184.386C441.68 184.887 439.281 185.47 436.964 186.032C428.366 188.116 419.48 190.271 411.368 189.337C408.033 188.988 404.794 188.013 401.821 186.463C394.472 182.562 389.283 174.61 384.262 166.923C381.7 162.992 379.048 158.929 376.123 155.421C367.558 145.169 358.132 138.045 348.097 134.254C326.117 125.912 302.081 134.209 285.377 155.922C278.285 165.135 271.884 175.586 265.7 185.694C262.623 190.719 259.449 195.92 256.187 200.943C253.108 205.714 249.371 211.137 244.983 215.147C235.195 224.086 226.266 219.752 220.504 214.548C210.611 205.603 204.937 191.772 200.282 178.163C199.168 174.955 198.09 171.685 197.066 168.547C195.785 164.661 194.447 160.636 193.109 156.848C187.273 140.495 180.107 124.647 171.683 109.462C155.46 80.0454 136.408 55.3551 116.575 38.0634C93.2453 17.7166 69.3392 7.69527 45.4934 8.23579Z" fill="url(#paint18_radial_840_7874)"/>
<path d="M45.0486 10.3486L45.0511 11.2437C101.099 11.2316 146.29 71.6426 168.243 107.636C176.755 121.485 184.19 135.968 190.483 150.956C192.037 154.705 193.581 158.696 195.076 162.554C196.102 165.201 197.131 167.875 198.196 170.532C203.262 183.245 209.317 196.14 219.162 204.55C225.072 209.622 234.242 213.821 244.279 205.257C248.758 201.436 252.539 196.468 255.647 192.108C258.754 187.748 261.914 183.163 264.915 178.776C271.557 169.039 277.874 159.879 285.002 151.43C301.5 131.924 324.344 125.145 344.656 133.74C354.379 137.859 363.446 145.133 372.368 155.984C375.23 159.476 377.88 163.471 380.439 167.335C385.778 175.388 391.296 183.714 399.096 188.031C402.204 189.732 405.591 190.864 409.097 191.373C418.591 192.844 429.03 190.421 439.128 188.076C440.381 187.789 441.631 187.495 442.871 187.219C446.805 186.339 450.917 185.251 455.436 183.886C465.622 180.819 476.546 177.839 487.398 176.805C495.311 176.047 503.264 175.776 511.211 175.992C528.473 176.457 544.892 179.413 558.691 184.539L559.005 183.7C545.112 178.539 528.593 175.567 511.235 175.093C503.251 174.877 495.262 175.151 487.312 175.914C476.38 176.954 465.407 179.947 455.176 183.028C450.69 184.386 446.588 185.472 442.672 186.341C441.431 186.622 440.182 186.915 438.923 187.207C428.913 189.528 418.572 191.934 409.236 190.489C405.835 189.996 402.55 188.899 399.535 187.249C391.931 183.034 386.472 174.801 381.191 166.841C378.617 162.958 375.957 158.944 373.068 155.415C364.046 144.45 354.866 137.09 345.012 132.917C324.337 124.166 301.082 131.036 284.323 150.852C277.172 159.311 270.566 168.949 264.181 178.272C261.178 182.669 258.076 187.186 254.921 191.591C251.847 195.902 248.11 200.819 243.705 204.577C234.144 212.731 225.396 208.702 219.744 203.893C210.043 195.628 204.052 182.828 199.025 170.223C197.967 167.563 196.935 164.899 195.904 162.25C194.41 158.387 192.866 154.397 191.306 150.63C184.995 135.6 177.539 121.076 169.005 107.185C146.959 71.0133 101.534 10.3457 45.0486 10.3486Z" fill="url(#paint19_radial_840_7874)"/>
<path d="M44.6047 12.4569L44.5804 13.3553C84.0782 14.2921 124.779 45.2748 165.616 105.445C174.987 119.275 182.536 132.151 188.714 144.824C190.507 148.511 192.219 152.27 194.024 156.25C194.993 158.376 195.967 160.518 196.959 162.655C202.359 174.311 208.701 186.189 218.408 193.949C226.73 200.561 235.198 200.853 242.977 194.737C247.515 191.169 251.438 186.496 254.357 182.827C257.276 179.158 260.243 175.345 263.071 171.689C270.042 162.683 276.631 154.177 283.925 146.428C300.437 128.879 322.514 123.515 341.539 132.426C350.936 136.828 360.016 144.556 369.305 155.992C372.119 159.487 374.761 163.413 377.317 167.208C382.927 175.553 388.731 184.175 396.786 188.827C399.93 190.617 403.351 191.867 406.907 192.526C418.097 194.686 431.087 191.632 441.529 189.179C445.845 188.16 450.107 186.92 454.296 185.463C466.374 181.332 476.473 178.243 486.473 176.68C494.448 175.406 502.498 174.664 510.571 174.457C523.153 174.136 541.806 175.207 559.188 182.102L559.517 181.267C541.999 174.316 523.218 173.243 510.548 173.562C502.436 173.77 494.348 174.515 486.335 175.791C476.269 177.369 466.126 180.467 454.002 184.638C449.831 186.08 445.589 187.309 441.294 188.323C430.935 190.755 418.044 193.783 407.047 191.662C403.588 191.022 400.261 189.804 397.206 188.061C389.329 183.517 383.587 174.978 378.032 166.72C375.47 162.908 372.816 158.968 369.974 155.44C360.608 143.881 351.416 136.088 341.88 131.624C322.495 122.544 300.022 127.981 283.232 145.825C275.908 153.609 269.311 162.127 262.325 171.151C259.497 174.807 256.572 178.578 253.615 182.274C250.73 185.911 246.837 190.529 242.384 194.047C234.898 199.948 227.014 199.678 218.951 193.246C209.386 185.616 203.101 173.861 197.735 162.291C196.75 160.156 195.774 158.024 194.809 155.893C193.074 152.082 191.284 148.142 189.479 144.447C183.304 131.738 175.725 118.819 166.316 104.953C125.353 44.5124 84.3904 13.4005 44.6047 12.4569Z" fill="url(#paint20_radial_840_7874)"/>
<path d="M44.1586 14.5714L44.1137 15.4697C92.5182 17.8497 135.136 66.6907 162.983 103.233C172.845 116.182 180.683 127.772 186.962 138.687C189.075 142.374 191.103 146.153 193.249 150.153C194.071 151.683 194.9 153.225 195.735 154.763C201.062 164.674 207.641 175.852 217.672 183.297C225.922 189.426 233.998 189.735 241.639 184.215C246.148 180.96 250.094 176.799 253.032 173.538C255.423 170.881 257.778 168.219 260.111 165.583C267.757 156.947 274.977 148.785 282.809 141.437C299.311 125.918 320.611 121.962 338.39 131.115C347.605 135.864 356.456 143.776 366.227 156.013C368.981 159.482 371.589 163.317 374.129 167.031C380.027 175.687 386.148 184.644 394.469 189.633C397.648 191.519 401.105 192.891 404.712 193.7C416.055 196.307 429.009 193.88 440.181 191.16C444.607 190.084 448.958 188.718 453.205 187.071C464.158 182.852 474.873 178.872 485.609 176.541C493.64 174.758 501.787 173.54 509.989 172.897C523.044 171.907 542.271 172.272 559.743 179.641L560.095 178.816C542.454 171.379 523.078 170.99 509.919 172.005C501.677 172.645 493.49 173.863 485.419 175.65C474.623 177.996 463.871 181.998 452.885 186.223C448.667 187.855 444.346 189.206 439.95 190.268C428.902 192.968 416.063 195.373 404.915 192.811C401.399 192.024 398.029 190.687 394.928 188.851C386.765 183.955 380.719 175.09 374.873 166.514C372.335 162.79 369.711 158.936 366.933 155.44C357.079 143.083 348.143 135.098 338.8 130.306C320.67 120.99 298.988 124.982 282.2 140.769C274.334 148.165 267.103 156.334 259.422 164.982C257.089 167.618 254.73 170.268 252.345 172.933C249.446 176.162 245.532 180.279 241.099 183.481C233.803 188.744 226.099 188.437 218.186 182.566C208.307 175.232 201.8 164.139 196.49 154.321C195.655 152.783 194.827 151.248 194.008 149.717C191.858 145.711 189.808 141.917 187.706 138.227C181.428 127.307 173.579 115.662 163.688 102.685C143.926 76.7526 126.795 58.1242 109.772 44.0627C87.3306 25.5314 65.2569 15.604 44.1586 14.5714Z" fill="url(#paint21_radial_840_7874)"/>
<path d="M43.7117 16.6689L43.6474 17.5622C87.6285 20.9137 126.957 62.379 160.36 101.023C171.186 113.542 178.838 123.26 185.172 132.535C187.772 136.342 190.28 140.28 192.936 144.453L194.472 146.864C200.187 155.81 207.103 165.917 216.928 172.657C225.011 178.206 232.881 178.555 240.316 173.695C243.865 171.377 247.381 168.466 251.718 164.251L255.946 160.138C264.68 151.616 272.935 143.571 281.7 136.416C298.169 122.998 318.687 120.454 335.249 129.775C346.8 136.277 356.23 147.207 363.152 156.003C365.823 159.414 368.392 163.135 370.874 166.736C377.082 175.736 383.505 185.045 392.148 190.411C395.368 192.39 398.864 193.881 402.521 194.837C412.145 197.395 424.024 196.831 438.842 193.106C443.372 191.976 447.803 190.482 452.092 188.64C462.227 184.325 473.71 179.431 484.721 176.39C492.805 174.106 501.048 172.424 509.381 171.36C528.43 168.981 546.508 171.056 560.274 177.213L560.639 176.397C546.722 170.186 528.475 168.082 509.265 170.482C500.89 171.555 492.606 173.244 484.481 175.537C473.418 178.596 461.906 183.503 451.747 187.833C447.5 189.654 443.114 191.133 438.632 192.255C423.963 195.942 412.228 196.506 402.76 193.988C399.189 193.051 395.776 191.59 392.633 189.651C384.165 184.371 377.78 175.155 371.62 166.23C369.13 162.622 366.557 158.889 363.869 155.448C356.891 146.586 347.384 135.574 335.703 128.992C318.814 119.478 297.903 122.061 281.145 135.72C272.342 142.901 264.063 150.961 255.319 159.501L251.098 163.585C246.804 167.754 243.332 170.635 239.833 172.919C232.733 177.56 225.199 177.215 217.44 171.895C207.766 165.271 200.899 155.233 195.238 146.358L193.702 143.947C191.042 139.773 188.549 135.833 185.914 132.002C179.556 122.7 171.885 112.957 161.035 100.41C127.514 61.6797 88.0376 20.047 43.7117 16.6689Z" fill="url(#paint22_radial_840_7874)"/>
<path d="M43.2684 18.7983L43.1738 19.689C83.767 23.9268 119.317 59.9537 150.69 91.6956C153.074 94.1079 155.424 96.4909 157.738 98.8177C166.433 107.558 175.572 116.883 183.413 126.39C186.562 130.23 189.614 134.189 193.246 138.97C199.604 147.326 206.614 156 216.19 162.019C224.096 166.989 231.769 167.381 238.996 163.171C243.025 160.763 246.845 158.021 250.413 154.972C260.53 146.542 270.446 138.412 280.612 131.421C297.257 119.992 316.522 118.883 332.139 128.458C343.151 135.209 352.09 145.692 360.104 156.015C362.668 159.336 365.158 162.908 367.564 166.36C374.108 175.741 380.874 185.448 389.856 191.222C393.121 193.29 396.657 194.895 400.363 195.993C413.203 199.859 427.663 197.628 437.53 195.074C442.161 193.879 446.671 192.258 451.002 190.231L452.957 189.323C463.591 184.355 473.639 179.65 483.838 176.251C491.968 173.46 500.303 171.306 508.768 169.806C520.131 167.854 541.983 165.896 560.812 174.746L561.191 173.933C542.145 164.981 520.064 166.947 508.618 168.92C500.105 170.425 491.723 172.59 483.546 175.395C473.292 178.827 462.778 183.753 452.569 188.499L450.612 189.412C446.332 191.42 441.873 193.023 437.294 194.201C427.533 196.726 413.248 198.94 400.617 195.107C396.989 194.03 393.529 192.453 390.336 190.42C381.502 184.756 374.789 175.125 368.294 165.814C365.881 162.35 363.383 158.771 360.807 155.435C352.739 145.042 343.731 134.5 332.602 127.662C316.677 117.879 297.039 119.031 280.117 130.653C269.923 137.652 259.984 145.812 249.853 154.254C246.326 157.273 242.549 159.988 238.565 162.372C231.654 166.4 224.295 166.017 216.686 161.237C207.241 155.292 200.297 146.682 193.981 138.404C190.339 133.621 187.306 129.651 184.128 125.799C176.266 116.255 167.105 106.914 158.398 98.1604C156.078 95.8404 153.728 93.468 151.349 91.0431C119.853 59.1972 84.1785 23.071 43.2684 18.7983Z" fill="url(#paint23_radial_840_7874)"/>
<path d="M42.8247 20.907L42.7045 21.7963C77.476 26.4907 109.193 55.2452 137.172 80.6138C143.409 86.2658 149.296 91.6058 155.126 96.6053L158.919 99.8555C167.021 106.799 174.675 113.353 181.662 120.248C184.665 123.212 187.86 126.552 192.023 131.076C199.095 138.768 206.208 146.098 215.453 151.376C223.188 155.785 230.659 156.213 237.668 152.65C241.63 150.596 245.444 148.267 249.08 145.68C260.483 137.72 270.146 131.598 279.491 126.413C296.025 117.224 314.534 117.503 329.001 127.128C340.084 134.508 349.28 145.904 357.028 156.014C359.452 159.196 361.831 162.574 364.129 165.843C371.038 175.654 378.176 185.803 387.542 191.997C390.849 194.164 394.423 195.895 398.174 197.146C408.901 200.742 422.403 200.705 436.187 197.039C440.926 195.784 445.518 194.031 449.887 191.81L454.514 189.464C464.295 184.494 473.547 179.807 482.946 176.099C491.127 172.811 499.56 170.19 508.163 168.26C528.01 163.941 547.389 165.425 561.353 172.3L561.746 171.496C547.612 164.521 528.014 163.021 507.984 167.387C499.331 169.327 490.851 171.965 482.625 175.277C473.168 178.991 463.482 183.913 454.117 188.675L449.49 191.021C445.178 193.211 440.646 194.939 435.969 196.176C422.346 199.801 409.028 199.845 398.469 196.301C394.788 195.081 391.283 193.385 388.042 191.257C378.823 185.158 371.73 175.077 364.874 165.337C362.568 162.061 360.186 158.672 357.75 155.476C349.954 145.313 340.704 133.845 329.506 126.39C314.752 116.577 295.902 116.293 279.06 125.635C269.69 130.84 260.007 136.978 248.58 144.952C244.976 147.517 241.197 149.827 237.27 151.865C230.542 155.304 223.357 154.867 215.902 150.613C206.769 145.405 199.711 138.125 192.692 130.488C188.517 125.951 185.313 122.604 182.298 119.626C175.286 112.709 167.624 106.143 159.508 99.1953L155.715 95.9451C149.901 90.9444 144.012 85.6093 137.781 79.9585C109.697 54.4909 77.8717 25.6361 42.8247 20.907Z" fill="url(#paint24_radial_840_7874)"/>
<path d="M42.3787 23.0213L42.233 23.9092C72.215 28.9278 99.1838 51.2499 125.272 72.8336C134.752 80.6744 143.707 88.0804 152.512 94.4035C155.685 96.6828 158.845 98.8964 161.9 101.032C168.245 105.476 174.23 109.693 179.934 114.118C183.377 116.818 186.955 119.796 190.827 123.201C197.595 129.16 205.274 135.917 214.762 140.731C222.323 144.589 229.597 145.064 236.384 142.12C240.29 140.415 244.102 138.501 247.803 136.388C257.695 130.805 267.906 125.809 278.384 121.425C294.998 114.438 312.315 116.039 325.869 125.812C336.467 133.449 345.203 144.459 353.957 156.026C356.204 159.013 358.429 162.145 360.576 165.178C367.882 175.479 375.439 186.129 385.23 192.799C388.583 195.062 392.196 196.911 395.993 198.307C407.359 202.492 421.16 202.744 434.856 198.998C439.701 197.682 444.375 195.801 448.781 193.393C451.183 192.098 453.562 190.794 455.916 189.48C464.503 184.75 473.388 179.86 482.056 175.959C490.282 172.162 498.813 169.066 507.559 166.704C527.901 161.37 547.707 162.52 561.892 169.823L562.307 169.031C547.928 161.6 527.894 160.432 507.333 165.814C498.533 168.192 489.948 171.303 481.668 175.114C472.956 179.03 464.062 183.929 455.469 188.667C453.126 190.013 450.722 191.318 448.352 192.611C444.006 194.986 439.396 196.842 434.616 198.14C421.101 201.824 407.495 201.581 396.303 197.461C392.575 196.09 389.026 194.273 385.733 192.049C376.078 185.476 368.571 174.891 361.311 164.654C359.154 161.618 356.932 158.477 354.676 155.482C345.874 143.861 337.092 132.788 326.393 125.083C312.558 115.114 294.924 113.478 278.021 120.587C267.502 124.993 257.251 130.014 247.322 135.623C243.65 137.72 239.868 139.619 235.992 141.311C229.369 144.178 222.543 143.735 215.139 139.949C205.781 135.174 198.148 128.455 191.419 122.526C187.536 119.108 183.962 116.131 180.488 113.412C174.791 108.959 168.788 104.752 162.433 100.305C159.365 98.1616 156.223 95.9578 153.054 93.6846C144.252 87.3677 135.319 79.9776 125.862 72.1479C99.6651 50.4845 72.6021 28.0865 42.3787 23.0213Z" fill="url(#paint25_radial_840_7874)"/>
<path d="M41.9381 25.136L41.7647 25.9909C67.6757 31.2341 91.5579 49.5518 114.635 67.2593C126.872 76.6466 138.425 85.512 149.915 92.174C154.558 94.8727 159.155 97.3683 163.602 99.7838C168.694 102.546 173.509 105.16 178.185 107.95C182.11 110.283 185.843 112.68 189.601 115.281L191.233 116.434C198.176 121.25 205.356 126.23 213.987 130.109C221.376 133.432 228.45 133.938 235.011 131.614C238.864 130.247 242.706 128.739 246.428 127.116C258.102 122.044 269.028 118.733 277.238 116.43C293.622 111.804 310.206 114.747 322.738 124.515C333.657 133.01 342.81 145.259 350.889 156.054C352.905 158.77 354.921 161.589 356.873 164.314C364.623 175.178 372.641 186.412 382.923 193.606C386.323 195.97 389.98 197.94 393.824 199.481C405.602 204.196 420.075 204.749 433.53 200.993C438.483 199.615 443.238 197.604 447.677 195.011C450.847 193.164 454.003 191.288 457.141 189.422C465.025 184.73 473.171 179.882 481.17 175.844C490.53 171.102 498.967 167.617 506.953 165.178C527.485 158.926 548.224 159.768 562.436 167.425L562.862 166.635C548.23 158.736 527.753 157.904 506.692 164.325C498.641 166.773 490.158 170.277 480.77 175.028C472.745 179.085 464.582 183.938 456.686 188.638C453.548 190.504 450.398 192.377 447.229 194.219C442.858 196.773 438.177 198.756 433.3 200.117C420.035 203.819 405.771 203.278 394.171 198.634C390.393 197.121 386.798 195.185 383.455 192.864C373.301 185.755 365.334 174.586 357.625 163.783C355.674 161.053 353.655 158.228 351.631 155.521C343.526 144.647 334.313 132.372 323.308 123.804C310.546 113.867 293.671 110.871 277.009 115.57C268.767 117.896 257.801 121.222 246.081 126.314C242.373 127.945 238.557 129.429 234.722 130.785C228.298 133.061 221.635 132.588 214.364 129.307C205.812 125.463 198.667 120.508 191.749 115.735L190.12 114.608C186.344 111.998 182.622 109.577 178.651 107.243C173.962 104.444 169.142 101.829 164.042 99.0595C159.6 96.6451 155.007 94.1508 150.372 91.4643C138.921 84.7916 127.392 75.9325 115.175 66.5866C92.01 48.7996 68.0358 30.4169 41.9381 25.136Z" fill="url(#paint26_radial_840_7874)"/>
<path d="M41.4977 27.2505L41.2745 28.1185C63.6424 33.4842 84.6607 48.6407 104.991 63.2946C119.593 73.8227 133.386 83.7709 147.293 89.9844C153.076 92.5731 158.782 94.7958 164.306 96.9455C168.537 98.5921 172.493 100.142 176.437 101.818C180.769 103.656 184.678 105.489 188.379 107.403C189.857 108.171 191.342 108.956 192.845 109.746C199.196 113.101 205.762 116.568 213.232 119.456C220.555 122.291 227.234 122.825 233.648 121.089C236.84 120.219 241.026 119.068 245.069 117.823C256.054 114.445 266.466 112.749 276.082 111.397C285.524 110.073 303.731 109.839 319.599 123.165C329.952 131.855 338.286 143.144 347.112 155.092L347.815 156.038C349.539 158.384 351.253 160.769 352.949 163.144C361.206 174.671 369.745 186.592 380.598 194.383C384.039 196.845 387.734 198.932 391.62 200.609C403.931 205.927 418.712 206.771 432.168 202.933C437.232 201.494 442.07 199.354 446.541 196.575C450.441 194.161 454.359 191.653 458.155 189.223C465.397 184.592 472.881 179.802 480.257 175.676C489.926 170.254 498.205 166.417 506.324 163.605C527.329 156.337 548.491 156.838 562.953 164.952L563.392 164.17C548.713 155.933 527.27 155.396 506.03 162.759C497.861 165.584 489.535 169.445 479.816 174.896C472.427 179.034 464.925 183.83 457.676 188.469C453.888 190.891 449.97 193.398 446.072 195.823C441.669 198.554 436.907 200.658 431.923 202.074C418.663 205.854 404.101 205.024 391.975 199.791C388.158 198.135 384.526 196.079 381.141 193.659C370.411 185.952 361.913 174.093 353.697 162.628C351.988 160.244 350.269 157.859 348.555 155.515L347.853 154.564C339.388 143.081 330.626 131.243 320.194 122.48C304.067 108.938 285.57 109.169 275.982 110.518C266.393 111.867 255.87 113.591 244.841 116.983C240.81 118.216 236.641 119.367 233.448 120.257C227.221 121.948 220.734 121.432 213.584 118.668C206.163 115.792 199.619 112.341 193.315 109.003C191.797 108.203 190.307 107.421 188.845 106.659C185.116 104.728 181.193 102.892 176.843 101.044C172.89 99.3604 168.885 97.8027 164.683 96.1636C159.175 94.0128 153.475 91.7865 147.713 89.2138C133.892 83.0324 120.137 73.1148 105.569 62.6161C85.1287 47.8667 64.0367 32.6551 41.4977 27.2505Z" fill="url(#paint27_radial_840_7874)"/>
<path d="M40.813 30.2329C60.0515 35.6209 78.4302 48.2321 96.2006 60.4336C112.833 71.8512 128.556 82.6421 144.716 87.7757C151.356 89.887 157.921 91.4877 164.276 93.0396C167.887 93.9218 171.298 94.7528 174.729 95.6713C179.489 96.9476 183.451 98.1733 187.187 99.5118C190.184 100.588 193.157 101.735 196.306 102.943C201.45 104.923 206.771 106.974 212.506 108.826C219.668 111.139 226.142 111.708 232.312 110.56C234.662 110.131 236.949 109.722 239.185 109.335C240.723 109.064 242.234 108.801 243.731 108.53C254.783 106.539 265.261 106.313 274.941 106.378C286.176 106.451 302.501 109.192 316.475 121.839C326.316 130.749 334.723 142.295 342.867 153.442L344.756 156.027C346.101 157.877 347.422 159.737 348.774 161.599C357.618 173.924 366.767 186.668 378.302 195.162C381.793 197.727 385.532 199.937 389.462 201.76C402.447 207.693 417.122 208.804 430.851 204.894C436.025 203.388 440.945 201.116 445.447 198.154C450 195.19 454.576 192.034 459.001 189.006C465.669 184.435 472.563 179.71 479.368 175.53C489.199 169.482 497.571 165.22 505.719 162.053C527.186 153.772 548.773 153.932 563.498 162.512L563.945 161.738C549.001 153.024 527.111 152.837 505.393 161.23C497.199 164.396 488.779 168.702 478.9 174.779C472.071 178.968 465.17 183.701 458.491 188.275C454.09 191.31 449.502 194.431 444.955 197.412C440.527 200.331 435.687 202.571 430.595 204.058C417.073 207.91 402.619 206.815 389.83 200.971C385.956 199.175 382.27 196.997 378.827 194.47C367.407 186.068 358.305 173.382 349.499 161.114C348.158 159.249 346.816 157.389 345.473 155.534L343.589 152.945C335.423 141.746 326.984 130.161 317.076 121.192C306.014 111.176 291.054 105.601 274.955 105.503C265.232 105.442 254.699 105.659 243.575 107.667C242.084 107.935 240.573 108.198 239.035 108.469C236.801 108.856 234.509 109.264 232.157 109.694C226.139 110.813 219.802 110.258 212.783 107.988C207.054 106.137 201.765 104.12 196.636 102.123C193.477 100.913 190.518 99.769 187.497 98.6869C183.709 97.3299 179.743 96.1029 174.958 94.8204C171.518 93.8994 168.104 93.0574 164.481 92.1825C158.155 90.638 151.595 89.0386 144.983 86.9397C128.938 81.8408 113.283 71.088 96.7023 59.7096C78.8702 47.4664 60.4311 34.8086 41.0556 29.3699L40.813 30.2329Z" fill="url(#paint28_radial_840_7874)"/>
<path d="M40.3378 32.3444C56.7671 37.656 72.6755 48.1895 88.0578 58.3757C106.436 70.5473 123.798 82.0441 142.12 85.5677C149.399 86.9645 156.619 87.7464 163.612 88.4647C166.708 88.7957 169.91 89.1334 173.008 89.5166C178.08 90.144 182.211 90.8136 186.011 91.6206C191.656 92.8142 197.34 94.3433 203.363 95.9597C206.11 96.6975 208.915 97.4551 211.787 98.1937C218.81 100 225.093 100.608 230.968 100.026C234.907 99.6483 238.698 99.429 242.364 99.2296C254.046 98.5691 264.809 99.9315 273.795 101.348C284.63 103.055 300.282 107.769 313.342 120.511C322.702 129.639 330.835 140.969 338.711 151.929L341.679 156.052L344.211 159.578C353.752 172.889 363.621 186.656 375.986 195.968C379.523 198.631 383.301 200.958 387.272 202.919C400.552 209.436 415.941 210.887 429.507 206.865C434.793 205.293 439.795 202.888 444.325 199.743C449.481 196.184 454.641 192.408 459.634 188.761C465.794 184.255 472.164 179.576 478.464 175.391C488.455 168.717 496.912 163.986 505.094 160.528C522.021 153.328 546.387 149.437 564.021 160.078L564.482 159.312C546.576 148.503 521.873 152.416 504.742 159.703C496.508 163.205 487.998 167.959 477.962 174.667C471.644 178.884 465.268 183.546 459.097 188.054C454.115 191.699 448.956 195.47 443.811 199.026C439.36 202.118 434.443 204.48 429.248 206.023C415.9 209.983 400.74 208.564 387.665 202.136C383.737 200.2 380 197.901 376.502 195.268C364.251 186.037 354.424 172.327 344.92 159.073L342.384 155.541C341.392 154.169 340.405 152.795 339.421 151.419C331.526 140.434 323.361 129.069 313.947 119.886C300.719 106.976 284.879 102.209 273.92 100.481C264.885 99.0516 254.066 97.6851 242.316 98.3488C238.641 98.5616 234.823 98.7685 230.867 99.1518C225.071 99.7289 218.899 99.1133 211.983 97.3292C209.112 96.5906 206.312 95.8342 203.564 95.0965C197.531 93.4776 191.834 91.9447 186.164 90.7448C182.339 89.9316 178.183 89.2607 173.087 88.627C169.984 88.2426 166.777 87.9036 163.675 87.5763C156.711 86.8447 149.507 86.0824 142.263 84.6895C124.113 81.1998 106.802 69.7471 88.528 57.6333C73.0925 47.4127 57.1309 36.8449 40.5877 31.4937L40.3378 32.3444Z" fill="url(#paint29_radial_840_7874)"/>
<path d="M39.8644 34.4416C53.7512 39.5645 67.3388 48.3843 80.4826 56.8987C99.466 69.1899 119.101 81.902 139.532 83.3369C147.258 83.8818 154.958 83.6858 162.427 83.5391C165.337 83.4656 168.345 83.3916 171.264 83.3618C176.672 83.3103 180.847 83.4228 184.794 83.7402C193.662 84.4083 202.643 85.9843 211.033 87.589C217.149 88.8336 223.371 89.4888 229.613 89.5455C233.612 89.5402 237.464 89.7452 241.026 89.9688C250.853 90.6302 260.901 92.6616 272.641 96.3587C287.616 101.074 300.251 108.77 310.199 119.233C319.106 128.539 326.996 139.683 334.626 150.434C335.956 152.314 337.287 154.188 338.62 156.058L339.141 156.765C349.534 171.329 360.278 186.418 373.689 196.748C377.276 199.513 381.097 201.96 385.11 204.059C398.833 211.208 414.534 212.936 428.183 208.811C433.586 207.177 438.673 204.64 443.228 201.307C449.014 197.109 454.766 192.643 460.344 188.308C465.922 183.974 471.797 179.39 477.578 175.231C487.773 167.907 496.343 162.735 504.484 158.971C521.737 150.95 546.583 146.381 564.568 157.624L565.044 156.863C546.753 145.437 521.573 150.039 504.11 158.156C495.896 161.942 487.315 167.154 477.043 174.536C471.254 178.707 465.422 183.245 459.784 187.632C454.146 192.018 448.466 196.446 442.692 200.616C438.22 203.889 433.226 206.38 427.92 207.983C414.466 212.034 399.033 210.329 385.518 203.28C381.551 201.207 377.774 198.789 374.23 196.055C360.926 185.809 350.216 170.791 339.865 156.264L339.347 155.542C338.011 153.671 336.681 151.799 335.357 149.924C327.713 139.128 319.802 127.964 310.872 118.569C300.818 107.995 288.053 100.219 272.935 95.4572C261.122 91.7414 251.01 89.6986 241.108 89.0283C237.544 88.8095 233.658 88.5958 229.632 88.6045C223.449 88.5471 217.284 87.8964 211.225 86.6614C202.81 85.0552 193.794 83.4753 184.881 82.8008C180.903 82.5015 176.712 82.3901 171.274 82.439C168.334 82.4686 165.321 82.5414 162.437 82.6163C154.994 82.8007 147.307 82.9896 139.625 82.4353C119.423 81.0129 99.8893 68.3682 80.9943 56.136C67.8093 47.6006 54.1769 38.7744 40.2017 33.5926L39.8644 34.4416Z" fill="url(#paint30_radial_840_7874)"/>
<path d="M39.3902 36.5476C50.9476 41.4177 62.3621 48.7532 73.3909 55.8396C93.5567 68.7812 114.405 82.1878 136.937 81.1028C144.834 80.7199 152.782 79.5589 160.467 78.4337C163.448 78.0012 166.527 77.5524 169.542 77.1493C174.989 76.4205 179.458 75.9776 183.614 75.7645C192.533 75.3645 201.471 75.7416 210.325 76.8915L212.405 77.1475C217.629 77.7881 223.028 78.4531 228.276 78.9603C231.773 79.2964 235.509 79.8333 239.696 80.6053C250.188 82.5597 260.597 86.0435 271.517 91.2614C285.051 97.6259 297.152 106.673 307.084 117.853C315.472 127.367 323.1 138.283 330.48 148.84C332.165 151.256 333.852 153.663 335.542 156.062C347.115 172.449 357.8 186.886 371.368 197.552C375.002 200.429 378.866 203.004 382.922 205.249C397.068 213.023 413.077 215.042 426.84 210.817C432.353 209.115 437.52 206.448 442.1 202.94C448.318 198.227 454.497 193.127 460.47 188.201C465.76 183.839 471.229 179.326 476.668 175.132C486.992 167.163 495.637 161.54 503.867 157.432C530.764 143.961 553.664 147.804 565.102 155.187L565.591 154.434C557.564 149.267 547.152 146.92 535.463 147.672C525.028 148.327 513.665 151.51 503.471 156.617C495.17 160.742 486.5 166.401 476.142 174.402C470.691 178.604 465.216 183.12 459.924 187.487C453.951 192.413 447.781 197.5 441.58 202.207C437.084 205.651 432.012 208.269 426.6 209.939C413.068 214.094 397.314 212.089 383.377 204.446C379.366 202.23 375.543 199.69 371.946 196.853C358.478 186.259 347.855 171.885 336.301 155.544C334.603 153.149 332.917 150.746 331.241 148.333C323.847 137.751 316.203 126.816 307.784 117.263C297.771 105.995 285.572 96.8773 271.929 90.4628C260.936 85.2104 250.45 81.7017 239.884 79.7335C235.667 78.9589 231.907 78.4157 228.384 78.0782C223.146 77.5734 217.76 76.8965 212.539 76.2668L210.457 76.0157C201.548 74.8525 192.554 74.4713 183.578 74.8765C179.387 75.0857 174.903 75.5298 169.434 76.2633C166.415 76.6603 163.33 77.1127 160.349 77.5452C152.683 78.6753 144.764 79.828 136.909 80.2064C114.664 81.2776 93.9387 67.9593 73.8952 55.0853C62.7974 47.9657 51.3708 40.6167 39.7444 35.7133L39.3902 36.5476Z" fill="url(#paint31_radial_840_7874)"/>
<path d="M38.9111 38.6526C48.3464 43.1475 57.7298 49.2316 66.8048 55.1071C87.8963 68.7728 109.711 82.9038 134.356 78.8726C142.497 77.5441 150.769 75.3811 158.784 73.2964C166.544 71.2756 174.555 69.1848 182.422 67.8533C228.083 60.129 272.384 77.8779 303.963 116.538C311.778 126.107 319.085 136.702 326.136 146.948C341.881 169.779 358.151 193.382 380.732 206.386C401.727 218.476 424.244 217.775 440.969 204.505C447.583 199.258 454.131 193.545 460.486 188.019C474.05 176.201 488.074 163.983 503.236 155.864C520.41 146.68 547.044 140.347 565.633 152.723L566.13 151.977C547.195 139.378 520.189 145.77 502.819 155.074C487.566 163.243 473.502 175.496 459.899 187.346C453.566 192.867 447.014 198.574 440.419 203.805C434.265 208.69 411.805 223.245 381.18 205.628C358.784 192.733 342.56 169.21 326.872 146.46C319.795 136.197 312.476 125.583 304.642 115.989C272.846 77.0662 228.228 59.2047 182.267 66.9864C174.362 68.3237 166.324 70.4228 158.553 72.446C150.565 74.5272 142.31 76.6843 134.207 78.0069C109.912 81.9834 88.237 67.9506 67.2871 54.3782C58.1867 48.4806 48.7816 42.3805 39.2929 37.872L38.9111 38.6526Z" fill="url(#paint32_radial_840_7874)"/>
<defs>
<radialGradient id="paint0_radial_840_7874" cx="0" cy="0" r="1" gradientUnits="userSpaceOnUse" gradientTransform="translate(276.93 207.434) rotate(-165.575) scale(270.015 29.6624)">
<stop stop-color="white"/>
<stop offset="1" stop-color="white" stop-opacity="0"/>
</radialGradient>
<radialGradient id="paint1_radial_840_7874" cx="0" cy="0" r="1" gradientUnits="userSpaceOnUse" gradientTransform="translate(278.073 202.221) rotate(-165.575) scale(270.045 30.648)">
<stop stop-color="white"/>
<stop offset="1" stop-color="white" stop-opacity="0"/>
</radialGradient>
<radialGradient id="paint2_radial_840_7874" cx="0" cy="0" r="1" gradientUnits="userSpaceOnUse" gradientTransform="translate(278.692 199.07) rotate(-165.575) scale(270.07 34.3468)">
<stop stop-color="white"/>
<stop offset="1" stop-color="white" stop-opacity="0"/>
</radialGradient>
<radialGradient id="paint3_radial_840_7874" cx="0" cy="0" r="1" gradientUnits="userSpaceOnUse" gradientTransform="translate(279.249 196.098) rotate(-165.575) scale(270.111 38.2269)">
<stop stop-color="white"/>
<stop offset="1" stop-color="white" stop-opacity="0"/>
</radialGradient>
<radialGradient id="paint4_radial_840_7874" cx="0" cy="0" r="1" gradientUnits="userSpaceOnUse" gradientTransform="translate(279.779 193.201) rotate(-165.575) scale(270.161 42.3376)">
<stop stop-color="white"/>
<stop offset="1" stop-color="white" stop-opacity="0"/>
</radialGradient>
<radialGradient id="paint5_radial_840_7874" cx="0" cy="0" r="1" gradientUnits="userSpaceOnUse" gradientTransform="translate(280.302 190.339) rotate(-165.575) scale(270.206 46.5476)">
<stop stop-color="white"/>
<stop offset="1" stop-color="white" stop-opacity="0"/>
</radialGradient>
<radialGradient id="paint6_radial_840_7874" cx="0" cy="0" r="1" gradientUnits="userSpaceOnUse" gradientTransform="translate(280.825 187.483) rotate(-165.575) scale(270.251 50.8389)">
<stop stop-color="white"/>
<stop offset="1" stop-color="white" stop-opacity="0"/>
</radialGradient>
<radialGradient id="paint7_radial_840_7874" cx="0" cy="0" r="1" gradientUnits="userSpaceOnUse" gradientTransform="translate(281.342 184.642) rotate(-165.575) scale(270.298 55.1382)">
<stop stop-color="white"/>
<stop offset="1" stop-color="white" stop-opacity="0"/>
</radialGradient>
<radialGradient id="paint8_radial_840_7874" cx="0" cy="0" r="1" gradientUnits="userSpaceOnUse" gradientTransform="translate(281.866 181.796) rotate(-165.575) scale(270.343 59.4818)">
<stop stop-color="white"/>
<stop offset="1" stop-color="white" stop-opacity="0"/>
</radialGradient>
<radialGradient id="paint9_radial_840_7874" cx="0" cy="0" r="1" gradientUnits="userSpaceOnUse" gradientTransform="translate(282.381 178.96) rotate(-165.575) scale(270.391 63.8469)">
<stop stop-color="white"/>
<stop offset="1" stop-color="white" stop-opacity="0"/>
</radialGradient>
<radialGradient id="paint10_radial_840_7874" cx="0" cy="0" r="1" gradientUnits="userSpaceOnUse" gradientTransform="translate(282.901 176.152) rotate(-165.575) scale(270.441 68.2331)">
<stop stop-color="white"/>
<stop offset="1" stop-color="white" stop-opacity="0"/>
</radialGradient>
<radialGradient id="paint11_radial_840_7874" cx="0" cy="0" r="1" gradientUnits="userSpaceOnUse" gradientTransform="translate(283.425 173.282) rotate(-165.575) scale(270.489 72.5939)">
<stop stop-color="white"/>
<stop offset="1" stop-color="white" stop-opacity="0"/>
</radialGradient>
<radialGradient id="paint12_radial_840_7874" cx="0" cy="0" r="1" gradientUnits="userSpaceOnUse" gradientTransform="translate(283.952 170.452) rotate(-165.575) scale(270.539 76.9977)">
<stop stop-color="white"/>
<stop offset="1" stop-color="white" stop-opacity="0"/>
</radialGradient>
<radialGradient id="paint13_radial_840_7874" cx="0" cy="0" r="1" gradientUnits="userSpaceOnUse" gradientTransform="translate(284.454 167.629) rotate(-165.575) scale(270.574 81.4112)">
<stop stop-color="white"/>
<stop offset="1" stop-color="white" stop-opacity="0"/>
</radialGradient>
<radialGradient id="paint14_radial_840_7874" cx="0" cy="0" r="1" gradientUnits="userSpaceOnUse" gradientTransform="translate(284.979 164.787) rotate(-165.575) scale(270.624 85.7871)">
<stop stop-color="white"/>
<stop offset="1" stop-color="white" stop-opacity="0"/>
</radialGradient>
<radialGradient id="paint15_radial_840_7874" cx="0" cy="0" r="1" gradientUnits="userSpaceOnUse" gradientTransform="translate(285.472 161.976) rotate(-165.575) scale(270.646 90.2092)">
<stop stop-color="white"/>
<stop offset="1" stop-color="white" stop-opacity="0"/>
</radialGradient>
<radialGradient id="paint16_radial_840_7874" cx="0" cy="0" r="1" gradientUnits="userSpaceOnUse" gradientTransform="translate(286.012 159.112) rotate(-165.575) scale(270.712 94.603)">
<stop stop-color="white"/>
<stop offset="1" stop-color="white" stop-opacity="0"/>
</radialGradient>
<radialGradient id="paint17_radial_840_7874" cx="0" cy="0" r="1" gradientUnits="userSpaceOnUse" gradientTransform="translate(287.002 155.347) rotate(-165.575) scale(270.631 88.0708)">
<stop stop-color="white"/>
<stop offset="1" stop-color="white" stop-opacity="0"/>
</radialGradient>
<radialGradient id="paint18_radial_840_7874" cx="0" cy="0" r="1" gradientUnits="userSpaceOnUse" gradientTransform="translate(287.964 151.612) rotate(-165.575) scale(270.544 81.5242)">
<stop stop-color="white"/>
<stop offset="1" stop-color="white" stop-opacity="0"/>
</radialGradient>
<radialGradient id="paint19_radial_840_7874" cx="0" cy="0" r="1" gradientUnits="userSpaceOnUse" gradientTransform="translate(288.954 147.846) rotate(-165.575) scale(270.469 74.9523)">
<stop stop-color="white"/>
<stop offset="1" stop-color="white" stop-opacity="0"/>
</radialGradient>
<radialGradient id="paint20_radial_840_7874" cx="0" cy="0" r="1" gradientUnits="userSpaceOnUse" gradientTransform="translate(289.923 144.048) rotate(-165.575) scale(270.366 68.4323)">
<stop stop-color="white"/>
<stop offset="1" stop-color="white" stop-opacity="0"/>
</radialGradient>
<radialGradient id="paint21_radial_840_7874" cx="0" cy="0" r="1" gradientUnits="userSpaceOnUse" gradientTransform="translate(290.912 140.293) rotate(-165.575) scale(270.293 61.9143)">
<stop stop-color="white"/>
<stop offset="1" stop-color="white" stop-opacity="0"/>
</radialGradient>
<radialGradient id="paint22_radial_840_7874" cx="0" cy="0" r="1" gradientUnits="userSpaceOnUse" gradientTransform="translate(291.903 136.469) rotate(-165.575) scale(270.211 55.4253)">
<stop stop-color="white"/>
<stop offset="1" stop-color="white" stop-opacity="0"/>
</radialGradient>
<radialGradient id="paint23_radial_840_7874" cx="0" cy="0" r="1" gradientUnits="userSpaceOnUse" gradientTransform="translate(292.9 132.638) rotate(-165.575) scale(270.121 48.9515)">
<stop stop-color="white"/>
<stop offset="1" stop-color="white" stop-opacity="0"/>
</radialGradient>
<radialGradient id="paint24_radial_840_7874" cx="0" cy="0" r="1" gradientUnits="userSpaceOnUse" gradientTransform="translate(293.901 128.798) rotate(-165.575) scale(270.038 42.4965)">
<stop stop-color="white"/>
<stop offset="1" stop-color="white" stop-opacity="0"/>
</radialGradient>
<radialGradient id="paint25_radial_840_7874" cx="0" cy="0" r="1" gradientUnits="userSpaceOnUse" gradientTransform="translate(293.657 129.796) rotate(-165.575) scale(269.955 41.1135)">
<stop stop-color="white"/>
<stop offset="1" stop-color="white" stop-opacity="0"/>
</radialGradient>
<radialGradient id="paint26_radial_840_7874" cx="0" cy="0" r="1" gradientUnits="userSpaceOnUse" gradientTransform="translate(293.153 131.834) rotate(-165.575) scale(269.875 40.865)">
<stop stop-color="white"/>
<stop offset="1" stop-color="white" stop-opacity="0"/>
</radialGradient>
<radialGradient id="paint27_radial_840_7874" cx="0" cy="0" r="1" gradientUnits="userSpaceOnUse" gradientTransform="translate(292.638 133.837) rotate(-165.575) scale(269.775 40.6749)">
<stop stop-color="white"/>
<stop offset="1" stop-color="white" stop-opacity="0"/>
</radialGradient>
<radialGradient id="paint28_radial_840_7874" cx="0" cy="0" r="1" gradientUnits="userSpaceOnUse" gradientTransform="translate(292.6 134.003) rotate(-165.575) scale(269.7 42.4279)">
<stop stop-color="white"/>
<stop offset="1" stop-color="white" stop-opacity="0"/>
</radialGradient>
<radialGradient id="paint29_radial_840_7874" cx="0" cy="0" r="1" gradientUnits="userSpaceOnUse" gradientTransform="translate(292.667 133.705) rotate(-165.575) scale(269.625 44.7225)">
<stop stop-color="white"/>
<stop offset="1" stop-color="white" stop-opacity="0"/>
</radialGradient>
<radialGradient id="paint30_radial_840_7874" cx="0" cy="0" r="1" gradientUnits="userSpaceOnUse" gradientTransform="translate(292.748 133.384) rotate(-165.575) scale(269.56 47.0597)">
<stop stop-color="white"/>
<stop offset="1" stop-color="white" stop-opacity="0"/>
</radialGradient>
<radialGradient id="paint31_radial_840_7874" cx="0" cy="0" r="1" gradientUnits="userSpaceOnUse" gradientTransform="translate(292.802 133.156) rotate(-165.575) scale(269.489 49.3838)">
<stop stop-color="white"/>
<stop offset="1" stop-color="white" stop-opacity="0"/>
</radialGradient>
<radialGradient id="paint32_radial_840_7874" cx="0" cy="0" r="1" gradientUnits="userSpaceOnUse" gradientTransform="translate(292.856 132.888) rotate(-165.575) scale(269.414 51.791)">
<stop stop-color="white"/>
<stop offset="1" stop-color="white" stop-opacity="0"/>
</radialGradient>
</defs>
</svg>
