<svg width="375" height="94" viewBox="0 0 375 94" fill="none" xmlns="http://www.w3.org/2000/svg">
<path d="M-114.918 93.7062L-115.064 94.5906C-86.2256 99.1458 -45.3014 112.092 -14.1106 147.864C-10.9903 151.422 -7.89012 155.194 -4.8932 158.823C0.694442 165.587 6.47278 172.581 12.3969 178.441C14.143 180.17 15.9383 181.815 17.7293 183.332C27.7629 191.827 38.7588 196.787 51.3491 198.502C58.3797 199.455 64.8656 198.66 70.6362 196.133C73.9745 194.636 77.2351 192.97 80.4055 191.144C86.2066 187.876 92.0715 184.437 97.7498 181.114C101.316 179.038 104.906 176.944 108.518 174.832C121.414 167.437 135.821 163.066 150.654 162.05C175.18 160.355 192.807 163.36 207.81 171.795C210.756 173.44 213.583 175.29 216.269 177.332C221.478 181.309 227.356 188.004 233.581 195.092C241.51 204.129 249.714 213.474 256.987 217.517C274.034 227.014 290.264 219.403 307.442 211.344C313.772 208.377 320.312 205.307 327.091 202.977L327.403 202.871C338.438 199.104 349.848 195.186 361.081 192.721C382.794 187.976 400.331 187.76 416.278 192.123L416.517 191.254C400.434 186.858 382.753 187.051 360.907 191.86C349.622 194.337 338.184 198.271 327.134 202.035L326.822 202.141C319.975 204.486 313.411 207.546 307.058 210.561C290.089 218.522 274.057 226.038 257.416 216.766C250.278 212.791 242.13 203.505 234.246 194.531C227.996 187.414 222.088 180.684 216.808 176.649C214.093 174.58 211.234 172.706 208.254 171.041C193.083 162.513 175.3 159.476 150.594 161.182C135.624 162.207 121.083 166.619 108.068 174.083C104.449 176.174 100.857 178.267 97.2945 180.364C91.6211 183.688 85.757 187.123 79.9658 190.392C77.3753 191.853 73.9344 193.733 70.2803 195.334C64.6462 197.772 58.3366 198.545 51.4748 197.615C39.0632 195.923 28.1943 191.025 18.314 182.647C16.5305 181.146 14.7665 179.526 13.0196 177.803C7.12525 171.978 1.36503 164.997 -4.21022 158.25C-7.21127 154.616 -10.3188 150.857 -13.4449 147.274C-44.7951 111.298 -85.9319 98.2859 -114.918 93.7062Z" fill="url(#paint0_radial_840_7912)"/>
<path d="M-114.052 86.8456L-114.163 87.7357C-73.6581 92.6702 -36.5578 112.859 -10.4232 144.187C-6.80632 148.522 -3.25489 153.069 0.203196 157.473C5.59017 164.347 10.6898 170.868 16.0474 176.717C17.7419 178.574 19.5071 180.371 21.2597 182.06C31.4305 191.851 42.2786 197.77 54.4266 200.2C61.7334 201.665 68.421 200.878 74.3091 197.853C77.6878 196.069 80.9519 194.076 84.0821 191.885C88.7421 188.704 93.4488 185.393 98.0009 182.189C102.553 178.985 107.185 175.728 111.863 172.53C124.823 163.77 139.957 158.769 155.588 158.08C171.618 157.302 192.354 157.759 210.607 168.281C213.435 169.9 216.143 171.717 218.713 173.719C223.661 177.578 229.218 183.916 235.05 190.613C242.805 199.475 250.825 208.638 258.066 212.605C274.541 221.626 290.265 214.348 306.886 206.584C313.008 203.74 319.341 200.793 325.902 198.549C336.589 194.928 348.705 190.822 360.552 188.477C382.006 184.227 400.354 184.267 416.706 188.605L416.934 187.74C400.473 183.358 381.967 183.323 360.356 187.628C348.446 189.987 336.304 194.1 325.59 197.731C318.984 199.968 312.63 202.922 306.505 205.755C290.086 213.396 274.571 220.606 258.492 211.802C251.391 207.914 243.427 198.811 235.723 190.009C229.839 183.287 224.28 176.933 219.261 173.008C216.651 170.978 213.901 169.135 211.031 167.494C192.6 156.851 171.695 156.376 155.545 157.165C139.75 157.859 124.455 162.913 111.359 171.767C106.67 174.969 102.003 178.255 97.4855 181.435C92.9679 184.614 88.2316 187.95 83.5781 191.122C80.4797 193.295 77.2486 195.274 73.9038 197.045C68.126 200.017 61.8113 200.76 54.6083 199.311C42.6382 196.911 31.9326 191.051 21.8857 181.402C20.1315 179.723 18.3943 177.94 16.722 176.102C11.3752 170.25 6.29951 163.768 0.920798 156.906C-2.52659 152.498 -6.09699 147.943 -9.72291 143.602C-36.0065 112.099 -73.3184 91.8008 -114.052 86.8456V86.8456Z" fill="url(#paint1_radial_840_7912)"/>
<path d="M-113.179 79.9875L-113.26 80.8824C-72.9557 84.6039 -34.1274 106.344 -6.72943 140.518C-2.51853 145.777 1.60075 151.315 5.57801 156.668C10.4075 163.166 14.967 169.299 19.6993 174.999C21.343 176.98 23.0534 178.925 24.7825 180.788C35.083 191.919 45.7835 198.829 57.4916 201.897C65.0572 203.887 71.9465 203.107 77.9693 199.572C81.3937 197.496 84.6603 195.17 87.7426 192.614C91.7192 189.422 95.731 186.109 99.6095 182.895C104.668 178.709 109.903 174.38 115.198 170.207C127.961 160.164 143.654 154.591 160.515 154.101C190.016 153.24 204.248 159.351 213.351 164.77C216.057 166.365 218.647 168.148 221.103 170.104C225.803 173.871 230.987 179.818 236.479 186.115C244.054 194.804 251.891 203.791 259.1 207.671C275.007 216.223 290.201 209.234 306.296 201.804C312.21 199.083 318.323 196.262 324.638 194.165C337.193 189.954 348.519 186.301 359.953 184.274C381.472 180.431 400.171 180.685 417.125 185.092L417.35 184.221C400.267 179.793 381.444 179.523 359.805 183.382C348.303 185.423 336.949 189.086 324.361 193.283C318 195.418 311.871 198.246 305.929 200.978C290.046 208.295 275.052 215.18 259.532 206.864C252.467 203.063 244.686 194.142 237.157 185.511C231.639 179.184 226.43 173.208 221.667 169.39C219.179 167.406 216.553 165.599 213.811 163.983C204.607 158.496 190.223 152.315 160.493 153.184C143.412 153.683 127.562 159.317 114.666 169.495C109.36 173.671 104.13 178.002 99.0605 182.191C95.1835 185.395 91.1767 188.709 87.2034 191.911C84.1493 194.434 80.9178 196.735 77.5337 198.795C71.6408 202.25 65.1713 202.977 57.7366 201.024C46.0598 197.951 35.7799 191.324 25.4588 180.163C23.733 178.311 22.0218 176.371 20.4103 174.411C15.6904 168.728 11.135 162.6 6.31788 156.12C2.32992 150.771 -1.83383 145.225 -6.04311 139.956C-33.5831 105.596 -72.6357 83.7381 -113.179 79.9875Z" fill="url(#paint2_radial_840_7912)"/>
<path d="M-112.305 73.1299L-112.365 74.0231C-71.7563 76.5718 -31.8715 99.4801 -3.04449 136.847C1.90833 143.243 6.68414 150.036 11.3022 156.585C15.4387 162.451 19.3439 167.995 23.3523 173.282C24.9543 175.392 26.6189 177.493 28.3047 179.526C38.85 192.255 49.1033 199.909 60.5658 203.606C68.3475 206.134 75.4493 205.358 81.6274 201.311C85.0986 198.931 88.3705 196.274 91.4109 193.365C95.0019 190.049 98.614 186.604 102.086 183.273C107.403 178.191 112.922 172.938 118.538 167.926C134.779 153.462 153.016 150.256 165.448 150.154C181.286 149.994 199.688 151.219 216.122 161.289C218.707 162.861 221.181 164.611 223.524 166.525C227.969 170.179 232.807 175.759 237.932 181.661C245.328 190.179 252.97 198.986 260.159 202.776C275.495 210.88 290.188 204.164 305.738 197.08C311.442 194.467 317.334 191.787 323.4 189.776C335.615 185.722 347.533 181.923 359.387 180.062C380.895 176.628 399.919 177.123 417.546 181.575L417.765 180.708C400.016 176.226 380.872 175.721 359.24 179.165C347.349 181.04 335.368 184.844 323.121 188.913C317.004 190.952 311.09 193.643 305.366 196.253C290.003 203.25 275.525 209.865 260.578 201.988C253.536 198.293 245.947 189.53 238.607 181.077C233.454 175.156 228.592 169.536 224.094 165.838C221.717 163.9 219.208 162.131 216.585 160.543C199.961 150.33 181.409 149.121 165.436 149.274C152.847 149.401 134.389 152.626 117.939 167.279C112.296 172.298 106.787 177.557 101.463 182.648C97.977 185.972 94.3756 189.413 90.7953 192.726C87.7946 195.605 84.5613 198.232 81.1285 200.579C75.1938 204.474 68.3669 205.213 60.8341 202.777C49.5471 199.124 39.4265 191.559 28.9902 178.969C27.3176 176.948 25.6547 174.868 24.0634 172.755C20.0673 167.485 16.1605 161.951 12.0282 156.091C7.41006 149.511 2.63673 142.734 -2.33592 136.304C-31.3413 98.725 -71.4248 75.6978 -112.305 73.1299Z" fill="url(#paint3_radial_840_7912)"/>
<path d="M-111.435 66.2745L-111.465 67.1676C-71.0054 68.5857 -29.0912 93.2587 0.656233 133.177C6.52711 141.059 12.0985 149.403 17.4716 157.472C20.7546 162.386 23.8534 167.031 27.0021 171.557C28.5707 173.809 30.1953 176.06 31.8304 178.247C42.5943 192.672 52.3988 201.018 63.6336 205.296C71.666 208.368 78.9498 207.597 85.2815 203.016C88.9407 200.366 92.1482 197.159 95.0694 194.087C98.408 190.577 101.765 186.923 105.005 183.397C110.434 177.485 116.053 171.372 121.865 165.605C134.664 152.904 151.894 146 170.371 146.183C185.541 146.318 203.169 147.802 218.888 157.78C221.353 159.329 223.708 161.047 225.935 162.922C230.12 166.457 234.618 171.667 239.386 177.18C246.591 185.53 254.044 194.158 261.217 197.86C275.982 205.484 290.169 199.07 305.184 192.305C310.667 189.827 316.347 187.265 322.164 185.355C334.506 181.296 346.635 177.512 358.811 175.821C380.27 172.809 399.62 173.546 417.968 178.061L418.182 177.188C399.72 172.629 380.261 171.91 358.688 174.933C346.435 176.632 334.288 180.428 321.883 184.502C316.024 186.426 310.326 189 304.816 191.488C290.009 198.186 276.006 204.509 261.626 197.07C254.608 193.444 247.215 184.881 240.06 176.601C235.276 171.06 230.752 165.82 226.514 162.241C224.255 160.332 221.867 158.583 219.365 157.006C203.464 146.906 185.681 145.403 170.385 145.266C151.662 145.1 134.203 152.092 121.234 164.963C115.41 170.748 109.784 176.866 104.345 182.781C101.105 186.307 97.7545 189.952 94.4209 193.463C91.53 196.504 88.3578 199.681 84.7571 202.286C78.6843 206.681 71.687 207.407 63.9561 204.446C52.896 200.217 43.2087 191.961 32.5529 177.681C30.9261 175.506 29.3056 173.26 27.7461 171.015C24.6015 166.494 21.4994 161.869 18.223 156.946C12.8309 148.869 7.25133 140.513 1.36394 132.609C-28.5362 92.5077 -70.7019 67.6969 -111.435 66.2745Z" fill="url(#paint4_radial_840_7912)"/>
<path d="M-110.557 59.416L-110.568 60.3125C-69.5839 60.675 -26.6271 86.5394 4.3053 129.499C11.3652 139.286 17.9094 149.679 24.2363 159.726C26.3978 163.156 28.5296 166.52 30.6349 169.83C32.1899 172.257 33.7695 174.658 35.3382 176.971C43.0637 188.39 52.8247 200.92 66.6885 206.99C74.9452 210.611 82.42 209.852 88.912 204.729C92.5977 201.824 95.7946 198.25 98.7043 194.817C101.898 191.044 105.084 187.138 108.167 183.358C113.626 176.645 119.261 169.758 125.172 163.296C138.119 149.168 155.934 141.676 175.302 142.213C188.919 142.591 206.49 144.298 221.65 154.276C223.998 155.799 226.238 157.483 228.354 159.316C232.275 162.726 236.437 167.571 240.841 172.705C247.857 180.876 255.116 189.331 262.273 192.944C276.475 200.105 290.162 193.979 304.642 187.537C309.912 185.186 315.363 182.749 320.953 180.949C332.987 177.037 345.787 173.094 358.267 171.595C379.297 169.026 399.534 170.02 418.392 174.548L418.602 173.674C399.64 169.124 379.293 168.122 358.139 170.701C345.577 172.212 332.735 176.164 320.657 180.094C315.048 181.916 309.576 184.36 304.279 186.721C289.993 193.093 276.506 199.115 262.684 192.144C255.681 188.612 248.487 180.229 241.526 172.123C237.1 166.965 232.919 162.081 228.948 158.637C226.805 156.785 224.541 155.078 222.169 153.529C206.82 143.434 189.09 141.705 175.352 141.318C155.717 140.773 137.676 148.375 124.551 162.717C118.622 169.201 112.976 176.122 107.539 182.823C104.457 186.599 101.271 190.505 98.0839 194.268C95.2103 197.667 92.0505 201.201 88.4231 204.06C82.2114 208.96 75.0428 209.679 67.1132 206.198C53.4604 200.202 43.7986 187.811 36.149 176.486C34.5861 174.199 33.0097 171.778 31.4589 169.357C29.3503 166.067 27.221 162.687 25.0636 159.263C18.7285 149.204 12.1859 138.802 5.10533 128.987C-26.0672 85.7891 -69.2895 59.7796 -110.557 59.416Z" fill="url(#paint5_radial_840_7912)"/>
<path d="M-109.688 52.5583L-109.674 53.4588C-68.086 52.8044 -24.0767 79.8617 8.02083 125.829C16.6484 138.183 24.4016 151.316 31.8969 164.011L34.3185 168.113C35.8714 170.738 37.411 173.29 38.8918 175.705C47.0017 188.923 56.382 202.07 69.7892 208.694C78.2621 212.883 85.9337 212.131 92.5916 206.462C96.3105 203.294 99.4967 199.353 102.379 195.559C105.468 191.501 108.538 187.307 111.512 183.24C116.941 175.811 122.555 168.129 128.529 160.998C141.628 145.394 159.997 137.282 180.247 138.228C193.162 138.83 209.853 140.799 224.433 150.752C226.658 152.254 228.78 153.905 230.782 155.693C234.441 158.969 238.266 163.459 242.312 168.209C249.118 176.209 256.192 184.486 263.344 188.007C276.961 194.716 290.164 188.907 304.12 182.754C309.169 180.54 314.397 178.223 319.703 176.518C331.927 172.592 344.929 168.652 357.682 167.345C378.121 165.151 398.785 166.397 418.813 171.031L419.018 170.156C398.893 165.512 378.132 164.267 357.597 166.473C344.761 167.792 331.705 171.749 319.438 175.688C314.08 177.405 308.837 179.719 303.764 181.954C290.005 188.023 277.008 193.75 263.747 187.226C256.759 183.788 249.769 175.58 243.003 167.648C238.936 162.874 235.089 158.365 231.371 155.044C229.341 153.228 227.187 151.553 224.927 150.031C210.165 139.952 193.31 137.961 180.279 137.35C159.748 136.389 141.118 144.609 127.834 160.442C121.844 167.576 116.222 175.277 110.783 182.734C107.813 186.812 104.745 190.991 101.654 195.034C98.798 198.786 95.6513 202.673 91.9948 205.801C85.6377 211.214 78.2979 211.925 70.1769 207.911C56.9502 201.361 47.6954 188.347 39.6533 175.242C38.1766 172.832 36.6419 170.282 35.0882 167.661L32.6666 163.559C25.1638 150.848 17.4016 137.708 8.75417 125.321C-23.5209 79.1057 -67.8006 51.9025 -109.688 52.5583Z" fill="url(#paint6_radial_840_7912)"/>
<path d="M-108.813 45.7259L-108.777 46.6197C-66.5299 44.9778 -21.483 73.2257 11.7113 122.185C21.4863 136.604 30.0439 151.945 37.977 166.422C39.4453 169.099 40.9308 171.794 42.4254 174.465C49.9529 187.922 59.1371 202.909 72.8698 210.424C81.5531 215.186 89.4158 214.444 96.2413 208.22C99.995 204.778 103.163 200.484 106.033 196.333C109.039 191.977 112.021 187.459 114.904 183.078C120.305 174.924 125.84 166.488 131.853 158.719C145.126 141.565 164.066 132.883 185.175 134.279C203.252 135.472 216.232 139.479 227.197 147.28C229.303 148.757 231.308 150.373 233.198 152.118C236.59 155.253 240.083 159.385 243.779 163.763C250.399 171.595 257.252 179.678 264.406 183.123C277.473 189.377 290.171 183.865 303.589 178.019C308.421 175.916 313.428 173.746 318.468 172.145C330.892 168.201 344.129 164.258 357.113 163.147C377.926 161.367 398.89 162.846 419.247 167.531L419.447 166.655C398.997 161.947 377.937 160.457 357.029 162.24C343.937 163.359 330.662 167.316 318.189 171.277C313.097 172.89 308.078 175.073 303.223 177.187C289.987 182.946 277.484 188.384 264.785 182.302C257.802 178.957 251.015 170.935 244.456 163.169C240.741 158.778 237.232 154.623 233.801 151.446C231.88 149.675 229.844 148.035 227.705 146.536C216.602 138.647 203.499 134.589 185.226 133.385C163.79 131.965 144.577 140.769 131.137 158.17C125.103 165.966 119.537 174.412 114.147 182.583C111.272 186.95 108.296 191.464 105.287 195.84C102.45 199.94 99.317 204.21 95.6273 207.571C89.1214 213.488 81.6061 214.185 73.2946 209.631C59.7927 202.225 50.6746 187.36 43.2058 174.01C41.7112 171.339 40.2249 168.649 38.7616 165.973C30.8218 151.474 22.2469 136.116 12.4513 121.667C-20.9182 72.4458 -66.2503 44.0496 -108.813 45.7259Z" fill="url(#paint7_radial_840_7912)"/>
<path d="M-107.941 38.8464L-107.886 39.7435C-64.9205 37.1338 -18.8352 66.5672 15.399 118.493C23.7184 131.116 31.7919 145.357 41.6336 164.679L42.6458 166.672C43.7419 168.834 44.8456 171.002 45.957 173.173C53.7775 188.459 62.5357 204.061 75.9485 212.102C84.7268 217.367 92.9723 216.612 99.8898 209.92C103.732 206.189 106.854 201.527 109.681 197.05C112.713 192.256 115.695 187.277 118.578 182.459C123.807 173.719 129.218 164.679 135.173 156.403C148.445 137.955 168.466 128.436 190.099 130.294C206.846 131.729 219.513 136.004 229.955 143.745C231.942 145.198 233.83 146.781 235.607 148.485C238.729 151.474 241.894 155.253 245.241 159.253C251.657 166.905 258.289 174.851 265.477 178.184C277.983 183.991 290.172 178.765 303.081 173.231C307.69 171.255 312.466 169.193 317.247 167.712C329.888 163.748 343.339 159.8 356.554 158.888C376.858 157.468 398.092 159.185 419.672 163.987L419.866 163.116C398.194 158.288 376.871 156.552 356.483 157.994C343.17 158.915 329.662 162.873 316.957 166.852C312.139 168.368 307.34 170.421 302.71 172.404C289.991 177.857 277.977 183.005 265.854 177.368C258.861 174.123 252.294 166.274 245.944 158.684C242.581 154.66 239.398 150.864 236.246 147.839C234.433 146.116 232.512 144.512 230.493 143.036C219.908 135.207 207.115 130.87 190.177 129.414C168.219 127.533 147.908 137.176 134.444 155.897C128.468 164.205 123.051 173.259 117.814 182.013C114.931 186.826 111.956 191.802 108.925 196.585C106.14 201.024 103.042 205.629 99.2668 209.295C92.6189 215.767 84.8928 216.45 76.4129 211.346C63.2054 203.415 54.5199 187.957 46.7597 172.768C45.6511 170.6 44.5474 168.432 43.4486 166.266L42.4364 164.273C32.5987 144.926 24.4947 130.655 16.1497 118.003C-18.2638 65.8088 -64.6533 36.2188 -107.941 38.8464Z" fill="url(#paint8_radial_840_7912)"/>
<path d="M-107.061 31.993L-106.985 32.8884C-63.1406 29.3122 -16.0085 59.9427 19.0951 114.823C27.7968 128.33 36.3693 144.074 45.2977 162.962L48.1775 169.093L49.4962 171.908C57.5605 189.105 65.8892 205.251 79.0347 213.806C88.0069 219.651 96.469 218.906 103.54 211.651C107.412 207.676 110.532 202.653 113.331 197.796C116.296 192.702 119.188 187.399 121.976 182.27C127.146 172.81 132.486 163.023 138.486 154.105C151.958 134.067 172.567 123.939 195.021 126.328C210.636 127.983 222.616 132.389 232.711 140.239C234.583 141.672 236.363 143.222 238.038 144.88C240.882 147.712 243.718 151.147 246.724 154.782C252.927 162.282 259.334 170.049 266.526 173.261C278.46 178.629 290.16 173.688 302.552 168.465C306.917 166.61 311.476 164.696 315.995 163.298C328.87 159.327 342.567 155.364 355.993 154.655C376.134 153.573 397.105 155.475 420.109 160.471L420.299 159.594C397.216 154.58 376.165 152.675 355.947 153.759C342.434 154.475 328.682 158.439 315.75 162.441C311.188 163.852 306.628 165.776 302.206 167.632C290.005 172.78 278.48 177.643 266.9 172.44C259.9 169.294 253.553 161.619 247.418 154.201C244.4 150.549 241.547 147.096 238.672 144.239C236.972 142.56 235.168 140.989 233.273 139.535C223.036 131.6 210.915 127.12 195.126 125.442C172.327 123.022 151.417 133.287 137.749 153.614C131.709 162.56 126.376 172.369 121.198 181.843C118.402 186.965 115.511 192.258 112.557 197.349C109.789 202.145 106.702 207.118 102.901 211.029C94.4017 219.779 85.497 216.949 79.5238 213.054C66.577 204.618 58.3193 188.596 50.3162 171.52L48.9975 168.705C48.0313 166.648 47.0741 164.598 46.1129 162.573C37.1703 143.648 28.578 127.87 19.8565 114.329C-15.4404 59.1736 -62.8824 28.3906 -107.061 31.993Z" fill="url(#paint9_radial_840_7912)"/>
<path d="M-106.188 25.1359L-106.102 26.028C-61.489 21.5175 -13.3094 53.3403 22.778 111.157C31.9234 125.702 40.7321 142.571 48.9495 161.245C50.2388 164.177 51.5299 167.159 52.8144 170.151L53.0279 170.643C59.7565 186.271 68.132 205.713 82.1086 215.511C93.6993 223.643 102.143 218.846 107.181 213.393C111.085 209.164 114.191 203.764 116.972 198.554C119.891 193.148 122.685 187.518 125.412 182.081C130.508 171.898 135.777 161.374 141.809 151.822C155.527 130.139 176.699 119.399 199.95 122.37C214.22 124.21 225.84 128.892 235.482 136.744C237.22 138.155 238.871 139.671 240.426 141.281C242.994 143.941 245.515 147.035 248.179 150.309C254.16 157.646 260.338 165.233 267.545 168.356C278.919 173.271 290.646 168.416 301.993 163.707C306.155 161.981 310.458 160.197 314.717 158.899C327.843 154.892 341.796 150.941 355.361 150.437C375.234 149.692 395.923 151.76 420.501 156.97L420.69 156.098C396.034 150.87 375.275 148.791 355.36 149.549C341.688 150.056 327.675 154.028 314.487 158.049C310.208 159.375 305.855 161.15 301.687 162.885C289.996 167.736 278.955 172.313 267.928 167.541C260.906 164.499 254.794 156.999 248.886 149.746C246.205 146.453 243.676 143.343 241.082 140.658C239.497 139.021 237.814 137.48 236.044 136.045C226.277 128.091 214.503 123.323 200.062 121.501C176.448 118.485 154.933 129.367 141.041 151.371C134.987 160.96 129.709 171.508 124.601 181.704C121.879 187.142 119.067 192.759 116.169 198.158C113.422 203.318 110.345 208.662 106.511 212.806C97.8222 222.215 88.7275 219.091 82.615 214.807C68.8439 205.15 60.5238 185.834 53.8382 170.314L53.6297 169.824C52.3361 166.825 51.0639 163.82 49.7607 160.911C41.5209 142.188 32.6948 125.301 23.5032 110.698C-12.7356 52.567 -61.2267 20.5713 -106.188 25.1359Z" fill="url(#paint10_radial_840_7912)"/>
<path d="M-105.315 18.2823L-105.207 19.1727C-59.8079 13.7363 -10.5808 46.7512 26.4533 107.484C36.5519 124.111 45.2988 141.522 52.6094 159.548C53.8644 162.596 55.1378 165.779 56.3434 168.849L56.5587 169.392C63.5287 186.978 71.422 206.913 85.1914 217.23C94.432 224.159 103.534 223.413 110.824 215.134C114.762 210.662 117.859 204.89 120.613 199.315C123.46 193.582 126.206 187.625 128.859 181.861C133.878 170.976 139.064 159.717 145.131 149.527C158.861 126.476 181.2 114.836 204.888 118.397C217.83 120.348 229.055 125.335 238.247 133.235C239.87 134.624 241.41 136.107 242.857 137.677C245.146 140.144 247.352 142.907 249.693 145.829C255.431 153.004 261.366 160.434 268.622 163.444C279.422 167.93 290.645 163.362 301.497 158.951C305.435 157.346 309.503 155.702 313.493 154.496C326.91 150.472 341.133 146.519 354.837 146.216C374.198 145.772 394.586 148.009 420.937 153.459L421.117 152.58C394.698 147.114 374.25 144.872 354.802 145.317C340.996 145.624 326.689 149.593 313.253 153.639C309.222 154.849 305.131 156.515 301.176 158.122C290.49 162.454 279.419 166.96 268.966 162.618C261.906 159.686 256.038 152.373 250.374 145.266C248.023 142.343 245.806 139.558 243.496 137.062C242.024 135.47 240.461 133.965 238.816 132.553C229.475 124.542 218.124 119.484 205.003 117.508C180.974 113.896 158.286 125.681 144.359 149.065C138.273 159.283 133.08 170.55 128.05 181.475C125.393 187.228 122.653 193.181 119.815 198.894C117.085 204.412 114.024 210.119 110.139 214.514C101.251 224.611 91.9502 221.163 85.7192 216.49C72.1634 206.325 64.3058 186.512 57.3838 169.035L57.1636 168.492C55.9439 165.414 54.6854 162.234 53.4263 159.18C46.1012 141.118 37.3381 123.673 27.2213 107.012C-10.0062 45.9729 -59.5531 12.804 -105.315 18.2823Z" fill="url(#paint11_radial_840_7912)"/>
<path d="M-104.437 11.434L-104.314 12.3218C-58.0941 5.97003 -7.82931 40.1755 30.1565 103.825C40.4013 121.046 49.1367 139.12 56.2651 157.845C57.5313 161.133 58.7317 164.451 60.0935 168.146L60.3038 168.688C67.37 188.066 74.6846 208.093 88.2732 218.954C97.7201 226.48 107.024 225.742 114.471 216.88C118.203 212.46 121.081 206.966 124.254 200.08C127.047 194.024 129.727 187.727 132.325 181.619C137.277 170.027 142.36 158.041 148.448 147.23C162.436 122.425 185.378 110.175 209.815 114.427C221.469 116.411 232.304 121.716 241.015 129.707C242.513 131.077 243.935 132.527 245.275 134.051C247.278 136.318 249.275 138.869 251.184 141.335C256.683 148.328 262.358 155.609 269.677 158.512C279.909 162.565 290.62 158.298 300.983 154.173C304.693 152.697 308.528 151.167 312.251 150.069C326.502 145.857 340.439 142.066 354.228 141.959C377.642 141.751 400.314 145.677 421.32 149.924L421.495 149.044C400.435 144.789 377.709 140.879 354.223 141.065C340.317 141.173 326.311 144.979 311.997 149.21C308.26 150.326 304.379 151.854 300.658 153.343C290.458 157.399 279.915 161.602 269.997 157.677C262.897 154.86 257.293 147.703 251.874 140.778C249.936 138.303 247.931 135.741 245.907 133.449C244.537 131.901 243.085 130.428 241.557 129.035C232.736 120.941 221.767 115.562 209.965 113.544C198.487 111.541 186.669 113.273 176.25 118.487C164.801 124.154 154.926 133.951 147.665 146.807C141.552 157.65 136.44 169.656 131.5 181.27C128.91 187.354 126.231 193.647 123.44 199.688C120.288 206.511 117.455 211.946 113.786 216.29C108.775 222.255 100.38 227.435 88.8332 218.234C75.4369 207.563 68.1694 187.649 61.1447 168.39L60.9343 167.848C59.5882 164.151 58.368 160.829 57.1034 157.531C49.9602 138.754 41.206 120.63 30.9386 103.36C-7.26783 39.3849 -57.8516 5.02049 -104.437 11.434Z" fill="url(#paint12_radial_840_7912)"/>
<path d="M-103.567 4.57011L-103.434 5.45468C-35.4431 -5.03411 30.2075 73.2987 59.9224 156.098C61.3739 160.142 62.8119 164.422 64.2026 168.558C70.9359 188.571 77.8872 209.265 91.3443 220.616C96.1454 224.664 101.141 226.571 105.777 226.126C110.248 225.699 114.387 223.158 118.1 218.573C121.886 213.888 124.75 208.078 127.883 200.789C130.628 194.406 133.247 187.768 135.776 181.344C140.624 169.056 145.633 156.347 151.749 144.932C165.806 118.687 189.937 105.476 214.721 110.455C225.408 112.603 235.18 117.904 243.757 126.211C246.963 129.31 249.887 133.135 252.739 136.877C257.964 143.744 263.371 150.839 270.767 153.613C280.43 157.232 290.619 153.27 300.503 149.436C303.985 148.081 307.585 146.684 311.039 145.679C325.622 141.451 339.854 137.662 353.686 137.75C376.696 137.902 399.02 141.939 421.771 146.411L421.946 145.532C399.153 141.037 376.78 136.987 353.693 136.843C339.739 136.755 325.438 140.563 310.791 144.811C307.3 145.825 303.683 147.229 300.18 148.592C290.468 152.368 280.425 156.272 271.069 152.764C263.899 150.063 258.588 143.101 253.439 136.322C250.588 132.581 247.636 128.706 244.388 125.558C235.683 117.13 225.766 111.749 214.911 109.547C189.718 104.491 165.219 117.875 150.966 144.478C144.827 155.941 139.809 168.673 134.951 180.991C132.424 187.405 129.811 194.033 127.068 200.406C123.962 207.623 121.132 213.379 117.411 217.983C113.893 222.397 109.939 224.832 105.71 225.237C101.317 225.656 96.5577 223.823 91.9398 219.928C78.6593 208.737 71.7436 188.166 65.0624 168.268C63.6725 164.128 62.2296 159.846 60.7748 155.791C30.9142 72.6437 -35.092 -5.99624 -103.567 4.57011Z" fill="url(#paint13_radial_840_7912)"/>
<path d="M-103.818 6.71438L-103.7 7.60145C-79.4098 4.35066 -54.3216 12.1708 -29.121 30.7562C-7.01963 47.0763 14.3318 71.3508 32.631 100.943C42.3345 116.601 50.6932 133.052 57.6173 150.12C59.1771 153.969 60.7241 158.05 62.2182 161.989C63.5325 165.448 64.8883 169.025 66.2834 172.517C71.975 186.889 78.7712 201.397 89.6764 210.086C99.0962 217.623 108.373 216.956 115.872 208.209C119.91 203.5 123.019 197.471 125.782 191.654C128.546 185.837 131.249 179.711 133.839 173.84C138.874 162.419 144.086 150.606 150.235 140.039C164.52 115.496 187.991 103.764 211.501 109.421C221.935 111.934 231.767 117.676 240.718 126.491C243.919 129.65 246.879 133.471 249.742 137.169C255.228 144.246 260.897 151.567 268.528 154.608C271.688 155.845 275.063 156.436 278.455 156.347C285.822 156.24 293.467 153.489 300.864 150.829C303.842 149.756 306.922 148.649 309.888 147.746C313.337 146.71 316.804 145.631 320.254 144.56L321.72 144.106C330.918 141.29 341.807 138.322 352.794 137.688C360.574 137.248 368.371 137.227 376.154 137.623C391.621 138.404 406.993 140.514 422.098 143.931L422.292 143.06C407.136 139.633 391.712 137.517 376.193 136.737C368.387 136.342 360.565 136.365 352.761 136.805C341.677 137.448 330.724 140.431 321.472 143.263L320.007 143.717C316.557 144.789 313.096 145.864 309.646 146.9C306.661 147.799 303.57 148.909 300.583 149.976C293.256 152.612 285.681 155.339 278.462 155.44C275.19 155.529 271.933 154.961 268.884 153.769C261.477 150.815 255.883 143.598 250.473 136.614C247.593 132.893 244.611 129.054 241.367 125.846C232.299 116.911 222.328 111.09 211.727 108.54C187.802 102.784 163.969 114.68 149.478 139.579C143.301 150.193 138.081 162.025 133.037 173.469C130.447 179.34 127.77 185.405 124.989 191.26C122.255 197.02 119.177 202.989 115.193 207.615C110.164 213.506 101.713 218.591 90.2348 209.376C79.4623 200.805 72.7604 186.434 67.111 172.176C65.7208 168.685 64.3618 165.127 63.054 161.66C61.5558 157.714 60.0088 153.634 58.4457 149.775C51.5015 132.66 43.1196 116.165 33.39 100.464C15.0337 70.7864 -6.39528 46.428 -28.5717 30.0398C-53.977 11.2786 -79.2891 3.43181 -103.818 6.71438Z" fill="url(#paint14_radial_840_7912)"/>
<path d="M-104.079 8.85451L-103.977 9.74409C-60.4204 4.86708 -11.6555 37.3899 29.8129 98.9691C39.525 113.309 48.0491 128.417 55.3001 144.144C56.978 147.799 58.63 151.673 60.2661 155.428C61.5853 158.487 62.9476 161.654 64.341 164.755C70.2369 178.009 77.1821 191.395 87.9923 199.551C99.7642 208.433 108.434 203.527 113.652 197.844C117.736 193.381 121.014 187.588 123.686 182.512C126.482 177.213 129.198 171.748 131.818 166.461C137.073 155.868 142.509 144.914 148.735 135.146C163.228 112.387 186.05 102.137 208.287 108.407C218.475 111.27 228.351 117.451 237.678 126.789C240.868 129.987 243.852 133.781 246.737 137.447C252.474 144.723 258.411 152.296 266.295 155.622C269.495 156.947 272.918 157.655 276.382 157.708C284.707 157.925 293.447 154.963 301.897 152.101C304.149 151.34 306.483 150.546 308.735 149.846C312.254 148.756 316.078 147.477 320.763 145.812C330.003 142.531 340.931 138.981 351.904 137.66C359.7 136.714 367.544 136.215 375.398 136.166C391.661 136.04 407.936 137.879 422.395 141.475L422.61 140.602C408.083 136.99 391.752 135.146 375.387 135.271C367.5 135.323 359.622 135.823 351.792 136.769C340.733 138.121 329.748 141.673 320.461 144.965C315.787 146.627 311.978 147.903 308.464 148.99C306.207 149.694 303.868 150.487 301.61 151.252C293.23 154.09 284.57 157.025 276.408 156.814C273.055 156.762 269.742 156.077 266.643 154.797C258.978 151.562 253.104 144.101 247.422 136.89C244.521 133.201 241.519 129.389 238.295 126.154C228.855 116.702 218.835 110.441 208.503 107.555C185.87 101.194 162.664 111.589 147.951 134.697C141.704 144.502 136.254 155.479 130.99 166.096C128.371 171.374 125.671 176.836 122.866 182.128C120.223 187.153 116.98 192.887 112.965 197.27C104.008 207.041 94.7307 203.516 88.5301 198.842C77.8823 190.81 71.0049 177.536 65.162 164.393C63.7678 161.296 62.4047 158.134 61.1069 155.1C59.4864 151.342 57.7965 147.452 56.1285 143.798C48.8653 128.026 40.3226 112.876 30.5859 98.4975C11.8194 70.6345 -9.34619 47.73 -30.6338 32.2643C-55.6747 14.0654 -80.375 6.20252 -104.079 8.85451Z" fill="url(#paint15_radial_840_7912)"/>
<path d="M-104.335 10.9985L-104.253 11.8897C-48.4265 6.90986 1.94157 63.0775 26.9981 96.983C36.704 110.024 45.3936 123.79 52.9903 138.161C54.8706 141.759 56.7621 145.596 58.5933 149.307C59.8496 151.853 61.1118 154.425 62.4077 156.977C68.5812 169.191 75.7546 181.498 86.3065 189.003C92.6426 193.531 102.149 196.9 111.388 187.48C115.511 183.277 118.836 177.994 121.545 173.376C124.254 168.757 126.995 163.911 129.595 159.275C135.348 148.987 140.828 139.304 147.179 130.256C161.883 109.365 184.037 100.587 205.03 107.348C215.08 110.589 224.756 117.031 234.606 127.049C237.765 130.273 240.758 134.017 243.65 137.639C249.682 145.187 255.916 152.991 264.068 156.6C267.315 158.019 270.788 158.846 274.326 159.043C283.913 159.666 294.096 156.327 303.947 153.097C305.17 152.699 306.388 152.296 307.599 151.911C311.44 150.686 315.439 149.238 319.82 147.477C329.693 143.52 340.31 139.583 351.028 137.591C358.843 136.135 366.74 135.16 374.674 134.671C391.91 133.604 408.527 135.093 422.725 138.976L422.964 138.112C408.668 134.203 391.951 132.707 374.619 133.774C366.648 134.266 358.714 135.247 350.863 136.711C340.067 138.716 329.402 142.67 319.484 146.646C315.136 148.397 311.147 149.841 307.323 151.054C306.112 151.444 304.894 151.847 303.665 152.249C293.901 155.448 283.813 158.761 274.386 158.15C270.955 157.96 267.585 157.159 264.436 155.782C256.488 152.258 250.322 144.541 244.356 137.08C241.447 133.441 238.442 129.679 235.252 126.419C225.293 116.297 215.498 109.78 205.312 106.496C183.943 99.6125 161.388 108.517 146.452 129.741C140.079 138.8 134.353 148.986 128.819 158.838C126.217 163.484 123.529 168.258 120.777 172.925C118.097 177.492 114.81 182.721 110.755 186.854C101.955 195.823 92.8842 192.586 86.8286 188.297C76.4326 180.925 69.3311 168.705 63.2064 156.596C61.9162 154.04 60.6525 151.477 59.3912 148.931C57.5608 145.215 55.6693 141.377 53.7815 137.764C46.1626 123.352 37.449 109.546 27.7174 96.4671C2.55185 62.3914 -48.0721 5.98886 -104.335 10.9985Z" fill="url(#paint16_radial_840_7912)"/>
<path d="M-104.59 13.1377L-104.535 14.0348C-65.1092 11.467 -21.8224 38.7201 24.187 95.0334C34.7476 107.979 43.4077 120.135 50.6851 132.21C52.7974 135.724 54.8358 139.317 56.9866 143.121C58.1398 145.152 59.3003 147.2 60.4773 149.241C66.8897 160.372 74.2592 171.641 84.6162 178.51C93.4913 184.359 101.952 183.898 109.159 177.117C113.363 173.161 116.855 168.159 119.438 164.245C122.02 160.332 124.637 156.272 127.13 152.379C133.276 142.79 139.085 133.734 145.663 125.369C160.555 106.426 182.069 99.126 201.809 106.315C211.56 109.867 221.288 116.76 231.555 127.328C234.668 130.559 237.647 134.236 240.529 137.79C246.857 145.604 253.402 153.678 261.838 157.597C265.128 159.102 268.646 160.044 272.247 160.385C283.584 161.544 296.253 157.351 306.436 153.982C310.645 152.585 314.78 150.972 318.824 149.15C330.488 143.964 340.273 139.992 350.096 137.549C357.926 135.573 365.879 134.12 373.901 133.198C386.406 131.764 405.08 131.177 423.005 136.505L423.258 135.643C405.193 130.272 386.391 130.868 373.799 132.309C365.738 133.235 357.747 134.694 349.879 136.676C339.992 139.139 330.164 143.125 318.457 148.354C314.43 150.159 310.315 151.76 306.126 153.15C296.024 156.492 283.452 160.65 272.31 159.512C268.808 159.181 265.386 158.263 262.188 156.797C253.94 152.97 247.464 144.973 241.198 137.24C238.308 133.67 235.316 129.981 232.173 126.719C221.819 116.035 211.972 109.088 202.078 105.487C181.964 98.1599 160.061 105.568 144.919 124.83C138.314 133.232 132.498 142.302 126.34 151.909C123.847 155.802 121.267 159.817 118.65 163.761C116.098 167.639 112.63 172.584 108.507 176.482C101.573 183.024 93.696 183.454 85.0946 177.762C74.891 171.009 67.5885 159.858 61.2182 148.81C60.0478 146.77 58.8873 144.732 57.7366 142.696C55.671 139.053 53.5391 135.288 51.4128 131.767C44.1361 119.656 35.4422 107.459 24.8412 94.4814C-21.3186 37.9099 -64.8773 10.5512 -104.59 13.1377Z" fill="url(#paint17_radial_840_7912)"/>
<path d="M-104.847 15.2835L-104.812 16.1823C-56.3872 14.2625 -9.60757 59.1337 21.3684 93.064C32.3395 105.087 41.1737 115.938 48.3953 126.253C50.8271 129.738 53.1817 133.322 55.6742 137.117C56.6284 138.567 57.5909 140.03 58.5591 141.488C64.7438 150.887 72.2871 161.439 82.9389 167.965C91.6994 173.339 99.7711 172.931 106.893 166.755C111.096 163.113 114.657 158.62 117.295 155.111C119.44 152.252 121.55 149.392 123.64 146.56C130.491 137.28 136.959 128.51 144.109 120.497C159.17 103.576 180.036 97.7476 198.556 105.289C208.156 109.202 217.674 116.298 228.491 127.621C231.541 130.833 234.479 134.421 237.339 137.895C243.981 145.995 250.871 154.374 259.601 158.606C262.935 160.203 266.5 161.263 270.165 161.748C281.694 163.34 294.382 159.774 305.269 156.075C309.582 154.611 313.795 152.865 317.879 150.847C328.415 145.674 338.735 140.76 349.222 137.487C357.064 134.999 365.071 133.064 373.184 131.696C386.099 129.553 405.283 128.213 423.34 134.004L423.617 133.151C405.386 127.306 386.052 128.637 373.034 130.814C364.882 132.182 356.835 134.121 348.954 136.616C338.408 139.91 328.053 144.849 317.485 150.032C313.429 152.031 309.244 153.759 304.96 155.207C294.194 158.876 281.619 162.409 270.288 160.845C266.716 160.373 263.24 159.341 259.99 157.787C251.425 153.633 244.617 145.338 238.033 137.314C235.175 133.83 232.22 130.224 229.143 126.988C218.233 115.553 208.624 108.391 198.893 104.446C180.009 96.7739 158.766 102.672 143.443 119.885C136.264 127.949 129.785 136.727 122.901 146.022C120.811 148.855 118.696 151.703 116.557 154.568C113.955 158.042 110.422 162.49 106.29 166.072C99.489 171.961 91.7877 172.338 83.386 167.192C72.8957 160.763 65.4308 150.29 59.2719 140.981C58.3037 139.523 57.3434 138.068 56.3911 136.615C53.8944 132.815 51.5168 129.218 49.0957 125.729C41.8749 115.408 33.0241 104.505 22.0217 92.456C0.0391264 68.377 -18.6755 51.3403 -36.8779 38.8429C-60.8734 22.3737 -83.7402 14.442 -104.847 15.2835Z" fill="url(#paint18_radial_840_7912)"/>
<path d="M-105.106 17.4123L-105.091 18.3078C-60.986 17.7478 -18.1371 55.564 18.56 91.0949C30.453 102.605 38.9365 111.607 46.0673 120.284C48.9941 123.845 51.8421 127.546 54.857 131.467L56.601 133.732C63.0864 142.136 70.8711 151.591 81.2546 157.434C89.7981 162.243 97.6674 161.894 104.643 156.394C107.972 153.77 111.216 150.559 115.163 145.977L119.01 141.505C126.954 132.243 134.463 123.497 142.56 115.594C157.774 100.768 177.986 96.4157 195.309 104.232C207.391 109.685 217.752 119.736 225.427 127.884C228.389 131.045 231.279 134.524 234.07 137.89C241.051 146.304 248.274 155.007 257.358 159.586C260.742 161.272 264.356 162.448 268.083 163.075C277.895 164.77 289.678 163.156 304.108 158.132C308.52 156.605 312.801 154.725 316.91 152.509C326.622 147.313 337.626 141.42 348.325 137.416C356.174 134.423 364.235 132.018 372.441 130.219C391.204 126.161 409.396 126.626 423.653 131.538L423.944 130.693C409.531 125.74 391.169 125.262 372.248 129.355C364.002 131.166 355.9 133.583 348.009 136.587C337.261 140.614 326.229 146.522 316.494 151.736C312.426 153.926 308.188 155.788 303.823 157.303C289.539 162.276 277.9 163.878 268.246 162.209C264.605 161.592 261.076 160.439 257.774 158.787C248.871 154.278 241.695 145.664 234.768 137.32C231.968 133.947 229.075 130.457 226.092 127.267C218.356 119.059 207.911 108.933 195.692 103.412C178.026 95.4328 157.426 99.8587 141.945 114.95C133.813 122.883 126.281 131.645 118.328 140.926L114.486 145.368C110.578 149.901 107.376 153.079 104.093 155.664C97.4322 160.916 89.8972 161.24 81.6967 156.629C71.4739 150.888 63.7446 141.498 57.3194 133.16L55.5754 130.895C52.5556 126.973 49.7232 123.27 46.7593 119.687C39.6021 110.985 31.0971 101.96 19.1778 90.4252C-17.6439 54.818 -60.6553 16.8482 -105.106 17.4123Z" fill="url(#paint19_radial_840_7912)"/>
<path d="M-105.359 19.5727L-105.374 20.4683C-64.5652 21.0913 -25.9614 53.8254 8.10102 82.6616C10.6897 84.8531 13.242 87.0183 15.7523 89.131C25.1878 97.066 35.1177 105.544 43.7703 114.319C47.2479 117.865 50.6385 121.538 54.6796 125.978C61.7532 133.737 69.5051 141.755 79.5767 146.903C87.8925 151.153 95.5692 150.863 102.394 146.028C106.195 143.273 109.756 140.203 113.041 136.85C122.371 127.556 131.527 118.579 141.033 110.715C156.599 97.8553 175.69 95.0434 192.095 103.196C203.661 108.944 213.495 118.594 222.392 128.166C225.241 131.247 228.037 134.584 230.74 137.809C238.09 146.573 245.689 155.642 255.148 160.597C258.583 162.367 262.248 163.653 266.036 164.418C279.168 167.131 293.373 163.627 302.976 160.208C307.482 158.608 311.83 156.593 315.965 154.191L317.832 153.112C327.983 147.222 337.575 141.645 347.433 137.355C355.284 133.855 363.395 130.97 371.693 128.726C382.838 125.774 404.431 121.887 423.97 129.033L424.276 128.19C404.512 120.962 382.691 124.877 371.466 127.856C363.12 130.11 354.962 133.009 347.066 136.528C337.157 140.856 327.121 146.694 317.373 152.327L315.504 153.41C311.419 155.789 307.12 157.781 302.663 159.36C293.164 162.74 279.132 166.211 266.211 163.513C262.501 162.762 258.915 161.498 255.555 159.756C246.253 154.898 238.713 145.899 231.418 137.2C228.707 133.964 225.902 130.62 223.04 127.526C214.083 117.889 204.177 108.187 192.486 102.362C175.756 94.0292 156.297 96.9176 140.472 109.994C130.938 117.868 121.762 126.878 112.419 136.184C109.173 139.504 105.652 142.543 101.895 145.271C95.3678 149.896 88.0039 150.166 80.0014 146.08C70.0666 140.995 62.3865 133.035 55.3617 125.349C51.3107 120.908 47.9373 117.222 44.4309 113.667C35.7535 104.857 25.8005 96.365 16.3518 88.4177C13.8352 86.3125 11.2846 84.1577 8.69972 81.9533C-25.4946 53.0243 -64.2312 20.2025 -105.359 19.5727Z" fill="url(#paint20_radial_840_7912)"/>
<path d="M-105.614 21.7124L-105.655 22.6088C-70.6042 24.2027 -36.4636 50.0328 -6.34538 72.8215C0.367431 77.8985 6.70497 82.6956 12.9553 87.1587L17.0211 90.06C25.7068 96.2581 33.9116 102.108 41.4825 108.356C44.7359 111.043 48.2149 114.086 52.7625 118.223C60.4883 125.258 68.2232 131.929 77.8989 136.367C85.9944 140.073 93.4745 139.837 100.14 135.666C103.904 133.269 107.496 130.611 110.889 127.713C121.542 118.774 130.624 111.819 139.472 105.826C155.126 95.2078 173.588 93.845 188.851 102.15C200.544 108.518 210.714 119.055 219.328 128.438C222.024 131.393 224.693 134.546 227.272 137.599C235.024 146.759 243.033 156.235 252.911 161.574C256.397 163.44 260.11 164.847 263.958 165.76C274.961 168.392 288.407 167.158 301.812 162.285C306.42 160.615 310.839 158.462 314.995 155.863L319.395 153.116C328.697 147.298 337.498 141.81 346.531 137.283C354.388 133.283 362.555 129.924 370.953 127.239C390.34 121.178 409.774 120.939 424.292 126.549L424.613 125.713C409.916 120.018 390.262 120.262 370.698 126.385C362.251 129.085 354.038 132.465 346.138 136.492C337.047 141.03 327.836 146.791 318.93 152.364L314.529 155.111C310.428 157.675 306.067 159.798 301.519 161.445C288.27 166.263 275.009 167.487 264.177 164.893C260.403 164.004 256.761 162.626 253.344 160.793C243.621 155.535 235.662 146.123 227.97 137.029C225.382 133.97 222.71 130.805 220 127.838C211.333 118.406 201.103 107.803 189.289 101.369C173.723 92.9031 154.922 94.2913 138.974 105.089C130.102 111.104 121.002 118.076 110.326 127.031C106.964 129.906 103.404 132.542 99.6738 134.92C93.2766 138.942 86.0813 139.144 78.2791 135.567C68.7205 131.189 61.0442 124.563 53.3762 117.579C48.8153 113.429 45.3273 110.379 42.0607 107.68C34.4626 101.412 26.2495 95.5507 17.549 89.3502L13.4832 86.4489C7.2485 81.9833 0.910133 77.1911 -5.79774 72.1149C-36.0281 49.2367 -70.2858 23.3164 -105.614 21.7124Z" fill="url(#paint21_radial_840_7912)"/>
<path d="M-105.871 23.8579L-105.937 24.7553C-75.6285 27.0965 -46.7873 46.9404 -18.8886 66.1268C-8.75127 73.0965 0.825332 79.6796 10.1559 85.1973C13.5189 87.1864 16.862 89.1113 20.0947 90.9672C26.8089 94.8318 33.144 98.5021 39.2177 102.403C42.8863 104.788 46.7143 107.437 50.8726 110.485C58.1418 115.821 66.3899 121.871 76.2671 125.825C84.1408 128.997 91.4275 128.825 97.9271 125.292C101.667 123.247 105.294 121.003 108.794 118.57C118.151 112.133 127.879 106.251 137.928 100.955C153.857 92.5238 171.247 92.5831 185.615 101.116C196.847 107.784 206.526 117.976 216.27 128.722C218.773 131.498 221.267 134.42 223.674 137.252C231.864 146.864 240.336 156.802 250.68 162.578C254.22 164.535 257.983 166.057 261.888 167.111C273.581 170.272 287.349 169.299 300.659 164.354C305.369 162.614 309.858 160.326 314.034 157.537C316.311 156.034 318.564 154.524 320.794 153.007C328.927 147.535 337.344 141.877 345.632 137.222C353.488 132.711 361.712 128.871 370.214 125.743C390.003 118.627 409.833 118.017 424.609 124.034L424.953 123.208C409.972 117.081 389.913 117.694 369.91 124.877C361.356 128.025 353.08 131.885 345.171 136.415C336.839 141.088 328.415 146.756 320.276 152.236C318.062 153.785 315.782 155.298 313.536 156.796C309.418 159.547 304.99 161.804 300.344 163.521C287.21 168.388 273.635 169.352 262.122 166.241C258.287 165.205 254.591 163.71 251.114 161.787C240.914 156.096 232.499 146.218 224.36 136.664C221.943 133.831 219.45 130.899 216.939 128.117C207.141 117.321 197.411 107.07 186.072 100.344C171.407 91.6403 153.698 91.5742 137.491 100.153C127.405 105.474 117.639 111.384 108.247 117.851C104.775 120.265 101.176 122.492 97.4651 124.521C91.1226 127.963 84.2838 128.128 76.5732 125.012C66.8287 121.086 58.6309 115.069 51.403 109.761C47.2315 106.7 43.4083 104.052 39.7068 101.652C33.638 97.7207 27.2856 94.0628 20.5615 90.1967C17.3148 88.3333 13.9907 86.4166 10.6318 84.4333C1.30536 78.9213 -8.24816 72.3521 -18.3616 65.3915C-46.3757 46.1353 -75.3175 26.2242 -105.871 23.8579Z" fill="url(#paint22_radial_840_7912)"/>
<path d="M-106.122 26.0033L-106.219 26.8702C-79.9455 29.7961 -54.5336 45.9249 -29.9777 61.5172C-16.9572 69.783 -4.66315 77.5894 7.37166 83.2068C12.2356 85.4833 17.0356 87.5616 21.6791 89.5735C26.9959 91.8738 32.0234 94.0503 36.9287 96.4148C41.0451 98.3908 44.9756 100.448 48.9493 102.705L50.6774 103.709C58.0198 107.89 65.6128 112.214 74.5543 115.314C82.2087 117.968 89.2996 117.845 95.6284 114.949C99.3448 113.246 103.039 111.403 106.602 109.457C117.78 103.37 128.37 99.1039 136.344 96.0821C152.253 90.0222 169.032 91.4829 182.381 100.102C194.01 107.596 204.213 118.986 213.216 129.021C215.466 131.548 217.723 134.177 219.909 136.718C228.592 146.854 237.574 157.332 248.453 163.587C252.049 165.639 255.866 167.278 259.832 168.472C271.982 172.124 286.446 171.393 299.516 166.459C304.327 164.647 308.885 162.223 313.077 159.247C316.07 157.126 319.048 154.977 322.008 152.841C329.445 147.468 337.129 141.917 344.739 137.186C353.642 131.633 361.737 127.414 369.476 124.277C389.372 116.229 410.104 115.23 424.939 121.597L425.293 120.772C410.019 114.201 389.548 115.188 369.14 123.451C361.337 126.602 353.198 130.845 344.268 136.409C336.634 141.161 328.934 146.719 321.486 152.1C318.525 154.237 315.553 156.381 312.561 158.497C308.433 161.429 303.946 163.818 299.209 165.607C286.324 170.47 272.068 171.195 260.102 167.598C256.205 166.426 252.453 164.816 248.917 162.8C238.173 156.619 229.248 146.2 220.611 136.124C218.426 133.577 216.164 130.942 213.908 128.425C204.871 118.313 194.607 106.903 182.886 99.3428C169.293 90.5769 152.219 89.088 136.04 95.2457C128.036 98.293 117.408 102.578 106.185 108.688C102.636 110.642 98.9668 112.458 95.2677 114.149C89.0704 116.986 82.3912 117.105 74.8588 114.481C65.9988 111.41 58.4429 107.108 51.1294 102.967L49.4072 101.989C45.4145 99.7234 41.493 97.6425 37.3305 95.6691C32.4112 93.2972 27.3788 91.1198 22.0529 88.813C17.4144 86.8019 12.6192 84.7244 7.76362 82.4594C-4.23335 76.8279 -16.5027 69.0256 -29.4992 60.7992C-54.15 45.1356 -79.6591 28.9502 -106.122 26.0033Z" fill="url(#paint23_radial_840_7912)"/>
<path d="M-106.373 28.1486L-106.519 29.0329C-83.7634 32.3949 -61.4844 45.6288 -39.935 58.4229C-24.458 67.6154 -9.83669 76.3018 4.5656 81.2583C10.5554 83.3242 16.4366 85.0323 22.1291 86.684C26.4893 87.9491 30.567 89.1424 34.6441 90.4624C39.1216 91.9092 43.1776 93.3881 47.0346 94.9662C48.5749 95.6001 50.1227 96.2504 51.6902 96.904C58.314 99.6831 65.1611 102.555 72.8574 104.769C80.4029 106.944 87.1028 106.884 93.3383 104.586C96.4408 103.437 100.507 101.919 104.425 100.321C115.067 95.982 125.288 93.3704 134.746 91.1712C144.034 89.015 162.149 87.169 179.135 99.0351C190.217 106.774 199.519 117.28 209.37 128.399L210.154 129.279C212.079 131.462 213.997 133.686 215.897 135.901C225.143 146.651 234.705 157.768 246.206 164.566C249.852 166.714 253.718 168.465 257.737 169.791C270.471 173.997 285.268 173.528 298.331 168.512C303.248 166.63 307.877 164.07 312.084 160.905C315.754 158.154 319.435 155.31 323 152.552C329.803 147.298 336.834 141.863 343.815 137.1C352.966 130.842 360.872 126.287 368.709 122.766C388.987 113.664 410.111 112.288 425.235 119.088L425.603 118.271C410.252 111.367 388.846 112.733 368.341 121.949C360.455 125.488 352.504 130.071 343.307 136.362C336.313 141.138 329.266 146.581 322.457 151.844C318.898 154.592 315.218 157.437 311.55 160.198C307.407 163.308 302.85 165.826 298.011 167.678C285.138 172.619 270.56 173.083 258.018 168.945C254.069 167.633 250.269 165.908 246.683 163.797C235.312 157.071 225.797 146.013 216.596 135.321C214.683 133.098 212.759 130.874 210.844 128.692L210.061 127.807C200.611 117.12 190.835 106.104 179.667 98.3006C162.403 86.2416 144 88.1113 134.568 90.3048C125.137 92.4983 114.808 95.1479 104.123 99.5047C100.217 101.09 96.1664 102.605 93.0656 103.775C87.0127 106.012 80.5055 106.073 73.1389 103.953C65.492 101.747 58.668 98.8889 52.0928 96.1229C50.5099 95.46 48.9564 94.8138 47.4322 94.1843C43.5472 92.5914 39.4764 91.11 34.9799 89.655C30.8937 88.3284 26.7659 87.132 22.4353 85.8717C16.7584 84.2175 10.883 82.5053 4.91624 80.4534C-9.39871 75.5214 -23.9787 66.8621 -39.4195 57.6959C-61.0868 44.8164 -83.4442 31.5341 -106.373 28.1486Z" fill="url(#paint24_radial_840_7912)"/>
<path d="M-106.791 31.1799C-87.1507 34.8414 -67.7266 45.774 -48.9446 56.3523C-31.3655 66.2508 -14.7477 75.6055 1.80331 79.2866C8.60464 80.801 15.2855 81.8136 21.753 82.7961C25.4274 83.3547 28.8992 83.8801 32.3975 84.491C37.2525 85.3402 41.3072 86.21 45.1473 87.212C48.2277 88.018 51.2911 88.8973 54.5348 89.8215C59.8334 91.3374 65.3158 92.9088 71.1921 94.2457C78.5314 95.9145 85.0297 95.9076 91.0738 94.2175C93.3763 93.5814 95.6187 92.9709 97.811 92.3877C99.3194 91.9813 100.801 91.5856 102.268 91.1825C113.1 88.2198 123.517 87.0663 133.165 86.2734C144.362 85.3496 160.866 86.6331 175.906 97.9912C186.497 105.995 195.895 116.75 204.994 127.131L207.106 129.538C208.609 131.262 210.09 132.997 211.602 134.733C221.503 146.225 231.746 158.108 243.989 165.546C247.693 167.791 251.613 169.662 255.689 171.129C269.149 175.887 283.864 175.694 297.193 170.582C302.214 168.624 306.913 165.924 311.134 162.575C315.406 159.218 319.685 155.67 323.824 152.261C330.061 147.117 336.509 141.799 342.917 137.033C352.172 130.138 360.134 125.15 367.97 121.274C388.618 111.122 410.134 109.369 425.561 116.61L425.938 115.799C410.281 108.444 388.46 110.198 367.572 120.483C359.69 124.362 351.685 129.398 342.383 136.327C335.953 141.104 329.499 146.431 323.251 151.578C319.137 154.991 314.843 158.507 310.578 161.88C306.426 165.179 301.804 167.84 296.864 169.772C283.737 174.807 269.243 174.998 255.986 170.31C251.967 168.864 248.103 167.022 244.45 164.81C232.33 157.454 222.14 145.624 212.281 134.185C210.78 132.446 209.278 130.712 207.776 128.984L205.67 126.572C196.544 116.141 187.111 105.35 176.447 97.2938C164.541 88.298 149.146 84.0712 133.101 85.4002C123.411 86.2014 112.938 87.3509 102.036 90.3376C100.575 90.7366 99.0935 91.1323 97.5851 91.5387C95.3945 92.1222 93.1472 92.7319 90.8431 93.3677C84.9479 95.0163 78.5863 95.0255 71.3944 93.3859C65.5231 92.0499 60.0762 90.5096 54.7907 88.9756C51.537 88.0498 48.4885 87.173 45.3833 86.3629C41.4897 85.347 37.4301 84.4764 32.5504 83.6231C29.0422 83.0106 25.5671 82.4745 21.8812 81.9241C15.4433 80.9465 8.76746 79.9348 1.99498 78.4302C-14.4382 74.7735 -30.9852 65.4508 -48.5091 55.5868C-67.3562 44.9723 -86.8447 33.9987 -106.626 30.2988L-106.791 31.1799Z" fill="url(#paint25_radial_840_7912)"/>
<path d="M-107.077 33.3252C-90.2419 37.1597 -73.4624 46.2416 -57.2378 55.0243C-37.8533 65.5191 -19.5405 75.4316 -0.97854 77.3175C6.39583 78.0635 13.6569 78.2023 20.6865 78.298C23.799 78.3533 27.0186 78.4058 30.1379 78.513C35.2459 78.6884 39.4195 78.9892 43.2765 79.4561C49.0056 80.1446 54.8021 81.164 60.9446 82.2402C63.7469 82.7315 66.6076 83.2375 69.5334 83.7187C76.6897 84.8957 83.0012 84.9443 88.8013 83.8433C92.6919 83.1183 96.4478 82.5639 100.082 82.0402C111.659 80.3469 122.501 80.7499 131.577 81.3648C142.521 82.1043 158.529 85.412 172.667 96.9466C182.8 105.209 191.904 115.774 200.721 125.992L204.043 129.836L206.877 133.124C217.561 145.536 228.611 158.375 241.753 166.554C245.512 168.893 249.482 170.876 253.61 172.477C267.416 177.792 282.873 177.873 296.029 172.665C301.155 170.63 305.924 167.791 310.157 164.257C314.978 160.254 319.783 156.037 324.433 151.961C330.169 146.927 336.099 141.702 342.003 136.975C351.364 129.442 359.368 123.98 367.211 119.81C383.434 111.138 407.359 105.102 425.867 114.138L426.258 113.335C407.464 104.155 383.205 110.242 366.788 119.02C358.896 123.237 350.842 128.727 341.439 136.299C335.52 141.059 329.582 146.267 323.835 151.304C319.196 155.377 314.392 159.59 309.582 163.589C305.422 167.062 300.735 169.851 295.696 171.849C282.752 176.976 267.526 176.907 253.932 171.662C249.849 170.082 245.922 168.123 242.205 165.811C229.184 157.703 218.181 144.918 207.539 132.558L204.7 129.265C203.591 127.986 202.485 126.705 201.383 125.421C192.545 115.179 183.405 104.583 173.215 96.2705C158.894 84.584 142.694 81.2396 131.625 80.4897C122.499 79.8667 111.601 79.4646 99.9566 81.1672C96.315 81.7048 92.5302 82.2494 88.6232 82.9818C82.9013 84.0704 76.6993 84.0043 69.6525 82.8402C66.7268 82.359 63.8709 81.8538 61.0686 81.3625C54.9163 80.2846 49.1049 79.2629 43.3511 78.5703C39.4694 78.0993 35.2703 77.7993 30.1376 77.6199C27.0134 77.512 23.7888 77.4586 20.6705 77.4074C13.6689 77.2961 6.42518 77.1753 -0.913782 76.43C-19.3011 74.5628 -37.5595 64.6896 -56.8352 54.2432C-73.1159 45.431 -89.9514 36.3195 -106.904 32.4557L-107.077 33.3252Z" fill="url(#paint26_radial_840_7912)"/>
<path d="M-107.363 35.4561C-93.0766 39.3279 -78.7608 46.9087 -64.9141 54.2246C-44.916 64.7847 -24.2312 75.7064 -3.75324 75.3247C3.99053 75.1827 11.6421 74.305 19.069 73.4969C21.9609 73.1657 24.9508 72.8253 27.8559 72.537C33.2373 72.0064 37.4064 71.7483 41.3661 71.7146C50.2586 71.594 59.344 72.3678 67.8426 73.2226C74.0454 73.9201 80.3009 74.0212 86.5229 73.5245C90.5057 73.1648 94.3606 73.0275 97.929 72.9345C107.776 72.7222 117.964 73.855 129.986 76.4969C145.319 79.8662 158.587 86.412 169.424 95.9524C179.12 104.433 187.967 114.833 196.519 124.866C198.011 126.62 199.503 128.369 200.996 130.113L201.578 130.772C213.221 144.357 225.261 158.433 239.535 167.535C243.352 169.971 247.375 172.069 251.558 173.805C265.861 179.709 281.653 180.038 294.883 174.72C300.12 172.613 304.962 169.635 309.204 165.912C314.595 161.218 319.928 156.259 325.1 151.448C330.272 146.636 335.717 141.549 341.107 136.894C350.612 128.695 358.691 122.783 366.466 118.313C382.94 108.794 407.283 102.041 426.194 111.646L426.6 110.845C407.369 101.086 382.696 107.902 366.021 117.535C358.175 122.034 350.09 127.985 340.513 136.249C335.116 140.917 329.709 145.954 324.482 150.823C319.255 155.692 313.99 160.606 308.609 165.271C304.444 168.928 299.69 171.852 294.548 173.919C281.506 179.146 265.982 178.816 251.895 172.993C247.76 171.279 243.783 169.205 240.011 166.796C225.852 157.77 213.852 143.76 202.255 130.208L201.675 129.534C200.179 127.79 198.688 126.043 197.202 124.293C188.632 114.217 179.762 103.797 170.035 95.2309C159.083 85.5903 145.679 78.9765 130.199 75.573C118.103 72.9189 107.849 71.7804 97.9269 71.9904C94.3577 72.0883 90.4682 72.2199 86.4591 72.5855C80.2945 73.0764 74.0969 72.9746 67.9517 72.2815C59.4276 71.4276 50.3067 70.6531 41.369 70.7712C37.3805 70.8256 33.1958 71.0862 27.7839 71.6169C24.8582 71.9069 21.8634 72.2465 18.997 72.5768C11.5998 73.4202 3.95974 74.2897 -3.74125 74.4185C-23.9895 74.7923 -44.5671 63.9288 -64.472 53.4195C-78.3616 46.0864 -92.7228 38.5033 -107.102 34.5806L-107.363 35.4561Z" fill="url(#paint27_radial_840_7912)"/>
<path d="M-107.649 37.5959C-95.7051 41.4224 -83.6853 47.7173 -72.0719 53.7982C-50.8383 64.9015 -28.8842 76.4075 -6.53651 73.3295C1.29576 72.2481 9.10903 70.3872 16.6639 68.5853C19.5953 67.8903 22.6222 67.1703 25.5899 66.5016C30.9509 65.2928 35.3625 64.4556 39.4831 63.8749C48.332 62.6859 57.2677 62.2694 66.189 62.63L68.2839 62.7005C73.5442 62.8756 78.9807 63.0594 84.253 63.0994C87.7665 63.1242 91.5348 63.3279 95.7738 63.7258C106.398 64.7424 117.075 67.29 128.414 71.5195C142.459 76.6592 155.314 84.5978 166.198 94.8536C175.396 103.587 183.962 113.784 192.248 123.646C194.141 125.902 196.035 128.15 197.931 130.39C210.911 145.687 222.833 159.12 237.293 168.541C241.168 171.085 245.245 173.307 249.484 175.184C264.264 181.674 280.389 182.266 293.722 176.838C299.063 174.653 303.973 171.538 308.225 167.639C314.001 162.393 319.703 156.765 325.216 151.329C330.099 146.516 335.146 141.536 340.191 136.876C349.769 128.024 357.882 121.656 365.715 116.835C391.312 101.033 414.462 102.831 426.51 109.171L426.93 108.378C418.477 103.943 407.898 102.528 396.321 104.313C385.986 105.891 374.949 110.068 365.249 116.058C357.345 120.903 349.211 127.308 339.603 136.195C334.546 140.864 329.493 145.848 324.609 150.666C319.096 156.102 313.401 161.716 307.642 166.954C303.469 170.783 298.649 173.84 293.406 175.984C280.295 181.322 264.425 180.721 249.866 174.343C245.675 172.491 241.642 170.301 237.807 167.793C223.453 158.436 211.598 145.059 198.641 129.806C196.738 127.572 194.845 125.328 192.962 123.073C184.659 113.188 176.076 102.973 166.843 94.2037C155.87 83.8679 142.912 75.8674 128.754 70.6874C117.338 66.4301 106.583 63.8646 95.8838 62.8407C91.6144 62.4429 87.8214 62.2352 84.2823 62.2112C79.0199 62.1728 73.5957 61.9758 68.3388 61.8114L66.2431 61.7458C57.2658 61.3769 48.2735 61.7944 39.3692 62.9936C35.2132 63.5735 30.7859 64.4132 25.4035 65.6286C22.4317 66.2916 19.3991 67.0157 16.4676 67.7108C8.93256 69.5159 1.14644 71.366 -6.64387 72.4391C-28.706 75.4778 -50.5306 64.0489 -71.6364 53.0022C-83.3215 46.8942 -95.3545 40.587 -107.37 36.7335L-107.649 37.5959Z" fill="url(#paint28_radial_840_7912)"/>
<path d="M-107.939 39.735C-98.1426 43.3759 -88.2569 48.6043 -78.6969 53.6524C-56.4771 65.3948 -33.4957 77.5366 -9.30462 71.3368C-1.3139 69.292 6.73424 66.4042 14.5323 63.6174C22.0827 60.9167 29.8766 58.1241 37.5949 56.1005C82.3917 44.3594 128.092 58.1117 162.973 93.8208C171.605 102.659 179.823 112.565 187.755 122.145C205.461 143.492 223.759 165.559 247.403 176.511C269.388 186.692 291.753 183.998 307.236 169.298C313.36 163.485 319.376 157.214 325.216 151.147C337.679 138.172 350.565 124.76 364.948 115.329C381.24 104.658 407.207 95.9905 426.82 106.67L427.249 105.883C407.272 95.0117 380.939 103.772 364.462 114.579C349.993 124.067 337.071 137.519 324.571 150.528C318.753 156.589 312.732 162.854 306.627 168.65C300.931 174.06 279.849 190.549 247.783 175.716C224.332 164.857 206.087 142.864 188.444 121.594C180.485 111.999 172.254 102.075 163.601 93.2137C128.48 57.2622 82.4539 43.4259 37.3641 55.2507C29.6088 57.2835 21.7878 60.0868 14.2267 62.7908C6.45492 65.5718 -1.57678 68.4521 -9.53047 70.4878C-33.3775 76.6021 -56.2106 64.5457 -78.2811 52.8835C-87.8684 47.8158 -97.7771 42.5734 -107.628 38.9236L-107.939 39.735Z" fill="url(#paint29_radial_840_7912)"/>
<defs>
<radialGradient id="paint0_radial_840_7912" cx="0" cy="0" r="1" gradientUnits="userSpaceOnUse" gradientTransform="translate(145.408 175.258) rotate(-170.66) scale(270.111 38.2269)">
<stop stop-color="white"/>
<stop offset="1" stop-color="white" stop-opacity="0"/>
</radialGradient>
<radialGradient id="paint1_radial_840_7912" cx="0" cy="0" r="1" gradientUnits="userSpaceOnUse" gradientTransform="translate(145.679 172.326) rotate(-170.66) scale(270.161 42.3376)">
<stop stop-color="white"/>
<stop offset="1" stop-color="white" stop-opacity="0"/>
</radialGradient>
<radialGradient id="paint2_radial_840_7912" cx="0" cy="0" r="1" gradientUnits="userSpaceOnUse" gradientTransform="translate(145.946 169.429) rotate(-170.66) scale(270.206 46.5476)">
<stop stop-color="white"/>
<stop offset="1" stop-color="white" stop-opacity="0"/>
</radialGradient>
<radialGradient id="paint3_radial_840_7912" cx="0" cy="0" r="1" gradientUnits="userSpaceOnUse" gradientTransform="translate(146.214 166.537) rotate(-170.66) scale(270.251 50.8389)">
<stop stop-color="white"/>
<stop offset="1" stop-color="white" stop-opacity="0"/>
</radialGradient>
<radialGradient id="paint4_radial_840_7912" cx="0" cy="0" r="1" gradientUnits="userSpaceOnUse" gradientTransform="translate(146.477 163.661) rotate(-170.66) scale(270.298 55.1382)">
<stop stop-color="white"/>
<stop offset="1" stop-color="white" stop-opacity="0"/>
</radialGradient>
<radialGradient id="paint5_radial_840_7912" cx="0" cy="0" r="1" gradientUnits="userSpaceOnUse" gradientTransform="translate(146.747 160.781) rotate(-170.66) scale(270.343 59.4818)">
<stop stop-color="white"/>
<stop offset="1" stop-color="white" stop-opacity="0"/>
</radialGradient>
<radialGradient id="paint6_radial_840_7912" cx="0" cy="0" r="1" gradientUnits="userSpaceOnUse" gradientTransform="translate(147.009 157.91) rotate(-170.66) scale(270.391 63.8469)">
<stop stop-color="white"/>
<stop offset="1" stop-color="white" stop-opacity="0"/>
</radialGradient>
<radialGradient id="paint7_radial_840_7912" cx="0" cy="0" r="1" gradientUnits="userSpaceOnUse" gradientTransform="translate(147.278 155.066) rotate(-170.66) scale(270.441 68.2331)">
<stop stop-color="white"/>
<stop offset="1" stop-color="white" stop-opacity="0"/>
</radialGradient>
<radialGradient id="paint8_radial_840_7912" cx="0" cy="0" r="1" gradientUnits="userSpaceOnUse" gradientTransform="translate(147.545 152.161) rotate(-170.66) scale(270.489 72.5939)">
<stop stop-color="white"/>
<stop offset="1" stop-color="white" stop-opacity="0"/>
</radialGradient>
<radialGradient id="paint9_radial_840_7912" cx="0" cy="0" r="1" gradientUnits="userSpaceOnUse" gradientTransform="translate(147.819 149.296) rotate(-170.66) scale(270.539 76.9977)">
<stop stop-color="white"/>
<stop offset="1" stop-color="white" stop-opacity="0"/>
</radialGradient>
<radialGradient id="paint10_radial_840_7912" cx="0" cy="0" r="1" gradientUnits="userSpaceOnUse" gradientTransform="translate(148.07 146.44) rotate(-170.66) scale(270.574 81.4112)">
<stop stop-color="white"/>
<stop offset="1" stop-color="white" stop-opacity="0"/>
</radialGradient>
<radialGradient id="paint11_radial_840_7912" cx="0" cy="0" r="1" gradientUnits="userSpaceOnUse" gradientTransform="translate(148.34 143.563) rotate(-170.66) scale(270.624 85.7871)">
<stop stop-color="white"/>
<stop offset="1" stop-color="white" stop-opacity="0"/>
</radialGradient>
<radialGradient id="paint12_radial_840_7912" cx="0" cy="0" r="1" gradientUnits="userSpaceOnUse" gradientTransform="translate(148.582 140.718) rotate(-170.66) scale(270.646 90.2092)">
<stop stop-color="white"/>
<stop offset="1" stop-color="white" stop-opacity="0"/>
</radialGradient>
<radialGradient id="paint13_radial_840_7912" cx="0" cy="0" r="1" gradientUnits="userSpaceOnUse" gradientTransform="translate(148.866 137.818) rotate(-170.66) scale(270.712 94.603)">
<stop stop-color="white"/>
<stop offset="1" stop-color="white" stop-opacity="0"/>
</radialGradient>
<radialGradient id="paint14_radial_840_7912" cx="0" cy="0" r="1" gradientUnits="userSpaceOnUse" gradientTransform="translate(149.518 133.981) rotate(-170.66) scale(270.631 88.0708)">
<stop stop-color="white"/>
<stop offset="1" stop-color="white" stop-opacity="0"/>
</radialGradient>
<radialGradient id="paint15_radial_840_7912" cx="0" cy="0" r="1" gradientUnits="userSpaceOnUse" gradientTransform="translate(150.146 130.175) rotate(-170.66) scale(270.544 81.5242)">
<stop stop-color="white"/>
<stop offset="1" stop-color="white" stop-opacity="0"/>
</radialGradient>
<radialGradient id="paint16_radial_840_7912" cx="0" cy="0" r="1" gradientUnits="userSpaceOnUse" gradientTransform="translate(150.798 126.336) rotate(-170.66) scale(270.469 74.9523)">
<stop stop-color="white"/>
<stop offset="1" stop-color="white" stop-opacity="0"/>
</radialGradient>
<radialGradient id="paint17_radial_840_7912" cx="0" cy="0" r="1" gradientUnits="userSpaceOnUse" gradientTransform="translate(151.427 122.467) rotate(-170.66) scale(270.366 68.4323)">
<stop stop-color="white"/>
<stop offset="1" stop-color="white" stop-opacity="0"/>
</radialGradient>
<radialGradient id="paint18_radial_840_7912" cx="0" cy="0" r="1" gradientUnits="userSpaceOnUse" gradientTransform="translate(152.079 118.639) rotate(-170.66) scale(270.293 61.9143)">
<stop stop-color="white"/>
<stop offset="1" stop-color="white" stop-opacity="0"/>
</radialGradient>
<radialGradient id="paint19_radial_840_7912" cx="0" cy="0" r="1" gradientUnits="userSpaceOnUse" gradientTransform="translate(152.727 114.743) rotate(-170.66) scale(270.211 55.4253)">
<stop stop-color="white"/>
<stop offset="1" stop-color="white" stop-opacity="0"/>
</radialGradient>
<radialGradient id="paint20_radial_840_7912" cx="0" cy="0" r="1" gradientUnits="userSpaceOnUse" gradientTransform="translate(153.38 110.838) rotate(-170.66) scale(270.121 48.9515)">
<stop stop-color="white"/>
<stop offset="1" stop-color="white" stop-opacity="0"/>
</radialGradient>
<radialGradient id="paint21_radial_840_7912" cx="0" cy="0" r="1" gradientUnits="userSpaceOnUse" gradientTransform="translate(154.037 106.924) rotate(-170.66) scale(270.038 42.4965)">
<stop stop-color="white"/>
<stop offset="1" stop-color="white" stop-opacity="0"/>
</radialGradient>
<radialGradient id="paint22_radial_840_7912" cx="0" cy="0" r="1" gradientUnits="userSpaceOnUse" gradientTransform="translate(153.882 107.939) rotate(-170.66) scale(269.955 41.1135)">
<stop stop-color="white"/>
<stop offset="1" stop-color="white" stop-opacity="0"/>
</radialGradient>
<radialGradient id="paint23_radial_840_7912" cx="0" cy="0" r="1" gradientUnits="userSpaceOnUse" gradientTransform="translate(153.561 110.015) rotate(-170.66) scale(269.875 40.865)">
<stop stop-color="white"/>
<stop offset="1" stop-color="white" stop-opacity="0"/>
</radialGradient>
<radialGradient id="paint24_radial_840_7912" cx="0" cy="0" r="1" gradientUnits="userSpaceOnUse" gradientTransform="translate(153.226 112.055) rotate(-170.66) scale(269.775 40.6749)">
<stop stop-color="white"/>
<stop offset="1" stop-color="white" stop-opacity="0"/>
</radialGradient>
<radialGradient id="paint25_radial_840_7912" cx="0" cy="0" r="1" gradientUnits="userSpaceOnUse" gradientTransform="translate(153.203 112.224) rotate(-170.66) scale(269.7 42.4279)">
<stop stop-color="white"/>
<stop offset="1" stop-color="white" stop-opacity="0"/>
</radialGradient>
<radialGradient id="paint26_radial_840_7912" cx="0" cy="0" r="1" gradientUnits="userSpaceOnUse" gradientTransform="translate(153.243 111.922) rotate(-170.66) scale(269.625 44.7225)">
<stop stop-color="white"/>
<stop offset="1" stop-color="white" stop-opacity="0"/>
</radialGradient>
<radialGradient id="paint27_radial_840_7912" cx="0" cy="0" r="1" gradientUnits="userSpaceOnUse" gradientTransform="translate(153.296 111.595) rotate(-170.66) scale(269.56 47.0597)">
<stop stop-color="white"/>
<stop offset="1" stop-color="white" stop-opacity="0"/>
</radialGradient>
<radialGradient id="paint28_radial_840_7912" cx="0" cy="0" r="1" gradientUnits="userSpaceOnUse" gradientTransform="translate(153.329 111.362) rotate(-170.66) scale(269.489 49.3838)">
<stop stop-color="white"/>
<stop offset="1" stop-color="white" stop-opacity="0"/>
</radialGradient>
<radialGradient id="paint29_radial_840_7912" cx="0" cy="0" r="1" gradientUnits="userSpaceOnUse" gradientTransform="translate(153.359 111.09) rotate(-170.66) scale(269.414 51.791)">
<stop stop-color="white"/>
<stop offset="1" stop-color="white" stop-opacity="0"/>
</radialGradient>
</defs>
</svg>
