<svg width="720" height="250" fill="none" xmlns="http://www.w3.org/2000/svg"><path d="M714.501 152.822l-2.287.245c-43.789 4.637-89.069 9.499-128.001 36.97-3.155 2.226-6.349 4.564-9.444 6.83-12.398 9.075-25.181 18.455-38.859 23.119-23.856 8.134-48.375 1.391-69.282-6.287-13.592-4.995-27.236-10.963-40.423-16.733-18.045-7.896-36.706-16.064-55.459-21.86-38.515-11.825-70.747-10.904-98.54 2.828-8.701 4.3-19.429 13.037-30.788 22.291-13.074 10.685-26.599 21.675-37.169 25.736-26.871 10.248-48.276-4.723-70.939-20.622-8.33-5.829-16.938-11.857-26.149-16.912-2.368-1.298-4.74-2.605-7.117-3.921-32.173-17.793-65.44-36.189-99.892-31.843L0 151.483c34.837-4.372 68.302 14.11 100.62 31.996a778.628 778.628 0 007.111 3.922c9.277 5.087 17.892 11.135 26.255 16.978 22.398 15.679 43.557 30.472 69.839 20.462 10.397-3.974 23.856-14.918 36.845-25.51 11.411-9.274 22.193-18.078 31.013-22.437 28.077-13.864 60.594-14.812 99.401-2.894 18.826 5.783 37.514 13.964 55.585 21.86 13.18 5.763 26.798 11.725 40.363 16.706 20.682 7.605 45.002 14.296 68.487 6.274 13.473-4.598 26.216-13.912 38.541-22.954 3.102-2.265 6.302-4.637 9.463-6.836 39.184-27.65 84.617-32.499 128.559-37.182l2.286-.245.133 1.199z" fill="url(#paint0_radial_399_999)"/><path d="M714.792 143.678c-77.599 5.18-111.587 23.516-134.602 40.766-3.671 2.743-7.389 5.631-10.98 8.426-9.536 7.426-19.403 15.104-29.456 20.695a88.493 88.493 0 01-8.158 3.974c-14.068 5.962-29.456 7.499-47.05 4.637a89.296 89.296 0 01-23.087-7.015c-3.764-1.742-7.714-3.716-12.081-6.028-9.721-5.121-19.522-10.599-28.998-15.951l-6.362-3.577c-16.567-9.275-32.994-16.237-48.859-20.708-32.013-9.029-58.892-9.585-82.171-1.689a102.433 102.433 0 00-13.187 5.524c-8.324 4.227-18.482 12.52-29.238 21.298-12.849 10.492-26.135 21.343-36.659 25.271-26.016 9.784-46.804-4.69-68.878-20.058-8.071-5.617-16.408-11.42-25.307-16.289l-5.421-2.948c-11.385-6.214-23.16-12.639-34.943-17.886C42.577 150.104 20.65 145.626.351 148.03l-.14-1.172c20.544-2.431 42.65 2.073 69.628 14.182 11.822 5.3 23.624 11.732 35.029 17.952l5.421 2.955c8.952 4.895 17.322 10.725 25.413 16.355 21.782 15.13 42.351 29.459 67.785 19.9 10.344-3.869 23.551-14.653 36.328-25.08 10.808-8.824 21.013-17.15 29.449-21.443a104.044 104.044 0 0113.339-5.591c23.499-7.949 50.602-7.426 82.835 1.67 15.957 4.497 32.471 11.506 49.11 20.82l6.369 3.577c9.469 5.299 19.263 10.824 28.965 15.931 4.354 2.312 8.29 4.273 12.028 6.002a88.387 88.387 0 0022.782 6.929c17.362 2.848 32.537 1.325 46.387-4.538a87.794 87.794 0 008.045-3.974c9.94-5.551 19.801-13.202 29.304-20.595 3.598-2.796 7.289-5.691 11-8.44 41.258-30.929 91.509-38.083 135.232-40.998l.132 1.206z" fill="url(#paint1_radial_399_999)"/><path d="M715.071 134.544c-57.765 1.682-103.205 16.176-138.916 44.316a824.131 824.131 0 00-12.439 10.116c-9.224 7.618-18.76 15.501-28.362 21.562a110.835 110.835 0 01-8.091 4.637c-14.473 7.406-29.88 10.221-47.097 8.611a60.478 60.478 0 01-23.869-7.187c-3.592-1.987-7.289-4.253-11.882-7.287-8.787-5.816-17.66-11.923-26.242-17.885l-8.038-5.552a161.497 161.497 0 00-50.555-23.224c-31.914-8.248-57.156-8.446-79.435-.623a97.37 97.37 0 00-12.703 5.472c-7.999 4.153-17.627 12.036-27.832 20.389-12.591 10.301-25.573 20.946-36.023 24.762-25.122 9.274-45.294-4.637-66.645-19.442-7.866-5.439-16.004-11.07-24.672-15.76l-2.253-1.219c-12.697-6.862-25.81-13.95-39.005-19.541-27.057-11.454-49.448-15.707-70.455-13.368l-.133-1.179c21.206-2.359 43.796 1.914 71.052 13.454 13.254 5.591 26.388 12.718 39.098 19.608l2.26 1.219c8.72 4.716 16.884 10.367 24.777 15.825 21.093 14.574 41.013 28.372 65.565 19.303 10.258-3.749 23.193-14.328 35.671-24.563 10.252-8.393 19.927-16.322 28.032-20.535a99.416 99.416 0 0112.855-5.545c22.531-7.902 47.978-7.717 80.131.597a162.685 162.685 0 0150.933 23.397l8.058 5.557c8.575 5.962 17.442 12.063 26.222 17.886 4.599 3.047 8.237 5.3 11.802 7.287a59.317 59.317 0 0023.412 6.929c16.985 1.59 32.18-1.179 46.447-8.479 2.651-1.325 5.302-2.888 7.992-4.571 9.536-6.015 19.045-13.871 28.243-21.469 4.069-3.359 8.277-6.837 12.458-10.136 35.917-28.299 81.589-42.879 139.619-44.568l.02 1.206z" fill="url(#paint2_radial_399_999)"/><path d="M715.388 124.217v1.186c-38.627-.245-94.835 7.869-143.236 47.874-4.838 3.974-9.695 8.234-14.387 12.327-8.747 7.632-17.793 15.521-26.785 21.9a123.98 123.98 0 01-8.012 5.24c-14.923 8.937-30.344 13.05-47.149 12.587-9.384-.265-17.68-2.697-24.672-7.234a144.275 144.275 0 01-11.683-8.612c-6.871-5.511-13.79-11.261-20.489-16.819-4.211-3.476-8.447-6.98-12.71-10.513A129.906 129.906 0 00354 156.418c-31.656-7.479-55.314-7.34-76.711.45a95.08 95.08 0 00-12.233 5.412c-7.654 4.074-16.766 11.553-26.415 19.469-12.292 10.096-25.009 20.536-35.373 24.252-24.294 8.737-43.849-4.684-64.544-18.893-7.628-5.233-15.507-10.645-23.857-15.143l-.384-.205c-13.598-7.287-27.653-14.852-41.788-20.483C45.366 140.42 22.517 136.373.762 138.645l-.126-1.186c21.94-2.285 44.982 1.762 72.47 12.732 14.2 5.657 28.289 13.249 41.907 20.535l.384.206c8.436 4.531 16.349 9.936 23.996 15.236 20.443 14.036 39.76 27.292 63.477 18.76 10.172-3.657 22.803-14.031 35.023-24.053 9.688-7.949 18.846-15.468 26.606-19.602a95.622 95.622 0 0112.372-5.485c21.636-7.876 45.506-8.022 77.394-.49a131.085 131.085 0 0152.748 25.974c4.277 3.507 8.516 7.011 12.717 10.513 6.693 5.558 13.611 11.301 20.47 16.812 3.068 2.465 7.157 5.658 11.584 8.533 6.832 4.392 14.903 6.756 24.061 7.015 16.567.457 31.809-3.604 46.507-12.421a120.267 120.267 0 007.952-5.187c8.946-6.339 17.965-14.215 26.692-21.827 4.699-4.1 9.563-8.34 14.413-12.348 48.654-40.236 105.153-48.39 143.979-48.145z" fill="url(#paint3_radial_399_999)"/><path d="M715.733 115.076l-.046 1.186a212.157 212.157 0 00-147.558 51.424c-5.652 4.882-11.265 10.056-16.725 15.064-8.509 7.817-16.567 15.236-24.818 21.721a154.011 154.011 0 01-7.952 5.856c-15.38 10.599-30.814 15.998-47.195 16.561-9.854.344-18.416-2.12-25.453-7.333a121.26 121.26 0 01-11.478-9.891c-5.401-5.153-10.835-10.486-16.09-15.646-5.255-5.16-10.602-10.407-16.023-15.587a112.118 112.118 0 00-53.981-28.253c-20.762-4.458-47.932-8.313-74.021 1.504a90.719 90.719 0 00-11.749 5.359c-7.29 3.974-15.904 11.056-24.956 18.548-12.028 9.903-24.466 20.145-34.771 23.768-23.445 8.241-42.411-4.637-62.444-18.343-7.382-5.028-15.016-10.234-23.1-14.573-13.174-7.022-28.111-14.984-43.074-20.589-27.097-10.155-51.06-14.043-73.338-11.89l-.113-1.179c22.432-2.186 46.6 1.742 73.888 12.003 15.043 5.637 30.013 13.613 43.22 20.655 8.144 4.338 15.804 9.558 23.193 14.573 19.794 13.5 38.502 26.246 61.384 18.204 10.105-3.551 22.458-13.726 34.406-23.563 9.125-7.512 17.746-14.613 25.142-18.661a92.85 92.85 0 0111.928-5.432c26.348-9.936 53.742-6.068 74.656-1.57a113.256 113.256 0 0154.552 28.551c5.434 5.187 10.821 10.48 16.036 15.6 5.216 5.121 10.683 10.493 16.077 15.634a120.457 120.457 0 0011.358 9.81c6.905 5.121 14.99 7.446 24.704 7.102 16.143-.563 31.378-5.916 46.566-16.356a142.385 142.385 0 007.88-5.809c8.237-6.492 16.255-13.865 24.75-21.668 5.448-5.015 11.087-10.195 16.753-15.084a213.316 213.316 0 01148.392-51.696z" fill="url(#paint4_radial_399_999)"/><path d="M716.065 105.934l-.087 1.185c-53.418-3.795-108.777 16.25-151.884 54.982-6.627 5.962-13.194 12.308-19.536 18.442-7.7 7.446-14.97 14.475-22.372 20.9a183.923 183.923 0 01-7.879 6.465c-15.838 12.322-31.291 19.045-47.235 20.536-10.305.974-19.132-1.524-26.236-7.433a107.908 107.908 0 01-11.265-11.181c-4.506-5.022-9.032-10.209-13.406-15.236-5.705-6.552-11.61-13.329-17.627-19.913-14.506-15.852-33.796-26.497-55.704-30.757-38.329-7.459-58.223-2.537-71.271 2.584a89.008 89.008 0 00-11.265 5.299c-6.945 3.908-14.99 10.559-23.512 17.601-11.756 9.718-23.916 19.767-34.161 23.284-22.603 7.751-40.94-4.637-60.356-17.792-7.137-4.823-14.512-9.818-22.306-13.912-15.486-8.194-29.488-15.394-43.981-20.495-27.27-9.639-51.735-13.322-74.816-11.209l-.106-1.185c23.253-2.113 47.885 1.576 75.306 11.261 14.579 5.134 28.614 12.354 44.148 20.535 7.846 4.154 15.241 9.162 22.411 14.004 19.165 12.964 37.262 25.173 59.309 17.647 10.04-3.444 22.114-13.42 33.797-23.072 8.561-7.075 16.646-13.759 23.684-17.72a89.524 89.524 0 0111.418-5.372c13.193-5.187 33.299-10.169 71.926-2.65 22.193 4.319 41.676 15.077 56.327 31.134 6.031 6.591 11.928 13.368 17.647 19.926 4.374 5.015 8.893 10.202 13.393 15.236 3.445 3.95 7.17 7.647 11.146 11.063 6.951 5.776 15.242 8.114 25.367 7.16 15.904-1.503 30.748-7.949 46.619-20.303a163.669 163.669 0 007.826-6.426c7.383-6.405 14.645-13.427 22.326-20.853 6.355-6.127 12.982-12.474 19.608-18.449 43.333-38.944 99.01-59.095 152.747-55.286z" fill="url(#paint5_radial_399_999)"/><path d="M716.396 96.793l-.112 1.18c-53.564-5.393-110.554 15.951-156.212 58.545-7.84 7.287-15.533 15.13-22.969 22.688-6.66 6.77-12.948 13.17-19.317 19.211a244.973 244.973 0 01-7.806 7.088c-16.5 14.355-31.53 22.145-47.288 24.51-10.702 1.63-19.808-.908-27.004-7.519a102.787 102.787 0 01-11.067-12.473c-3.976-5.101-7.952-10.374-11.769-15.468-5.851-7.777-11.928-15.819-18.184-23.569-18.097-22.371-41.218-30.472-57.427-33.274-20.642-3.611-44.929-5.962-68.547 3.656a86.674 86.674 0 00-10.788 5.247c-6.587 3.815-14.102 10.062-22.061 16.667-11.484 9.532-23.352 19.389-33.551 22.794-21.762 7.287-39.502-4.637-58.282-17.223-6.885-4.637-14.002-9.4-21.49-13.329-15.076-7.916-29.82-15.434-44.896-20.409-27.342-9.102-52.285-12.54-76.254-10.513l-.1-1.179c24.135-2.04 49.237 1.411 76.738 10.553 15.122 5.001 29.946 12.539 45.062 20.482 7.548 3.975 14.691 8.757 21.603 13.394 18.555 12.434 36.036 24.179 57.242 17.104 9.986-3.312 21.775-13.122 33.173-22.582 7.998-6.624 15.553-12.917 22.219-16.779a87.25 87.25 0 0110.941-5.3c23.896-9.764 48.375-7.359 69.197-3.729 16.407 2.868 39.813 11.042 58.143 33.704 6.288 7.764 12.352 15.812 18.21 23.603 3.837 5.087 7.799 10.353 11.762 15.448 3.3 4.402 6.957 8.526 10.934 12.327 6.912 6.36 15.666 8.791 26.023 7.228 15.52-2.345 30.358-10.05 46.686-24.245a228.354 228.354 0 007.766-7.055c6.349-6.022 12.637-12.408 19.291-19.171 7.442-7.598 15.129-15.422 23.001-22.748 45.937-42.833 103.211-64.289 157.133-58.864z" fill="url(#paint6_radial_399_999)"/><path d="M716.733 87.657l-.152 1.172c-53.126-6.836-113.145 16.376-160.552 62.103-9.357 9.029-18.423 18.727-27.17 28.107-5.341 5.711-10.384 11.109-15.467 16.343a324.567 324.567 0 01-7.74 7.697c-17.15 16.521-31.742 25.312-47.328 28.485-11.146 2.285-20.49-.285-27.772-7.625-4.208-4.246-7.707-9.122-10.862-13.759-3.605-5.299-7.203-10.791-10.675-16.09-5.819-8.883-11.842-18.071-18.191-26.848-13.982-19.33-34.996-32.042-59.157-35.772-19.833-3.08-43.166-4.928-65.83 4.723a83.327 83.327 0 00-10.304 5.2c-6.223 3.717-13.214 9.553-20.623 15.727-11.199 9.353-22.782 19.018-32.941 22.31-20.914 6.784-38.057-4.637-56.208-16.693-6.627-4.412-13.492-8.976-20.675-12.719-15.242-7.949-30.265-15.494-45.798-20.316-27.368-8.539-52.788-11.732-77.711-9.778l-.093-1.186c25.082-1.987 50.641 1.252 78.156 9.831 15.632 4.849 30.675 12.414 45.996 20.396 7.236 3.769 14.121 8.353 20.781 12.785 17.892 11.924 34.817 23.185 55.188 16.561 9.94-3.226 21.43-12.818 32.55-22.092 7.435-6.207 14.466-12.076 20.768-15.839a84.415 84.415 0 0110.457-5.3c22.929-9.77 46.467-7.916 66.466-4.809 24.479 3.803 45.771 16.68 59.939 36.268 6.362 8.804 12.392 17.999 18.224 26.888 3.472 5.3 7.064 10.778 10.662 16.078 3.121 4.59 6.58 9.419 10.722 13.593 6.985 7.041 15.964 9.492 26.693 7.287 15.347-3.147 29.767-11.845 46.745-28.2a311.248 311.248 0 007.706-7.671c5.076-5.227 10.119-10.599 15.454-16.322 8.774-9.387 17.852-19.098 27.236-28.154 47.646-45.933 108.022-69.27 161.506-62.381z" fill="url(#paint7_radial_399_999)"/><path d="M717.059 78.515l-.179 1.172c-53.584-8.326-115.219 16.217-164.827 65.66-11.318 11.262-22.093 23.424-32.51 35.182a3723.796 3723.796 0 01-10.524 11.818 435.608 435.608 0 01-7.673 8.314c-12.538 13.248-27.972 27.51-47.375 32.459-11.557 2.954-21.152.357-28.528-7.724-4.188-4.584-7.594-9.937-10.656-15.044-3.36-5.611-6.68-11.394-9.894-16.991-5.685-9.937-11.563-20.138-17.892-29.843-13.869-21.224-35.519-34.831-60.919-38.289-17.859-2.431-41.166-3.974-63.1 5.797a80.302 80.302 0 00-9.834 5.14c-5.852 3.61-12.326 9.042-19.178 14.799-10.914 9.161-22.206 18.641-32.325 21.82-20.079 6.3-36.633-4.637-54.154-16.156-6.375-4.2-12.968-8.552-19.88-12.103-14.87-7.691-30.735-15.587-46.705-20.224-26.905-7.87-53.538-10.917-79.13-9.055l-.086-1.186c25.732-1.868 52.51 1.192 79.574 9.102 16.076 4.67 31.994 12.586 46.917 20.31 6.932 3.584 13.552 7.949 19.96 12.169 17.282 11.387 33.597 22.145 53.139 16.011 9.901-3.107 21.093-12.507 31.921-21.596 6.886-5.783 13.393-11.261 19.317-14.904a83.57 83.57 0 019.947-5.214c22.206-9.883 45.725-8.333 63.743-5.889 25.751 3.505 47.672 17.303 61.728 38.845 6.348 9.738 12.233 19.986 17.892 29.902 3.214 5.591 6.534 11.374 9.887 16.972 3.022 5.054 6.388 10.347 10.51 14.858 7.057 7.731 16.262 10.208 27.362 7.367 19.111-4.896 34.386-18.999 46.804-32.142 2.532-2.649 5.11-5.471 7.654-8.3 3.459-3.842 6.965-7.797 10.517-11.804 10.43-11.772 21.205-23.947 32.557-35.242 49.972-49.702 111.985-74.378 165.94-65.991z" fill="url(#paint8_radial_399_999)"/><path d="M717.396 69.374l-.212 1.173c-54.154-9.784-117.419 16.09-169.194 69.211-13.916 14.275-26.858 29.756-39.369 44.72l-4.042 4.836a746.594 746.594 0 01-7.601 8.93c-13.426 15.514-28.495 30.664-47.421 36.433-11.961 3.65-21.815 1.021-29.29-7.81-4.175-4.935-7.488-10.764-10.437-16.335-3.161-5.962-6.269-12.096-9.278-18.045-5.493-10.864-11.172-22.099-17.441-32.691-13.751-23.185-35.99-37.719-62.63-40.832-16.991-1.987-39.203-3.001-60.376 6.863a78.893 78.893 0 00-9.35 5.087c-5.48 3.491-11.438 8.532-17.74 13.865-10.603 8.982-21.616 18.27-31.709 21.33-19.217 5.836-35.208-4.584-52.106-15.613-6.116-3.975-12.445-8.122-19.005-11.487-15.116-7.75-31.245-15.686-47.613-20.131a243.583 243.583 0 00-80.601-8.314l-.08-1.186a245.03 245.03 0 0180.979 8.38c16.474 4.478 32.67 12.447 47.838 20.224 6.627 3.392 12.975 7.539 19.118 11.546 16.66 10.878 32.399 21.145 51.112 15.475 9.861-2.988 20.749-12.202 31.285-21.105 6.335-5.359 12.326-10.42 17.892-13.958a78.825 78.825 0 019.49-5.16c21.437-9.989 43.869-8.969 61.012-6.969 27.011 3.153 49.568 17.886 63.511 41.409 6.289 10.599 11.974 21.86 17.474 32.764 3.002 5.962 6.11 12.076 9.278 18.018 2.922 5.511 6.196 11.261 10.298 16.13 7.137 8.433 16.567 10.937 28.031 7.439 18.674-5.71 33.551-20.714 46.864-36.096a805.902 805.902 0 007.588-8.916l4.042-4.836c12.525-14.984 25.48-30.472 39.429-44.787 52.06-53.405 115.709-79.412 170.254-69.562z" fill="url(#paint9_radial_399_999)"/><path d="M717.721 60.267l-.238 1.16c-54.803-11.216-119.679 15.99-173.528 72.781-15.857 16.726-30.324 34.916-43.789 52.113-2.492 3.18-5.01 6.379-7.535 9.546-12.716 15.951-27.925 33.545-47.467 40.408-12.359 4.352-22.465 1.696-30.039-7.896-4.161-5.3-7.375-11.586-10.232-17.621-2.988-6.333-5.911-12.871-8.734-19.21-5.301-11.805-10.715-24.007-16.898-35.44-13.644-25.246-36.506-40.647-64.365-43.357-23.856-2.325-41.662.12-57.653 7.95a76.283 76.283 0 00-8.873 5.027c-5.103 3.366-10.55 8.009-16.315 12.931-10.324 8.804-21.007 17.886-31.086 20.847-18.402 5.359-33.796-4.564-50.058-15.077-5.858-3.783-11.928-7.691-18.164-10.864-15.374-7.817-31.808-15.806-48.521-20.045a265.626 265.626 0 00-82.059-7.618l-.073-1.186a266.977 266.977 0 0182.437 7.638c16.852 4.273 33.332 12.288 48.766 20.138 6.302 3.199 12.385 7.128 18.27 10.93 16.043 10.36 31.198 20.145 49.084 14.931 9.834-2.868 20.417-11.884 30.649-20.615 5.791-4.935 11.265-9.605 16.427-13.016a77.445 77.445 0 019.013-5.101c16.189-7.916 34.167-10.4 58.282-8.049 28.289 2.749 51.483 18.369 65.293 43.972 6.203 11.474 11.656 23.696 16.938 35.52 2.816 6.32 5.732 12.851 8.721 19.211 2.823 5.961 5.997 12.208 10.092 17.388 7.223 9.122 16.885 11.646 28.714 7.486 19.217-6.77 34.313-24.219 46.93-40.044 2.525-3.167 5.043-6.359 7.528-9.539 13.479-17.223 27.972-35.434 43.863-52.193 54.133-57.095 119.413-84.434 174.62-73.106z" fill="url(#paint10_radial_399_999)"/><path d="M718.059 51.098l-.265 1.16c-55.532-12.633-122.018 15.898-177.862 76.338-13.571 14.693-27.169 31.552-44.167 54.664l-1.749 2.385c-1.895 2.587-3.802 5.18-5.719 7.777-13.492 18.276-28.276 36.764-47.514 44.382-12.591 4.989-23.193 2.233-30.788-7.988-4.214-5.697-7.289-12.454-10.019-18.906-2.929-6.909-5.752-14.05-8.482-20.96-4.951-12.533-10.073-25.497-16.07-37.579-13.366-26.935-37.461-43.661-66.102-45.88-22.173-1.723-39.628 1.139-54.922 9.002a73.6 73.6 0 00-8.396 4.975c-4.719 3.233-9.662 7.485-14.891 11.99-10.019 8.612-20.383 17.561-30.483 20.37-17.574 4.895-32.364-4.545-48.03-14.541-5.593-3.57-11.385-7.286-17.309-10.247-15.652-7.89-32.365-15.932-49.422-19.96-26.202-6.213-54.293-8.532-83.497-6.895l-.066-1.18c29.33-1.65 57.54.663 83.848 6.923 17.183 4.061 33.968 12.129 49.7 20.052 5.964 3.014 11.789 6.723 17.409 10.307 15.433 9.85 30.012 19.151 47.049 14.395 9.828-2.736 20.086-11.573 30.006-20.118 5.255-4.531 10.225-8.804 14.99-12.076a76.946 76.946 0 018.542-5.035c15.5-7.949 33.133-10.864 55.558-9.128 29.072 2.259 53.518 19.21 67.076 46.542 6.017 12.129 11.146 25.113 16.103 37.666 2.73 6.903 5.547 14.037 8.476 20.933 2.683 6.392 5.738 13.07 9.88 18.667 7.289 9.877 17.23 12.427 29.396 7.585 18.946-7.519 33.604-25.835 46.997-43.999 1.913-2.592 3.819-5.184 5.719-7.777l1.749-2.384c16.998-23.146 30.642-40.038 44.254-54.764 56.135-60.751 123.051-89.421 179.001-76.696z" fill="url(#paint11_radial_399_999)"/><path d="M718.383 41.962l-.291 1.153C661.619 29.032 593.509 58.9 535.896 123.01c-14.26 15.766-28.832 34.479-44.544 57.221l-5.077 7.386-2.326 3.391c-14.221 20.721-28.561 40.011-47.56 48.358-12.968 5.703-23.856 2.915-31.53-8.075-4.201-6.022-7.196-13.249-9.807-20.191-2.777-7.287-5.414-14.832-7.952-22.125-4.718-13.461-9.589-27.385-15.507-40.316-13.286-29.054-38.017-46.701-67.844-48.404-20.742-1.192-37.329 1.988-52.192 10.069a73.438 73.438 0 00-7.952 4.915c-4.321 3.087-8.761 6.963-13.466 11.063-9.708 8.459-19.741 17.223-29.82 19.873-16.733 4.445-30.947-4.518-46.003-13.997-5.301-3.359-10.841-6.836-16.441-9.632-15.957-7.949-32.988-16.064-50.363-19.873-26.063-5.737-53.849-7.757-84.955-6.174l-.06-1.186c31.212-1.59 59.104.444 85.267 6.201 17.488 3.835 34.591 11.963 50.615 19.966 5.652 2.822 11.192 6.313 16.567 9.684 14.824 9.341 28.826 18.164 45.061 13.858 9.814-2.603 19.748-11.261 29.35-19.627 4.725-4.121 9.191-8.016 13.558-11.129a76.312 76.312 0 018.058-4.982c15.07-8.161 31.855-11.407 52.829-10.208 30.284 1.736 55.379 19.628 68.858 49.1 5.964 12.977 10.822 26.927 15.546 40.408 2.552 7.287 5.189 14.819 7.953 22.099 2.584 6.856 5.546 14.01 9.668 19.932 9.218 13.249 21.451 11.467 30.085 7.665 18.714-8.234 32.935-27.379 47.05-47.954l2.326-3.392c1.703-2.477 3.393-4.948 5.083-7.386 15.738-22.787 30.344-41.541 44.637-57.346 57.925-64.428 126.472-94.43 183.375-80.24z" fill="url(#paint12_radial_399_999)"/><path d="M718.715 32.822l-.304 1.146C661.136 18.5 591.403 49.701 531.875 117.435c-15.063 17.024-30.185 37.155-44.923 59.771-2.313 3.55-4.639 7.167-6.958 10.797l-.384.597c-12.141 18.958-27.249 42.541-47.6 52.332-16.878 8.128-26.872.053-32.279-8.148-4.188-6.36-7.084-14.077-9.596-21.476-2.65-7.684-5.089-15.634-7.481-23.318-4.466-14.388-9.085-29.259-14.91-43.025-13.254-31.253-38.588-49.821-69.581-50.934-19.025-.663-35.201 2.954-49.475 11.135a73.573 73.573 0 00-7.429 4.863c-3.923 2.921-7.879 6.419-12.06 10.122-9.384 8.293-19.079 16.872-29.158 19.402-15.904 3.975-30.171-4.882-43.975-13.467-5.063-3.147-10.298-6.399-15.579-9.009-16.276-8.049-33.644-16.203-51.245-19.774-25.785-5.24-53.239-6.982-86.446-5.458l-.06-1.18c33.313-1.53 60.86.213 86.698 5.479 17.74 3.597 35.182 11.791 51.536 19.873 5.302 2.65 10.603 5.902 15.673 9.062 14.221 8.843 27.653 17.19 43.073 13.328 9.821-2.464 19.41-10.943 28.681-19.144 4.208-3.723 8.177-7.241 12.14-10.188a75.019 75.019 0 017.568-4.942c14.459-8.287 30.854-11.983 50.098-11.261 31.477 1.132 57.228 19.959 70.641 51.669 5.845 13.819 10.47 28.723 14.95 43.131 2.385 7.684 4.85 15.62 7.475 23.291 2.478 7.327 5.347 14.965 9.463 21.198 9.323 14.15 21.868 12.023 30.768 7.744 20.052-9.652 35.062-33.082 47.122-51.908l.378-.596c2.333-3.637 4.639-7.287 6.965-10.805 14.777-22.675 29.926-42.826 45.061-59.917 59.793-68.11 129.971-99.47 187.689-83.857z" fill="url(#paint13_radial_399_999)"/><path d="M719.046 23.687l-.331 1.14c-58.103-16.846-129.46 15.686-190.85 87.023a480.658 480.658 0 00-45.327 62.355 823.211 823.211 0 00-6.871 11.34l-.398.663c-12.876 21.463-27.461 45.794-47.653 56.307-13.552 7.061-25.274 4.133-33.014-8.241-4.182-6.684-6.985-14.885-9.384-22.755-2.485-8.095-4.791-16.461-7.017-24.556-4.215-15.289-8.569-31.101-14.301-45.708-12.975-33.042-39.641-53.034-71.33-53.471-17.316-.232-33.041 3.868-46.738 12.208a71.38 71.38 0 00-6.972 4.81c-3.518 2.729-6.991 5.862-10.675 9.174-9.033 8.135-18.376 16.561-28.495 18.933-15.063 3.537-28.734-4.836-41.954-12.924-4.798-2.942-9.755-5.962-14.705-8.393-16.653-8.135-34.373-16.35-52.199-19.688-25.181-4.736-52.278-6.194-87.85-4.736l-.046-1.186c35.665-1.464 62.84 0 88.135 4.756 17.958 3.365 35.784 11.619 52.457 19.787 5.003 2.444 9.987 5.498 14.804 8.446 13.022 7.949 26.507 16.21 41.086 12.785 9.847-2.312 19.078-10.599 27.998-18.661 3.698-3.312 7.19-6.472 10.742-9.234a74.62 74.62 0 017.077-4.882c13.916-8.453 29.821-12.62 47.375-12.381 32.146.444 59.236 20.701 72.397 54.22 5.752 14.646 10.112 30.472 14.333 45.814 2.234 8.081 4.533 16.441 7.012 24.51 2.379 7.79 5.148 15.898 9.277 22.469 9.436 15.091 22.319 12.587 31.457 7.824 19.88-10.361 34.393-34.539 47.182-55.87l.405-.662c2.253-3.756 4.579-7.638 6.878-11.354a481.95 481.95 0 0145.413-62.481c61.708-71.695 133.515-104.36 192.082-87.381z" fill="url(#paint14_radial_399_999)"/><path d="M719.371 14.558l-.351 1.132c-58.978-18.216-131.945 15.647-195.203 90.588a459.545 459.545 0 00-45.685 64.918c-2.359 4.021-4.639 8.095-7.21 12.626l-.391.663c-13.386 23.781-27.236 48.357-47.308 59.619-13.95 7.796-25.937 4.835-33.757-8.334-3.923-6.571-6.501-14.361-9.165-24.033-2.345-8.506-4.493-17.303-6.573-25.835-3.976-16.196-8.039-32.936-13.665-48.357-12.935-35.387-40.257-56.307-73.073-56.002a81.232 81.232 0 00-44.014 13.248 74.083 74.083 0 00-6.495 4.757c-3.101 2.53-6.255 5.432-9.277 8.24-8.681 7.949-17.654 16.237-27.832 18.456-14.228 3.093-27.296-4.776-39.94-12.388-4.526-2.722-9.204-5.544-13.83-7.777-17.7-8.558-35.081-16.5-53.06-19.601-30.523-5.3-60.966-5.041-89.302-4.008l-.04-1.186c28.41-1.033 58.919-1.258 89.541 4.028 18.131 3.127 35.599 11.102 53.378 19.701 4.639 2.259 9.377 5.087 13.917 7.83 12.445 7.485 25.307 15.236 39.097 12.241 9.874-2.153 18.727-10.294 27.289-18.17 3.062-2.815 6.229-5.73 9.364-8.287a76.62 76.62 0 016.626-4.83 82.368 82.368 0 0144.572-13.44 72.015 72.015 0 0142.954 13.692c13.731 9.857 24.519 24.769 31.239 43.112 5.652 15.467 9.748 32.24 13.704 48.463 2.074 8.499 4.221 17.29 6.567 25.775 2.651 9.586 5.182 17.29 9.039 23.748 5.261 8.864 15.109 17.429 32.159 7.897 19.781-11.056 33.545-35.493 46.851-59.129l.391-.662c2.551-4.538 4.858-8.612 7.217-12.646a460.92 460.92 0 0145.79-65.104C586.512 30.184 659.93-3.818 719.371 14.558z" fill="url(#paint15_radial_399_999)"/><path d="M719.709 5.41l-.364 1.126c-86.512-28.293-189.041 59.877-245.613 161.593-2.764 4.969-5.56 10.248-8.264 15.349-13.088 24.682-26.606 50.206-46.612 62.136-7.137 4.253-14.069 5.671-20.026 4.094-5.746-1.517-10.603-5.723-14.467-12.507-3.936-6.929-6.427-15.13-8.952-25.318-2.214-8.923-4.208-18.151-6.13-27.08-3.691-17.084-7.501-34.751-13.035-50.968-12.716-37.281-41.384-59.711-74.809-58.532-14.413.51-28.309 5.332-41.291 14.335-4.851 3.358-9.49 7.724-14.016 11.997-8.296 7.843-16.878 15.944-27.129 17.978-13.393 2.65-25.845-4.71-37.925-11.838-4.255-2.517-8.655-5.114-12.949-7.167-18.131-8.652-35.897-16.654-53.975-19.509-30.072-4.743-60.084-4.266-90.746-3.312l-.04-1.186c30.722-.974 60.8-1.457 90.972 3.312 18.237 2.882 36.089 10.924 54.299 19.615 4.341 2.073 8.761 4.683 13.042 7.214 11.868 7.015 24.141 14.269 37.109 11.698 9.941-1.987 18.37-9.936 26.547-17.68 4.526-4.273 9.211-8.698 14.128-12.11 13.174-9.134 27.276-14.03 41.921-14.573 33.975-1.192 63.087 21.543 75.982 59.334 5.553 16.283 9.37 33.983 13.068 51.107 1.922 8.916 3.91 18.131 6.123 27.04 2.505 10.089 4.964 18.211 8.834 25.021 3.644 6.518 8.283 10.545 13.717 11.983 5.646 1.49 12.253.119 19.118-3.975 19.741-11.758 33.187-37.129 46.182-61.672 2.703-5.107 5.507-10.387 8.277-15.368C529.522 65.407 632.581-23.088 719.709 5.41z" fill="url(#paint16_radial_399_999)"/><path d="M719.576 8.263l-.344 1.133c-31.013-9.46-65.446-4.637-102.337 14.216-32.358 16.56-65.446 43.667-95.69 78.372a431.386 431.386 0 00-43.18 58.837c-2.862 4.69-5.758 9.685-8.555 14.507-2.458 4.233-4.996 8.612-7.568 12.872-10.516 17.541-22.504 35.022-38.607 44.025-13.916 7.816-25.884 4.955-33.796-8.075-4.261-7.015-7.025-15.554-9.384-23.742s-4.572-16.766-6.693-24.987c-4.121-15.991-8.389-32.532-14.148-47.649-13.379-35.108-41.503-55.465-73.411-53.127-14.161 1.04-28.23 6.426-41.808 16.011-4.857 3.438-9.542 7.79-14.075 12.004-8.681 8.061-17.653 16.401-28.27 18.733-4.39.936-8.923.984-13.333.139-9.595-1.722-18.985-6.955-28.07-12.016-3.658-2.04-7.442-4.147-11.12-5.962-4.281-2.093-8.575-4.246-12.849-6.386l-1.816-.907c-11.405-5.65-24.983-11.865-39.19-15.05a287.868 287.868 0 00-30.483-5.102 357.048 357.048 0 00-61.337-1.63l-.067-1.178a358.092 358.092 0 0161.543 1.643 290.106 290.106 0 0130.576 5.12c14.333 3.22 27.991 9.466 39.462 15.15l1.815.907c4.275 2.14 8.562 4.286 12.843 6.38 3.704 1.815 7.501 3.928 11.173 5.962 8.999 5.014 18.303 10.201 27.706 11.884a32.39 32.39 0 0012.863-.126c10.304-2.266 19.157-10.487 27.719-18.442 4.559-4.24 9.278-8.612 14.201-12.103 13.757-9.718 28.025-15.176 42.411-16.23 32.471-2.378 61.033 18.27 74.604 53.889 5.785 15.183 10.059 31.751 14.188 47.775 2.12 8.221 4.314 16.713 6.686 24.954 2.333 8.108 5.07 16.56 9.278 23.456 5.301 8.771 15.241 17.224 32.206 7.658 15.904-8.877 27.739-26.199 38.176-43.601a820.684 820.684 0 007.555-12.858c2.803-4.829 5.699-9.824 8.568-14.527a432.687 432.687 0 0143.299-58.996c30.337-34.805 63.544-62.004 96.015-78.638C653.528 3.52 688.258-1.289 719.576 8.263z" fill="url(#paint17_radial_399_999)"/><path d="M719.457 11.113l-.325 1.14c-55.817-15.72-126.464 16.269-193.825 87.759a420.66 420.66 0 00-42.974 53.504c-2.976 4.412-5.964 9.115-8.907 13.666-2.379 3.71-4.837 7.552-7.322 11.301-10.543 16.038-22.485 32.022-38.349 40.349-17.276 9.069-27.541.801-33.134-7.737-4.373-6.704-7.408-14.971-9.807-22.172-2.512-7.518-4.884-15.236-7.17-22.701-4.586-14.958-9.331-30.426-15.361-44.516-14.035-32.823-41.629-51.106-72.006-47.695-13.916 1.55-28.137 7.499-42.318 17.687-4.851 3.491-9.563 7.803-14.115 11.97-9.052 8.267-18.429 16.879-29.436 19.529a36.355 36.355 0 01-13.618.556c-10.914-1.504-21.69-7.247-32.107-12.798-2.776-1.477-5.652-3.014-8.442-4.412-4.361-2.179-9.079-4.67-14.837-7.85-11.359-6.266-24.864-13.248-38.906-17.329a272.247 272.247 0 00-30.35-6.995c-21.206-3.657-42.849-4.75-62.497-3.16l-.093-1.186c19.741-1.596 41.457-.497 62.795 3.18a275.313 275.313 0 0130.483 7.022c14.148 4.14 27.726 11.135 39.144 17.428 5.745 3.173 10.444 5.657 14.798 7.83 2.796 1.405 5.679 2.941 8.462 4.425 10.331 5.505 21.007 11.195 31.709 12.673 4.388.652 8.86.469 13.18-.537 10.703-2.577 19.973-11.056 28.939-19.25 4.579-4.193 9.318-8.526 14.221-12.056 14.354-10.315 28.78-16.336 42.888-17.886 30.914-3.445 58.978 15.11 73.226 48.437 6.05 14.143 10.808 29.644 15.4 44.635 2.287 7.452 4.639 15.163 7.164 22.675 2.372 7.127 5.374 15.308 9.675 21.893 9.595 14.679 22.465 12.069 31.563 7.3 15.626-8.201 27.455-24.053 37.905-39.958 2.485-3.743 4.943-7.578 7.289-11.261 2.923-4.558 5.964-9.274 8.927-13.686a420.717 420.717 0 0143.073-53.657c30.483-32.347 63.034-57.705 94.146-73.325 36.6-18.382 70.535-23.344 100.912-14.792z" fill="url(#paint18_radial_399_999)"/><path d="M719.332 13.967l-.299 1.146C647.219-3.375 569.402 59.14 529.409 98.023a419.921 419.921 0 00-42.775 48.179c-3.227 4.293-6.521 8.897-9.708 13.348-2.187 3.054-4.387 6.141-6.627 9.195-10.682 14.619-22.69 29.147-38.077 36.678-9.244 4.551-22.379 6.91-32.418-7.372-4.48-6.373-7.687-13.984-10.232-20.595-2.544-6.611-5.083-13.527-7.481-20.138-5.302-14.667-10.378-28.485-16.726-41.661-14.712-30.432-41.749-46.648-70.608-42.33-13.817 2.074-27.832 8.407-42.842 19.37-4.818 3.531-9.529 7.777-14.082 11.884-9.496 8.559-19.31 17.409-30.728 20.37a39.32 39.32 0 01-13.916.987c-12.65-1.245-25.228-7.79-37.395-14.123-1.511-.781-3.015-1.57-4.512-2.332-4.752-2.424-9.662-5.173-15.003-8.412-12.041-7.287-25.056-14.706-38.621-19.608a257.205 257.205 0 00-30.244-8.89c-22.273-5.094-44.287-6.717-63.657-4.697l-.126-1.179c19.503-2.034 41.65-.398 64.048 4.716a258.361 258.361 0 0130.383 8.937c13.665 4.935 26.739 12.387 38.833 19.707 5.301 3.219 10.198 5.962 14.93 8.367 1.498.768 3.002 1.556 4.519 2.345 12.061 6.273 24.519 12.765 36.958 13.99 4.52.49 9.092.167 13.498-.954 11.133-2.895 20.841-11.645 30.231-20.105 4.579-4.127 9.311-8.393 14.175-11.963 15.175-11.076 29.363-17.482 43.365-19.582 29.377-4.398 56.911 12.07 71.854 42.986 6.375 13.195 11.663 27.722 16.772 41.773 2.399 6.624 4.884 13.434 7.475 20.118 2.518 6.538 5.686 14.07 10.093 20.336 9.562 13.6 22.1 11.321 30.927 7.022 15.155-7.393 27.05-21.82 37.646-36.314 2.233-3.061 4.433-6.135 6.627-9.188 3.187-4.459 6.481-9.062 9.721-13.375a421.68 421.68 0 0142.895-48.318C568.752 58.112 646.954-4.654 719.332 13.967z" fill="url(#paint19_radial_399_999)"/><path d="M719.206 16.815l-.265 1.16c-50.92-11.818-113.284 14.467-185.443 78.107-16.567 14.633-30.483 28.643-42.576 42.846-3.513 4.134-6.945 8.386-10.57 12.891-1.942 2.405-3.897 4.829-5.871 7.24-10.762 13.156-22.803 26.286-37.799 33.029-12.843 5.73-23.79 3.312-31.742-7.088-4.639-6.068-8.125-13.348-10.656-19.012a1385.923 1385.923 0 01-7.495-17.143c-5.964-13.839-11.603-26.908-18.396-39.243-15.374-27.928-41.894-42.078-69.209-36.93-13.492 2.543-27.674 9.453-43.346 21.045-4.758 3.55-9.436 7.711-13.962 11.732-9.94 8.843-20.218 17.978-32.074 21.284a42.833 42.833 0 01-14.187 1.404c-15.05-.921-30.689-9.115-43.26-15.7a171.208 171.208 0 01-15.135-8.969c-14.115-9.274-26.037-16.56-38.336-21.86A241.373 241.373 0 0068.74 70.817c-16.017-4.558-40.27-9.334-64.816-6.227l-.146-1.18c24.738-3.132 49.157 1.683 65.287 6.267a243.26 243.26 0 0130.29 10.838c12.379 5.339 24.354 12.652 38.515 21.993a173.252 173.252 0 0015.069 8.909c12.472 6.532 27.992 14.66 42.783 15.567 4.643.32 9.307-.144 13.796-1.371 11.591-3.226 21.763-12.275 31.603-21.025 4.54-4.041 9.238-8.215 14.042-11.798 15.812-11.725 30.159-18.68 43.849-21.258 27.833-5.246 54.837 9.129 70.469 37.527 6.819 12.387 12.465 25.477 18.442 39.342 2.419 5.617 4.924 11.413 7.495 17.124 2.498 5.61 5.964 12.811 10.51 18.786 7.647 10.029 17.839 12.282 30.291 6.697 14.771-6.624 26.699-19.614 37.388-32.671 1.966-2.411 3.919-4.822 5.858-7.233 3.479-4.313 7.071-8.771 10.603-12.911 12.1-14.249 26.069-28.306 42.696-42.972 72.41-63.945 135.152-90.31 186.443-78.406z" fill="url(#paint20_radial_399_999)"/><path d="M719.08 19.671l-.239 1.166C656.033 7.933 585.326 56.47 537.6 94.115c-16.905 13.342-30.768 25.61-42.411 37.527-3.923 4.028-7.767 8.201-11.835 12.619-1.558 1.69-3.128 3.392-4.705 5.088-10.093 10.943-22.207 23.099-37.514 29.332-12.591 5.134-23.041 2.869-31.013-6.723-4.705-5.657-8.39-12.288-11.08-17.435-2.187-4.194-4.328-8.38-6.448-12.527-6.952-13.587-13.512-26.424-21.126-38.421-16.03-25.325-42.02-37.414-67.818-31.545-13.373 3.047-27.322 10.268-43.876 22.728-4.672 3.537-9.277 7.591-13.757 11.513-10.41 9.148-21.205 18.608-33.511 22.258a46.49 46.49 0 01-14.466 1.835c-15.394-.398-31.192-7.777-44.612-14.945a137.532 137.532 0 01-15.34-9.532c-12.644-9.016-25.063-17.647-38.051-24.172a232.852 232.852 0 00-30.04-12.706c-16.4-5.57-41.158-11.44-65.975-7.757l-.179-1.172c25.056-3.717 50.012 2.172 66.54 7.81a233.726 233.726 0 0130.191 12.745c13.061 6.565 25.519 15.236 38.203 24.271a135.904 135.904 0 0015.241 9.447c13.267 7.101 28.926 14.414 44.055 14.805 4.765.15 9.524-.451 14.101-1.782 12.074-3.584 22.743-12.95 33.061-22.013 4.48-3.934 9.112-8.008 13.824-11.572 16.699-12.586 30.781-19.873 44.332-22.934 26.302-5.962 52.769 6.3 69.077 32.062 7.641 12.07 14.215 24.921 21.206 38.534 2.121 4.147 4.27 8.32 6.448 12.52 2.65 5.094 6.308 11.659 10.934 17.223 7.614 9.148 17.587 11.294 29.661 6.379 15.076-6.141 27.07-18.21 37.11-29.041 1.577-1.696 3.143-3.389 4.698-5.081 4.076-4.425 7.952-8.611 11.862-12.646 11.643-11.923 25.539-24.258 42.491-37.626 33.869-26.715 61.96-44.939 88.407-57.346 34.863-16.35 66.42-21.794 93.795-16.164z" fill="url(#paint21_radial_399_999)"/><path d="M718.961 22.506l-.212 1.166c-57.461-10.201-121.522 29.969-177.06 68.476-17.998 12.473-31.007 22.403-42.179 32.201-4.586 4.021-9.099 8.24-13.877 12.712l-2.763 2.583c-10.271 9.579-22.465 20.251-37.275 25.649-12.187 4.445-22.385 2.299-30.311-6.379-3.784-4.14-7.329-9.029-11.497-15.858l-4.063-6.664c-8.382-13.799-16.308-26.829-25.181-38.885-16.68-22.622-42.133-32.645-66.427-26.16-16.944 4.525-32.63 15.422-44.399 24.411-4.546 3.491-9.065 7.413-13.432 11.208-10.921 9.486-22.219 19.297-35.062 23.325a50.703 50.703 0 01-14.751 2.252c-13.174.106-28.21-4.531-45.97-14.189a114.909 114.909 0 01-15.506-10.089c-11.564-8.87-24.665-18.926-37.773-26.451a224.507 224.507 0 00-29.94-14.574C47.66 57.913 23.81 54.614 4.143 57.966l-.2-1.166c19.881-3.371 43.956-.053 67.78 9.354A226.776 226.776 0 01101.812 80.8c13.167 7.565 26.302 17.648 37.892 26.544a114.663 114.663 0 0015.347 9.989c17.581 9.559 32.431 14.15 45.393 14.044a49.426 49.426 0 0014.407-2.219c12.591-3.975 23.81-13.679 34.644-23.086 4.381-3.802 8.907-7.737 13.486-11.261 11.862-9.056 27.673-20.032 44.81-24.616 24.777-6.625 50.721 3.577 67.692 26.603 8.913 12.103 16.865 25.159 25.254 38.984l4.062 6.624c4.129 6.757 7.628 11.593 11.359 15.674 7.567 8.287 17.335 10.327 29.031 6.067 14.579-5.299 26.686-15.898 36.865-25.404l2.763-2.583c4.785-4.472 9.278-8.698 13.916-12.739 11.213-9.824 24.254-19.78 42.292-32.28 55.718-38.58 120.023-78.916 177.935-68.635z" fill="url(#paint22_radial_399_999)"/><path d="M718.828 25.38l-.172 1.173c-53.412-7.949-110.839 26.498-161.5 56.83-3.851 2.306-7.648 4.585-11.378 6.804-14.023 8.333-28.807 17.269-41.988 26.868-5.301 3.882-10.516 7.949-16.745 12.878-10.901 8.611-22.743 17.415-36.997 21.972-11.769 3.763-21.729 1.736-29.602-6.041a110.521 110.521 0 01-11.928-14.269c-10.185-14.136-20.212-27.822-30.934-40.13-17.56-20.131-41.881-27.902-65.048-20.78-16.334 5.02-31.245 15.507-44.916 26.093-4.38 3.411-8.747 7.167-12.968 10.797-11.478 9.864-23.346 20.072-36.759 24.51a55.386 55.386 0 01-15.036 2.65c-17.726.722-35.519-6.902-47.321-13.427a102.39 102.39 0 01-15.666-10.646l-2.206-1.808c-11.988-9.87-23.313-19.21-35.261-26.928a219.594 219.594 0 00-29.82-16.475C58.665 59.205 31.31 49.494 4.266 54.627l-.218-1.166c27.355-5.193 55.002 4.604 69.017 10.904a220.463 220.463 0 0129.993 16.56c12.007 7.778 23.856 17.555 35.373 27.002l2.207 1.815a100.457 100.457 0 0015.487 10.526c11.676 6.452 29.25 13.997 46.698 13.248a53.827 53.827 0 0014.718-2.616c13.187-4.346 24.963-14.474 36.354-24.265 4.235-3.644 8.615-7.406 13.015-10.831 13.764-10.659 28.78-21.198 45.294-26.292 23.631-7.287 48.415.663 66.267 21.132 10.756 12.328 20.802 26.06 31 40.216a109.254 109.254 0 0011.789 14.123c7.528 7.439 17.084 9.373 28.409 5.757 14.062-4.505 25.798-13.249 36.619-21.775 6.243-4.928 11.438-9.015 16.779-12.904 13.221-9.638 28.038-18.588 42.08-26.934 3.737-2.208 7.53-4.474 11.378-6.797 50.854-30.425 108.473-64.958 162.302-56.95z" fill="url(#paint23_radial_399_999)"/><path d="M718.702 28.23l-.139 1.179c-46.102-5.446-96.22 20.946-140.434 44.23-9.854 5.187-19.158 10.089-28.276 14.574l-5.931 2.914c-12.67 6.227-24.638 12.103-35.864 18.635-4.824 2.808-10.019 6.034-16.845 10.459-11.597 7.526-23.127 14.574-36.712 18.29-11.365 3.1-21.08 1.186-28.886-5.69a126.474 126.474 0 01-12.326-12.692c-11.987-13.958-22.352-24.987-32.616-34.712-18.158-17.223-41.968-22.966-63.677-15.401-16.633 5.803-32.173 17.375-45.433 27.775-4.155 3.279-8.316 6.824-12.339 10.255-12.087 10.294-24.578 20.946-38.62 25.795a60.634 60.634 0 01-15.321 3.094c-14.93 1.073-32.219-3.425-48.674-12.666a91.978 91.978 0 01-15.831-11.215l-5.155-4.531c-10.895-9.592-21.206-18.648-32.027-26.497A216.639 216.639 0 0073.868 63.67C49.86 51.593 24.538 47.109 4.38 51.315l-.238-1.159c20.41-4.28 46.016.258 70.243 12.454a216.899 216.899 0 0129.893 18.468c10.894 7.877 21.683 17.376 32.113 26.564l5.156 4.531a90.75 90.75 0 0015.626 11.062c16.262 9.135 33.312 13.58 48.01 12.52a58.823 58.823 0 0015.023-3.027c13.824-4.776 26.235-15.355 38.23-25.576 4.035-3.438 8.204-6.996 12.379-10.288 13.339-10.453 28.972-22.099 45.777-27.961 22.14-7.71 46.387-1.862 64.889 15.66 10.291 9.757 20.675 20.813 32.69 34.797a125.343 125.343 0 0012.213 12.586c7.488 6.625 16.838 8.433 27.792 5.439 13.419-3.663 24.864-10.665 36.374-18.137 6.846-4.439 12.054-7.671 16.899-10.493 11.265-6.552 23.246-12.44 35.936-18.668l5.931-2.914c9.099-4.492 18.403-9.387 28.25-14.574 44.379-23.377 94.669-49.861 141.136-44.37z" fill="url(#paint24_radial_399_999)"/><path d="M718.576 31.086l-.106 1.185c-40.072-3.45-81.986 16.263-122.528 35.321-14.731 6.923-28.648 13.46-42.014 18.661-4.817 1.875-9.595 3.67-14.214 5.399-9.595 3.603-18.654 7.035-27.421 10.824-5.302 2.325-10.868 4.962-16.952 8.049-10.635 5.405-22.703 11.532-36.447 14.573-10.96 2.451-20.436.662-28.163-5.346a157.876 157.876 0 01-12.743-11.109 383.452 383.452 0 00-34.254-29.253c-18.986-14.427-41.702-18.084-62.291-10.029-16.097 6.293-30.921 17.521-45.95 29.458-3.863 3.087-7.747 6.366-11.497 9.546-12.757 10.791-25.951 21.946-40.695 27.266a66.5 66.5 0 01-15.606 3.511c-15.944 1.616-33.71-2.61-50.025-11.924a84.754 84.754 0 01-15.997-11.772 747.198 747.198 0 01-7.853-7.366c-9.443-8.89-19.217-18.084-29.038-25.94a213.08 213.08 0 00-29.628-20.264C50.847 48.336 25.089 43.28 4.506 47.965l-.272-1.153c20.875-4.783 46.93.324 71.503 13.997a215.808 215.808 0 0129.82 20.376c9.874 7.89 19.655 17.098 29.105 26.001 2.558 2.497 5.208 4.962 7.819 7.399a83.598 83.598 0 0015.778 11.613c16.103 9.174 33.618 13.348 49.317 11.758a65.28 65.28 0 0015.327-3.451c14.539-5.24 27.647-16.329 40.324-27.054 3.764-3.18 7.647-6.472 11.524-9.566 15.109-11.99 30.012-23.284 46.261-29.63 21.013-8.214 44.147-4.498 63.464 10.181a384.922 384.922 0 0134.38 29.386 156.558 156.558 0 0012.644 11.023c7.541 5.856 16.434 7.538 27.169 5.127 13.565-3.034 25.559-9.128 36.136-14.507 6.103-3.101 11.663-5.737 17.01-8.075 8.768-3.83 17.846-7.24 27.455-10.844a1224.35 1224.35 0 0014.201-5.393c13.36-5.193 27.243-11.718 41.941-18.634 40.708-19.124 82.768-38.905 123.164-35.433z" fill="url(#paint25_radial_399_999)"/><path d="M718.444 33.94l-.06 1.153c-34.929-1.822-71.568 13.779-106.975 28.862-18.773 7.996-36.5 15.547-53.418 20.297-6.839 1.928-13.552 3.61-20.046 5.24-7.435 1.861-14.466 3.623-21.378 5.657a257.795 257.795 0 00-17.044 5.631l-2.471.94c-10.484 3.882-21.325 7.897-33.664 10.023-10.563 1.822-19.794.139-27.435-5.001a232.565 232.565 0 01-13.147-9.526c-13.287-10.347-26.196-18.19-35.957-23.848-19.469-11.327-41.689-13.023-60.966-4.637-16.792 7.287-32.557 19.966-46.466 31.135-3.48 2.815-6.992 5.763-10.391 8.611-13.512 11.368-27.488 23.119-43.034 28.949a72.494 72.494 0 01-15.904 3.934c-16.647 2.16-35.374-1.901-51.377-11.148a79.224 79.224 0 01-16.156-12.328 1661.734 1661.734 0 01-10.285-10.281c-8.555-8.612-17.395-17.508-26.315-25.318-10.43-9.162-20.092-16.409-29.522-22.165C52.186 45.34 25.334 39.584 4.6 44.712l-.285-1.153c21.352-5.3 47.865.384 72.735 15.554 9.51 5.79 19.225 13.076 29.688 22.258 8.946 7.843 17.806 16.753 26.375 25.377 3.406 3.425 6.825 6.863 10.278 10.268a78.204 78.204 0 0015.904 12.149c15.778 9.115 34.233 13.123 50.628 10.996a71.325 71.325 0 0015.632-3.862c15.355-5.763 29.244-17.448 42.683-28.749 3.4-2.855 6.919-5.81 10.404-8.612 13.969-11.261 29.821-23.953 46.745-31.306 19.629-8.526 42.239-6.803 62.04 4.71 9.794 5.697 22.749 13.573 36.089 23.96 4.214 3.312 8.615 6.472 13.081 9.473 7.482 5.034 16.176 6.624 26.573 4.815 12.226-2.106 23.015-6.101 33.452-9.936l2.458-.908c5.699-2.1 11.266-3.974 17.124-5.657 6.931-2.04 13.969-3.802 21.417-5.67 6.488-1.63 13.194-3.312 20.02-5.227 16.871-4.776 34.565-12.328 53.299-20.277 35.545-15.156 72.324-30.81 107.505-28.975z" fill="url(#paint26_radial_399_999)"/><path d="M718.311 36.795v1.186c-30.43-.497-62.358 11.997-93.238 24.073-22.18 8.678-43.134 16.879-63.001 20.257-8.263 1.411-16.308 2.378-24.094 3.312-5.964.716-11.544 1.398-17.15 2.246-6.157.927-11.769 1.987-17.144 3.22-2.147.496-4.307 1.013-6.494 1.53-9.244 2.205-18.8 4.484-29.323 5.723-10.318 1.219-19.052-.298-26.699-4.637-3.804-2.166-8.787-5.021-13.559-7.95-12.961-7.948-25.744-13.553-37.62-18.455-11.663-4.809-34.916-11.109-59.64.736-16.13 7.724-30.529 19.442-45.778 31.843l-1.212.98a862.382 862.382 0 00-8.92 7.413c-14.38 12.049-29.25 24.51-45.724 30.915a78.567 78.567 0 01-16.176 4.346c-17.528 2.756-36.745-1.033-52.722-10.387a74.606 74.606 0 01-16.322-12.884c-4.201-4.379-8.396-8.883-12.458-13.249-7.754-8.32-15.765-16.925-23.857-24.642-10.602-10.135-19.946-17.78-29.422-24.06C53.238 42.075 25.957 35.742 4.75 41.373l-.305-1.146c21.524-5.717 49.177.662 73.968 17.097 9.536 6.313 18.932 14.004 29.588 24.192 8.105 7.737 16.136 16.356 23.896 24.689 4.056 4.352 8.25 8.857 12.445 13.249a73.766 73.766 0 0016.07 12.672c15.745 9.214 34.678 12.95 51.94 10.241a78.033 78.033 0 0015.904-4.286c16.289-6.339 31.086-18.733 45.394-30.717 2.975-2.491 5.964-4.981 8.932-7.419l1.213-.987c14.632-11.924 29.761-24.205 46.016-31.995 25.129-12.037 48.753-5.644 60.595-.756 11.842 4.89 24.757 10.566 37.772 18.548 4.758 2.909 9.722 5.757 13.519 7.95 7.422 4.22 15.904 5.697 25.977 4.51 10.457-1.238 19.979-3.504 29.157-5.703 2.209-.525 4.376-1.035 6.501-1.53 5.414-1.245 11.047-2.305 17.23-3.24 5.619-.854 11.265-1.53 17.189-2.245 7.767-.94 15.805-1.914 24.035-3.312 19.748-3.365 40.642-11.54 62.769-20.191 31.053-12.162 63.093-24.702 93.755-24.199z" fill="url(#paint27_radial_399_999)"/><path d="M718.205 40.842c-26.427.563-54.133 10.665-80.925 20.443-25.076 9.148-48.78 17.793-71.178 19.045-9.204.517-18.144.404-26.799.298-4.917-.06-9.562-.12-14.26-.073-6.521.066-12.001.331-17.23.815-4.194.39-8.383.88-12.816 1.39-7.243.842-14.738 1.717-22.696 2.2-9.94.603-18.423-.801-25.951-4.306a960.37 960.37 0 00-8.402-3.835c-1.882-.855-3.731-1.69-5.56-2.53-13.505-6.194-26.858-9.937-39.283-13.044-14.42-3.61-36.242-5.478-58.316 6.121-15.546 8.174-30.125 20.198-44.233 31.797l-3.274 2.689c-2.332 1.928-4.638 3.875-6.984 5.816-15.394 12.878-31.318 26.193-48.899 33.274a86.148 86.148 0 01-16.474 4.776 79.42 79.42 0 01-54.067-9.625 71.443 71.443 0 01-16.481-13.447c-4.858-5.3-9.682-10.851-14.354-16.19-7.037-8.055-14.313-16.382-21.656-23.98-10.603-10.99-19.926-19.21-29.323-25.954-24.777-17.687-52.49-24.596-74.186-18.455l-.318-1.14c22.02-6.24 50.13.736 75.193 18.648 9.456 6.756 18.827 15.05 29.482 26.093 7.369 7.618 14.652 15.958 21.703 24.02 4.639 5.339 9.489 10.85 14.334 16.17a70.337 70.337 0 0016.209 13.248 78.219 78.219 0 0053.252 9.48 85.045 85.045 0 0016.242-4.704c17.402-7.001 33.246-20.257 48.574-33.075 2.333-1.947 4.665-3.888 6.998-5.823l3.267-2.696c14.155-11.659 28.786-23.721 44.439-31.949 17.474-9.188 38.481-11.4 59.143-6.22 12.478 3.127 25.904 6.876 39.496 13.116 1.822.835 3.671 1.67 5.553 2.524a1048.07 1048.07 0 018.409 3.835c7.342 3.419 15.646 4.797 25.387 4.2 7.952-.483 15.394-1.325 22.624-2.192 4.446-.51 8.615-1 12.842-1.392 5.302-.49 10.789-.755 17.342-.82 4.712-.047 9.364 0 14.294.072 8.615.106 17.548.219 26.713-.291 22.239-1.246 45.843-9.864 70.839-18.98 26.885-9.81 54.684-19.952 81.304-20.535l.026 1.186z" fill="url(#paint28_radial_399_999)"/><path d="M718.119 43.705c-22.803 1.39-46.659 9.645-69.727 17.627-27.56 9.539-53.597 18.548-78.235 17.024-9.787-.609-19.297-1.987-28.495-3.371-4.075-.597-8.29-1.22-12.385-1.75-6.706-.867-12.22-1.37-17.356-1.589-7.627-.331-15.413-.245-23.664-.159-3.764.04-7.607.086-11.53.086-9.596 0-17.846-1.291-25.182-3.974-4.923-1.782-9.708-3.313-14.34-4.777-14.751-4.696-28.992-6.498-40.973-7.644-14.446-1.384-36.056-.503-56.99 11.52-15.003 8.611-29.158 20.449-42.862 31.896l-5.162 4.306-4.407 3.683c-16.613 13.911-33.796 28.299-52.709 36.155a93.902 93.902 0 01-16.752 5.187c-19.164 3.975-39.363.762-55.419-8.863a68.717 68.717 0 01-16.64-14.011c-5.434-6.26-10.802-12.798-15.997-19.117-6.408-7.804-13.028-15.899-19.721-23.338-10.603-11.844-19.88-20.694-29.224-27.822-19.317-14.805-49.257-27.822-75.36-19.999l-.337-1.133c26.507-7.949 56.87 5.207 76.42 20.191 9.396 7.2 18.733 16.097 29.382 28.001 6.706 7.486 13.34 15.56 19.761 23.371 5.182 6.313 10.55 12.844 15.971 19.098a67.451 67.451 0 0016.354 13.765c15.798 9.473 35.692 12.653 54.565 8.724a92.826 92.826 0 0016.567-5.12c18.74-7.79 35.85-22.119 52.397-35.97l4.414-3.69c1.723-1.431 3.441-2.866 5.155-4.306 13.737-11.473 27.945-23.344 43.034-32.008 21.206-12.183 43.074-13.07 57.686-11.673 12.047 1.146 26.361 2.962 41.198 7.685 4.639 1.483 9.463 3.007 14.407 4.802 7.236 2.65 15.347 3.895 24.797 3.889 3.923 0 7.76-.047 11.524-.086 8.263-.087 16.07-.173 23.73.159 5.169.218 10.716.728 17.455 1.596 4.102.53 8.323 1.153 12.405 1.756 9.165 1.358 18.648 2.755 28.389 3.358 24.406 1.51 50.363-7.459 77.771-16.958 23.148-8.01 47.083-16.29 70.045-17.694l.04 1.173z" fill="url(#paint29_radial_399_999)"/><path d="M718.033 46.548c-19.483 1.987-39.801 8.81-59.449 15.388-28.376 9.493-57.725 19.31-84.378 14.415-10.079-1.849-19.88-4.637-29.403-7.287-3.704-1.053-7.534-2.14-11.265-3.14-6.912-1.848-12.299-3.08-17.462-3.975-11.583-2.066-23.611-3.007-34.889-3.716a129.172 129.172 0 01-24.453-3.617c-5.123-1.325-10.126-2.332-14.764-3.22-12.81-2.39-26.355-3.1-42.617-2.232-20.742 1.107-39.469 6.804-55.665 16.932-14.479 8.99-28.263 20.668-41.582 31.93-2.324 1.969-4.648 3.932-6.972 5.888l-.901.736c-18.117 15.236-36.858 31.028-57.447 39.845a102.739 102.739 0 01-17.044 5.604c-19.94 4.637-40.628 1.676-56.758-8.108a66.105 66.105 0 01-16.805-14.574c-6.031-7.286-11.928-14.904-17.647-22.297-5.719-7.393-11.736-15.203-17.773-22.437C100.11 69.938 90.832 60.485 81.641 52.98 62.178 37.015 31.848 22.972 5.096 31.451l-.358-1.133c27.203-8.611 57.95 5.585 77.652 21.741 9.277 7.559 18.555 17.065 29.283 29.909 6.044 7.254 12.021 14.99 17.8 22.47 5.778 7.479 11.597 15.024 17.62 22.271a64.88 64.88 0 0016.501 14.308c15.904 9.625 36.241 12.527 55.883 7.949a101.086 101.086 0 0016.845-5.538c20.424-8.744 39.098-24.457 57.149-39.659l.901-.756c2.329-1.956 4.65-3.917 6.965-5.882 13.353-11.314 27.17-23.013 41.709-32.108 16.368-10.235 35.287-15.991 56.228-17.11 16.361-.868 29.992-.153 42.901 2.252 4.639.894 9.688 1.9 14.844 3.239a127.906 127.906 0 0024.227 3.577c11.312.715 23.386 1.663 35.029 3.736 5.195.928 10.603 2.166 17.554 4.021a740.16 740.16 0 0111.266 3.14c9.476 2.69 19.264 5.465 29.29 7.287C600.739 80 629.937 70.236 658.18 60.79c19.708-6.591 40.085-13.407 59.7-15.441l.153 1.199z" fill="url(#paint30_radial_399_999)"/><path d="M717.947 49.403c-16.414 2.43-33.458 8.068-49.926 13.513-30.105 9.937-61.237 20.244-89.752 11.427-9.993-3.093-19.794-7.2-29.27-11.175-3.678-1.537-7.475-3.127-11.206-4.637-6.74-2.73-12.319-4.77-17.574-6.412a203.611 203.611 0 00-34.598-7.36l-2.751-.358c-6.905-.9-14.042-1.828-20.933-2.908-4.593-.722-9.556-1.265-15.176-1.656-14.088-.954-28.574.08-44.286 3.166a146.106 146.106 0 00-54.339 22.351c-13.883 9.426-27.256 20.9-40.191 31.996-2.956 2.539-5.911 5.067-8.867 7.584-20.231 17.184-38.68 32.161-59.581 41.356a111.95 111.95 0 01-17.342 6.055c-20.689 5.299-41.868 2.61-58.11-7.34a64.518 64.518 0 01-16.958-15.124c-6.414-8.088-12.65-16.66-18.68-24.94-5.342-7.333-10.862-14.918-16.448-22.085-10.603-13.613-19.827-23.67-29.019-31.645-30.025-26.126-60.634-28.75-77.724-23.06l-.378-1.125c11.988-3.975 26.103-3.55 40.834 1.265 13.154 4.28 26.666 12.103 38.044 22.006 9.277 8.022 18.522 18.13 29.157 31.797 5.6 7.18 11.127 14.772 16.468 22.112 6.03 8.28 12.259 16.832 18.654 24.907a63.269 63.269 0 0016.647 14.845c15.97 9.784 36.818 12.408 57.195 7.207a111.444 111.444 0 0017.15-5.961c20.748-9.135 39.098-24.053 59.289-41.184a1166.51 1166.51 0 008.86-7.572c12.962-11.122 26.361-22.615 40.297-32.081a147.33 147.33 0 0154.777-22.523c15.818-3.107 30.41-4.147 44.598-3.186 5.659.398 10.655.94 15.281 1.67 6.879 1.08 14.002 1.987 20.901 2.9l2.75.365a203.751 203.751 0 0134.817 7.4c5.301 1.649 10.901 3.696 17.667 6.438 3.737 1.504 7.541 3.1 11.219 4.637 9.449 3.975 19.217 8.062 29.157 11.136 28.151 8.704 59.097-1.53 89.024-11.42 16.566-5.466 33.63-11.116 50.144-13.567l.179 1.186z" fill="url(#paint31_radial_399_999)"/><path d="M717.867 52.258c-13.572 2.65-27.6 7.353-41.165 11.89-31.53 10.56-64.14 21.477-94.391 8.188-9.994-4.385-19.881-9.883-29.463-15.196-9.277-5.147-18.853-10.466-28.495-14.766C468.39 17.427 405.774 25.57 352.568 64.698c-13.167 9.685-26.023 20.854-38.435 31.658-27.699 24.066-56.327 48.947-89.547 58.168-30.887 8.572-59.508.252-76.565-22.264-6.746-8.903-13.253-18.383-19.575-27.557-13.486-19.615-27.428-39.892-44.18-55.293-18.98-17.429-51.02-34.321-78.918-24.59l-.391-1.12c28.415-9.903 60.913 7.188 80.103 24.835 16.852 15.494 30.835 35.831 44.36 55.499 6.295 9.161 12.809 18.634 19.535 27.51 6.276 8.288 30.258 34.341 75.307 21.861 32.948-9.142 61.489-33.937 89.089-57.917 12.452-10.817 25.328-22.006 38.528-31.717C405.45 24.376 468.51 16.195 524.837 41.315c9.688 4.319 19.297 9.658 28.588 14.812 9.549 5.3 19.416 10.784 29.363 15.15 29.82 13.102 62.218 2.265 93.536-8.221 13.605-4.558 27.667-9.274 41.311-11.924l.232 1.126z" fill="url(#paint32_radial_399_999)"/><defs><radialGradient id="paint0_radial_399_999" cx="0" cy="0" r="1" gradientUnits="userSpaceOnUse" gradientTransform="matrix(357.25 0 0 39.2456 357.25 190.08)"><stop/><stop offset="1" stop-opacity="0"/></radialGradient><radialGradient id="paint1_radial_399_999" cx="0" cy="0" r="1" gradientUnits="userSpaceOnUse" gradientTransform="matrix(357.29 0 0 40.5496 357.502 183.022)"><stop/><stop offset="1" stop-opacity="0"/></radialGradient><radialGradient id="paint2_radial_399_999" cx="0" cy="0" r="1" gradientUnits="userSpaceOnUse" gradientTransform="matrix(357.323 0 0 45.4433 357.748 178.781)"><stop/><stop offset="1" stop-opacity="0"/></radialGradient><radialGradient id="paint3_radial_399_999" cx="0" cy="0" r="1" gradientUnits="userSpaceOnUse" gradientTransform="matrix(357.376 0 0 50.577 358.012 174.789)"><stop/><stop offset="1" stop-opacity="0"/></radialGradient><radialGradient id="paint4_radial_399_999" cx="0" cy="0" r="1" gradientUnits="userSpaceOnUse" gradientTransform="matrix(357.443 0 0 56.0157 358.291 170.904)"><stop/><stop offset="1" stop-opacity="0"/></radialGradient><radialGradient id="paint5_radial_399_999" cx="0" cy="0" r="1" gradientUnits="userSpaceOnUse" gradientTransform="matrix(357.502 0 0 61.586 358.562 167.063)"><stop/><stop offset="1" stop-opacity="0"/></radialGradient><radialGradient id="paint6_radial_399_999" cx="0" cy="0" r="1" gradientUnits="userSpaceOnUse" gradientTransform="matrix(357.562 0 0 67.2637 358.834 163.23)"><stop/><stop offset="1" stop-opacity="0"/></radialGradient><radialGradient id="paint7_radial_399_999" cx="0" cy="0" r="1" gradientUnits="userSpaceOnUse" gradientTransform="matrix(357.625 0 0 72.9519 359.109 159.42)"><stop/><stop offset="1" stop-opacity="0"/></radialGradient><radialGradient id="paint8_radial_399_999" cx="0" cy="0" r="1" gradientUnits="userSpaceOnUse" gradientTransform="matrix(357.684 0 0 78.6989 359.374 155.601)"><stop/><stop offset="1" stop-opacity="0"/></radialGradient><radialGradient id="paint9_radial_399_999" cx="0" cy="0" r="1" gradientUnits="userSpaceOnUse" gradientTransform="matrix(357.747 0 0 84.4741 359.649 151.796)"><stop/><stop offset="1" stop-opacity="0"/></radialGradient><radialGradient id="paint10_radial_399_999" cx="0" cy="0" r="1" gradientUnits="userSpaceOnUse" gradientTransform="matrix(357.814 0 0 90.2775 359.908 148.027)"><stop/><stop offset="1" stop-opacity="0"/></radialGradient><radialGradient id="paint11_radial_399_999" cx="0" cy="0" r="1" gradientUnits="userSpaceOnUse" gradientTransform="matrix(357.877 0 0 96.0471 360.182 144.177)"><stop/><stop offset="1" stop-opacity="0"/></radialGradient><radialGradient id="paint12_radial_399_999" cx="0" cy="0" r="1" gradientUnits="userSpaceOnUse" gradientTransform="matrix(357.943 0 0 101.874 360.44 140.377)"><stop/><stop offset="1" stop-opacity="0"/></radialGradient><radialGradient id="paint13_radial_399_999" cx="0" cy="0" r="1" gradientUnits="userSpaceOnUse" gradientTransform="matrix(357.989 0 0 107.713 360.726 136.595)"><stop/><stop offset="1" stop-opacity="0"/></radialGradient><radialGradient id="paint14_radial_399_999" cx="0" cy="0" r="1" gradientUnits="userSpaceOnUse" gradientTransform="matrix(358.055 0 0 113.503 360.991 132.78)"><stop/><stop offset="1" stop-opacity="0"/></radialGradient><radialGradient id="paint15_radial_399_999" cx="0" cy="0" r="1" gradientUnits="userSpaceOnUse" gradientTransform="matrix(358.085 0 0 119.354 361.286 129.015)"><stop/><stop offset="1" stop-opacity="0"/></radialGradient><radialGradient id="paint16_radial_399_999" cx="0" cy="0" r="1" gradientUnits="userSpaceOnUse" gradientTransform="matrix(358.171 0 0 125.167 361.538 125.167)"><stop/><stop offset="1" stop-opacity="0"/></radialGradient><radialGradient id="paint17_radial_399_999" cx="0" cy="0" r="1" gradientUnits="userSpaceOnUse" gradientTransform="matrix(358.065 0 0 116.524 361.511 120.017)"><stop/><stop offset="1" stop-opacity="0"/></radialGradient><radialGradient id="paint18_radial_399_999" cx="0" cy="0" r="1" gradientUnits="userSpaceOnUse" gradientTransform="matrix(357.949 0 0 107.863 361.508 114.914)"><stop/><stop offset="1" stop-opacity="0"/></radialGradient><radialGradient id="paint19_radial_399_999" cx="0" cy="0" r="1" gradientUnits="userSpaceOnUse" gradientTransform="matrix(357.85 0 0 99.1675 361.481 109.762)"><stop/><stop offset="1" stop-opacity="0"/></radialGradient><radialGradient id="paint20_radial_399_999" cx="0" cy="0" r="1" gradientUnits="userSpaceOnUse" gradientTransform="matrix(357.714 0 0 90.541 361.492 104.577)"><stop/><stop offset="1" stop-opacity="0"/></radialGradient><radialGradient id="paint21_radial_399_999" cx="0" cy="0" r="1" gradientUnits="userSpaceOnUse" gradientTransform="matrix(357.618 0 0 81.9172 361.461 99.439)"><stop/><stop offset="1" stop-opacity="0"/></radialGradient><radialGradient id="paint22_radial_399_999" cx="0" cy="0" r="1" gradientUnits="userSpaceOnUse" gradientTransform="matrix(357.509 0 0 73.3317 361.452 94.212)"><stop/><stop offset="1" stop-opacity="0"/></radialGradient><radialGradient id="paint23_radial_399_999" cx="0" cy="0" r="1" gradientUnits="userSpaceOnUse" gradientTransform="matrix(357.39 0 0 64.7664 361.438 88.974)"><stop/><stop offset="1" stop-opacity="0"/></radialGradient><radialGradient id="paint24_radial_399_999" cx="0" cy="0" r="1" gradientUnits="userSpaceOnUse" gradientTransform="matrix(357.28 0 0 56.226 361.422 83.724)"><stop/><stop offset="1" stop-opacity="0"/></radialGradient><radialGradient id="paint25_radial_399_999" cx="0" cy="0" r="1" gradientUnits="userSpaceOnUse" gradientTransform="matrix(357.171 0 0 54.3962 361.405 85.083)"><stop/><stop offset="1" stop-opacity="0"/></radialGradient><radialGradient id="paint26_radial_399_999" cx="0" cy="0" r="1" gradientUnits="userSpaceOnUse" gradientTransform="matrix(357.065 0 0 54.0674 361.379 87.86)"><stop/><stop offset="1" stop-opacity="0"/></radialGradient><radialGradient id="paint27_radial_399_999" cx="0" cy="0" r="1" gradientUnits="userSpaceOnUse" gradientTransform="matrix(356.932 0 0 53.8159 361.379 90.597)"><stop/><stop offset="1" stop-opacity="0"/></radialGradient><radialGradient id="paint28_radial_399_999" cx="0" cy="0" r="1" gradientUnits="userSpaceOnUse" gradientTransform="matrix(356.833 0 0 56.1353 361.372 90.822)"><stop/><stop offset="1" stop-opacity="0"/></radialGradient><radialGradient id="paint29_radial_399_999" cx="0" cy="0" r="1" gradientUnits="userSpaceOnUse" gradientTransform="matrix(356.733 0 0 59.1712 361.385 90.42)"><stop/><stop offset="1" stop-opacity="0"/></radialGradient><radialGradient id="paint30_radial_399_999" cx="0" cy="0" r="1" gradientUnits="userSpaceOnUse" gradientTransform="matrix(356.647 0 0 62.2635 361.385 89.98)"><stop/><stop offset="1" stop-opacity="0"/></radialGradient><radialGradient id="paint31_radial_399_999" cx="0" cy="0" r="1" gradientUnits="userSpaceOnUse" gradientTransform="matrix(356.555 0 0 65.3384 361.392 89.67)"><stop/><stop offset="1" stop-opacity="0"/></radialGradient><radialGradient id="paint32_radial_399_999" cx="0" cy="0" r="1" gradientUnits="userSpaceOnUse" gradientTransform="matrix(356.455 0 0 68.5233 361.412 89.309)"><stop/><stop offset="1" stop-opacity="0"/></radialGradient></defs></svg>