<svg width="72" height="30" viewBox="0 0 72 30" fill="none" xmlns="http://www.w3.org/2000/svg">
<path d="M71 15C71 16.6739 70.1734 18.3642 68.4764 20.0025C66.7765 21.6436 64.2641 23.1676 61.0778 24.4687C54.7101 27.0689 45.8443 28.7001 36 28.7001C26.1557 28.7001 17.2899 27.0689 10.9222 24.4687C7.73587 23.1676 5.22354 21.6436 3.52361 20.0025C1.82656 18.3642 1 16.6739 1 15C1 13.3262 1.82657 11.6359 3.52361 9.99759C5.22354 8.35646 7.73587 6.83245 10.9222 5.53137C17.2899 2.93123 26.1557 1.30005 36 1.30005C45.8443 1.30005 54.7101 2.93123 61.0778 5.53137C64.2641 6.83245 66.7765 8.35646 68.4764 9.99759C70.1734 11.6359 71 13.3262 71 15Z" stroke="black" stroke-width="2"/>
<path d="M71 15C71 15.1089 70.9474 15.3365 70.5798 15.6858C70.2119 16.0354 69.6143 16.4203 68.7533 16.8161C67.0371 17.6051 64.4906 18.3409 61.265 18.9681C54.8302 20.2193 45.8971 21 36 21C26.1029 21 17.1698 20.2193 10.735 18.9681C7.50939 18.3409 4.96288 17.6051 3.24675 16.8161C2.38575 16.4203 1.78815 16.0354 1.42023 15.6858C1.05259 15.3365 1 15.1089 1 15C1 14.8911 1.05259 14.6635 1.42023 14.3142C1.78815 13.9646 2.38575 13.5797 3.24675 13.1839C4.96288 12.3949 7.50939 11.6591 10.735 11.0319C17.1698 9.78066 26.1029 9 36 9C45.8971 9 54.8302 9.78066 61.265 11.0319C64.4906 11.6591 67.0371 12.3949 68.7533 13.1839C69.6143 13.5797 70.2119 13.9646 70.5798 14.3142C70.9474 14.6635 71 14.8911 71 15Z" stroke="black" stroke-width="2"/>
<path d="M36.0006 28.7C28.5339 28.7 22.4621 22.5768 22.4621 15C22.4621 7.4233 28.5339 1.30005 36.0006 1.30005C43.4673 1.30005 49.5391 7.4233 49.5391 15C49.5391 22.5768 43.4673 28.7 36.0006 28.7Z" stroke="black" stroke-width="2"/>
<path d="M36 0.300049V29.7" stroke="black" stroke-width="2"/>
</svg>
