<svg width="197" height="146" fill="none" xmlns="http://www.w3.org/2000/svg"><path d="M193.961 89.13l-1.335.142c-25.554 2.704-51.978 5.54-74.698 21.562-1.84 1.298-3.704 2.662-5.51 3.983-7.236 5.293-14.695 10.764-22.677 13.484-13.922 4.744-28.23.811-40.431-3.667-7.932-2.913-15.894-6.394-23.59-9.759-10.53-4.605-21.42-9.369-32.364-12.749-22.476-6.897-41.286-6.36-57.505 1.649-5.077 2.508-11.338 7.604-17.967 13.001-7.63 6.232-15.522 12.641-21.691 15.009-15.681 5.977-28.172-2.754-41.397-12.027-4.861-3.399-9.885-6.915-15.26-9.863a1180.62 1180.62 0 01-4.154-2.287c-18.775-10.377-38.188-21.106-58.293-18.572l-.089-.687c20.33-2.55 39.859 8.229 58.719 18.66 1.384.773 2.767 1.535 4.149 2.287 5.414 2.967 10.442 6.495 15.322 9.902 13.071 9.145 25.419 17.772 40.756 11.934 6.067-2.318 13.922-8.7 21.501-14.878 6.66-5.408 12.951-10.543 18.099-13.085 16.385-8.086 35.36-8.639 58.007-1.688 10.987 3.372 21.892 8.144 32.438 12.749 7.691 3.361 15.639 6.838 23.554 9.743 12.07 4.436 26.262 8.338 39.968 3.659 7.861-2.681 15.298-8.113 22.491-13.387 1.81-1.321 3.678-2.704 5.522-3.987 22.867-16.126 49.38-18.954 75.023-21.685l1.334-.143.078.7z" fill="url(#paint0_radial_840_7740)"/><path d="M194.131 83.796c-45.285 3.022-65.119 13.716-78.55 23.776a413.317 413.317 0 00-6.408 4.914c-5.565 4.331-11.323 8.809-17.19 12.07a51.844 51.844 0 01-4.76 2.318c-8.21 3.477-17.19 4.373-27.456 2.704a52.107 52.107 0 01-13.474-4.091 147.413 147.413 0 01-7.05-3.516c-5.673-2.986-11.392-6.181-16.922-9.303l-3.713-2.086c-9.668-5.409-19.254-9.47-28.512-12.078-18.683-5.265-34.368-5.59-47.953-.985a59.958 59.958 0 00-7.696 3.222c-4.857 2.465-10.785 7.302-17.062 12.421-7.498 6.12-15.252 12.448-21.393 14.739-15.182 5.707-27.313-2.735-40.195-11.698-4.71-3.276-9.575-6.661-14.768-9.5l-3.164-1.72c-6.644-3.623-13.516-7.371-20.391-10.43-15.627-7.01-28.424-9.62-40.269-8.218l-.081-.684c11.988-1.418 24.889 1.21 40.632 8.271 6.899 3.091 13.786 6.843 20.442 10.47l3.163 1.723c5.225 2.856 10.109 6.255 14.831 9.539 12.711 8.824 24.715 17.181 39.557 11.606 6.036-2.256 13.744-8.546 21.2-14.627 6.307-5.146 12.262-10.002 17.185-12.506a60.764 60.764 0 017.785-3.26c13.713-4.637 29.53-4.332 48.34.973 9.311 2.623 18.948 6.711 28.659 12.143l3.716 2.086c5.526 3.091 11.242 6.313 16.903 9.292a142.374 142.374 0 007.02 3.5 51.63 51.63 0 0013.294 4.041c10.133 1.661 18.988.773 27.07-2.646a51.49 51.49 0 004.695-2.318c5.801-3.238 11.555-7.7 17.101-12.012 2.1-1.63 4.254-3.319 6.419-4.922 24.077-18.038 53.402-22.21 78.917-23.91l.078.702z" fill="url(#paint1_radial_840_7740)"/><path d="M194.293 78.469c-33.71.981-60.227 9.434-81.067 25.846a490.829 490.829 0 00-7.259 5.9c-5.383 4.443-10.948 9.04-16.551 12.575a64.604 64.604 0 01-4.722 2.705c-8.446 4.319-17.437 5.961-27.484 5.022a35.315 35.315 0 01-13.93-4.192c-2.095-1.159-4.253-2.48-6.933-4.25-5.128-3.392-10.306-6.954-15.314-10.431l-4.69-3.237A94.26 94.26 0 00-13.16 94.861c-18.625-4.81-33.355-4.925-46.356-.363a56.88 56.88 0 00-7.413 3.191c-4.668 2.423-10.287 7.02-16.242 11.892-7.348 6.008-14.924 12.216-21.022 14.442-14.661 5.408-26.432-2.705-38.892-11.34-4.59-3.171-9.339-6.455-14.398-9.191l-1.314-.711c-7.41-4.002-15.063-8.136-22.763-11.397-15.789-6.68-28.856-9.16-41.115-7.796l-.077-.688c12.374-1.375 25.558 1.117 41.463 7.847 7.735 3.26 15.399 7.418 22.816 11.436l1.319.71c5.089 2.751 9.854 6.047 14.459 9.23 12.31 8.5 23.934 16.547 38.262 11.258 5.986-2.186 13.535-8.356 20.817-14.325 5.982-4.895 11.629-9.52 16.358-11.977a57.98 57.98 0 017.502-3.234c13.149-4.609 27.998-4.5 46.762.348a94.965 94.965 0 0129.723 13.646l4.702 3.241c5.004 3.477 10.179 7.035 15.303 10.431 2.683 1.778 4.807 3.091 6.887 4.25a34.608 34.608 0 0013.663 4.041c9.911.928 18.779-.687 27.105-4.945 1.547-.773 3.093-1.684 4.663-2.666 5.565-3.508 11.115-8.09 16.482-12.521 2.375-1.959 4.83-3.987 7.271-5.911 20.959-16.505 47.612-25.008 81.477-25.993l.011.703z" fill="url(#paint2_radial_840_7740)"/><path d="M194.479 72.446v.692c-22.542-.143-55.343 4.59-83.589 27.921-2.823 2.318-5.658 4.802-8.396 7.19-5.104 4.45-10.383 9.052-15.63 12.772a72.63 72.63 0 01-4.676 3.056c-8.709 5.212-17.708 7.611-27.515 7.341-5.476-.155-10.317-1.573-14.397-4.219a84.026 84.026 0 01-6.818-5.023c-4.01-3.214-8.048-6.567-11.957-9.809-2.457-2.027-4.93-4.071-7.417-6.131a75.823 75.823 0 00-30.5-15.01c-18.474-4.361-32.28-4.28-44.767.263a55.53 55.53 0 00-7.139 3.156c-4.466 2.377-9.784 6.738-15.414 11.355-7.174 5.888-14.595 11.977-20.643 14.144-14.177 5.096-25.589-2.731-37.666-11.018-4.451-3.052-9.049-6.209-13.922-8.832l-.224-.12c-7.936-4.25-16.138-8.662-24.386-11.946-15.949-6.332-29.283-8.692-41.978-7.367l-.074-.692c12.804-1.333 26.25 1.028 42.291 7.426 8.288 3.3 16.509 7.727 24.456 11.976l.224.12c4.923 2.643 9.541 5.795 14.003 8.886 11.931 8.187 23.203 15.918 37.044 10.941 5.936-2.132 13.307-8.182 20.438-14.028 5.654-4.636 10.998-9.02 15.526-11.432a55.78 55.78 0 017.22-3.199c12.627-4.593 26.556-4.678 45.165-.285a76.513 76.513 0 0130.782 15.148c2.496 2.045 4.97 4.089 7.422 6.131 3.905 3.242 7.943 6.591 11.945 9.806 1.79 1.437 4.177 3.299 6.76 4.976 3.987 2.561 8.697 3.941 14.042 4.091 9.668.267 18.562-2.101 27.14-7.244a69.812 69.812 0 004.64-3.025c5.22-3.697 10.484-8.291 15.577-12.73 2.742-2.391 5.58-4.864 8.411-7.201 28.393-23.467 61.364-28.223 84.022-28.08z" fill="url(#paint3_radial_840_7740)"/><path d="M194.679 67.115l-.027.691a123.854 123.854 0 00-86.11 29.992c-3.299 2.848-6.574 5.865-9.76 8.786-4.966 4.559-9.669 8.886-14.483 12.668a90.363 90.363 0 01-4.64 3.415c-8.977 6.182-17.983 9.33-27.543 9.659-5.75.201-10.746-1.236-14.853-4.277a70.919 70.919 0 01-6.698-5.768c-3.152-3.006-6.323-6.116-9.39-9.126-3.066-3.009-6.187-6.069-9.35-9.09a65.44 65.44 0 00-31.502-16.478c-12.116-2.6-27.971-4.849-43.197.877a53.069 53.069 0 00-6.856 3.126c-4.254 2.318-9.281 6.448-14.564 10.817-7.019 5.776-14.277 11.749-20.291 13.862-13.682 4.807-24.749-2.704-36.44-10.697-4.308-2.933-8.763-5.97-13.481-8.5-7.688-4.095-16.404-8.74-25.136-12.008-15.813-5.922-29.797-8.19-42.798-6.934l-.066-.688c13.09-1.275 27.194 1.016 43.119 7 8.778 3.288 17.514 7.94 25.222 12.047 4.752 2.53 9.223 5.575 13.535 8.499 11.551 7.874 22.468 15.307 35.821 10.617 5.897-2.071 13.106-8.005 20.078-13.742 5.325-4.382 10.356-8.523 14.672-10.884a54.164 54.164 0 016.961-3.168c15.376-5.795 31.363-3.539 43.568-.915a66.1 66.1 0 0131.834 16.651c3.171 3.025 6.315 6.112 9.359 9.098 3.043 2.987 6.233 6.12 9.381 9.118a70.332 70.332 0 006.628 5.722c4.03 2.986 8.748 4.342 14.417 4.142 9.42-.329 18.311-3.45 27.175-9.539a83.253 83.253 0 004.598-3.389c4.807-3.786 9.486-8.086 14.444-12.637 3.178-2.924 6.469-5.946 9.776-8.797a124.53 124.53 0 0186.597-30.15z" fill="url(#paint4_radial_840_7740)"/><path d="M194.872 61.783l-.05.692c-31.173-2.214-63.479 9.477-88.635 32.066-3.867 3.477-7.7 7.179-11.4 10.756-4.494 4.343-8.737 8.442-13.056 12.189a108.006 108.006 0 01-4.598 3.771c-9.243 7.186-18.261 11.107-27.565 11.977-6.014.568-11.165-.889-15.31-4.335a62.888 62.888 0 01-6.575-6.522 761.894 761.894 0 01-7.823-8.886c-3.33-3.82-6.775-7.773-10.286-11.613C1.108 92.633-10.15 86.424-22.934 83.94c-22.367-4.35-33.977-1.48-41.591 1.507a51.97 51.97 0 00-6.574 3.09c-4.053 2.28-8.748 6.159-13.72 10.266-6.861 5.667-13.957 11.528-19.936 13.58-13.191 4.52-23.891-2.705-35.222-10.378-4.165-2.812-8.469-5.725-13.017-8.113-9.037-4.779-17.209-8.978-25.666-11.953-15.914-5.622-30.191-7.77-43.66-6.537l-.062-.692c13.57-1.232 27.944.92 43.946 6.568 8.508 2.994 16.698 7.205 25.763 11.977 4.579 2.422 8.894 5.343 13.079 8.167 11.184 7.561 21.745 14.681 34.611 10.292 5.859-2.009 12.904-7.827 19.722-13.456 4.997-4.126 9.715-8.024 13.822-10.335a52.293 52.293 0 016.663-3.133c7.7-3.025 19.432-5.93 41.974-1.545 12.95 2.518 24.32 8.793 32.87 18.158 3.52 3.844 6.961 7.796 10.299 11.621 2.552 2.925 5.19 5.95 7.815 8.886a63.851 63.851 0 006.505 6.452c4.056 3.369 8.894 4.733 14.803 4.176 9.282-.877 17.944-4.636 27.206-11.841a95.697 95.697 0 004.567-3.748c4.308-3.736 8.546-7.831 13.028-12.162 3.709-3.574 7.576-7.275 11.443-10.76 25.288-22.713 57.779-34.465 89.138-32.244z" fill="url(#paint5_radial_840_7740)"/><path d="M195.066 56.452l-.066.688c-31.258-3.145-64.516 9.303-91.161 34.145-4.575 4.25-9.064 8.824-13.403 13.232-3.887 3.949-7.557 7.681-11.273 11.204a141.75 141.75 0 01-4.555 4.134c-9.63 8.372-18.4 12.916-27.597 14.295-6.245.95-11.558-.529-15.758-4.385a59.904 59.904 0 01-6.458-7.275c-2.32-2.975-4.64-6.05-6.868-9.021-3.415-4.536-6.961-9.226-10.612-13.746C-3.246 86.676-16.738 81.95-26.198 80.317-38.244 78.21-52.417 76.84-66.2 82.449a50.564 50.564 0 00-6.295 3.06c-3.844 2.226-8.23 5.869-12.874 9.72-6.702 5.56-13.628 11.309-19.579 13.295-12.7 4.25-23.052-2.705-34.012-10.045-4.018-2.705-8.171-5.482-12.541-7.773-8.798-4.617-17.402-9.002-26.2-11.904-15.956-5.308-30.512-7.313-44.5-6.131l-.058-.688c14.085-1.19 28.733.823 44.782 6.155 8.825 2.917 17.476 7.313 26.297 11.946 4.404 2.318 8.573 5.107 12.607 7.811 10.828 7.252 21.029 14.102 33.404 9.976 5.828-1.932 12.708-7.654 19.36-13.17 4.667-3.864 9.075-7.534 12.966-9.787a50.903 50.903 0 016.384-3.09c13.945-5.695 28.23-4.293 40.381-2.176 9.575 1.673 23.234 6.44 33.93 19.658 3.67 4.528 7.21 9.222 10.628 13.765 2.239 2.967 4.551 6.039 6.864 9.01a58.383 58.383 0 006.38 7.189c4.034 3.709 9.143 5.127 15.187 4.215 9.057-1.367 17.715-5.86 27.244-14.14a133.28 133.28 0 004.532-4.114c3.705-3.512 7.375-7.237 11.258-11.181 4.343-4.431 8.828-8.994 13.423-13.267 26.807-24.981 60.231-37.495 91.698-34.33z" fill="url(#paint6_radial_840_7740)"/><path d="M195.263 51.124l-.089.683c-31.003-3.987-66.028 9.55-93.694 36.22-5.46 5.266-10.75 10.922-15.855 16.393-3.117 3.33-6.06 6.479-9.026 9.531a189.95 189.95 0 01-4.517 4.489c-10.008 9.636-18.523 14.762-27.619 16.613-6.505 1.333-11.957-.166-16.207-4.447-2.456-2.476-4.498-5.32-6.338-8.024-2.104-3.091-4.204-6.294-6.23-9.384-3.396-5.181-6.911-10.54-10.616-15.659-8.16-11.273-20.422-18.688-34.522-20.863-11.574-1.796-25.19-2.874-38.416 2.755a48.578 48.578 0 00-6.014 3.033c-3.63 2.167-7.71 5.57-12.034 9.172-6.536 5.455-13.296 11.092-19.224 13.012-12.205 3.956-22.209-2.705-32.801-9.736-3.867-2.573-7.874-5.235-12.066-7.418-8.894-4.636-17.661-9.037-26.725-11.85-15.972-4.98-30.806-6.841-45.351-5.702l-.054-.691c14.637-1.16 29.553.73 45.609 5.733 9.123 2.828 17.902 7.24 26.842 11.896 4.223 2.198 8.241 4.872 12.128 7.456 10.441 6.954 20.318 13.522 32.205 9.659 5.801-1.882 12.507-7.476 18.996-12.885 4.339-3.62 8.442-7.043 12.12-9.237a49.167 49.167 0 016.102-3.091c13.38-5.699 27.116-4.617 38.788-2.805 14.285 2.218 26.71 9.728 34.978 21.152 3.712 5.135 7.232 10.497 10.635 15.682 2.026 3.091 4.122 6.286 6.222 9.377 1.821 2.677 3.84 5.494 6.257 7.928 4.076 4.106 9.316 5.536 15.577 4.249 8.956-1.835 17.371-6.907 27.279-16.446a183.226 183.226 0 004.497-4.474c2.963-3.048 5.905-6.182 9.019-9.52 5.12-5.474 10.418-11.138 15.893-16.42 27.805-26.788 63.039-40.4 94.251-36.381z" fill="url(#paint7_radial_840_7740)"/><path d="M195.453 45.791l-.105.684c-31.269-4.856-67.238 9.458-96.187 38.295-6.606 6.568-12.894 13.66-18.973 20.519a2144.524 2144.524 0 01-6.14 6.892 255.492 255.492 0 01-4.479 4.849c-7.317 7.726-16.323 16.044-27.646 18.93-6.745 1.723-12.344.209-16.648-4.504-2.444-2.674-4.432-5.796-6.219-8.774-1.96-3.273-3.898-6.645-5.773-9.91-3.318-5.795-6.748-11.745-10.442-17.405-8.094-12.378-20.728-20.314-35.55-22.33-10.422-1.418-24.023-2.319-36.823 3.38a46.902 46.902 0 00-5.74 2.998c-3.414 2.106-7.192 5.274-11.19 8.631-6.37 5.343-12.96 10.872-18.865 12.726-11.717 3.674-21.377-2.704-31.602-9.423-3.72-2.45-7.568-4.987-11.602-7.058-8.678-4.486-17.936-9.091-27.255-11.795-15.701-4.59-31.243-6.367-46.178-5.282l-.05-.691c15.016-1.09 30.643.695 46.436 5.308 9.382 2.724 18.671 7.34 27.38 11.845 4.045 2.09 7.908 4.636 11.648 7.097 10.085 6.642 19.606 12.916 31.01 9.338 5.778-1.812 12.31-7.294 18.629-12.594 4.017-3.373 7.815-6.568 11.272-8.693a48.803 48.803 0 015.805-3.04c12.959-5.765 26.683-4.86 37.198-3.435 15.028 2.043 27.82 10.091 36.023 22.655 3.704 5.679 7.138 11.656 10.441 17.44 1.876 3.26 3.813 6.633 5.77 9.898 1.763 2.948 3.728 6.034 6.133 8.665 4.119 4.509 9.49 5.954 15.968 4.297 11.152-2.855 20.066-11.081 27.313-18.746a220.889 220.889 0 004.467-4.841c2.019-2.241 4.064-4.547 6.137-6.884 6.087-6.866 12.375-13.967 19-20.554 29.162-28.987 65.35-43.379 96.837-38.488z" fill="url(#paint8_radial_840_7740)"/><path d="M195.65 40.461l-.124.684c-31.602-5.707-68.522 9.384-98.736 40.365-8.121 8.326-15.674 17.355-22.975 26.082l-2.359 2.821a430.902 430.902 0 01-4.436 5.207c-7.834 9.049-16.628 17.884-27.673 21.249-6.98 2.129-12.73.595-17.093-4.555-2.436-2.878-4.37-6.278-6.09-9.527-1.845-3.477-3.659-7.054-5.415-10.524C7.544 105.927 4.23 99.375.571 93.197-7.453 79.675-20.43 71.199-35.977 69.383c-9.916-1.16-22.879-1.75-35.234 4.002a46.031 46.031 0 00-5.457 2.967c-3.198 2.036-6.674 4.977-10.352 8.087-6.187 5.239-12.615 10.655-18.504 12.44-11.215 3.404-20.547-2.674-30.408-9.106-3.569-2.318-7.262-4.737-11.091-6.7-8.821-4.52-18.233-9.148-27.785-11.74a142.222 142.222 0 00-47.036-4.85l-.047-.69a143.064 143.064 0 0147.257 4.887c9.614 2.611 19.065 7.259 27.917 11.795 3.867 1.978 7.572 4.396 11.156 6.734 9.723 6.343 18.907 12.332 29.828 9.025 5.754-1.743 12.108-7.117 18.257-12.31 3.697-3.125 7.193-6.076 10.441-8.14a45.981 45.981 0 015.538-3.01c12.51-5.825 25.6-5.23 35.605-4.064C-20.13 70.55-6.966 79.142 1.17 92.86c3.67 6.182 6.988 12.75 10.198 19.11 1.752 3.477 3.566 7.043 5.414 10.508 1.706 3.214 3.616 6.568 6.01 9.408 4.165 4.918 9.668 6.378 16.358 4.338 10.898-3.33 19.58-12.081 27.348-21.052 1.427-1.649 2.916-3.4 4.428-5.2l2.36-2.82c7.308-8.74 14.868-17.772 23.009-26.121 30.38-31.147 67.524-46.315 99.355-40.57z" fill="url(#paint9_radial_840_7740)"/><path d="M195.84 35.149l-.14.676c-31.981-6.54-69.84 9.326-101.265 42.448-9.254 9.755-17.696 20.364-25.554 30.393a831.312 831.312 0 01-4.397 5.568c-7.421 9.303-16.296 19.564-27.7 23.567-7.213 2.538-13.11.989-17.53-4.606-2.429-3.09-4.304-6.757-5.971-10.276-1.744-3.694-3.45-7.507-5.097-11.204-3.094-6.885-6.253-14.002-9.861-20.67C-9.638 76.322-22.98 67.34-39.237 65.76c-13.922-1.356-24.313.07-33.644 4.636-1.79.86-3.52 1.84-5.178 2.932-2.978 1.963-6.157 4.671-9.521 7.542-6.025 5.134-12.26 10.431-18.141 12.158-10.739 3.126-19.723-2.662-29.213-8.793-3.418-2.206-6.96-4.486-10.599-6.336-8.972-4.559-18.563-9.218-28.316-11.69a155.114 155.114 0 00-47.887-4.444l-.042-.691a155.878 155.878 0 0148.107 4.454c9.834 2.492 19.452 7.167 28.458 11.745 3.678 1.866 7.228 4.157 10.662 6.375 9.363 6.042 18.207 11.748 28.644 8.708 5.739-1.673 11.915-6.931 17.886-12.023 3.38-2.878 6.574-5.602 9.587-7.592a45.286 45.286 0 015.259-2.975c9.447-4.617 19.939-6.065 34.011-4.694C-22.653 66.674-9.12 75.784-1.06 90.717c3.62 6.691 6.802 13.819 9.884 20.716 1.644 3.685 3.345 7.495 5.09 11.204 1.647 3.477 3.499 7.12 5.889 10.141 4.215 5.32 9.853 6.792 16.756 4.366 11.215-3.949 20.024-14.125 27.387-23.355a723.015 723.015 0 004.394-5.563c7.865-10.045 16.323-20.666 25.596-30.44 31.591-33.3 69.686-49.244 101.904-42.637z" fill="url(#paint10_radial_840_7740)"/><path d="M196.036 29.802l-.155.676C163.475 23.11 124.676 39.75 92.087 75c-7.92 8.57-15.855 18.402-25.775 31.881l-1.02 1.391a1546.595 1546.595 0 01-3.338 4.536c-7.873 10.659-16.501 21.442-27.727 25.885-7.348 2.909-13.535 1.302-17.967-4.659-2.46-3.323-4.254-7.264-5.847-11.027-1.71-4.029-3.357-8.194-4.95-12.224-2.889-7.309-5.878-14.87-9.378-21.917-7.8-15.709-21.861-25.464-38.575-26.758-12.94-1.005-23.126.664-32.051 5.25a42.925 42.925 0 00-4.9 2.902c-2.753 1.885-5.638 4.365-8.69 6.992-5.846 5.023-11.895 10.243-17.788 11.88-10.256 2.856-18.887-2.65-28.029-8.48-3.264-2.082-6.644-4.25-10.101-5.976-9.134-4.602-18.887-9.292-28.841-11.641-15.291-3.624-31.684-4.976-48.727-4.022l-.038-.688c17.116-.962 33.578.387 48.931 4.038 10.027 2.368 19.823 7.074 29.004 11.694 3.48 1.758 6.879 3.922 10.159 6.012 9.006 5.745 17.514 11.17 27.456 8.395 5.735-1.595 11.722-6.75 17.51-11.733 3.067-2.643 5.968-5.135 8.748-7.043a44.985 44.985 0 014.985-2.936c9.045-4.636 19.336-6.336 32.422-5.324 16.965 1.317 31.231 11.204 39.144 27.144C.215 95.646 3.208 103.22 6.1 110.54c1.593 4.026 3.237 8.187 4.946 12.208 1.566 3.729 3.349 7.623 5.766 10.888 4.254 5.76 10.055 7.247 17.155 4.423 11.056-4.385 19.61-15.067 27.425-25.661a1857.49 1857.49 0 003.338-4.535l1.02-1.391c9.92-13.5 17.882-23.35 25.826-31.94 32.758-35.431 71.809-52.152 104.459-44.73z" fill="url(#paint11_radial_840_7740)"/><path d="M196.226 24.474l-.17.672c-32.956-8.214-72.703 9.206-106.324 46.597-8.322 9.195-16.826 20.109-25.995 33.372l-2.962 4.308-1.357 1.978c-8.3 12.085-16.668 23.335-27.755 28.203-7.568 3.327-13.922 1.7-18.4-4.709-2.452-3.512-4.2-7.727-5.723-11.776-1.62-4.25-3.16-8.65-4.64-12.904-2.754-7.851-5.597-15.972-9.05-23.513-7.754-16.945-22.186-27.237-39.592-28.23-12.104-.696-21.783 1.159-30.458 5.872a42.935 42.935 0 00-4.64 2.867c-2.522 1.8-5.112 4.06-7.858 6.452-5.666 4.934-11.52 10.045-17.402 11.59-9.765 2.593-18.06-2.635-26.846-8.163-3.094-1.959-6.327-3.987-9.595-5.618-9.312-4.636-19.25-9.368-29.39-11.59-15.21-3.346-31.424-4.524-49.577-3.6l-.035-.692c18.215-.928 34.491.259 49.759 3.616 10.205 2.237 20.187 6.977 29.537 11.644 3.299 1.646 6.532 3.682 9.668 5.649 8.651 5.447 16.822 10.593 26.297 8.082 5.727-1.518 11.524-6.568 17.127-11.447 2.758-2.403 5.364-4.675 7.913-6.491a44.452 44.452 0 014.702-2.905c8.794-4.76 18.59-6.653 30.83-5.954 17.672 1.012 32.317 11.448 40.183 28.636 3.48 7.569 6.315 15.705 9.072 23.567 1.489 4.25 3.028 8.643 4.64 12.888 1.509 3.999 3.237 8.172 5.643 11.626 5.379 7.726 12.518 6.687 17.557 4.47 10.92-4.803 19.22-15.968 27.457-27.968l1.357-1.978c.994-1.445 1.98-2.886 2.966-4.308 9.185-13.29 17.708-24.227 26.05-33.446 33.802-37.575 73.804-55.073 107.011-46.797z" fill="url(#paint12_radial_840_7740)"/><path d="M196.421 19.142l-.178.669c-33.424-9.021-74.118 9.175-108.857 48.68-8.79 9.928-17.615 21.67-26.215 34.859a843.496 843.496 0 00-4.06 6.298l-.225.347c-7.085 11.057-15.902 24.811-27.778 30.521-9.85 4.741-15.681.031-18.837-4.752-2.444-3.709-4.134-8.209-5.6-12.525-1.546-4.481-2.97-9.118-4.365-13.599-2.607-8.392-5.302-17.065-8.702-25.093C-16.13 66.319-30.914 55.49-49 54.84c-11.102-.387-20.542 1.723-28.872 6.494a42.948 42.948 0 00-4.335 2.836c-2.29 1.704-4.598 3.744-7.038 5.903-5.476 4.837-11.134 9.84-17.016 11.316-9.281 2.318-17.607-2.847-25.662-7.854-2.955-1.835-6.01-3.732-9.092-5.254-9.498-4.694-19.633-9.45-29.905-11.533-15.047-3.056-31.068-4.072-50.447-3.183l-.034-.688c19.44-.892 35.516.124 50.594 3.195 10.352 2.098 20.53 6.877 30.075 11.59 3.093 1.546 6.187 3.443 9.145 5.286 8.299 5.157 16.138 10.025 25.137 7.773 5.731-1.437 11.327-6.382 16.737-11.165 2.456-2.172 4.772-4.223 7.085-5.942a43.936 43.936 0 014.416-2.883c8.438-4.833 18.005-6.989 29.235-6.567 18.37.66 33.397 11.64 41.224 30.134 3.411 8.06 6.11 16.752 8.725 25.155 1.392 4.482 2.83 9.11 4.362 13.584 1.446 4.273 3.12 8.728 5.522 12.363 5.441 8.253 12.762 7.012 17.955 4.517 11.702-5.629 20.462-19.294 27.5-30.274l.22-.348c1.361-2.121 2.707-4.25 4.064-6.301C69.218 89.77 78.06 78.017 86.891 68.05c34.894-39.724 75.847-58.014 109.53-48.908z" fill="url(#paint13_radial_840_7740)"/><path d="M196.613 13.815l-.194.664c-33.907-9.824-75.548 9.15-111.374 50.755A280.378 280.378 0 0058.594 101.6a485.485 485.485 0 00-4.01 6.614l-.232.387c-7.514 12.517-16.026 26.708-27.81 32.839-7.907 4.118-14.748 2.411-19.265-4.806-2.44-3.898-4.076-8.681-5.476-13.271-1.45-4.721-2.796-9.601-4.095-14.322-2.46-8.917-5-18.139-8.346-26.658-7.572-19.27-23.133-30.93-41.626-31.185-10.105-.136-19.282 2.256-27.275 7.12a41.64 41.64 0 00-4.068 2.805c-2.054 1.592-4.08 3.419-6.23 5.35-5.271 4.745-10.724 9.66-16.629 11.042-8.79 2.064-16.768-2.82-24.483-7.537-2.8-1.715-5.692-3.477-8.581-4.895-9.718-4.744-20.059-9.535-30.462-11.482-14.695-2.763-30.508-3.613-51.267-2.763l-.027-.691c20.813-.854 36.673 0 51.434 2.774 10.48 1.962 20.882 6.776 30.612 11.54 2.92 1.425 5.828 3.207 8.639 4.926 7.599 4.636 15.469 9.454 23.977 7.456 5.746-1.348 11.133-6.181 16.338-10.883 2.158-1.932 4.196-3.775 6.269-5.386a43.63 43.63 0 014.13-2.847c8.121-4.93 17.402-7.36 27.646-7.22 18.76.258 34.569 12.072 42.249 31.621 3.357 8.542 5.901 17.772 8.365 26.72 1.303 4.713 2.645 9.589 4.091 14.295 1.388 4.543 3.005 9.272 5.414 13.104 5.507 8.801 13.025 7.341 18.358 4.563 11.601-6.042 20.07-20.144 27.534-32.584l.236-.386c1.314-2.191 2.672-4.455 4.014-6.622a281.096 281.096 0 0126.501-36.44c36.011-41.815 77.916-60.865 112.094-50.963z" fill="url(#paint14_radial_840_7740)"/><path d="M196.802 8.49l-.204.661C162.18-1.473 119.599 18.276 82.683 61.984a268.038 268.038 0 00-26.66 37.861c-1.377 2.346-2.707 4.722-4.208 7.364l-.228.387c-7.812 13.869-15.894 28.203-27.608 34.771-8.14 4.547-15.136 2.82-19.699-4.861-2.29-3.832-3.794-8.376-5.348-14.016-1.37-4.961-2.622-10.092-3.836-15.068-2.32-9.446-4.691-19.209-7.975-28.203-7.548-20.638-23.492-32.84-42.643-32.661a47.425 47.425 0 00-25.685 7.727 43.284 43.284 0 00-3.79 2.773c-1.81 1.476-3.65 3.169-5.414 4.807-5.066 4.636-10.302 9.469-16.242 10.763-8.303 1.804-15.929-2.785-23.308-7.225-2.641-1.587-5.371-3.233-8.07-4.535-10.329-4.992-20.473-9.624-30.965-11.432-17.812-3.09-35.577-2.94-52.113-2.337l-.024-.692c16.579-.603 34.383-.734 52.253 2.349 10.581 1.823 20.775 6.475 31.15 11.49 2.707 1.317 5.472 2.967 8.121 4.566 7.263 4.366 14.769 8.886 22.817 7.14 5.762-1.256 10.928-6.004 15.924-10.597 1.787-1.642 3.636-3.342 5.465-4.834a44.648 44.648 0 013.867-2.816 48.086 48.086 0 0126.01-7.839 42.044 42.044 0 0125.067 7.986c8.013 5.749 14.309 14.445 18.23 25.143 3.299 9.021 5.689 18.803 7.997 28.265 1.21 4.957 2.464 10.084 3.833 15.033 1.547 5.59 3.024 10.083 5.275 13.85 3.07 5.169 8.817 10.165 18.767 4.605 11.543-6.448 19.575-20.7 27.34-34.485l.229-.386a493.044 493.044 0 014.211-7.375 268.842 268.842 0 0126.722-37.97C119.27 17.604 162.114-2.227 196.802 8.49z" fill="url(#paint15_radial_840_7740)"/><path d="M196.999 3.155l-.213.657c-50.485-16.5-110.318 34.922-143.332 94.245-1.612 2.897-3.245 5.977-4.822 8.951-7.638 14.396-15.527 29.281-27.202 36.24-4.165 2.48-8.21 3.307-11.686 2.387-3.353-.885-6.188-3.338-8.442-7.294-2.297-4.041-3.752-8.824-5.225-14.766-1.292-5.204-2.456-10.586-3.577-15.794-2.154-9.964-4.378-20.268-7.607-29.725-7.42-21.744-24.15-34.825-43.656-34.138-8.411.298-16.52 3.11-24.096 8.36-2.831 1.96-5.538 4.506-8.18 6.998-4.841 4.574-9.849 9.299-15.831 10.485-7.816 1.545-15.082-2.747-22.132-6.904-2.483-1.468-5.051-2.983-7.557-4.18-10.58-5.046-20.948-9.713-31.498-11.378-17.549-2.766-35.063-2.488-52.956-1.932l-.024-.691c17.929-.568 35.482-.85 53.089 1.931 10.642 1.681 21.06 6.371 31.687 11.44 2.533 1.21 5.113 2.732 7.611 4.207 6.926 4.092 14.088 8.322 21.656 6.823 5.801-1.159 10.72-5.795 15.492-10.311 2.64-2.492 5.375-5.073 8.244-7.063 7.688-5.328 15.918-8.183 24.464-8.5 19.827-.695 36.815 12.565 44.34 34.605 3.242 9.497 5.469 19.82 7.627 29.807 1.121 5.2 2.282 10.574 3.573 15.771 1.462 5.884 2.897 10.62 5.155 14.592 2.127 3.801 4.834 6.15 8.005 6.989 3.295.869 7.15.069 11.157-2.318 11.52-6.858 19.366-21.655 26.95-35.969 1.578-2.979 3.214-6.058 4.83-8.963 33.169-59.57 93.311-111.182 144.156-94.562z" fill="url(#paint16_radial_840_7740)"/><path d="M196.923 4.82l-.201.66c-18.099-5.517-38.192-2.704-59.721 8.291C118.118 23.43 98.809 39.24 81.16 59.48A251.54 251.54 0 0055.96 93.795c-1.67 2.735-3.36 5.648-4.992 8.461-1.435 2.469-2.916 5.022-4.417 7.506-6.137 10.231-13.133 20.426-22.53 25.677-8.12 4.559-15.105 2.89-19.722-4.71-2.487-4.091-4.1-9.071-5.476-13.846-1.377-4.775-2.668-9.779-3.906-14.573-2.405-9.326-4.896-18.974-8.256-27.79-7.808-20.476-24.22-32.348-42.84-30.985-8.265.607-16.475 3.748-24.398 9.338-2.835 2.005-5.57 4.544-8.214 7-5.066 4.703-10.302 9.567-16.498 10.927a19.624 19.624 0 01-7.78.08c-5.6-1.004-11.08-4.056-16.382-7.008-2.134-1.19-4.342-2.418-6.489-3.477-2.498-1.22-5.004-2.476-7.498-3.724l-1.06-.53c-6.655-3.295-14.579-6.919-22.87-8.777a168.096 168.096 0 00-17.789-2.975 208.482 208.482 0 00-35.794-.95l-.039-.688a209.095 209.095 0 0135.914.958 169.384 169.384 0 0117.843 2.987c8.365 1.877 16.335 5.52 23.029 8.835l1.06.53a898.77 898.77 0 007.494 3.72c2.162 1.059 4.378 2.291 6.52 3.477 5.252 2.925 10.681 5.95 16.169 6.931 2.482.478 5.034.453 7.506-.073 6.013-1.322 11.18-6.116 16.176-10.756 2.661-2.473 5.414-5.023 8.288-7.059 8.028-5.667 16.354-8.85 24.75-9.465 18.949-1.387 35.616 10.655 43.536 31.43 3.376 8.854 5.87 18.517 8.28 27.862 1.237 4.795 2.517 9.748 3.902 14.554 1.36 4.729 2.958 9.658 5.414 13.68 3.093 5.116 8.894 10.045 18.794 4.466 9.281-5.177 16.188-15.279 22.279-25.429a474.335 474.335 0 004.408-7.499c1.636-2.816 3.326-5.73 5-8.472A252.343 252.343 0 0180.641 59.02c17.704-20.299 37.083-36.162 56.032-45.863 21.706-11.104 41.974-13.908 60.25-8.337z" fill="url(#paint17_radial_840_7740)"/><path d="M196.853 6.481l-.19.665c-32.573-9.168-73.8 9.489-113.11 51.183a245.37 245.37 0 00-25.078 31.205c-1.737 2.573-3.48 5.316-5.198 7.97-1.388 2.164-2.823 4.405-4.273 6.591-6.153 9.354-13.121 18.676-22.38 23.532-10.081 5.29-16.071.468-19.335-4.512-2.552-3.91-4.324-8.731-5.724-12.931-1.465-4.385-2.85-8.886-4.184-13.24-2.676-8.724-5.445-17.745-8.964-25.962-8.19-19.144-24.293-29.807-42.02-27.817-8.121.904-16.42 4.373-24.696 10.315-2.83 2.036-5.58 4.551-8.237 6.982-5.283 4.821-10.755 9.844-17.178 11.389a21.217 21.217 0 01-7.947.325c-6.369-.877-12.657-4.227-18.736-7.465-1.621-.861-3.299-1.758-4.927-2.573-2.545-1.27-5.298-2.724-8.659-4.578-6.628-3.655-14.509-7.727-22.704-10.107a158.93 158.93 0 00-17.711-4.08c-12.375-2.132-25.005-2.77-36.471-1.842l-.055-.692c11.521-.931 24.193-.29 36.646 1.855a160.763 160.763 0 0117.788 4.095c8.257 2.414 16.181 6.494 22.844 10.164 3.353 1.851 6.094 3.3 8.635 4.567 1.632.82 3.314 1.715 4.938 2.58 6.029 3.211 12.259 6.53 18.505 7.392 2.561.38 5.17.274 7.692-.313 6.245-1.503 11.655-6.448 16.888-11.227 2.672-2.446 5.437-4.973 8.298-7.032 8.377-6.015 16.795-9.527 25.029-10.431 18.04-2.01 34.417 8.812 42.732 28.25 3.53 8.248 6.307 17.288 8.987 26.031 1.334 4.347 2.707 8.844 4.18 13.225 1.385 4.157 3.137 8.928 5.646 12.768 5.6 8.562 13.11 7.04 18.42 4.258 9.118-4.783 16.021-14.028 22.12-23.304 1.45-2.183 2.885-4.42 4.254-6.568 1.705-2.658 3.48-5.409 5.209-7.982a245.468 245.468 0 0125.136-31.294c17.789-18.865 36.785-33.654 54.941-42.764 21.358-10.722 41.162-13.615 58.889-8.628z" fill="url(#paint18_radial_840_7740)"/><path d="M196.78 8.146l-.174.669C154.697-1.968 109.286 34.49 85.947 57.169a244.985 244.985 0 00-24.962 28.1c-1.884 2.503-3.806 5.188-5.666 7.784-1.276 1.781-2.56 3.582-3.867 5.362-6.234 8.527-13.24 17-22.22 21.392-5.395 2.655-13.06 4.03-18.919-4.3-2.614-3.716-4.485-8.155-5.97-12.011A656.587 656.587 0 01-.023 91.751c-3.094-8.554-6.056-16.613-9.761-24.297-8.585-17.749-24.363-27.206-41.205-24.687-8.063 1.209-16.242 4.902-25 11.296-2.812 2.06-5.562 4.536-8.219 6.931-5.541 4.992-11.269 10.153-17.932 11.88a22.974 22.974 0 01-8.121.576c-7.382-.726-14.722-4.543-21.822-8.237-.882-.456-1.76-.915-2.634-1.36-2.772-1.414-5.638-3.017-8.755-4.906-7.026-4.25-14.621-8.577-22.538-11.436a150.147 150.147 0 00-17.649-5.185c-12.998-2.97-25.844-3.918-37.148-2.74l-.074-.687c11.381-1.186 24.305-.232 37.376 2.75a150.81 150.81 0 0117.731 5.213c7.974 2.878 15.604 7.224 22.662 11.493 3.094 1.878 5.951 3.478 8.713 4.88.874.448 1.751.908 2.637 1.368 7.038 3.658 14.308 7.445 21.567 8.16 2.638.285 5.306.096 7.877-.557 6.497-1.688 12.163-6.792 17.642-11.726 2.673-2.406 5.434-4.895 8.272-6.977 8.856-6.46 17.136-10.196 25.307-11.42 17.143-2.566 33.211 7.039 41.932 25.07C-5.445 74.847-2.36 83.32.622 91.514c1.4 3.864 2.85 7.835 4.362 11.734 1.47 3.813 3.318 8.206 5.89 11.86 5.58 7.932 12.897 6.603 18.048 4.096 8.844-4.312 15.786-12.726 21.97-21.18 1.303-1.785 2.587-3.577 3.867-5.358 1.86-2.6 3.782-5.285 5.673-7.8a246.007 246.007 0 0125.032-28.18c23.443-22.795 69.079-59.401 111.316-48.54z" fill="url(#paint19_radial_840_7740)"/><path d="M196.706 9.807l-.154.676c-29.716-6.892-66.109 8.438-108.219 45.554-9.668 8.535-17.789 16.706-24.846 24.99-2.05 2.41-4.053 4.89-6.169 7.517-1.133 1.403-2.273 2.817-3.426 4.223-6.28 7.673-13.307 15.33-22.058 19.263-7.495 3.342-13.883 1.932-18.524-4.134-2.707-3.539-4.74-7.784-6.218-11.088a803.716 803.716 0 01-4.374-9.998c-3.48-8.071-6.771-15.694-10.735-22.887-8.972-16.289-24.448-24.541-40.389-21.54-7.873 1.484-16.149 5.514-25.295 12.275-2.776 2.07-5.507 4.497-8.148 6.842-5.8 5.158-11.798 10.486-18.717 12.413a25.001 25.001 0 01-8.279.82c-8.783-.538-17.909-5.317-25.245-9.157a100.008 100.008 0 01-8.833-5.23c-8.237-5.41-15.194-9.66-22.371-12.75a140.91 140.91 0 00-17.592-6.294c-9.347-2.658-23.501-5.443-37.825-3.632l-.085-.687c14.436-1.828 28.687.981 38.1 3.655a142.032 142.032 0 0117.676 6.32c7.224 3.114 14.212 7.38 22.476 12.827a101.105 101.105 0 008.794 5.196c7.278 3.81 16.335 8.55 24.966 9.08 2.71.185 5.432-.085 8.052-.8 6.764-1.882 12.7-7.16 18.442-12.263 2.65-2.357 5.391-4.79 8.195-6.88 9.227-6.84 17.6-10.896 25.589-12.399 16.242-3.06 32 5.324 41.123 21.887C-3.403 70.83-.109 78.465 3.38 86.55a663.053 663.053 0 004.374 9.987c1.458 3.272 3.48 7.472 6.133 10.957 4.463 5.849 10.41 7.162 17.677 3.906 8.62-3.864 15.581-11.44 21.819-19.055a826.82 826.82 0 003.418-4.219c2.03-2.515 4.127-5.115 6.188-7.53 7.061-8.31 15.213-16.508 24.916-25.062 42.256-37.294 78.87-52.67 108.802-45.728z" fill="url(#paint20_radial_840_7740)"/><path d="M196.631 11.473l-.139.68C159.839 4.627 118.577 32.934 90.726 54.89c-9.865 7.782-17.956 14.937-24.75 21.887-2.29 2.349-4.532 4.783-6.907 7.36a918.17 918.17 0 01-2.746 2.967c-5.89 6.382-12.959 13.472-21.892 17.107-7.347 2.994-13.446 1.673-18.098-3.921-2.746-3.3-4.896-7.167-6.466-10.169-1.276-2.445-2.525-4.887-3.762-7.305-4.057-7.924-7.886-15.412-12.329-22.409-9.355-14.77-24.522-21.82-39.576-18.397-7.804 1.777-15.945 5.988-25.605 13.255-2.726 2.063-5.414 4.428-8.028 6.715-6.075 5.335-12.375 10.852-19.556 12.981a27.13 27.13 0 01-8.442 1.07c-8.984-.232-18.203-4.535-26.034-8.716a80.116 80.116 0 01-8.952-5.56c-7.379-5.257-14.626-10.291-22.206-14.097a135.893 135.893 0 00-17.529-7.41c-9.572-3.25-24.019-6.672-38.502-4.524l-.104-.684c14.621-2.167 29.185 1.267 38.83 4.555a136.443 136.443 0 0117.619 7.433c7.622 3.83 14.892 8.886 22.294 14.156a79.34 79.34 0 008.894 5.51c7.742 4.14 16.88 8.406 25.709 8.634a26.505 26.505 0 008.23-1.04c7.045-2.09 13.271-7.552 19.293-12.837 2.614-2.295 5.317-4.671 8.066-6.75 9.746-7.34 17.963-11.59 25.872-13.375C-30.602 37.849-15.157 45-5.641 60.025c4.46 7.04 8.296 14.534 12.376 22.474 1.237 2.418 2.492 4.852 3.763 7.302 1.546 2.97 3.681 6.8 6.38 10.045 4.444 5.335 10.264 6.587 17.31 3.72 8.798-3.581 15.797-10.62 21.656-16.937.92-.99 1.834-1.977 2.742-2.964 2.378-2.58 4.64-5.022 6.922-7.375 6.794-6.954 14.904-14.148 24.796-21.944 19.765-15.581 36.158-26.21 51.592-33.446 20.345-9.535 38.76-12.71 54.735-9.427z" fill="url(#paint21_radial_840_7740)"/><path d="M196.563 13.126l-.123.68c-33.532-5.95-70.916 17.478-103.327 39.937C82.61 61.017 75.02 66.809 68.5 72.523c-2.676 2.345-5.31 4.806-8.098 7.414l-1.613 1.507c-5.994 5.586-13.11 11.81-21.752 14.959-7.112 2.592-13.064 1.34-17.689-3.72-2.208-2.415-4.277-5.267-6.71-9.25l-2.37-3.886C5.375 71.499.75 63.9-4.428 56.868c-9.734-13.194-24.587-19.039-38.764-15.257-9.889 2.64-19.042 8.995-25.91 14.237-2.653 2.036-5.29 4.323-7.84 6.537-6.372 5.533-12.966 11.254-20.46 13.603a29.6 29.6 0 01-8.608 1.314c-7.688.062-16.463-2.643-26.827-8.276a67.039 67.039 0 01-9.049-5.884c-6.748-5.173-14.394-11.037-22.043-15.426a131.001 131.001 0 00-17.472-8.5c-13.786-5.44-27.704-7.364-39.182-5.409l-.116-.68c11.602-1.966 25.651-.03 39.554 5.456a132.38 132.38 0 0117.56 8.542c7.684 4.412 15.349 10.292 22.113 15.48a66.93 66.93 0 008.956 5.827c10.26 5.574 18.926 8.252 26.49 8.19a28.854 28.854 0 008.407-1.294C-90.27 73.01-83.724 67.35-77.4 61.864c2.556-2.218 5.197-4.513 7.87-6.568 6.922-5.282 16.149-11.683 26.15-14.357 14.458-3.863 29.598 2.087 39.502 15.516C1.322 63.513 5.963 71.128 10.86 79.19l2.37 3.864c2.41 3.94 4.451 6.76 6.629 9.14 4.416 4.834 10.116 6.024 16.942 3.54 8.507-3.091 15.573-9.273 21.513-14.817l1.612-1.507c2.792-2.607 5.414-5.072 8.121-7.429 6.543-5.73 14.154-11.536 24.68-18.827 32.516-22.5 70.042-46.025 103.837-40.029z" fill="url(#paint22_radial_840_7740)"/><path d="M196.486 14.803l-.101.684c-31.169-4.636-64.682 15.454-94.246 33.144-2.247 1.345-4.463 2.674-6.64 3.968-8.183 4.86-16.81 10.072-24.502 15.67-3.094 2.264-6.138 4.636-9.773 7.51-6.361 5.023-13.272 10.158-21.59 12.816-6.868 2.194-12.68 1.012-17.275-3.524a64.45 64.45 0 01-6.96-8.321C9.454 68.505 3.604 60.523-2.653 53.345c-10.248-11.741-24.44-16.273-37.96-12.12-9.533 2.929-18.234 9.044-26.212 15.218-2.556 1.99-5.105 4.18-7.568 6.298-6.698 5.752-13.624 11.706-21.451 14.294a32.337 32.337 0 01-8.775 1.546c-10.344.42-20.728-4.026-27.615-7.831a59.752 59.752 0 01-9.142-6.209l-1.288-1.055c-6.995-5.756-13.604-11.204-20.577-15.704a128.161 128.161 0 00-17.402-9.609c-8.121-3.643-24.085-9.307-39.867-6.313l-.127-.68c15.963-3.029 32.097 2.685 40.276 6.36a128.704 128.704 0 0117.503 9.658c7.007 4.536 13.922 10.238 20.643 15.748l1.288 1.058a58.605 58.605 0 009.037 6.14c6.814 3.762 17.07 8.162 27.252 7.726 2.92-.107 5.811-.62 8.589-1.526 7.696-2.534 14.568-8.442 21.215-14.152 2.471-2.125 5.027-4.32 7.595-6.317 8.032-6.216 16.795-12.363 26.432-15.334 13.79-4.25 28.254.387 38.672 12.325 6.276 7.19 12.139 15.198 18.09 23.455a63.72 63.72 0 006.88 8.237c4.393 4.338 9.97 5.466 16.578 3.357 8.207-2.627 15.055-7.727 21.37-12.7 3.643-2.874 6.675-5.257 9.792-7.525 7.715-5.621 16.362-10.841 24.556-15.709a806.234 806.234 0 006.64-3.964c29.677-17.745 63.302-37.885 94.715-33.214z" fill="url(#paint23_radial_840_7740)"/><path d="M196.412 16.464l-.081.688c-26.904-3.176-56.151 12.216-81.953 25.796-5.751 3.025-11.18 5.884-16.501 8.5l-3.461 1.7c-7.394 3.631-14.378 7.058-20.93 10.868-2.815 1.638-5.847 3.52-9.83 6.1-6.767 4.389-13.496 8.5-21.424 10.667-6.632 1.808-12.301.692-16.857-3.319a73.804 73.804 0 01-7.193-7.402C11.187 61.922 5.14 55.489-.852 49.818c-10.596-10.045-24.49-13.395-37.16-8.983-9.706 3.384-18.774 10.134-26.512 16.2-2.425 1.912-4.854 3.979-7.201 5.98-7.054 6.004-14.343 12.216-22.538 15.044a35.397 35.397 0 01-8.941 1.805c-8.712.625-18.802-1.998-28.404-7.387a53.657 53.657 0 01-9.239-6.541l-3.008-2.643c-6.358-5.594-12.375-10.875-18.69-15.454a126.439 126.439 0 00-17.348-10.705c-14.011-7.043-28.787-9.659-40.551-7.206l-.139-.676c11.91-2.495 26.853.151 40.991 7.264a126.6 126.6 0 0117.445 10.771c6.358 4.594 12.653 10.134 18.74 15.492l3.009 2.643a52.957 52.957 0 009.119 6.452c9.49 5.328 19.44 7.92 28.017 7.302a34.36 34.36 0 008.767-1.766c8.067-2.785 15.31-8.955 22.31-14.916 2.355-2.006 4.787-4.08 7.224-6 7.784-6.097 16.907-12.889 26.714-16.308 12.92-4.497 27.07-1.086 37.867 9.133 6.006 5.691 12.066 12.14 19.077 20.295a73.262 73.262 0 007.127 7.34c4.37 3.864 9.826 4.919 16.219 3.172 7.83-2.136 14.51-6.22 21.227-10.578 3.994-2.588 7.034-4.474 9.86-6.12 6.575-3.82 13.567-7.255 20.972-10.887l3.462-1.7c5.309-2.62 10.739-5.474 16.485-8.5 25.899-13.633 55.246-29.08 82.363-25.877z" fill="url(#paint24_radial_840_7740)"/><path d="M196.339 18.13l-.062.692c-23.385-2.013-47.844 9.485-71.504 20.6-8.596 4.037-16.717 7.85-24.517 10.883a685.91 685.91 0 01-8.295 3.149c-5.6 2.102-10.886 4.103-16.003 6.313a193.911 193.911 0 00-9.892 4.694c-6.207 3.152-13.249 6.726-21.27 8.5-6.395 1.429-11.926.386-16.435-3.118a92.18 92.18 0 01-7.436-6.48 223.713 223.713 0 00-19.99-17.06c-11.079-8.415-24.336-10.548-36.35-5.85-9.394 3.67-18.045 10.22-26.816 17.181-2.254 1.8-4.52 3.713-6.71 5.567-7.444 6.294-15.143 12.8-23.747 15.902a38.788 38.788 0 01-9.108 2.048c-9.304.943-19.672-1.522-29.193-6.954a49.484 49.484 0 01-9.335-6.866 441.659 441.659 0 01-4.583-4.296c-5.51-5.185-11.214-10.547-16.945-15.13a124.382 124.382 0 00-17.291-11.817c-14.184-7.897-29.216-10.845-41.227-8.114l-.159-.672c12.182-2.79 27.387.19 41.727 8.164A125.931 125.931 0 01-161.4 47.35c5.762 4.601 11.47 9.971 16.985 15.164 1.492 1.456 3.039 2.893 4.563 4.315a48.773 48.773 0 009.207 6.773c9.398 5.35 19.619 7.784 28.78 6.857a38.081 38.081 0 008.945-2.013c8.484-3.055 16.133-9.523 23.531-15.778 2.197-1.854 4.463-3.774 6.725-5.579 8.817-6.992 17.515-13.58 26.997-17.28 12.263-4.791 25.763-2.624 37.036 5.937A224.545 224.545 0 0121.43 62.885a91.415 91.415 0 007.379 6.428c4.4 3.416 9.59 4.397 15.855 2.99 7.916-1.769 14.916-5.323 21.088-8.46a189.2 189.2 0 019.927-4.71C80.796 56.9 86.094 54.91 91.7 52.81a715.89 715.89 0 008.288-3.145c7.796-3.03 15.898-6.835 24.475-10.868 23.756-11.154 48.301-22.69 71.875-20.666z" fill="url(#paint25_radial_840_7740)"/><path d="M196.262 19.795l-.035.672c-20.383-1.062-41.765 8.036-62.427 16.833-10.956 4.664-21.301 9.068-31.173 11.838-3.991 1.124-7.909 2.105-11.698 3.056-4.34 1.085-8.442 2.113-12.476 3.3a150.466 150.466 0 00-9.946 3.283l-1.443.549C60.946 61.59 54.62 63.93 47.42 65.17c-6.164 1.063-11.551.081-16.01-2.917a135.486 135.486 0 01-7.672-5.555C15.983 50.664 8.45 46.089 2.753 42.79c-11.361-6.606-24.328-7.595-35.577-2.704-9.8 4.25-19 11.644-27.117 18.158-2.03 1.642-4.08 3.361-6.063 5.023-7.886 6.63-16.041 13.483-25.114 16.883a42.35 42.35 0 01-9.281 2.295c-9.714 1.26-20.643-1.11-29.982-6.502a46.204 46.204 0 01-9.428-7.19c-2.015-1.99-4.014-3.999-6.002-5.996-4.993-5.023-10.151-10.212-15.357-14.767-6.086-5.343-11.725-9.57-17.228-12.927-14.15-8.619-29.819-11.976-41.92-8.986l-.166-.672c12.46-3.091 27.933.224 42.446 9.071 5.549 3.377 11.219 7.627 17.325 12.981 5.22 4.575 10.391 9.771 15.391 14.801 1.988 1.998 3.983 4.003 5.998 5.988a45.657 45.657 0 009.281 7.086c9.208 5.316 19.978 7.654 29.545 6.413a41.682 41.682 0 009.123-2.252c8.96-3.361 17.066-10.176 24.908-16.767 1.984-1.666 4.038-3.389 6.072-5.023 8.152-6.568 17.402-13.97 27.279-18.258C-21.66 34.472-8.465 35.477 3.09 42.19c5.716 3.323 13.276 7.917 21.06 13.974a126.915 126.915 0 007.634 5.525c4.366 2.936 9.44 3.864 15.508 2.809 7.134-1.229 13.43-3.558 19.52-5.795l1.436-.53c3.325-1.224 6.574-2.318 9.992-3.299 4.045-1.19 8.152-2.218 12.499-3.307 3.786-.95 7.7-1.932 11.683-3.048 9.845-2.786 20.171-7.19 31.103-11.826 20.744-8.84 42.206-17.97 62.737-16.899z" fill="url(#paint26_radial_840_7740)"/><path d="M196.184 21.46v.691c-17.758-.29-36.39 6.997-54.411 14.04-12.944 5.061-25.172 9.844-36.765 11.815-4.823.822-9.517 1.387-14.061 1.931-3.48.418-6.737.816-10.009 1.31-3.592.541-6.868 1.16-10.004 1.878-1.253.29-2.513.59-3.79.892-5.394 1.287-10.97 2.616-17.112 3.338-6.021.711-11.118-.174-15.58-2.704-2.22-1.264-5.128-2.929-7.913-4.636-7.564-4.636-15.024-7.905-21.954-10.764-6.806-2.805-20.376-6.479-34.804.429-9.413 4.505-17.816 11.34-26.714 18.572l-.708.571a497.335 497.335 0 00-5.205 4.324c-8.392 7.027-17.07 14.294-26.684 18.03a45.877 45.877 0 01-9.44 2.535c-10.228 1.607-21.443-.603-30.766-6.058a43.53 43.53 0 01-9.525-7.515c-2.452-2.553-4.9-5.18-7.27-7.727-4.525-4.852-9.2-9.87-13.922-14.372-6.188-5.91-11.64-10.37-17.17-14.032-14.309-9.469-30.23-13.162-42.605-9.878l-.178-.669c12.561-3.334 28.698.387 43.165 9.972 5.565 3.682 11.049 8.167 17.267 14.109 4.73 4.512 9.417 9.539 13.945 14.4 2.367 2.537 4.815 5.164 7.263 7.726a43.04 43.04 0 009.378 7.39c9.188 5.375 20.236 7.554 30.31 5.974a45.582 45.582 0 009.282-2.5c9.505-3.697 18.14-10.926 26.49-17.915a716.63 716.63 0 015.212-4.327l.708-.575c8.539-6.955 17.368-14.118 26.854-18.661 14.664-7.02 28.45-3.292 35.361-.44 6.91 2.85 14.448 6.162 22.043 10.817 2.776 1.696 5.673 3.358 7.889 4.636 4.33 2.461 9.28 3.323 15.159 2.631 6.102-.722 11.66-2.043 17.016-3.326 1.288-.306 2.553-.604 3.793-.892a133.43 133.43 0 0110.055-1.89c3.28-.498 6.574-.892 10.031-1.31 4.532-.548 9.223-1.116 14.026-1.931 11.524-1.963 23.718-6.73 36.63-11.776 18.121-7.093 36.819-14.407 54.713-14.113z" fill="url(#paint27_radial_840_7740)"/><path d="M196.122 23.82c-15.422.328-31.591 6.22-47.226 11.923-14.633 5.335-28.466 10.377-41.537 11.107-5.371.301-10.588.236-15.638.174-2.87-.035-5.58-.07-8.323-.043-3.805.039-7.003.194-10.054.476-2.448.227-4.892.513-7.48.81-4.226.492-8.6 1.002-13.244 1.284-5.8.351-10.75-.468-15.144-2.512a569.295 569.295 0 00-4.904-2.237c-1.098-.498-2.177-.985-3.244-1.475-7.881-3.613-15.674-5.796-22.925-7.608-8.414-2.105-21.149-3.195-34.03 3.57-9.073 4.768-17.58 11.78-25.814 18.545l-1.91 1.568c-1.361 1.125-2.707 2.26-4.076 3.392-8.983 7.511-18.276 15.276-28.536 19.407a50.313 50.313 0 01-9.614 2.785 46.374 46.374 0 01-31.552-5.614 41.697 41.697 0 01-9.617-7.842c-2.835-3.091-5.65-6.329-8.377-9.443-4.107-4.698-8.353-9.554-12.637-13.985-6.188-6.41-11.629-11.204-17.113-15.137-14.459-10.316-30.631-14.345-43.292-10.764l-.186-.664c12.85-3.64 29.255.429 43.881 10.875 5.518 3.941 10.986 8.778 17.205 15.218 4.3 4.443 8.55 9.307 12.664 14.01a543.458 543.458 0 008.365 9.43 41.067 41.067 0 009.459 7.727A45.67 45.67 0 00-97.7 84.326a49.646 49.646 0 009.478-2.744c10.155-4.083 19.401-11.814 28.346-19.29 1.361-1.136 2.723-2.268 4.084-3.396l1.907-1.572c8.26-6.8 16.798-13.835 25.933-18.633 10.197-5.36 22.456-6.65 34.514-3.628 7.282 1.823 15.117 4.01 23.048 7.65 1.064.486 2.143.973 3.24 1.471a602.57 602.57 0 014.908 2.237c4.285 1.994 9.13 2.797 14.815 2.45 4.641-.282 8.984-.773 13.203-1.28 2.595-.297 5.027-.583 7.494-.81 3.094-.286 6.296-.44 10.12-.48 2.75-.027 5.465 0 8.342.043 5.028.062 10.24.127 15.589-.17 12.978-.726 26.753-5.753 41.34-11.069 15.689-5.722 31.911-11.636 47.446-11.976l.015.691z" fill="url(#paint28_radial_840_7740)"/><path d="M196.072 25.49c-13.307.811-27.229 5.625-40.69 10.28-16.084 5.564-31.278 10.818-45.656 9.93-5.712-.356-11.261-1.16-16.629-1.967-2.378-.348-4.837-.71-7.227-1.02-3.914-.506-7.132-.8-10.129-.927-4.45-.193-8.995-.143-13.81-.093-2.196.023-4.439.05-6.728.05-5.6 0-10.414-.753-14.695-2.318-2.873-1.039-5.666-1.931-8.369-2.785-8.608-2.74-16.919-3.79-23.91-4.459-8.43-.807-21.041-.293-33.258 6.719-8.755 5.022-17.015 11.926-25.013 18.602l-3.012 2.512-2.572 2.148c-9.695 8.113-19.722 16.504-30.76 21.086a54.87 54.87 0 01-9.775 3.025c-11.184 2.319-22.971.445-32.341-5.169a40.09 40.09 0 01-9.711-8.171c-3.171-3.651-6.303-7.464-9.335-11.15-3.74-4.551-7.603-9.272-11.509-13.61-6.187-6.909-11.601-12.07-17.054-16.227-11.273-8.635-28.744-16.227-43.977-11.664l-.197-.66c15.468-4.637 33.188 3.036 44.596 11.775 5.483 4.2 10.932 9.388 17.147 16.33 3.913 4.367 7.784 9.076 11.531 13.631 3.025 3.682 6.157 7.491 9.32 11.138a39.364 39.364 0 009.544 8.029c9.22 5.524 20.829 7.379 31.843 5.088a54.152 54.152 0 009.668-2.987c10.936-4.543 20.92-12.9 30.577-20.978l2.576-2.152a712.684 712.684 0 003.008-2.511c8.017-6.692 16.308-13.615 25.114-18.669 12.375-7.104 25.136-7.622 33.663-6.807 7.03.669 15.384 1.727 24.042 4.482 2.707.865 5.523 1.754 8.407 2.8 4.223 1.546 8.957 2.272 14.471 2.269 2.29 0 4.529-.028 6.725-.05 4.823-.05 9.378-.101 13.849.092 3.016.128 6.253.425 10.186.931 2.394.31 4.857.672 7.239 1.024 5.348.792 10.882 1.607 16.567 1.959 14.243.88 29.39-4.35 45.385-9.89 13.508-4.672 27.476-9.5 40.876-10.32l.023.684z" fill="url(#paint29_radial_840_7740)"/><path d="M196.021 27.148c-11.369 1.159-23.226 5.138-34.692 8.975-16.559 5.536-33.687 11.262-49.241 8.407-5.881-1.078-11.601-2.705-17.158-4.25a457.608 457.608 0 00-6.574-1.832c-4.034-1.078-7.178-1.796-10.19-2.318-6.76-1.205-13.779-1.754-20.36-2.167a75.428 75.428 0 01-14.27-2.11c-2.99-.772-5.91-1.36-8.617-1.877-7.475-1.395-15.38-1.808-24.87-1.302-12.104.645-23.032 3.968-32.483 9.875-8.45 5.243-16.494 12.054-24.267 18.622a1606.01 1606.01 0 01-4.068 3.434l-.526.43c-10.573 8.885-21.51 18.096-33.524 23.238a59.974 59.974 0 01-9.947 3.268c-11.636 2.705-23.709.978-33.122-4.729a38.583 38.583 0 01-9.807-8.5c-3.519-4.249-6.961-8.692-10.298-13.004-3.338-4.311-6.849-8.866-10.372-13.085-6.214-7.433-11.629-12.947-16.992-17.324-11.358-9.31-29.058-17.501-44.67-12.556l-.209-.66c15.875-5.023 33.819 3.256 45.316 12.68 5.414 4.407 10.828 9.952 17.089 17.443 3.527 4.23 7.015 8.743 10.387 13.105 3.372 4.361 6.767 8.762 10.283 12.988a37.832 37.832 0 009.629 8.345c9.281 5.614 21.149 7.306 32.612 4.637a59.06 59.06 0 009.83-3.23c11.919-5.1 22.816-14.264 33.35-23.13l.526-.441c1.359-1.141 2.714-2.285 4.065-3.43 7.792-6.6 15.855-13.422 24.34-18.727 9.551-5.969 20.592-9.326 32.812-9.98 9.548-.505 17.503-.088 25.036 1.314 2.707.522 5.654 1.11 8.663 1.89a74.681 74.681 0 0014.138 2.086c6.601.417 13.647.97 20.442 2.179 3.032.54 6.187 1.263 10.244 2.345a433.07 433.07 0 016.574 1.831c5.53 1.569 11.242 3.188 17.093 4.25 15.38 2.82 32.418-2.874 48.9-8.384 11.501-3.844 23.393-7.82 34.839-9.005l.089.699z" fill="url(#paint30_radial_840_7740)"/><path d="M195.971 28.813c-9.578 1.418-19.525 4.706-29.135 7.881-17.568 5.795-35.736 11.807-52.376 6.665-5.832-1.805-11.552-4.2-17.082-6.518-2.146-.896-4.362-1.824-6.539-2.704-3.933-1.592-7.189-2.782-10.256-3.74a118.878 118.878 0 00-20.19-4.292l-1.605-.21c-4.03-.525-8.194-1.065-12.216-1.695-2.68-.421-5.577-.738-8.856-.966-8.222-.556-16.675.046-25.844 1.847A85.296 85.296 0 00-19.84 38.116c-8.102 5.498-15.906 12.19-23.454 18.66-1.725 1.481-3.45 2.956-5.175 4.424-11.806 10.022-22.572 18.757-34.77 24.12a65.364 65.364 0 01-10.12 3.53c-12.073 3.092-24.432 1.523-33.911-4.28a37.653 37.653 0 01-9.896-8.82c-3.743-4.718-7.382-9.717-10.901-14.546-3.117-4.277-6.338-8.7-9.598-12.88-6.188-7.94-11.571-13.805-16.935-18.456-17.522-15.238-35.384-16.768-45.358-13.45l-.22-.656c6.996-2.318 15.233-2.07 23.829.738 7.677 2.496 15.562 7.058 22.202 12.834 5.414 4.679 10.808 10.575 17.015 18.545 3.268 4.188 6.493 8.615 9.61 12.896 3.519 4.83 7.154 9.817 10.886 14.527a36.94 36.94 0 009.714 8.658c9.32 5.706 21.486 7.236 33.378 4.203a65.095 65.095 0 0010.008-3.477c12.108-5.328 22.816-14.028 34.6-24.02a698.438 698.438 0 005.17-4.415c7.564-6.487 15.383-13.19 23.516-18.71a86.004 86.004 0 0131.966-13.136c9.23-1.812 17.746-2.419 26.026-1.859 3.302.232 6.218.549 8.918.974 4.014.63 8.17 1.159 12.197 1.692l1.605.212A118.95 118.95 0 0180.78 29.74c3.093.962 6.361 2.156 10.31 3.755 2.18.877 4.4 1.808 6.546 2.705 5.515 2.318 11.215 4.701 17.016 6.494 16.428 5.077 34.487-.892 51.951-6.66 9.668-3.188 19.626-6.483 29.263-7.913l.104.692z" fill="url(#paint31_radial_840_7740)"/><path d="M195.926 30.478c-7.92 1.546-16.107 4.289-24.023 6.935-18.4 6.158-37.43 12.525-55.084 4.775-5.831-2.557-11.601-5.764-17.193-8.862-5.414-3.002-11.002-6.105-16.629-8.612-32.658-14.55-69.199-9.802-100.248 13.02-7.684 5.648-15.186 12.162-22.43 18.463-16.164 14.036-32.87 28.547-52.257 33.925-18.024 5-34.727.147-44.681-12.985-3.936-5.192-7.734-10.721-11.423-16.072-7.87-11.44-16.006-23.265-25.783-32.248C-184.9 18.652-203.598 8.8-219.879 14.476l-.228-.653c16.583-5.776 35.547 4.192 46.746 14.484 9.835 9.037 17.994 20.897 25.887 32.368 3.674 5.343 7.475 10.868 11.401 16.045 3.662 4.833 17.657 20.028 43.946 12.75 19.227-5.332 35.883-19.793 51.99-33.779 7.266-6.309 14.78-12.834 22.484-18.498C13.609 14.217 50.409 9.446 83.279 24.096c5.654 2.519 11.262 5.633 16.683 8.638 5.573 3.091 11.331 6.29 17.136 8.836 17.402 7.642 36.308 1.322 54.585-4.794 7.939-2.658 16.145-5.41 24.107-6.955l.136.657z" fill="url(#paint32_radial_840_7740)"/><defs><radialGradient id="paint0_radial_840_7740" cx="0" cy="0" r="1" gradientUnits="userSpaceOnUse" gradientTransform="matrix(208.48 0 0 22.8889 -14.52 110.859)"><stop/><stop offset="1" stop-opacity="0"/></radialGradient><radialGradient id="paint1_radial_840_7740" cx="0" cy="0" r="1" gradientUnits="userSpaceOnUse" gradientTransform="matrix(208.504 0 0 23.6494 -14.373 106.743)"><stop/><stop offset="1" stop-opacity="0"/></radialGradient><radialGradient id="paint2_radial_840_7740" cx="0" cy="0" r="1" gradientUnits="userSpaceOnUse" gradientTransform="matrix(208.523 0 0 26.5035 -14.23 104.269)"><stop/><stop offset="1" stop-opacity="0"/></radialGradient><radialGradient id="paint3_radial_840_7740" cx="0" cy="0" r="1" gradientUnits="userSpaceOnUse" gradientTransform="matrix(208.554 0 0 29.4976 -14.075 101.941)"><stop/><stop offset="1" stop-opacity="0"/></radialGradient><radialGradient id="paint4_radial_840_7740" cx="0" cy="0" r="1" gradientUnits="userSpaceOnUse" gradientTransform="matrix(208.592 0 0 32.6696 -13.913 99.675)"><stop/><stop offset="1" stop-opacity="0"/></radialGradient><radialGradient id="paint5_radial_840_7740" cx="0" cy="0" r="1" gradientUnits="userSpaceOnUse" gradientTransform="matrix(208.627 0 0 35.9183 -13.755 97.435)"><stop/><stop offset="1" stop-opacity="0"/></radialGradient><radialGradient id="paint6_radial_840_7740" cx="0" cy="0" r="1" gradientUnits="userSpaceOnUse" gradientTransform="matrix(208.662 0 0 39.2296 -13.597 95.2)"><stop/><stop offset="1" stop-opacity="0"/></radialGradient><radialGradient id="paint7_radial_840_7740" cx="0" cy="0" r="1" gradientUnits="userSpaceOnUse" gradientTransform="matrix(208.699 0 0 42.5471 -13.436 92.977)"><stop/><stop offset="1" stop-opacity="0"/></radialGradient><radialGradient id="paint8_radial_840_7740" cx="0" cy="0" r="1" gradientUnits="userSpaceOnUse" gradientTransform="matrix(208.734 0 0 45.8989 -13.28 90.75)"><stop/><stop offset="1" stop-opacity="0"/></radialGradient><radialGradient id="paint9_radial_840_7740" cx="0" cy="0" r="1" gradientUnits="userSpaceOnUse" gradientTransform="matrix(208.77 0 0 49.2671 -13.12 88.531)"><stop/><stop offset="1" stop-opacity="0"/></radialGradient><radialGradient id="paint10_radial_840_7740" cx="0" cy="0" r="1" gradientUnits="userSpaceOnUse" gradientTransform="matrix(208.809 0 0 52.6518 -12.97 86.332)"><stop/><stop offset="1" stop-opacity="0"/></radialGradient><radialGradient id="paint11_radial_840_7740" cx="0" cy="0" r="1" gradientUnits="userSpaceOnUse" gradientTransform="matrix(208.846 0 0 56.0167 -12.81 84.087)"><stop/><stop offset="1" stop-opacity="0"/></radialGradient><radialGradient id="paint12_radial_840_7740" cx="0" cy="0" r="1" gradientUnits="userSpaceOnUse" gradientTransform="matrix(208.884 0 0 59.4149 -12.658 81.871)"><stop/><stop offset="1" stop-opacity="0"/></radialGradient><radialGradient id="paint13_radial_840_7740" cx="0" cy="0" r="1" gradientUnits="userSpaceOnUse" gradientTransform="matrix(208.911 0 0 62.8206 -12.49 79.665)"><stop/><stop offset="1" stop-opacity="0"/></radialGradient><radialGradient id="paint14_radial_840_7740" cx="0" cy="0" r="1" gradientUnits="userSpaceOnUse" gradientTransform="matrix(208.95 0 0 66.1972 -12.338 77.44)"><stop/><stop offset="1" stop-opacity="0"/></radialGradient><radialGradient id="paint15_radial_840_7740" cx="0" cy="0" r="1" gradientUnits="userSpaceOnUse" gradientTransform="matrix(208.968 0 0 69.6095 -12.165 75.244)"><stop/><stop offset="1" stop-opacity="0"/></radialGradient><radialGradient id="paint16_radial_840_7740" cx="0" cy="0" r="1" gradientUnits="userSpaceOnUse" gradientTransform="matrix(209.018 0 0 73 -12.019 73)"><stop/><stop offset="1" stop-opacity="0"/></radialGradient><radialGradient id="paint17_radial_840_7740" cx="0" cy="0" r="1" gradientUnits="userSpaceOnUse" gradientTransform="matrix(208.956 0 0 67.9594 -12.033 69.997)"><stop/><stop offset="1" stop-opacity="0"/></radialGradient><radialGradient id="paint18_radial_840_7740" cx="0" cy="0" r="1" gradientUnits="userSpaceOnUse" gradientTransform="matrix(208.888 0 0 62.9078 -12.035 67.02)"><stop/><stop offset="1" stop-opacity="0"/></radialGradient><radialGradient id="paint19_radial_840_7740" cx="0" cy="0" r="1" gradientUnits="userSpaceOnUse" gradientTransform="matrix(208.83 0 0 57.8366 -12.05 64.015)"><stop/><stop offset="1" stop-opacity="0"/></radialGradient><radialGradient id="paint20_radial_840_7740" cx="0" cy="0" r="1" gradientUnits="userSpaceOnUse" gradientTransform="matrix(208.751 0 0 52.8055 -12.045 60.992)"><stop/><stop offset="1" stop-opacity="0"/></radialGradient><radialGradient id="paint21_radial_840_7740" cx="0" cy="0" r="1" gradientUnits="userSpaceOnUse" gradientTransform="matrix(208.695 0 0 47.7759 -12.063 57.995)"><stop/><stop offset="1" stop-opacity="0"/></radialGradient><radialGradient id="paint22_radial_840_7740" cx="0" cy="0" r="1" gradientUnits="userSpaceOnUse" gradientTransform="matrix(208.631 0 0 42.7687 -12.068 54.947)"><stop/><stop offset="1" stop-opacity="0"/></radialGradient><radialGradient id="paint23_radial_840_7740" cx="0" cy="0" r="1" gradientUnits="userSpaceOnUse" gradientTransform="matrix(208.561 0 0 37.7732 -12.076 51.892)"><stop/><stop offset="1" stop-opacity="0"/></radialGradient><radialGradient id="paint24_radial_840_7740" cx="0" cy="0" r="1" gradientUnits="userSpaceOnUse" gradientTransform="matrix(208.498 0 0 32.7922 -12.086 48.83)"><stop/><stop offset="1" stop-opacity="0"/></radialGradient><radialGradient id="paint25_radial_840_7740" cx="0" cy="0" r="1" gradientUnits="userSpaceOnUse" gradientTransform="matrix(208.434 0 0 31.7251 -12.095 49.623)"><stop/><stop offset="1" stop-opacity="0"/></radialGradient><radialGradient id="paint26_radial_840_7740" cx="0" cy="0" r="1" gradientUnits="userSpaceOnUse" gradientTransform="matrix(208.372 0 0 31.5333 -12.11 51.243)"><stop/><stop offset="1" stop-opacity="0"/></radialGradient><radialGradient id="paint27_radial_840_7740" cx="0" cy="0" r="1" gradientUnits="userSpaceOnUse" gradientTransform="matrix(208.295 0 0 31.3866 -12.111 52.838)"><stop/><stop offset="1" stop-opacity="0"/></radialGradient><radialGradient id="paint28_radial_840_7740" cx="0" cy="0" r="1" gradientUnits="userSpaceOnUse" gradientTransform="matrix(208.237 0 0 32.7393 -12.114 52.97)"><stop/><stop offset="1" stop-opacity="0"/></radialGradient><radialGradient id="paint29_radial_840_7740" cx="0" cy="0" r="1" gradientUnits="userSpaceOnUse" gradientTransform="matrix(208.179 0 0 34.5099 -12.107 52.735)"><stop/><stop offset="1" stop-opacity="0"/></radialGradient><radialGradient id="paint30_radial_840_7740" cx="0" cy="0" r="1" gradientUnits="userSpaceOnUse" gradientTransform="matrix(208.128 0 0 36.3134 -12.107 52.479)"><stop/><stop offset="1" stop-opacity="0"/></radialGradient><radialGradient id="paint31_radial_840_7740" cx="0" cy="0" r="1" gradientUnits="userSpaceOnUse" gradientTransform="matrix(208.074 0 0 38.1068 -12.103 52.297)"><stop/><stop offset="1" stop-opacity="0"/></radialGradient><radialGradient id="paint32_radial_840_7740" cx="0" cy="0" r="1" gradientUnits="userSpaceOnUse" gradientTransform="matrix(208.016 0 0 39.9643 -12.09 52.087)"><stop/><stop offset="1" stop-opacity="0"/></radialGradient></defs></svg>