<svg width="892" height="347" fill="none" xmlns="http://www.w3.org/2000/svg"><path d="M884.241 211.855l-3.169.34c-60.689 6.427-123.444 13.165-177.4 51.238-4.372 3.085-8.799 6.326-13.088 9.465-17.183 12.578-34.899 25.578-53.855 32.041-33.063 11.274-67.044 1.928-96.02-8.712-18.837-6.923-37.747-15.194-56.023-23.191-25.009-10.943-50.871-22.263-76.862-30.296-53.378-16.388-98.05-15.112-136.568 3.92-12.059 5.958-26.928 18.068-42.669 30.893-18.121 14.809-36.866 30.04-51.514 35.667-37.242 14.203-66.906-6.546-98.316-28.579-11.545-8.079-23.475-16.434-36.24-23.439-3.283-1.799-6.57-3.611-9.864-5.435-44.59-24.659-90.694-50.154-138.442-44.132l-.211-1.634c48.28-6.059 94.66 19.555 139.452 44.343 3.288 1.836 6.572 3.648 9.854 5.435 12.858 7.051 24.797 15.433 36.388 23.53 31.042 21.731 60.367 42.232 96.791 28.36 14.41-5.509 33.063-20.675 51.064-35.355 15.815-12.853 30.757-25.055 42.981-31.096 38.914-19.215 83.98-20.528 137.762-4.012 26.092 8.015 51.991 19.353 77.036 30.297 18.268 7.987 37.141 16.25 55.941 23.154 28.664 10.539 62.369 19.812 94.918 8.694 18.671-6.371 36.332-19.28 53.415-31.811 4.298-3.14 8.734-6.427 13.115-9.475 54.305-38.32 117.271-45.041 178.171-51.532l3.169-.339.184 1.661z" fill="url(#paint0_radial_399_771)"/><path d="M884.645 199.183c-107.546 7.18-154.652 32.592-186.548 56.499-5.088 3.801-10.24 7.804-15.218 11.678-13.216 10.292-26.891 20.932-40.823 28.681a122.874 122.874 0 01-11.306 5.508c-19.498 8.263-40.823 10.393-65.207 6.427a123.776 123.776 0 01-31.998-9.723c-5.216-2.414-10.69-5.15-16.742-8.354-13.474-7.097-27.057-14.69-40.19-22.108l-8.817-4.957c-22.96-12.853-45.728-22.502-67.714-28.699-44.369-12.514-81.62-13.285-113.883-2.341a142.204 142.204 0 00-18.277 7.656c-11.535 5.858-25.614 17.352-40.52 29.517-17.808 14.542-36.222 29.58-50.807 35.024-36.057 13.56-64.867-6.5-95.46-27.799-11.186-7.785-22.74-15.828-35.074-22.576l-7.512-4.085C22.77 240.919 6.45 232.014-9.88 224.743c-37.113-16.654-67.503-22.86-95.634-19.528l-.193-1.625c28.47-3.369 59.109 2.874 96.497 19.656 16.385 7.345 32.742 16.259 48.548 24.88l7.512 4.095c12.408 6.784 24.008 14.863 35.221 22.667 30.189 20.969 58.696 40.827 93.945 27.579 14.336-5.361 32.64-20.308 50.347-34.758 14.979-12.229 29.123-23.769 40.814-29.718a144.196 144.196 0 0118.488-7.749c32.567-11.017 70.13-10.292 114.801 2.314 22.116 6.233 45.003 15.947 68.064 28.855l8.826 4.957c13.124 7.345 26.698 15.002 40.144 22.08 6.034 3.204 11.489 5.922 16.669 8.318a122.502 122.502 0 0031.575 9.603c24.062 3.948 45.094 1.836 64.289-6.289a121.661 121.661 0 0011.149-5.508c13.776-7.694 27.442-18.298 40.612-28.543 4.987-3.875 10.103-7.887 15.246-11.697 57.18-42.865 126.823-52.78 187.42-56.819l.184 1.67z" fill="url(#paint1_radial_399_771)"/><path d="M885.031 186.523c-80.058 2.332-143.034 22.42-192.527 61.42-5.777 4.59-11.609 9.364-17.239 14.019-12.784 10.558-26 21.483-39.308 29.883a152.913 152.913 0 01-11.213 6.427c-20.059 10.264-41.412 14.166-65.272 11.935a83.855 83.855 0 01-33.081-9.961c-4.978-2.755-10.103-5.895-16.467-10.099-12.178-8.061-24.476-16.526-36.369-24.788l-11.141-7.694a223.828 223.828 0 00-70.065-32.188c-44.231-11.43-79.213-11.705-110.09-.863a135.021 135.021 0 00-17.606 7.584c-11.086 5.756-24.43 16.681-38.574 28.258-17.449 14.276-35.441 29.03-49.924 34.318-34.817 12.853-62.774-6.427-92.365-26.946-10.902-7.537-22.18-15.341-34.193-21.841l-3.122-1.689c-17.597-9.511-35.772-19.335-54.058-27.083-37.499-15.874-68.532-21.768-97.645-18.527l-.184-1.634c29.39-3.269 60.698 2.653 98.472 18.646 18.368 7.748 36.571 17.627 54.186 27.175l3.132 1.689c12.086 6.537 23.401 14.368 34.34 21.933 29.232 20.198 56.84 39.321 90.867 26.753 14.217-5.197 32.144-19.858 49.438-34.043 14.208-11.632 27.617-22.621 38.849-28.46a137.709 137.709 0 0117.817-7.684c31.226-10.953 66.493-10.696 111.055.826a225.498 225.498 0 0170.589 32.427l11.168 7.702c11.884 8.263 24.172 16.718 36.341 24.788 6.374 4.223 11.416 7.345 16.357 10.099a82.187 82.187 0 0032.447 9.603c23.539 2.204 44.599-1.634 64.372-11.751 3.674-1.836 7.347-4.003 11.076-6.335 13.216-8.336 26.395-19.224 39.143-29.755 5.639-4.654 11.471-9.474 17.266-14.046 49.778-39.221 113.075-59.428 193.5-61.769l.028 1.671z" fill="url(#paint2_radial_399_771)"/><path d="M885.471 172.212v1.643c-53.534-.339-131.434 10.907-198.515 66.35-6.704 5.508-13.436 11.411-19.938 17.085-12.123 10.576-24.66 21.511-37.123 30.352a172.536 172.536 0 01-11.103 7.262c-20.683 12.385-42.054 18.086-65.345 17.443-13.005-.367-24.503-3.736-34.193-10.025a199.682 199.682 0 01-16.191-11.935c-9.524-7.639-19.112-15.608-28.398-23.31-5.835-4.817-11.706-9.674-17.615-14.57a180.02 180.02 0 00-72.435-35.667c-43.872-10.365-76.66-10.173-106.315.624a131.735 131.735 0 00-16.954 7.501c-10.608 5.646-23.236 16.011-36.608 26.982-17.036 13.991-34.661 28.46-49.025 33.611-33.669 12.109-60.771-6.491-89.453-26.184-10.57-7.253-21.49-14.753-33.063-20.987l-.533-.285C33.82 228.003 14.34 217.519-5.25 209.715c-37.875-15.047-69.542-20.656-99.693-17.507l-.175-1.644c30.409-3.167 62.342 2.442 100.438 17.646 19.681 7.84 39.207 18.361 58.08 28.46l.533.285c11.691 6.279 22.657 13.771 33.256 21.115 28.333 19.455 55.104 37.825 87.974 26 14.098-5.067 31.603-19.444 48.538-33.335 13.427-11.017 26.12-21.437 36.874-27.166a132.526 132.526 0 0117.147-7.602c29.986-10.916 63.068-11.117 107.262-.679a181.666 181.666 0 0173.105 35.998c5.927 4.86 11.802 9.716 17.624 14.57 9.276 7.702 18.865 15.662 28.37 23.301 4.252 3.415 9.919 7.84 16.054 11.824 9.469 6.087 20.655 9.365 33.348 9.723 22.96.633 44.083-4.995 64.454-17.214a167.148 167.148 0 0011.021-7.189c12.398-8.786 24.898-19.702 36.993-30.25 6.512-5.683 13.253-11.559 19.976-17.113 67.429-55.764 145.733-67.066 199.543-66.726z" fill="url(#paint3_radial_399_771)"/><path d="M885.949 159.543l-.065 1.643a294.032 294.032 0 00-204.502 71.27c-7.834 6.767-15.613 13.937-23.181 20.877-11.792 10.834-22.96 21.116-34.395 30.104a214.123 214.123 0 01-11.021 8.116c-21.316 14.689-42.706 22.172-65.409 22.952-13.657.477-25.523-2.938-35.276-10.163a168.424 168.424 0 01-15.907-13.707c-7.485-7.143-15.016-14.533-22.299-21.685-7.283-7.152-14.695-14.423-22.207-21.602a155.375 155.375 0 00-74.814-39.156c-28.774-6.179-66.429-11.522-102.587 2.084a125.859 125.859 0 00-16.283 7.427c-10.103 5.508-22.042 15.323-34.587 25.706-16.67 13.725-33.908 27.919-48.189 32.941-32.494 11.42-58.779-6.427-86.542-25.422-10.231-6.968-20.812-14.184-32.016-20.198-18.258-9.731-38.96-20.767-59.697-28.533-37.554-14.075-70.764-19.464-101.641-16.48l-.156-1.634c31.088-3.03 64.583 2.414 102.403 16.635 20.848 7.813 41.595 18.867 59.899 28.626 11.287 6.013 21.904 13.248 32.144 20.198 27.433 18.71 53.36 36.374 85.073 25.229 14.006-4.921 31.125-19.023 47.684-32.657 12.646-10.411 24.595-20.252 34.844-25.862a128.645 128.645 0 0116.532-7.528c36.516-13.771 74.483-8.41 103.468-2.176a156.955 156.955 0 0175.604 39.569c7.531 7.189 14.997 14.524 22.225 21.621 7.228 7.097 14.805 14.542 22.281 21.667a166.876 166.876 0 0015.741 13.596c9.57 7.097 20.775 10.32 34.239 9.842 22.372-.78 43.487-8.198 64.537-22.667a197.694 197.694 0 0010.92-8.052c11.415-8.997 22.528-19.215 34.302-30.03 7.55-6.95 15.365-14.129 23.218-20.905a295.639 295.639 0 01205.66-71.646z" fill="url(#paint4_radial_399_771)"/><path d="M886.408 146.873l-.119 1.643c-74.034-5.26-150.758 22.521-210.5 76.201-9.185 8.262-18.286 17.058-27.075 25.559-10.672 10.319-20.747 20.06-31.006 28.965a255.77 255.77 0 01-10.92 8.961c-21.95 17.076-43.367 26.394-65.464 28.46-14.281 1.35-26.515-2.111-36.36-10.301a149.4 149.4 0 01-15.613-15.497c-6.245-6.959-12.518-14.147-18.579-21.116-7.908-9.079-16.091-18.471-24.43-27.597-20.104-21.97-46.839-36.723-77.202-42.626-53.121-10.338-80.692-3.517-98.775 3.58a123.262 123.262 0 00-15.613 7.345c-9.625 5.416-20.775 14.634-32.585 24.393-16.293 13.468-33.146 27.395-47.344 32.27-31.328 10.742-56.74-6.426-83.65-24.659-9.89-6.684-20.113-13.606-30.913-19.28-21.463-11.356-40.87-21.336-60.955-28.405-37.793-13.358-71.7-18.463-103.689-15.534l-.147-1.643c32.227-2.929 66.365 2.185 104.369 15.607 20.205 7.115 39.657 17.122 61.184 28.46 10.874 5.757 21.124 12.697 31.06 19.409 26.561 17.966 51.643 34.887 82.199 24.457 13.914-4.774 30.647-18.6 46.839-31.976 11.866-9.805 23.07-19.069 32.824-24.559a124.145 124.145 0 0115.824-7.446c18.285-7.188 46.15-14.092 99.684-3.672 30.758 5.986 57.759 20.896 78.065 43.15 8.358 9.135 16.532 18.527 24.458 27.615 6.061 6.95 12.325 14.139 18.561 21.116a151.581 151.581 0 0015.447 15.332c9.635 8.006 21.124 11.247 35.157 9.925 22.042-2.084 42.615-11.017 64.61-28.14a226.767 226.767 0 0010.847-8.905c10.231-8.878 20.297-18.609 30.941-28.901 8.808-8.492 17.992-17.287 27.176-25.568 60.055-53.974 137.22-81.902 211.694-76.623z" fill="url(#paint5_radial_399_771)"/><path d="M886.867 134.205l-.156 1.634c-74.235-7.473-153.219 22.108-216.497 81.14-10.865 10.099-21.528 20.969-31.832 31.444-9.23 9.383-17.946 18.252-26.772 26.624a341.954 341.954 0 01-10.819 9.824c-22.868 19.895-43.698 30.691-65.538 33.969-14.832 2.258-27.451-1.258-37.425-10.42a142.377 142.377 0 01-15.337-17.288c-5.511-7.069-11.021-14.377-16.311-21.437-8.11-10.778-16.532-21.924-25.202-32.665-25.082-31.004-57.125-42.232-79.589-46.115-28.609-5.004-62.269-8.263-95.001 5.068a120.066 120.066 0 00-14.952 7.271c-9.129 5.288-19.543 13.945-30.573 23.099-15.917 13.211-32.365 26.872-46.5 31.591-30.16 10.099-54.746-6.427-80.774-23.87-9.542-6.427-19.406-13.028-29.784-18.472-20.894-10.971-41.329-21.391-62.222-28.286-37.894-12.614-72.463-17.379-105.682-14.57l-.138-1.634c33.449-2.828 68.238 1.955 106.352 14.625 20.958 6.931 41.503 17.379 62.452 28.387 10.46 5.508 20.361 12.137 29.94 18.563 25.716 17.233 49.944 33.51 79.333 23.705 13.84-4.59 30.179-18.187 45.976-31.297 11.085-9.181 21.555-17.903 30.794-23.255a120.904 120.904 0 0115.163-7.345c33.118-13.532 67.044-10.2 95.9-5.168 22.74 3.975 55.179 15.304 80.582 46.711 8.716 10.76 17.119 21.915 25.238 32.711 5.317 7.051 10.81 14.35 16.302 21.41a138.57 138.57 0 0015.153 17.085c9.579 8.814 21.712 12.183 36.066 10.017 21.51-3.25 42.073-13.928 64.703-33.602 3.627-3.158 7.255-6.427 10.763-9.778 8.799-8.345 17.514-17.195 26.735-26.569 10.314-10.53 20.968-21.373 31.878-31.526 63.665-59.363 143.043-89.1 217.774-81.581z" fill="url(#paint6_radial_399_771)"/><path d="M887.336 121.543l-.212 1.625c-73.629-9.475-156.809 22.695-222.512 86.069-12.968 12.514-25.532 25.954-37.655 38.954-7.403 7.914-14.392 15.397-21.436 22.649a451.273 451.273 0 01-10.727 10.668c-23.769 22.897-43.992 35.08-65.593 39.478-15.448 3.167-28.397-.395-38.491-10.567-5.832-5.885-10.681-12.642-15.052-19.069-4.997-7.344-9.984-14.955-14.796-22.3-8.064-12.311-16.412-25.045-25.21-37.21-19.379-26.789-48.502-44.407-81.987-49.576-27.488-4.269-59.825-6.83-91.235 6.546a115.242 115.242 0 00-14.281 7.207c-8.624 5.151-18.314 13.239-28.581 21.795-15.522 12.964-31.575 26.358-45.655 30.921-28.985 9.401-52.744-6.426-77.9-23.135-9.183-6.115-18.698-12.44-28.654-17.628-21.123-11.016-41.944-21.473-63.471-28.157-37.93-11.834-73.16-16.259-107.702-13.551l-.129-1.643c34.762-2.754 70.185 1.735 108.318 13.624 21.665 6.72 42.513 17.205 63.746 28.268 10.03 5.224 19.572 11.577 28.802 17.719 24.797 16.525 48.253 32.132 76.485 22.952 13.776-4.471 29.702-17.765 45.113-30.618 10.304-8.603 20.049-16.737 28.783-21.952a116.898 116.898 0 0114.492-7.344c31.777-13.542 64.399-10.971 92.117-6.665 33.926 5.269 63.435 23.117 83.07 50.264 8.817 12.202 17.175 24.944 25.257 37.265 4.812 7.345 9.79 14.937 14.777 22.282 4.325 6.362 9.12 13.055 14.86 18.839 9.68 9.759 22.124 13.156 36.993 10.099 21.271-4.361 41.255-16.416 64.785-39.083a431.526 431.526 0 0010.681-10.631c7.035-7.244 14.024-14.69 21.418-22.622 12.159-13.009 24.742-26.468 37.746-39.018 66.034-63.659 149.711-96.003 223.836-86.455z" fill="url(#paint7_radial_399_771)"/><path d="M887.786 108.872l-.248 1.625c-74.263-11.54-159.684 22.474-228.436 91-15.687 15.607-30.62 32.463-45.058 48.759a5125.955 5125.955 0 01-14.584 16.378 600.634 600.634 0 01-10.635 11.522c-17.377 18.362-38.766 38.128-65.658 44.986-16.017 4.095-29.315.496-39.537-10.705-5.805-6.353-10.525-13.771-14.768-20.849-4.657-7.777-9.258-15.791-13.712-23.549-7.88-13.771-16.026-27.91-24.797-41.36-19.223-29.415-49.227-48.272-84.43-53.064-24.751-3.37-57.052-5.509-87.451 8.033a111.33 111.33 0 00-13.629 7.124c-8.11 5.004-17.083 12.532-26.579 20.51-15.126 12.697-30.776 25.835-44.8 30.241-27.828 8.731-50.77-6.426-75.053-22.391-8.835-5.821-17.973-11.853-27.552-16.774-20.61-10.659-42.596-21.602-64.73-28.029-37.287-10.906-74.198-15.13-109.667-12.55l-.12-1.643c35.662-2.589 72.775 1.652 110.283 12.614 22.28 6.473 44.341 17.444 65.024 28.148 9.606 4.967 18.781 11.017 27.662 16.866 23.952 15.781 46.564 30.691 73.648 22.19 13.721-4.306 29.233-17.334 44.24-29.93 9.542-8.015 18.561-15.607 26.771-20.657a116.004 116.004 0 0113.786-7.225c30.776-13.698 63.37-11.549 88.342-8.162 35.689 4.857 66.07 23.981 85.55 53.837 8.798 13.495 16.954 27.698 24.797 41.442 4.454 7.748 9.055 15.763 13.703 23.521 4.188 7.005 8.853 14.34 14.566 20.592 9.781 10.714 22.537 14.148 37.921 10.209 26.487-6.784 47.656-26.33 64.867-44.545 3.509-3.672 7.081-7.583 10.608-11.503 4.794-5.325 9.652-10.806 14.575-16.361 14.456-16.314 29.389-33.188 45.122-48.841 69.257-68.884 155.202-103.082 229.979-91.459z" fill="url(#paint8_radial_399_771)"/><path d="M888.254 96.205l-.294 1.625c-75.053-13.56-162.733 22.3-234.489 95.92-19.287 19.785-37.223 41.24-54.563 61.98l-5.602 6.702a1034.302 1034.302 0 01-10.534 12.375c-18.607 21.502-39.492 42.498-65.722 50.495-16.577 5.058-30.234 1.413-40.594-10.824-5.786-6.84-10.378-14.919-14.464-22.64-4.381-8.263-8.689-16.764-12.858-25.009-7.614-15.056-15.485-30.627-24.173-45.307-19.057-32.133-49.879-52.275-86.799-56.59-23.548-2.754-54.333-4.159-83.676 9.511a109.373 109.373 0 00-12.959 7.051c-7.595 4.838-15.852 11.825-24.586 19.215-14.695 12.45-29.959 25.321-43.946 29.562-26.634 8.089-48.795-6.353-72.215-21.639-8.477-5.508-17.248-11.255-26.34-15.919-20.949-10.742-43.303-21.74-65.988-27.9a337.54 337.54 0 00-111.706-11.522l-.11-1.644a339.572 339.572 0 01112.23 11.614c22.831 6.206 45.277 17.251 66.3 28.029 9.184 4.7 17.982 10.448 26.496 16.002 23.089 15.075 44.901 29.305 70.837 21.446 13.666-4.14 28.755-16.911 43.358-29.25 8.78-7.427 17.083-14.441 24.797-19.344a109.313 109.313 0 0113.152-7.151c29.711-13.845 60.799-12.431 84.558-9.659 37.435 4.371 68.697 24.789 88.021 57.389 8.715 14.69 16.595 30.297 24.218 45.409 4.161 8.262 8.468 16.736 12.858 24.971 4.05 7.639 8.587 15.608 14.272 22.355 9.891 11.688 22.96 15.158 38.849 10.31 25.881-7.913 46.499-28.708 64.95-50.026 3.389-3.92 6.925-8.079 10.516-12.357l5.602-6.702c17.358-20.767 35.313-42.231 54.646-62.071 72.15-74.015 160.363-110.06 235.958-96.407z" fill="url(#paint9_radial_399_771)"/><path d="M888.704 83.582l-.33 1.606c-75.953-15.543-165.866 22.162-240.496 100.869-21.977 23.182-42.026 48.392-60.688 72.225a2010.803 2010.803 0 01-10.443 13.23c-17.624 22.107-38.702 46.491-65.786 56.003-17.128 6.031-31.134 2.35-41.631-10.944-5.768-7.344-10.222-16.057-14.18-24.421-4.142-8.777-8.193-17.838-12.105-26.624-7.347-16.36-14.851-33.271-23.42-49.117-18.91-34.988-50.595-56.333-89.205-60.088-33.063-3.223-57.74.165-79.902 11.017a105.509 105.509 0 00-12.297 6.968c-7.072 4.664-14.621 11.099-22.612 17.921-14.308 12.201-29.113 24.788-43.082 28.892-25.504 7.427-46.839-6.326-69.377-20.896-8.119-5.242-16.531-10.659-25.174-15.056-21.307-10.834-44.083-21.906-67.246-27.781a368.168 368.168 0 00-113.727-10.558l-.101-1.643a369.992 369.992 0 01114.25 10.585c23.356 5.922 46.197 17.03 67.587 27.909 8.734 4.435 17.165 9.879 25.32 15.149 22.235 14.358 43.239 27.918 68.027 20.693 13.629-3.975 28.296-16.47 42.477-28.57 8.026-6.84 15.613-13.312 22.767-18.041a107.705 107.705 0 0112.49-7.069c22.437-10.971 47.354-14.414 80.775-11.154 39.207 3.81 71.351 25.458 90.491 60.942 8.596 15.901 16.155 32.839 23.474 49.227 3.904 8.758 7.945 17.811 12.087 26.624 3.912 8.263 8.311 16.92 13.987 24.1 10.011 12.642 23.401 16.139 39.795 10.374 26.634-9.383 47.555-33.565 65.042-55.498 3.499-4.388 6.989-8.813 10.433-13.22 18.68-23.87 38.766-49.108 60.789-72.336 75.026-79.129 165.498-117.018 242.011-101.319z" fill="url(#paint10_radial_399_771)"/><path d="M889.172 70.875l-.367 1.607C811.842 54.974 719.698 94.515 642.303 178.28c-18.809 20.363-37.655 43.728-61.212 75.76l-2.425 3.305a3453.543 3453.543 0 01-7.925 10.778c-18.699 25.33-39.189 50.953-65.851 61.511-17.449 6.913-32.144 3.094-42.669-11.072-5.841-7.895-10.103-17.26-13.886-26.202-4.06-9.575-7.972-19.472-11.756-29.048-6.861-17.37-13.96-35.337-22.272-52.082-18.524-37.329-51.917-60.511-91.611-63.586-30.73-2.387-54.921 1.579-76.118 12.476a101.906 101.906 0 00-11.636 6.895c-6.539 4.48-13.391 10.374-20.637 16.617-13.886 11.935-28.25 24.338-42.247 28.231-24.356 6.785-44.855-6.298-66.566-20.152-7.752-4.948-15.779-10.099-23.99-14.202-21.692-10.935-44.855-22.08-68.495-27.662-36.313-8.612-75.245-11.825-115.719-9.557l-.092-1.634c40.649-2.286 79.746.918 116.206 9.593 23.815 5.628 47.078 16.81 68.881 27.791 8.266 4.177 16.339 9.318 24.127 14.285 21.39 13.652 41.595 26.542 65.207 19.95 13.62-3.792 27.837-16.039 41.586-27.882 7.283-6.28 14.171-12.201 20.774-16.737a106.898 106.898 0 0111.839-6.977c21.481-11.017 45.92-15.057 76.999-12.651 40.291 3.13 74.171 26.624 92.962 64.504 8.339 16.81 15.448 34.804 22.317 52.202 3.784 9.566 7.687 19.454 11.747 29.011 3.719 8.859 7.953 18.114 13.693 25.871 10.103 13.689 23.879 17.224 40.741 10.512 26.257-10.42 46.573-35.805 65.134-60.978 2.651-3.593 5.293-7.186 7.926-10.779l2.424-3.305c23.558-32.077 42.468-55.488 61.332-75.897C718.89 92.973 811.631 53.239 889.172 70.875z" fill="url(#paint11_radial_399_771)"/><path d="M889.622 58.213l-.404 1.598C810.951 40.292 716.557 81.689 636.71 170.54c-19.764 21.85-39.96 47.786-61.736 79.304l-7.035 10.236-3.223 4.701c-19.71 28.717-39.584 55.452-65.915 67.019-17.973 7.905-33.063 4.04-43.698-11.191-5.823-8.345-9.974-18.362-13.592-27.983-3.849-10.099-7.504-20.556-11.021-30.664-6.539-18.655-13.29-37.953-21.491-55.874-18.414-40.267-52.689-64.724-94.027-67.084-28.746-1.652-51.734 2.754-72.334 13.955a101.892 101.892 0 00-11.021 6.812c-5.988 4.278-12.142 9.649-18.662 15.332-13.455 11.724-27.36 23.87-41.329 27.542-23.19 6.161-42.89-6.261-63.756-19.399-7.347-4.654-15.025-9.474-22.786-13.349-22.115-11.017-45.718-22.263-69.8-27.542-36.12-7.95-74.63-10.751-117.739-8.556l-.083-1.644c43.257-2.203 81.913.615 118.172 8.593 24.237 5.316 47.941 16.581 70.148 27.671 7.834 3.911 15.512 8.75 22.961 13.423 20.544 12.944 39.95 25.173 62.451 19.206 13.602-3.608 27.369-15.608 40.677-27.203 6.548-5.71 12.738-11.109 18.791-15.424a105.653 105.653 0 0111.168-6.904c20.884-11.31 44.148-15.809 73.215-14.147 41.972 2.405 76.752 27.203 95.433 68.048 8.265 17.985 14.997 37.32 21.545 56.003 3.536 10.098 7.192 20.537 11.021 30.627 3.582 9.502 7.688 19.417 13.4 27.625 12.775 18.361 29.729 15.891 41.696 10.622 25.936-11.412 45.645-37.944 65.207-66.46l3.224-4.701c2.36-3.433 4.702-6.858 7.044-10.236 21.812-31.582 42.054-57.573 61.864-79.478C715.758 80.128 810.758 38.548 889.622 58.213z" fill="url(#paint12_radial_399_771)"/><path d="M890.082 45.545l-.423 1.589C810.281 25.696 713.636 68.938 631.135 162.81c-20.875 23.595-41.833 51.495-62.259 82.838a2064.333 2064.333 0 00-9.643 14.965l-.533.826c-16.825 26.276-37.765 58.959-65.969 72.528-23.392 11.265-37.242.074-44.736-11.292-5.804-8.813-9.818-19.509-13.299-29.764-3.673-10.65-7.053-21.667-10.368-32.316-6.191-19.941-12.592-40.552-20.665-59.629-18.368-43.315-53.479-69.049-96.433-70.591-26.368-.918-48.786 4.094-68.569 15.433a101.904 101.904 0 00-10.295 6.738c-5.437 4.049-10.92 8.896-16.715 14.028-13.005 11.495-26.441 23.384-40.41 26.891-22.042 5.508-41.815-6.766-60.946-18.665-7.017-4.36-14.272-8.868-21.592-12.485-22.556-11.155-46.628-22.457-71.02-27.405-35.736-7.262-73.786-9.677-119.807-7.565l-.083-1.634c46.168-2.121 84.347.294 120.156 7.592 24.586 4.985 48.758 16.342 71.425 27.543 7.347 3.672 14.694 8.18 21.72 12.559 19.709 12.256 38.325 23.824 59.697 18.472 13.611-3.416 26.9-15.167 39.749-26.533 5.832-5.159 11.333-10.034 16.825-14.12a104.391 104.391 0 0110.488-6.849c20.04-11.485 42.761-16.608 69.432-15.607 43.625 1.57 79.314 27.662 97.903 71.61 8.1 19.151 14.511 39.808 20.719 59.776 3.307 10.65 6.723 21.648 10.36 32.28 3.435 10.154 7.412 20.739 13.115 29.378 12.922 19.61 30.307 16.663 42.642 10.732 27.791-13.376 48.593-45.848 65.308-71.94l.523-.826c3.233-5.041 6.429-10.099 9.653-14.974 20.481-31.426 41.475-59.354 62.452-83.04 82.868-94.397 180.128-137.859 260.122-116.22z" fill="url(#paint13_radial_399_771)"/><path d="M890.541 32.885l-.46 1.58c-80.526-23.348-179.42 21.74-264.502 120.607a666.279 666.279 0 00-62.819 86.418 1137.616 1137.616 0 00-9.524 15.718l-.551.918c-17.845 29.746-38.059 63.467-66.043 78.037-18.782 9.786-35.029 5.728-45.756-11.421-5.795-9.264-9.68-20.629-13.004-31.536-3.444-11.219-6.641-22.814-9.726-34.033-5.841-21.19-11.875-43.104-19.82-63.348-17.982-45.793-54.939-73.501-98.857-74.107-23.999-.321-45.793 5.362-64.776 16.92a98.825 98.825 0 00-9.662 6.666c-4.877 3.782-9.689 8.125-14.795 12.715-12.518 11.274-25.468 22.952-39.492 26.239-20.876 4.902-39.822-6.702-58.145-17.912-6.649-4.076-13.519-8.263-20.38-11.632-23.079-11.274-47.637-22.658-72.343-27.285-34.9-6.565-72.453-8.584-121.753-6.565l-.065-1.643c49.43-2.029 87.093 0 122.15 6.592 24.888 4.664 49.593 16.103 72.7 27.423 6.935 3.387 13.841 7.62 20.518 11.705 18.047 11.017 36.736 22.466 56.941 17.719 13.648-3.204 26.441-14.689 38.803-25.862 5.125-4.591 9.965-8.97 14.888-12.798a103.553 103.553 0 019.808-6.766c19.287-11.715 41.329-17.49 65.658-17.159 44.552.615 82.096 28.69 100.336 75.144 7.972 20.299 14.015 42.232 19.865 63.495 3.095 11.2 6.282 22.786 9.717 33.968 3.297 10.797 7.136 22.034 12.858 31.142 13.078 20.913 30.932 17.443 43.597 10.842 27.552-14.359 47.665-47.868 65.391-77.43l.56-.919c3.123-5.205 6.346-10.585 9.533-15.735a667.947 667.947 0 0162.939-86.593C709.852 54.625 809.371 9.355 890.541 32.885z" fill="url(#paint14_radial_399_771)"/><path d="M890.991 20.233l-.487 1.57C808.766-3.444 707.639 43.488 619.968 147.35a637.058 637.058 0 00-63.316 89.971c-3.269 5.573-6.428 11.219-9.992 17.499l-.542.918c-18.552 32.959-37.746 67.02-65.565 82.627-19.333 10.806-35.947 6.702-46.784-11.549-5.437-9.108-9.01-19.904-12.702-33.308-3.251-11.788-6.226-23.98-9.11-35.805-5.511-22.447-11.141-45.647-18.938-67.02-17.927-49.044-55.793-78.037-101.273-77.614a112.58 112.58 0 00-61.001 18.361 103.075 103.075 0 00-9.001 6.592c-4.298 3.507-8.669 7.528-12.857 11.421-12.032 11.017-24.467 22.502-38.574 25.578-19.718 4.287-37.829-6.62-55.352-17.168-6.273-3.774-12.757-7.685-19.168-10.779-24.53-11.861-48.62-22.869-73.537-27.166-42.302-7.344-84.494-6.986-123.765-5.554l-.055-1.643c39.372-1.432 81.656-1.745 124.096 5.582 25.128 4.333 49.337 15.387 73.978 27.303 6.429 3.131 12.995 7.051 19.286 10.852 17.248 10.374 35.075 21.116 54.187 16.966 13.684-2.984 25.954-14.267 37.82-25.183 4.243-3.902 8.633-7.941 12.977-11.485a106.146 106.146 0 019.184-6.693 114.159 114.159 0 0161.773-18.628 99.816 99.816 0 0159.531 18.977c19.03 13.661 33.981 34.327 43.294 59.749 7.834 21.437 13.51 44.682 18.993 67.166 2.874 11.779 5.85 23.962 9.101 35.722 3.674 13.285 7.182 23.962 12.527 32.914 7.292 12.283 20.94 24.154 44.571 10.943 27.414-15.323 46.49-49.191 64.931-81.948l.542-.918c3.536-6.288 6.732-11.935 10.002-17.526a638.772 638.772 0 0163.462-90.228C706.859 41.89 808.609-5.234 890.991 20.233z" fill="url(#paint15_radial_399_771)"/><path d="M891.459 7.554l-.505 1.561C771.055-30.096 628.958 92.1 550.554 233.071c-3.83 6.885-7.706 14.202-11.453 21.272-18.139 34.207-36.874 69.581-64.601 86.115-9.891 5.894-19.498 7.859-27.754 5.674-7.963-2.102-14.695-7.932-20.049-17.333-5.456-9.603-8.909-20.969-12.408-35.089-3.068-12.367-5.832-25.155-8.495-37.531-5.116-23.677-10.397-48.162-18.066-70.637-17.624-51.669-57.354-82.755-103.679-81.121-19.976.707-39.235 7.39-57.226 19.867-6.723 4.655-13.152 10.705-19.425 16.626-11.498 10.87-23.392 22.098-37.599 24.917-18.562 3.672-35.819-6.528-52.561-16.406-5.896-3.489-11.995-7.088-17.946-9.934-25.128-11.99-49.75-23.08-74.805-27.037-41.677-6.574-83.272-5.913-125.767-4.591l-.055-1.643c42.578-1.349 84.264-2.02 126.08 4.591 25.274 3.993 50.016 15.139 75.254 27.184 6.016 2.873 12.142 6.491 18.075 9.998 16.448 9.722 33.457 19.775 51.431 16.213 13.776-2.754 25.458-13.771 36.791-24.504 6.273-5.921 12.766-12.054 19.581-16.782 18.258-12.66 37.802-19.445 58.098-20.198 47.087-1.652 87.433 29.856 105.306 82.232 7.696 22.567 12.986 47.098 18.111 70.83 2.663 12.357 5.418 25.128 8.486 37.476 3.471 13.982 6.879 25.238 12.242 34.676 5.051 9.034 11.48 14.616 19.011 16.608 7.825 2.065 16.982.165 26.496-5.509 27.36-16.296 45.995-51.458 64.005-85.473 3.747-7.078 7.632-14.395 11.471-21.299C627.875 90.705 770.706-31.941 891.459 7.554z" fill="url(#paint16_radial_399_771)"/><path d="M891.275 11.51l-.477 1.57C847.816-.032 800.095 6.652 748.967 32.78c-44.846 22.952-90.702 60.52-132.618 108.618a597.725 597.725 0 00-59.844 81.543c-3.968 6.5-7.981 13.423-11.857 20.106-3.407 5.867-6.924 11.935-10.488 17.839-14.575 24.31-31.189 48.538-53.507 61.015-19.286 10.833-35.873 6.867-46.839-11.191-5.905-9.723-9.735-21.557-13.004-32.904-3.27-11.348-6.337-23.237-9.276-34.63-5.713-22.162-11.627-45.087-19.608-66.037-18.543-48.658-57.52-76.871-101.742-73.63-19.626 1.441-39.124 8.905-57.943 22.19-6.732 4.765-13.225 10.796-19.507 16.635-12.031 11.173-24.466 22.732-39.179 25.964a46.58 46.58 0 01-18.478.192c-13.299-2.387-26.313-9.639-38.904-16.654-5.07-2.827-10.314-5.747-15.411-8.262-5.933-2.901-11.885-5.885-17.808-8.851l-2.517-1.257c-15.806-7.831-34.624-16.443-54.315-20.859a398.958 398.958 0 00-42.247-7.069 494.798 494.798 0 00-85.008-2.259l-.092-1.634a496.311 496.311 0 0185.293 2.277 402.197 402.197 0 0142.376 7.097c19.865 4.462 38.793 13.119 54.691 20.996l2.517 1.258c5.923 2.965 11.865 5.94 17.798 8.841 5.134 2.516 10.397 5.444 15.485 8.263 12.472 6.95 25.366 14.138 38.399 16.47a44.88 44.88 0 0017.826-.174c14.281-3.14 26.551-14.534 38.417-25.56 6.319-5.875 12.858-11.935 19.682-16.773 19.066-13.468 38.839-21.033 58.778-22.493 45.002-3.296 84.586 25.321 103.395 74.686 8.018 21.042 13.941 44.003 19.663 66.211 2.939 11.394 5.979 23.164 9.267 34.584 3.233 11.238 7.026 22.952 12.858 32.51 7.347 12.155 21.123 23.87 44.634 10.612 22.042-12.302 38.445-36.309 52.91-60.427 3.554-5.904 7.072-11.935 10.47-17.82 3.885-6.693 7.898-13.615 11.875-20.134a599.707 599.707 0 0160.009-81.764c42.045-48.235 88.067-85.932 133.069-108.985 51.55-26.385 99.684-33.05 143.088-19.812z" fill="url(#paint17_radial_399_771)"/><path d="M891.11 15.459l-.45 1.579C813.302-4.748 715.39 39.586 622.034 138.665a583.01 583.01 0 00-59.559 74.153c-4.124 6.114-8.266 12.633-12.344 18.94-3.297 5.141-6.704 10.466-10.148 15.662-14.612 22.227-31.162 44.38-53.148 55.92-23.943 12.569-38.17 1.111-45.921-10.723-6.062-9.291-10.268-20.748-13.593-30.728-3.48-10.42-6.768-21.116-9.937-31.462-6.355-20.73-12.931-42.168-21.289-61.695-19.452-45.491-57.694-70.83-99.794-66.102-19.287 2.149-38.996 10.393-58.65 24.513-6.723 4.838-13.253 10.815-19.562 16.59-12.546 11.457-25.541 23.392-40.796 27.065a50.354 50.354 0 01-18.873.771c-15.127-2.084-30.06-10.044-44.497-17.737-3.849-2.048-7.834-4.178-11.701-6.115-6.043-3.02-12.582-6.472-20.563-10.879-15.742-8.685-34.459-18.362-53.92-24.017a377.387 377.387 0 00-42.063-9.695c-29.39-5.068-59.385-6.582-86.616-4.38l-.128-1.642c27.36-2.213 57.456-.689 87.028 4.406a381.627 381.627 0 0142.247 9.732c19.608 5.738 38.427 15.433 54.25 24.155 7.964 4.397 14.475 7.84 20.509 10.851 3.876 1.947 7.871 4.077 11.728 6.133 14.318 7.629 29.114 15.516 43.946 17.563a48.873 48.873 0 0018.267-.744c14.833-3.571 27.681-15.322 40.107-26.679 6.347-5.812 12.913-11.816 19.709-16.709 19.893-14.295 39.887-22.64 59.44-24.788 42.844-4.774 81.739 20.941 101.485 67.13 8.385 19.601 14.979 41.084 21.343 61.86 3.169 10.328 6.429 21.014 9.928 31.425 3.288 9.879 7.449 21.217 13.409 30.343 13.299 20.344 31.134 16.727 43.744 10.117 21.656-11.366 38.05-33.335 52.533-55.378 3.444-5.187 6.852-10.503 10.103-15.608 4.05-6.316 8.266-12.853 12.371-18.967a583.195 583.195 0 0159.697-74.364c42.247-44.83 87.359-79.974 130.478-101.622C801.978 10.483 849.01 3.607 891.11 15.459z" fill="url(#paint18_radial_399_771)"/><path d="M890.936 19.415l-.413 1.588C790.994-4.621 683.145 82.018 627.719 135.909a582.086 582.086 0 00-59.283 66.772c-4.473 5.949-9.037 12.33-13.455 18.499-3.031 4.233-6.08 8.511-9.184 12.743-14.805 20.262-31.446 40.396-52.772 50.834-12.812 6.307-31.015 9.576-44.929-10.218-6.208-8.832-10.653-19.381-14.18-28.543-3.527-9.162-7.044-18.747-10.369-27.909-7.347-20.327-14.382-39.478-23.18-57.738-20.389-42.177-57.86-64.651-97.857-58.665-19.149 2.873-38.574 11.65-59.376 26.844-6.676 4.893-13.206 10.778-19.516 16.47-13.161 11.862-26.762 24.127-42.587 28.231a54.495 54.495 0 01-19.286 1.368c-17.533-1.726-34.964-10.796-51.826-19.573-2.094-1.083-4.179-2.176-6.255-3.232-6.585-3.36-13.39-7.17-20.792-11.659-16.688-10.099-34.725-20.382-53.525-27.175a356.464 356.464 0 00-41.917-12.321c-30.867-7.06-61.377-9.31-88.222-6.51l-.175-1.633c27.029-2.819 57.722-.551 88.765 6.536a358.23 358.23 0 0142.109 12.385c18.937 6.84 37.058 17.168 53.819 27.313 7.347 4.462 14.134 8.263 20.692 11.595 2.075 1.065 4.16 2.158 6.263 3.25 16.715 8.694 33.981 17.692 51.22 19.39a52.818 52.818 0 0018.708-1.322c15.429-4.012 28.884-16.14 41.898-27.864 6.346-5.719 12.904-11.632 19.645-16.58 21.031-15.35 40.695-24.228 60.101-27.138 40.713-6.096 78.873 16.727 99.583 59.574 8.835 18.288 16.164 38.421 23.245 57.894 3.325 9.18 6.769 18.618 10.36 27.882 3.49 9.061 7.88 19.499 13.987 28.184 13.253 18.849 30.629 15.69 42.862 9.732 21.004-10.246 37.49-30.241 52.175-50.329 3.095-4.241 6.144-8.501 9.184-12.734 4.418-6.178 8.983-12.559 13.474-18.536a584.475 584.475 0 0159.448-66.964C682.245 80.595 790.627-6.393 890.936 19.415z" fill="url(#paint19_radial_399_771)"/><path d="M890.762 23.362l-.368 1.607c-70.57-16.379-157.002 20.05-257.008 108.25-22.96 20.28-42.247 39.698-59.008 59.381-4.868 5.729-9.625 11.623-14.649 17.866-2.691 3.333-5.4 6.693-8.137 10.035-14.915 18.233-31.602 36.429-52.386 45.775-17.799 7.941-32.971 4.59-43.992-9.823-6.429-8.41-11.26-18.5-14.768-26.349-3.508-7.85-7.035-15.975-10.387-23.76-8.266-19.179-16.082-37.292-25.495-54.387-21.307-38.706-58.062-58.316-95.919-51.183-18.699 3.526-38.353 13.101-60.073 29.167-6.595 4.921-13.079 10.687-19.351 16.26-13.777 12.256-28.021 24.916-44.452 29.497a59.36 59.36 0 01-19.663 1.947c-20.857-1.276-42.531-12.633-59.954-21.759a237.262 237.262 0 01-20.976-12.43c-19.562-12.853-36.084-22.952-53.13-30.297a334.618 334.618 0 00-41.779-14.955c-22.198-6.317-55.812-12.936-89.83-8.63l-.202-1.635c34.285-4.342 68.128 2.332 90.482 8.686a337.139 337.139 0 0141.98 15.019c17.157 7.4 33.752 17.535 53.379 30.48a239.958 239.958 0 0020.885 12.349c17.284 9.052 38.793 20.317 59.292 21.574 6.436.443 12.899-.2 19.122-1.9 16.063-4.471 30.16-17.012 43.799-29.14 6.291-5.6 12.802-11.384 19.461-16.351 21.913-16.25 41.797-25.89 60.771-29.46 38.573-7.272 75.999 12.65 97.664 52.008 9.45 17.168 17.275 35.309 25.559 54.525 3.353 7.785 6.824 15.818 10.388 23.732 3.462 7.776 8.265 17.756 14.566 26.037 10.598 13.899 24.723 17.021 41.98 9.281 20.472-9.18 37.003-27.184 51.817-45.279a1972.46 1972.46 0 008.119-10.025c4.821-5.977 9.799-12.156 14.694-17.894 16.77-19.748 36.131-39.229 59.174-59.555C732.721 43.403 819.677 6.864 890.762 23.362z" fill="url(#paint20_radial_399_771)"/><path d="M890.587 27.32l-.331 1.616c-87.047-17.884-185.041 49.383-251.185 101.558-23.429 18.49-42.642 35.493-58.779 52.009-5.437 5.582-10.764 11.366-16.403 17.489a2241.759 2241.759 0 01-6.52 7.051c-13.988 15.167-30.776 32.013-51.992 40.652-17.449 7.115-31.933 3.976-42.981-9.318-6.521-7.84-11.627-17.03-15.356-24.164-3.031-5.811-5.997-11.614-8.936-17.361-9.634-18.829-18.727-36.622-29.279-53.248-22.217-35.098-58.237-51.853-93.991-43.719-18.533 4.223-37.866 14.23-60.808 31.499-6.474 4.903-12.857 10.521-19.066 15.956-14.428 12.679-29.389 25.789-46.444 30.848a64.407 64.407 0 01-20.049 2.543c-21.335-.551-43.229-10.778-61.827-20.712a190.48 190.48 0 01-21.261-13.211c-17.524-12.495-34.735-24.458-52.736-33.501A322.76 322.76 0 00-8.988 95.699c-22.731-7.721-57.043-15.856-91.437-10.751l-.248-1.625c34.725-5.15 69.312 3.011 92.217 10.824a323.838 323.838 0 0141.843 17.664c18.102 9.098 35.368 21.116 52.947 33.638a188.478 188.478 0 0021.123 13.092c18.387 9.842 40.089 19.977 61.056 20.519 6.604.208 13.2-.625 19.544-2.47 16.733-4.966 31.52-17.948 45.819-30.507 6.209-5.454 12.629-11.1 19.159-16.039 23.143-17.444 42.66-27.543 61.441-31.784 36.452-8.263 73.133 8.731 95.736 44.435 10.589 16.727 19.699 34.538 29.389 53.404a3327.698 3327.698 0 008.936 17.352c3.674 7.06 8.743 16.158 15.154 23.87 10.552 12.679 24.374 15.653 41.108 8.841 20.894-8.51 37.517-25.238 51.431-40.248 2.186-2.351 4.356-4.698 6.511-7.042 5.649-6.133 11.021-11.935 16.44-17.526 16.136-16.525 35.395-33.62 58.888-52.147 46.94-37.026 85.872-62.282 122.526-79.478 48.317-22.658 92.052-30.204 129.992-22.4z" fill="url(#paint21_radial_399_771)"/><path d="M890.422 31.249l-.294 1.616c-79.635-14.139-168.418 41.533-245.39 94.901-24.945 17.288-42.973 31.05-58.457 44.628-6.356 5.573-12.61 11.421-19.232 17.618l-3.83 3.58c-14.235 13.276-31.134 28.066-51.66 35.548-16.89 6.161-31.024 3.186-42.009-8.841-5.244-5.738-10.157-12.513-15.934-21.979l-5.63-9.235c-11.618-19.124-22.602-37.183-34.899-53.892-23.117-31.352-58.393-45.242-92.062-36.254-23.484 6.27-45.223 21.372-61.534 33.831-6.3 4.838-12.563 10.273-18.616 15.534-15.135 13.147-30.794 26.743-48.593 32.325a70.284 70.284 0 01-20.444 3.122c-18.258.146-39.097-6.28-63.71-19.666a159.147 159.147 0 01-21.49-13.982c-16.027-12.293-34.184-26.229-52.35-36.659A311.195 311.195 0 00-7.206 93.246C-39.948 80.32-73.001 75.748-100.26 80.394l-.275-1.616c27.552-4.673 60.918-.074 93.935 12.963a314.312 314.312 0 0141.705 20.299c18.249 10.484 36.452 24.457 52.515 36.787a159.012 159.012 0 0021.27 13.845c24.366 13.247 44.947 19.61 62.911 19.463a68.491 68.491 0 0019.967-3.076c17.45-5.508 32.998-18.958 48.014-31.995 6.071-5.27 12.344-10.723 18.69-15.607 16.44-12.55 38.353-27.763 62.103-34.116 34.339-9.18 70.295 4.958 93.816 36.87 12.352 16.773 23.373 34.869 35 54.029l5.63 9.181c5.722 9.364 10.571 16.066 15.742 21.721 10.488 11.486 24.025 14.313 40.235 8.41 20.205-7.345 36.985-22.034 51.092-35.208l3.829-3.581c6.631-6.197 12.858-12.054 19.287-17.654 15.54-13.615 33.614-27.414 58.613-44.738 77.22-53.47 166.343-109.37 246.603-95.122z" fill="url(#paint22_radial_399_771)"/><path d="M890.238 35.233l-.239 1.625c-74.024-11.017-153.614 36.723-223.826 78.762-5.336 3.195-10.599 6.353-15.769 9.429-19.434 11.549-39.924 23.934-58.191 37.237-7.347 5.38-14.575 11.017-23.208 17.847-15.108 11.935-31.52 24.137-51.275 30.453-16.311 5.215-30.115 2.405-41.026-8.373a153.244 153.244 0 01-16.531-19.775c-14.116-19.592-28.012-38.559-42.871-55.617-24.338-27.9-58.044-38.67-90.152-28.8-22.639 6.959-43.303 21.492-62.25 36.163-6.07 4.728-12.123 9.933-17.973 14.964-15.907 13.67-32.356 27.818-50.944 33.969a76.762 76.762 0 01-20.839 3.672c-24.568 1.001-49.227-9.566-65.584-18.609a141.945 141.945 0 01-21.711-14.753l-3.058-2.507c-16.614-13.679-32.31-26.624-48.869-37.32A304.355 304.355 0 00-5.407 90.768c-19.286-8.658-57.198-22.117-94.679-15.002l-.303-1.615c37.912-7.198 76.228 6.38 95.653 15.111a305.553 305.553 0 0141.567 22.952c16.642 10.778 33.063 24.329 49.025 37.421l3.058 2.515a139.135 139.135 0 0021.464 14.589c16.182 8.942 40.538 19.399 64.72 18.361a74.614 74.614 0 0020.398-3.626c18.276-6.023 34.597-20.06 50.384-33.629 5.869-5.05 11.939-10.264 18.038-15.011 19.075-14.772 39.886-29.378 62.773-36.438 32.751-10.1 67.099.918 91.841 29.286 14.906 17.086 28.829 36.117 42.964 55.737a151.273 151.273 0 0016.338 19.573c10.433 10.31 23.677 12.991 39.372 7.978 19.489-6.243 35.754-18.361 50.752-30.177 8.651-6.83 15.852-12.495 23.254-17.884 18.322-13.358 38.858-25.761 58.319-37.329 5.18-3.06 10.436-6.2 15.769-9.42 70.479-42.167 150.335-90.026 224.938-78.927z" fill="url(#paint23_radial_399_771)"/><path d="M890.063 39.18l-.192 1.635c-63.894-7.546-133.354 29.03-194.63 61.3-13.657 7.189-26.551 13.982-39.189 20.198l-8.22 4.039c-17.56 8.63-34.146 16.774-49.704 25.826-6.686 3.893-13.886 8.364-23.346 14.496-16.072 10.43-32.053 20.198-50.88 25.348-15.751 4.297-29.215 1.644-40.034-7.886a175.356 175.356 0 01-17.082-17.59c-16.614-19.344-30.978-34.63-45.204-48.107-25.165-23.87-58.163-31.83-88.25-21.346-23.053 8.043-44.589 24.081-62.967 38.495-5.758 4.545-11.526 9.456-17.101 14.212-16.751 14.267-34.063 29.03-53.525 35.75a84.035 84.035 0 01-21.233 4.287c-20.692 1.488-44.653-4.746-67.458-17.553a127.463 127.463 0 01-21.94-15.543l-7.146-6.28c-15.098-13.294-29.389-25.844-44.387-36.723a300.234 300.234 0 00-41.2-25.44C-36.897 71.561-71.99 65.346-99.928 71.176l-.331-1.607c28.287-5.93 63.775.358 97.352 17.26a300.617 300.617 0 0141.43 25.596c15.098 10.916 30.05 24.081 44.506 36.815l7.145 6.28a125.896 125.896 0 0021.656 15.332c22.538 12.66 46.169 18.82 66.539 17.351a81.554 81.554 0 0020.82-4.195c19.158-6.62 36.36-21.281 52.984-35.447 5.593-4.765 11.369-9.695 17.155-14.258 18.488-14.487 40.153-30.627 63.444-38.752 30.684-10.686 64.289-2.58 89.931 21.703 14.263 13.523 28.655 28.846 45.305 48.227a174.036 174.036 0 0016.927 17.443c10.378 9.181 23.337 11.687 38.518 7.538 18.598-5.077 34.459-14.781 50.412-25.137 9.487-6.151 16.706-10.632 23.419-14.543 15.613-9.079 32.218-17.241 49.806-25.871l8.219-4.04c12.61-6.224 25.505-13.009 39.152-20.197 61.506-32.4 131.204-69.104 195.603-61.493z" fill="url(#paint24_radial_399_771)"/><path d="M889.889 43.14l-.147 1.643C834.206 40 776.116 67.322 719.928 93.735c-20.417 9.594-39.703 18.655-58.228 25.862-6.677 2.598-13.298 5.086-19.7 7.482-13.298 4.995-25.853 9.75-38.003 15.002-7.348 3.222-15.062 6.876-23.493 11.154-14.741 7.492-31.465 15.984-50.513 20.198-15.191 3.397-28.324.918-39.033-7.409a218.931 218.931 0 01-17.661-15.396 531.351 531.351 0 00-47.472-40.542c-26.313-19.996-57.796-25.064-86.331-13.9-22.308 8.722-42.853 24.283-63.683 40.827-5.354 4.278-10.736 8.823-15.934 13.23-17.68 14.955-35.965 30.415-56.4 37.788a92.078 92.078 0 01-21.628 4.865c-22.097 2.241-46.72-3.617-69.331-16.525a117.493 117.493 0 01-22.17-16.314c-3.674-3.397-7.302-6.8-10.884-10.209-13.087-12.321-26.634-25.064-40.245-35.952A295.236 295.236 0 00-1.843 85.812c-33.687-18.766-69.386-25.77-97.912-19.28l-.376-1.597c28.93-6.629 65.042.45 99.096 19.399a299.03 299.03 0 0141.329 28.24c13.684 10.934 27.24 23.695 40.336 36.034 3.546 3.461 7.22 6.877 10.838 10.255a115.786 115.786 0 0021.867 16.094c22.317 12.716 46.591 18.499 68.348 16.296a90.436 90.436 0 0021.243-4.783c20.15-7.262 38.316-22.631 55.885-37.494 5.217-4.407 10.599-8.97 15.972-13.257 20.939-16.618 41.595-32.271 64.114-41.066 29.123-11.384 61.185-6.234 87.956 14.111A533.202 533.202 0 01474.5 149.49a217.03 217.03 0 0017.524 15.276c10.451 8.116 22.776 10.448 37.655 7.106 18.8-4.204 35.423-12.651 50.081-20.105 8.458-4.297 16.164-7.951 23.575-11.192 12.151-5.306 24.733-10.034 38.05-15.029 6.429-2.405 13.014-4.884 19.682-7.473 18.515-7.198 37.756-16.241 58.126-25.825 56.418-26.505 114.709-53.92 170.696-49.108z" fill="url(#paint25_radial_399_771)"/><path d="M889.705 47.096l-.082 1.598c-48.41-2.525-99.189 19.096-148.26 40-26.018 11.081-50.586 21.547-74.033 28.13-9.478 2.672-18.781 5.004-27.782 7.262-10.304 2.58-20.049 5.022-29.628 7.84a357.537 357.537 0 00-23.621 7.804l-3.426 1.304c-14.529 5.38-29.554 10.943-46.655 13.89-14.64 2.525-27.433.193-38.022-6.931a322.302 322.302 0 01-18.222-13.202c-18.414-14.34-36.305-25.211-49.833-33.051-26.983-15.699-57.777-18.05-84.494-6.426-23.272 10.098-45.121 27.67-64.399 43.149-4.821 3.902-9.689 7.987-14.4 11.935-18.727 15.754-38.096 32.041-59.642 40.12a100.522 100.522 0 01-22.042 5.454c-23.07 2.992-49.025-2.635-71.204-15.452a109.784 109.784 0 01-22.391-17.085c-4.785-4.728-9.533-9.502-14.254-14.249-11.857-11.935-24.108-24.264-36.47-35.089C26.389 101.4 12.999 91.357-.07 83.379c-33.605-20.483-70.819-28.46-99.556-21.355l-.395-1.597c29.591-7.345 66.337.532 100.805 21.556 13.18 8.024 26.643 18.123 41.145 30.847 12.398 10.871 24.677 23.219 36.552 35.172 4.721 4.747 9.46 9.511 14.245 14.23a108.426 108.426 0 0022.042 16.838c21.867 12.633 47.445 18.187 70.167 15.24a98.956 98.956 0 0021.665-5.353c21.279-7.987 40.529-24.182 59.155-39.844 4.711-3.957 9.588-8.052 14.419-11.935 19.36-15.607 41.328-33.198 64.785-43.388 27.203-11.816 58.539-9.43 85.981 6.527 13.574 7.896 31.529 18.811 50.017 33.207 5.841 4.59 11.939 8.97 18.129 13.128 10.369 6.978 22.419 9.181 36.829 6.675 16.944-2.92 31.896-8.456 46.361-13.771l3.407-1.258c7.899-2.91 15.613-5.509 23.732-7.84 9.607-2.828 19.36-5.27 29.683-7.859 8.991-2.259 18.286-4.591 27.745-7.244 23.383-6.619 47.905-17.085 73.868-28.102 49.264-21.006 100.236-42.7 148.994-40.157z" fill="url(#paint26_radial_399_771)"/><path d="M889.521 51.052v1.644c-42.173-.689-86.423 16.626-129.221 33.363-30.739 12.026-59.779 23.392-87.313 28.074-11.453 1.956-22.602 3.296-33.393 4.591-8.266.991-15.999 1.937-23.769 3.112-8.532 1.285-16.311 2.754-23.759 4.462-2.976.688-5.97 1.405-9.001 2.121-12.811 3.057-26.055 6.215-40.639 7.932-14.3 1.689-26.405-.413-37.003-6.427-5.272-3.002-12.178-6.959-18.791-11.017-17.964-11.017-35.68-18.783-52.138-25.577-16.164-6.665-48.391-15.396-82.657 1.019-22.354 10.705-42.311 26.945-63.444 44.132l-1.681 1.359c-4.132 3.378-8.265 6.83-12.361 10.273-19.93 16.7-40.539 33.969-63.371 42.847a108.927 108.927 0 01-22.418 6.022c-24.292 3.819-50.926-1.432-73.069-14.395a103.453 103.453 0 01-22.62-17.857c-5.823-6.068-11.637-12.311-17.267-18.361-10.745-11.532-21.849-23.457-33.062-34.153-14.695-14.047-27.645-24.641-40.778-33.344-33.981-22.503-71.792-31.28-101.181-23.476l-.423-1.588c29.83-7.923 68.155.918 102.513 23.696 13.216 8.749 26.24 19.408 41.007 33.528 11.232 10.723 22.364 22.667 33.118 34.216 5.62 6.032 11.434 12.275 17.248 18.362a102.259 102.259 0 0022.271 17.563c21.822 12.77 48.061 17.948 71.986 14.193a108.157 108.157 0 0022.041-5.94c22.575-8.786 43.083-25.963 62.912-42.571 4.123-3.452 8.265-6.904 12.38-10.282l1.681-1.368c20.278-16.526 41.245-33.547 63.774-44.344 34.826-16.68 67.568-7.822 83.98-1.046 16.412 6.775 34.311 14.643 52.349 25.706 6.594 4.03 13.473 7.978 18.736 11.017 10.286 5.848 22.041 7.895 36.001 6.252 14.493-1.717 27.69-4.856 40.41-7.905 3.062-.728 6.065-1.435 9.01-2.12 7.504-1.726 15.31-3.195 23.879-4.49 7.788-1.184 15.613-2.12 23.823-3.112 10.764-1.304 21.904-2.653 33.311-4.59 27.369-4.664 56.326-15.993 86.992-27.983 43.037-16.856 87.442-34.235 129.937-33.538z" fill="url(#paint27_radial_399_771)"/><path d="M889.375 56.66c-36.626.781-75.025 14.782-112.156 28.333-34.753 12.678-67.605 24.659-98.647 26.395-12.757.716-25.146.56-37.141.413-6.814-.083-13.252-.166-19.764-.101-9.037.091-16.632.459-23.879 1.129-5.813.542-11.617 1.221-17.762 1.928-10.038 1.166-20.425 2.378-31.455 3.048-13.776.835-25.532-1.111-35.965-5.968a1333.37 1333.37 0 00-11.646-5.315c-2.608-1.185-5.17-2.341-7.705-3.507-18.717-8.584-37.223-13.772-54.444-18.077-19.984-5.004-50.228-7.593-80.82 8.483-21.546 11.329-41.751 27.992-61.304 44.067l-4.537 3.728c-3.233 2.671-6.429 5.371-9.68 8.061-21.335 17.847-43.404 36.3-67.769 46.115a119.482 119.482 0 01-22.832 6.619 110.074 110.074 0 01-74.933-13.34 99.014 99.014 0 01-22.841-18.637c-6.732-7.344-13.418-15.038-19.893-22.437-9.754-11.164-19.838-22.705-30.014-33.235-14.694-15.23-27.616-26.624-40.64-35.97C-30.79 53.879-69.198 44.304-99.267 52.814l-.44-1.579c30.518-8.648 69.477 1.02 104.212 25.844 13.105 9.364 26.092 20.859 40.86 36.163 10.213 10.558 20.306 22.117 30.078 33.29 6.429 7.399 13.151 15.038 19.865 22.41a97.505 97.505 0 0022.464 18.361 108.402 108.402 0 0073.804 13.138 117.907 117.907 0 0022.51-6.518c24.118-9.704 46.077-28.075 67.32-45.84 3.233-2.699 6.465-5.389 9.698-8.07l4.528-3.736c19.617-16.159 39.896-32.877 61.589-44.28 24.218-12.733 53.332-15.8 81.968-8.62 17.294 4.333 35.901 9.53 54.737 18.178 2.526 1.157 5.088 2.313 7.697 3.498 3.789 1.707 7.674 3.479 11.654 5.315 10.176 4.738 21.684 6.647 35.185 5.821 11.021-.67 21.334-1.836 31.354-3.039 6.163-.707 11.939-1.386 17.799-1.928 7.347-.679 14.952-1.046 24.035-1.138 6.53-.064 12.977 0 19.81.101 11.939.147 24.319.303 37.021-.404 30.822-1.726 63.536-13.67 98.178-26.303 37.26-13.597 75.788-27.652 112.68-28.46l.037 1.643z" fill="url(#paint28_radial_399_771)"/><path d="M889.255 60.629c-31.602 1.928-64.665 13.367-96.635 24.43-38.197 13.22-74.281 25.706-108.428 23.594-13.565-.844-26.744-2.754-39.492-4.673-5.648-.826-11.489-1.689-17.165-2.423-9.294-1.203-16.935-1.9-24.053-2.204-10.571-.459-21.362-.34-32.796-.22-5.217.055-10.544.12-15.981.12-13.298 0-24.732-1.791-34.899-5.51-6.824-2.469-13.455-4.59-19.875-6.619-20.444-6.509-40.18-9.006-56.785-10.594-20.021-1.919-49.971-.698-78.984 15.965-20.792 11.935-40.41 28.341-59.402 44.206l-7.155 5.967-6.107 5.105c-23.025 19.279-46.839 39.22-73.051 50.108a130.274 130.274 0 01-23.217 7.189c-26.561 5.508-54.554 1.056-76.807-12.284a95.235 95.235 0 01-23.061-19.417c-7.531-8.676-14.97-17.738-22.17-26.496-8.882-10.815-18.057-22.034-27.333-32.344-14.694-16.415-27.552-28.68-40.502-38.56-26.771-20.518-68.265-38.558-104.441-27.716l-.469-1.57C-62.816 35.666-20.735 53.9 6.358 74.666c13.024 9.98 25.964 22.31 40.723 38.807 9.294 10.375 18.487 21.566 27.387 32.39 7.182 8.749 14.621 17.802 22.134 26.468a93.514 93.514 0 0022.666 19.078c21.895 13.128 49.466 17.535 75.622 12.091a128.628 128.628 0 0022.96-7.097c25.973-10.796 49.686-30.654 72.619-49.851l6.117-5.114c2.388-1.983 4.769-3.972 7.145-5.968 19.039-15.901 38.729-32.353 59.642-44.361 29.389-16.883 59.696-18.114 79.947-16.177 16.697 1.589 36.535 4.104 57.098 10.65 6.429 2.056 13.115 4.168 19.966 6.656 10.029 3.672 21.271 5.398 34.367 5.39 5.437 0 10.755-.065 15.971-.12 11.453-.12 22.272-.239 32.889.22 7.163.303 14.85 1.01 24.191 2.213 5.685.734 11.535 1.597 17.192 2.433 12.702 1.882 25.844 3.819 39.345 4.654 33.825 2.094 69.799-10.337 107.785-23.502 32.08-11.1 65.253-22.576 97.076-24.522l.055 1.625z" fill="url(#paint29_radial_399_771)"/><path d="M889.136 64.569c-27.002 2.754-55.16 12.21-82.391 21.326-39.326 13.157-80.003 26.762-116.941 19.978-13.969-2.562-27.553-6.427-40.75-10.099-5.134-1.46-10.443-2.965-15.613-4.352-9.579-2.561-17.046-4.269-24.201-5.508-16.053-2.865-32.723-4.168-48.354-5.15a179.02 179.02 0 01-33.889-5.013c-7.1-1.836-14.034-3.232-20.463-4.462-17.752-3.314-36.525-4.297-59.063-3.094-28.746 1.533-54.7 9.429-77.146 23.466-20.067 12.458-39.17 28.644-57.63 44.251-3.221 2.73-6.442 5.451-9.662 8.162l-1.249 1.019c-25.11 21.116-51.082 43.003-79.617 55.222a142.331 142.331 0 01-23.622 7.767c-27.635 6.427-56.308 2.323-78.662-11.237a91.653 91.653 0 01-23.29-20.198c-8.358-10.098-16.532-20.656-24.458-30.902-7.926-10.246-16.265-21.07-24.632-31.095C32.744 96.986 19.887 83.885 7.148 73.483c-26.974-22.126-69.01-41.589-106.086-29.837l-.496-1.57c37.701-11.935 80.316 7.74 107.62 30.131C21.044 82.682 33.9 95.857 48.77 113.658c8.376 10.053 16.66 20.776 24.67 31.141 8.008 10.365 16.071 20.822 24.42 30.866a89.905 89.905 0 0022.868 19.831c22.042 13.339 50.228 17.36 77.45 11.016a140.152 140.152 0 0023.346-7.675c28.305-12.118 54.186-33.895 79.204-54.965l1.249-1.047c3.226-2.711 6.444-5.428 9.652-8.152 18.506-15.681 37.655-31.894 57.805-44.5 22.685-14.184 48.905-22.162 77.927-23.713 22.676-1.203 41.568-.211 59.458 3.121 6.429 1.24 13.427 2.635 20.573 4.49a177.25 177.25 0 0033.577 4.957c15.677.992 32.411 2.305 48.547 5.178 7.2 1.285 14.695 3.002 24.329 5.573 5.207 1.395 10.525 2.901 15.613 4.352 13.133 3.727 26.698 7.574 40.594 10.098 36.525 6.702 76.99-6.83 116.133-19.922 27.313-9.135 55.554-18.582 82.739-21.4l.212 1.662z" fill="url(#paint30_radial_399_771)"/><path d="M889.016 68.525c-22.749 3.37-46.37 11.182-69.193 18.729-41.723 13.771-84.87 28.056-124.389 15.837-13.85-4.288-27.433-9.98-40.567-15.488-5.097-2.13-10.359-4.333-15.53-6.427-9.34-3.782-17.073-6.61-24.356-8.887a282.169 282.169 0 00-47.95-10.2l-3.812-.495c-9.57-1.249-19.461-2.534-29.012-4.03-6.365-1.001-13.244-1.754-21.032-2.296-19.526-1.322-39.602.11-61.377 4.389a202.502 202.502 0 00-75.31 30.976c-19.241 13.064-37.775 28.965-55.702 44.343a3823.637 3823.637 0 01-12.288 10.512c-28.039 23.815-53.608 44.572-82.575 57.315a155.083 155.083 0 01-24.035 8.391c-28.672 7.345-58.025 3.618-80.535-10.172a89.416 89.416 0 01-23.502-20.96c-8.89-11.209-17.533-23.089-25.89-34.565-7.403-10.163-15.053-20.675-22.795-30.609C34.47 96.022 21.686 82.085 8.949 71.032c-41.614-36.21-84.035-39.845-107.72-31.959l-.524-1.56c16.614-5.509 36.176-4.921 56.592 1.753 18.23 5.931 36.957 16.773 52.726 30.499 12.858 11.118 25.67 25.127 40.41 44.067 7.76 9.952 15.42 20.474 22.823 30.646 8.357 11.476 16.99 23.328 25.853 34.52a87.708 87.708 0 0023.071 20.574c22.133 13.56 51.026 17.195 79.268 9.988a154.563 154.563 0 0023.768-8.262c28.756-12.661 54.186-33.336 82.17-57.077 4.109-3.477 8.202-6.975 12.28-10.494 17.964-15.414 36.534-31.343 55.848-44.462A204.19 204.19 0 01451.43 58.05c21.923-4.306 42.146-5.747 61.809-4.416 7.843.55 14.768 1.304 21.179 2.314 9.533 1.496 19.406 2.754 28.967 4.02l3.811.506a282.342 282.342 0 0148.253 10.255c7.348 2.286 15.108 5.123 24.485 8.923 5.18 2.084 10.452 4.297 15.549 6.427 13.096 5.508 26.634 11.173 40.41 15.433 39.014 12.063 81.904-2.121 123.379-15.828 22.961-7.574 46.61-15.405 69.496-18.802l.248 1.643z" fill="url(#paint31_radial_399_771)"/><path d="M888.906 72.482c-18.809 3.673-38.252 10.191-57.052 16.48-43.698 14.634-88.893 29.764-130.818 11.347-13.85-6.077-27.552-13.697-40.833-21.06-12.857-7.134-26.128-14.506-39.491-20.464-77.56-34.575-164.341-23.292-238.08 30.939-18.249 13.422-36.066 28.901-53.268 43.875-38.39 33.354-78.065 67.837-124.105 80.616-42.807 11.88-82.474.349-106.113-30.856-9.35-12.339-18.369-25.477-27.13-38.192-18.69-27.185-38.013-55.287-61.23-76.632-26.304-24.155-70.71-47.566-109.374-34.08l-.542-1.55c39.381-13.726 84.42 9.96 111.017 34.418 23.355 21.474 42.734 49.659 61.479 76.916 8.725 12.697 17.753 25.826 27.075 38.128 8.697 11.485 41.934 47.593 104.368 30.297 45.663-12.67 85.219-47.033 123.471-80.268 17.257-14.992 35.102-30.498 53.397-43.957 74.244-54.598 161.64-65.937 239.705-31.123 13.427 5.986 26.744 13.385 39.62 20.528 13.235 7.345 26.91 14.946 40.695 20.996 41.329 18.16 86.23 3.14 129.634-11.393 18.855-6.316 38.344-12.853 57.254-16.525l.321 1.56z" fill="url(#paint32_radial_399_771)"/><defs><radialGradient id="paint0_radial_399_771" cx="0" cy="0" r="1" gradientUnits="userSpaceOnUse" gradientTransform="matrix(495.12 0 0 54.3913 389.12 263.492)"><stop/><stop offset="1" stop-opacity="0"/></radialGradient><radialGradient id="paint1_radial_399_771" cx="0" cy="0" r="1" gradientUnits="userSpaceOnUse" gradientTransform="matrix(495.175 0 0 56.1985 389.469 253.711)"><stop/><stop offset="1" stop-opacity="0"/></radialGradient><radialGradient id="paint2_radial_399_771" cx="0" cy="0" r="1" gradientUnits="userSpaceOnUse" gradientTransform="matrix(495.221 0 0 62.9808 389.809 247.833)"><stop/><stop offset="1" stop-opacity="0"/></radialGradient><radialGradient id="paint3_radial_399_771" cx="0" cy="0" r="1" gradientUnits="userSpaceOnUse" gradientTransform="matrix(495.295 0 0 70.0957 390.176 242.3)"><stop/><stop offset="1" stop-opacity="0"/></radialGradient><radialGradient id="paint4_radial_399_771" cx="0" cy="0" r="1" gradientUnits="userSpaceOnUse" gradientTransform="matrix(495.387 0 0 77.6333 390.562 236.915)"><stop/><stop offset="1" stop-opacity="0"/></radialGradient><radialGradient id="paint5_radial_399_771" cx="0" cy="0" r="1" gradientUnits="userSpaceOnUse" gradientTransform="matrix(495.469 0 0 85.3532 390.939 231.593)"><stop/><stop offset="1" stop-opacity="0"/></radialGradient><radialGradient id="paint6_radial_399_771" cx="0" cy="0" r="1" gradientUnits="userSpaceOnUse" gradientTransform="matrix(495.552 0 0 93.222 391.315 226.281)"><stop/><stop offset="1" stop-opacity="0"/></radialGradient><radialGradient id="paint7_radial_399_771" cx="0" cy="0" r="1" gradientUnits="userSpaceOnUse" gradientTransform="matrix(495.639 0 0 101.105 391.696 221)"><stop/><stop offset="1" stop-opacity="0"/></radialGradient><radialGradient id="paint8_radial_399_771" cx="0" cy="0" r="1" gradientUnits="userSpaceOnUse" gradientTransform="matrix(495.722 0 0 109.07 392.064 215.708)"><stop/><stop offset="1" stop-opacity="0"/></radialGradient><radialGradient id="paint9_radial_399_771" cx="0" cy="0" r="1" gradientUnits="userSpaceOnUse" gradientTransform="matrix(495.809 0 0 117.074 392.445 210.435)"><stop/><stop offset="1" stop-opacity="0"/></radialGradient><radialGradient id="paint10_radial_399_771" cx="0" cy="0" r="1" gradientUnits="userSpaceOnUse" gradientTransform="matrix(495.901 0 0 125.117 392.803 205.21)"><stop/><stop offset="1" stop-opacity="0"/></radialGradient><radialGradient id="paint11_radial_399_771" cx="0" cy="0" r="1" gradientUnits="userSpaceOnUse" gradientTransform="matrix(495.988 0 0 133.114 393.184 199.874)"><stop/><stop offset="1" stop-opacity="0"/></radialGradient><radialGradient id="paint12_radial_399_771" cx="0" cy="0" r="1" gradientUnits="userSpaceOnUse" gradientTransform="matrix(496.08 0 0 141.189 393.542 194.609)"><stop/><stop offset="1" stop-opacity="0"/></radialGradient><radialGradient id="paint13_radial_399_771" cx="0" cy="0" r="1" gradientUnits="userSpaceOnUse" gradientTransform="matrix(496.144 0 0 149.282 393.937 189.366)"><stop/><stop offset="1" stop-opacity="0"/></radialGradient><radialGradient id="paint14_radial_399_771" cx="0" cy="0" r="1" gradientUnits="userSpaceOnUse" gradientTransform="matrix(496.236 0 0 157.306 394.304 184.079)"><stop/><stop offset="1" stop-opacity="0"/></radialGradient><radialGradient id="paint15_radial_399_771" cx="0" cy="0" r="1" gradientUnits="userSpaceOnUse" gradientTransform="matrix(496.277 0 0 165.414 394.713 178.861)"><stop/><stop offset="1" stop-opacity="0"/></radialGradient><radialGradient id="paint16_radial_399_771" cx="0" cy="0" r="1" gradientUnits="userSpaceOnUse" gradientTransform="matrix(496.397 0 0 173.471 395.062 173.528)"><stop/><stop offset="1" stop-opacity="0"/></radialGradient><radialGradient id="paint17_radial_399_771" cx="0" cy="0" r="1" gradientUnits="userSpaceOnUse" gradientTransform="matrix(496.25 0 0 161.493 395.025 166.392)"><stop/><stop offset="1" stop-opacity="0"/></radialGradient><radialGradient id="paint18_radial_399_771" cx="0" cy="0" r="1" gradientUnits="userSpaceOnUse" gradientTransform="matrix(496.089 0 0 149.489 395.021 159.318)"><stop/><stop offset="1" stop-opacity="0"/></radialGradient><radialGradient id="paint19_radial_399_771" cx="0" cy="0" r="1" gradientUnits="userSpaceOnUse" gradientTransform="matrix(495.951 0 0 137.438 394.985 152.178)"><stop/><stop offset="1" stop-opacity="0"/></radialGradient><radialGradient id="paint20_radial_399_771" cx="0" cy="0" r="1" gradientUnits="userSpaceOnUse" gradientTransform="matrix(495.763 0 0 125.483 394.998 144.992)"><stop/><stop offset="1" stop-opacity="0"/></radialGradient><radialGradient id="paint21_radial_399_771" cx="0" cy="0" r="1" gradientUnits="userSpaceOnUse" gradientTransform="matrix(495.63 0 0 113.531 394.957 137.871)"><stop/><stop offset="1" stop-opacity="0"/></radialGradient><radialGradient id="paint22_radial_399_771" cx="0" cy="0" r="1" gradientUnits="userSpaceOnUse" gradientTransform="matrix(495.478 0 0 101.632 394.943 130.627)"><stop/><stop offset="1" stop-opacity="0"/></radialGradient><radialGradient id="paint23_radial_399_771" cx="0" cy="0" r="1" gradientUnits="userSpaceOnUse" gradientTransform="matrix(495.313 0 0 89.7611 394.924 123.369)"><stop/><stop offset="1" stop-opacity="0"/></radialGradient><radialGradient id="paint24_radial_399_771" cx="0" cy="0" r="1" gradientUnits="userSpaceOnUse" gradientTransform="matrix(495.162 0 0 77.9247 394.902 116.092)"><stop/><stop offset="1" stop-opacity="0"/></radialGradient><radialGradient id="paint25_radial_399_771" cx="0" cy="0" r="1" gradientUnits="userSpaceOnUse" gradientTransform="matrix(495.01 0 0 75.3888 394.879 117.975)"><stop/><stop offset="1" stop-opacity="0"/></radialGradient><radialGradient id="paint26_radial_399_771" cx="0" cy="0" r="1" gradientUnits="userSpaceOnUse" gradientTransform="matrix(494.863 0 0 74.9331 394.842 121.825)"><stop/><stop offset="1" stop-opacity="0"/></radialGradient><radialGradient id="paint27_radial_399_771" cx="0" cy="0" r="1" gradientUnits="userSpaceOnUse" gradientTransform="matrix(494.679 0 0 74.5846 394.842 125.617)"><stop/><stop offset="1" stop-opacity="0"/></radialGradient><radialGradient id="paint28_radial_399_771" cx="0" cy="0" r="1" gradientUnits="userSpaceOnUse" gradientTransform="matrix(494.542 0 0 77.799 394.833 125.929)"><stop/><stop offset="1" stop-opacity="0"/></radialGradient><radialGradient id="paint29_radial_399_771" cx="0" cy="0" r="1" gradientUnits="userSpaceOnUse" gradientTransform="matrix(494.404 0 0 82.0066 394.851 125.371)"><stop/><stop offset="1" stop-opacity="0"/></radialGradient><radialGradient id="paint30_radial_399_771" cx="0" cy="0" r="1" gradientUnits="userSpaceOnUse" gradientTransform="matrix(494.285 0 0 86.2922 394.851 124.763)"><stop/><stop offset="1" stop-opacity="0"/></radialGradient><radialGradient id="paint31_radial_399_771" cx="0" cy="0" r="1" gradientUnits="userSpaceOnUse" gradientTransform="matrix(494.156 0 0 90.5538 394.861 124.332)"><stop/><stop offset="1" stop-opacity="0"/></radialGradient><radialGradient id="paint32_radial_399_771" cx="0" cy="0" r="1" gradientUnits="userSpaceOnUse" gradientTransform="matrix(494.018 0 0 94.9678 394.888 123.832)"><stop/><stop offset="1" stop-opacity="0"/></radialGradient></defs></svg>