<svg viewBox="0 0 336 140" fill="none" xmlns="http://www.w3.org/2000/svg"><path d="M20.367 0v18.184M20.367 22.548v18.184M0 20.093h18.184M22.547 20.093H40.73M69.574 0v18.184M69.574 22.549v18.184M49.207 20.093h18.184M71.754 20.093h18.184M118.793 0v18.184M118.793 22.549v18.184M98.426 20.093h18.184M120.973 20.093h18.184M168 0v18.184M168 22.55v18.183M147.633 20.093h18.184M170.18 20.093h18.184" stroke="#fff" stroke-opacity=".3" stroke-width=".771"/><path d="M217.215 0v18.184M217.215 22.549v18.184M196.848 20.093h18.184M219.395 20.093h18.183" stroke="#fff" stroke-width=".771"/><path d="M266.422 0v18.184M266.422 22.549v18.184M246.055 20.093h18.184M268.602 20.093h18.183M315.637 0v18.184M315.637 22.549v18.184M295.27 20.093h18.183M317.816 20.093H336M20.367 49.213v18.184M20.367 71.761v18.184M0 69.307h18.184M22.547 69.307H40.73M69.574 49.214v18.184M69.574 71.762v18.184M49.207 69.307h18.184M71.754 69.307h18.184M118.793 49.214v18.184M118.793 71.762v18.184M98.426 69.307h18.184M120.973 69.307h18.184" stroke="#fff" stroke-opacity=".3" stroke-width=".771"/><path d="M168 49.214v18.184M168 71.763v18.183M147.633 69.307h18.184M170.18 69.307h18.184" stroke="#fff" stroke-width=".771"/><path d="M217.215 49.214v18.184M217.215 71.762v18.184M196.848 69.307h18.184M219.395 69.307h18.183M266.422 49.214v18.184M266.422 71.763v18.183M246.055 69.307h18.184M268.602 69.307h18.183M315.637 49.214v18.184M315.637 71.762v18.184M295.27 69.307h18.183M317.816 69.307H336M20.367 98.427v18.184M20.367 120.976v18.183M0 118.521h18.184M22.547 118.521H40.73M69.574 98.428v18.184M69.574 120.976v18.184M49.207 118.521h18.184M71.754 118.521h18.184" stroke="#fff" stroke-opacity=".3" stroke-width=".771"/><path d="M118.793 98.427v18.184M118.793 120.976v18.183M98.426 118.521h18.184M120.973 118.521h18.184" stroke="#fff" stroke-width=".771"/><path d="M168 98.427v18.184M168 120.976v18.184M147.633 118.52h18.184M170.18 118.52h18.184M217.215 98.427v18.184M217.215 120.976v18.183M196.848 118.521h18.184M219.395 118.521h18.183M266.422 98.427v18.184M266.422 120.975v18.184M246.055 118.52h18.184M268.602 118.52h18.183M315.637 98.427v18.184M315.637 120.976v18.183M295.27 118.521h18.183M317.816 118.521H336" stroke="#fff" stroke-opacity=".3" stroke-width=".771"/></svg>
