<svg width="375" height="356" fill="none" xmlns="http://www.w3.org/2000/svg"><path d="M479.245 119.821l2.196.038a3.219 3.219 0 013.162 3.316l-6.113 114.622-.518 113.913a4.117 4.117 0 01-4.219 3.994l-509.471-12.953a2.773 2.773 0 01-2.703-2.822l.058-3.354" fill="#0C1447"/><path d="M472.732 290.9l-9.908-.75 9.883-3.289c-.029-35.378 4.238-125.891 6.559-172.182l-30.21-19.786c-73.998.397-211.241-10.738-275.131-7.069-27.172 1.562-62.369 1.536-96.432.853-.718 3.438-1.972 9.535-2.028 10.649-.06 1.169-1.81-6.67-2.704-10.75-49.5-1.079-95.68-3.457-110.116-4.246a4.468 4.468 0 00-4.712 4.388l-1.715 98.262.38 22.237 7.147 2.673-7.094.369 1.183 69.391c.078 4.537-.093 9.074-.508 13.591l-3.445 37.372a2.769 2.769 0 002.56 3.02c80.127 5.821 468.959 13.628 511.851 14.475a4.107 4.107 0 004.178-3.779c.692-8.665 2.1-30.275.563-47.558-.162-1.815-.261-4.485-.301-7.871z" fill="#fff" stroke="#0C1447" stroke-width=".593" stroke-miterlimit="10" stroke-linejoin="round"/><path d="M129.535 239.177c-2.802-15.173-20.826-19.593-33.277-14.74 0 0-3.98 4.558-5.494 2.082-1.517-2.479-10.203 3.634-7.736-3.677 7.077-15.743-12.653-5.765-6.02-12.631 3.433-2.937 3.226-5.934.892-6.249-4.918-1.394-9.537 6.899-11.846 8.507-4.485.254-9.18-8.651-2.879-13.665 6.616-6.694 14.09-9.766 17.998-3.498-1.418.797 2.505 10.837 4.549 7.433.095-5.868-.303-8.174 4.621-11.356 0 0 5.613-8.89 10.626-13.159 6.746-9.554 11.55 2.35 17.498-4.596 10.367-4.853-13.117-5.197-7.743-7.493 1.859-2.42.066-3.811 4.475-3.19 6.011.96 5.072 2.143 7.904-1.762-3.729-13.344-13.785-8.121-22.47-8.558 0-.004-3.545-5.238-3.545-5.238s-6.748-.662-5.479.994c1.273 1.656 1.46 5.746.39 7.361-4.66 8.19 2.057 13.3-8.104 2.581 0 0 5.266-3.72-3.051-3.865-19.849-.822-9.557-16.439 2.529-10.848 1.575-.791 2.9-2.402 2.933-4.309 2.05-5.418 9.14 7.297 13.15 6.22 23.384 8.533 3.181-6.542 6.098-6.97 3.899.068 3.837 3.605 7.237 2.575 3.399-1.03 8.317.145 1.104-3.793-7.209-3.938-9.515-5.886-12.9-5.671-11.978 4.17-7.324-10.519-22.3-3.386-2.814 10.024-10.275-2.322-9.755-6.976 0 0-8.27-2.868-6.233-.383 2.036 2.488 3.573 3.874.933 6.007-8.114 13.151-23.377-13.516-25.83 5.269-5.253 1.341-14.411-.464-27.256-2.38-14.35-1.281-11.21 2.008-20.577 2.364 0 0-1.672-8.469-4.073-4.973-5.51 6.373-7.62 4.999-12.801 3.589 2.27 3.132-14.711 4.312-8.427 6.118 3.63.608 9.336 1.252 7.746 3.128-1.88.106-12.177 6.791-5.06 6.996 3.131-.764 6.28-2.343 6.757.118 5.252 4.635-1.229 5.04-5.338 7.805-10.094 7.002 13.976-2.622 13.792-.848 2.646-.828 4.583-10.458 9.491-7.459 2.565 1.949 3.837 3.605 6.224.923 9.866-2.945 8.985 4.145 15.138 11.431 2.55 2.768 9.024 4.244 9.52 5.612 6.353 2.677-2.767 11.484.007 14.434 4.36 4.046 11.95 8.561 13.27 14.392.485 1.912.946 5.462 3.29 5.229 2.343-.23 2.008 4.121 3.309 4.144 1.3.023 4.12 2.251 4.139 1.162-3.889-3.815-10.762-18.398 1.406-5.97 1.389 11.092 8.4 19.062 17.824 21.28 8.555-.289 7.858-3.686 12.66 4.578 9.382 13.015 18.84-3.586 6.938 19.456-4.398 6.108 3.558 7.194 3.435 11.768-2.582 6.139 8.575 7.982 9.42 11.33 2.853 2.382-3.213 14.59-1.615 17.944.943 5.463-1.808 14.129-1.808 14.129.747 2.03-8.353 17.457-2.643 17.381 3.372.333 1.47 5.201 7.991 3.952 6.522-1.25 4.899 2.263 5.531-3.99-1.26-11.148 8.447-12.313 9.476-21.619 1.043-5.717 6.929.684 9.675-3.099 4.93-3.942 5.919-6.381 6.961-11.589 0 0-6.205-2.013 3.187-3.757 9.388-1.744 8.039 1.23 9.388-1.744 1.353-2.974 1.651-5.147 1.972-8.679-.818-6.327 3.248-10.2 4.415-14.628-9.378-12.839-21.168-3.995-21.639-11.544z" fill="#0C1447"/><path d="M177.388 130.832c-2.374-8.898 10.938-10.972 7.478-18.599-7.199 2.653-10.02 9.08-10.314-3.177-13.042-17.23-33.76-3.411-47.283 4.42-2.35 1.699-21.251 1.029-21.939 7.106-.43 4.116-.43 4.116-4.349 3.298-3.919-.818 1.006 3.764 8.17 3.14 7.164-.624 11.861-3.54 12.512.218.727 7.963 6.976 25.254 16.006 25.375 2.145.038 4.779-7.409 8.731-8.462 7.828-4.341 14.084-3.366 21.17-4.123 3.382-5.288 9.725-4.684 9.818-9.196zM432.86 142.78c-3.773-8.743-19.752.934-24.601-4.176-.332-1.504 2.403-7.173-.266-5.25-5.072 3.658-4.336 2.545-4.336 2.545-1.598 2.937-11.379 3.782-13.619 1.634 0 .004 8.313-5.096-2.445-3.413-10.757 1.684-15.458 4.599-15.458 4.599l-5.334-1.592c-3.532-14.612-19.302-6.207-28.527-4.617-6.083.267-12.154-.216-12.909 2.019-.89 5.361-8.953 5.915-10.002-.547-1.003-4.137-4.245-2.695-4.245-2.695s2.113 1.908.966 6.011c-8.216 16.305-4.442-6.244-5.634-4.967-3.209-.432-3.984 2.928-5.784 3.646-1.8.718-8.964 1.342-8.964 1.342s-3.633 3.306-8.6.972c-4.967-2.335-13.3 3.887-13.3 3.887-6.211.849-22.804-8.041-30.652-5.78-10.69 2.207-20.483 6.196-26.707 14.143-1.123 2.978-4.402 6.29-.092 5.243 6.888 2.409 6.365 3.913 9.119 4.655-13.842 4.785-1.115-10.864-18.013 13.17 0 0 2.073 4.155-3.971 2.178-6.044-1.977-7.008-8.364-9.264-2.033-2.256 6.328-3.182 8.311-2.302 8.951 10.05 7.665 12.966-2.741 20.166-7.886 2.184-2.21-1.292-7.888 4.349-3.298 5.64 4.594 4.589 3.45 8.488 5.393 3.899 1.94 3.285 4.447 4.57 4.576 9.283.911 3.762 9.806 9.605 2.788 5.843-7.014 2.25-5.955 5.778-3.269 3.528 2.682 5.269 5.337 7.772 5.381 2.503.043 5.169-1.712 4.648.081-2.282 7.826.894 10.129-5.902 10.387-15.499-1.024-17.929 2.275-30.332-3.523-2.104-5.541-2.854-5.105-7.067-4.996-1.875-4.174-8.559.746-8.99 2.841-4.619-2.8-15.12 13.479-17.425 15.054-2.887 1.445-5.091 4.78-5.117 6.278.079 5.714.157 20.318 8.217 20.747 9.974 4.049 20.392-8.752 27.859 1.985 3.18 2.303 7.916-2.859 4.244 2.695-12.724 13.795 7.462 9.352-.08 25.098-5.157 17.169 10.761 6.332 7.348 29.72.414 9.982 6.715 3.118 11.799.206 4.317-1.42 4.616 1.955 7.89-1.358 10.396-7.128 6.449-19.95 12.3-28.627 2.522-1.078 1.803-.718.82-5.98-3.098-13.501 6.848-7.999 10.662-16.671-.572-8.099 6.824-3.964 6.963-9.616-.11-9.447-9.197-1.893-11.787-.955-1.818-4.524-8.153-9.295-9.008-16.638.462-5.986-2.317-10.531-2.317-10.531-2.423-9.669 2.221-.94 4.967 2.335 5.221 3.096 5.313 9.567 4.045 13.931 5.764 6.712 10.824 1.651 16.421 1.781 4.056 1.347 11.765-7.218 12.344-10.644-2.947-11.06-13.086 12.126-17.004-9.288 11.154.582 17.339 3.673 27.013 9.467 0-.004-2.536 1.827 3.613-2.189 12.036-4.79-3.227 15.46 4.328 18.428 3.176 2.303 6.005 4.228 5.601 6.842 3.425 2.081 3.234-10.398 9.545-14.067 7.474-7.055 4.887-8.204 10.504-7.686 7.266 2.13-.289 12.17 4.094 11.311 1.452-1.1 5.052-2.536 5.052-2.536s-3.36 8.183-.867 8.6c3.515 2.404.957 11.384 8.684 14.761 4.277.824-5.149-12.452-3.677-14.674 3.395-1.198 4.115 9.882 11.063 1.315 10.207 2.032 2.223-10.25.548-10.853-11.655-16.447 25.171 3.996 19.339-22.138 0 0-1.024-2.638.789-4.105-3.296-5.741-9.098-7.18-.182-10.117-.395 1.92 8.725 5.273 6.278 9.098-1.142 4.103-.834 6.729 2.08 3.782 3.377-4.181 2.741-10.475 6.303-12.624 6.343-.489 6.023-4.35 9.456-9.203 17.628-15.416-.864-5.567-2.681-10.157 1.113-2.228-4.622-1.579-4.622-1.579 2.891-3.531 15.314-9.521 21.883-4.11 4.628 1.203 11.855-3.167 14.013-3.878 2.158-.712 9.381-4.705 2.848.799-14.526 9.611-4.468 4.688-6.66 12.994-8.385 11.086.8 3.775 3.56.812-8.258-14.396 28.288-13.571 31.409-17.059 18.237-19.718-25.658-4.742-30.6-9.156zm-187.532 8.712c-2.556 2.952-11.156 3.928-10.817 5.056a64.283 64.283 0 01-4.188 2.237c-.804-2.514-2.778-6.935.426-12.044 2.555-2.952 8.405-10.339 7.249-5.491-1.155 4.848-5.491 7.397-3.711 7.801 3.22 5.473 13.693-2.086 11.041 2.441z" fill="#0C1447"/><path d="M363.396 256.831c-16.688 1.287-2.083-8.209-8.777-10.461-8.516 1.427-7.585-8.363-13.894-9.446-.745-.013-.912 2.009.995 3.329 4.06 1.723 7.05 20.584 13.561 18.461 4.031.429 19.304 1.433 8.115-1.883zM365.992 240.022c-11.17 2.035-3.414 12.112 4.051 11.873 2.168-1.08.76-4.161 1.385-6.039.643-1.689 3.632-3.914 1.634-5.674-2.252-1.037 4.227-5.324-2.599-4.175l.407.138c-1.417.553-2.064 4.921-4.878 3.877zM414.234 273.596c-.49 1.23-2.743-9.16-7.033-4.816-8.46 9.282-8.32-.215-8.085-4.835-5.901-.362-8.267 3.018-14.049 4.448-3.705.765-3.137-1.436-8.234 3.724-5.098 5.156-9.291 3.705-10.401 6.997-.836 3.655-2.708 21.305 2.292 19.646 10.485 2.197 16.385-11.597 25.945-6.452 3.108 3.092 1.443 8.034 3.565 7.245 2.123-.789 1.918-4.108 3.725-1.869 3.775 19.091 24.571 1.708 20.217-10.415-4.271-3.678-6.633-10.16-7.942-13.673zM273.182 262.69c-.321 5.408-9.116 4.158-8.439 7.233 4.171 4.393-6.567 16.223 4.843 12.577 1.653-1.484.574-1.883 1.53-4.893 1.907-4.788 8.444-12.792 2.066-14.917zM95.168 212.111c6.288-2.343-10.855-8.662-12.915-5.182-1.75.405-.139 2.714.69 2.797 0 0 2.974-1.187 3.862-1.171 3.169 1.466 2.568 3.857 8.363 3.556zM97.015 213.309c3.77.976 1.798 1.267 3.971 3.052 1.126.429 4.231-.091 3.785-1.97-1.079-2.698-1.499-3.564-3.474-3.913-.131.407-7.108 2.438-4.282 2.831zM92.15 216.276c1.64-.998 1.15-2.056-.353-2.864-2.455.757-2.117 3.403.353 2.864zM90.38 202.711c1.64-.999 1.15-2.056-.353-2.865-2.455.754-2.117 3.399.352 2.865zM107.251 215.371c1.495 1.217 2.249.35 2.408-1.417-1.583-2.1-3.803-.783-2.408 1.417zM172.168 147.378c.686.283 5.899-.642 4.257-2.897-1.774-2.395-4.573-.573-5.78.513 0 0-3.397-1.598-3.991-1.093-1.231 1.039-3.19-2.106-4.004-.274-.815 1.831-.067 3.789 1.698 3.615 1.765-.174 2.861-1.383 2.838-.053-2.28 4.975 4.234 1.371 4.982.189zM195.034 158.201c.875 2.187 5.11.612 4.36 2.328-.517 1.53-2.554.569-2.393 2.623.162 2.053-4.27 3.613-.344 2.965 3.926-.648 2.581-2.108 4.421-1.151 4.182 2.675 8.362.479 3.478-3.013-1.358-.74-2.16.372-2.307-2.295-.151-2.667-.131-3.793-1.485-4.536-2.144-1.171-3.917.136-3.917.136-2.143-2.033-3.871 1.906-1.813 2.943z" fill="#0C1447"/><path d="M189.068 163.631c2.42 1.479 2.303 2.5 4.19.994 4.449-1.296 1.847-3.809.283-4.914-.788-.292-1.158-.839-3.05.97-1.893 1.813-3.842 1.472-1.423 2.95z" fill="#0C1447"/><path d="M36.287 194.748a6.367 6.367 0 10.222-12.731 6.367 6.367 0 00-.222 12.731z" fill="#FFEFDF" stroke="#0C1447" stroke-width=".444" stroke-miterlimit="10" stroke-linejoin="round"/><path d="M36.356 190.844a2.46 2.46 0 10.084-4.921 2.46 2.46 0 00-.084 4.921z" fill="#0C1447"/><path d="M133.236 283.254a6.366 6.366 0 10.222-12.73 6.367 6.367 0 00-.222 12.73z" fill="#FFEFDF" stroke="#0C1447" stroke-width=".444" stroke-miterlimit="10" stroke-linejoin="round"/><path d="M133.305 279.349a2.46 2.46 0 10.086-4.918 2.46 2.46 0 00-.086 4.918z" fill="#0C1447"/><path d="M97.274 184.808a3.67 3.67 0 10.128-7.34 3.67 3.67 0 10-.128 7.34z" fill="#EAEDFF" stroke="#0C1447" stroke-width=".444" stroke-miterlimit="10" stroke-linejoin="round"/><path d="M97.317 182.361a1.223 1.223 0 10.043-2.446 1.223 1.223 0 00-.043 2.446z" fill="#0C1447"/><path d="M188.916 180.361a3.67 3.67 0 10.128-7.34 3.67 3.67 0 00-.128 7.34z" fill="#EAEDFF" stroke="#0C1447" stroke-width=".444" stroke-miterlimit="10" stroke-linejoin="round"/><path d="M188.958 177.914a1.223 1.223 0 10.044-2.446 1.223 1.223 0 00-.044 2.446z" fill="#0C1447"/><path d="M61.028 182.88a3.671 3.671 0 10.128-7.34 3.671 3.671 0 00-.128 7.34z" fill="#EAEDFF" stroke="#0C1447" stroke-width=".444" stroke-miterlimit="10" stroke-linejoin="round"/><path d="M61.07 180.433a1.224 1.224 0 10.043-2.447 1.224 1.224 0 00-.043 2.447z" fill="#0C1447"/><path d="M68.134 196.393a3.672 3.672 0 10.126-7.342 3.672 3.672 0 00-.126 7.342z" fill="#EAEDFF" stroke="#0C1447" stroke-width=".444" stroke-miterlimit="10" stroke-linejoin="round"/><path d="M68.177 193.946a1.224 1.224 0 10.042-2.447 1.224 1.224 0 00-.042 2.447z" fill="#0C1447"/><path d="M55.682 216.907a3.67 3.67 0 10.13-7.34 3.67 3.67 0 00-.13 7.34z" fill="#EAEDFF" stroke="#0C1447" stroke-width=".444" stroke-miterlimit="10" stroke-linejoin="round"/><path d="M55.725 214.46a1.223 1.223 0 10.044-2.446 1.223 1.223 0 00-.044 2.446z" fill="#0C1447"/><path d="M257.24 249.795a3.67 3.67 0 10.13-7.342 3.67 3.67 0 00-.13 7.342z" fill="#EAEDFF" stroke="#0C1447" stroke-width=".444" stroke-miterlimit="10" stroke-linejoin="round"/><path d="M257.283 247.348a1.224 1.224 0 10.042-2.448 1.224 1.224 0 00-.042 2.448z" fill="#0C1447"/><path d="M178.212 226.857a6.366 6.366 0 10.223-12.73 6.366 6.366 0 00-.223 12.73z" fill="#FFEFDF" stroke="#0C1447" stroke-width=".444" stroke-miterlimit="10" stroke-linejoin="round"/><path d="M178.281 222.952a2.459 2.459 0 10.087-4.917 2.459 2.459 0 00-.087 4.917z" fill="#0C1447"/><path d="M317.469 219.956a6.365 6.365 0 10.222-12.729 6.364 6.364 0 00-6.476 6.254 6.364 6.364 0 006.254 6.475z" fill="#FFEFDF" stroke="#0C1447" stroke-width=".444" stroke-miterlimit="10" stroke-linejoin="round"/><path d="M317.538 216.052a2.46 2.46 0 10.084-4.92 2.46 2.46 0 00-.084 4.92z" fill="#0C1447"/><path d="M8.15 100.615a2.46 2.46 0 10.087-4.919 2.46 2.46 0 00-.086 4.919z" fill="#fff"/><path d="M78.575 154.385l-37.33 29.869" stroke="#fff" stroke-width=".296" stroke-miterlimit="10" stroke-linejoin="round"/><path d="M93.722 142.267l-15.146 12.118" stroke="#0C1447" stroke-width=".296" stroke-miterlimit="10" stroke-linejoin="round"/><path d="M105.852 132.562l-12.13 9.704" stroke="#fff" stroke-width=".296" stroke-miterlimit="10" stroke-linejoin="round"/><path d="M113.625 126.345l-7.773 6.217" stroke="#0C1447" stroke-width=".296" stroke-miterlimit="10" stroke-linejoin="round"/><path d="M137.04 107.612l-23.414 18.733" stroke="#fff" stroke-width=".296" stroke-miterlimit="10" stroke-linejoin="round"/><path d="M188.692 66.283l-51.652 41.329" stroke="#0C1447" stroke-width=".296" stroke-miterlimit="10" stroke-linejoin="round"/><path d="M185.541 62.09a.92.92 0 10.032-1.839.92.92 0 00-.032 1.84z" fill="#0C1447"/><path d="M101.663 27.47c-.111 7.756 4.833 11.374 11.378 8.81 1.709-.189 3.844.145 6.826 3.239 7.698 7.99 23.288-17.995 18.653-22.69-4.629-4.7-8.874 2.24-9.82-5.922-.011-.09-.028-.181-.038-.272-.704-7.16-6.316-9.9-13.235-6.067" stroke="#0C1447" stroke-width=".444" stroke-miterlimit="10"/><path d="M122.624 41.191a1.897 1.897 0 01-2.033-1.656c-.355-2.872-.249-9.618 6.444-16.836 8.868-9.556 11.799-6.348 12.341-4.114.541 2.235-3.357 18.753-15.127 22.344.006 0-.771.192-1.625.262z" fill="#0C1447" stroke="#0C1447" stroke-width=".444" stroke-miterlimit="10" stroke-linejoin="round"/><path d="M182.757 50.455s1.655 13.603 11.241 15.953c0 0-3.17-11.005-4.279-15.028" fill="#fff"/><path d="M182.757 50.455s1.655 13.603 11.241 15.953c0 0-3.17-11.005-4.279-15.028" fill="#FFEFDF"/><path d="M182.757 50.455s1.655 13.603 11.241 15.953c0 0-3.17-11.005-4.279-15.028" stroke="#3B393B" stroke-width=".444" stroke-miterlimit="10"/><path d="M132.166 18.036s4.026 6.323 16.717 5.8c12.69-.522 18.531-3.256 23.063-2.324 1.573.324 5.084.1 7.76 1.278 2.671 1.178 11.098 3.435 11.098 3.435s-.972 3.394-6.598 2.086c-5.625-1.308-6.679-1.586-6.679-1.586l-9.399 1.136s3.775 3.005 7.425 3.516c3.65.511 9.173 1.46 10.148 6.236 0 0 .817-.052 3.495 6.574 0 0 14.853 4.51 22.308 12.882 0 0-3.107 3.417-9.867-1.841 0 0-10.535-5.541-23.248-4.433-12.713 1.108-11.534 1.165-11.534 1.165s3.313 3.16 11.404 4.928c8.09 1.768 10.381 6.361 10.462 10.04 0 0-3.336.564-10.995-3.077-9.566-4.551-26.457-1.786-42.004-14.647-15.547-12.862-15.215-12.801-15.215-12.801s-.492-9.26 11.659-18.367z" fill="#FFEFDF"/><path d="M132.166 18.036s4.026 6.323 16.717 5.8c12.69-.522 18.531-3.256 23.063-2.324 1.573.324 5.084.1 7.76 1.278 2.671 1.178 11.098 3.435 11.098 3.435s-.972 3.394-6.598 2.086c-5.625-1.308-6.679-1.586-6.679-1.586l-9.399 1.136s3.775 3.005 7.425 3.516c3.65.511 9.173 1.46 10.148 6.236 0 0 .817-.052 3.495 6.574 0 0 14.853 4.51 22.308 12.882 0 0-3.107 3.417-9.867-1.841 0 0-10.535-5.541-23.248-4.433-12.713 1.114-11.534 1.165-11.534 1.165s3.313 3.16 11.404 4.928c8.09 1.768 10.381 6.361 10.462 10.04 0 0-3.336.564-10.995-3.077-9.566-4.551-26.457-1.786-42.004-14.647-15.547-12.862-15.215-12.801-15.215-12.801s-.492-9.255 11.659-18.367z" stroke="#0C1447" stroke-width=".444" stroke-miterlimit="10"/><path d="M169.053 33.817s2.904 1.308 6.554 1.82c3.649.51 10.094 1.971 10.094 1.971M170.234 42.037s3.137 1.44 6.342 1.102c3.211-.337 11.32.367 14.916 1.833" stroke="#0C1447" stroke-width=".444" stroke-miterlimit="10"/><path d="M166.918 52.005s-1.483.004-3.402 1.114l3.402-1.114z" fill="#fff"/><path d="M166.918 52.005s-1.483.004-3.402 1.114" stroke="#0C1447" stroke-width=".444" stroke-miterlimit="10"/><path d="M188.398 64.71c-4.825-2.17-6.156.999-6.156.999s3.768 1.348 6.609 1.113l-.453-2.112zM189.477 27.854c-4.094-.7-3.498-2.982-3.498-2.982l4.826 1.354s-.231 1.115-1.328 1.628zM192.307 60.757s-2.836.645-.814 4.702l2.511.945-1.697-5.647zM209.542 58.04c-4.904-2.468-3.001-5.489-3.001-5.489s3.932 2.748 4.959 4.513c0 0-.792 1.033-1.958.976z" fill="#0C1447"/><path d="M132.35 15.155s-5.258 2.575-8.602 7.403l8.602-7.403z" fill="#fff"/><path d="M132.35 15.155s-5.258 2.575-8.602 7.403" stroke="#0C1447" stroke-width=".444" stroke-miterlimit="10"/><path d="M-4.301 255.098c4.129.072 4.078 2.996 8.207 3.068 4.13.072 4.18-2.851 8.31-2.779 4.13.072 4.078 2.995 8.207 3.067 4.13.072 4.18-2.851 8.31-2.779 4.13.072 4.078 2.995 8.207 3.067M-4.357 258.281c4.129.072 4.078 2.995 8.207 3.067 4.13.072 4.18-2.851 8.31-2.779 4.129.072 4.078 2.996 8.207 3.068 4.13.072 4.18-2.851 8.31-2.779 4.13.072 4.078 2.995 8.207 3.067M288.766 304.704c4.129.072 4.078 2.995 8.207 3.067 4.129.072 4.181-2.851 8.31-2.779 4.129.072 4.078 2.995 8.207 3.067 4.13.072 4.181-2.851 8.31-2.779 4.129.072 4.078 2.995 8.207 3.068M288.71 307.883c4.129.072 4.078 2.995 8.208 3.067 4.129.072 4.18-2.851 8.309-2.779 4.13.072 4.078 2.995 8.208 3.067 4.129.072 4.18-2.851 8.309-2.779 4.13.072 4.079 2.995 8.208 3.068M126.417 184.279c4.13.072 4.079 2.995 8.208 3.067 4.129.072 4.18-2.851 8.309-2.779 4.13.072 4.079 2.995 8.208 3.067 4.129.072 4.18-2.851 8.309-2.779 4.13.072 4.079 2.995 8.208 3.067M126.362 187.461c4.129.072 4.078 2.995 8.207 3.068 4.13.072 4.181-2.852 8.31-2.78 4.129.073 4.078 2.996 8.207 3.068 4.13.072 4.181-2.851 8.31-2.779 4.129.072 4.078 2.995 8.208 3.067" stroke="#0C1447" stroke-width=".593" stroke-miterlimit="10" stroke-linejoin="round"/><path d="M188.773 66.23l126.999 145.93" stroke="#0C1447" stroke-width=".296" stroke-miterlimit="10" stroke-linejoin="round"/><path d="M251.856 137.62l63.916 74.54" stroke="#fff" stroke-width=".296" stroke-miterlimit="10" stroke-linejoin="round"/><path d="M178.435 214.127l10.256-147.844M135.501 271.208l53.19-204.925" stroke="#0C1447" stroke-width=".296" stroke-miterlimit="10" stroke-linejoin="round"/><path d="M135.501 271.208l6.951-27.089" stroke="#fff" stroke-width=".296" stroke-miterlimit="10" stroke-linejoin="round"/></svg>