<svg width="1236" height="770" fill="none" xmlns="http://www.w3.org/2000/svg"><path d="M1219.18 222.567l5.09.089c4.15.073 7.44 3.524 7.32 7.678l-14.16 265.428-1.2 263.784c-.15 5.245-4.52 9.384-9.77 9.25L26.695 738.8a6.42 6.42 0 01-6.26-6.534l.136-7.767" fill="#0C1447"/><path d="M1204.1 618.731l-22.94-1.737 22.88-7.616c-.07-81.924 9.81-291.523 15.19-398.718l-69.96-45.818c-171.353.919-489.162-24.865-637.111-16.368-62.921 3.616-144.425 3.556-223.304 1.976-1.663 7.961-4.567 22.079-4.697 24.658-.14 2.706-4.191-15.444-6.261-24.892-114.625-2.5-221.564-8.006-254.992-9.834-5.86-.322-10.808 4.289-10.91 10.161L8.021 378.087l.88 51.493 16.55 6.188-16.428.856 2.74 160.686a289.54 289.54 0 01-1.177 31.474l-7.977 86.54a6.41 6.41 0 005.93 6.993c185.545 13.48 1085.95 31.558 1185.28 33.521 5.03.096 9.27-3.732 9.67-8.753 1.6-20.065 4.86-70.106 1.31-110.127-.38-4.205-.61-10.387-.7-18.227z" fill="#fff" stroke="#0C1447" stroke-width="1.762" stroke-miterlimit="10" stroke-linejoin="round"/><path d="M409.367 498.958c-6.489-35.137-48.227-45.371-77.059-34.135 0 0-9.216 10.555-12.721 4.823-3.515-5.741-23.628 8.415-17.915-8.514 16.389-36.457-29.3-13.352-13.939-29.25 7.949-6.801 7.469-13.742 2.064-14.471-11.387-3.229-22.083 15.975-27.43 19.699-10.388.589-21.26-20.033-6.668-31.644 15.321-15.501 32.628-22.614 41.677-8.101-3.283 1.847 5.8 25.096 10.534 17.214.22-13.59-.702-18.93 10.701-26.297 0 0 12.997-20.586 24.605-30.473 15.623-22.123 26.747 5.444 40.52-10.643 24.007-11.236-30.373-12.032-17.93-17.351 4.305-5.604.154-8.825 10.363-7.386 13.919 2.224 11.747 4.962 18.304-4.081-8.637-30.901-31.922-18.806-52.033-19.817 0-.009-8.211-12.128-8.211-12.128s-15.624-1.534-12.686 2.3c2.946 3.835 3.382 13.306.904 17.046-10.793 18.965 4.762 30.799-18.768 5.978 0 0 12.195-8.615-7.064-8.951-45.964-1.903-22.131-38.068 5.856-25.121 3.646-1.832 6.716-5.562 6.793-9.979 4.748-12.545 21.163 16.9 30.45 14.404 54.15 19.761 7.366-15.149 14.121-16.14 9.029.158 8.886 8.349 16.757 5.964 7.872-2.385 19.26.336 2.557-8.784-16.693-9.119-22.032-13.63-29.87-13.132-27.738 9.655-16.961-24.359-51.641-7.842-6.517 23.213-23.793-5.375-22.59-16.154 0 0-19.149-6.64-14.433-.887 4.716 5.762 8.274 8.972 2.161 13.91-18.79 30.456-54.135-31.297-59.812 12.202-12.167 3.106-33.374-1.073-63.117-5.511-33.231-2.967-25.958 4.65-47.65 5.474 0 0-3.873-19.611-9.431-11.515-12.76 14.758-17.648 11.575-29.645 8.31 5.257 7.253-34.066 9.986-19.512 14.167 8.406 1.408 21.619 2.9 17.937 7.245-4.355.246-28.2 15.725-11.719 16.199 7.252-1.77 14.544-5.426 15.647.273 12.162 10.733-2.845 11.673-12.36 18.075-23.375 16.215 32.364-6.071 31.936-1.965 6.128-1.916 10.614-24.216 21.98-17.272 5.94 4.513 8.886 8.348 14.411 2.139 22.847-6.821 20.808 9.597 35.056 26.469 5.906 6.409 20.896 9.828 22.043 12.996 14.713 6.199-6.406 26.592.018 33.425 10.095 9.368 27.671 19.823 30.728 33.325 1.125 4.43 2.192 12.65 7.619 12.11 5.426-.532 4.649 9.544 7.662 9.596 3.012.053 9.542 5.211 9.586 2.69-9.005-8.833-24.921-42.603 3.254-13.824 3.217 25.685 19.452 44.14 41.277 49.278 19.81-.67 18.195-8.536 29.314 10.601 21.727 30.138 43.627-8.304 16.066 45.055-10.184 14.143 8.242 16.657 7.955 27.249-5.978 14.216 19.857 18.485 21.813 26.238 6.607 5.515-7.438 33.785-3.739 41.552 2.183 12.649-4.185 32.716-4.185 32.716 1.729 4.703-19.345 40.425-6.12 40.25 7.807.771 3.404 12.044 18.504 9.151 15.101-2.894 11.344 5.242 12.808-9.24-2.919-25.815 19.56-28.512 21.942-50.062 2.415-13.238 16.046 1.584 22.404-7.176 11.417-9.128 13.708-14.775 16.119-26.837 0 0-14.367-4.66 7.381-8.699 21.74-4.039 18.615 2.847 21.74-4.039 3.133-6.885 3.822-11.918 4.566-20.098-1.894-14.65 7.522-23.619 10.224-33.872-21.718-29.732-49.018-9.252-50.109-26.732z" fill="#0C1447"/><path d="M520.179 248.065c-5.498-20.604 25.33-25.407 17.317-43.067-16.672 6.141-23.204 21.026-23.885-7.358-30.2-39.901-78.177-7.898-109.49 10.235-5.444 3.934-49.213 2.383-50.804 16.456-.996 9.53-.996 9.53-10.071 7.636-9.075-1.893 2.328 8.717 18.918 7.271 16.591-1.445 27.467-8.196 28.974.506 1.685 18.438 16.154 58.48 37.065 58.76 4.967.087 11.067-17.158 20.217-19.596 18.129-10.052 32.615-7.793 49.024-9.547 7.832-12.246 22.519-10.847 22.735-21.296zM1111.77 275.734c-8.74-20.246-45.74 2.164-56.97-9.67-.77-3.484 5.56-16.611-.62-12.157-11.74 8.471-10.04 5.894-10.04 5.894-3.7 6.799-26.35 8.757-31.53 3.783 0 .008 19.25-11.802-5.66-7.903-24.916 3.899-35.801 10.649-35.801 10.649l-12.353-3.686c-8.179-33.837-44.696-14.373-66.057-10.692-14.088.618-28.145-.499-29.894 4.676-2.062 12.414-20.732 13.696-23.162-1.268-2.322-9.579-9.829-6.24-9.829-6.24s4.892 4.419 2.237 13.92c-19.027 37.755-10.286-14.459-13.046-11.502-7.431-1.002-9.226 6.779-13.395 8.442-4.168 1.662-20.758 3.108-20.758 3.108s-8.412 7.657-19.914 2.25c-11.502-5.406-30.799 9.002-30.799 9.002-14.382 1.966-52.807-18.62-70.979-13.385-24.755 5.112-47.432 14.348-61.847 32.751-2.6 6.895-10.191 14.566-.211 12.142 15.951 5.577 14.739 9.06 21.117 10.779-32.054 11.079-2.583-25.157-41.713 30.496 0 0 4.801 9.622-9.196 5.045-13.996-4.578-16.227-19.37-21.451-4.708-5.225 14.653-7.37 19.245-5.331 20.728 23.273 17.749 30.025-6.349 46.696-18.263 5.058-5.117-2.991-18.266 10.071-7.636 13.061 10.638 10.627 7.989 19.657 12.489 9.029 4.491 7.607 10.298 10.582 10.595 21.497 2.11 8.711 22.709 22.242 6.457 13.531-16.243 5.209-13.79 13.379-7.57 8.17 6.211 12.202 12.359 17.998 12.46 5.797.101 11.971-3.964 10.764.188-5.285 18.122 2.071 23.456-13.667 24.053-35.891-2.37-41.517 5.267-70.24-8.158-4.872-12.832-6.608-11.821-16.364-11.568-4.342-9.666-19.82 1.727-20.819 6.577-10.696-6.484-35.012 31.213-40.349 34.861-6.687 3.345-11.79 11.068-11.851 14.537.184 13.233.364 47.049 19.028 48.044 23.097 9.375 47.222-20.268 64.513 4.596 7.364 5.334 18.331-6.62 9.829 6.24-29.465 31.945 17.279 21.656-.185 58.119-11.944 39.759 24.917 14.663 17.014 68.821.959 23.115 15.55 7.221 27.324.477 9.995-3.287 10.688 4.529 18.27-3.143 24.074-16.507 14.934-46.198 28.481-66.292 5.842-2.496 4.177-1.662 1.901-13.847-7.174-31.264 15.856-18.522 24.688-38.605-1.323-18.754 15.803-9.179 16.124-22.267-.253-21.875-21.296-4.383-27.293-2.211-4.211-10.476-18.882-21.524-20.862-38.528 1.072-13.863-5.364-24.386-5.364-24.386-5.61-22.392 5.142-2.178 11.502 5.406 12.09 7.169 12.302 22.154 9.366 32.259 13.348 15.545 25.065 3.823 38.027 4.126 9.392 3.118 27.243-16.715 28.584-24.648-6.824-25.612-30.303 28.08-39.375-21.508 25.828 1.348 40.152 8.504 62.552 21.921 0-.008-5.872 4.231 8.367-5.067 27.872-11.093-7.473 35.799 10.022 42.672 7.355 5.334 13.905 9.79 12.97 15.843 7.932 4.819 7.488-24.077 22.103-32.573 17.307-16.338 11.318-18.999 24.324-17.799 16.826 4.932-.669 28.182 9.481 26.192 3.362-2.548 11.698-5.872 11.698-5.872s-7.779 18.95-2.006 19.914c8.139 5.568 2.214 26.362 20.107 34.182 9.905 1.908-11.922-28.834-8.514-33.98 7.861-2.774 9.529 22.884 25.62 3.046 23.635 4.704 5.146-23.736 1.268-25.133-26.989-38.085 58.289 9.253 44.783-51.263 0 0-2.373-6.11 1.825-9.507-7.631-13.295-21.065-16.627-.42-23.427-.916 4.444 20.201 12.211 14.541 21.067-2.65 9.501-1.93 15.582 4.81 8.759 7.82-9.682 6.35-24.257 14.6-29.234 14.69-1.131 13.95-10.074 21.9-21.31 40.82-35.7-2.01-12.892-6.21-23.52 2.58-5.161-10.71-3.657-10.71-3.657 6.7-8.178 35.47-22.048 50.68-9.518 10.72 2.786 27.45-7.333 32.45-8.981 4.99-1.648 21.72-10.895 6.59 1.85-33.63 22.257-10.34 10.857-15.42 30.091-19.42 25.671 1.85 8.742 8.25 1.879-19.13-33.334 65.5-31.425 72.73-39.501 42.23-45.662-59.42-10.982-70.86-21.203zm-434.265 20.173c-5.918 6.837-25.832 9.096-25.048 11.709-3.558 2.062-6.778 3.766-9.698 5.179-1.862-5.821-6.432-16.058.986-27.888 5.918-6.837 19.463-23.943 16.787-12.716-2.676 11.227-12.716 17.129-8.593 18.064 7.456 12.674 31.708-4.829 25.566 5.652z" fill="#0C1447"/><path d="M950.911 539.837c-38.642 2.982-4.823-19.009-20.324-24.223-19.721 3.304-17.564-19.367-32.173-21.874-1.726-.03-2.113 4.652 2.303 7.709 9.403 3.99 16.326 47.666 31.403 42.749 9.336.993 44.702 3.32 18.791-4.361zM956.922 500.915c-25.865 4.712-7.904 28.047 9.382 27.494 5.02-2.502 1.759-9.635 3.206-13.986 1.491-3.91 8.411-9.062 3.785-13.138-5.215-2.401 9.788-12.33-6.019-9.669l.942.321c-3.281 1.28-4.778 11.394-11.296 8.978zM1068.64 578.66c-1.14 2.849-6.36-21.212-16.29-11.153-19.59 21.496-19.27-.497-18.72-11.194-13.67-.84-19.15 6.987-32.53 10.3-8.585 1.771-7.268-3.326-19.073 8.622-11.805 11.94-21.515 8.579-24.086 16.203-1.933 8.464-6.27 49.337 5.309 45.493 24.281 5.088 37.94-26.854 60.08-14.94 7.2 7.16 3.34 18.603 8.26 16.776 4.91-1.827 4.44-9.512 8.62-4.327 8.74 44.208 56.9 3.956 46.82-24.117-9.89-8.519-15.36-23.527-18.39-31.663zM1021.57 530.829c40.79-8.099 13.33 35.206 36.37 11.926 8.73-7.22 17.39 16.876 22.85 14.11-29.03-32.906-8.26-30.174-52.07-38.412-8.06-7.555-20.82 1.651-12.39 3.415 5.79-.712 9.67-2.252 7.31.525-4.51 3.721-15.63 11.424-2.07 8.436zM1021.02 392.891c-7.1 1.704-10.16 15.557-.57 13.473 0 0 15.76-10.72 18.85-13.154 4.42-2.302 16.92 3.689 15.03-7.542 1.7-7.317-.9-7.489 4.35-16.242 3.58-1.834 8.53-.469 11.62-6.188-.41-5.001-10.95.757-13.12-5.189-7.24-.964-14.67 17.637-9.55 23.6-3.16 8.959-19.43 6.238-26.61 11.242zM742.005 553.406c-.743 12.523-21.109 9.628-19.541 16.748 9.659 10.173-15.206 37.569 11.215 29.126 3.827-3.438 1.329-4.361 3.542-11.331 4.417-11.087 19.553-29.621 4.784-34.543zM329.785 436.281c14.56-5.425-25.137-20.058-29.908-11.999-4.054.936-.321 6.283 1.597 6.477 0 0 6.887-2.749 8.944-2.713 7.338 3.395 5.947 8.932 19.367 8.235zM334.062 439.056c8.729 2.26 4.164 2.933 9.196 7.067 2.606.993 9.797-.21 8.764-4.562-2.498-6.247-3.47-8.253-8.044-9.061-.304.943-16.461 5.646-9.916 6.556zM322.794 445.927c3.799-2.312 2.665-4.761-.815-6.633-5.685 1.754-4.903 7.879.815 6.633zM318.695 414.513c3.799-2.312 2.665-4.761-.815-6.633-5.685 1.746-4.903 7.87.815 6.633zM357.763 443.829c3.464 2.819 5.209.81 5.577-3.28-3.665-4.863-8.806-1.813-5.577 3.28zM508.092 286.382c1.588.654 13.662-1.488 9.86-6.709-4.11-5.548-10.592-1.328-13.387 1.188 0 0-7.866-3.701-9.241-2.531-2.852 2.405-7.389-4.877-9.275-.636-1.885 4.241-.153 8.774 3.934 8.372 4.087-.403 6.624-3.202 6.571-.123-5.28 11.521 9.806 3.176 11.538.439zM561.041 311.445c2.027 5.063 11.834 1.417 10.097 5.39-1.196 3.543-5.915 1.319-5.54 6.074.374 4.755-9.889 8.367-.798 6.867 9.092-1.5 5.977-4.881 10.238-2.665 9.686 6.195 19.365 1.108 8.053-6.978-3.144-1.714-5 .861-5.341-5.315-.349-6.177-.304-8.783-3.44-10.505-4.963-2.71-9.071.316-9.071.316-4.962-4.708-8.964 4.414-4.198 6.816z" fill="#0C1447"/><path d="M547.227 324.019c5.603 3.424 5.333 5.789 9.702 2.302 10.303-3.003 4.276-8.821.656-11.381-1.825-.675-2.683-1.943-7.065 2.246-4.382 4.198-8.896 3.409-3.293 6.833z" fill="#0C1447"/><path d="M193.437 396.076c8.141.142 14.856-6.342 14.998-14.483.142-8.14-6.343-14.855-14.484-14.997-8.141-.142-14.856 6.342-14.998 14.483-.142 8.14 6.343 14.855 14.484 14.997z" fill="#FFEFDF" stroke="#0C1447" stroke-width="1.322" stroke-miterlimit="10" stroke-linejoin="round"/><path d="M193.594 387.031a5.695 5.695 0 10.199-11.389 5.695 5.695 0 10-.199 11.389z" fill="#0C1447"/><path d="M417.937 601.027c8.141.142 14.856-6.342 14.998-14.483.142-8.14-6.343-14.855-14.484-14.997-8.141-.142-14.856 6.342-14.998 14.483-.142 8.14 6.343 14.855 14.484 14.997z" fill="#FFEFDF" stroke="#0C1447" stroke-width="1.322" stroke-miterlimit="10" stroke-linejoin="round"/><path d="M418.095 591.982a5.695 5.695 0 10.199-11.389 5.695 5.695 0 00-.199 11.389z" fill="#0C1447"/><path d="M334.66 373.055a8.5 8.5 0 10.296-16.998 8.5 8.5 0 00-.296 16.998z" fill="#EAEDFF" stroke="#0C1447" stroke-width="1.322" stroke-miterlimit="10" stroke-linejoin="round"/><path d="M334.759 367.389a2.833 2.833 0 10.098-5.666 2.833 2.833 0 00-.098 5.666z" fill="#0C1447"/><path d="M546.872 362.757a8.5 8.5 0 10.296-16.998 8.5 8.5 0 00-.296 16.998z" fill="#EAEDFF" stroke="#0C1447" stroke-width="1.322" stroke-miterlimit="10" stroke-linejoin="round"/><path d="M546.971 357.091a2.833 2.833 0 10.098-5.666 2.833 2.833 0 00-.098 5.666z" fill="#0C1447"/><path d="M250.725 368.589a8.5 8.5 0 10.297-16.997 8.5 8.5 0 00-.297 16.997z" fill="#EAEDFF" stroke="#0C1447" stroke-width="1.322" stroke-miterlimit="10" stroke-linejoin="round"/><path d="M250.824 362.924a2.834 2.834 0 10.098-5.666 2.834 2.834 0 00-.098 5.666z" fill="#0C1447"/><path d="M267.181 399.881a8.5 8.5 0 10-8.35-8.647 8.5 8.5 0 008.35 8.647z" fill="#EAEDFF" stroke="#0C1447" stroke-width="1.322" stroke-miterlimit="10" stroke-linejoin="round"/><path d="M267.28 394.215a2.833 2.833 0 10.101-5.665 2.833 2.833 0 00-.101 5.665z" fill="#0C1447"/><path d="M238.348 447.385a8.5 8.5 0 10.297-16.997 8.5 8.5 0 00-.297 16.997z" fill="#EAEDFF" stroke="#0C1447" stroke-width="1.322" stroke-miterlimit="10" stroke-linejoin="round"/><path d="M238.447 441.72a2.834 2.834 0 10.098-5.666 2.834 2.834 0 00-.098 5.666z" fill="#0C1447"/><path d="M705.09 523.543a8.5 8.5 0 008.647-8.351 8.5 8.5 0 10-16.997-.296 8.5 8.5 0 008.35 8.647z" fill="#EAEDFF" stroke="#0C1447" stroke-width="1.322" stroke-miterlimit="10" stroke-linejoin="round"/><path d="M705.189 517.877a2.833 2.833 0 10.099-5.665 2.833 2.833 0 00-.099 5.665z" fill="#0C1447"/><path d="M1059.5 660.146c4.69.082 8.56-3.657 8.65-8.351.08-4.693-3.66-8.565-8.35-8.647a8.498 8.498 0 00-8.65 8.351c-.08 4.693 3.66 8.565 8.35 8.647z" fill="#EAEDFF" stroke="#0C1447" stroke-width="1.322" stroke-miterlimit="10" stroke-linejoin="round"/><path d="M1059.6 654.48a2.832 2.832 0 00.1-5.666 2.839 2.839 0 00-2.89 2.784 2.84 2.84 0 002.79 2.882z" fill="#0C1447"/><path d="M595.741 361.737c8.141.142 14.856-6.342 14.998-14.483.142-8.14-6.342-14.855-14.484-14.997-8.141-.142-14.856 6.342-14.998 14.483-.142 8.14 6.343 14.855 14.484 14.997z" fill="#FFEFDF" stroke="#0C1447" stroke-width="1.322" stroke-miterlimit="10" stroke-linejoin="round"/><path d="M595.899 352.692a5.697 5.697 0 005.794-5.596 5.696 5.696 0 10-5.794 5.596z" fill="#0C1447"/><path d="M844.56 454.45c8.141.142 14.856-6.342 14.998-14.482.142-8.141-6.342-14.855-14.483-14.997-8.141-.142-14.856 6.342-14.998 14.482-.142 8.141 6.342 14.855 14.483 14.997z" fill="#FFEFDF" stroke="#0C1447" stroke-width="1.322" stroke-miterlimit="10" stroke-linejoin="round"/><path d="M844.719 445.405a5.695 5.695 0 10.199-11.389 5.695 5.695 0 00-.199 11.389z" fill="#0C1447"/><path d="M128.28 178.092a5.696 5.696 0 10.2-11.39 5.696 5.696 0 00-.2 11.39z" fill="#fff"/><path d="M291.361 302.608l-86.446 69.165" stroke="#fff" stroke-width=".881" stroke-miterlimit="10" stroke-linejoin="round"/><path d="M326.437 274.544l-35.076 28.064" stroke="#0C1447" stroke-width=".881" stroke-miterlimit="10" stroke-linejoin="round"/><path d="M354.526 252.072l-28.089 22.472" stroke="#fff" stroke-width=".881" stroke-miterlimit="10" stroke-linejoin="round"/><path d="M372.527 237.675l-18.002 14.397" stroke="#0C1447" stroke-width=".881" stroke-miterlimit="10" stroke-linejoin="round"/><path d="M426.746 194.296l-54.219 43.379" stroke="#fff" stroke-width=".881" stroke-miterlimit="10" stroke-linejoin="round"/><path d="M546.354 98.59l-119.607 95.706" stroke="#0C1447" stroke-width=".881" stroke-miterlimit="10" stroke-linejoin="round"/><path d="M541.722 95.114a1.043 1.043 0 10.036-2.086 1.043 1.043 0 00-.036 2.086z" fill="#0C1447"/><path d="M446.593 55.85c-.127 8.797 5.481 12.9 12.905 9.991 1.937-.213 4.359.166 7.741 3.674 8.73 9.061 26.412-20.408 21.155-25.733-5.25-5.33-10.065 2.54-11.138-6.716-.012-.103-.031-.206-.042-.31-.798-8.12-7.164-11.228-15.01-6.88" stroke="#0C1447" stroke-width="1.322" stroke-miterlimit="10"/><path d="M470.367 71.415a2.151 2.151 0 01-2.306-1.879c-.402-3.257-.283-10.909 7.309-19.095 10.059-10.839 13.383-7.2 13.997-4.666.615 2.534-3.807 21.269-17.156 25.343.006 0-.875.218-1.844.297z" fill="#0C1447" stroke="#0C1447" stroke-width="1.322" stroke-miterlimit="10" stroke-linejoin="round"/><path d="M538.565 81.919s1.877 15.429 12.75 18.094c0 0-3.596-12.482-4.854-17.044" fill="#fff"/><path d="M538.565 81.919s1.877 15.429 12.75 18.094c0 0-3.596-12.482-4.854-17.044" fill="#FFEFDF"/><path d="M538.565 81.919s1.877 15.429 12.75 18.094c0 0-3.596-12.482-4.854-17.044" stroke="#3B393B" stroke-width="1.322" stroke-miterlimit="10"/><path d="M481.189 45.152s4.566 7.171 18.959 6.579c14.393-.593 21.018-3.693 26.157-2.637 1.784.367 5.766.115 8.802 1.45 3.029 1.335 12.586 3.896 12.586 3.896s-1.103 3.849-7.483 2.366-7.575-1.8-7.575-1.8l-10.66 1.29s4.282 3.407 8.422 3.987c4.139.58 10.403 1.656 11.508 7.073 0 0 .927-.06 3.965 7.455 0 0 16.845 5.115 25.3 14.61 0 0-3.524 3.875-11.191-2.088 0 0-11.948-6.285-26.366-5.028-14.418 1.258-13.082 1.322-13.082 1.322s3.758 3.584 12.934 5.589c9.176 2.005 11.774 7.215 11.866 11.386 0 0-3.784.64-12.47-3.49-10.85-5.16-30.006-2.025-47.638-16.611-17.633-14.587-17.257-14.518-17.257-14.518s-.558-10.503 13.223-20.831z" fill="#FFEFDF"/><path d="M481.189 45.152s4.566 7.171 18.959 6.579c14.393-.593 21.018-3.693 26.157-2.637 1.784.367 5.766.115 8.802 1.45 3.029 1.335 12.586 3.896 12.586 3.896s-1.103 3.849-7.483 2.366-7.575-1.8-7.575-1.8l-10.66 1.29s4.282 3.407 8.422 3.987c4.139.58 10.403 1.656 11.508 7.073 0 0 .927-.06 3.965 7.455 0 0 16.845 5.115 25.3 14.61 0 0-3.524 3.875-11.191-2.088 0 0-11.948-6.285-26.366-5.028-14.418 1.264-13.082 1.322-13.082 1.322s3.758 3.584 12.934 5.589c9.176 2.005 11.774 7.215 11.866 11.386 0 0-3.784.64-12.47-3.49-10.85-5.16-30.006-2.025-47.638-16.611-17.633-14.587-17.257-14.518-17.257-14.518s-.558-10.496 13.223-20.831z" stroke="#0C1447" stroke-width="1.322" stroke-miterlimit="10"/><path d="M523.023 63.048s3.294 1.484 7.433 2.064c4.14.58 11.45 2.237 11.45 2.237M524.362 72.371s3.559 1.633 7.194 1.25c3.642-.382 12.839.416 16.918 2.079" stroke="#0C1447" stroke-width="1.322" stroke-miterlimit="10"/><path d="M520.598 83.676s-1.68.005-3.856 1.263l3.856-1.263z" fill="#fff"/><path d="M520.598 83.676s-1.68.005-3.856 1.263" stroke="#0C1447" stroke-width="1.322" stroke-miterlimit="10"/><path d="M544.962 98.085c-5.471-2.461-6.981 1.134-6.981 1.134s4.273 1.528 7.495 1.262l-.514-2.396zM546.186 56.286c-4.643-.795-3.967-3.382-3.967-3.382l5.474 1.536s-.262 1.264-1.507 1.846zM549.396 93.602s-3.216.733-.923 5.333l2.848 1.072-1.925-6.405zM568.943 90.52c-5.561-2.798-3.403-6.224-3.403-6.224s4.459 3.116 5.624 5.118c0 0-.898 1.171-2.221 1.107z" fill="#0C1447"/><path d="M481.397 41.884s-5.963 2.92-9.755 8.396l9.755-8.396z" fill="#fff"/><path d="M481.397 41.884s-5.963 2.92-9.755 8.396" stroke="#0C1447" stroke-width="1.322" stroke-miterlimit="10"/><path d="M99.445 535.825c9.562.167 9.444 6.936 19.006 7.103 9.562.167 9.68-6.602 19.243-6.435 9.562.167 9.443 6.936 19.005 7.103 9.563.167 9.681-6.602 19.243-6.435 9.562.166 9.444 6.936 19.006 7.102M99.316 543.195c9.562.167 9.444 6.936 19.006 7.103 9.562.167 9.68-6.602 19.242-6.435 9.562.166 9.444 6.936 19.006 7.103 9.562.166 9.68-6.603 19.242-6.436 9.562.167 9.444 6.936 19.006 7.103M778.092 650.695c9.562.167 9.444 6.936 19.006 7.103 9.562.167 9.68-6.602 19.242-6.435 9.563.166 9.444 6.936 19.006 7.102 9.562.167 9.681-6.602 19.243-6.435 9.562.167 9.444 6.936 19.006 7.103M777.964 658.056c9.562.167 9.444 6.936 19.006 7.103 9.562.167 9.68-6.602 19.242-6.435 9.562.167 9.444 6.936 19.006 7.103 9.562.167 9.68-6.602 19.242-6.435 9.562.167 9.444 6.936 19.006 7.103M402.147 371.83c9.562.167 9.444 6.936 19.006 7.103 9.562.167 9.68-6.602 19.242-6.435 9.562.167 9.444 6.936 19.006 7.103 9.562.167 9.68-6.602 19.242-6.436 9.562.167 9.444 6.936 19.006 7.103M402.019 379.2c9.562.167 9.443 6.936 19.005 7.103 9.563.167 9.681-6.602 19.243-6.435 9.562.166 9.444 6.936 19.006 7.103 9.562.166 9.68-6.603 19.242-6.436 9.562.167 9.444 6.936 19.006 7.103M1064.77 440.452c9.56.167 9.44 6.936 19 7.103 9.56.166 9.68-6.603 19.24-6.436 9.57.167 9.45 6.936 19.01 7.103 9.56.167 9.68-6.602 19.24-6.435 9.57.167 9.45 6.936 19.01 7.103M1064.64 447.822c9.56.166 9.44 6.936 19 7.102 9.57.167 9.68-6.602 19.25-6.435 9.56.167 9.44 6.936 19 7.103 9.56.167 9.68-6.602 19.24-6.435 9.57.167 9.45 6.936 19.01 7.103" stroke="#0C1447" stroke-width="1.762" stroke-miterlimit="10" stroke-linejoin="round"/><path d="M546.542 98.467l294.089 337.928" stroke="#0C1447" stroke-width=".881" stroke-miterlimit="10" stroke-linejoin="round"/><path d="M692.621 263.785l148.01 172.61" stroke="#fff" stroke-width=".881" stroke-miterlimit="10" stroke-linejoin="round"/><path d="M592 333L546.353 98.59M423.181 573.13L546.354 98.591" stroke="#0C1447" stroke-width=".881" stroke-miterlimit="10" stroke-linejoin="round"/><path d="M423.181 573.13l16.097-62.728" stroke="#fff" stroke-width=".881" stroke-miterlimit="10" stroke-linejoin="round"/><path d="M1149.43 164.845s24.08 15.477 41.69 22.844c17.61 7.366 28.27 22.973 28.27 22.973l-51.91 8.921c-5.97 1.03-11.59-3.139-12.34-9.153l-5.71-45.585z" fill="#0C1447"/></svg>