<?xml version="1.0" standalone="no"?>
<!DOCTYPE svg PUBLIC "-//W3C//DTD SVG 1.1//EN" "http://www.w3.org/Graphics/SVG/1.1/DTD/svg11.dtd" >
<svg>
<metadata>
Created by FontForge 20090622 at Wed Apr  8 17:47:14 2015
 By deploy user
Copyright (c) 1981, 1982, 1983, 1989 and 1993, Linotype Library GmbH or its affiliated Linotype-Hell companies. All rights reserved.

The digitally encoded machine readable software for producing the Typefaces licensed to you is now the property of Heidelberger Druckmaschinen AG and its licensors, and may not be reproduced, used, displayed, modified, disclosed or transferred without the express written approval of Heidelberger Druckmaschinen AG.

Copyright (c) 1988, 1990, 1993 Adobe Systems Incorporated. All Rights Reserved.
</metadata>
<defs>
<font id="HelveticaNeue" horiz-adv-x="1138" >
  <font-face 
    font-family="Helvetica Neue"
    font-weight="400"
    font-stretch="normal"
    units-per-em="2048"
    panose-1="2 0 5 3 0 0 0 2 0 4"
    ascent="1638"
    descent="-410"
    x-height="1059"
    cap-height="1462"
    bbox="-1948 -985 2961 2206"
    underline-thickness="102"
    underline-position="-153"
    unicode-range="U+0008-U+FFA7"
  />
<missing-glyph horiz-adv-x="1024" 
d="M838 1364h-629v-1268h629v1268zM942 1458v-1456h-838v1456h838z" />
    <glyph glyph-name="uniFB00" unicode="ff" horiz-adv-x="1181" 
d="M778 905h-401v-905h-174v905h-178v154h178v158q0 129 74.5 195.5t218.5 66.5q25 0 56.5 -4.5t55.5 -12.5v-151q-23 8 -49.5 11t-48.5 3q-63 0 -98 -24.5t-35 -94.5v-147h401v158q0 129 75 195.5t218 66.5q25 0 56.5 -4.5t56.5 -12.5v-151q-23 8 -49.5 11t-49.5 3
q-63 0 -98 -24.5t-35 -94.5v-147h205v-154h-205v-905h-174v905z" />
    <glyph glyph-name="fi" unicode="fi" horiz-adv-x="1060" 
d="M748 0h174v1059h-174v-1059zM748 1249h174v213h-174v-213zM203 905v-905h174v905h205v154h-205v147q0 70 34.5 94.5t98.5 24.5q23 0 49.5 -3t48.5 -11v151q-25 8 -56.5 12.5t-55.5 4.5q-143 0 -218 -66.5t-75 -195.5v-158h-178v-154h178z" />
    <glyph glyph-name="fl" unicode="fl" horiz-adv-x="1060" 
d="M748 1462v-1462h174v1462h-174zM203 905v-905h174v905h205v154h-205v147q0 70 34.5 94.5t98.5 24.5q23 0 49.5 -3t48.5 -11v151q-25 8 -56.5 12.5t-55.5 4.5q-143 0 -218 -66.5t-75 -195.5v-158h-178v-154h178z" />
    <glyph glyph-name="uniFB03" unicode="ffi" horiz-adv-x="1636" 
d="M778 905h-401v-905h-174v905h-178v154h178v158q0 129 74.5 195.5t218.5 66.5q25 0 56.5 -4.5t55.5 -12.5v-151q-23 8 -49.5 11t-48.5 3q-63 0 -98 -24.5t-35 -94.5v-147h401v158q0 129 75 195.5t218 66.5q25 0 56.5 -4.5t56.5 -12.5v-151q-23 8 -49.5 11t-49.5 3
q-63 0 -98 -24.5t-35 -94.5v-147h205v-154h-205v-905h-174v905zM1497 1249h-174v213h174v-213zM1323 1059h174v-1059h-174v1059z" />
    <glyph glyph-name="uniFB04" unicode="ffl" horiz-adv-x="1636" 
d="M778 905h-401v-905h-174v905h-178v154h178v158q0 129 74.5 195.5t218.5 66.5q25 0 56.5 -4.5t55.5 -12.5v-151q-23 8 -49.5 11t-48.5 3q-63 0 -98 -24.5t-35 -94.5v-147h401v158q0 129 75 195.5t218 66.5q25 0 56.5 -4.5t56.5 -12.5v-151q-23 8 -49.5 11t-49.5 3
q-63 0 -98 -24.5t-35 -94.5v-147h205v-154h-205v-905h-174v905zM1323 1462h174v-1462h-174v1462z" />
    <glyph glyph-name=".notdef" horiz-adv-x="1024" 
d="M838 1364h-629v-1268h629v1268zM942 1458v-1456h-838v1456h838z" />
    <glyph glyph-name=".null" horiz-adv-x="0" 
 />
    <glyph glyph-name=".null" horiz-adv-x="0" 
 />
    <glyph glyph-name="nonmarkingreturn" horiz-adv-x="681" 
 />
    <glyph glyph-name="controlBS" horiz-adv-x="0" 
 />
    <glyph glyph-name="controlHT" unicode="&#x9;" horiz-adv-x="569" 
 />
    <glyph glyph-name="uni000A" unicode="&#xa;" horiz-adv-x="569" 
 />
    <glyph glyph-name="controlCR" unicode="&#xd;" horiz-adv-x="569" 
 />
    <glyph glyph-name="controlGS" horiz-adv-x="0" 
 />
    <glyph glyph-name="space" unicode=" " horiz-adv-x="569" 
 />
    <glyph glyph-name="exclam" unicode="!" horiz-adv-x="530" 
d="M152 227v-227h227v227h-227zM362 1012v450h-194v-450l51 -637h92z" />
    <glyph glyph-name="quotedbl" unicode="&#x22;" horiz-adv-x="872" 
d="M510 1462v-528h139v528h-139zM223 1462v-528h139v528h-139z" />
    <glyph glyph-name="numbersign" unicode="#" 
d="M473 868h254l-43 -307h-254zM268 422l-59 -422h141l60 422h254l-60 -422h141l60 422h207v139h-187l43 307h201v140h-182l59 419h-141l-60 -419h-253l59 419h-141l-60 -419h-227v-140h209l-43 -307h-219v-139h198z" />
    <glyph glyph-name="dollar" unicode="$" 
d="M225 446h-174q16 -215 137 -336.5t326 -142.5v-168h113v168q98 8 180 41t141.5 89.5t93 134t33.5 178.5q0 94 -35.5 161.5t-87 112.5t-106.5 70.5t-96 36.5l-123 32v504q188 -35 229 -237h174q-41 180 -139 282.5t-264 122.5v137h-113v-135q-88 -6 -165 -39t-133 -89
t-89 -133t-33 -169q0 -90 24.5 -153.5t77 -107.5t131.5 -76t187 -58v-543q-123 20 -204 100t-85 217zM627 129v514q55 -16 104 -35.5t84 -48.5t55.5 -68.5t20.5 -99.5q0 -66 -19.5 -114t-55.5 -79.5t-84 -48t-105 -20.5zM514 1333v-479q-51 14 -94 32.5t-75 44t-49 63.5
t-17 91q0 117 68.5 177.5t166.5 70.5z" />
    <glyph glyph-name="percent" unicode="%" horiz-adv-x="2048" 
d="M342 1040q0 47 6 99.5t25.5 96.5t54.5 73.5t92 29.5q59 0 93 -29.5t52.5 -73.5t23.5 -96.5t5 -97.5q0 -47 -6 -100t-25.5 -97t-54.5 -73t-94 -29q-57 0 -91 30t-52.5 74t-23.5 96t-5 97zM188 1036q0 -84 17.5 -157.5t56.5 -129t102.5 -87t155.5 -31.5q90 0 151.5 34.5
t101.5 91t57.5 131.5t17.5 154q0 84 -15.5 159t-53.5 130t-100.5 88t-158.5 33q-94 0 -157.5 -34t-102.5 -91t-55.5 -132t-16.5 -159zM1354 385q0 47 6 99.5t25.5 96.5t54.5 73.5t92 29.5q59 0 93 -29.5t52.5 -73.5t23.5 -96.5t5 -97.5q0 -47 -6 -100.5t-25.5 -97.5
t-54.5 -72.5t-94 -28.5q-57 0 -91 29.5t-52.5 74t-23.5 96.5t-5 97zM1200 381q0 -84 17.5 -157.5t56.5 -128t102.5 -86.5t155.5 -32q90 0 151.5 34t101.5 90.5t57.5 131t17.5 154.5q0 84 -15.5 159t-53.5 130t-100.5 88t-158.5 33q-94 0 -157.5 -34t-102.5 -91.5t-55.5 -132
t-16.5 -158.5zM1487 1479l-1102 -1522h176l1100 1522h-174z" />
    <glyph glyph-name="ampersand" unicode="&#x26;" horiz-adv-x="1290" 
d="M563 899l-49.5 61.5t-44.5 62.5t-33.5 64.5t-13.5 65.5q0 80 53 118t115 38q78 0 123 -46t45 -110q0 -47 -18.5 -85t-47 -68.5t-63.5 -55.5t-66 -45zM938 182l156 -182h227l-285 330l39.5 87t27.5 76.5t18 85t14 111.5h-166q-6 -113 -47 -227l-265 321q53 31 102.5 69
t88.5 85t61.5 103.5t22.5 121.5q0 74 -30 130.5t-79 94t-113.5 56t-131.5 18.5q-80 0 -141.5 -24.5t-103.5 -66.5t-63.5 -96t-21.5 -114q0 -55 13 -99t37 -84t52.5 -79l59.5 -82q-70 -37 -132.5 -79t-108.5 -94t-73.5 -117.5t-27.5 -151.5q0 -45 15 -112.5t64.5 -131
t139.5 -109t237 -45.5q121 0 234.5 51.5t179.5 153.5zM506 707l336 -404q-53 -80 -132 -127t-180 -47q-53 0 -103 18.5t-89 50t-62.5 78t-23.5 101.5q0 66 20.5 114t55 86.5t81 69.5t97.5 60z" />
    <glyph glyph-name="quotesingle" unicode="'" horiz-adv-x="569" 
d="M215 1462v-528h139v528h-139z" />
    <glyph glyph-name="parenleft" unicode="(" horiz-adv-x="530" 
d="M418 -403h133q-145 236 -207.5 467t-62.5 489q0 252 61 481.5t209 462.5h-133q-160 -211 -241 -456.5t-81 -487.5q0 -135 22.5 -258t64.5 -239.5t101.5 -230t133.5 -228.5z" />
    <glyph glyph-name="parenright" unicode=")" horiz-adv-x="530" 
d="M-18 -403h131q160 211 240.5 455.5t80.5 486.5q0 135 -22.5 258t-64.5 240.5t-101.5 231t-132.5 228.5h-131q143 -236 205.5 -468t62.5 -490q0 -250 -61.5 -480.5t-206.5 -461.5z" />
    <glyph glyph-name="asterisk" unicode="*" horiz-adv-x="720" 
d="M412 1231v231h-109v-231l-217 82l-37 -99l217 -77l-133 -187l92 -63l133 196l142 -196l84 63l-135 187l223 77l-41 99z" />
    <glyph glyph-name="plus" unicode="+" horiz-adv-x="1228" 
d="M684 588v448h-139v-448h-447v-139h447v-449h139v449h446v139h-446z" />
    <glyph glyph-name="comma" unicode="," horiz-adv-x="569" 
d="M170 227v-227h121q2 -25 -3 -53.5t-19.5 -56t-38 -51t-58.5 -36.5v-102q119 35 172 119t53 200v207h-227z" />
    <glyph glyph-name="hyphen" unicode="-" horiz-adv-x="796" 
d="M102 651v-164h592v164h-592z" />
    <glyph glyph-name="period" unicode="." horiz-adv-x="569" 
d="M170 227v-227h227v227h-227z" />
    <glyph glyph-name="slash" unicode="/" horiz-adv-x="681" 
d="M569 1497l-604 -1530h148l606 1530h-150z" />
    <glyph glyph-name="zero" unicode="0" 
d="M270 715q0 53 1 117.5t10.5 129t27 126t51 107.5t85 74.5t124.5 28.5q74 0 125 -28.5t85 -74.5t51.5 -107.5t26.5 -126t10 -129t1 -117.5q0 -82 -5 -183.5t-32.5 -190.5t-89 -150.5t-172.5 -61.5t-172 61.5t-88.5 150.5t-33 190.5t-5.5 183.5zM86 713q0 -80 4 -166
t20.5 -168t47 -154.5t84 -128t134.5 -87.5t193 -32q115 0 195 32t133 87.5t84 128t47 154.5t20.5 168t4.5 166t-4.5 166t-20.5 167.5t-47 155.5t-84 129t-134 88t-194 33t-193.5 -33t-134 -88t-84 -129t-47 -155.5t-20.5 -167.5t-4 -166z" />
    <glyph glyph-name="one" unicode="1" 
d="M729 0v1452h-133q-14 -82 -53 -135t-95.5 -84t-126 -42t-143.5 -11v-140h377v-1040h174z" />
    <glyph glyph-name="two" unicode="2" 
d="M90 938h174q-2 66 13.5 130.5t50 115.5t89 82.5t130.5 31.5q57 0 108.5 -18t89 -53t60 -83t22.5 -108q0 -76 -23.5 -133t-69.5 -106t-115.5 -97.5t-161.5 -105.5q-76 -45 -145.5 -96.5t-125 -119t-91.5 -158.5t-46 -220h948v154h-745q12 68 52 120t96.5 97t124 85
l134.5 81q68 43 131.5 90t112.5 105.5t79 132t30 169.5q0 102 -36 180t-97.5 130.5t-144.5 80t-177 27.5q-115 0 -205 -39t-150.5 -107.5t-89 -162.5t-22.5 -205z" />
    <glyph glyph-name="three" unicode="3" 
d="M446 829v-147q49 6 105 6q66 0 122 -17.5t97 -53t65.5 -88t24.5 -119.5q0 -66 -25.5 -118t-68.5 -88t-100.5 -55.5t-120.5 -19.5q-150 0 -227.5 89t-81.5 231h-175q-2 -113 32 -201t97.5 -148.5t153.5 -91.5t201 -31q102 0 193 28t159 83t107.5 138t39.5 192
q0 131 -64.5 227t-197.5 125v4q86 39 143.5 115t57.5 174q0 100 -34 174t-93 121t-140 70.5t-175 23.5q-109 0 -192 -35t-138 -96t-85 -147.5t-34 -190.5h174q0 63 16.5 120.5t50.5 100.5t86 68.5t122 25.5q111 0 184.5 -58t73.5 -175q0 -57 -22.5 -102t-60.5 -75t-88 -45.5
t-106 -15.5h-37h-20q-9 0 -19 2z" />
    <glyph glyph-name="four" unicode="4" 
d="M694 494h-487l483 710h4v-710zM858 494v958h-139l-662 -944v-168h637v-340h164v340h197v154h-197z" />
    <glyph glyph-name="five" unicode="5" 
d="M963 1274v153h-717l-135 -753l149 -8q51 61 117.5 99t152.5 38q74 0 134.5 -24.5t103.5 -68.5t66.5 -104.5t23.5 -132.5q0 -86 -24.5 -150.5t-66.5 -107.5t-98.5 -64.5t-117.5 -21.5q-66 0 -120 19.5t-94 55.5t-63.5 84t-27.5 103h-174q2 -98 38.5 -176t100 -130
t146.5 -80t178 -28q127 0 222 40t158.5 108t95 155t31.5 179q0 125 -36.5 218t-100 155.5t-149.5 93t-183 30.5q-74 0 -148.5 -25.5t-121.5 -78.5l-4 4l78 418h586z" />
    <glyph glyph-name="six" unicode="6" 
d="M848 1081h174q-16 180 -122.5 275.5t-287.5 95.5q-156 0 -258 -65.5t-163.5 -174t-87 -249t-25.5 -289.5q0 -115 17.5 -238t70.5 -225t151.5 -168t260.5 -66q137 0 230 46.5t149.5 117t81 156.5t24.5 166q0 100 -31 186t-87 149.5t-139 99.5t-188 36q-119 0 -210 -45
t-152 -146l-4 5q2 84 16.5 180t52 179t105.5 137t178 54q104 0 168 -59.5t76 -157.5zM586 780q74 0 129 -26.5t92 -70.5t54.5 -104.5t17.5 -127.5q0 -63 -19.5 -122t-56.5 -104t-91.5 -70.5t-125.5 -25.5q-72 0 -128.5 25.5t-94 68.5t-58 102.5t-20.5 127.5t19.5 128t58 104
t94 69.5t129.5 25.5z" />
    <glyph glyph-name="seven" unicode="7" 
d="M1042 1278v149h-940v-163h762q-115 -121 -214 -264.5t-175 -304t-124 -336t-60 -359.5h194q10 170 57.5 350t122 350t170.5 319.5t207 258.5z" />
    <glyph glyph-name="eight" unicode="8" 
d="M317 1075q0 55 20.5 96t54.5 70t81 43t98 14q106 0 175 -56t69 -167t-67.5 -172t-172.5 -61q-53 0 -100 14t-82 43t-55.5 73t-20.5 103zM133 1081q0 -98 55.5 -181t147.5 -120q-123 -43 -188.5 -138t-65.5 -224q0 -111 38 -194t104.5 -138t156.5 -82t194 -27
q100 0 188.5 29t153 85t102.5 138t38 189q0 135 -63.5 228t-194.5 134q92 41 146 122t54 179q0 70 -24.5 136.5t-76.5 119t-136 84t-203 31.5q-84 0 -160.5 -24.5t-136 -71.5t-94.5 -116t-35 -159zM266 410q0 63 23.5 114t65.5 88t98.5 56.5t119.5 19.5q61 0 115.5 -21.5
t95.5 -58.5t64.5 -87t23.5 -109q0 -61 -21.5 -112.5t-61 -89.5t-94 -59.5t-120.5 -21.5q-135 0 -222 75t-87 206z" />
    <glyph glyph-name="nine" unicode="9" 
d="M274 350h-174q16 -188 137 -280.5t304 -92.5q264 0 383.5 202t119.5 579q0 207 -39.5 341t-107.5 212t-158 109.5t-192 31.5q-104 0 -192.5 -35t-152 -97.5t-98 -149.5t-34.5 -191q0 -106 29.5 -196.5t88 -154t144.5 -99t196 -35.5q106 0 196.5 54t139.5 146l4 -4
q-8 -285 -88 -423t-239 -138q-104 0 -180.5 57.5t-86.5 163.5zM838 967q0 -63 -20.5 -122t-59.5 -103t-94.5 -69.5t-122.5 -25.5q-63 0 -115.5 25.5t-90.5 68.5t-59.5 98.5t-21.5 114.5q0 68 15.5 129.5t49 109.5t88 76.5t132.5 28.5q74 0 129 -26.5t93 -72.5t57.5 -105
t19.5 -127z" />
    <glyph glyph-name="colon" unicode=":" horiz-adv-x="569" 
d="M397 831v228h-227v-228h227zM170 227v-227h227v227h-227z" />
    <glyph glyph-name="semicolon" unicode=";" horiz-adv-x="569" 
d="M397 831v228h-227v-228h227zM170 227v-227h121q2 -25 -3 -53.5t-19.5 -56t-38 -51t-58.5 -36.5v-102q119 35 173 119t52 200v207h-227z" />
    <glyph glyph-name="less" unicode="&#x3c;" horiz-adv-x="1228" 
d="M1135 913v140l-1041 -471v-127l1041 -469v137l-871 395z" />
    <glyph glyph-name="equal" unicode="=" horiz-adv-x="1228" 
d="M98 381v-139h1032v139h-1032zM1130 655v140h-1032v-140h1032z" />
    <glyph glyph-name="greater" unicode="&#x3e;" horiz-adv-x="1228" 
d="M94 123v-137l1041 469v127l-1041 471v-140l871 -395z" />
    <glyph glyph-name="question" unicode="?" 
d="M446 227v-227h228v227h-228zM113 1006h174q0 72 16 133t52 106t89.5 71.5t126.5 26.5q111 0 175.5 -63t72.5 -176q4 -76 -18.5 -129t-60.5 -97t-82 -84t-83.5 -87.5t-67.5 -107.5t-32 -146v-97h174v80q0 53 15.5 95t41 78t57.5 68l64 62l65 68t56.5 76t40 91t15.5 113
q0 98 -32 174t-89.5 128.5t-136 80t-175.5 27.5q-106 0 -192 -37t-145.5 -103.5t-91 -156.5t-29.5 -194z" />
    <glyph glyph-name="at" unicode="@" horiz-adv-x="1638" 
d="M1094 553l172 582h-129l-47 -129q-35 92 -96.5 130t-133.5 38q-109 0 -198 -51.5t-151 -133.5t-97 -186.5t-35 -210.5q0 -68 21.5 -127t59.5 -102.5t92 -69t120 -25.5q76 0 141.5 42t112.5 96h6q4 -68 41 -101t90 -33q72 0 156 43t155.5 121t119.5 187.5t48 242.5
q0 139 -55 255t-150.5 199t-222.5 130t-268 47q-156 0 -294 -59.5t-241.5 -163t-164 -241.5t-60.5 -296q0 -164 59.5 -304t163 -243.5t243.5 -163t302 -59.5q98 0 192.5 23.5t177.5 69.5t152.5 113t118.5 153h-129q-88 -113 -224 -180.5t-284 -67.5q-129 0 -243.5 50
t-201.5 137t-137.5 206t-50.5 256q0 135 48.5 254t132 209t197.5 142t245 52q109 0 208 -36.5t177 -105t124 -167t46 -219.5q0 -82 -26.5 -166t-67.5 -151.5t-91.5 -110.5t-97.5 -43q-49 0 -49 64q0 23 7.5 50zM860 1034q33 0 62.5 -16.5t53 -42t37 -60t13.5 -71.5
q0 -63 -24.5 -139t-67.5 -142.5t-100.5 -110.5t-124.5 -44q-78 0 -127.5 56t-49.5 142q0 68 25 142.5t68 138t103 105.5t132 42z" />
    <glyph glyph-name="A" unicode="A" horiz-adv-x="1327" 
d="M412 604l247 682h5l243 -682h-495zM557 1462l-569 -1462h198l164 440h619l159 -440h215l-571 1462h-215z" />
    <glyph glyph-name="B" unicode="B" horiz-adv-x="1402" 
d="M354 834v464h389q63 0 120 -7t100 -31.5t67.5 -69.5t24.5 -123q0 -117 -73 -175t-239 -58h-389zM160 1462v-1462h706q109 0 192 36t139 94t85 134t29 156q0 135 -72 229t-207 123v4q104 41 160.5 126t56.5 202q0 111 -50 186.5t-122 118.5q-33 20 -79 30.5t-99 15.5
t-107.5 6t-101.5 1h-530zM354 164v506h445q61 0 118.5 -11.5t101.5 -39t70.5 -74.5t26.5 -119q0 -123 -72.5 -192.5t-201.5 -69.5h-488z" />
    <glyph glyph-name="C" unicode="C" horiz-adv-x="1478" 
d="M1188 1022h194q-16 117 -69 206t-133 148.5t-182.5 90t-217.5 30.5q-168 0 -298 -60.5t-217 -165t-132 -244.5t-45 -300t42 -299t126 -241.5t211 -161t297 -58.5q281 0 442.5 153.5t190.5 430.5h-195q-6 -90 -36.5 -168t-85 -134t-129 -88t-171.5 -32q-131 0 -225 49
t-154.5 132t-89 194.5t-28.5 236.5q0 115 28.5 221.5t89 189.5t153.5 132t224 49q154 0 265.5 -77.5t144.5 -233.5z" />
    <glyph glyph-name="D" unicode="D" horiz-adv-x="1441" 
d="M354 164v1134h328q135 0 227 -37.5t150.5 -110.5t84 -176.5t25.5 -234.5q0 -135 -27.5 -230t-70.5 -158.5t-97 -100.5t-109.5 -56.5t-104.5 -24.5t-82 -5h-324zM160 1462v-1462h502q182 0 315 51t219 148.5t127 240t41 326.5q0 352 -182.5 524t-519.5 172h-502z" />
    <glyph glyph-name="E" unicode="E" horiz-adv-x="1251" 
d="M160 1462v-1462h1016v164h-822v506h760v164h-760v464h815v164h-1009z" />
    <glyph glyph-name="F" unicode="F" horiz-adv-x="1175" 
d="M160 1462v-1462h194v670h672v164h-672v464h766v164h-960z" />
    <glyph glyph-name="G" unicode="G" horiz-adv-x="1554" 
d="M1253 182l52 -182h122v770h-641v-164h467q4 -100 -26.5 -187t-91 -151.5t-148.5 -101.5t-203 -37q-123 0 -216 48t-156.5 129t-96 186.5t-32.5 220.5q0 117 28.5 228.5t89 198.5t155.5 140t228 53q82 0 155 -19.5t130 -58t96 -99t54 -144.5h194q-20 129 -76.5 220
t-139.5 150.5t-188.5 87t-224.5 27.5q-174 0 -304 -64.5t-217 -173t-131 -253t-44 -304.5q0 -143 47 -276t137 -235.5t219.5 -163t292.5 -60.5q129 0 256 50t213 165z" />
    <glyph glyph-name="H" unicode="H" horiz-adv-x="1478" 
d="M160 1462v-1462h194v670h770v-670h195v1462h-195v-628h-770v628h-194z" />
    <glyph glyph-name="I" unicode="I" horiz-adv-x="530" 
d="M168 1462v-1462h194v1462h-194z" />
    <glyph glyph-name="J" unicode="J" horiz-adv-x="1062" 
d="M903 365v1097h-194v-1069q0 -121 -50.5 -192.5t-183.5 -71.5q-72 0 -118 21.5t-71.5 60.5t-35.5 92t-10 117v61h-195v-90q0 -209 110.5 -316.5t315.5 -107.5q123 0 206 34t133 90t71.5 128t21.5 146z" />
    <glyph glyph-name="K" unicode="K" horiz-adv-x="1366" 
d="M160 1462v-1462h194v512l244 227l528 -739h246l-641 872l617 590h-252l-742 -729v729h-194z" />
    <glyph glyph-name="L" unicode="L" 
d="M160 1462v-1462h968v164h-774v1298h-194z" />
    <glyph glyph-name="M" unicode="M" horiz-adv-x="1783" 
d="M164 1462v-1462h184v1217h4l457 -1217h166l457 1217h4v-1217h184v1462h-266l-463 -1229l-461 1229h-266z" />
    <glyph glyph-name="N" unicode="N" horiz-adv-x="1478" 
d="M158 1462v-1462h184v1174h4l764 -1174h213v1462h-184v-1186h-4l-770 1186h-207z" />
    <glyph glyph-name="O" unicode="O" horiz-adv-x="1556" 
d="M272 731q0 111 29 218.5t90.5 193.5t157.5 138t229 52t229.5 -52t158 -138t90 -193.5t28.5 -218.5t-28.5 -218t-90 -193.5t-158 -138.5t-229.5 -52t-229 52t-157.5 138.5t-90.5 193.5t-29 218zM78 731q0 -150 44 -288t132 -244.5t219 -169t305 -62.5t305 62.5t219.5 169
t132.5 245t44 287.5q0 150 -44 288t-132.5 244.5t-219.5 170t-305 63.5t-305 -63.5t-219 -170t-132 -244.5t-44 -288z" />
    <glyph glyph-name="P" unicode="P" horiz-adv-x="1327" 
d="M354 762v536h381q166 0 243 -68.5t77 -199.5t-77 -200.5t-243 -67.5h-381zM160 1462v-1462h194v598h447q221 -2 334.5 112.5t113.5 319.5t-113.5 318.5t-334.5 113.5h-641z" />
    <glyph glyph-name="Q" unicode="Q" horiz-adv-x="1556" 
d="M922 418l-103 -119l162 -129q-98 -41 -203 -41q-133 0 -229 52t-157.5 138.5t-90.5 194t-29 217.5q0 111 29 218.5t90.5 193.5t157.5 138t229 52t229.5 -52t158 -138t90 -193.5t28.5 -218.5q0 -135 -41 -259t-127 -210zM1352 -125l98 123l-193 152q111 111 166.5 262
t55.5 319q0 150 -44 288t-132.5 244.5t-219.5 170t-305 63.5t-305 -63.5t-219 -170t-132 -244.5t-44 -288t44 -288t132 -244.5t219 -169t305 -62.5q203 0 350 86z" />
    <glyph glyph-name="R" unicode="R" horiz-adv-x="1402" 
d="M160 1462v-1462h194v625h475q72 0 115 -21.5t69.5 -57.5t39 -84t20.5 -102q10 -53 12 -108t4.5 -103.5t9.5 -87t27 -61.5h217q-31 37 -46 85t-23 101.5t-10 108.5t-7 108q-6 53 -17 102.5t-34.5 89.5t-63.5 68.5t-104 41.5v4q133 37 193.5 137t60.5 233
q0 178 -117.5 280.5t-326.5 102.5h-688zM760 788h-406v510h484q137 0 198.5 -69.5t61.5 -179.5q0 -80 -28 -130.5t-74 -80t-107 -40t-129 -10.5z" />
    <glyph glyph-name="S" unicode="S" horiz-adv-x="1327" 
d="M1006 1034h184q-4 121 -46 208t-115 144.5t-169 84t-209 26.5q-100 0 -195.5 -25.5t-170 -78t-119.5 -133t-45 -191.5q0 -100 40 -166.5t106.5 -108.5t150.5 -68t171 -45l171 -37.5t150.5 -48.5t106.5 -77t40 -123q0 -80 -33 -131t-86 -80.5t-119.5 -42t-132.5 -12.5
q-82 0 -159.5 20.5t-136 63.5t-94.5 109.5t-36 158.5h-184q0 -133 48 -230t131 -159.5t192.5 -93.5t232.5 -31q100 0 201.5 23.5t183.5 76t134 135.5t52 199q0 109 -40 180.5t-106.5 119t-150.5 75t-171 48t-171 38t-150.5 44t-106.5 68.5t-40 109q0 72 28 120t74 77
t105.5 41t120.5 12q152 0 249.5 -70.5t113.5 -228.5z" />
    <glyph glyph-name="T" unicode="T" horiz-adv-x="1175" 
d="M492 1298v-1298h194v1298h488v164h-1170v-164h488z" />
    <glyph glyph-name="U" unicode="U" horiz-adv-x="1478" 
d="M1327 528v934h-194v-934q0 -197 -97.5 -298t-283.5 -101q-197 0 -301.5 101.5t-104.5 297.5v934h-194v-934q0 -293 158.5 -427t441.5 -134q276 0 425.5 140t149.5 421z" />
    <glyph glyph-name="V" unicode="V" horiz-adv-x="1251" 
d="M735 0l520 1462h-202l-422 -1267h-4l-418 1267h-209l514 -1462h221z" />
    <glyph glyph-name="W" unicode="W" horiz-adv-x="1896" 
d="M1481 0l391 1462h-195l-297 -1216h-4l-323 1216h-211l-328 -1216h-4l-287 1216h-198l374 -1462h203l338 1229h4l334 -1229h203z" />
    <glyph glyph-name="X" unicode="X" horiz-adv-x="1251" 
d="M508 752l-508 -752h217l406 604l393 -604h237l-514 752l484 710h-217l-381 -571l-365 571h-233z" />
    <glyph glyph-name="Y" unicode="Y" horiz-adv-x="1327" 
d="M764 598l559 864h-221l-428 -696l-438 696h-232l565 -864v-598h195v598z" />
    <glyph glyph-name="Z" unicode="Z" horiz-adv-x="1251" 
d="M45 164v-164h1163v164h-932l908 1134v164h-1069v-164h839z" />
    <glyph glyph-name="bracketleft" unicode="[" horiz-adv-x="530" 
d="M530 1358v139h-383v-1900h383v139h-219v1622h219z" />
    <glyph glyph-name="backslash" unicode="\" horiz-adv-x="681" 
d="M719 -33l-606 1530h-148l604 -1530h150z" />
    <glyph glyph-name="backslash" unicode="&#x29f5;" horiz-adv-x="681" 
d="M719 -33l-606 1530h-148l604 -1530h150z" />
    <glyph glyph-name="bracketright" unicode="]" horiz-adv-x="530" 
d="M0 -264v-139h383v1900h-383v-139h219v-1622h-219z" />
    <glyph glyph-name="asciicircum" unicode="^" horiz-adv-x="1228" 
d="M549 1427l-447 -886h146l364 737l371 -737h143l-446 886h-131z" />
    <glyph glyph-name="underscore" unicode="_" horiz-adv-x="1024" 
d="M0 -152v-102h1024v102h-1024z" />
    <glyph glyph-name="grave" unicode="`" horiz-adv-x="454" 
d="M-45 1497l266 -293h131l-176 293h-221z" />
    <glyph glyph-name="a" unicode="a" horiz-adv-x="1099" 
d="M1069 4v135q-31 -10 -53 -10q-41 0 -48 28.5t-7 90.5v545q0 92 -35 149t-92.5 89t-128 42t-142.5 10q-88 0 -168 -18t-141 -60t-98 -110t-41 -166h174q6 117 79.5 159t184.5 42q41 0 83 -6t75.5 -24.5t55 -53.5t21.5 -92q0 -49 -28.5 -75t-77.5 -39t-113.5 -20.5
t-136.5 -21.5q-68 -12 -132 -30.5t-114.5 -54.5t-81 -93.5t-30.5 -147.5q0 -80 27.5 -136t75.5 -92t111.5 -51.5t135.5 -15.5q111 0 206 38t167 124q0 -86 40 -124t107 -38q80 0 125 27zM786 547v-178q0 -37 -18 -79t-57 -78t-100.5 -59.5t-147.5 -23.5q-39 0 -77 8
t-65.5 26.5t-45 48.5t-17.5 73q0 66 29.5 103.5t77 58t106.5 29.5t117.5 16.5t111.5 18.5t86 36z" />
    <glyph glyph-name="b" unicode="b" horiz-adv-x="1214" 
d="M137 1462v-1462h174v141h4q29 -47 71 -78.5t89 -50t95 -27t87 -8.5q121 0 212.5 43t151.5 118t90 175.5t30 212.5q0 113 -31 213.5t-91.5 177t-151.5 121.5t-214 45q-111 0 -203 -39.5t-135 -128.5h-4v547h-174zM956 539q0 -78 -16 -152t-53 -131t-97.5 -92t-150.5 -35
t-153.5 34t-103.5 89t-58.5 128t-18.5 150q0 74 17.5 146t56.5 128t100.5 91t149.5 35q84 0 146.5 -33t102.5 -88t59 -125.5t19 -144.5z" />
    <glyph glyph-name="c" unicode="c" horiz-adv-x="1099" 
d="M850 719h180q-10 94 -49 162.5t-99.5 113.5t-139 66.5t-169.5 21.5q-125 0 -219 -44t-156.5 -120.5t-93 -180t-30.5 -222.5t31.5 -218t94 -171t156 -111t213.5 -39q203 0 321 106.5t146 303.5h-178q-16 -123 -89 -190.5t-202 -67.5q-82 0 -141 33t-96 87t-54.5 123.5
t-17.5 143.5q0 80 16.5 154.5t54.5 132t101.5 92.5t157.5 35q111 0 176.5 -55.5t85.5 -155.5z" />
    <glyph glyph-name="d" unicode="d" horiz-adv-x="1214" 
d="M258 520q0 78 16.5 151.5t53.5 131t98 92.5t149 35q90 0 154 -34t103.5 -89t58 -128t18.5 -151q0 -74 -17.5 -145.5t-56 -127.5t-100 -91t-149.5 -35q-84 0 -146.5 33t-102.5 88t-59.5 125.5t-19.5 144.5zM1077 0v1462h-174v-544h-4q-29 47 -71 78.5t-89 51t-94 27.5
t-88 8q-121 0 -212 -44t-151.5 -118.5t-90 -175t-29.5 -213.5t30.5 -213t91 -175.5t151.5 -121t214 -45.5q111 0 203 39t135 127h4v-143h174z" />
    <glyph glyph-name="e" unicode="e" horiz-adv-x="1099" 
d="M866 631h-608q4 61 26.5 115.5t61.5 95.5t93.5 64.5t121.5 23.5q66 0 120 -23.5t94 -63.5t63.5 -95.5t27.5 -116.5zM1034 336h-172q-23 -104 -93.5 -155.5t-180.5 -51.5q-86 0 -149.5 28.5t-104.5 77t-59.5 111t-16.5 131.5h793q4 96 -17.5 202.5t-78 197t-149.5 148.5
t-235 58q-109 0 -199.5 -41t-157.5 -114.5t-103.5 -174t-36.5 -221.5q4 -121 35.5 -223t95 -176t157 -115t220.5 -41q180 0 298.5 90.5t153.5 268.5z" />
    <glyph glyph-name="f" unicode="f" horiz-adv-x="606" 
d="M203 905v-905h174v905h205v154h-205v147q0 70 34.5 94.5t98.5 24.5q23 0 49.5 -3t48.5 -11v151q-25 8 -56.5 12.5t-55.5 4.5q-143 0 -218 -66.5t-75 -195.5v-158h-178v-154h178z" />
    <glyph glyph-name="g" unicode="g" horiz-adv-x="1175" 
d="M1044 90v969h-163v-152h-2q-47 88 -131 132t-185 44q-137 0 -231 -52t-151.5 -133t-82 -180.5t-24.5 -193.5q0 -109 29.5 -206t89 -169.5t147.5 -115.5t207 -43q102 0 193 46t137 144h4v-69q0 -88 -17.5 -162t-56.5 -126t-98.5 -82t-145.5 -30q-43 0 -90 9.5t-87 30
t-67.5 53t-29.5 79.5h-174q4 -86 45 -145.5t103.5 -96t139 -53t150.5 -16.5q254 0 372.5 129t118.5 389zM557 141q-86 0 -143.5 36t-92 94.5t-49 130t-14.5 143.5q0 76 17.5 145.5t55.5 122.5t97 85t143 32q82 0 139.5 -33t93.5 -87t52 -121.5t16 -137.5q0 -74 -17 -147.5
t-54 -132t-97.5 -94.5t-146.5 -36z" />
    <glyph glyph-name="h" unicode="h" 
d="M131 1462v-1462h174v598q0 72 19.5 132.5t58.5 105.5t97.5 69.5t137.5 24.5q100 0 158 -57.5t58 -155.5v-717h174v696q0 86 -17.5 157t-60.5 122t-112.5 79.5t-174.5 28.5q-47 0 -97 -10t-96.5 -31.5t-83 -55.5t-57.5 -83h-4v559h-174z" />
    <glyph glyph-name="i" unicode="i" horiz-adv-x="454" 
d="M315 1249v213h-174v-213h174zM141 1059v-1059h174v1059h-174z" />
    <glyph glyph-name="j" unicode="j" horiz-adv-x="454" 
d="M315 1249v213h-174v-213h174zM315 -133v1192h-174v-1163q0 -82 -20.5 -114t-77.5 -32h-37q-8 0 -15 1t-18 3v-149q41 -8 88 -8q117 0 185.5 64.5t68.5 205.5z" />
    <glyph glyph-name="k" unicode="k" horiz-adv-x="1062" 
d="M141 1462v-1462h174v401l164 152l363 -553h221l-451 674l420 385h-233l-484 -463v866h-174z" />
    <glyph glyph-name="l" unicode="l" horiz-adv-x="454" 
d="M141 1462v-1462h174v1462h-174z" />
    <glyph glyph-name="m" unicode="m" horiz-adv-x="1746" 
d="M131 1059v-1059h174v659q0 31 15.5 77t49 89t88 74t130.5 31q59 0 97 -17.5t60.5 -49.5t31.5 -75t9 -94v-694h175v659q0 123 73.5 197t202.5 74q63 0 103 -18.5t62.5 -50.5t31 -75t8.5 -92v-694h174v776q0 82 -25.5 140.5t-71.5 95.5t-111 54t-144 17q-104 0 -191.5 -47
t-140.5 -133q-33 98 -113 139t-178 41q-223 0 -342 -180h-4v156h-164z" />
    <glyph glyph-name="n" unicode="n" 
d="M131 1059v-1059h174v598q0 72 19.5 132.5t58.5 105.5t97.5 69.5t137.5 24.5q100 0 158 -57.5t58 -155.5v-717h174v696q0 86 -17.5 157t-60.5 122t-112.5 79.5t-174.5 28.5q-236 0 -344 -192h-4v168h-164z" />
    <glyph glyph-name="o" unicode="o" horiz-adv-x="1175" 
d="M258 528q0 96 25.5 171t70.5 126.5t105.5 78t128.5 26.5t128 -26.5t105 -78t71 -126t26 -171.5q0 -96 -26 -170.5t-71 -125t-105.5 -77t-127.5 -26.5q-68 0 -128.5 26.5t-105.5 77t-70.5 125t-25.5 170.5zM74 528q0 -117 32.5 -217t98 -175t162 -117t221.5 -42
q127 0 222 42t160.5 117t98.5 175.5t33 216.5q0 117 -33 218.5t-98.5 176t-160.5 117.5t-222 43q-125 0 -221.5 -43t-162 -117.5t-98 -176t-32.5 -218.5z" />
    <glyph glyph-name="p" unicode="p" horiz-adv-x="1214" 
d="M137 1059v-1462h174v544h4q29 -47 71 -78.5t89 -50t95 -27t87 -8.5q121 0 212.5 43t151.5 118t90 175.5t30 212.5q0 113 -31 213.5t-91.5 177t-151.5 121.5t-214 45q-111 0 -203 -39.5t-135 -128.5h-4v144h-174zM956 539q0 -78 -16 -152t-53 -131t-97.5 -92t-150.5 -35
t-153.5 34t-103.5 89t-58.5 128t-18.5 150q0 74 17.5 146t56.5 128t100.5 91t149.5 35q84 0 146.5 -33t102.5 -88t59 -125.5t19 -144.5z" />
    <glyph glyph-name="q" unicode="q" horiz-adv-x="1214" 
d="M258 520q0 78 16.5 151.5t53.5 131t98 92.5t149 35q90 0 154 -34t103.5 -89t58 -128t18.5 -151q0 -74 -17.5 -145.5t-56 -127.5t-100 -91t-149.5 -35q-84 0 -146.5 33t-102.5 88t-59.5 125.5t-19.5 144.5zM1077 -403v1462h-174v-141h-4q-29 47 -71 78.5t-89 51t-94 27.5
t-88 8q-121 0 -212 -44t-151.5 -118.5t-90 -175t-29.5 -213.5t30.5 -213t91 -175.5t151.5 -121t214 -45.5q111 0 203 39t135 127h4v-546h174z" />
    <glyph glyph-name="r" unicode="r" horiz-adv-x="681" 
d="M125 1059v-1059h174v471q0 102 20.5 181t65.5 134.5t119 84t178 28.5v184q-141 4 -233.5 -57t-155.5 -190h-4v223h-164z" />
    <glyph glyph-name="s" unicode="s" horiz-adv-x="1024" 
d="M238 334h-175q4 -98 41 -167t98.5 -111t141.5 -60.5t168 -18.5q80 0 161 15.5t145.5 54.5t104.5 102.5t40 159.5q0 76 -30 127t-78 85t-110.5 54.5t-128.5 34.5l-122.5 27.5t-110.5 33t-81 49.5t-32 75q0 41 20.5 66.5t53.5 41t73 21.5t79 6q43 0 85 -9.5t76.5 -30
t57 -54t26.5 -84.5h174q-6 96 -40.5 160.5t-93 102.5t-134.5 53t-166 15q-70 0 -140.5 -17t-126.5 -53t-92 -93.5t-36 -137.5q0 -102 51 -159.5t128 -89t167 -49t167 -39t128 -56.5t51 -102q0 -49 -24.5 -81t-62.5 -48.5t-83 -22.5t-86 -6q-53 0 -103 10.5t-90 34
t-64.5 63.5t-26.5 97z" />
    <glyph glyph-name="t" unicode="t" horiz-adv-x="645" 
d="M373 1059v317h-174v-317h-181v-154h181v-674q0 -74 14 -118.5t44 -69.5t78 -34t116 -9h133v154h-80q-41 0 -66.5 3t-40 13t-19.5 28.5t-5 49.5v657h211v154h-211z" />
    <glyph glyph-name="u" unicode="u" 
d="M1008 0v1059h-174v-598q0 -72 -19.5 -132.5t-58.5 -105.5t-97.5 -69.5t-138.5 -24.5q-100 0 -157.5 57.5t-57.5 155.5v717h-174v-697q0 -86 17.5 -156.5t60.5 -121.5t112.5 -79t174.5 -28q117 0 202.5 46.5t141.5 144.5h4v-168h164z" />
    <glyph glyph-name="v" unicode="v" horiz-adv-x="1024" 
d="M608 0l387 1059h-182l-289 -883h-4l-297 883h-194l393 -1059h186z" />
    <glyph glyph-name="w" unicode="w" horiz-adv-x="1552" 
d="M1180 0l338 1059h-181l-237 -866h-4l-222 866h-190l-213 -866h-4l-240 866h-192l340 -1059h188l213 842h4l215 -842h185z" />
    <glyph glyph-name="x" unicode="x" horiz-adv-x="1060" 
d="M416 557l-398 -557h211l295 438l295 -438h223l-409 571l364 488h-209l-264 -371l-254 371h-223z" />
    <glyph glyph-name="y" unicode="y" horiz-adv-x="1024" 
d="M547 -139l461 1198h-185l-297 -866h-4l-309 866h-197l420 -1053l-71 -178q-25 -47 -58 -71.5t-86 -24.5q-27 0 -52.5 8l-49.5 16v-159q29 -10 59.5 -14.5t61.5 -4.5q59 0 102 15.5t79 49t65.5 87t60.5 131.5z" />
    <glyph glyph-name="z" unicode="z" horiz-adv-x="983" 
d="M45 133v-133h893v154h-676l647 786v119h-823v-154h598z" />
    <glyph glyph-name="braceleft" unicode="{" horiz-adv-x="681" 
d="M633 1374v123h-144q-39 0 -77.5 -17.5t-70.5 -51t-52.5 -84t-20.5 -115.5v-373q0 -53 -14 -98t-37.5 -77t-54.5 -49.5t-64 -17.5v-139q33 0 64 -16.5t54.5 -47t37.5 -75.5t14 -100v-371q0 -66 20.5 -116t52.5 -84t71 -51t77 -17h144v122h-103q-31 0 -49 15.5t-29.5 41
t-15.5 57.5t-4 63v372q0 78 -21.5 129.5t-50 83t-58.5 46t-48 16.5v6q18 4 48 20.5t58.5 49t50 83t21.5 121.5v375q0 33 4 64.5t15.5 56t30 40t48.5 15.5h103z" />
    <glyph glyph-name="bar" unicode="|" horiz-adv-x="454" 
d="M158 1610v-2046h139v2046h-139z" />
    <glyph glyph-name="braceright" unicode="}" horiz-adv-x="681" 
d="M49 -281v-122h144q39 0 77.5 17t70.5 51t52.5 84t20.5 116v371q0 53 14 97t37.5 75.5t54.5 49t64 17.5v139q-33 0 -64 16.5t-54.5 48.5t-37.5 77t-14 100v373q0 66 -20.5 116t-52.5 83.5t-71 51t-77 17.5h-144v-123h103q31 0 49 -15.5t29.5 -41t15.5 -57t4 -66.5v-371
q0 -78 21.5 -129t50 -82.5t58.5 -46t48 -16.5v-6q-18 -4 -48 -20.5t-58.5 -49.5t-50 -83t-21.5 -122v-372q0 -33 -4 -65t-15.5 -56.5t-30 -40t-48.5 -15.5h-103z" />
    <glyph glyph-name="asciitilde" unicode="~" horiz-adv-x="1228" 
d="M1087 551l-73 102l-37 -54.5t-40.5 -50t-47 -36.5t-55.5 -14q-41 0 -96.5 28.5t-112.5 53.5q-59 27 -116.5 46t-111.5 19q-51 0 -91 -15.5t-71.5 -40t-54 -56t-39.5 -64.5l74 -102q12 27 27.5 54.5t37 50t48 36.5t59.5 14q72 0 129 -25.5t107 -54.5q51 -29 101 -48
t107 -19q47 0 85 15.5t69 40t55 56z" />
    <glyph glyph-name="nonbreakingspace" unicode="&#xa0;" horiz-adv-x="569" 
 />
    <glyph glyph-name="exclamdown" unicode="&#xa1;" horiz-adv-x="530" 
d="M379 831v228h-227v-228h227zM168 45v-448h194v448l-51 637h-92z" />
    <glyph glyph-name="cent" unicode="&#xa2;" 
d="M557 -23v-213h80v213q96 0 171 35t128 93.5t84 132t39 149.5h-174q-16 -104 -76.5 -176t-171.5 -82v801q98 -4 157.5 -60.5t79.5 -150.5h179q-12 92 -47 160.5t-89.5 112.5t-125 66.5t-154.5 24.5v195h-80v-195q-115 -8 -202 -56t-145 -125t-87 -176t-29 -210
q0 -113 31 -210t89 -168.5t144 -114t199 -46.5zM557 930v-801q-74 6 -127 41t-87 88t-49 120.5t-15 137.5q0 76 14 146.5t46 127t85 93.5t133 47z" />
    <glyph glyph-name="sterling" unicode="&#xa3;" 
d="M215 762q-41 70 -68.5 145.5t-27.5 173.5t38 175t102.5 130.5t148.5 82t178 28.5q227 0 357 -132t126 -396h-174q-4 180 -78 277t-221 97q-61 0 -114.5 -20t-93.5 -56t-62.5 -85t-22.5 -107q0 -49 10.5 -91t25.5 -79t33.5 -71.5l37.5 -71.5h325v-92h-280q16 -33 28.5 -72
t12.5 -82q0 -70 -20.5 -124t-53.5 -100t-76 -85t-88 -76l4 -4q53 23 103.5 41t111.5 18q59 0 106.5 -10t88.5 -20l83 -24.5t89 -12.5q49 0 97 23.5t85 52.5l88 -136q-61 -53 -140 -72.5t-159 -19.5q-51 0 -100 12.5l-103 26.5q-51 16 -103 29.5t-112 13.5q-59 0 -108 -19.5
t-96 -49.5l-97 133q43 29 84 67.5t73 85.5t50.5 100.5t18.5 112.5q0 47 -16.5 98.5t-35.5 92.5h-174v92h119z" />
    <glyph glyph-name="currency" unicode="&#xa4;" 
d="M575 1073q72 0 132.5 -28.5t104.5 -76.5t69.5 -112.5t25.5 -136.5q0 -74 -25.5 -139.5t-69.5 -113.5t-105.5 -77t-133.5 -29t-134 28t-108 75t-73 112.5t-27 139.5q0 76 27 141.5t73 113.5t108 75.5t136 27.5zM152 1237l-101 -100l117 -119q-57 -57 -84 -137t-27 -166
t28 -162t79 -137l-113 -119l99 -98l112 118q61 -55 140 -82.5t171 -27.5q86 0 165 28.5t139 83.5l114 -118l96 96l-112 115q53 63 79.5 142t26.5 165t-26.5 166t-79.5 137l112 113l-102 104l-117 -115q-55 47 -133 75t-160 28q-86 0 -167.5 -28t-141.5 -77z" />
    <glyph glyph-name="yen" unicode="&#xa5;" 
d="M475 356v-356h195v356h295v123h-295v86l37 68h258v123h-191l365 706h-213l-346 -723l-357 723h-223l375 -706h-189v-123h252l37 -68v-86h-289v-123h289z" />
    <glyph glyph-name="brokenbar" unicode="&#xa6;" horiz-adv-x="454" 
d="M297 842v512h-139v-512h139zM158 330v-510h139v510h-139z" />
    <glyph glyph-name="section" unicode="&#xa7;" 
d="M778 1118h174q-4 193 -106.5 286t-270.5 93q-70 0 -138 -21.5t-121.5 -64.5t-86 -104.5t-32.5 -141.5q0 -66 24.5 -118t69.5 -99q-45 -12 -85 -39.5t-70 -65.5t-47 -84t-17 -93q0 -84 30.5 -147.5t80.5 -115t114.5 -91.5t130.5 -74l131.5 -72t113.5 -72t80.5 -80
t30.5 -94q0 -43 -18 -74.5t-47 -53t-67 -32t-74 -10.5q-104 0 -168 64.5t-66 169.5h-174q12 -180 119.5 -283.5t292.5 -103.5q84 0 153.5 23.5t120.5 66.5t80 103t29 134q0 154 -121 244q92 37 152.5 118t60.5 183q0 76 -30 134.5t-77 105.5t-108.5 84.5t-125 72.5l-125 68
t-109.5 68.5t-76.5 75.5t-28.5 89q0 92 56 134t138 42q98 0 151.5 -65.5t55.5 -159.5zM389 860q70 -47 140.5 -89l142.5 -85l70.5 -44t70.5 -53.5t54.5 -65.5t21.5 -79q0 -70 -44 -117.5t-104 -72.5q-70 47 -141.5 89l-144.5 81l-76 46.5t-69.5 52t-50 65.5t-19.5 86
q0 66 45 116t104 70z" />
    <glyph glyph-name="dieresis" unicode="&#xa8;" horiz-adv-x="454" 
d="M-55 1425v-213h182v213h-182zM328 1425v-213h184v213h-184z" />
    <glyph glyph-name="copyright" unicode="&#xa9;" horiz-adv-x="1638" 
d="M1227 584h-131q-14 -92 -80 -150.5t-170 -58.5q-74 0 -132.5 29.5t-99.5 78.5t-62.5 115t-21.5 137q0 74 20.5 137.5t59.5 111.5t97.5 74.5t134.5 26.5q104 0 170.5 -56t83.5 -142h129q-25 154 -131.5 232.5t-253.5 78.5q-104 0 -188.5 -35t-141.5 -96t-88 -147t-31 -189
q0 -100 32 -186t91 -148.5t143 -98.5t189 -36q141 0 244.5 86t136.5 236zM188 735q0 137 48.5 256t133.5 206t200.5 137t250.5 50q133 0 248 -50t200 -137t133 -206t48 -256q0 -141 -48 -261t-133 -208t-200 -138t-248 -50q-135 0 -250.5 50t-200.5 138t-133.5 208
t-48.5 261zM49 735q0 -166 61.5 -306t167 -243.5t246 -161t297.5 -57.5q158 0 297 57.5t243.5 161t166 243.5t61.5 306q0 162 -61.5 301.5t-166 241.5t-243.5 160.5t-297 58.5t-298 -58.5t-245.5 -160.5t-167 -241.5t-61.5 -301.5z" />
    <glyph glyph-name="ordfeminine" unicode="&#xaa;" horiz-adv-x="774" 
d="M317 881q-51 0 -89 15t-38 69q0 53 38 74.5t94 31.5q57 10 114.5 18.5t89.5 28.5v-96q0 -23 -11 -48.5t-35.5 -46t-65 -33.5t-97.5 -13zM649 946v328q0 55 -24.5 90t-62.5 54.5t-85 26.5t-94 7q-57 0 -111.5 -11t-95.5 -38t-66.5 -68t-27.5 -100h123q4 66 50 90.5
t120 24.5q29 0 57.5 -3.5t51 -13.5t35.5 -29.5t13 -54.5q0 -20 -10 -33.5t-35.5 -22.5t-71.5 -15.5t-118 -14.5q-45 -4 -89 -16t-79 -36t-56.5 -60.5t-21.5 -89.5q0 -47 19.5 -82t52.5 -57.5t76 -33t92 -10.5q152 0 239 94q6 -94 105 -94q27 0 47 4t41 13v90q-12 -4 -23 -4
h-22q-16 0 -22.5 14t-6.5 51z" />
    <glyph glyph-name="guillemotleft" unicode="&#xab;" horiz-adv-x="948" 
d="M102 479l312 -246v177l-205 159l205 160v176l-312 -246v-180zM504 479l311 -246v177l-205 159l205 160v176l-311 -246v-180z" />
    <glyph glyph-name="logicalnot" unicode="&#xac;" horiz-adv-x="1228" 
d="M1130 223v572h-1032v-140h893v-432h139z" />
    <glyph glyph-name="uni00AD" unicode="&#xad;" horiz-adv-x="796" 
d="M102 651h592v-164h-592v164z" />
    <glyph glyph-name="registered" unicode="&#xae;" horiz-adv-x="1638" 
d="M662 782v285h184q35 0 70.5 -5t63.5 -19.5t45 -41t17 -71.5q0 -53 -19 -83t-52 -44.5t-75 -17.5t-89 -3h-145zM522 1180v-895h140v385h147l244 -385h149l-256 395q100 10 168 66.5t68 177.5q0 129 -77 192.5t-237 63.5h-346zM188 735q0 137 48.5 256t133.5 206t200.5 137
t250.5 50q133 0 248 -50t200 -137t133 -206t48 -256q0 -141 -48 -261t-133 -208t-200 -138t-248 -50q-135 0 -250.5 50t-200.5 138t-133.5 208t-48.5 261zM49 735q0 -166 61.5 -306t167 -243.5t246 -161t297.5 -57.5q158 0 297 57.5t243.5 161t166 243.5t61.5 306
q0 162 -61.5 301.5t-166 241.5t-243.5 160.5t-297 58.5t-298 -58.5t-245.5 -160.5t-167 -241.5t-61.5 -301.5z" />
    <glyph glyph-name="macron" unicode="&#xaf;" horiz-adv-x="454" 
d="M-119 1382v-112h697v112h-697z" />
    <glyph glyph-name="degree" unicode="&#xb0;" horiz-adv-x="819" 
d="M217 1157q0 37 13.5 71t38 61.5t60.5 44t81 16.5t80.5 -16.5t60 -44t38 -61.5t13.5 -71t-13.5 -70.5t-38 -61.5t-60 -44t-80.5 -16t-81 16t-60.5 44t-38 61.5t-13.5 70.5zM115 1157q0 -61 22.5 -115.5t62.5 -94.5t94 -62.5t116 -22.5q61 0 114.5 22.5t93 62.5t63.5 94.5
t24 115.5t-24 114.5t-63.5 93.5t-93 63.5t-114.5 23.5t-115.5 -23.5t-94.5 -63.5t-62.5 -93.5t-22.5 -114.5z" />
    <glyph glyph-name="plusminus" unicode="&#xb1;" horiz-adv-x="1228" 
d="M98 139v-139h1032v139h-1032zM98 694v-139h447v-342h139v342h446v139h-446v340h-139v-340h-447z" />
    <glyph glyph-name="twosuperior" unicode="&#xb2;" horiz-adv-x="681" 
d="M45 1137h139q0 80 38 141t130 61q72 0 121 -38.5t49 -104.5q0 -45 -14 -80t-44 -64.5t-75 -58l-104 -63.5q-49 -29 -94.5 -59.5t-80 -70.5t-56 -94.5t-25.5 -132.5h620v113h-481q8 33 33.5 59.5t61.5 51t80 49t87 51.5q43 25 85 53.5t74 63.5t52.5 79t20.5 101
q0 61 -24 109.5t-66 81t-97 50t-117 17.5q-143 0 -228 -87t-85 -228z" />
    <glyph glyph-name="threesuperior" unicode="&#xb3;" horiz-adv-x="681" 
d="M270 1079v-102h68q37 0 70.5 -8t60.5 -27.5t43 -49.5t16 -73q0 -70 -57 -108.5t-135 -38.5q-184 0 -189 176h-139q0 -72 25.5 -126t69.5 -90t104.5 -54.5t128.5 -18.5q66 0 125 16.5t105 49t74 83t28 117.5q0 78 -43 135.5t-136 73.5v4q57 23 98.5 69t41.5 105
t-22.5 104.5t-62.5 75t-94.5 45t-117.5 15.5q-137 0 -216 -77t-87 -212h139q0 76 39 126t125 50q68 0 112.5 -32.5t44.5 -94.5q0 -72 -51 -102.5t-119 -30.5h-49z" />
    <glyph glyph-name="acute" unicode="&#xb4;" horiz-adv-x="454" 
d="M279 1497l-177 -293h131l269 293h-223z" />
    <glyph glyph-name="mu" unicode="&#xb5;" 
d="M1008 0v1059h-174v-598q0 -72 -19.5 -132.5t-58.5 -105.5t-97.5 -69.5t-138.5 -24.5q-100 0 -157.5 57.5t-57.5 155.5v717h-174v-1462h174v456h4q27 -41 74 -58.5t113 -17.5q117 0 202.5 46.5t141.5 144.5h4v-168h164z" />
    <glyph glyph-name="paragraph" unicode="&#xb6;" horiz-adv-x="1228" 
d="M1055 -315v1777h-490q-217 0 -342 -109.5t-125 -312.5q0 -80 32 -149.5t88 -120.5t135 -81t173 -30v-974h140v1665h249v-1665h140z" />
    <glyph glyph-name="periodcentered" unicode="&#xb7;" horiz-adv-x="569" 
d="M154 637q0 -53 39.5 -92t93.5 -39q51 0 90 41t39 90q0 53 -39 92t-92 39t-92 -39t-39 -92z" />
    <glyph glyph-name="cedilla" unicode="&#xb8;" horiz-adv-x="454" 
d="M47 -299l-37 -90q47 -16 93.5 -27.5t95.5 -11.5q43 0 88 9t82 30.5t60.5 56.5t23.5 86q0 76 -53.5 113t-118.5 37q-47 0 -68 -15l-4 5l86 106h-86l-125 -158l35 -57q23 8 41 12t43 4q41 0 68.5 -17t27.5 -46q0 -18 -12.5 -29.5t-30.5 -19.5t-40.5 -11.5t-43.5 -3.5
q-33 0 -66.5 8.5t-58.5 18.5z" />
    <glyph glyph-name="onesuperior" unicode="&#xb9;" horiz-adv-x="681" 
d="M510 573v879h-102q-20 -84 -96 -114.5t-177 -30.5v-103h236v-631h139z" />
    <glyph glyph-name="ordmasculine" unicode="&#xba;" horiz-adv-x="786" 
d="M393 1350q33 0 69 -9.5t65.5 -36t49 -73.5t19.5 -121q0 -45 -11.5 -87t-35 -73.5t-61 -50t-93.5 -18.5q-55 0 -94 18.5t-63.5 51t-36 74.5t-11.5 87q0 123 58.5 180.5t144.5 57.5zM393 1452q-82 0 -146.5 -26.5t-107.5 -72.5t-65.5 -107.5t-22.5 -133.5q0 -74 23.5 -134
t67.5 -105.5t107.5 -70t145.5 -24.5q168 0 254 93.5t86 240.5q0 72 -22.5 134.5t-65.5 108.5t-106.5 71.5t-147.5 25.5z" />
    <glyph glyph-name="guillemotright" unicode="&#xbb;" horiz-adv-x="948" 
d="M846 659l-311 246v-176l204 -160l-204 -159v-177l311 246v180zM444 659l-311 246v-176l205 -160l-205 -159v-177l311 246v180z" />
    <glyph glyph-name="onequarter" unicode="&#xbc;" horiz-adv-x="1708" 
d="M449 573v879h-103q-20 -86 -96 -115.5t-176 -29.5v-103h235v-631h140zM1198 1485l-891 -1540h131l891 1540h-131zM1047 309l303 396h4v-396h-307zM1481 309v570h-105l-430 -564v-118h408v-197h127v197h123v112h-123z" />
    <glyph glyph-name="onehalf" unicode="&#xbd;" horiz-adv-x="1708" 
d="M1028 563h139q0 80 38 141.5t130 61.5q72 0 121 -39t49 -104q0 -45 -14 -80t-44 -64.5t-75 -58.5l-104 -64q-49 -29 -94.5 -59.5t-80 -70.5t-56 -94t-25.5 -132h620v113h-481q8 33 33.5 59.5t61.5 51t80 49t87 51.5q43 25 85 53.5t74 63t52.5 78.5t20.5 102q0 61 -24 109
t-66 81t-97 50.5t-117 17.5q-143 0 -228 -87.5t-85 -228.5zM449 573v879h-103q-20 -86 -96 -115.5t-176 -29.5v-103h235v-631h140zM1167 1485l-891 -1540h132l890 1540h-131z" />
    <glyph glyph-name="threequarters" unicode="&#xbe;" horiz-adv-x="1708" 
d="M362 1079v-102h68q37 0 71 -8t60.5 -27.5t43 -49.5t16.5 -73q0 -70 -57.5 -108.5t-135.5 -38.5q-184 0 -188 176h-140q0 -72 26 -126t70 -90t104 -54.5t128 -18.5q66 0 125 16.5t105.5 49t74 83t27.5 117.5q0 78 -43 135.5t-135 73.5v4q57 23 98 69t41 105t-22.5 104.5
t-62.5 75t-94.5 45t-117.5 15.5q-137 0 -216 -77t-87 -212h139q0 76 39 126t125 50q68 0 113 -32.5t45 -94.5q0 -72 -51.5 -102.5t-118.5 -30.5h-50zM1331 1485l-891 -1540h131l891 1540h-131zM1083 301l303 395h5v-395h-308zM1516 309v570h-105l-430 -564v-118h408v-197
h127v197h122v112h-122z" />
    <glyph glyph-name="questiondown" unicode="&#xbf;" 
d="M690 831v228h-227v-228h227zM1030 61h-174q0 -70 -16.5 -131t-52 -106t-89 -71.5t-127.5 -26.5q-111 0 -175 63.5t-72 175.5q-4 74 18.5 127t60 97t81.5 84t84 87.5t68 108.5t32 145v80h-174v-63q0 -51 -15.5 -94t-41 -79t-57.5 -68l-65 -62q-35 -33 -66.5 -68t-56 -76
t-39 -91t-14.5 -111q0 -98 32 -174t89 -128.5t137 -80t174 -27.5q106 0 192.5 38t147 103.5t91 154.5t28.5 193z" />
    <glyph glyph-name="Agrave" unicode="&#xc0;" horiz-adv-x="1327" 
d="M389 1860l268 -293h131l-176 293h-223zM412 604l247 682h5l243 -682h-495zM557 1462l-569 -1462h198l164 440h619l159 -440h215l-571 1462h-215z" />
    <glyph glyph-name="Aacute" unicode="&#xc1;" horiz-adv-x="1327" 
d="M715 1860l-176 -293h131l268 293h-223zM412 604l247 682h5l243 -682h-495zM557 1462l-569 -1462h198l164 440h619l159 -440h215l-571 1462h-215z" />
    <glyph glyph-name="Acircumflex" unicode="&#xc2;" horiz-adv-x="1327" 
d="M567 1860l-211 -293h158l143 196l142 -196h172l-213 293h-191zM412 604l247 682h5l243 -682h-495zM557 1462l-569 -1462h198l164 440h619l159 -440h215l-571 1462h-215z" />
    <glyph glyph-name="Atilde" unicode="&#xc3;" horiz-adv-x="1327" 
d="M1020 1819h-107q-10 -31 -31.5 -60.5t-62.5 -29.5q-33 0 -66.5 13t-68.5 28.5t-73 27.5t-79 12q-49 0 -83.5 -18t-59 -49t-42 -72t-30.5 -86h107q-4 39 30.5 62.5t67.5 23.5q29 0 65 -12t72 -27q37 -16 73 -28.5t63 -12.5q59 0 97 17.5t64 46.5q52 72 64 164zM412 604
l247 682h5l243 -682h-495zM557 1462l-569 -1462h198l164 440h619l159 -440h215l-571 1462h-215z" />
    <glyph glyph-name="Adieresis" unicode="&#xc4;" horiz-adv-x="1327" 
d="M379 1788v-213h184v213h-184zM764 1788v-213h184v213h-184zM412 604l247 682h5l243 -682h-495zM557 1462l-569 -1462h198l164 440h619l159 -440h215l-571 1462h-215z" />
    <glyph glyph-name="Aring.low" unicode="&#xc5;" horiz-adv-x="1327" 
d="M432 1698q0 47 18.5 89t50 73.5t73.5 50t90 18.5q47 0 89 -18.5t73.5 -50t50 -73.5t18.5 -89t-18.5 -89t-50 -74t-73.5 -50.5t-89 -18.5t-89.5 18.5t-74 50.5t-50 74t-18.5 89zM524 1698q0 -59 40 -99t100 -40q59 0 99 39.5t40 99.5q0 59 -40 99t-99 40t-99.5 -40
t-40.5 -99zM907 604l-243 682h-5l-247 -682h495zM772 1462l571 -1462h-215l-159 440h-619l-164 -440h-198l569 1462h215z" />
    <glyph glyph-name="AE" unicode="&#xc6;" horiz-adv-x="1896" 
d="M834 1298h84v-708h-429zM725 1462l-737 -1462h217l209 426h504v-426h915v164h-731v506h676v164h-676v464h719v164h-1096z" />
    <glyph glyph-name="Ccedilla" unicode="&#xc7;" horiz-adv-x="1478" 
d="M1188 1022h194q-16 117 -69 206t-133 148.5t-182.5 90t-217.5 30.5q-168 0 -298 -60.5t-217 -165t-132 -244.5t-45 -300q0 -154 38 -286t112.5 -232t189.5 -162.5t268 -75.5l-100 -129l35 -57q23 8 41 12t43 4q41 0 68.5 -17t27.5 -46q0 -18 -12.5 -29.5t-30.5 -19.5
t-40.5 -11.5t-43.5 -3.5q-33 0 -66.5 8.5t-58.5 18.5l-37 -90q47 -16 93.5 -27.5t95.5 -11.5q43 0 88 9t82 30.5t60.5 56.5t23.5 86q0 76 -53.5 113t-118.5 37q-47 0 -68 -15l-4 5l59 75q270 4 429 158t188 424h-195q-6 -90 -36.5 -168t-85 -134t-129 -88t-171.5 -32
q-131 0 -225 49t-154.5 132t-89 194.5t-28.5 236.5q0 115 28.5 221.5t89 189.5t153.5 132t224 49q154 0 265.5 -77.5t144.5 -233.5z" />
    <glyph glyph-name="Egrave" unicode="&#xc8;" horiz-adv-x="1251" 
d="M352 1860l269 -293h131l-177 293h-223zM160 1462v-1462h1016v164h-822v506h760v164h-760v464h815v164h-1009z" />
    <glyph glyph-name="Eacute" unicode="&#xc9;" horiz-adv-x="1251" 
d="M678 1860l-176 -293h131l268 293h-223zM160 1462v-1462h1016v164h-822v506h760v164h-760v464h815v164h-1009z" />
    <glyph glyph-name="Ecircumflex" unicode="&#xca;" horiz-adv-x="1251" 
d="M530 1860l-211 -293h158l144 196l141 -196h172l-213 293h-191zM160 1462v-1462h1016v164h-822v506h760v164h-760v464h815v164h-1009z" />
    <glyph glyph-name="Edieresis" unicode="&#xcb;" horiz-adv-x="1251" 
d="M342 1788v-213h184v213h-184zM727 1788v-213h184v213h-184zM160 1462v-1462h1016v164h-822v506h760v164h-760v464h815v164h-1009z" />
    <glyph glyph-name="Igrave" unicode="&#xcc;" horiz-adv-x="530" 
d="M-6 1860l266 -293h131l-176 293h-221zM168 1462v-1462h194v1462h-194z" />
    <glyph glyph-name="Iacute" unicode="&#xcd;" horiz-adv-x="530" 
d="M317 1860l-176 -293h131l269 293h-224zM168 1462v-1462h194v1462h-194z" />
    <glyph glyph-name="Icircumflex" unicode="&#xce;" horiz-adv-x="530" 
d="M170 1860l-209 -293h156l143 196l141 -196h172l-213 293h-190zM168 1462v-1462h194v1462h-194z" />
    <glyph glyph-name="Idieresis" unicode="&#xcf;" horiz-adv-x="530" 
d="M-16 1788v-213h182v213h-182zM367 1788v-213h184v213h-184zM168 1462v-1462h194v1462h-194z" />
    <glyph glyph-name="Eth" unicode="&#xd0;" horiz-adv-x="1441" 
d="M354 834v464h328q135 0 227 -37.5t150.5 -110.5t84 -176.5t25.5 -234.5q0 -135 -27.5 -230t-70.5 -158.5t-97 -100.5t-109.5 -56.5t-104.5 -24.5t-82 -5h-324v530h439v140h-439zM160 694v-694h502q182 0 315 51t219 148.5t127 240t41 326.5q0 352 -182.5 524t-519.5 172
h-502v-628h-144v-140h144z" />
    <glyph glyph-name="Ntilde" unicode="&#xd1;" horiz-adv-x="1478" 
d="M1096 1819h-107q-10 -31 -31.5 -60.5t-62.5 -29.5q-33 0 -66.5 13t-68.5 28.5t-73 27.5t-79 12q-49 0 -84 -18t-59.5 -49t-41.5 -72t-30 -86h107q-4 39 30.5 62.5t67.5 23.5q29 0 64.5 -12t72.5 -27q37 -16 73 -28.5t62 -12.5q59 0 97.5 17.5t64.5 46.5q52 72 64 164z
M158 1462v-1462h184v1174h4l764 -1174h213v1462h-184v-1186h-4l-770 1186h-207z" />
    <glyph glyph-name="Ograve" unicode="&#xd2;" horiz-adv-x="1556" 
d="M504 1860l268 -293h131l-176 293h-223zM272 731q0 111 29 218.5t90.5 193.5t157.5 138t229 52t229.5 -52t158 -138t90 -193.5t28.5 -218.5t-28.5 -218t-90 -193.5t-158 -138.5t-229.5 -52t-229 52t-157.5 138.5t-90.5 193.5t-29 218zM78 731q0 -150 44 -288t132 -244.5
t219 -169t305 -62.5t305 62.5t219.5 169t132.5 245t44 287.5q0 150 -44 288t-132.5 244.5t-219.5 170t-305 63.5t-305 -63.5t-219 -170t-132 -244.5t-44 -288z" />
    <glyph glyph-name="Oacute" unicode="&#xd3;" horiz-adv-x="1556" 
d="M829 1860l-176 -293h131l269 293h-224zM272 731q0 111 29 218.5t90.5 193.5t157.5 138t229 52t229.5 -52t158 -138t90 -193.5t28.5 -218.5t-28.5 -218t-90 -193.5t-158 -138.5t-229.5 -52t-229 52t-157.5 138.5t-90.5 193.5t-29 218zM78 731q0 -150 44 -288t132 -244.5
t219 -169t305 -62.5t305 62.5t219.5 169t132.5 245t44 287.5q0 150 -44 288t-132.5 244.5t-219.5 170t-305 63.5t-305 -63.5t-219 -170t-132 -244.5t-44 -288z" />
    <glyph glyph-name="Ocircumflex" unicode="&#xd4;" horiz-adv-x="1556" 
d="M682 1860l-211 -293h158l143 196l141 -196h172l-213 293h-190zM272 731q0 111 29 218.5t90.5 193.5t157.5 138t229 52t229.5 -52t158 -138t90 -193.5t28.5 -218.5t-28.5 -218t-90 -193.5t-158 -138.5t-229.5 -52t-229 52t-157.5 138.5t-90.5 193.5t-29 218zM78 731
q0 -150 44 -288t132 -244.5t219 -169t305 -62.5t305 62.5t219.5 169t132.5 245t44 287.5q0 150 -44 288t-132.5 244.5t-219.5 170t-305 63.5t-305 -63.5t-219 -170t-132 -244.5t-44 -288z" />
    <glyph glyph-name="Otilde" unicode="&#xd5;" horiz-adv-x="1556" 
d="M1135 1819h-107q-10 -31 -31.5 -60.5t-62.5 -29.5q-33 0 -66.5 13t-68.5 28.5t-73 27.5t-79 12q-49 0 -84 -18t-59.5 -49t-42 -72t-29.5 -86h107q-4 39 30.5 62.5t67.5 23.5q29 0 64.5 -12t72.5 -27q37 -16 73 -28.5t62 -12.5q59 0 97 17.5t65 46.5q52 72 64 164z
M272 731q0 111 29 218.5t90.5 193.5t157.5 138t229 52t229.5 -52t158 -138t90 -193.5t28.5 -218.5t-28.5 -218t-90 -193.5t-158 -138.5t-229.5 -52t-229 52t-157.5 138.5t-90.5 193.5t-29 218zM78 731q0 -150 44 -288t132 -244.5t219 -169t305 -62.5t305 62.5t219.5 169
t132.5 245t44 287.5q0 150 -44 288t-132.5 244.5t-219.5 170t-305 63.5t-305 -63.5t-219 -170t-132 -244.5t-44 -288z" />
    <glyph glyph-name="Odieresis" unicode="&#xd6;" horiz-adv-x="1556" 
d="M494 1788v-213h184v213h-184zM879 1788v-213h184v213h-184zM272 731q0 111 29 218.5t90.5 193.5t157.5 138t229 52t229.5 -52t158 -138t90 -193.5t28.5 -218.5t-28.5 -218t-90 -193.5t-158 -138.5t-229.5 -52t-229 52t-157.5 138.5t-90.5 193.5t-29 218zM78 731
q0 -150 44 -288t132 -244.5t219 -169t305 -62.5t305 62.5t219.5 169t132.5 245t44 287.5q0 150 -44 288t-132.5 244.5t-219.5 170t-305 63.5t-305 -63.5t-219 -170t-132 -244.5t-44 -288z" />
    <glyph glyph-name="multiply" unicode="&#xd7;" horiz-adv-x="1228" 
d="M145 147l99 -98l372 373l371 -373l98 98l-370 373l368 369l-98 98l-369 -369l-370 369l-99 -98l371 -369z" />
    <glyph glyph-name="Oslash" unicode="&#xd8;" horiz-adv-x="1556" 
d="M1481 1434l-66 61l-162 -178q-86 86 -203.5 133t-271.5 47q-174 0 -305 -63.5t-219 -170t-132 -244.5t-44 -288q0 -147 42 -282.5t128 -239.5l-172 -189l67 -59l166 180q86 -82 203 -128t266 -46q174 0 305 62.5t219.5 169t132.5 245t44 287.5q0 147 -40 279.5
t-126 238.5zM430 274l756 834q51 -80 74.5 -178.5t23.5 -198.5q0 -111 -28.5 -218t-90 -193.5t-158 -138.5t-229.5 -52q-117 0 -203 38.5t-145 106.5zM1130 1182l-755 -834q-53 82 -78 180.5t-25 202.5q0 111 29 218.5t90.5 193.5t157.5 138t229 52q117 0 205 -40.5
t147 -110.5z" />
    <glyph glyph-name="Ugrave" unicode="&#xd9;" horiz-adv-x="1478" 
d="M465 1860l268 -293h131l-176 293h-223zM1327 528v934h-194v-934q0 -197 -97.5 -298t-283.5 -101q-197 0 -301.5 101.5t-104.5 297.5v934h-194v-934q0 -293 158.5 -427t441.5 -134q276 0 425.5 140t149.5 421z" />
    <glyph glyph-name="Uacute" unicode="&#xda;" horiz-adv-x="1478" 
d="M791 1860l-177 -293h131l269 293h-223zM1327 528v934h-194v-934q0 -197 -97.5 -298t-283.5 -101q-197 0 -301.5 101.5t-104.5 297.5v934h-194v-934q0 -293 158.5 -427t441.5 -134q276 0 425.5 140t149.5 421z" />
    <glyph glyph-name="Ucircumflex" unicode="&#xdb;" horiz-adv-x="1478" 
d="M643 1860l-211 -293h158l143 196l141 -196h173l-213 293h-191zM1327 528v934h-194v-934q0 -197 -97.5 -298t-283.5 -101q-197 0 -301.5 101.5t-104.5 297.5v934h-194v-934q0 -293 158.5 -427t441.5 -134q276 0 425.5 140t149.5 421z" />
    <glyph glyph-name="Udieresis" unicode="&#xdc;" horiz-adv-x="1478" 
d="M455 1788v-213h184v213h-184zM840 1788v-213h184v213h-184zM1327 528v934h-194v-934q0 -197 -97.5 -298t-283.5 -101q-197 0 -301.5 101.5t-104.5 297.5v934h-194v-934q0 -293 158.5 -427t441.5 -134q276 0 425.5 140t149.5 421z" />
    <glyph glyph-name="Yacute" unicode="&#xdd;" horiz-adv-x="1327" 
d="M715 1860l-176 -293h131l268 293h-223zM764 598l559 864h-221l-428 -696l-438 696h-232l565 -864v-598h195v598z" />
    <glyph glyph-name="Thorn" unicode="&#xde;" horiz-adv-x="1327" 
d="M354 528v537h381q166 0 243 -67.5t77 -202.5q0 -131 -77 -200t-243 -67h-381zM160 0h194v365h447q221 -2 334.5 111.5t113.5 318.5t-113.5 319.5t-334.5 114.5h-447v233h-194v-1462z" />
    <glyph glyph-name="germandbls" unicode="&#xdf;" 
d="M131 1087v-1087h174v1057q0 86 18.5 141t50.5 87t77 45t98 13q49 0 90 -18t71.5 -49t48 -73t17.5 -91q0 -70 -25.5 -118t-68.5 -75.5t-99.5 -38t-117.5 -6.5v-139q86 0 155.5 -10t118.5 -43t76 -93.5t27 -160.5q0 -135 -83 -217t-224 -82q-16 0 -35 1t-35 5v-149
q41 -8 88 -9q104 0 191 34t149.5 96.5t97.5 149.5t35 194q0 68 -17.5 130t-52 111t-87 83t-121.5 42v4q117 37 165 119t48 199q0 90 -38 156.5t-98.5 111.5t-136.5 67.5t-151 22.5q-92 0 -167 -29.5t-128.5 -84t-82 -129.5t-28.5 -167z" />
    <glyph glyph-name="agrave" unicode="&#xe0;" horiz-adv-x="1099" 
d="M276 1497l269 -293h131l-176 293h-224zM1069 4v135q-31 -10 -53 -10q-41 0 -48 28.5t-7 90.5v545q0 92 -35 149t-92.5 89t-128 42t-142.5 10q-88 0 -168 -18t-141 -60t-98 -110t-41 -166h174q6 117 79.5 159t184.5 42q41 0 83 -6t75.5 -24.5t55 -53.5t21.5 -92
q0 -49 -28.5 -75t-77.5 -39t-113.5 -20.5t-136.5 -21.5q-68 -12 -132 -30.5t-114.5 -54.5t-81 -93.5t-30.5 -147.5q0 -80 27.5 -136t75.5 -92t111.5 -51.5t135.5 -15.5q111 0 206 38t167 124q0 -86 40 -124t107 -38q80 0 125 27zM786 547v-178q0 -37 -18 -79t-57 -78
t-100.5 -59.5t-147.5 -23.5q-39 0 -77 8t-65.5 26.5t-45 48.5t-17.5 73q0 66 29.5 103.5t77 58t106.5 29.5t117.5 16.5t111.5 18.5t86 36z" />
    <glyph glyph-name="aacute" unicode="&#xe1;" horiz-adv-x="1099" 
d="M602 1497l-176 -293h131l268 293h-223zM1069 4v135q-31 -10 -53 -10q-41 0 -48 28.5t-7 90.5v545q0 92 -35 149t-92.5 89t-128 42t-142.5 10q-88 0 -168 -18t-141 -60t-98 -110t-41 -166h174q6 117 79.5 159t184.5 42q41 0 83 -6t75.5 -24.5t55 -53.5t21.5 -92
q0 -49 -28.5 -75t-77.5 -39t-113.5 -20.5t-136.5 -21.5q-68 -12 -132 -30.5t-114.5 -54.5t-81 -93.5t-30.5 -147.5q0 -80 27.5 -136t75.5 -92t111.5 -51.5t135.5 -15.5q111 0 206 38t167 124q0 -86 40 -124t107 -38q80 0 125 27zM786 547v-178q0 -37 -18 -79t-57 -78
t-100.5 -59.5t-147.5 -23.5q-39 0 -77 8t-65.5 26.5t-45 48.5t-17.5 73q0 66 29.5 103.5t77 58t106.5 29.5t117.5 16.5t111.5 18.5t86 36z" />
    <glyph glyph-name="acircumflex" unicode="&#xe2;" horiz-adv-x="1099" 
d="M455 1497l-211 -293h157l144 197l141 -197h172l-213 293h-190zM1069 4v135q-31 -10 -53 -10q-41 0 -48 28.5t-7 90.5v545q0 92 -35 149t-92.5 89t-128 42t-142.5 10q-88 0 -168 -18t-141 -60t-98 -110t-41 -166h174q6 117 79.5 159t184.5 42q41 0 83 -6t75.5 -24.5
t55 -53.5t21.5 -92q0 -49 -28.5 -75t-77.5 -39t-113.5 -20.5t-136.5 -21.5q-68 -12 -132 -30.5t-114.5 -54.5t-81 -93.5t-30.5 -147.5q0 -80 27.5 -136t75.5 -92t111.5 -51.5t135.5 -15.5q111 0 206 38t167 124q0 -86 40 -124t107 -38q80 0 125 27zM786 547v-178
q0 -37 -18 -79t-57 -78t-100.5 -59.5t-147.5 -23.5q-39 0 -77 8t-65.5 26.5t-45 48.5t-17.5 73q0 66 29.5 103.5t77 58t106.5 29.5t117.5 16.5t111.5 18.5t86 36z" />
    <glyph glyph-name="atilde" unicode="&#xe3;" horiz-adv-x="1099" 
d="M907 1456h-106q-10 -31 -31.5 -60.5t-62.5 -29.5q-33 0 -67 13.5l-68.5 28.5t-72.5 27.5t-79 12.5q-49 0 -84 -18.5t-59.5 -49t-42 -71.5t-29.5 -86h106q-4 39 31 62.5t68 23.5q29 0 64.5 -12.5l72.5 -26.5q37 -16 72.5 -28.5t62.5 -12.5q59 0 97 17.5t65 45.5
q51 72 63 164zM1069 4v135q-31 -10 -53 -10q-41 0 -48 28.5t-7 90.5v545q0 92 -35 149t-92.5 89t-128 42t-142.5 10q-88 0 -168 -18t-141 -60t-98 -110t-41 -166h174q6 117 79.5 159t184.5 42q41 0 83 -6t75.5 -24.5t55 -53.5t21.5 -92q0 -49 -28.5 -75t-77.5 -39
t-113.5 -20.5t-136.5 -21.5q-68 -12 -132 -30.5t-114.5 -54.5t-81 -93.5t-30.5 -147.5q0 -80 27.5 -136t75.5 -92t111.5 -51.5t135.5 -15.5q111 0 206 38t167 124q0 -86 40 -124t107 -38q80 0 125 27zM786 547v-178q0 -37 -18 -79t-57 -78t-100.5 -59.5t-147.5 -23.5
q-39 0 -77 8t-65.5 26.5t-45 48.5t-17.5 73q0 66 29.5 103.5t77 58t106.5 29.5t117.5 16.5t111.5 18.5t86 36z" />
    <glyph glyph-name="adieresis" unicode="&#xe4;" horiz-adv-x="1099" 
d="M266 1425v-213h185v213h-185zM651 1425v-213h185v213h-185zM1069 4v135q-31 -10 -53 -10q-41 0 -48 28.5t-7 90.5v545q0 92 -35 149t-92.5 89t-128 42t-142.5 10q-88 0 -168 -18t-141 -60t-98 -110t-41 -166h174q6 117 79.5 159t184.5 42q41 0 83 -6t75.5 -24.5t55 -53.5
t21.5 -92q0 -49 -28.5 -75t-77.5 -39t-113.5 -20.5t-136.5 -21.5q-68 -12 -132 -30.5t-114.5 -54.5t-81 -93.5t-30.5 -147.5q0 -80 27.5 -136t75.5 -92t111.5 -51.5t135.5 -15.5q111 0 206 38t167 124q0 -86 40 -124t107 -38q80 0 125 27zM786 547v-178q0 -37 -18 -79
t-57 -78t-100.5 -59.5t-147.5 -23.5q-39 0 -77 8t-65.5 26.5t-45 48.5t-17.5 73q0 66 29.5 103.5t77 58t106.5 29.5t117.5 16.5t111.5 18.5t86 36z" />
    <glyph glyph-name="aring" unicode="&#xe5;" horiz-adv-x="1099" 
d="M319 1356q0 -47 18.5 -89t50.5 -74t74 -50.5t89 -18.5t89 18.5t73.5 50.5t50 74t18.5 89t-18.5 89t-50 73.5t-73.5 50t-89 18.5t-89 -18.5t-74 -50t-50.5 -73.5t-18.5 -89zM412 1356q0 59 40 99t99 40t99 -40t40 -99t-40 -99t-99 -40t-99 40t-40 99zM1069 4v135
q-31 -10 -53 -10q-41 0 -48 28.5t-7 90.5v545q0 92 -35 149t-92.5 89t-128 42t-142.5 10q-88 0 -168 -18t-141 -60t-98 -110t-41 -166h174q6 117 79.5 159t184.5 42q41 0 83 -6t75.5 -24.5t55 -53.5t21.5 -92q0 -49 -28.5 -75t-77.5 -39t-113.5 -20.5t-136.5 -21.5
q-68 -12 -132 -30.5t-114.5 -54.5t-81 -93.5t-30.5 -147.5q0 -80 27.5 -136t75.5 -92t111.5 -51.5t135.5 -15.5q111 0 206 38t167 124q0 -86 40 -124t107 -38q80 0 125 27zM786 547v-178q0 -37 -18 -79t-57 -78t-100.5 -59.5t-147.5 -23.5q-39 0 -77 8t-65.5 26.5t-45 48.5
t-17.5 73q0 66 29.5 103.5t77 58t106.5 29.5t117.5 16.5t111.5 18.5t86 36z" />
    <glyph glyph-name="ae" unicode="&#xe6;" horiz-adv-x="1781" 
d="M956 477h777q0 123 -22.5 233.5t-78 193.5t-146.5 131t-231 48q-96 0 -190 -35.5t-147 -117.5q-25 49 -66 79.5t-90 47t-100.5 21.5t-98.5 5q-88 0 -168 -18t-141 -60t-98 -110t-41 -166h174q6 117 79.5 159t184.5 42q43 0 86 -5t77 -22.5t55.5 -50.5t21.5 -86
q0 -47 -20.5 -72.5t-63.5 -41t-112 -26t-165 -28.5q-68 -12 -132 -30.5t-114.5 -54.5t-81 -93.5t-30.5 -147.5q0 -80 27.5 -136t75.5 -92t113.5 -51.5t141.5 -15.5q147 0 267 48.5t180 156.5q27 -59 66.5 -98t89.5 -62.5t107.5 -34t119.5 -10.5q180 0 299.5 91.5
t158.5 265.5h-178q-25 -104 -97.5 -154.5t-170.5 -50.5q-80 0 -140.5 27.5t-99.5 76t-58.5 111.5t-19.5 133zM258 285q0 49 17.5 81.5t46 54t67.5 34t82 20.5q41 8 87 14.5t89 13.5t81 17t65 27v-178q0 -37 -19.5 -79t-59.5 -78t-102.5 -59.5t-148.5 -23.5q-39 0 -77 8
t-65.5 26.5t-45 48.5t-17.5 73zM1548 631h-592q0 66 20.5 120t59.5 94t94.5 62.5t124.5 22.5q70 0 124.5 -23.5t91 -63.5t56 -95.5t21.5 -116.5z" />
    <glyph glyph-name="ccedilla" unicode="&#xe7;" horiz-adv-x="1099" 
d="M850 719h180q-10 94 -49 162.5t-99.5 113.5t-139 66.5t-169.5 21.5q-125 0 -219 -44t-156.5 -120.5t-93 -180t-30.5 -222.5q0 -113 28.5 -207t84 -163.5t138.5 -112.5t191 -51l-108 -140l34 -57q23 8 41.5 12t42.5 4q41 0 69 -17t28 -46q0 -18 -12.5 -29.5t-31 -19.5
t-41 -11.5t-42.5 -3.5q-33 0 -67 8.5t-58 18.5l-37 -90q47 -16 93 -27.5t95 -11.5q43 0 88 9t82 30.5t60.5 56.5t23.5 86q0 76 -53 113t-119 37q-47 0 -67 -15l-5 5l68 86q186 8 297 114.5t139 292.5h-178q-16 -123 -89 -190.5t-202 -67.5q-82 0 -141 33t-96 87t-54.5 123.5
t-17.5 143.5q0 80 16.5 154.5t54.5 132t101.5 92.5t157.5 35q111 0 176.5 -55.5t85.5 -155.5z" />
    <glyph glyph-name="egrave" unicode="&#xe8;" horiz-adv-x="1099" 
d="M276 1497l269 -293h131l-176 293h-224zM866 631h-608q4 61 26.5 115.5t61.5 95.5t93.5 64.5t121.5 23.5q66 0 120 -23.5t94 -63.5t63.5 -95.5t27.5 -116.5zM1034 336h-172q-23 -104 -93.5 -155.5t-180.5 -51.5q-86 0 -149.5 28.5t-104.5 77t-59.5 111t-16.5 131.5h793
q4 96 -17.5 202.5t-78 197t-149.5 148.5t-235 58q-109 0 -199.5 -41t-157.5 -114.5t-103.5 -174t-36.5 -221.5q4 -121 35.5 -223t95 -176t157 -115t220.5 -41q180 0 298.5 90.5t153.5 268.5z" />
    <glyph glyph-name="eacute" unicode="&#xe9;" horiz-adv-x="1099" 
d="M602 1497l-176 -293h131l268 293h-223zM866 631h-608q4 61 26.5 115.5t61.5 95.5t93.5 64.5t121.5 23.5q66 0 120 -23.5t94 -63.5t63.5 -95.5t27.5 -116.5zM1034 336h-172q-23 -104 -93.5 -155.5t-180.5 -51.5q-86 0 -149.5 28.5t-104.5 77t-59.5 111t-16.5 131.5h793
q4 96 -17.5 202.5t-78 197t-149.5 148.5t-235 58q-109 0 -199.5 -41t-157.5 -114.5t-103.5 -174t-36.5 -221.5q4 -121 35.5 -223t95 -176t157 -115t220.5 -41q180 0 298.5 90.5t153.5 268.5z" />
    <glyph glyph-name="ecircumflex" unicode="&#xea;" horiz-adv-x="1099" 
d="M455 1497l-211 -293h157l144 197l141 -197h172l-213 293h-190zM866 631h-608q4 61 26.5 115.5t61.5 95.5t93.5 64.5t121.5 23.5q66 0 120 -23.5t94 -63.5t63.5 -95.5t27.5 -116.5zM1034 336h-172q-23 -104 -93.5 -155.5t-180.5 -51.5q-86 0 -149.5 28.5t-104.5 77
t-59.5 111t-16.5 131.5h793q4 96 -17.5 202.5t-78 197t-149.5 148.5t-235 58q-109 0 -199.5 -41t-157.5 -114.5t-103.5 -174t-36.5 -221.5q4 -121 35.5 -223t95 -176t157 -115t220.5 -41q180 0 298.5 90.5t153.5 268.5z" />
    <glyph glyph-name="edieresis" unicode="&#xeb;" horiz-adv-x="1099" 
d="M266 1425v-213h185v213h-185zM651 1425v-213h185v213h-185zM866 631h-608q4 61 26.5 115.5t61.5 95.5t93.5 64.5t121.5 23.5q66 0 120 -23.5t94 -63.5t63.5 -95.5t27.5 -116.5zM1034 336h-172q-23 -104 -93.5 -155.5t-180.5 -51.5q-86 0 -149.5 28.5t-104.5 77t-59.5 111
t-16.5 131.5h793q4 96 -17.5 202.5t-78 197t-149.5 148.5t-235 58q-109 0 -199.5 -41t-157.5 -114.5t-103.5 -174t-36.5 -221.5q4 -121 35.5 -223t95 -176t157 -115t220.5 -41q180 0 298.5 90.5t153.5 268.5z" />
    <glyph glyph-name="igrave" unicode="&#xec;" horiz-adv-x="454" 
d="M-45 1497l266 -293h131l-176 293h-221zM141 0h174v1059h-174v-1059z" />
    <glyph glyph-name="iacute" unicode="&#xed;" horiz-adv-x="454" 
d="M279 1497l-177 -293h131l269 293h-223zM141 0h174v1059h-174v-1059z" />
    <glyph glyph-name="icircumflex" unicode="&#xee;" horiz-adv-x="454" 
d="M131 1497l-209 -293h156l143 197l141 -197h173l-213 293h-191zM141 0h174v1059h-174v-1059z" />
    <glyph glyph-name="idieresis" unicode="&#xef;" horiz-adv-x="454" 
d="M-55 1425v-213h182v213h-182zM328 1425v-213h184v213h-184zM141 0h174v1059h-174v-1059z" />
    <glyph glyph-name="eth" unicode="&#xf0;" horiz-adv-x="1175" 
d="M578 883q90 0 154.5 -29t105.5 -78t60.5 -112.5t19.5 -135.5q0 -96 -26 -170.5t-71 -125t-105.5 -77t-127.5 -26.5q-68 0 -128.5 26.5t-105.5 77t-70.5 125t-25.5 170.5q0 158 81 256.5t239 98.5zM557 1036q-117 0 -207 -42t-151.5 -112.5t-93 -161.5t-31.5 -192
q0 -117 32.5 -217t98 -175t162 -117t221.5 -42q127 0 222 42t160.5 117t98.5 175.5t33 216.5q0 236 -85 433.5t-272 351.5l236 108l-72 76l-245 -115q-41 33 -85 64l-73 51l-144 -92q29 -16 70 -43t74 -55l-223 -105l77 -82l236 111q25 -16 57.5 -47t67.5 -72t67.5 -89
t57.5 -101h-4q-55 63 -129 88.5t-156 25.5z" />
    <glyph glyph-name="ntilde" unicode="&#xf1;" 
d="M926 1456h-107q-10 -31 -31.5 -60.5t-62.5 -29.5q-33 0 -66.5 13.5l-68.5 28.5t-73 27.5t-79 12.5q-49 0 -84 -18.5t-59.5 -49t-41.5 -71.5t-30 -86h107q-4 39 30.5 62.5t67.5 23.5q29 0 64.5 -12.5l72.5 -26.5q37 -16 73 -28.5t62 -12.5q59 0 97.5 17.5t64.5 45.5
q52 72 64 164zM131 1059v-1059h174v598q0 72 19.5 132.5t58.5 105.5t97.5 69.5t137.5 24.5q100 0 158 -57.5t58 -155.5v-717h174v696q0 86 -17.5 157t-60.5 122t-112.5 79.5t-174.5 28.5q-236 0 -344 -192h-4v168h-164z" />
    <glyph glyph-name="ograve" unicode="&#xf2;" horiz-adv-x="1175" 
d="M313 1497l269 -293h131l-176 293h-224zM258 528q0 96 25.5 171t70.5 126.5t105.5 78t128.5 26.5t128 -26.5t105 -78t71 -126t26 -171.5q0 -96 -26 -170.5t-71 -125t-105.5 -77t-127.5 -26.5q-68 0 -128.5 26.5t-105.5 77t-70.5 125t-25.5 170.5zM74 528q0 -117 32.5 -217
t98 -175t162 -117t221.5 -42q127 0 222 42t160.5 117t98.5 175.5t33 216.5q0 117 -33 218.5t-98.5 176t-160.5 117.5t-222 43q-125 0 -221.5 -43t-162 -117.5t-98 -176t-32.5 -218.5z" />
    <glyph glyph-name="oacute" unicode="&#xf3;" horiz-adv-x="1175" 
d="M639 1497l-176 -293h131l268 293h-223zM258 528q0 96 25.5 171t70.5 126.5t105.5 78t128.5 26.5t128 -26.5t105 -78t71 -126t26 -171.5q0 -96 -26 -170.5t-71 -125t-105.5 -77t-127.5 -26.5q-68 0 -128.5 26.5t-105.5 77t-70.5 125t-25.5 170.5zM74 528q0 -117 32.5 -217
t98 -175t162 -117t221.5 -42q127 0 222 42t160.5 117t98.5 175.5t33 216.5q0 117 -33 218.5t-98.5 176t-160.5 117.5t-222 43q-125 0 -221.5 -43t-162 -117.5t-98 -176t-32.5 -218.5z" />
    <glyph glyph-name="ocircumflex" unicode="&#xf4;" horiz-adv-x="1175" 
d="M492 1497l-211 -293h157l144 197l141 -197h172l-213 293h-190zM258 528q0 96 25.5 171t70.5 126.5t105.5 78t128.5 26.5t128 -26.5t105 -78t71 -126t26 -171.5q0 -96 -26 -170.5t-71 -125t-105.5 -77t-127.5 -26.5q-68 0 -128.5 26.5t-105.5 77t-70.5 125t-25.5 170.5z
M74 528q0 -117 32.5 -217t98 -175t162 -117t221.5 -42q127 0 222 42t160.5 117t98.5 175.5t33 216.5q0 117 -33 218.5t-98.5 176t-160.5 117.5t-222 43q-125 0 -221.5 -43t-162 -117.5t-98 -176t-32.5 -218.5z" />
    <glyph glyph-name="otilde" unicode="&#xf5;" horiz-adv-x="1175" 
d="M944 1456h-106q-10 -31 -32 -60.5t-63 -29.5q-33 0 -66.5 13.5l-68.5 28.5t-72.5 27.5t-78.5 12.5q-49 0 -84 -18.5t-59.5 -49t-42 -71.5t-29.5 -86h106q-4 39 31 62.5t67 23.5q29 0 65 -12.5l73 -26.5q37 -16 72.5 -28.5t62.5 -12.5q59 0 97 17.5t65 45.5q51 72 63 164z
M258 528q0 96 25.5 171t70.5 126.5t105.5 78t128.5 26.5t128 -26.5t105 -78t71 -126t26 -171.5q0 -96 -26 -170.5t-71 -125t-105.5 -77t-127.5 -26.5q-68 0 -128.5 26.5t-105.5 77t-70.5 125t-25.5 170.5zM74 528q0 -117 32.5 -217t98 -175t162 -117t221.5 -42q127 0 222 42
t160.5 117t98.5 175.5t33 216.5q0 117 -33 218.5t-98.5 176t-160.5 117.5t-222 43q-125 0 -221.5 -43t-162 -117.5t-98 -176t-32.5 -218.5z" />
    <glyph glyph-name="odieresis" unicode="&#xf6;" horiz-adv-x="1175" 
d="M303 1425v-213h184v213h-184zM688 1425v-213h184v213h-184zM258 528q0 96 25.5 171t70.5 126.5t105.5 78t128.5 26.5t128 -26.5t105 -78t71 -126t26 -171.5q0 -96 -26 -170.5t-71 -125t-105.5 -77t-127.5 -26.5q-68 0 -128.5 26.5t-105.5 77t-70.5 125t-25.5 170.5z
M74 528q0 -117 32.5 -217t98 -175t162 -117t221.5 -42q127 0 222 42t160.5 117t98.5 175.5t33 216.5q0 117 -33 218.5t-98.5 176t-160.5 117.5t-222 43q-125 0 -221.5 -43t-162 -117.5t-98 -176t-32.5 -218.5z" />
    <glyph glyph-name="divide" unicode="&#xf7;" horiz-adv-x="1228" 
d="M483 96q0 -53 40 -91t93 -38q51 0 90 40t39 89q0 53 -38.5 92t-92.5 39q-53 0 -92 -39t-39 -92zM483 940q0 -53 40 -92t93 -39q51 0 90 41t39 90q0 53 -38.5 92t-92.5 39q-53 0 -92 -39t-39 -92zM98 588v-139h1032v139h-1032z" />
    <glyph glyph-name="oslash" unicode="&#xf8;" horiz-adv-x="1175" 
d="M983 907l123 135l-55 54l-119 -133q-66 59 -150 89.5t-194 30.5q-125 0 -221.5 -43t-162 -117.5t-98 -176t-32.5 -218.5q0 -113 30.5 -210t92.5 -173l-127 -141l57 -47l123 135q63 -55 147 -85t191 -30q127 0 222 42t160.5 117t98.5 175.5t33 216.5q0 113 -30 210
t-89 169zM365 221l495 551q27 -47 42.5 -107.5t15.5 -136.5q0 -96 -26 -170.5t-71 -125t-105.5 -77t-127.5 -26.5q-131 0 -223 92zM815 834l-496 -553q-29 51 -45 112.5t-16 134.5q0 96 25.5 171t70.5 126.5t105.5 78t128.5 26.5q137 0 227 -96z" />
    <glyph glyph-name="ugrave" unicode="&#xf9;" 
d="M295 1497l268 -293h131l-176 293h-223zM1008 0v1059h-174v-598q0 -72 -19.5 -132.5t-58.5 -105.5t-97.5 -69.5t-138.5 -24.5q-100 0 -157.5 57.5t-57.5 155.5v717h-174v-697q0 -86 17.5 -156.5t60.5 -121.5t112.5 -79t174.5 -28q117 0 202.5 46.5t141.5 144.5h4v-168h164
z" />
    <glyph glyph-name="uacute" unicode="&#xfa;" 
d="M621 1497l-177 -293h131l269 293h-223zM1008 0v1059h-174v-598q0 -72 -19.5 -132.5t-58.5 -105.5t-97.5 -69.5t-138.5 -24.5q-100 0 -157.5 57.5t-57.5 155.5v717h-174v-697q0 -86 17.5 -156.5t60.5 -121.5t112.5 -79t174.5 -28q117 0 202.5 46.5t141.5 144.5h4v-168h164
z" />
    <glyph glyph-name="ucircumflex" unicode="&#xfb;" 
d="M473 1497l-211 -293h158l143 197l142 -197h172l-213 293h-191zM1008 0v1059h-174v-598q0 -72 -19.5 -132.5t-58.5 -105.5t-97.5 -69.5t-138.5 -24.5q-100 0 -157.5 57.5t-57.5 155.5v717h-174v-697q0 -86 17.5 -156.5t60.5 -121.5t112.5 -79t174.5 -28q117 0 202.5 46.5
t141.5 144.5h4v-168h164z" />
    <glyph glyph-name="udieresis" unicode="&#xfc;" 
d="M285 1425v-213h184v213h-184zM670 1425v-213h184v213h-184zM1008 0v1059h-174v-598q0 -72 -19.5 -132.5t-58.5 -105.5t-97.5 -69.5t-138.5 -24.5q-100 0 -157.5 57.5t-57.5 155.5v717h-174v-697q0 -86 17.5 -156.5t60.5 -121.5t112.5 -79t174.5 -28q117 0 202.5 46.5
t141.5 144.5h4v-168h164z" />
    <glyph glyph-name="yacute" unicode="&#xfd;" horiz-adv-x="1024" 
d="M563 1497l-176 -293h131l268 293h-223zM547 -139l461 1198h-185l-297 -866h-4l-309 866h-197l420 -1053l-71 -178q-25 -47 -58 -71.5t-86 -24.5q-27 0 -52.5 8l-49.5 16v-159q29 -10 59.5 -14.5t61.5 -4.5q59 0 102 15.5t79 49t65.5 87t60.5 131.5z" />
    <glyph glyph-name="thorn" unicode="&#xfe;" horiz-adv-x="1214" 
d="M311 915v547h-174v-1865h174v544h4q29 -47 71 -78.5t89 -50t95 -27t87 -8.5q121 0 212.5 43t151.5 118t90 175.5t30 212.5q0 113 -31 213.5t-91.5 177t-151.5 121.5t-214 45q-111 0 -203 -39.5t-135 -128.5h-4zM956 539q0 -78 -16 -152t-53 -131t-97.5 -92t-150.5 -35
t-153.5 34t-103.5 89t-58.5 128t-18.5 150q0 74 17.5 146t56.5 128t100.5 91t149.5 35q84 0 146.5 -33t102.5 -88t59 -125.5t19 -144.5z" />
    <glyph glyph-name="ydieresis" unicode="&#xff;" horiz-adv-x="1024" 
d="M227 1425v-213h185v213h-185zM612 1425v-213h185v213h-185zM547 -139l461 1198h-185l-297 -866h-4l-309 866h-197l420 -1053l-71 -178q-25 -47 -58 -71.5t-86 -24.5q-27 0 -52.5 8l-49.5 16v-159q29 -10 59.5 -14.5t61.5 -4.5q59 0 102 15.5t79 49t65.5 87t60.5 131.5z
" />
    <glyph glyph-name="uni0100" unicode="&#x100;" horiz-adv-x="1327" 
d="M557 1462h215l571 -1462h-215l-159 440h-619l-164 -440h-200zM907 604l-243 682h-5l-247 -682h495zM317 1786h699v-113h-699v113z" />
    <glyph glyph-name="uni0101" unicode="&#x101;" horiz-adv-x="1099" 
d="M1069 4q-47 -29 -125 -29q-68 0 -107.5 39t-39.5 125q-72 -86 -167 -125t-206 -39q-72 0 -136.5 16.5t-111.5 52.5t-74.5 92.5t-27.5 135.5q0 90 30.5 147.5t81 93.5t115 54.5t131.5 30.5q72 14 136.5 21.5t113.5 20.5t77.5 39t28.5 75q0 57 -21.5 92t-55 53.5
t-75.5 24.5t-83 6q-111 0 -184.5 -42t-79.5 -159h-174q4 98 41 166t98 110t140 60t169 18q72 0 142.5 -10t128 -42t92.5 -89t35 -149v-545q0 -61 7 -90t48 -29q23 0 53 10v-135zM786 547q-33 -25 -86 -36t-111.5 -18.5t-117.5 -16.5t-106.5 -29.5t-77 -58.5t-29.5 -103
q0 -43 17.5 -73t45 -48.5t64.5 -26.5t78 -8q86 0 147.5 23.5t100.5 59.5t57 78t18 79v178zM209 1397h698v-113h-698v113z" />
    <glyph glyph-name="uni0102" unicode="&#x102;" horiz-adv-x="1327" 
d="M557 1462h215l571 -1462h-215l-159 440h-619l-164 -440h-200zM907 604l-243 682h-5l-247 -682h495zM449 1882q49 -170 229 -170q88 0 130 46t73 124h104q-23 -131 -105.5 -207t-217.5 -76q-141 0 -218 73t-98 210h103z" />
    <glyph glyph-name="uni0103" unicode="&#x103;" horiz-adv-x="1099" 
d="M1069 4q-47 -29 -125 -29q-68 0 -107.5 39t-39.5 125q-72 -86 -167 -125t-206 -39q-72 0 -136.5 16.5t-111.5 52.5t-74.5 92.5t-27.5 135.5q0 90 30.5 147.5t81 93.5t115 54.5t131.5 30.5q72 14 136.5 21.5t113.5 20.5t77.5 39t28.5 75q0 57 -21.5 92t-55 53.5
t-75.5 24.5t-83 6q-111 0 -184.5 -42t-79.5 -159h-174q4 98 41 166t98 110t140 60t169 18q72 0 142.5 -10t128 -42t92.5 -89t35 -149v-545q0 -61 7 -90t48 -29q23 0 53 10v-135zM786 547q-33 -25 -86 -36t-111.5 -18.5t-117.5 -16.5t-106.5 -29.5t-77 -58.5t-29.5 -103
q0 -43 17.5 -73t45 -48.5t64.5 -26.5t78 -8q86 0 147.5 23.5t100.5 59.5t57 78t18 79v178zM340 1493q49 -170 229 -170q88 0 130 46t73 124h105q-23 -131 -106 -207t-218 -76q-141 0 -218 73t-97 210h102z" />
    <glyph glyph-name="Aogonek" unicode="&#x104;" horiz-adv-x="1327" 
d="M1122 -428q-18 0 -50 3t-62.5 19.5t-53 50t-22.5 95.5q0 14 7 39.5t29.5 59.5t67.5 75t119 86h-29l-159 440h-619l-164 -440h-198l569 1462h215l571 -1462h-102q-51 -43 -84 -77t-51.5 -63.5t-25.5 -54t-7 -45.5q0 -33 18.5 -59.5t59.5 -26.5q47 0 75.5 16.5t51.5 45.5
l65 -37q-41 -72 -99.5 -99.5t-121.5 -27.5zM907 604l-243 682h-5l-247 -682h495z" />
    <glyph glyph-name="aogonek" unicode="&#x105;" horiz-adv-x="1099" 
d="M848 -428q-18 0 -50 3t-62.5 19.5t-53.5 50t-23 95.5q0 14 7.5 38.5t29 57.5t62.5 73t110 83q-72 33 -71 147q-72 -86 -167 -124t-206 -38q-72 0 -135.5 15.5t-111.5 51.5t-75.5 92.5t-27.5 135.5q0 90 30.5 147.5t81 93.5t115 54.5t131.5 30.5q72 14 136.5 21.5
t113.5 20.5t77.5 39t28.5 75q0 57 -21.5 92t-55 53.5t-75.5 24.5t-83 6q-111 0 -184.5 -42t-79.5 -159h-174q4 98 41 166t98 110t140 60t169 18q72 0 142.5 -10t128 -42t92.5 -89t35 -149v-545q0 -61 7 -90t48 -29q18 0 53 10v-135q-45 -27 -125 -27h-4q-84 -74 -112.5 -126
t-28.5 -91q0 -33 18.5 -59.5t59.5 -26.5q47 0 75.5 16.5t51.5 45.5l65 -37q-41 -72 -99.5 -99.5t-121.5 -27.5zM463 129q86 0 147.5 23.5t100.5 59.5t57 78t18 79v178q-33 -27 -86 -37t-111.5 -18.5l-117.5 -16.5t-106.5 -28.5t-77 -58.5t-29.5 -103q0 -43 17.5 -73
t45 -48.5t64.5 -26.5t78 -8z" />
    <glyph glyph-name="Cacute" unicode="&#x106;" horiz-adv-x="1478" 
d="M1188 1022q-33 156 -144.5 233.5t-265.5 77.5q-131 0 -224 -49t-153.5 -132t-89 -189.5t-28.5 -221.5q0 -125 28.5 -236.5t89 -194.5t154.5 -132t225 -49q96 0 171 32t129.5 88t85 134t36.5 168h195q-29 -276 -191 -430t-442 -154q-170 0 -297 58.5t-211 161t-126 241.5
t-42 299t45 300t132 244.5t217 165t298 60.5q115 0 217.5 -30.5t182.5 -90t133 -148.5t69 -206h-194v0zM1020 1860l-268 -293h-131l176 293h223z" />
    <glyph glyph-name="cacute" unicode="&#x107;" horiz-adv-x="1099" 
d="M850 719q-20 100 -86 155.5t-176 55.5q-94 0 -157.5 -35t-101.5 -92.5t-54.5 -132t-16.5 -154.5q0 -74 17.5 -143.5t54.5 -123.5t96 -87t141 -33q129 0 202 67.5t89 190.5h178q-29 -197 -146.5 -303.5t-320.5 -106.5q-121 0 -214 39t-155.5 111t-94 171t-31.5 218
t30.5 222.5t93 180t157 120.5t218.5 44q90 0 169 -21.5t139.5 -66.5t99.5 -113.5t49 -162.5h-180v0zM831 1497l-268 -293h-131l176 293h223z" />
    <glyph glyph-name="uni0108" unicode="&#x108;" horiz-adv-x="1478" 
d="M88 727q0 160 45 300t132 244.5t216 165t299 60.5q115 0 217.5 -30.5t182.5 -90t133 -148.5t69 -206h-194q-33 156 -144.5 233.5t-265.5 77.5q-131 0 -224 -49t-153.5 -132t-89 -189.5t-28.5 -221.5q0 -125 28.5 -236.5t89 -194.5t154.5 -132t225 -49q94 0 170 32
t130.5 88t85 134t36.5 168h195q-29 -276 -191 -431t-442 -155q-170 0 -297 59.5t-211 162t-126 241.5t-42 299zM684 1888h190l213 -293h-172l-141 197l-143 -197h-158z" />
    <glyph glyph-name="uni0109" unicode="&#x109;" horiz-adv-x="1099" 
d="M850 719q-20 100 -86 155.5t-176 55.5q-94 0 -157.5 -35t-101.5 -92.5t-54.5 -132t-16.5 -154.5q0 -74 17.5 -143.5t54.5 -123.5t95 -87t142 -33q129 0 202 67.5t89 190.5h178q-29 -197 -146.5 -304.5t-320.5 -107.5q-121 0 -214 40t-155.5 112t-94 171t-31.5 218
t30.5 222.5t93 180t155.5 120.5t220 44q90 0 169 -21.5t139.5 -66.5t99.5 -113.5t49 -162.5h-180zM487 1499h191l213 -293h-172l-141 197l-144 -197h-158z" />
    <glyph glyph-name="uni010A" unicode="&#x10a;" horiz-adv-x="1478" 
d="M88 727q0 160 45 300t132 244.5t216 165t299 60.5q115 0 217.5 -30.5t182.5 -90t133 -148.5t69 -206h-194q-33 156 -144.5 233.5t-265.5 77.5q-131 0 -224 -49t-153.5 -132t-89 -189.5t-28.5 -221.5q0 -125 28.5 -236.5t89 -194.5t154.5 -132t225 -49q94 0 170 32
t130.5 88t85 134t36.5 168h195q-29 -276 -191 -431t-442 -155q-170 0 -297 59.5t-211 162t-126 241.5t-42 299zM870 1624h-184v213h184v-213z" />
    <glyph glyph-name="uni010B" unicode="&#x10b;" horiz-adv-x="1099" 
d="M850 719q-20 100 -86 155.5t-176 55.5q-94 0 -157.5 -35t-101.5 -92.5t-54.5 -132t-16.5 -154.5q0 -74 17.5 -143.5t54.5 -123.5t95 -87t142 -33q129 0 202 67.5t89 190.5h178q-29 -197 -146.5 -304.5t-320.5 -107.5q-121 0 -214 40t-155.5 112t-94 171t-31.5 218
t30.5 222.5t93 180t155.5 120.5t220 44q90 0 169 -21.5t139.5 -66.5t99.5 -113.5t49 -162.5h-180zM674 1237h-185v213h185v-213z" />
    <glyph glyph-name="uni010C" unicode="&#x10c;" horiz-adv-x="1478" 
d="M88 727q0 160 45 300t132 244.5t216 165t299 60.5q115 0 217.5 -30.5t182.5 -90t133 -148.5t69 -206h-194q-33 156 -144.5 233.5t-265.5 77.5q-131 0 -224 -49t-153.5 -132t-89 -189.5t-28.5 -221.5q0 -125 28.5 -236.5t89 -194.5t154.5 -132t225 -49q94 0 170 32
t130.5 88t85 134t36.5 168h195q-29 -276 -191 -431t-442 -155q-170 0 -297 59.5t-211 162t-126 241.5t-42 299zM874 1595h-190l-213 293h172l141 -196l144 196h157z" />
    <glyph glyph-name="uni010D" unicode="&#x10d;" horiz-adv-x="1099" 
d="M850 719q-20 100 -86 155.5t-176 55.5q-94 0 -157.5 -35t-101.5 -92.5t-54.5 -132t-16.5 -154.5q0 -74 17.5 -143.5t54.5 -123.5t95 -87t142 -33q129 0 202 67.5t89 190.5h178q-29 -197 -146.5 -304.5t-320.5 -107.5q-121 0 -214 40t-155.5 112t-94 171t-31.5 218
t30.5 222.5t93 180t155.5 120.5t220 44q90 0 169 -21.5t139.5 -66.5t99.5 -113.5t49 -162.5h-180zM670 1206h-191l-213 293h172l142 -196l143 196h158z" />
    <glyph glyph-name="uni010E" unicode="&#x10e;" horiz-adv-x="1441" 
d="M160 1462h502q338 0 520 -172t182 -524q0 -184 -41 -326.5t-127 -240t-219 -148.5t-315 -51h-502v1462zM678 164q33 0 82 5t104.5 24.5t109.5 56.5t97 100.5t70.5 158.5t27.5 230q0 131 -25.5 234.5t-84 175.5t-150.5 110.5t-227 38.5h-328v-1134h324zM741 1595h-190
l-213 293h172l141 -196l144 196h157z" />
    <glyph glyph-name="uni010F" unicode="&#x10f;" horiz-adv-x="1214" 
d="M1077 0h-174v143h-4q-43 -88 -135 -128t-203 -40q-123 0 -214 45.5t-151.5 122t-91 177t-30.5 212.5q0 113 29.5 212.5t90 175t151.5 119.5t212 44q39 0 87 -8t95 -27.5t89 -51t71 -78.5h4v544h174v-1462zM258 520q0 -74 19.5 -144.5t59.5 -125.5t102.5 -88t146.5 -33
q88 0 149.5 35t100 91t56 128t17.5 145q0 78 -18.5 151t-58 128t-103 89t-154.5 34q-90 0 -150 -35t-97 -92.5t-53.5 -131t-16.5 -151.5zM1233 1462h223l-153 -293h-123z" />
    <glyph glyph-name="uni0110" unicode="&#x110;" horiz-adv-x="1441" 
d="M160 698h-144v131h144v633h502q338 0 520 -172t182 -524q0 -184 -41 -326.5t-127 -240t-219 -148.5t-315 -51h-502v698zM354 829h439v-131h-439v-534h324q33 0 82 5t104.5 24.5t109.5 56.5t97 100.5t70.5 158.5t27.5 230q0 131 -25.5 234.5t-84 175.5t-150.5 110.5
t-227 38.5h-328v-469z" />
    <glyph glyph-name="uni0111" unicode="&#x111;" horiz-adv-x="1224" 
d="M555 1303h348v159h174v-159h176v-109h-176v-1194h-174v143h-4q-43 -88 -135 -128t-203 -40q-123 0 -214 45.5t-151.5 122t-91 177t-30.5 212.5q0 113 29.5 212.5t90 175t151.5 119.5t212 44q39 0 87 -8t95 -27.5t89 -51t71 -78.5h4v276h-348v109zM258 520
q0 -74 19.5 -144.5t59.5 -125.5t102.5 -88t146.5 -33q88 0 149.5 35t100 91t56 128t17.5 145q0 78 -18.5 151t-58 128t-103 89t-154.5 34q-90 0 -150 -35t-97 -92.5t-53.5 -131t-16.5 -151.5z" />
    <glyph glyph-name="uni0112" unicode="&#x112;" horiz-adv-x="1251" 
d="M160 1462h1009v-164h-815v-464h760v-164h-760v-506h822v-164h-1016v1462zM305 1786h699v-113h-699v113z" />
    <glyph glyph-name="uni0113" unicode="&#x113;" horiz-adv-x="1099" 
d="M1034 336q-35 -178 -153.5 -269.5t-298.5 -91.5q-127 0 -220.5 42t-157 116t-95 176.5t-35.5 222.5q0 119 36.5 220.5t103.5 175t158 114.5t199 41q141 0 234.5 -58t150 -148.5t78 -197t17.5 -202.5h-793q-2 -70 16.5 -132t59.5 -110.5t104.5 -77t149.5 -28.5
q111 0 181.5 51t92.5 156h172zM866 631q-4 61 -27.5 116.5t-63.5 95.5t-94 63.5t-120 23.5q-68 0 -122 -23.5t-93 -64.5t-61.5 -95.5t-26.5 -115.5h608zM227 1397h699v-113h-699v113z" />
    <glyph glyph-name="uni0114" unicode="&#x114;" horiz-adv-x="1251" 
d="M160 1462h1009v-164h-815v-464h760v-164h-760v-506h822v-164h-1016v1462zM436 1882q49 -170 230 -170q88 0 130 46t72 124h105q-23 -131 -106 -207t-218 -76q-141 0 -218 73t-97 210h102z" />
    <glyph glyph-name="uni0115" unicode="&#x115;" horiz-adv-x="1099" 
d="M1034 336q-35 -178 -153.5 -269.5t-298.5 -91.5q-127 0 -220.5 42t-157 116t-95 176.5t-35.5 222.5q0 119 36.5 220.5t103.5 175t158 114.5t199 41q141 0 234.5 -58t150 -148.5t78 -197t17.5 -202.5h-793q-2 -70 16.5 -132t59.5 -110.5t104.5 -77t149.5 -28.5
q111 0 181.5 51t92.5 156h172zM866 631q-4 61 -27.5 116.5t-63.5 95.5t-94 63.5t-120 23.5q-68 0 -122 -23.5t-93 -64.5t-61.5 -95.5t-26.5 -115.5h608zM358 1493q49 -170 230 -170q88 0 130 46t73 124h104q-23 -131 -105.5 -207t-218.5 -76q-141 0 -218 73t-97 210h102z
" />
    <glyph glyph-name="uni0116" unicode="&#x116;" horiz-adv-x="1251" 
d="M160 1462h1009v-164h-815v-464h760v-164h-760v-506h822v-164h-1016v1462zM745 1624h-184v213h184v-213z" />
    <glyph glyph-name="uni0117" unicode="&#x117;" horiz-adv-x="1099" 
d="M1034 336q-35 -178 -153.5 -269.5t-298.5 -91.5q-127 0 -220.5 42t-157 116t-95 176.5t-35.5 222.5q0 119 36.5 220.5t103.5 175t158 114.5t199 41q141 0 234.5 -58t150 -148.5t78 -197t17.5 -202.5h-793q-2 -70 16.5 -132t59.5 -110.5t104.5 -77t149.5 -28.5
q111 0 181.5 51t92.5 156h172zM866 631q-4 61 -27.5 116.5t-63.5 95.5t-94 63.5t-120 23.5q-68 0 -122 -23.5t-93 -64.5t-61.5 -95.5t-26.5 -115.5h608zM668 1237h-185v213h185v-213z" />
    <glyph glyph-name="Eogonek" unicode="&#x118;" horiz-adv-x="1251" 
d="M954 -428q-18 0 -50 3t-62.5 19.5t-53 50t-22.5 95.5q0 14 7 39.5t29.5 59.5t67.5 75t119 86h-829v1462h1009v-164h-815v-464h760v-164h-760v-506h822v-164h-103q-51 -43 -84 -77t-51 -63.5t-25.5 -54t-7.5 -45.5q0 -33 18.5 -59.5t59.5 -26.5q47 0 75.5 16.5t51.5 45.5
l66 -37q-41 -72 -100 -99.5t-122 -27.5z" />
    <glyph glyph-name="eogonek" unicode="&#x119;" horiz-adv-x="1099" 
d="M512 -428q-18 0 -50 3t-62.5 19.5t-53 50t-22.5 95.5q0 12 6 36.5t25.5 56.5t57.5 70t101 79q-109 10 -190.5 55t-136 117.5t-83 169t-30.5 208.5q0 119 36.5 220.5t103.5 175t158 114.5t199 41q141 0 234.5 -58t150 -148.5t78 -197t17.5 -202.5h-793q-2 -70 16.5 -132
t59.5 -110.5t104.5 -77t149.5 -28.5q111 0 181.5 51t92.5 156h172q-35 -174 -146.5 -263t-281.5 -96q-86 -74 -114.5 -125t-28.5 -92q0 -33 18.5 -59.5t59.5 -26.5q47 0 75.5 16.5t51.5 45.5l65 -37q-41 -72 -99.5 -99.5t-121.5 -27.5zM866 631q-4 61 -27.5 116.5
t-63.5 95.5t-94 63.5t-120 23.5q-68 0 -122 -23.5t-93 -64.5t-61.5 -95.5t-26.5 -115.5h608z" />
    <glyph glyph-name="uni011A" unicode="&#x11a;" horiz-adv-x="1251" 
d="M160 1462h1009v-164h-815v-464h760v-164h-760v-506h822v-164h-1016v1462zM750 1595h-191l-213 293h172l141 -196l144 196h158z" />
    <glyph glyph-name="uni011B" unicode="&#x11b;" horiz-adv-x="1099" 
d="M1034 336q-35 -178 -153.5 -269.5t-298.5 -91.5q-127 0 -220.5 42t-157 116t-95 176.5t-35.5 222.5q0 119 36.5 220.5t103.5 175t158 114.5t199 41q141 0 234.5 -58t150 -148.5t78 -197t17.5 -202.5h-793q-2 -70 16.5 -132t59.5 -110.5t104.5 -77t149.5 -28.5
q111 0 181.5 51t92.5 156h172zM866 631q-4 61 -27.5 116.5t-63.5 95.5t-94 63.5t-120 23.5q-68 0 -122 -23.5t-93 -64.5t-61.5 -95.5t-26.5 -115.5h608zM668 1206h-191l-213 293h172l142 -196l143 196h158z" />
    <glyph glyph-name="uni011C" unicode="&#x11c;" horiz-adv-x="1554" 
d="M88 702q0 160 44 304.5t131 253t217 173t304 64.5q119 0 224.5 -27.5t188.5 -87t139.5 -150.5t76.5 -220h-194q-14 82 -53.5 143.5t-96.5 100t-130 58t-155 19.5q-133 0 -228 -53t-155.5 -140t-89 -199t-28.5 -228q0 -115 32.5 -220.5t96 -186.5t157 -129t215.5 -48
q113 0 202 37t149.5 101.5t91 151.5t26.5 187h-467v164h641v-770h-122l-52 182q-43 -57 -97 -98t-115.5 -67.5t-127 -39t-129.5 -12.5q-164 0 -293 61.5t-219 164t-137 235.5t-47 276zM696 1888h191l213 -293h-172l-142 197l-143 -197h-158z" />
    <glyph glyph-name="uni011D" unicode="&#x11d;" horiz-adv-x="1175" 
d="M1044 90q0 -262 -118.5 -391t-372.5 -129q-74 0 -150.5 16.5t-139 53t-103.5 96t-45 145.5h174q2 -47 29.5 -79.5t67.5 -53t87 -30t90 -9.5q86 0 145.5 30t98.5 82t56.5 125.5t17.5 164.5v69h-4q-45 -98 -136.5 -145t-193.5 -47q-119 0 -207 43t-147.5 116.5t-89 171
t-29.5 205.5q0 94 24.5 192.5t82 180.5t150.5 134t232 52q100 0 184 -44t132 -132h2v152h163v-969zM557 141q86 0 146.5 36t97.5 94.5t54 132t17 147.5q0 70 -16 137.5t-52 121.5t-93.5 87t-139.5 33q-84 0 -143 -32t-97 -85t-55.5 -122.5t-17.5 -145.5q0 -72 14.5 -143.5
t49 -130t92 -94.5t143.5 -36zM492 1499h190l213 -293h-172l-141 197l-144 -197h-157z" />
    <glyph glyph-name="uni011E" unicode="&#x11e;" horiz-adv-x="1554" 
d="M88 702q0 160 44 304.5t131 253t217 173t304 64.5q119 0 224.5 -27.5t188.5 -87t139.5 -150.5t76.5 -220h-194q-14 82 -53.5 143.5t-96.5 100t-130 58t-155 19.5q-133 0 -228 -53t-155.5 -140t-89 -199t-28.5 -228q0 -115 32.5 -220.5t96 -186.5t157 -129t215.5 -48
q113 0 202 37t149.5 101.5t91 151.5t26.5 187h-467v164h641v-770h-122l-52 182q-43 -57 -97 -98t-115.5 -67.5t-127 -39t-129.5 -12.5q-164 0 -293 61.5t-219 164t-137 235.5t-47 276zM573 1882q49 -170 230 -170q88 0 130 46t73 124h104q-23 -131 -105.5 -207t-218.5 -76
q-141 0 -217.5 73t-97.5 210h102z" />
    <glyph glyph-name="uni011F" unicode="&#x11f;" horiz-adv-x="1175" 
d="M1044 90q0 -262 -118.5 -391t-372.5 -129q-74 0 -150.5 16.5t-139 53t-103.5 96t-45 145.5h174q2 -47 29.5 -79.5t67.5 -53t87 -30t90 -9.5q86 0 145.5 30t98.5 82t56.5 125.5t17.5 164.5v69h-4q-45 -98 -136.5 -145t-193.5 -47q-119 0 -207 43t-147.5 116.5t-89 171
t-29.5 205.5q0 94 24.5 192.5t82 180.5t150.5 134t232 52q100 0 184 -44t132 -132h2v152h163v-969zM557 141q86 0 146.5 36t97.5 94.5t54 132t17 147.5q0 70 -16 137.5t-52 121.5t-93.5 87t-139.5 33q-84 0 -143 -32t-97 -85t-55.5 -122.5t-17.5 -145.5q0 -72 14.5 -143.5
t49 -130t92 -94.5t143.5 -36zM369 1493q49 -170 229 -170q88 0 130 46t73 124h104q-23 -131 -105.5 -207t-217.5 -76q-141 0 -218 73t-98 210h103z" />
    <glyph glyph-name="uni0120" unicode="&#x120;" horiz-adv-x="1554" 
d="M88 702q0 160 44 304.5t131 253t217 173t304 64.5q119 0 224.5 -27.5t188.5 -87t139.5 -150.5t76.5 -220h-194q-14 82 -53.5 143.5t-96.5 100t-130 58t-155 19.5q-133 0 -228 -53t-155.5 -140t-89 -199t-28.5 -228q0 -115 32.5 -220.5t96 -186.5t157 -129t215.5 -48
q113 0 202 37t149.5 101.5t91 151.5t26.5 187h-467v164h641v-770h-122l-52 182q-43 -57 -97 -98t-115.5 -67.5t-127 -39t-129.5 -12.5q-164 0 -293 61.5t-219 164t-137 235.5t-47 276zM881 1624h-185v213h185v-213z" />
    <glyph glyph-name="uni0121" unicode="&#x121;" horiz-adv-x="1175" 
d="M1044 90q0 -262 -118.5 -391t-372.5 -129q-74 0 -150.5 16.5t-139 53t-103.5 96t-45 145.5h174q2 -47 29.5 -79.5t67.5 -53t87 -30t90 -9.5q86 0 145.5 30t98.5 82t56.5 125.5t17.5 164.5v69h-4q-45 -98 -136.5 -145t-193.5 -47q-119 0 -207 43t-147.5 116.5t-89 171
t-29.5 205.5q0 94 24.5 192.5t82 180.5t150.5 134t232 52q100 0 184 -44t132 -132h2v152h163v-969zM557 141q86 0 146.5 36t97.5 94.5t54 132t17 147.5q0 70 -16 137.5t-52 121.5t-93.5 87t-139.5 33q-84 0 -143 -32t-97 -85t-55.5 -122.5t-17.5 -145.5q0 -72 14.5 -143.5
t49 -130t92 -94.5t143.5 -36zM678 1237h-184v213h184v-213z" />
    <glyph glyph-name="uni0122" unicode="&#x122;" horiz-adv-x="1554" 
d="M88 702q0 160 44 304.5t131 253t217 173t304 64.5q119 0 224.5 -27.5t188.5 -87t139.5 -150.5t76.5 -220h-194q-14 82 -53.5 143.5t-96.5 100t-130 58t-155 19.5q-133 0 -228 -53t-155.5 -140t-89 -199t-28.5 -228q0 -115 32.5 -220.5t96 -186.5t157 -129t215.5 -48
q113 0 202 37t149.5 101.5t91 151.5t26.5 187h-467v164h641v-770h-122l-52 182q-43 -57 -97 -98t-115.5 -67.5t-127 -39t-129.5 -12.5q-164 0 -293 61.5t-219 164t-137 235.5t-47 276zM657 -102h228v-158q0 -88 -55.5 -129t-147.5 -41v72q31 8 48.5 17t24.5 19.5t8 19.5
t1 19h-107v181z" />
    <glyph glyph-name="uni0123" unicode="&#x123;" horiz-adv-x="1175" 
d="M1044 90q0 -262 -118.5 -391t-372.5 -129q-74 0 -150.5 16.5t-139 53t-103.5 96t-45 145.5h174q2 -47 29.5 -79.5t67.5 -53t87 -30t90 -9.5q86 0 145.5 30t98.5 82t56.5 125.5t17.5 164.5v69h-4q-45 -98 -136.5 -145t-193.5 -47q-119 0 -207 43t-147.5 116.5t-89 171
t-29.5 205.5q0 94 24.5 192.5t82 180.5t150.5 134t232 52q100 0 184 -44t132 -132h2v152h163v-969zM557 141q86 0 146.5 36t97.5 94.5t54 132t17 147.5q0 70 -16 137.5t-52 121.5t-93.5 87t-139.5 33q-84 0 -143 -32t-97 -85t-55.5 -122.5t-17.5 -145.5q0 -72 14.5 -143.5
t49 -130t92 -94.5t143.5 -36zM698 1282h-227v158q0 88 55.5 129t147.5 41v-72q-31 -8 -48.5 -17.5t-24.5 -19.5t-8 -20.5t-1 -18.5h106v-180z" />
    <glyph glyph-name="uni0124" unicode="&#x124;" horiz-adv-x="1478" 
d="M160 1462h194v-628h770v628h195v-1462h-195v670h-770v-670h-194v1462zM639 1888h190l213 -293h-172l-141 197l-143 -197h-158z" />
    <glyph glyph-name="uni0125" unicode="&#x125;" 
d="M131 1462h174v-559h4q20 49 57 83t83.5 55.5t96.5 31.5t97 10q104 0 174 -28.5t113 -79.5t60.5 -122t17.5 -157v-696h-174v717q0 98 -57.5 155.5t-158.5 57.5q-80 0 -138 -24.5t-97 -69.5t-58.5 -105.5t-19.5 -132.5v-598h-174v1462zM457 1888h190l213 -293h-172
l-141 197l-144 -197h-157z" />
    <glyph glyph-name="uni0126" unicode="&#x126;" horiz-adv-x="1478" 
d="M160 1462h194v-295h770v295h195v-1462h-195v627h-770v-627h-194v1462zM1124 786v263h-770v-263h770z" />
    <glyph glyph-name="uni0127" unicode="&#x127;" horiz-adv-x="1148" 
d="M-35 1194v109h176v159h174v-159h349v-109h-349v-291h4q20 49 57.5 83t83.5 55.5t96 31.5t97 10q104 0 174 -28.5t113 -79.5t60.5 -122t17.5 -157v-696h-174v717q0 98 -57.5 155.5t-157.5 57.5q-80 0 -138.5 -24.5t-97.5 -69.5t-58.5 -105.5t-19.5 -132.5v-598h-174v1194
h-176z" />
    <glyph glyph-name="uni0128" unicode="&#x128;" horiz-adv-x="530" 
d="M168 1462h194v-1462h-194v1462zM623 1858q-12 -90 -66 -162q-27 -33 -60.5 -49.5t-80.5 -16.5q-43 0 -80 12.5t-74 28.5l-71.5 26.5t-63.5 12.5q-39 0 -64 -24q-12 -10 -19 -22.5t-17 -39.5h-107q20 94 70.5 159.5t146.5 65.5q41 0 78 -13t72 -28.5t68.5 -28t66.5 -12.5
q37 0 59.5 25t34.5 66h107z" />
    <glyph glyph-name="uni0129" unicode="&#x129;" horiz-adv-x="454" 
d="M141 0v1059h174v-1059h-174zM584 1468q-12 -90 -66 -161q-27 -33 -60.5 -49.5t-80.5 -16.5q-43 0 -80 12.5t-74 28.5l-71.5 26.5t-63.5 12.5q-39 0 -63 -25q-12 -10 -19.5 -22t-17.5 -39h-107q20 94 70.5 159.5t146.5 65.5q41 0 78 -13t72 -28.5t68.5 -28t66.5 -12.5
q37 0 59.5 24.5t34.5 65.5h107z" />
    <glyph glyph-name="uni012A" unicode="&#x12a;" horiz-adv-x="530" 
d="M168 1462h194v-1462h-194v1462zM-82 1786h698v-113h-698v113z" />
    <glyph glyph-name="uni012B" unicode="&#x12b;" horiz-adv-x="454" 
d="M141 0v1059h174v-1059h-174zM-119 1397h699v-113h-699v113z" />
    <glyph glyph-name="uni012C" unicode="&#x12c;" horiz-adv-x="530" 
d="M168 1462h194v-1462h-194v1462zM49 1882q49 -170 230 -170q88 0 130 46t72 124h105q-23 -131 -106 -207t-218 -76q-141 0 -218 73t-97 210h102z" />
    <glyph glyph-name="uni012D" unicode="&#x12d;" horiz-adv-x="454" 
d="M141 0v1059h174v-1059h-174zM12 1493q49 -170 230 -170q88 0 130 46t72 124h105q-23 -131 -106 -207t-218 -76q-141 0 -218 73t-97 210h102z" />
    <glyph glyph-name="uni012E" unicode="&#x12e;" horiz-adv-x="530" 
d="M168 1462h194v-1462q-47 -45 -76.5 -79t-46 -62.5t-23.5 -52t-7 -48.5q0 -39 18.5 -62.5t51.5 -23.5q39 0 65.5 16.5t48.5 45.5l58 -37q-39 -70 -85.5 -98.5t-101.5 -28.5q-74 0 -128 37t-54 123q0 23 8 52.5t30.5 64t62.5 73.5t106 80h-121v1462z" />
    <glyph glyph-name="uni012F" unicode="&#x12f;" horiz-adv-x="454" 
d="M315 1249h-174v213h174v-213zM141 0v1059h174v-1059q-47 -45 -76.5 -79t-46 -62.5t-23.5 -52t-7 -48.5q0 -39 18.5 -62.5t50.5 -23.5q39 0 66 16.5t49 45.5l57 -37q-39 -70 -85 -98.5t-101 -28.5q-74 0 -128 37t-54 123q0 23 8 52.5t30.5 64t62.5 73.5t106 80h-101z" />
    <glyph glyph-name="uni0130" unicode="&#x130;" horiz-adv-x="530" 
d="M168 1462h194v-1462h-194v1462zM358 1624h-184v213h184v-213z" />
    <glyph glyph-name="dotlessi" unicode="&#x131;" horiz-adv-x="454" 
d="M141 0h174v1059h-174v-1059z" />
    <glyph glyph-name="uni0132" unicode="&#x132;" horiz-adv-x="1576" 
d="M168 1462h194v-1462h-194v1462zM559 481h195v-61q0 -63 10 -116.5t35.5 -92.5t72 -60.5t117.5 -21.5q133 0 183.5 71.5t50.5 192.5v1069h194v-1097q0 -74 -21.5 -146t-71.5 -128t-133 -91t-206 -35q-205 0 -315.5 108.5t-110.5 317.5v90z" />
    <glyph glyph-name="uni0133" unicode="&#x133;" horiz-adv-x="897" 
d="M315 1249h-174v213h174v-213zM141 1059h174v-1059h-174v1059zM758 1249h-174v213h174v-213zM758 -135q0 -141 -68.5 -206t-185.5 -65q-49 0 -90 9v149q10 -2 18 -3t17 -1h36q57 0 78 32t21 114v1165h174v-1194z" />
    <glyph glyph-name="uni0134" unicode="&#x134;" horiz-adv-x="1062" 
d="M45 481h195v-61q0 -63 10 -116.5t35.5 -92.5t71.5 -60.5t118 -21.5q133 0 183.5 71.5t50.5 192.5v1069h194v-1097q0 -74 -21.5 -146t-71.5 -128t-133 -91t-206 -35q-205 0 -315.5 108.5t-110.5 317.5v90zM705 1888h190l213 -293h-172l-141 197l-144 -197h-157z" />
    <glyph glyph-name="uni0135" unicode="&#x135;" horiz-adv-x="454" 
d="M315 -135q0 -141 -68.5 -206t-185.5 -65q-49 0 -90 9v149q10 -2 18.5 -3t16.5 -1h37q57 0 77.5 32t20.5 114v1165h174v-1194zM131 1499h191l213 -293h-173l-141 197l-143 -197h-158z" />
    <glyph glyph-name="uni0136" unicode="&#x136;" horiz-adv-x="1366" 
d="M160 1462h194v-729l742 729h252l-617 -590l641 -872h-246l-528 739l-244 -227v-512h-194v1462zM594 -102h227v-158q0 -88 -55 -129t-148 -41v72q31 8 48.5 17t24.5 19.5t8 19.5t1 19h-106v181z" />
    <glyph glyph-name="uni0137" unicode="&#x137;" horiz-adv-x="1062" 
d="M141 1462h174v-866l484 463h233l-420 -385l451 -674h-221l-363 553l-164 -152v-401h-174v1462zM451 -102h227v-158q0 -88 -55.5 -129t-147.5 -41v72q31 8 48.5 17t24.5 19.5t8 19.5t1 19h-106v181z" />
    <glyph glyph-name="uni0138" unicode="&#x138;" horiz-adv-x="1052" 
d="M131 1059h174v-463l483 463h234l-420 -385l451 -674h-222l-362 553l-164 -152v-401h-174v1059z" />
    <glyph glyph-name="uni0139" unicode="&#x139;" 
d="M160 1462h194v-1298h774v-164h-968v1462zM367 1888h223l-268 -293h-132z" />
    <glyph glyph-name="uni013A" unicode="&#x13a;" horiz-adv-x="454" 
d="M141 1462h174v-1462h-174v1462zM309 1888h223l-268 -293h-131z" />
    <glyph glyph-name="uni013B" unicode="&#x13b;" 
d="M160 1462h194v-1298h774v-164h-968v1462zM518 -102h227v-158q0 -88 -55 -129t-147 -41v72q31 8 48 17t24.5 19.5t8.5 19.5t1 19h-107v181z" />
    <glyph glyph-name="uni013C" unicode="&#x13c;" horiz-adv-x="454" 
d="M141 1462h174v-1462h-174v1462zM115 -102h227v-158q0 -88 -55.5 -129t-147.5 -41v72q31 8 48.5 17t24.5 19.5t8 19.5t1 19h-106v181z" />
    <glyph glyph-name="uni013D" unicode="&#x13d;" 
d="M160 1462h194v-1298h774v-164h-968v1462zM618 1462h224l-154 -293h-123z" />
    <glyph glyph-name="uni013E" unicode="&#x13e;" horiz-adv-x="618" 
d="M141 1462h174v-1462h-174v1462zM453 1462h155v-540h-155v540z" />
    <glyph glyph-name="uni013F" unicode="&#x13f;" 
d="M160 1462h194v-1298h774v-164h-968v1462zM829 690h-184v213h184v-213z" />
    <glyph glyph-name="uni0140" unicode="&#x140;" horiz-adv-x="700" 
d="M141 1462h174v-1462h-174v1462zM645 690h-184v213h184v-213z" />
    <glyph glyph-name="Lslash" unicode="&#x141;" 
d="M160 492v-492h968v164h-774v467l467 327v156l-467 -328v676h-194v-815l-160 -115v-155z" />
    <glyph glyph-name="lslash" unicode="&#x142;" horiz-adv-x="454" 
d="M141 657v-657h174v797l144 114v146l-144 -115v520h-174v-657l-141 -115v-145z" />
    <glyph glyph-name="Nacute" unicode="&#x143;" horiz-adv-x="1478" 
d="M365 1462l770 -1186h4v1186h184v-1462h-213l-764 1174h-4v-1174h-184v1462h207zM1040 1860l-268 -293h-131l176 293h223z" />
    <glyph glyph-name="nacute" unicode="&#x144;" 
d="M295 1059v-168h4q109 193 344 192q104 0 174 -28.5t113 -79.5t60.5 -122t17.5 -157v-696h-174v717q0 98 -57.5 155.5t-158.5 57.5q-80 0 -138 -24.5t-97 -69.5t-58.5 -105.5t-19.5 -132.5v-598h-174v1059h164zM850 1497l-268 -293h-131l176 293h223z" />
    <glyph glyph-name="uni0145" unicode="&#x145;" horiz-adv-x="1478" 
d="M158 1462h207l770 -1186h4v1186h184v-1462h-213l-764 1174h-4v-1174h-184v1462zM621 -102h227v-158q0 -88 -55.5 -129t-147.5 -41v72q31 8 48.5 17t24.5 19.5t8 19.5t1 19h-106v181z" />
    <glyph glyph-name="uni0146" unicode="&#x146;" 
d="M131 1059h164v-168h4q109 193 344 192q104 0 174 -28.5t113 -79.5t60.5 -122t17.5 -157v-696h-174v717q0 98 -57.5 155.5t-158.5 57.5q-80 0 -138 -24.5t-97 -69.5t-58.5 -105.5t-19.5 -132.5v-598h-174v1059zM453 -102h227v-158q0 -88 -55.5 -129t-147.5 -41v72
q31 8 48.5 17t24.5 19.5t8 19.5t1 19h-106v181z" />
    <glyph glyph-name="uni0147" unicode="&#x147;" horiz-adv-x="1478" 
d="M158 1462h207l770 -1186h4v1186h184v-1462h-213l-764 1174h-4v-1174h-184v1462zM831 1595h-190l-213 293h172l141 -196l144 196h157z" />
    <glyph glyph-name="uni0148" unicode="&#x148;" 
d="M131 1059h164v-168h4q109 193 344 192q104 0 174 -28.5t113 -79.5t60.5 -122t17.5 -157v-696h-174v717q0 98 -57.5 155.5t-158.5 57.5q-80 0 -138 -24.5t-97 -69.5t-58.5 -105.5t-19.5 -132.5v-598h-174v1059zM668 1206h-191l-213 293h172l142 -196l143 196h158z" />
    <glyph glyph-name="uni0149" unicode="&#x149;" horiz-adv-x="1357" 
d="M350 1059h164v-168h4q109 193 344 192q104 0 174 -28.5t113 -79.5t60.5 -122t17.5 -157v-696h-174v717q0 98 -57.5 155.5t-157.5 57.5q-80 0 -138.5 -24.5t-97.5 -69.5t-58.5 -105.5t-19.5 -132.5v-598h-174v1059zM37 1462h227v-227q0 -61 -13 -115.5t-41 -95.5
t-71 -65.5t-100 -24.5v102q35 0 57.5 17.5t36.5 46t19.5 64.5t5.5 71h-121v227z" />
    <glyph glyph-name="uni014A" unicode="&#x14a;" horiz-adv-x="1478" 
d="M1139 -35l-793 1209h-4v-1174h-184v1462h207l770 -1186h4v1186h184v-1544q0 -90 -22.5 -151.5t-64.5 -100.5t-103.5 -55.5t-139.5 -16.5q-33 0 -77 4.5t-78 14.5v160q33 -6 68.5 -10.5t66.5 -4.5q45 0 76.5 8.5t51 29t29 57t9.5 96.5v16z" />
    <glyph glyph-name="uni014B" unicode="&#x14b;" 
d="M131 1059h164v-168h4q109 193 344 192q104 0 174 -28.5t113 -79.5t60.5 -122t17.5 -157v-798q0 -164 -79 -234t-216 -70q-31 0 -68 3.5t-65 11.5v149q29 -4 57.5 -7t56.5 -3q78 0 109 37t31 141v791q0 98 -57.5 155.5t-158.5 57.5q-80 0 -138 -24.5t-97 -69.5
t-58.5 -105.5t-19.5 -132.5v-598h-174v1059z" />
    <glyph glyph-name="uni014C" unicode="&#x14c;" horiz-adv-x="1556" 
d="M78 731q0 150 44 288t132 244.5t219 170t305 63.5t305 -63.5t219.5 -170t132.5 -244.5t44 -288t-44 -288t-132.5 -244.5t-219.5 -170t-305 -63.5t-305 63.5t-219 170t-132 244.5t-44 288zM272 731q0 -111 29 -218t90.5 -193.5t157.5 -138.5t229 -52t229.5 52t158 138.5
t90 194t28.5 217.5q0 111 -28.5 218.5t-90 193.5t-158 138t-229.5 52t-229 -52t-157.5 -138t-90.5 -193.5t-29 -218.5zM432 1786h698v-113h-698v113z" />
    <glyph glyph-name="uni014D" unicode="&#x14d;" horiz-adv-x="1175" 
d="M74 528q0 117 32.5 218.5t98 176t161 117.5t222.5 43q125 0 221 -43t161.5 -117.5t98.5 -176t33 -218.5t-33 -217t-98.5 -175t-161.5 -118t-221 -43q-127 0 -222.5 43t-161 118t-98 175t-32.5 217zM258 528q0 -96 25.5 -170.5t70.5 -125t105.5 -77t128.5 -26.5t128 26.5
t105 77t71 125t26 170.5t-26 171t-71 126.5t-105.5 78t-127.5 26.5q-68 0 -128.5 -26.5t-105.5 -78t-70.5 -126.5t-25.5 -171zM242 1397h698v-113h-698v113z" />
    <glyph glyph-name="uni014E" unicode="&#x14e;" horiz-adv-x="1556" 
d="M78 731q0 150 44 288t132 244.5t219 170t305 63.5t305 -63.5t219.5 -170t132.5 -244.5t44 -288t-44 -288t-132.5 -244.5t-219.5 -170t-305 -63.5t-305 63.5t-219 170t-132 244.5t-44 288zM272 731q0 -111 29 -218t90.5 -193.5t157.5 -138.5t229 -52t229.5 52t158 138.5
t90 194t28.5 217.5q0 111 -28.5 218.5t-90 193.5t-158 138t-229.5 52t-229 -52t-157.5 -138t-90.5 -193.5t-29 -218.5zM563 1882q49 -170 230 -170q88 0 130 46t72 124h105q-23 -131 -106 -207t-218 -76q-141 0 -218 73t-97 210h102z" />
    <glyph glyph-name="uni014F" unicode="&#x14f;" horiz-adv-x="1175" 
d="M74 528q0 117 32.5 218.5t98 176t161 117.5t222.5 43q125 0 221 -43t161.5 -117.5t98.5 -176t33 -218.5t-33 -217t-98.5 -175t-161.5 -118t-221 -43q-127 0 -222.5 43t-161 118t-98 175t-32.5 217zM258 528q0 -96 25.5 -170.5t70.5 -125t105.5 -77t128.5 -26.5t128 26.5
t105 77t71 125t26 170.5t-26 171t-71 126.5t-105.5 78t-127.5 26.5q-68 0 -128.5 -26.5t-105.5 -78t-70.5 -126.5t-25.5 -171zM373 1493q49 -170 229 -170q88 0 130 46t73 124h104q-23 -131 -105.5 -207t-217.5 -76q-141 0 -218 73t-98 210h103z" />
    <glyph glyph-name="uni0150" unicode="&#x150;" horiz-adv-x="1556" 
d="M78 731q0 150 44 288t132 244.5t219 170t305 63.5t305 -63.5t219.5 -170t132.5 -244.5t44 -288t-44 -288t-132.5 -244.5t-219.5 -170t-305 -63.5t-305 63.5t-219 170t-132 244.5t-44 288zM272 731q0 -111 29 -218t90.5 -193.5t157.5 -138.5t229 -52t229.5 52t158 138.5
t90 194t28.5 217.5q0 111 -28.5 218.5t-90 193.5t-158 138t-229.5 52t-229 -52t-157.5 -138t-90.5 -193.5t-29 -218.5zM1028 1888h215l-246 -293h-135zM709 1888h215l-246 -293h-135z" />
    <glyph glyph-name="uni0151" unicode="&#x151;" horiz-adv-x="1175" 
d="M74 528q0 117 32.5 218.5t98 176t161 117.5t222.5 43q125 0 221 -43t161.5 -117.5t98.5 -176t33 -218.5t-33 -217t-98.5 -175t-161.5 -118t-221 -43q-127 0 -222.5 43t-161 118t-98 175t-32.5 217zM258 528q0 -96 25.5 -170.5t70.5 -125t105.5 -77t128.5 -26.5t128 26.5
t105 77t71 125t26 170.5t-26 171t-71 126.5t-105.5 78t-127.5 26.5q-68 0 -128.5 -26.5t-105.5 -78t-70.5 -126.5t-25.5 -171zM838 1499h215l-246 -293h-135zM518 1499h215l-246 -293h-135z" />
    <glyph glyph-name="OE" unicode="&#x152;" horiz-adv-x="2199" 
d="M1128 141v-141h990v164h-795v506h717v164h-717v464h782v164h-977v-121h-4q-23 41 -62.5 70t-88.5 48.5t-103.5 28.5t-105.5 9q-162 0 -290 -58.5t-216 -161.5t-134 -243.5t-46 -306.5q0 -162 44 -300t129 -240.5t210 -161t287 -58.5q55 0 111 11.5t106.5 33t91.5 54
t67 75.5h4zM762 129q-119 0 -211 46t-153.5 126t-93.5 187.5t-32 230.5t31 234.5t92.5 196.5t153.5 134t217 49q117 0 204 -47t128 -110q23 -35 26.5 -72t3.5 -70v-616q0 -63 -28.5 -116.5t-77.5 -91.5t-115.5 -59.5t-144.5 -21.5z" />
    <glyph glyph-name="oe" unicode="&#x153;" horiz-adv-x="1824" 
d="M850 532q0 -72 -13.5 -143.5t-47 -129.5t-90 -94t-144.5 -36q-80 0 -137.5 34t-92 88t-51 121.5t-16.5 135.5q0 78 15.5 153.5t50 135t92 96.5t139.5 37q90 0 147.5 -35t90 -91t45 -127t12.5 -145zM1585 631h-584q-2 131 78 215t217 84t213 -82t76 -217zM1001 477h768
q6 125 -17 235.5t-80.5 192.5t-149.5 130t-226 48q-113 0 -216 -46t-158 -140q-53 111 -148.5 148.5t-218.5 37.5t-213 -43t-150.5 -117.5t-89 -175t-28.5 -217.5q0 -115 28.5 -215t87 -176t149.5 -119t216 -43q119 0 218 46.5t149 160.5q49 -115 150.5 -161t234.5 -46
q348 0 452 359h-166q-31 -98 -106.5 -152.5t-179.5 -54.5q-78 0 -136.5 28.5t-96.5 77t-56.5 110.5t-16.5 132z" />
    <glyph glyph-name="uni0154" unicode="&#x154;" horiz-adv-x="1402" 
d="M160 1462h688q209 0 326.5 -102.5t117.5 -280.5q0 -133 -60.5 -233.5t-193.5 -136.5v-4q63 -12 103.5 -41t64 -69t34.5 -89t17 -103q4 -53 6.5 -108t10.5 -108.5t23.5 -101.5t45.5 -85h-217q-20 23 -27 61.5t-9.5 87t-4.5 103.5t-12 108q-8 53 -20.5 101.5t-39 84.5
t-70.5 57.5t-114 21.5h-475v-625h-194v1462zM760 788q68 0 129 10.5t107 40t74 80t28 130.5q0 111 -61.5 180t-198.5 69h-484v-510h406zM745 1888h224l-269 -293h-131z" />
    <glyph glyph-name="uni0155" unicode="&#x155;" horiz-adv-x="681" 
d="M125 1059h164v-223h4q63 129 155.5 190t233.5 57v-184q-104 0 -178 -28.5t-119 -84t-65.5 -135.5t-20.5 -180v-471h-174v1059zM467 1499h223l-268 -293h-131z" />
    <glyph glyph-name="uni0156" unicode="&#x156;" horiz-adv-x="1402" 
d="M160 1462h688q209 0 326.5 -102.5t117.5 -280.5q0 -133 -60.5 -233.5t-193.5 -136.5v-4q63 -12 103.5 -41t64 -69t34.5 -89t17 -103q4 -53 6.5 -108t10.5 -108.5t23.5 -101.5t45.5 -85h-217q-20 23 -27 61.5t-9.5 87t-4.5 103.5t-12 108q-8 53 -20.5 101.5t-39 84.5
t-70.5 57.5t-114 21.5h-475v-625h-194v1462zM760 788q68 0 129 10.5t107 40t74 80t28 130.5q0 111 -61.5 180t-198.5 69h-484v-510h406zM604 -102h227v-158q0 -88 -55 -129t-147 -41v72q31 8 48 17t24.5 19.5t8.5 19.5t1 19h-107v181z" />
    <glyph glyph-name="uni0157" unicode="&#x157;" horiz-adv-x="681" 
d="M125 1059h164v-223h4q63 129 155.5 190t233.5 57v-184q-104 0 -178 -28.5t-119 -84t-65.5 -135.5t-20.5 -180v-471h-174v1059zM98 -102h228v-158q0 -88 -55.5 -129t-147.5 -41v72q31 8 48 17t24.5 19.5t8.5 19.5t1 19h-107v181z" />
    <glyph glyph-name="uni0158" unicode="&#x158;" horiz-adv-x="1402" 
d="M160 1462h688q209 0 326.5 -102.5t117.5 -280.5q0 -133 -60.5 -233.5t-193.5 -136.5v-4q63 -12 103.5 -41t64 -69t34.5 -89t17 -103q4 -53 6.5 -108t10.5 -108.5t23.5 -101.5t45.5 -85h-217q-20 23 -27 61.5t-9.5 87t-4.5 103.5t-12 108q-8 53 -20.5 101.5t-39 84.5
t-70.5 57.5t-114 21.5h-475v-625h-194v1462zM760 788q68 0 129 10.5t107 40t74 80t28 130.5q0 111 -61.5 180t-198.5 69h-484v-510h406zM758 1595h-191l-213 293h172l142 -196l143 196h158z" />
    <glyph glyph-name="uni0159" unicode="&#x159;" horiz-adv-x="681" 
d="M125 1059h164v-223h4q63 129 155.5 190t233.5 57v-184q-104 0 -178 -28.5t-119 -84t-65.5 -135.5t-20.5 -180v-471h-174v1059zM496 1206h-191l-213 293h172l142 -196l143 196h158z" />
    <glyph glyph-name="Sacute" unicode="&#x15a;" horiz-adv-x="1327" 
d="M1006 1034q-16 158 -113.5 228.5t-249.5 70.5q-61 0 -120.5 -12t-105.5 -41t-74 -77t-28 -120q0 -68 40 -109.5t106.5 -68t150.5 -44t171 -38t171 -48t150.5 -75t106.5 -119t40 -180.5q0 -117 -52 -199.5t-134 -135t-183.5 -76t-201.5 -23.5q-123 0 -232.5 31
t-192.5 93.5t-131 159.5t-48 230h184q0 -92 36 -158.5t94.5 -109.5t136 -63.5t159.5 -20.5q66 0 132.5 12.5t119.5 42t86 80.5t33 131q0 76 -40 123t-106.5 77t-150.5 48.5l-171 37.5t-171 45t-150.5 68t-106.5 108.5t-40 166.5q0 111 45 191.5t119.5 133t170 78t195.5 25.5
q113 0 209 -26.5t169 -84t115 -144.5t46 -208h-184v0zM965 1860l-269 -293h-131l176 293h224z" />
    <glyph glyph-name="sacute" unicode="&#x15b;" horiz-adv-x="1024" 
d="M238 334q2 -57 26.5 -97t64.5 -63.5t90 -34t103 -10.5q41 0 86 6t83 22.5t62.5 48.5t24.5 81q0 68 -51 102.5t-128 56t-167 39t-167 49t-128 89t-51 159.5q0 80 36 137.5t92 93.5t127 53t140 17q90 0 166 -15t134.5 -53t93 -102.5t40.5 -160.5h-174q-4 51 -26.5 84.5
t-57 54t-76.5 30t-85 9.5q-39 0 -79 -6t-73 -21.5t-53.5 -41t-20.5 -66.5q0 -45 32 -75t81 -49.5t110.5 -32.5t122.5 -28q66 -14 128.5 -34.5t110.5 -54.5t78 -85t30 -127q0 -96 -40 -159.5t-104.5 -102.5t-145.5 -54.5t-161 -15.5q-88 0 -168 18.5t-141.5 60.5t-98 111
t-41.5 167h175v0zM793 1497l-269 -293h-131l176 293h224z" />
    <glyph glyph-name="uni015C" unicode="&#x15c;" horiz-adv-x="1327" 
d="M1006 1034q-16 158 -113.5 228.5t-249.5 70.5q-61 0 -120.5 -12t-105.5 -41t-74 -77t-28 -120q0 -68 40 -109.5t106.5 -68t150.5 -44t171 -38t171 -48t150.5 -75t106.5 -119t40 -180.5q0 -117 -52 -199.5t-134 -135t-183.5 -77t-201.5 -24.5q-123 0 -232.5 31
t-192.5 94.5t-131 160.5t-48 230h184q0 -92 36 -158.5t94.5 -109.5t135 -63.5t160.5 -20.5q66 0 132.5 12.5t119.5 42t86 80.5t33 131q0 76 -40 123t-106.5 77t-150.5 48.5l-171 37.5t-171 45t-150.5 68t-106.5 108.5t-40 166.5q0 111 45 191.5t119.5 133t170 78t195.5 25.5
q113 0 209 -26.5t169 -84t115 -144.5t46 -208h-184zM569 1888h191l213 -293h-172l-142 197l-143 -197h-158z" />
    <glyph glyph-name="uni015D" unicode="&#x15d;" horiz-adv-x="1024" 
d="M238 334q2 -59 26.5 -98t64.5 -62.5t90 -34t103 -10.5q41 0 86 6t83 22.5t62.5 48.5t24.5 81q0 68 -51 102.5t-128 56t-167 39t-167 49t-128 89t-51 159.5q0 80 36 137.5t92 93.5t127 53t140 17q88 0 165 -15t135.5 -53t93 -102.5t40.5 -160.5h-174q-4 51 -26.5 84.5
t-57 54t-76.5 30t-85 9.5q-39 0 -79 -6t-73 -21.5t-53.5 -42t-20.5 -65.5q0 -47 32 -76t81 -48.5t110.5 -32.5t122.5 -28q66 -14 128.5 -34.5t110.5 -54.5t78 -85t30 -127q0 -96 -40 -159.5t-104.5 -102.5t-145.5 -55.5t-161 -16.5q-90 0 -169 19.5t-140.5 61.5t-98 111
t-41.5 167h175zM418 1499h190l213 -293h-172l-141 197l-143 -197h-158z" />
    <glyph glyph-name="uni015E" unicode="&#x15e;" horiz-adv-x="1327" 
d="M449 -301q68 -27 133 -27q41 0 79.5 14.5t38.5 49.5q0 29 -27.5 46t-68.5 17q-25 0 -43 -4t-41 -12l-35 57l101 131q-106 10 -199.5 46t-162 99.5t-108.5 153.5t-40 211h184q0 -92 36 -158.5t94.5 -109.5t135 -63.5t160.5 -20.5q66 0 132.5 12.5t119.5 42t86 80.5t33 131
q0 76 -40 123t-106.5 77t-150.5 48.5l-171 37.5t-171 45t-150.5 68t-106.5 108.5t-40 166.5q0 111 45 191.5t119.5 133t170 78t195.5 25.5q113 0 209 -26.5t169 -84t115 -144.5t46 -208h-184q-16 158 -113.5 228.5t-249.5 70.5q-61 0 -120.5 -12t-105.5 -41t-74 -77
t-28 -120q0 -68 40 -109.5t106.5 -68t150.5 -44t171 -38t171 -48t150.5 -75t106.5 -119t40 -180.5q0 -117 -52 -199.5t-134 -135t-183.5 -77t-201.5 -24.5h-12l-58 -74l4 -4q29 14 68 15q66 0 119 -37t53 -113q0 -51 -23.5 -86t-60.5 -56.5t-82 -30.5t-88 -9q-92 0 -188 39z
" />
    <glyph glyph-name="uni015F" unicode="&#x15f;" horiz-adv-x="1024" 
d="M299 -301q68 -27 133 -27q41 0 80 14.5t39 49.5q0 29 -27.5 46t-68.5 17q-25 0 -43.5 -4t-40.5 -12l-35 57l108 140q-78 6 -145.5 28.5t-118.5 65.5t-82.5 106.5t-34.5 153.5h175q2 -59 26.5 -98t64.5 -62.5t90 -34t103 -10.5q41 0 86 6t83 22.5t62.5 48.5t24.5 81
q0 68 -51 102.5t-128 56t-167 39t-167 49t-128 89t-51 159.5q0 80 36 137.5t92 93.5t127 53t140 17q88 0 165 -15t135.5 -53t93 -102.5t40.5 -160.5h-174q-4 51 -26.5 84.5t-57 54t-76.5 30t-85 9.5q-39 0 -79 -6t-73 -21.5t-53.5 -42t-20.5 -65.5q0 -47 32 -76t81 -48.5
t110.5 -32.5t122.5 -28q66 -14 128.5 -34.5t110.5 -54.5t78 -85t30 -127q0 -92 -39 -155.5t-100.5 -102.5t-139.5 -56.5t-158 -19.5l-65 -84l4 -4q29 14 67 15q66 0 119.5 -37t53.5 -113q0 -51 -24 -86t-60.5 -56.5t-81.5 -30.5t-88 -9q-92 0 -189 39z" />
    <glyph glyph-name="Scaron" unicode="&#x160;" horiz-adv-x="1327" 
d="M760 1567l211 293h-158l-143 -197l-142 197h-172l213 -293h191zM1006 1034h184q-4 121 -46 208t-115 144.5t-169 84t-209 26.5q-100 0 -195.5 -25.5t-170 -78t-119.5 -133t-45 -191.5q0 -100 40 -166.5t106.5 -108.5t150.5 -68t171 -45l171 -37.5t150.5 -48.5t106.5 -77
t40 -123q0 -80 -33 -131t-86 -80.5t-119.5 -42t-132.5 -12.5q-82 0 -159.5 20.5t-136 63.5t-94.5 109.5t-36 158.5h-184q0 -133 48 -230t131 -159.5t192.5 -93.5t232.5 -31q100 0 201.5 23.5t183.5 76t134 135.5t52 199q0 109 -40 180.5t-106.5 119t-150.5 75t-171 48
t-171 38t-150.5 44t-106.5 68.5t-40 109q0 72 28 120t74 77t105.5 41t120.5 12q152 0 249.5 -70.5t113.5 -228.5z" />
    <glyph glyph-name="scaron" unicode="&#x161;" horiz-adv-x="1024" 
d="M608 1204l211 293h-157l-144 -197l-141 197h-172l213 -293h190zM238 334h-175q4 -98 41 -167t98.5 -111t141.5 -60.5t168 -18.5q80 0 161 15.5t145.5 54.5t104.5 102.5t40 159.5q0 76 -30 127t-78 85t-110.5 54.5t-128.5 34.5l-122.5 27.5t-110.5 33t-81 49.5t-32 75
q0 41 20.5 66.5t53.5 41t73 21.5t79 6q43 0 85 -9.5t76.5 -30t57 -54t26.5 -84.5h174q-6 96 -40.5 160.5t-93 102.5t-134.5 53t-166 15q-70 0 -140.5 -17t-126.5 -53t-92 -93.5t-36 -137.5q0 -102 51 -159.5t128 -89t167 -49t167 -39t128 -56.5t51 -102q0 -49 -24.5 -81
t-62.5 -48.5t-83 -22.5t-86 -6q-53 0 -103 10.5t-90 34t-64.5 63.5t-26.5 97z" />
    <glyph glyph-name="uni0162" unicode="&#x162;" horiz-adv-x="1175" 
d="M492 1298h-488v164h1170v-164h-488v-1298h-194v1298zM473 -102h227v-158q0 -88 -55 -129t-147 -41v72q31 8 48 17t24.5 19.5t8.5 19.5t1 19h-107v181z" />
    <glyph glyph-name="uni0163" unicode="&#x163;" horiz-adv-x="645" 
d="M373 1059h211v-154h-211v-657q0 -31 5 -49.5t19.5 -28.5t40 -13t66.5 -3h80v-154h-133q-68 0 -116 9t-78 34t-44 70t-14 118v674h-181v154h181v317h174v-317zM211 -295q25 -10 58.5 -18.5t66.5 -8.5q20 0 42.5 3.5t41 11.5t31 19.5t12.5 29.5q0 29 -27.5 46t-68.5 17
q-25 0 -43.5 -4t-40.5 -12l-35 57l125 158h86l-86 -106l4 -4q20 14 67 14q66 0 119 -37t53 -113q0 -51 -23.5 -85.5t-60 -56.5t-81.5 -31t-89 -9q-49 0 -95 11.5t-93 27.5z" />
    <glyph glyph-name="uni0164" unicode="&#x164;" horiz-adv-x="1175" 
d="M492 1298h-488v164h1170v-164h-488v-1298h-194v1298zM682 1595h-190l-213 293h172l141 -196l143 196h158z" />
    <glyph glyph-name="uni0165" unicode="&#x165;" horiz-adv-x="645" 
d="M559 1462h223l-153 -293h-123zM373 1059h211v-154h-211v-657q0 -31 5 -49.5t19.5 -28.5t40 -13t66.5 -3h80v-154h-133q-68 0 -116 9t-78 34t-44 70t-14 118v674h-181v154h181v317h174v-317z" />
    <glyph glyph-name="uni0166" unicode="&#x166;" horiz-adv-x="1175" 
d="M201 997h291v301h-488v164h1170v-164h-488v-301h295v-125h-295v-872h-194v872h-291v125z" />
    <glyph glyph-name="uni0167" unicode="&#x167;" horiz-adv-x="645" 
d="M29 709h170v196h-181v154h181v317h174v-317h211v-154h-211v-196h194v-113h-194v-348q0 -31 5 -49.5t19.5 -28.5t40 -13t66.5 -3h80v-154h-133q-68 0 -116 9t-78 34t-44 70t-14 118v365h-170v113z" />
    <glyph glyph-name="uni0168" unicode="&#x168;" horiz-adv-x="1478" 
d="M1327 528q0 -281 -149.5 -422t-425.5 -141q-141 0 -253 33t-189 102.5t-117.5 176t-40.5 251.5v934h194v-934q0 -197 104.5 -298t301.5 -101q186 0 283.5 101.5t97.5 297.5v934h194v-934zM1098 1858q-12 -90 -66 -162q-27 -33 -60.5 -49.5t-80.5 -16.5q-43 0 -80 12.5
t-74 28.5l-71.5 26.5t-63.5 12.5q-39 0 -63 -24q-12 -10 -19.5 -22.5t-17.5 -39.5h-107q20 94 70.5 159.5t146.5 65.5q41 0 78 -13t72 -28.5t68.5 -28t66.5 -12.5q37 0 59.5 25t34.5 66h107z" />
    <glyph glyph-name="uni0169" unicode="&#x169;" 
d="M1008 0h-164v168h-4q-109 -193 -344 -193q-104 0 -174 29t-113 80t-60.5 121.5t-17.5 156.5v697h174v-717q0 -98 57.5 -155.5t157.5 -57.5q80 0 138.5 24.5t97.5 69.5t58.5 105.5t19.5 132.5v598h174v-1059zM924 1468q-12 -90 -66 -161q-27 -33 -60.5 -49.5t-80.5 -16.5
q-43 0 -80 12.5t-74 28.5l-71.5 26.5t-63.5 12.5q-39 0 -63 -25q-12 -10 -19.5 -22t-17.5 -39h-107q20 94 70.5 159.5t146.5 65.5q41 0 78 -13t72 -28.5t68.5 -28t66.5 -12.5q37 0 59.5 24.5t34.5 65.5h107z" />
    <glyph glyph-name="uni016A" unicode="&#x16a;" horiz-adv-x="1478" 
d="M1327 528q0 -281 -149.5 -422t-425.5 -141q-141 0 -253 33t-189 102.5t-117.5 176t-40.5 251.5v934h194v-934q0 -197 104.5 -298t301.5 -101q186 0 283.5 101.5t97.5 297.5v934h194v-934zM395 1786h699v-113h-699v113z" />
    <glyph glyph-name="uni016B" unicode="&#x16b;" 
d="M1008 0h-164v168h-4q-109 -193 -344 -193q-104 0 -174 29t-113 80t-60.5 121.5t-17.5 156.5v697h174v-717q0 -98 57.5 -155.5t157.5 -57.5q80 0 138.5 24.5t97.5 69.5t58.5 105.5t19.5 132.5v598h174v-1059zM221 1397h699v-113h-699v113z" />
    <glyph glyph-name="uni016C" unicode="&#x16c;" horiz-adv-x="1478" 
d="M1327 528q0 -281 -149.5 -422t-425.5 -141q-141 0 -253 33t-189 102.5t-117.5 176t-40.5 251.5v934h194v-934q0 -197 104.5 -298t301.5 -101q186 0 283.5 101.5t97.5 297.5v934h194v-934zM526 1882q49 -170 230 -170q88 0 130 46t72 124h105q-23 -131 -106 -207t-218 -76
q-141 0 -218 73t-97 210h102z" />
    <glyph glyph-name="uni016D" unicode="&#x16d;" 
d="M1008 0h-164v168h-4q-109 -193 -344 -193q-104 0 -174 29t-113 80t-60.5 121.5t-17.5 156.5v697h174v-717q0 -98 57.5 -155.5t157.5 -57.5q80 0 138.5 24.5t97.5 69.5t58.5 105.5t19.5 132.5v598h174v-1059zM352 1493q49 -170 230 -170q88 0 130 46t72 124h105
q-23 -131 -106 -207t-218 -76q-141 0 -218 73t-97 210h102z" />
    <glyph glyph-name="uni016E.low" unicode="&#x16e;" horiz-adv-x="1478" 
d="M1327 528q0 -281 -149.5 -422t-425.5 -141q-141 0 -253 33t-189 102.5t-117.5 176t-40.5 251.5v934h194v-934q0 -197 104.5 -298t301.5 -101q186 0 283.5 101.5t97.5 297.5v934h194v-934zM510 1702q0 47 18.5 89t50 72.5t73.5 49t89 18.5t89 -18.5t74 -49t50.5 -72.5
t18.5 -89t-18.5 -89t-50.5 -73t-74 -49t-89 -18t-89 18t-73.5 49t-50 73t-18.5 89zM604 1700q0 -59 39 -99t98 -40t98.5 39.5t39.5 99.5q0 59 -39 99t-99 40q-59 0 -98 -40t-39 -99z" />
    <glyph glyph-name="uni016F" unicode="&#x16f;" 
d="M1008 0h-164v168h-4q-109 -193 -344 -193q-104 0 -174 29t-113 80t-60.5 121.5t-17.5 156.5v697h174v-717q0 -98 57.5 -155.5t157.5 -57.5q80 0 138.5 24.5t97.5 69.5t58.5 105.5t19.5 132.5v598h174v-1059zM338 1395q0 47 18.5 89t50 72.5t73.5 49t89 18.5t89 -18.5
t74 -49t50.5 -72.5t18.5 -89t-18.5 -89t-50.5 -73t-74 -49.5t-89 -18.5t-89 18.5t-73.5 49.5t-50 73t-18.5 89zM432 1393q0 -59 39 -99.5t98 -40.5t98.5 40t39.5 100q0 59 -39 99t-99 40q-59 0 -98 -40t-39 -99z" />
    <glyph glyph-name="uni0170" unicode="&#x170;" horiz-adv-x="1478" 
d="M1327 528q0 -281 -149.5 -422t-425.5 -141q-141 0 -253 33t-189 102.5t-117.5 176t-40.5 251.5v934h194v-934q0 -197 104.5 -298t301.5 -101q186 0 283.5 101.5t97.5 297.5v934h194v-934zM991 1888h215l-245 -293h-136zM672 1888h215l-246 -293h-135z" />
    <glyph glyph-name="uni0171" unicode="&#x171;" 
d="M1008 0h-164v168h-4q-109 -193 -344 -193q-104 0 -174 29t-113 80t-60.5 121.5t-17.5 156.5v697h174v-717q0 -98 57.5 -155.5t157.5 -57.5q80 0 138.5 24.5t97.5 69.5t58.5 105.5t19.5 132.5v598h174v-1059zM817 1499h215l-246 -293h-135zM498 1499h215l-246 -293h-135z
" />
    <glyph glyph-name="uni0172" unicode="&#x172;" horiz-adv-x="1478" 
d="M1327 528q0 -260 -129 -400t-371 -159q-82 -72 -108.5 -121t-26.5 -90q0 -39 21.5 -62.5t62.5 -23.5q72 0 121 62l66 -37q-41 -72 -99.5 -99.5t-122.5 -27.5q-78 0 -133 37t-55 119q0 57 41 118.5t133 120.5q-135 2 -242.5 37t-181.5 104.5t-112.5 174t-38.5 247.5v934
h194v-934q0 -197 104.5 -298t301.5 -101q186 0 283.5 101.5t97.5 297.5v934h194v-934z" />
    <glyph glyph-name="uni0173" unicode="&#x173;" 
d="M1008 0h-82q-53 -43 -86 -78t-52.5 -63.5t-26.5 -53t-7 -47.5q0 -39 21.5 -62.5t62.5 -23.5q72 0 120 62l66 -37q-41 -72 -99.5 -99.5t-121.5 -27.5q-78 0 -133.5 37t-55.5 119q0 66 54.5 135t175.5 139v168h-4q-109 -193 -344 -193q-104 0 -174 29t-113 80t-60.5 121.5
t-17.5 156.5v697h174v-717q0 -98 57.5 -155.5t157.5 -57.5q80 0 138.5 24.5t97.5 69.5t58.5 105.5t19.5 132.5v598h174v-1059z" />
    <glyph glyph-name="uni0174" unicode="&#x174;" horiz-adv-x="1896" 
d="M1481 0h-203l-334 1229h-4l-338 -1229h-203l-374 1462h198l287 -1216h4l328 1216h211l323 -1216h4l297 1216h195zM854 1888h190l213 -293h-172l-141 197l-143 -197h-158z" />
    <glyph glyph-name="uni0175" unicode="&#x175;" horiz-adv-x="1552" 
d="M1180 0h-185l-215 842h-4l-213 -842h-188l-340 1059h192l240 -866h4l213 866h190l222 -866h4l237 866h181zM688 1499h191l213 -293h-172l-142 197l-143 -197h-158z" />
    <glyph glyph-name="uni0176" unicode="&#x176;" horiz-adv-x="1327" 
d="M764 598v-598h-195v598l-565 864h232l438 -696l428 696h221zM578 1888h190l213 -293h-172l-141 197l-144 -197h-157z" />
    <glyph glyph-name="uni0177" unicode="&#x177;" horiz-adv-x="1024" 
d="M547 -141q-31 -78 -60.5 -131.5t-65.5 -87t-80 -49t-101 -15.5q-31 0 -62 4t-59 14v160l50.5 -16t51.5 -8q53 0 86 24.5t58 71.5l71 180l-420 1053h197l309 -866h4l297 866h185zM428 1499h190l213 -293h-172l-141 197l-143 -197h-158z" />
    <glyph glyph-name="Ydieresis" unicode="&#x178;" horiz-adv-x="1327" 
d="M379 1788v-213h184v213h-184zM764 1788v-213h184v213h-184zM764 598l559 864h-221l-428 -696l-438 696h-232l565 -864v-598h195v598z" />
    <glyph glyph-name="Zacute" unicode="&#x179;" horiz-adv-x="1251" 
d="M954 1298h-839v164h1069v-164l-908 -1134h932v-164h-1163v164zM928 1860l-269 -293h-131l177 293h223z" />
    <glyph glyph-name="zacute" unicode="&#x17a;" horiz-adv-x="983" 
d="M684 905h-598v154h823v-119l-647 -786h676v-154h-893v133zM772 1497l-268 -293h-131l176 293h223z" />
    <glyph glyph-name="Zdotaccent" unicode="&#x17b;" horiz-adv-x="1251" 
d="M954 1298h-839v164h1069v-164l-908 -1134h932v-164h-1163v164zM532 1575v213h185v-213h-185z" />
    <glyph glyph-name="zdotaccent" unicode="&#x17c;" horiz-adv-x="983" 
d="M684 905h-598v154h823v-119l-647 -786h676v-154h-893v133zM399 1212v213h185v-213h-185z" />
    <glyph glyph-name="Zcaron" unicode="&#x17d;" horiz-adv-x="1251" 
d="M723 1567l211 293h-158l-143 -197l-141 197h-173l213 -293h191zM45 164v-164h1163v164h-932l908 1134v164h-1069v-164h839z" />
    <glyph glyph-name="zcaron" unicode="&#x17e;" horiz-adv-x="983" 
d="M588 1204l211 293h-158l-143 -197l-142 197h-172l213 -293h191zM45 133v-133h893v154h-676l647 786v119h-823v-154h598z" />
    <glyph glyph-name="uni017F" unicode="&#x17f;" horiz-adv-x="569" 
d="M354 924v-924h-178v924h-147v143h147v168q4 111 39 164q63 92 244 92q16 0 34.5 -1t41.5 -3v-164q-27 0 -40.5 1t-23.5 1q-82 0 -98.5 -43t-18.5 -358z" />
    <glyph glyph-name="uni0180" unicode="&#x180;" 
d="M641 119q162 0 234.5 115.5t72.5 287.5q0 203 -85 307.5t-220 104.5q-123 0 -206 -98.5t-83 -300.5q0 -201 81 -308.5t206 -107.5zM471 1038q84 51 207 52q221 0 341 -171t120 -407q0 -250 -131 -400.5t-312 -150.5q-111 0 -196.5 44t-149.5 145v-150h-162v1210h-133v119
h133v146h174v-146h334v-119h-334v-276q62 73 109 104z" />
    <glyph glyph-name="uni0182" unicode="&#x182;" horiz-adv-x="1366" 
d="M174 1468h1075v-180h-874v-440h461q223 0 329.5 -127t106.5 -299q0 -201 -120 -311.5t-316 -110.5h-662v1468zM950 203q121 57 121 219q0 143 -84 200.5t-217 57.5h-395v-510h395q114 0 180 33z" />
    <glyph glyph-name="uni0183" unicode="&#x183;" 
d="M119 1475h28v0h783v-181h-637v-354q59 78 141 119t178 41q199 0 324 -138.5t125 -406.5q0 -254 -123 -422t-340 -168q-123 0 -207 60q-49 35 -106 112v-137h-166v1475zM877 547q0 170 -73 280.5t-212 110.5q-123 0 -216 -91t-93 -300q0 -152 39 -246q70 -176 264 -176
q145 0 218 116t73 306z" />
    <glyph glyph-name="uni0186" unicode="&#x186;" horiz-adv-x="1478" 
d="M102 442h195q33 -143 131 -226t277 -83q217 0 351 152.5t134 468.5q0 258 -121 418.5t-360 160.5q-219 0 -334 -170q-61 -88 -92 -233h-195q27 231 172 389q176 188 473 188q256 0 430 -153q229 -205 230 -633q0 -326 -172 -535q-186 -225 -514 -225q-279 0 -433 147.5
t-172 333.5z" />
    <glyph glyph-name="uni0189" unicode="&#x189;" horiz-adv-x="1478" 
d="M33 864h133v604h561q365 0 530 -249q121 -184 121 -459q0 -246 -92 -436q-156 -324 -528 -324h-592v686h-133v178zM365 864h419v-178h-419v-516h356q100 0 166 20q115 39 188 152q59 88 86 227q14 82 15 154q0 272 -109 423.5t-348 151.5h-354v-434z" />
    <glyph glyph-name="uni018B" unicode="&#x18b;" horiz-adv-x="1366" 
d="M1272 0h-662q-195 0 -315.5 110.5t-120.5 311.5q0 172 107.5 299t328.5 127h463v440h-874v180h1073v-1468zM496 203q66 -33 182 -33h395v510h-395q-135 0 -218 -57.5t-83 -200.5q0 -162 119 -219z" />
    <glyph glyph-name="uni018C" unicode="&#x18c;" 
d="M1061 0h-166v137q-57 -78 -107 -112q-84 -59 -206 -60q-217 0 -340 168t-123 422q0 268 124 406.5t324 138.5q96 0 178 -41t142 -119v354h-637v181h780v0h31v-1475zM301 547q0 -190 72.5 -306t220.5 -116q193 0 264 176q37 94 37 246q0 209 -92 300t-215 91
q-141 0 -214 -110.5t-73 -280.5z" />
    <glyph glyph-name="uni018D" unicode="&#x18d;" horiz-adv-x="1161" 
d="M74 975q0 209 137 349t362 140q217 0 355.5 -134t138.5 -337q0 -252 -119 -409.5t-370 -157.5l383 -283v-163h-785v147h574l-424 315q-133 98 -192.5 230.5t-59.5 302.5zM569 1300q-152 0 -241.5 -107.5t-89.5 -270.5q0 -209 98 -289t231 -80h31q23 4 90.5 14.5t140 120
t72.5 252.5q0 156 -91 258t-241 102z" />
    <glyph glyph-name="uni018E" unicode="&#x18e;" horiz-adv-x="1366" 
d="M1262 0h-1088v174h893v498h-811v170h811v446h-877v180h1072v-1468z" />
    <glyph glyph-name="uni018F" unicode="&#x18f;" horiz-adv-x="1521" 
d="M758 -33q-180 0 -309.5 62.5t-211 169t-120.5 244t-39 288.5v40t4 40h1163q-12 104 -50 200.5t-100.5 168t-150.5 114.5t-201 43q-80 0 -151.5 -21.5t-130 -61.5t-101.5 -94t-65 -120h-193q20 111 83 196t150 143.5t192.5 88t211.5 29.5q172 0 304.5 -61.5t221.5 -166
t134 -244.5t45 -296q0 -180 -53.5 -321.5t-145.5 -239.5t-217 -149.5t-270 -51.5zM750 125q113 0 202.5 40t155.5 109.5t102.5 166t42.5 208.5h-979q6 -92 34 -185t85.5 -169t144.5 -123t212 -47z" />
    <glyph glyph-name="uni0190" unicode="&#x190;" horiz-adv-x="1095" 
d="M551 102q131 0 219 107q78 96 92 233h150q-12 -199 -127 -333q-133 -158 -355 -158q-190 0 -317 141q-121 137 -121 330q0 133 37 213q43 92 152 151q-152 127 -152 304q0 195 107 313q111 121 303 121q209 0 329 -144q115 -137 115 -348l-147 -2q0 127 -78 232
q-86 113 -209 112q-119 0 -187.5 -68.5t-68.5 -189.5q0 -158 90 -217q68 -45 233 -47v-147q-49 4 -71 4q-293 0 -293 -277q0 -145 76 -233q82 -97 223 -97z" />
    <glyph glyph-name="uni0191" unicode="&#x191;" horiz-adv-x="1251" 
d="M2 -270q121 4 145.5 21.5t24.5 109.5v1206h2v401h1020v-180h-819v-444h721v-176h-721v-828q0 -117 -39 -174q-84 -98 -260 -98q-14 0 -28.5 1t-45.5 5v156z" />
    <glyph glyph-name="florin" unicode="&#x192;" 
d="M979 1309l29 153h-152q-131 0 -212 -73.5t-103 -190.5l-54 -278h-186l-27 -140h189l-144 -755q-12 -70 -28.5 -111t-46 -62.5t-79.5 -27.5t-130 -6l-29 -154h135q86 0 147.5 22.5t107.5 78t78 147.5t56 231l113 637h205l29 140h-209l63 282q12 53 42 80t85 27h121z" />
    <glyph glyph-name="uni0196" unicode="&#x196;" horiz-adv-x="454" 
d="M412 -25l-45.5 -3t-26.5 -1q-176 0 -240 99q-39 57 -39 174v1224h181v-1206q0 -92 24.5 -109.5t145.5 -21.5v-156z" />
    <glyph glyph-name="uni0197" unicode="&#x197;" horiz-adv-x="698" 
d="M35 920h231v548h180v-548h230v-117h-230v-803h-180v803h-231v117z" />
    <glyph glyph-name="uni019A" unicode="&#x19a;" horiz-adv-x="698" 
d="M35 920h231v548h180v-548h230v-117h-230v-803h-180v803h-231v117z" />
    <glyph glyph-name="uni019B" unicode="&#x19b;" 
d="M131 1141l256 71l-4 15q-39 100 -123 96h-65v150q41 10 102 10q104 0 156 -53q49 -55 94 -173l289 82v-116l-246 -72l373 -920q14 -31 34 -57q20 -27 54 -27h51v-147h-105q-147 0 -202 152l-250 659l-309 -811h-199l420 1030l-29 76l-297 -84v119z" />
    <glyph glyph-name="uni019D" unicode="&#x19d;" horiz-adv-x="1478" 
d="M-14 -270q121 4 145.5 21.5t24.5 109.5v1607h235l742 -1189v1189h190v-1468h-223l-754 1190v-1190h-10v-160q0 -117 -37 -174q-63 -98 -240 -98q-14 0 -28.5 1t-44.5 5v156z" />
    <glyph glyph-name="uni019E" unicode="&#x19e;" 
d="M131 1071h172v-151q76 94 161 135t189 41q227 0 308 -160q45 -86 45 -250v-1083h-185v1073q0 96 -28 158q-47 100 -175 100q-63 0 -104 -14q-74 -23 -131 -89q-43 -53 -57.5 -109t-14.5 -161v-561h-180v1071z" />
    <glyph glyph-name="uni019F" unicode="&#x19f;" horiz-adv-x="1593" 
d="M1366 1260q145 -195 145 -500q0 -330 -165 -547q-197 -256 -560 -256q-340 0 -532 223q-174 217 -174 547q0 297 147 510q190 272 564 272q389 1 575 -249zM410 301q123 -166 401 -166q262 0 379 189q94 152 113 340h-1016q12 -211 123 -363zM1171 1174
q-135 158 -368 157q-229 0 -373 -155q-121 -131 -139 -365h1016q-13 222 -136 363z" />
    <glyph glyph-name="uni01A0" unicode="&#x1a0;" horiz-adv-x="1820" 
d="M1511 760q0 -330 -165 -547q-197 -256 -560 -256q-340 0 -532 223q-174 217 -174 547q0 297 147 510q190 272 564 272q362 0 550 -221q29 -6 68 2q47 2 86 19l12 6q4 2 11 8l-41 98l200 84l82 -196l-186 -78q-84 -35 -162 -41q100 -176 100 -430zM1309 758
q0 258 -136.5 415.5t-369.5 157.5q-229 0 -372.5 -155.5t-143.5 -460.5q0 -246 122.5 -413t401.5 -167q262 0 380 188.5t118 434.5z" />
    <glyph glyph-name="uni01A1" unicode="&#x1a1;" horiz-adv-x="1384" 
d="M1057 557q0 -258 -126 -427t-390 -169q-221 0 -351.5 149.5t-130.5 401.5q0 270 137.5 430t366.5 160q207 0 350 -137q25 -23 43 -50q14 0 33 5q47 4 86 18l12 6q4 2 11 8l-41 101l200 84l82 -199l-188 -78q-72 -31 -141 -39q47 -110 47 -264zM868 553q0 150 -47 244
q-76 147 -262 147q-166 0 -240.5 -126t-74.5 -304q0 -170 74.5 -283.5t238.5 -113.5q178 0 244.5 135t66.5 301z" />
    <glyph glyph-name="uni01A2" unicode="&#x1a2;" horiz-adv-x="1644" 
d="M1290 1298h-153v-1241q-61 -35 -153.5 -62.5t-205.5 -27.5q-174 0 -305 62.5t-219 169t-132 244t-44 288.5q0 150 44 288t132 244.5t219 170t305 63.5q133 0 236 -35h471v-1865h-195v1701zM778 129q16 0 39 2t45.5 5t44 8.5t35.5 9.5v1155q-31 8 -67.5 16t-96.5 8
q-133 0 -229 -52t-157.5 -138t-90.5 -193.5t-29 -218.5t29 -218t90.5 -193.5t157.5 -138.5t229 -52z" />
    <glyph glyph-name="uni01A3" unicode="&#x1a3;" horiz-adv-x="1314" 
d="M1010 905h-136v-852q-59 -37 -129.5 -56.5t-156.5 -19.5q-127 0 -222.5 42t-161 117t-98 175.5t-32.5 216.5q0 117 32.5 218.5t98 176t161 117.5t222.5 43q94 0 172 -24h424v-1462h-174v1308zM588 129q55 0 112 21v759q-57 20 -112 21q-68 0 -128.5 -26.5t-105.5 -78
t-70.5 -126t-25.5 -171.5q0 -96 25.5 -170.5t70.5 -125t105.5 -77t128.5 -26.5z" />
    <glyph glyph-name="uni01A6" unicode="&#x1a6;" horiz-adv-x="1306" 
d="M51 1468h201v-198h479q168 0 279 -49q207 -94 207 -349q0 -131 -54.5 -215t-152.5 -135q86 -35 129 -92t49 -184l6 -199q2 -84 14 -125q18 -70 64 -90v-33h-244q-10 20 -16 50t-11 116l-12 246q-6 143 -106 192q-57 27 -178 27h-453v-430h-201v1468zM711 596
q141 0 222 56.5t81 201.5q0 158 -115 213q-59 31 -162 31h-485v-502h459z" />
    <glyph glyph-name="uni01A7" unicode="&#x1a7;" horiz-adv-x="1366" 
d="M1268 473q2 -238 -154 -377q-154 -139 -428 -139q-236 0 -413 105.5t-177 349.5q0 195 140 299q82 57 231 92l205 47q209 47 266 80q90 51 90 157q0 98 -77 172t-253 74q-217 0 -309 -114q-47 -63 -63 -181h-187q0 244 162 355.5t391 111.5q252 0 389.5 -127t137.5 -323
q0 -184 -142 -277q-80 -53 -274 -96l-201 -45q-162 -37 -237 -86q-74 -51 -74 -172q0 -160 178 -221q90 -33 203 -33q250 0 350 145q51 78 57 203h189z" />
    <glyph glyph-name="uni01A8" unicode="&#x1a8;" horiz-adv-x="1024" 
d="M950 336q-8 -160 -107.5 -268.5t-336.5 -108.5q-223 0 -331.5 104.5t-108.5 245.5q0 150 104 217q68 45 260 92l121 29q78 18 117 43q70 43 69 113q0 63 -52 102t-155 39q-154 0 -215 -70q-39 -51 -43 -110h-170q-2 102 66 192q106 143 348 144q184 0 294 -94.5
t110 -245.5q0 -129 -115 -203q-66 -43 -203 -76l-143 -37q-115 -29 -154 -51q-61 -35 -61 -104q0 -90 75.5 -134t176.5 -44q168 0 235 88q37 47 45 137h174z" />
    <glyph glyph-name="uni01A9" unicode="&#x1a9;" horiz-adv-x="1175" 
d="M57 164l596 567l-551 569v164h992v-164h-760l551 -569l-596 -567h829v-164h-1061v164z" />
    <glyph glyph-name="uni01AE" unicode="&#x1ae;" horiz-adv-x="1251" 
d="M358 -270q121 4 145.5 21.5t24.5 109.5v1433h-495v174h1192v-174h-496v-1454q0 -117 -37 -174q-86 -98 -262 -98q-12 0 -26.5 1t-45.5 5v156z" />
    <glyph glyph-name="uni01AF" unicode="&#x1af;" horiz-adv-x="1765" 
d="M373 1468v-907q0 -160 59 -266q88 -160 299 -160q254 0 344 172q49 94 49 254v907h203v-127q16 0 37 5q47 4 86 20l10 4q6 2 10 8l-40 101l200 84l82 -199l-186 -78q-102 -43 -199 -41v-602q0 -270 -74 -416q-133 -266 -505 -266q-371 0 -504 266q-74 145 -74 416v825
h203z" />
    <glyph glyph-name="uni01B0" unicode="&#x1b0;" horiz-adv-x="1429" 
d="M311 1071v-711q0 -82 27 -135q47 -96 178 -96q188 0 256 170q39 88 39 246v526h178v-156q20 0 45 5q47 4 86 18l13 6q4 2 10 8l-41 101l201 84l81 -199l-188 -78q-106 -45 -207 -41v-819h-170l2 158q-35 -61 -86 -103q-102 -84 -250 -84q-229 0 -313 154q-45 82 -45 217
v729h184z" />
    <glyph glyph-name="uni01B1" unicode="&#x1b1;" horiz-adv-x="1546" 
d="M1274 692q0 193 -102.5 373t-274.5 254v166h561v-164h-373q123 -49 248 -216t125 -413q0 -303 -177 -497.5t-511 -194.5t-511 193.5t-177 498.5q0 246 124 413t249 216h-373v164h561v-166q-172 -74 -274.5 -252t-102.5 -375q0 -223 134.5 -365.5t365.5 -142.5
q238 0 373 141.5t135 366.5z" />
    <glyph glyph-name="uni01B5" unicode="&#x1b5;" horiz-adv-x="1251" 
d="M45 164l406 506h-271v164h402l372 464h-839v164h1069v-164l-373 -464h299v-164h-430l-404 -506h932v-164h-1163v164z" />
    <glyph glyph-name="uni01B6" unicode="&#x1b6;" horiz-adv-x="983" 
d="M45 133l287 348h-168v154h295l225 270h-598v154h823v-119l-252 -305h166v-154h-293l-268 -327h676v-154h-893v133z" />
    <glyph glyph-name="uni01B7" unicode="&#x1b7;" horiz-adv-x="1124" 
d="M256 831l551 474h-762v163h993v-163l-360 -312q152 -27 256 -147q137 -158 137 -440q0 -229 -154.5 -322.5t-365.5 -93.5q-186 0 -337 98t-179 311h174q25 -119 121 -187.5t207 -68.5q145 0 243.5 50.5t98.5 209.5q0 160 -60.5 299.5t-232.5 139.5l-99 -11h-231z" />
    <glyph glyph-name="uni01B8" unicode="&#x1b8;" horiz-adv-x="1124" 
d="M639 831l-98 11q-172 0 -233.5 -139.5t-61.5 -299.5t98 -210t244 -50q113 0 208 69t119 187h177q-31 -213 -180.5 -311t-338.5 -98q-209 0 -364.5 93t-155.5 323q0 283 137 440q106 121 256 147l-360 312v163h993v-163h-760l551 -474h-231z" />
    <glyph glyph-name="uni01B9" unicode="&#x1b9;" horiz-adv-x="1024" 
d="M637 428l-98 10q-172 0 -233.5 -138t-61.5 -300q0 -160 93 -220.5t238 -60.5q113 0 163 79t75 198h176q-31 -213 -135 -321.5t-293 -108.5q-209 0 -359.5 103.5t-150.5 332.5q0 283 137 440q106 121 256 148l-358 311v166h891v-166h-660l551 -473h-231z" />
    <glyph glyph-name="uni01BB" unicode="&#x1bb;" horiz-adv-x="1159" 
d="M406 571l192 111q127 76 180 129q82 82 82 188q0 125 -74.5 199t-199.5 74q-186 0 -256 -139q-39 -76 -43 -209h-183q2 186 68 305q119 209 414 209q246 0 359.5 -133.5t113.5 -296.5q0 -172 -121 -293q-70 -72 -252 -172l-135 -76q-98 -55 -156 -105q-98 -86 -125 -192
h783v-170h-983q10 184 76.5 321t259.5 250zM127 635v141h979v-141h-979z" />
    <glyph glyph-name="uni01C0" unicode="&#x1c0;" horiz-adv-x="532" 
d="M352 0h-170v1491h170v-1491z" />
    <glyph glyph-name="uni01C1" unicode="&#x1c1;" horiz-adv-x="882" 
d="M352 0h-170v1491h170v-1491zM702 0h-170v1491h170v-1491z" />
    <glyph glyph-name="uni01C2" unicode="&#x1c2;" horiz-adv-x="1163" 
d="M1085 1001v-167h-446v-261h446v-172h-446v-401h-170v401h-426v172h426v261h-426v167h426v490h170v-490h446z" />
    <glyph glyph-name="uni01C3" unicode="&#x1c3;" horiz-adv-x="569" 
d="M195 1468h202v-483l-49 -635h-100l-53 635v483zM195 209h198v-209h-198v209z" />
    <glyph glyph-name="uni01C4" unicode="&#x1c4;" horiz-adv-x="2529" 
d="M672 170q100 0 166 20q115 39 188 152q59 88 86 227q14 82 14 154q0 272 -108.5 423.5t-347.5 151.5h-355v-1128h357zM117 1468h594q303 0 471 -215q147 -193 147 -495q0 -236 -88 -424q-154 -334 -532 -334h-592v1468zM1307 170l901 1128h-836v177h1092v-172l-905 -1123
h905v-176h-1157v166zM1972 1591h-188l-205 289h164l135 -192l135 192h164z" />
    <glyph glyph-name="uni01C5" unicode="&#x1c5;" horiz-adv-x="2240" 
d="M635 170q100 0 166 20q115 39 188 152q59 88 86 227q14 82 15 154q0 272 -109 423.5t-348 151.5h-354v-1128h356zM80 1468h594q303 0 471 -215q147 -193 147 -495q0 -236 -88 -424q-154 -334 -532 -334h-592v1468zM1313 141l635 768h-588v162h829v-147l-630 -762h649
v-162h-895v141zM1876 1196h-190l-203 291h162l135 -193l135 193h164z" />
    <glyph glyph-name="uni01C6" unicode="&#x1c6;" horiz-adv-x="2011" 
d="M553 119q125 0 206 107.5t81 308.5q0 203 -83 301t-206 98q-135 0 -220 -104.5t-85 -307.5q0 -172 72.5 -287.5t234.5 -115.5zM723 1038q47 -31 108 -104v541h175v-1475h-162v150q-63 -100 -149.5 -144.5t-196.5 -44.5q-180 0 -311.5 150.5t-131.5 400.5q0 236 120 407
t341 171q123 -1 207 -52zM1083 141l635 768h-588v162h832v-147l-633 -762h651v-162h-897v141zM1667 1192h-188l-203 289h162l135 -193l135 193h164z" />
    <glyph glyph-name="uni01C7" unicode="&#x1c7;" horiz-adv-x="2009" 
d="M106 1468h199v-1294h746v-174h-945v1468zM1958 438q0 -186 -55 -288q-102 -188 -390 -189q-164 0 -281.5 89t-117.5 319v104h189v-104q0 -119 53 -180.5t166 -61.5q160 0 209 111q29 66 28 251v979h199v-1030z" />
    <glyph glyph-name="uni01C8" unicode="&#x1c8;" horiz-adv-x="1447" 
d="M113 1468h198v-1294h746v-174h-944v1468zM1399 1262h-180v206h180v-206zM1049 -270q121 4 145.5 21.5t24.5 109.5v1206h180v-1227q0 -117 -39 -174q-63 -98 -240 -98q-12 0 -26.5 1t-44.5 5v156z" />
    <glyph glyph-name="uni01C9" unicode="&#x1c9;" horiz-adv-x="759" 
d="M88 1468h180v-1468h-180v1468zM709 1262h-181v206h181v-206zM358 -270q121 4 145.5 21.5t24.5 109.5v1206h181v-1227q0 -117 -39 -174q-63 -98 -240 -98q-12 0 -26.5 1t-45.5 5v156z" />
    <glyph glyph-name="uni01CA" unicode="&#x1ca;" horiz-adv-x="2279" 
d="M113 1468h235l742 -1189v1189h190v-1468h-223l-754 1190v-1190h-190v1468zM2189 465q0 -186 -55 -289q-100 -188 -387 -188q-166 0 -282.5 90t-116.5 317v107h188v-107q0 -119 53 -179t166 -60q160 0 207 108q31 68 31 252v979h196v-1030z" />
    <glyph glyph-name="uni01CB" unicode="&#x1cb;" horiz-adv-x="1775" 
d="M106 1468h236l741 -1189v1189h191v-1468h-223l-754 1190v-1190h-191v1468zM1733 1262h-181v206h181v-206zM1382 -270q121 4 145.5 21.5t24.5 109.5v1206h181v-1227q0 -117 -39 -174q-63 -98 -240 -98q-12 0 -26.5 1t-45.5 5v156z" />
    <glyph glyph-name="uni01CC" unicode="&#x1cc;" horiz-adv-x="1441" 
d="M84 1071h170v-151q76 94 161 135t189 41q227 0 307 -160q45 -86 45 -250v-686h-184v676q0 96 -29 158q-47 100 -174 100q-63 0 -104 -14q-74 -23 -129 -89q-45 -53 -59.5 -109t-14.5 -161v-561h-178v1071zM1393 1262h-181v206h181v-206zM1042 -270q121 4 145.5 21.5
t24.5 109.5v1206h181v-1227q0 -117 -39 -174q-63 -98 -240 -98q-12 0 -26.5 1t-45.5 5v156z" />
    <glyph glyph-name="uni01CD" unicode="&#x1cd;" horiz-adv-x="1366" 
d="M909 602l-223 649l-235 -649h458zM584 1468h225l532 -1468h-219l-147 440h-582l-160 -440h-202zM821 1579h-190l-203 291h164l133 -193l135 193h164z" />
    <glyph glyph-name="uni01CE" unicode="&#x1ce;" 
d="M463 117q94 0 182 45q152 72 152 237v146q-33 -20 -85.5 -34.5t-103.5 -21.5l-108 -14q-98 -12 -148 -41q-82 -47 -82 -149q0 -78 56.5 -123t136.5 -45zM707 649q61 8 81 51q12 25 13 70q0 92 -65.5 133t-186.5 41q-141 0 -201 -76q-33 -41 -43 -125h-168q4 199 128 277
t288 78q188 0 305 -74q119 -72 119 -223v-617q0 -29 11 -45t48 -16q12 0 26.5 1t33.5 3v-131q-43 -12 -64.5 -15.5t-60.5 -3.5q-92 0 -135 66q-23 35 -31 98q-55 -72 -157.5 -125t-227.5 -53q-150 0 -244 91t-94 227q0 150 93 231.5t245 99.5zM692 1182h-190l-203 288h164
l135 -192l133 192h164z" />
    <glyph glyph-name="uni01CF" unicode="&#x1cf;" horiz-adv-x="569" 
d="M201 1468h200v-1468h-200v1468zM399 1585h-190l-203 291h164l133 -193l135 193h164z" />
    <glyph glyph-name="uni01D0" unicode="&#x1d0;" horiz-adv-x="569" 
d="M188 1067h185v-1067h-185v1067zM391 1202h-188l-203 289h162l135 -193l135 193h164z" />
    <glyph glyph-name="uni01D1" unicode="&#x1d1;" horiz-adv-x="1593" 
d="M1366 1260q145 -195 145 -500q0 -330 -165 -547q-197 -256 -560 -256q-340 0 -532 223q-174 217 -174 547q0 297 147 510q190 272 564 272q389 1 575 -249zM1309 758q0 258 -136.5 415.5t-369.5 157.5q-229 0 -372.5 -155.5t-143.5 -460.5q0 -246 122.5 -413t401.5 -167
q262 0 380 188.5t118 434.5zM915 1614h-190l-203 289h164l135 -193l135 193h164z" />
    <glyph glyph-name="uni01D2" unicode="&#x1d2;" 
d="M868 553q0 150 -47 244q-76 147 -262 147q-166 0 -240.5 -126t-74.5 -304q0 -170 74.5 -283.5t238.5 -113.5q178 0 244.5 135t66.5 301zM1057 557q0 -258 -126 -427t-390 -169q-221 0 -351.5 149.5t-130.5 401.5q0 270 137.5 430t366.5 160q207 0 350.5 -138.5
t143.5 -406.5zM688 1200h-188l-203 291h162l135 -193l135 193h164z" />
    <glyph glyph-name="uni01D3" unicode="&#x1d3;" horiz-adv-x="1478" 
d="M373 1468v-907q0 -160 59 -266q88 -160 299 -160q254 0 344 172q49 94 49 254v907h203v-825q0 -270 -74 -416q-133 -266 -505 -266q-371 0 -504 266q-74 145 -74 416v825h203zM879 1548h-191l-203 289h164l135 -190l136 190h163z" />
    <glyph glyph-name="uni01D4" unicode="&#x1d4;" 
d="M311 1071v-711q0 -82 27 -135q47 -96 178 -96q188 0 256 170q39 88 39 246v526h178v-1071h-170l2 158q-35 -61 -86 -103q-102 -84 -250 -84q-229 0 -313 154q-45 82 -45 217v729h184zM690 1169h-190l-203 289h164l135 -190l133 190h166z" />
    <glyph glyph-name="uni01D5" unicode="&#x1d5;" horiz-adv-x="1478" 
d="M373 1468v-907q0 -160 59 -266q88 -160 299 -160q254 0 344 172q49 94 49 254v907h203v-825q0 -270 -74 -416q-133 -266 -505 -266q-371 0 -504 266q-74 145 -74 416v825h203zM844 1769h186v-208h-186v208zM514 1769h186v-208h-186v208zM444 2005h639v-119h-639v119z" />
    <glyph glyph-name="uni01D6" unicode="&#x1d6;" 
d="M311 1071v-711q0 -82 27 -135q47 -96 178 -96q188 0 256 170q39 88 39 246v526h178v-1071h-170l2 158q-35 -61 -86 -103q-102 -84 -250 -84q-229 0 -313 154q-45 82 -45 217v729h184zM653 1366h189v-209h-189v209zM324 1366h188v-209h-188v209zM276 1595h639v-118h-639
v118z" />
    <glyph glyph-name="uni01D7" unicode="&#x1d7;" horiz-adv-x="1478" 
d="M373 1468v-907q0 -160 59 -266q88 -160 299 -160q254 0 344 172q49 94 49 254v907h203v-825q0 -270 -74 -416q-133 -266 -505 -266q-371 0 -504 266q-74 145 -74 416v825h203zM844 1747h186v-209h-186v209zM514 1747h186v-209h-186v209zM1059 2120l-268 -289h-138
l183 289h223z" />
    <glyph glyph-name="uni01D8" unicode="&#x1d8;" 
d="M311 1071v-711q0 -82 27 -135q47 -96 178 -96q188 0 256 170q39 88 39 246v526h178v-1071h-170l2 158q-35 -61 -86 -103q-102 -84 -250 -84q-229 0 -313 154q-45 82 -45 217v729h184zM631 1370h186v-209h-186v209zM301 1370h186v-209h-186v209zM854 1751l-266 -289h-137
l182 289h221z" />
    <glyph glyph-name="uni01D9" unicode="&#x1d9;" horiz-adv-x="1478" 
d="M373 1468v-907q0 -160 59 -266q88 -160 299 -160q254 0 344 172q49 94 49 254v907h203v-825q0 -270 -74 -416q-133 -266 -505 -266q-371 0 -504 266q-74 145 -74 416v825h203zM819 1743h189v-209h-189v209zM489 1743h189v-209h-189v209zM850 1815h-191l-202 288h164
l135 -192l135 192h164z" />
    <glyph glyph-name="uni01DA" unicode="&#x1da;" 
d="M311 1071v-711q0 -82 27 -135q47 -96 178 -96q188 0 256 170q39 88 39 246v526h178v-1071h-170l2 158q-35 -61 -86 -103q-102 -84 -250 -84q-229 0 -313 154q-45 82 -45 217v729h184zM635 1337h186v-209h-186v209zM303 1337h189v-209h-189v209zM659 1411h-190l-203 291
h162l135 -193l135 193h164z" />
    <glyph glyph-name="uni01DB" unicode="&#x1db;" horiz-adv-x="1478" 
d="M373 1468v-907q0 -160 59 -266q88 -160 299 -160q254 0 344 172q49 94 49 254v907h203v-825q0 -270 -74 -416q-133 -266 -505 -266q-371 0 -504 266q-74 145 -74 416v825h203zM809 1720h186v-207h-186v207zM479 1720h187v-207h-187v207zM829 1780h-137l-266 288h221z" />
    <glyph glyph-name="uni01DC" unicode="&#x1dc;" 
d="M311 1071v-711q0 -82 27 -135q47 -96 178 -96q188 0 256 170q39 88 39 246v526h178v-1071h-170l2 158q-35 -61 -86 -103q-102 -84 -250 -84q-229 0 -313 154q-45 82 -45 217v729h184zM633 1341h186v-206h-186v206zM301 1341h188v-206h-188v206zM657 1407h-137l-266 289
h221z" />
    <glyph glyph-name="uni01DD" unicode="&#x1dd;" 
d="M160 154q-53 80 -72 188q-16 74 -16 236h784q-4 164 -75.5 262t-223.5 98q-141 0 -225 -92q-47 -55 -68 -125h-178q8 57 47 130t88 120q82 80 205 106q63 16 145 17q201 0 340.5 -145.5t139.5 -407.5q0 -258 -140.5 -419t-365.5 -161q-115 0 -222.5 53.5t-162.5 139.5z
M256 434q12 -117 51 -186q76 -129 248 -129q125 0 209 89t88 226h-596z" />
    <glyph glyph-name="uni01DE" unicode="&#x1de;" horiz-adv-x="1366" 
d="M909 602l-223 649l-235 -649h458zM584 1468h225l532 -1468h-219l-147 440h-582l-160 -440h-202zM772 1761h186v-207h-186v207zM442 1761h187v-207h-187v207zM369 1952h641v-117h-641v117z" />
    <glyph glyph-name="uni01DF" unicode="&#x1df;" 
d="M463 117q94 0 182 45q152 72 152 237v146q-33 -20 -85.5 -34.5t-103.5 -21.5l-108 -14q-98 -12 -148 -41q-82 -47 -82 -149q0 -78 56.5 -123t136.5 -45zM707 649q61 8 81 51q12 25 13 70q0 92 -65.5 133t-186.5 41q-141 0 -201 -76q-33 -41 -43 -125h-168q4 199 128 277
t288 78q188 0 305 -74q119 -72 119 -223v-617q0 -29 11 -45t48 -16q12 0 26.5 1t33.5 3v-131q-43 -12 -64.5 -15.5t-60.5 -3.5q-92 0 -135 66q-23 35 -31 98q-55 -72 -157.5 -125t-227.5 -53q-150 0 -244 91t-94 227q0 150 93 231.5t245 99.5zM610 1421h187v-207h-187v207z
M281 1421h186v-207h-186v207zM209 1649h639v-117h-639v117z" />
    <glyph glyph-name="uni01E0" unicode="&#x1e0;" horiz-adv-x="1366" 
d="M909 602l-223 649l-235 -649h458zM584 1468h225l532 -1468h-219l-147 440h-582l-160 -440h-202zM598 1759h186v-209h-186v209zM362 1952h639v-117h-639v117z" />
    <glyph glyph-name="uni01E1" unicode="&#x1e1;" 
d="M463 117q94 0 182 45q152 72 152 237v146q-33 -20 -85.5 -34.5t-103.5 -21.5l-108 -14q-98 -12 -148 -41q-82 -47 -82 -149q0 -78 56.5 -123t136.5 -45zM707 649q61 8 81 51q12 25 13 70q0 92 -65.5 133t-186.5 41q-141 0 -201 -76q-33 -41 -43 -125h-168q4 199 128 277
t288 78q188 0 305 -74q119 -72 119 -223v-617q0 -29 11 -45t48 -16q12 0 26.5 1t33.5 3v-131q-43 -12 -64.5 -15.5t-60.5 -3.5q-92 0 -135 66q-23 35 -31 98q-55 -72 -157.5 -125t-227.5 -53q-150 0 -244 91t-94 227q0 150 93 231.5t245 99.5zM451 1444h186v-207h-186v207z
M219 1655h641v-119h-641v119z" />
    <glyph glyph-name="uni01E2" unicode="&#x1e2;" horiz-adv-x="2048" 
d="M737 1298l-272 -694h471v694h-199zM612 1468h1317v-174h-796v-450h731v-166h-731v-504h815v-174h-1012v436h-541l-164 -436h-215zM895 1714h639v-119h-639v119z" />
    <glyph glyph-name="uni01E3" unicode="&#x1e3;" horiz-adv-x="1820" 
d="M1542 621q-2 158 -86 237.5t-203 79.5q-121 0 -208 -80t-95 -237h592zM782 545q-25 -16 -49 -25.5t-86 -19.5l-151 -25q-113 -16 -160 -45q-80 -45 -80 -143q0 -84 63.5 -129t149.5 -45q49 0 114.5 25.5t121.5 76.5q49 45 63 94q8 31 14 101v135zM684 649q51 6 76.5 36
t25.5 83q0 86 -56 130t-179 44q-100 0 -160 -31q-100 -59 -100 -170h-172q8 225 176 310q96 47 264 47q133 0 227 -49q80 -43 123 -113q59 78 147.5 120t198.5 42q117 0 216.5 -42t164.5 -138q59 -80 79 -184.5t20 -256.5h-787q4 -166 82 -262t215 -96q131 0 198.5 56
t94.5 161h182q-10 -80 -67.5 -165t-120.5 -126q-72 -45 -143.5 -63.5t-149.5 -18.5q-147 0 -260 78q-104 76 -133 152q-82 -121 -186.5 -175.5t-227.5 -54.5q-172 0 -265 86t-93 223q0 178 121 267q76 55 204 71zM590 1348h641v-119h-641v119z" />
    <glyph glyph-name="uni01E4" unicode="&#x1e4;" horiz-adv-x="1619" 
d="M979 375v141h219q8 49 8 105h-458v165h645v-270h192v-141h-192v-375h-129l-47 188q-102 -111 -181 -153q-131 -74 -331 -74q-262 0 -449 168q-207 213 -207 584q0 369 201 585q190 209 491 209q207 0 359 -80q219 -115 268 -403h-197q-37 162 -149.5 234.5t-284.5 72.5
q-205 0 -344 -152.5t-139 -455.5q0 -262 114.5 -427t374.5 -165q199 0 330 117q57 49 88 127h-182z" />
    <glyph glyph-name="uni01E5" unicode="&#x1e5;" horiz-adv-x="1224" 
d="M721 1028q49 -35 102 -102v135h166v-445h205v-143h-205v-387q0 -203 -59 -322q-113 -217 -422 -217q-174 0 -292 77t-132 243h182q14 -72 53 -111q61 -59 193 -59q207 0 270 145q37 86 35 308q-53 -82 -130 -122t-202 -40q-174 0 -304 122.5t-130 407.5q0 270 131 421
t318 151q127 -1 221 -62zM588 473v143h231q-12 141 -78 220q-82 96 -209 96q-190 0 -260 -178q-37 -96 -36 -250q0 -180 73.5 -275.5t198.5 -95.5q193 0 272 176q31 74 41 164h-233z" />
    <glyph glyph-name="uni01E6" unicode="&#x1e6;" horiz-adv-x="1593" 
d="M1149 1427q219 -115 268 -403h-196q-37 162 -150 234.5t-285 72.5q-205 0 -344 -152.5t-139 -455.5q0 -262 114.5 -427t375.5 -165q199 0 329.5 115.5t132.5 374.5h-458v165h645v-786h-129l-47 188q-102 -111 -181 -153q-131 -74 -331 -74q-262 0 -451 168
q-205 213 -205 584q0 369 201 585q190 209 492 209q206 0 358 -80zM889 1599h-191l-202 289h161l136 -192l135 192h164z" />
    <glyph glyph-name="uni01E7" unicode="&#x1e7;" 
d="M729 1028q51 -35 105 -102v135h165v-975q0 -203 -59 -322q-113 -217 -424 -217q-172 0 -289.5 77t-132.5 243h182q14 -72 54 -111q59 -59 190 -59q207 0 273 145q37 86 34 308q-55 -82 -130.5 -122t-200.5 -40q-174 0 -304.5 122.5t-130.5 407.5q0 270 131.5 421
t317.5 151q127 -1 219 -62zM543 932q-190 0 -260 -178q-37 -96 -37 -250q0 -180 73.5 -275.5t196.5 -95.5q195 0 275 176q43 98 43 232q0 199 -82 295t-209 96zM610 1231h-190l-203 289h164l133 -193l135 193h164z" />
    <glyph glyph-name="uni01E8" unicode="&#x1e8;" horiz-adv-x="1366" 
d="M156 1468h194v-714l717 714h274l-612 -591l629 -877h-258l-514 737l-236 -225v-512h-194v1468zM801 1556h-191l-202 289h161l136 -190l135 190h164z" />
    <glyph glyph-name="uni01E9" unicode="&#x1e9;" horiz-adv-x="1024" 
d="M127 1468h174v-852l463 455h229l-409 -401l432 -670h-230l-333 541l-152 -140v-401h-174v1468zM647 1532h-190l-203 289h164l135 -193l133 193h166z" />
    <glyph glyph-name="uni01EA" unicode="&#x1ea;" horiz-adv-x="1593" 
d="M1366 1260q145 -195 145 -500q0 -330 -165 -547q-197 -256 -560 -256q-340 0 -532 223q-174 217 -174 547q0 297 147 510q190 272 564 272q389 1 575 -249zM1309 758q0 258 -136.5 415.5t-369.5 157.5q-229 0 -372.5 -155.5t-143.5 -460.5q0 -246 122.5 -413t401.5 -167
q262 0 380 188.5t118 434.5zM879 -33l-60 -47q-74 -59 -94 -91t-20 -71q0 -37 26.5 -64.5t77.5 -27.5q27 0 44 5t38 18v-131q-35 -14 -60 -23q-51 -12 -102 -12q-96 0 -147.5 56t-51.5 126q0 82 58 145q47 53 143 117h148z" />
    <glyph glyph-name="uni01EB" unicode="&#x1eb;" 
d="M868 553q0 150 -47 244q-76 147 -262 147q-166 0 -240.5 -126t-74.5 -304q0 -170 74.5 -283.5t238.5 -113.5q178 0 244.5 135t66.5 301zM1057 557q0 -258 -126 -427t-390 -169q-221 0 -351.5 149.5t-130.5 401.5q0 270 137.5 430t366.5 160q207 0 350.5 -138.5
t143.5 -406.5zM639 -29l-57 -47q-74 -59 -94.5 -91t-20.5 -71q0 -37 26.5 -64.5t77.5 -27.5q27 0 44.5 5.5t35.5 17.5v-131q-33 -14 -57 -23q-51 -12 -102 -12q-96 0 -147.5 56.5t-51.5 125.5q0 80 57 146q45 53 144 116h145z" />
    <glyph glyph-name="uni01EC" unicode="&#x1ec;" horiz-adv-x="1593" 
d="M1366 1260q145 -195 145 -500q0 -330 -165 -547q-197 -256 -560 -256q-340 0 -532 223q-174 217 -174 547q0 297 147 510q190 272 564 272q389 1 575 -249zM1309 758q0 258 -136.5 415.5t-369.5 157.5q-229 0 -372.5 -155.5t-143.5 -460.5q0 -246 122.5 -413t401.5 -167
q262 0 380 188.5t118 434.5zM879 -33l-60 -47q-74 -59 -94 -91t-20 -71q0 -37 26.5 -64.5t77.5 -27.5q27 0 44 5t38 18v-131q-35 -14 -60 -23q-51 -12 -102 -12q-96 0 -147.5 56t-51.5 126q0 82 58 145q47 53 143 117h148zM449 1753h641v-119h-641v119z" />
    <glyph glyph-name="uni01ED" unicode="&#x1ed;" 
d="M868 553q0 150 -47 244q-76 147 -262 147q-166 0 -240.5 -126t-74.5 -304q0 -170 74.5 -283.5t238.5 -113.5q178 0 244.5 135t66.5 301zM1057 557q0 -258 -126 -427t-390 -169q-221 0 -351.5 149.5t-130.5 401.5q0 270 137.5 430t366.5 160q207 0 350.5 -138.5
t143.5 -406.5zM639 -29l-57 -47q-74 -59 -94.5 -91t-20.5 -71q0 -37 26.5 -64.5t77.5 -27.5q27 0 44.5 5.5t35.5 17.5v-131q-33 -14 -57 -23q-51 -12 -102 -12q-96 0 -147.5 56.5t-51.5 125.5q0 80 57 146q45 53 144 116h145zM219 1358h641v-119h-641v119z" />
    <glyph glyph-name="uni01EE" unicode="&#x1ee;" horiz-adv-x="1099" 
d="M479 831l99 11q172 0 233 -139.5t61 -299.5t-98 -210t-244 -50q-113 0 -208 69t-119 187h-176q31 -213 180 -311t338 -98q209 0 364.5 93t155.5 323q0 283 -137 440q-106 121 -256 147l358 312v163h-991v-163h760l-551 -474h231zM621 1614h-191l-203 289h164l135 -193
l136 193h163z" />
    <glyph glyph-name="uni01EF" unicode="&#x1ef;" horiz-adv-x="1001" 
d="M383 428l96 10q172 0 233.5 -138t61.5 -300q0 -160 -93 -220.5t-239 -60.5q-113 0 -163 79t-74 198h-176q31 -213 135 -321.5t293 -108.5q209 0 359.5 103.5t150.5 332.5q0 283 -138 440q-104 121 -256 148l361 311v166h-893v-166h659l-550 -473h233zM584 1212h-191
l-203 289h162l135 -190l136 190h163z" />
    <glyph glyph-name="uni01F0" unicode="&#x1f0;" horiz-adv-x="454" 
d="M-39 -270q123 4 146.5 21.5t23.5 109.5v1206h180v-1227q0 -117 -37 -174q-63 -98 -239 -98q-12 0 -26.5 1t-47.5 5v156zM328 1202h-191l-203 291h162l135 -193l136 193h163z" />
    <glyph glyph-name="uni01F1" unicode="&#x1f1;" horiz-adv-x="2508" 
d="M639 170q100 0 166 20q117 39 190 152q59 88 84 227q16 82 17 154q0 272 -108.5 423.5t-350.5 151.5h-352v-1128h354zM84 1468h596q301 0 469 -215q150 -193 149 -495q0 -236 -88 -424q-156 -334 -532 -334h-594v1468zM1290 170l901 1128h-833v177h1089v-172l-905 -1123
h905v-176h-1157v166z" />
    <glyph glyph-name="uni01F2" unicode="&#x1f2;" horiz-adv-x="2299" 
d="M666 170q102 0 165 20q117 39 191 152q59 88 86 227q14 82 14 154q0 272 -108.5 423.5t-349.5 151.5h-353v-1128h355zM111 1468h596q303 0 469 -215q150 -193 149 -495q0 -236 -88 -424q-156 -334 -532 -334h-594v1468zM1343 141l635 768h-587v162h829v-147l-631 -762
h652v-162h-898v141z" />
    <glyph glyph-name="uni01F3" unicode="&#x1f3;" horiz-adv-x="2043" 
d="M553 119q125 0 206 107.5t81 308.5q0 203 -83 301t-206 98q-135 0 -220 -104.5t-85 -307.5q0 -172 72.5 -287.5t234.5 -115.5zM723 1038q47 -31 108 -104v541h175v-1475h-162v150q-63 -100 -149.5 -144.5t-196.5 -44.5q-180 0 -311.5 150.5t-131.5 400.5q0 236 120 407
t341 171q123 -1 207 -52zM1079 141l635 768h-588v162h830v-147l-631 -762h649v-162h-895v141z" />
    <glyph glyph-name="uni01F4" unicode="&#x1f4;" horiz-adv-x="1593" 
d="M1149 1427q219 -115 268 -403h-196q-37 162 -150 234.5t-285 72.5q-205 0 -344 -152.5t-139 -455.5q0 -262 114.5 -427t375.5 -165q199 0 329.5 115.5t132.5 374.5h-458v165h645v-786h-129l-47 188q-102 -111 -181 -153q-131 -74 -331 -74q-262 0 -451 168
q-205 213 -205 584q0 369 201 585q190 209 492 209q206 0 358 -80zM1010 1886l-267 -289h-139l184 289h222z" />
    <glyph glyph-name="uni01F5" unicode="&#x1f5;" 
d="M729 1028q51 -35 105 -102v135h165v-975q0 -203 -59 -322q-113 -217 -424 -217q-172 0 -289.5 77t-132.5 243h182q14 -72 54 -111q59 -59 190 -59q207 0 273 145q37 86 34 308q-55 -82 -130.5 -122t-200.5 -40q-174 0 -304.5 122.5t-130.5 407.5q0 270 131.5 421
t317.5 151q127 -1 219 -62zM543 932q-190 0 -260 -178q-37 -96 -37 -250q0 -180 73.5 -275.5t196.5 -95.5q195 0 275 176q43 98 43 232q0 199 -82 295t-209 96zM799 1495l-269 -289h-137l182 289h224z" />
    <glyph glyph-name="uni01F7" unicode="&#x1f7;" horiz-adv-x="1366" 
d="M174 1468h662q197 0 316.5 -110.5t119.5 -308.5q0 -172 -106.5 -330t-329.5 -248l-461 -149v-322h-201v1468zM950 1268q-66 31 -180 30h-395v-809l395 150q133 49 217 127t84 281q0 162 -121 221z" />
    <glyph glyph-name="uni01F8" unicode="&#x1f8;" horiz-adv-x="1478" 
d="M156 1468h235l742 -1189v1189h190v-1468h-223l-754 1190v-1190h-190v1468zM870 1532h-137l-266 289h221z" />
    <glyph glyph-name="uni01F9" unicode="&#x1f9;" 
d="M131 1071h172v-151q76 94 161 135t189 41q227 0 308 -160q45 -86 45 -250v-686h-185v676q0 96 -28 158q-47 100 -175 100q-63 0 -104 -14q-74 -23 -131 -89q-43 -53 -57.5 -109t-14.5 -161v-561h-180v1071zM725 1210h-135l-268 289h223z" />
    <glyph glyph-name="uni01FA" unicode="&#x1fa;" horiz-adv-x="1327" 
d="M702 1993h209l-213 -217h-131zM539 1397q-33 27 -51.5 64.5t-18.5 82.5q0 43 15.5 78t43 61.5t62.5 41t76 14.5q39 0 74.5 -14.5t62 -40t42 -61.5t15.5 -79q0 -45 -19.5 -83t-49.5 -64l552 -1397h-215l-159 440h-619l-164 -440h-200zM553 1544q0 -47 31.5 -80.5
t81.5 -33.5q47 0 78.5 33.5t31.5 80.5q0 49 -31.5 81t-78.5 32q-49 0 -81 -32t-32 -81zM412 604h495l-243 682h-5z" />
    <glyph glyph-name="uni01FB" unicode="&#x1fb;" horiz-adv-x="1099" 
d="M633 1888h223l-264 -258h-129zM557 1157q-92 0 -154.5 59.5t-62.5 151.5t63.5 151.5t153.5 59.5q92 0 154.5 -59.5t62.5 -151.5t-63.5 -151.5t-153.5 -59.5zM682 1368q0 55 -34 91t-91 36t-91 -36t-34 -91q0 -53 34 -90t91 -37t91 37t34 90zM1069 4q-47 -29 -125 -29
q-68 0 -107.5 39t-39.5 125q-72 -86 -167 -125t-206 -39q-72 0 -136.5 16.5t-111.5 52.5t-74.5 92.5t-27.5 135.5q0 90 30.5 147.5t81 92.5t115 54.5t131.5 31.5q72 14 136.5 21.5t113.5 20.5t77.5 39t28.5 75q0 57 -21.5 92t-55 53.5t-75.5 24.5t-83 6q-111 0 -184.5 -42
t-79.5 -159h-174q4 98 41 166t98 110t140 60t169 18q72 0 142.5 -10t128 -42t92.5 -89t35 -149v-545q0 -61 7 -90t48 -29q23 0 53 10v-135zM786 547q-33 -25 -86 -36t-111.5 -18.5t-117.5 -16.5t-106.5 -29.5t-77 -58.5t-29.5 -103q0 -43 17.5 -73t45 -48.5t64.5 -26.5
t78 -8q86 0 147.5 23.5t100.5 59.5t57 78t18 79v178z" />
    <glyph glyph-name="uni01FC" unicode="&#x1fc;" horiz-adv-x="1896" 
d="M725 1462h1096v-164h-719v-464h676v-164h-676v-506h731v-164h-915v426h-504l-209 -426h-219zM834 1298l-345 -708h429v708h-84zM1257 1888h224l-269 -293h-131z" />
    <glyph glyph-name="uni01FD" unicode="&#x1fd;" horiz-adv-x="1781" 
d="M956 477q0 -72 19.5 -134t58.5 -110.5t99.5 -76t140.5 -27.5q98 0 171 50t97 155h178q-39 -174 -158.5 -266.5t-299.5 -92.5q-61 0 -119 10.5t-108 34t-90 63.5t-66 99q-59 -109 -179 -158t-268 -49q-76 0 -141.5 16.5t-113.5 52.5t-75.5 92.5t-27.5 135.5
q0 90 30.5 147.5t81 93.5t115 54.5t131.5 30.5q96 18 165 28.5t112 26t63.5 41t20.5 72.5q0 53 -21.5 86t-55.5 50.5t-77 22.5t-86 5q-111 0 -184.5 -42t-79.5 -159h-174q4 98 41 166t98 110t140 60t169 18q45 0 97.5 -5t101.5 -21.5t90 -47t66 -79.5q53 82 147 117.5
t190 35.5q137 0 229.5 -48t148 -131t78 -193.5t22.5 -233.5h-777zM1548 631q-2 61 -22.5 116.5t-57 95.5t-90 63.5t-123.5 23.5t-125 -22.5t-94 -62.5t-59.5 -95.5t-20.5 -118.5h592zM258 285q0 -43 17.5 -73t45 -48.5t64.5 -26.5t78 -8q86 0 148.5 23.5t102.5 59.5t59.5 78
t19.5 79v178q-27 -16 -65 -26.5t-81 -17.5t-89 -13.5t-87 -14.5q-43 -8 -82 -20.5t-67.5 -34t-46 -54t-17.5 -81.5zM1028 1499h223l-268 -293h-131z" />
    <glyph glyph-name="uni01FE" unicode="&#x1fe;" horiz-adv-x="1556" 
d="M842 1888h223l-268 -293h-131zM1481 1434l-168 -185q86 -106 126 -238t40 -280q0 -150 -44 -288t-132.5 -244.5t-219.5 -170t-305 -63.5q-150 0 -266.5 47t-202.5 129l-166 -182l-67 61l172 189q-86 104 -128 239.5t-42 282.5q0 150 44 288t132 244.5t219 170t305 63.5
q154 0 271.5 -47t203.5 -133l162 178zM1130 1182q-59 70 -147 110.5t-205 40.5q-133 0 -229 -52t-157.5 -138t-90.5 -193.5t-29 -218.5q0 -104 25 -202.5t78 -180.5zM430 274q59 -68 145.5 -106.5t202.5 -38.5q133 0 229.5 52t158 138.5t90 194t28.5 217.5
q0 100 -23.5 198.5t-74.5 178.5z" />
    <glyph glyph-name="uni01FF" unicode="&#x1ff;" horiz-adv-x="1175" 
d="M668 1499h223l-268 -293h-131zM983 907q59 -72 89 -169t30 -210q0 -117 -33 -217t-98.5 -175t-161.5 -118t-221 -43q-106 0 -190.5 31t-147.5 86l-123 -137l-57 49l127 141q-61 76 -92 173.5t-31 209.5q0 117 32.5 218.5t98 176t161 117.5t222.5 43q111 0 194.5 -30.5
t149.5 -89.5l119 133l55 -54zM815 834q-90 96 -227 96q-68 0 -128.5 -26.5t-105.5 -78t-70.5 -126t-25.5 -171.5q0 -74 16.5 -135t44.5 -112zM365 221q92 -92 223 -92q68 0 128 26.5t105 77t71 125t26 170.5q0 76 -15.5 136.5t-42.5 107.5z" />
    <glyph glyph-name="uni0200" unicode="&#x200;" horiz-adv-x="1366" 
d="M909 602l-223 649l-235 -649h458zM584 1468h225l532 -1468h-219l-147 440h-582l-160 -440h-202zM592 1571h-127l-223 291h213zM926 1571h-127l-228 291h217z" />
    <glyph glyph-name="uni0201" unicode="&#x201;" 
d="M463 117q94 0 182 45q152 72 152 237v146q-33 -20 -85.5 -34.5t-103.5 -21.5l-108 -14q-98 -12 -148 -41q-82 -47 -82 -149q0 -78 56.5 -123t136.5 -45zM707 649q61 8 81 51q12 25 13 70q0 92 -65.5 133t-186.5 41q-141 0 -201 -76q-33 -41 -43 -125h-168q4 199 128 277
t288 78q188 0 305 -74q119 -72 119 -223v-617q0 -29 11 -45t48 -16q12 0 26.5 1t33.5 3v-131q-43 -12 -64.5 -15.5t-60.5 -3.5q-92 0 -135 66q-23 35 -31 98q-55 -72 -157.5 -125t-227.5 -53q-150 0 -244 91t-94 227q0 150 93 231.5t245 99.5zM485 1210h-127l-223 291h213z
M819 1210h-127l-225 291h215z" />
    <glyph glyph-name="uni0202" unicode="&#x202;" horiz-adv-x="1366" 
d="M909 602l-223 649l-235 -649h458zM584 1468h225l532 -1468h-219l-147 440h-582l-160 -440h-202zM901 1511q-14 66 -47 99q-55 59 -172 59q-111 0 -164 -59q-31 -33 -47 -99h-98q18 147 102 213t225 66q178 0 254 -121q41 -61 50 -158h-103z" />
    <glyph glyph-name="uni0203" unicode="&#x203;" 
d="M463 117q94 0 182 45q152 72 152 237v146q-33 -20 -85.5 -34.5t-103.5 -21.5l-108 -14q-98 -12 -148 -41q-82 -47 -82 -149q0 -78 56.5 -123t136.5 -45zM707 649q61 8 81 51q12 25 13 70q0 92 -65.5 133t-186.5 41q-141 0 -201 -76q-33 -41 -43 -125h-168q4 199 128 277
t288 78q188 0 305 -74q119 -72 119 -223v-617q0 -29 11 -45t48 -16q12 0 26.5 1t33.5 3v-131q-43 -12 -64.5 -15.5t-60.5 -3.5q-92 0 -135 66q-23 35 -31 98q-55 -72 -157.5 -125t-227.5 -53q-150 0 -244 91t-94 227q0 150 93 231.5t245 99.5zM762 1214q-16 66 -47 99
q-57 59 -174 59q-111 0 -164 -59q-31 -33 -47 -99h-99q20 147 103.5 213t224.5 66q178 0 254 -121q41 -61 49 -158h-100z" />
    <glyph glyph-name="uni0204" unicode="&#x204;" horiz-adv-x="1366" 
d="M174 1468h1071v-180h-876v-444h811v-170h-811v-500h893v-174h-1088v1468zM659 1571h-127l-225 291h215zM991 1571h-125l-227 291h215z" />
    <glyph glyph-name="uni0205" unicode="&#x205;" 
d="M963 903q53 -82 71 -188q16 -76 17 -238h-787q6 -162 78 -260t223 -98q141 0 226 92q47 53 67 125h176q-6 -59 -46 -132t-89 -118q-82 -80 -203 -109q-63 -16 -145 -16q-201 0 -340 146.5t-139 406.5q0 258 140 420t366 162q115 0 221.5 -54.5t163.5 -138.5zM864 621
q-10 117 -51 188q-74 129 -246 129q-125 0 -209 -89t-88 -228h594zM502 1210h-127l-223 291h213zM836 1210h-127l-228 291h217z" />
    <glyph glyph-name="uni0206" unicode="&#x206;" horiz-adv-x="1366" 
d="M174 1468h1071v-180h-876v-444h811v-170h-811v-500h893v-174h-1088v1468zM930 1571q-16 66 -47 98q-55 59 -174 60q-109 0 -162 -60q-33 -35 -47 -98h-101q20 147 104.5 211.5t225.5 64.5q176 0 254 -118q41 -61 49 -158h-102z" />
    <glyph glyph-name="uni0207" unicode="&#x207;" 
d="M963 903q53 -82 71 -188q16 -76 17 -238h-787q6 -162 78 -260t223 -98q141 0 226 92q47 53 67 125h176q-6 -59 -46 -132t-89 -118q-82 -80 -203 -109q-63 -16 -145 -16q-201 0 -340 146.5t-139 406.5q0 258 140 420t366 162q115 0 221.5 -54.5t163.5 -138.5zM864 621
q-10 117 -51 188q-74 129 -246 129q-125 0 -209 -89t-88 -228h594zM803 1204q-16 66 -47 99q-57 59 -174 59q-111 0 -164 -59q-31 -33 -47 -99h-99q20 147 103.5 213t224.5 66q178 0 254 -119q41 -63 49 -160h-100z" />
    <glyph glyph-name="uni0208" unicode="&#x208;" horiz-adv-x="569" 
d="M201 1468h200v-1468h-200v1468zM209 1571h-127l-225 291h215zM541 1571h-125l-228 291h215z" />
    <glyph glyph-name="uni0209" unicode="&#x209;" horiz-adv-x="454" 
d="M141 1067h183v-1067h-183v1067zM147 1210h-127l-223 291h213zM481 1210h-127l-227 291h217z" />
    <glyph glyph-name="uni020A" unicode="&#x20a;" horiz-adv-x="569" 
d="M201 1468h200v-1468h-200v1468zM522 1571q-16 66 -47 98q-55 59 -174 60q-109 0 -164 -60q-31 -35 -47 -98h-98q20 147 103 211.5t227 64.5q176 0 253 -118q39 -61 50 -158h-103z" />
    <glyph glyph-name="uni020B" unicode="&#x20b;" horiz-adv-x="454" 
d="M141 1067h183v-1067h-183v1067zM444 1223q-16 63 -47 98q-55 57 -174 57q-109 0 -164 -57q-31 -35 -47 -98h-98q20 145 103 210.5t227 65.5q176 0 254 -119q39 -61 49 -157h-103z" />
    <glyph glyph-name="uni020C" unicode="&#x20c;" horiz-adv-x="1593" 
d="M1366 1260q145 -195 145 -500q0 -330 -165 -547q-197 -256 -560 -256q-340 0 -532 223q-174 217 -174 547q0 297 147 510q190 272 564 272q389 1 575 -249zM1309 758q0 258 -136.5 415.5t-369.5 157.5q-229 0 -372.5 -155.5t-143.5 -460.5q0 -246 122.5 -413t401.5 -167
q262 0 380 188.5t118 434.5zM709 1626h-127l-226 291h215zM1040 1626h-125l-227 291h215z" />
    <glyph glyph-name="uni020D" unicode="&#x20d;" 
d="M868 553q0 150 -47 244q-76 147 -262 147q-166 0 -240.5 -126t-74.5 -304q0 -170 74.5 -283.5t238.5 -113.5q178 0 244.5 135t66.5 301zM1057 557q0 -258 -126 -427t-390 -169q-221 0 -351.5 149.5t-130.5 401.5q0 270 137.5 430t366.5 160q207 0 350.5 -138.5
t143.5 -406.5zM500 1210h-127l-226 291h215zM831 1210h-124l-228 291h215z" />
    <glyph glyph-name="uni020E" unicode="&#x20e;" horiz-adv-x="1593" 
d="M1366 1260q145 -195 145 -500q0 -330 -165 -547q-197 -256 -560 -256q-340 0 -532 223q-174 217 -174 547q0 297 147 510q190 272 564 272q389 1 575 -249zM1309 758q0 258 -136.5 415.5t-369.5 157.5q-229 0 -372.5 -155.5t-143.5 -460.5q0 -246 122.5 -413t401.5 -167
q262 0 380 188.5t118 434.5zM1008 1612q-16 63 -47 96q-55 59 -175 59q-109 0 -161 -59q-31 -33 -47 -96h-101q20 145 104.5 210.5t225.5 65.5q176 0 254 -119q41 -63 49 -157h-102z" />
    <glyph glyph-name="uni020F" unicode="&#x20f;" 
d="M868 553q0 150 -47 244q-76 147 -262 147q-166 0 -240.5 -126t-74.5 -304q0 -170 74.5 -283.5t238.5 -113.5q178 0 244.5 135t66.5 301zM1057 557q0 -258 -126 -427t-390 -169q-221 0 -351.5 149.5t-130.5 401.5q0 270 137.5 430t366.5 160q207 0 350.5 -138.5
t143.5 -406.5zM770 1214q-16 66 -47 99q-55 59 -174 59q-109 0 -164 -59q-31 -33 -45 -99h-100q20 147 103 213t226 66q176 0 254 -121q39 -61 49 -158h-102z" />
    <glyph glyph-name="uni0210" unicode="&#x210;" horiz-adv-x="1478" 
d="M840 797q139 0 221 55t82 203q0 156 -115 213q-61 31 -164 30h-485v-501h461zM180 1468h680q168 0 277 -49q207 -94 206 -346q0 -133 -54 -217t-152 -133q86 -37 130 -93.5t48 -185.5l8 -196q2 -84 12 -125q18 -70 66 -90v-33h-246q-8 18 -14 49t-11 117l-12 244
q-8 145 -106 192q-57 29 -181 29h-452v-631h-199v1468zM664 1577h-127l-226 291h215zM995 1577h-125l-227 291h215z" />
    <glyph glyph-name="uni0211" unicode="&#x211;" horiz-adv-x="681" 
d="M137 1071h170v-184q23 53 105 131t188 78q4 0 16.5 -1t40.5 -5v-191q-16 4 -29.5 5t-29.5 1q-135 0 -208 -88t-73 -201v-616h-180v1071zM309 1237h-127l-225 291h215zM641 1237h-125l-227 291h217z" />
    <glyph glyph-name="uni0212" unicode="&#x212;" horiz-adv-x="1478" 
d="M840 797q139 0 221 55t82 203q0 156 -115 213q-61 31 -164 30h-485v-501h461zM180 1468h680q168 0 277 -49q207 -94 206 -346q0 -133 -54 -217t-152 -133q86 -37 130 -93.5t48 -185.5l8 -196q2 -84 12 -125q18 -70 66 -90v-33h-246q-8 18 -14 49t-11 117l-12 244
q-8 145 -106 192q-57 29 -181 29h-452v-631h-199v1468zM924 1554q-16 66 -47 99q-55 57 -175 57q-109 0 -161 -57q-31 -35 -47 -99h-101q20 147 104.5 212t225.5 65q176 0 254 -119q41 -61 49 -158h-102z" />
    <glyph glyph-name="uni0213" unicode="&#x213;" horiz-adv-x="681" 
d="M137 1071h170v-184q23 53 105 131t188 78q4 0 16.5 -1t40.5 -5v-191q-16 4 -29.5 5t-29.5 1q-135 0 -208 -88t-73 -201v-616h-180v1071zM608 1208q-14 66 -47 99q-55 59 -174 59q-109 0 -162 -59q-31 -35 -47 -99h-98q18 147 102 212t226 65q178 0 254 -119
q41 -61 49 -158h-103z" />
    <glyph glyph-name="uni0214" unicode="&#x214;" horiz-adv-x="1478" 
d="M373 1468v-907q0 -160 59 -266q88 -160 299 -160q254 0 344 172q49 94 49 254v907h203v-825q0 -270 -74 -416q-133 -266 -505 -266q-371 0 -504 266q-74 145 -74 416v825h203zM688 1571h-127l-223 291h215zM1022 1571h-127l-225 291h215z" />
    <glyph glyph-name="uni0215" unicode="&#x215;" 
d="M311 1071v-711q0 -82 27 -135q47 -96 178 -96q188 0 256 170q39 88 39 246v526h178v-1071h-170l2 158q-35 -61 -86 -103q-102 -84 -250 -84q-229 0 -313 154q-45 82 -45 217v729h184zM500 1210h-127l-223 291h212zM834 1210h-127l-228 291h217z" />
    <glyph glyph-name="uni0216" unicode="&#x216;" horiz-adv-x="1478" 
d="M373 1468v-907q0 -160 59 -266q88 -160 299 -160q254 0 344 172q49 94 49 254v907h203v-825q0 -270 -74 -416q-133 -266 -505 -266q-371 0 -504 266q-74 145 -74 416v825h203zM961 1571q-16 66 -48 98q-57 59 -174 60q-109 0 -164 -60q-31 -35 -47 -98h-98
q20 147 103 211.5t227 64.5q176 0 254 -118q39 -61 49 -158h-102z" />
    <glyph glyph-name="uni0217" unicode="&#x217;" 
d="M311 1071v-711q0 -82 27 -135q47 -96 178 -96q188 0 256 170q39 88 39 246v526h178v-1071h-170l2 158q-35 -61 -86 -103q-102 -84 -250 -84q-229 0 -313 154q-45 82 -45 217v729h184zM770 1210q-14 66 -45 99q-57 57 -174 57q-111 0 -164 -57q-31 -35 -47 -99h-98
q18 147 102 212t225 65q178 0 254 -119q41 -61 49 -158h-102z" />
    <glyph glyph-name="uni0218" unicode="&#x218;" horiz-adv-x="1327" 
d="M1006 1034q-16 158 -113.5 228.5t-249.5 70.5q-61 0 -120.5 -12t-105.5 -41t-74 -77t-28 -120q0 -68 40 -109.5t106.5 -68t150.5 -44t171 -38t171 -48t150.5 -75t106.5 -119t40 -180.5q0 -117 -52 -199.5t-134 -135t-183.5 -77t-201.5 -24.5q-123 0 -232.5 31
t-192.5 94.5t-131 160.5t-48 230h184q0 -92 36 -158.5t94.5 -109.5t135 -63.5t160.5 -20.5q66 0 132.5 12.5t119.5 42t86 80.5t33 131q0 76 -40 123t-106.5 77t-150.5 48.5l-171 37.5t-171 45t-150.5 68t-106.5 108.5t-40 166.5q0 111 45 191.5t119.5 133t170 78t195.5 25.5
q113 0 209 -26.5t169 -84t115 -144.5t46 -208h-184zM553 -102h227v-158q0 -88 -55 -129t-147 -41v72q31 8 48 17t24 19.5t8 19.5t1 19h-106v181z" />
    <glyph glyph-name="uni0219" unicode="&#x219;" horiz-adv-x="1024" 
d="M238 334q2 -59 26.5 -98t64.5 -62.5t90 -34t103 -10.5q41 0 86 6t83 22.5t62.5 48.5t24.5 81q0 68 -51 102.5t-128 56t-167 39t-167 49t-128 89t-51 159.5q0 80 36 137.5t92 93.5t127 53t140 17q88 0 165 -15t135.5 -53t93 -102.5t40.5 -160.5h-174q-4 51 -26.5 84.5
t-57 54t-76.5 30t-85 9.5q-39 0 -79 -6t-73 -21.5t-53.5 -42t-20.5 -65.5q0 -47 32 -76t81 -48.5t110.5 -32.5t122.5 -28q66 -14 128.5 -34.5t110.5 -54.5t78 -85t30 -127q0 -96 -40 -159.5t-104.5 -102.5t-145.5 -55.5t-161 -16.5q-90 0 -169 19.5t-140.5 61.5t-98 111
t-41.5 167h175zM403 -102h228v-158q0 -88 -55.5 -129t-147.5 -41v72q31 8 48.5 17t24.5 19.5t8 19.5t1 19h-107v181z" />
    <glyph glyph-name="uni021A" unicode="&#x21a;" horiz-adv-x="1175" 
d="M492 1298h-488v164h1170v-164h-488v-1298h-194v1298zM473 -102h227v-158q0 -88 -55 -129t-147 -41v72q31 8 48 17t24.5 19.5t8.5 19.5t1 19h-107v181z" />
    <glyph glyph-name="uni021B" unicode="&#x21b;" horiz-adv-x="645" 
d="M373 1059h211v-154h-211v-657q0 -31 5 -49.5t19.5 -28.5t40 -13t66.5 -3h80v-154h-133q-68 0 -116 9t-78 34t-44 70t-14 118v674h-181v154h181v317h174v-317zM266 -102h228v-158q0 -88 -55.5 -129t-147.5 -41v72q31 8 48 17t24.5 19.5t8.5 19.5t1 19h-107v181z" />
    <glyph glyph-name="uni021C" unicode="&#x21c;" horiz-adv-x="1359" 
d="M686 111q176 0 277 96q94 80 94 225q0 272 -365 273q-27 0 -88 -5v162q207 2 291 47q111 49 111 197q0 121 -85 189.5t-233 68.5q-152 0 -358 -213l-137 129q250 244 507 244q238 0 375 -121q133 -119 133 -313q0 -176 -186 -304q131 -59 186 -151q47 -80 47 -213
q0 -193 -151 -330q-158 -141 -393 -141q-274 0 -539 158l141 108q209 -106 373 -106z" />
    <glyph glyph-name="uni021D" unicode="&#x21d;" horiz-adv-x="1359" 
d="M686 -317q176 0 277 96q94 82 94 225q0 272 -365 272q-27 0 -88 -4v162q207 4 291 49q111 47 111 197q0 119 -85 188.5t-233 69.5q-152 0 -358 -213l-137 129q250 244 507 244q238 0 375 -123q133 -117 133 -311q0 -178 -186 -306q131 -57 186 -149q47 -82 47 -213
q0 -195 -151 -332q-158 -139 -393 -139q-274 0 -539 156l141 108q209 -106 373 -106z" />
    <glyph glyph-name="uni021E" unicode="&#x21e;" horiz-adv-x="1478" 
d="M162 1468h200v-606h764v606h201v-1468h-201v686h-764v-686h-200v1468zM854 1528h-190l-203 289h162l135 -193l135 193h164z" />
    <glyph glyph-name="uni021F" unicode="&#x21f;" 
d="M131 1475h180v-549q66 82 115 114q88 57 217 58q233 0 318 -164q45 -88 45 -248v-686h-187v676q0 117 -28 172q-49 88 -185 88q-113 0 -204 -77t-91 -292v-567h-180v1475zM688 1536h-190l-203 291h164l135 -193l133 193h166z" />
    <glyph glyph-name="uni0220" unicode="&#x220;" horiz-adv-x="1478" 
d="M170 1468h201v-69q141 109 379 108q371 0 503 -266q74 -145 74 -416v-1222h-203v1304q0 160 -59 267q-88 160 -299 159q-254 0 -344 -172q-49 -94 -49 -254v-907h-203v1468z" />
    <glyph glyph-name="uni0226" unicode="&#x226;" horiz-adv-x="1366" 
d="M909 602l-223 649l-235 -649h458zM584 1468h225l532 -1468h-219l-147 440h-582l-160 -440h-202zM602 1778h186v-207h-186v207z" />
    <glyph glyph-name="uni0227" unicode="&#x227;" 
d="M463 117q94 0 182 45q152 72 152 237v146q-33 -20 -85.5 -34.5t-103.5 -21.5l-108 -14q-98 -12 -148 -41q-82 -47 -82 -149q0 -78 56.5 -123t136.5 -45zM707 649q61 8 81 51q12 25 13 70q0 92 -65.5 133t-186.5 41q-141 0 -201 -76q-33 -41 -43 -125h-168q4 199 128 277
t288 78q188 0 305 -74q119 -72 119 -223v-617q0 -29 11 -45t48 -16q12 0 26.5 1t33.5 3v-131q-43 -12 -64.5 -15.5t-60.5 -3.5q-92 0 -135 66q-23 35 -31 98q-55 -72 -157.5 -125t-227.5 -53q-150 0 -244 91t-94 227q0 150 93 231.5t245 99.5zM473 1483h189v-209h-189v209z
" />
    <glyph glyph-name="uni0228" unicode="&#x228;" horiz-adv-x="1366" 
d="M174 1468h1071v-180h-876v-444h811v-170h-811v-500h893v-174h-1088v1468zM731 0h98l-94 -129q29 10 76 10q70 0 115 -41t45 -114q0 -76 -59.5 -131.5t-184.5 -55.5q-53 0 -111 15q-31 8 -86 28l35 80l60 -18q41 -12 73 -13q37 0 66 13q51 20 51 75q0 31 -26.5 54.5
t-69.5 23.5q-23 0 -40 -4t-42 -12l-35 41z" />
    <glyph glyph-name="uni0229" unicode="&#x229;" 
d="M963 903q53 -82 71 -188q16 -76 17 -238h-787q6 -162 78 -260t223 -98q141 0 226 92q47 53 67 125h176q-6 -59 -46 -132t-89 -118q-82 -80 -203 -109q-63 -16 -145 -16q-201 0 -340 146.5t-139 406.5q0 258 140 420t366 162q115 0 221.5 -54.5t163.5 -138.5zM864 621
q-10 117 -51 188q-74 129 -246 129q-125 0 -209 -89t-88 -228h594zM575 -27h97l-94 -129q29 10 75 11q70 0 115 -41t45 -115q0 -78 -59.5 -132t-184.5 -54q-53 0 -108 14q-33 8 -86 29l35 79q37 -14 59 -20q41 -10 74 -10q37 0 63 10q51 23 51 78q0 31 -26.5 54.5
t-69.5 23.5q-23 0 -40 -4.5t-42 -12.5l-35 41z" />
    <glyph glyph-name="uni022A" unicode="&#x22a;" horiz-adv-x="1593" 
d="M1366 1260q145 -195 145 -500q0 -330 -165 -547q-197 -256 -560 -256q-340 0 -532 223q-174 217 -174 547q0 297 147 510q190 272 564 272q389 1 575 -249zM1309 758q0 258 -136.5 415.5t-369.5 157.5q-229 0 -372.5 -155.5t-143.5 -460.5q0 -246 122.5 -413t401.5 -167
q262 0 380 188.5t118 434.5zM868 1823h187v-207h-187v207zM539 1823h186v-207h-186v207zM492 2179h641v-119h-641v119z" />
    <glyph glyph-name="uni022B" unicode="&#x22b;" 
d="M868 553q0 150 -47 244q-76 147 -262 147q-166 0 -240.5 -126t-74.5 -304q0 -170 74.5 -283.5t238.5 -113.5q178 0 244.5 135t66.5 301zM1057 557q0 -258 -126 -427t-390 -169q-221 0 -351.5 149.5t-130.5 401.5q0 270 137.5 430t366.5 160q207 0 350.5 -138.5
t143.5 -406.5zM641 1411h188v-209h-188v209zM311 1411h189v-209h-189v209zM254 1649h641v-117h-641v117z" />
    <glyph glyph-name="uni022C" unicode="&#x22c;" horiz-adv-x="1593" 
d="M1366 1260q145 -195 145 -500q0 -330 -165 -547q-197 -256 -560 -256q-340 0 -532 223q-174 217 -174 547q0 297 147 510q190 272 564 272q389 1 575 -249zM1309 758q0 258 -136.5 415.5t-369.5 157.5q-229 0 -372.5 -155.5t-143.5 -460.5q0 -246 122.5 -413t401.5 -167
q262 0 380 188.5t118 434.5zM844 1753q29 -10 51.5 -17t46.5 -7q55 0 80 34q12 18 18 58h105q-20 -127 -79.5 -175.5t-131.5 -48.5q-23 0 -56.5 8.5t-60.5 16.5l-51 20q-47 16 -77 24.5t-58 8.5q-35 0 -57.5 -22.5t-30.5 -69.5h-99q14 80 43 129q57 92 170 92q33 0 75 -10
t112 -41zM459 2019h641v-116h-641v116z" />
    <glyph glyph-name="uni022D" unicode="&#x22d;" 
d="M868 553q0 150 -47 244q-76 147 -262 147q-166 0 -240.5 -126t-74.5 -304q0 -170 74.5 -283.5t238.5 -113.5q178 0 244.5 135t66.5 301zM1057 557q0 -258 -126 -427t-390 -169q-221 0 -351.5 149.5t-130.5 401.5q0 270 137.5 430t366.5 160q207 0 350.5 -138.5
t143.5 -406.5zM606 1366l52.5 -17.5t46.5 -7.5q57 0 79 35q14 18 19 58h104q-20 -127 -79.5 -175.5t-131.5 -48.5q-20 0 -55 8.5t-59 18.5l-54 18q-47 16 -76.5 24.5t-58.5 8.5q-35 0 -57.5 -22.5t-30.5 -69.5h-96q12 80 43 129q55 92 168 92q35 0 75.5 -10t110.5 -41z
M231 1638h641v-118h-641v118z" />
    <glyph glyph-name="uni022E" unicode="&#x22e;" horiz-adv-x="1593" 
d="M1366 1260q145 -195 145 -500q0 -330 -165 -547q-197 -256 -560 -256q-340 0 -532 223q-174 217 -174 547q0 297 147 510q190 272 564 272q389 1 575 -249zM1309 758q0 258 -136.5 415.5t-369.5 157.5q-229 0 -372.5 -155.5t-143.5 -460.5q0 -246 122.5 -413t401.5 -167
q262 0 380 188.5t118 434.5zM688 1864h186v-207h-186v207z" />
    <glyph glyph-name="uni022F" unicode="&#x22f;" 
d="M868 553q0 150 -47 244q-76 147 -262 147q-166 0 -240.5 -126t-74.5 -304q0 -170 74.5 -283.5t238.5 -113.5q178 0 244.5 135t66.5 301zM1057 557q0 -258 -126 -427t-390 -169q-221 0 -351.5 149.5t-130.5 401.5q0 270 137.5 430t366.5 160q207 0 350.5 -138.5
t143.5 -406.5zM461 1475h186v-207h-186v207z" />
    <glyph glyph-name="uni0230" unicode="&#x230;" horiz-adv-x="1593" 
d="M1366 1260q145 -195 145 -500q0 -330 -165 -547q-197 -256 -560 -256q-340 0 -532 223q-174 217 -174 547q0 297 147 510q190 272 564 272q389 1 575 -249zM1309 758q0 258 -136.5 415.5t-369.5 157.5q-229 0 -372.5 -155.5t-143.5 -460.5q0 -246 122.5 -413t401.5 -167
q262 0 380 188.5t118 434.5zM684 1853h186v-206h-186v206zM463 2054h639v-119h-639v119z" />
    <glyph glyph-name="uni0231" unicode="&#x231;" 
d="M868 553q0 150 -47 244q-76 147 -262 147q-166 0 -240.5 -126t-74.5 -304q0 -170 74.5 -283.5t238.5 -113.5q178 0 244.5 135t66.5 301zM1057 557q0 -258 -126 -427t-390 -169q-221 0 -351.5 149.5t-130.5 401.5q0 270 137.5 430t366.5 160q207 0 350.5 -138.5
t143.5 -406.5zM483 1407h189v-209h-189v209zM254 1595h641v-118h-641v118z" />
    <glyph glyph-name="uni0232" unicode="&#x232;" horiz-adv-x="1366" 
d="M43 1468h231l422 -704l422 704h234l-555 -876v-592h-199v592zM391 1651h641v-117h-641v117z" />
    <glyph glyph-name="uni0233" unicode="&#x233;" horiz-adv-x="1024" 
d="M801 1071h198l-168 -471l-163 -448q-156 -410 -220.5 -500t-220.5 -90q-39 0 -59.5 3t-48.5 9v166q47 -14 67.5 -17.5t36.5 -3.5q49 0 72.5 16.5t40.5 41.5q6 8 36.5 81.5l45.5 110.5l-398 1102h205l287 -872zM207 1327h639v-117h-639v117z" />
    <glyph glyph-name="uni0237" unicode="&#x237;" horiz-adv-x="454" 
d="M315 -135q0 -141 -68.5 -206t-185.5 -65q-49 0 -90 9v149q10 -2 18.5 -3t16.5 -1h37q57 0 77.5 32t20.5 114v1165h174v-1194z" />
    <glyph glyph-name="uni0238" unicode="&#x238;" horiz-adv-x="1906" 
d="M758 1038q49 -31 108 -104v541h181v-535q59 78 141 119t178 41q201 0 325 -138.5t124 -406.5q0 -254 -123 -422t-340 -168q-123 0 -207 60q-49 35 -105 108v-133h-168v139q-61 -92 -143 -133q-86 -45 -197 -45q-180 0 -311 150.5t-131 400.5q0 236 120 407t343 171
q123 -1 205 -52zM1630 547q0 170 -71.5 280.5t-212.5 110.5q-123 0 -218 -90q-74 -76 -88 -230v-149q6 -98 35 -168q72 -176 264 -176q147 0 219 116t72 306zM588 119q125 0 205 106q70 92 79 252v117q-12 158 -81 242q-82 98 -205 98q-135 0 -220 -104.5t-85 -307.5
q0 -172 72.5 -287.5t234.5 -115.5z" />
    <glyph glyph-name="uni0239" unicode="&#x239;" horiz-adv-x="1847" 
d="M836 1067h8v4h170v-143q53 70 114 108q92 61 215 62q182 0 309.5 -140.5t127.5 -398.5q0 -350 -185 -500q-115 -96 -270 -96q-121 0 -203 53q-47 31 -106 105v-547h-182v549q-45 -72 -125 -115t-199 -43q-170 0 -305 134t-135 409q0 258 126 423t326 165q133 0 226 -68
q45 -33 88 -96v135zM1595 543q0 127 -36 219q-70 176 -256 176q-188 0 -256 -186q-23 -63 -33 -148v-194q10 -68 33 -123q70 -166 256 -166q125 0 208.5 105.5t83.5 316.5zM297 289q68 -168 246 -168q188 0 260 176q25 61 33 145v193q-10 82 -37 141q-74 160 -258 160
q-117 0 -201 -101.5t-84 -314.5q0 -137 41 -231z" />
    <glyph glyph-name="uni023A" unicode="&#x23a;" horiz-adv-x="1366" 
d="M909 602l-223 649l-235 -649h458zM584 1468h225l532 -1468h-219l-147 440h-582l-160 -440h-202zM866 1669h152l-494 -1870h-151z" />
    <glyph glyph-name="uni023B" unicode="&#x23b;" horiz-adv-x="1478" 
d="M866 1679h152l-47 -192q141 -35 237 -125q154 -147 170 -334h-192q-35 141 -133 225q-51 43 -125 64l-287 -1165q61 -14 131 -15q221 0 336 168q61 90 90 236h195q-27 -233 -172 -389q-174 -190 -471 -191q-80 0 -152 16l-45 -188h-154l58 236q-74 35 -138 92
q-229 205 -229 633q0 326 172 532q186 227 512 227q27 0 49 -2zM426 1184q-133 -154 -133 -467q0 -258 121 -420q39 -51 90 -86l276 1124h-4q-217 1 -350 -151z" />
    <glyph glyph-name="uni023C" unicode="&#x23c;" horiz-adv-x="1024" 
d="M717 1270h151l-71 -228q23 -12 43 -28q113 -88 137 -303h-176q-14 90 -62 151l-233 -737q12 -2 26 -2q113 0 178.5 68.5t90.5 187.5h176q-31 -213 -150.5 -311.5t-308.5 -98.5q-31 0 -61 4l-56 -174h-151l67 213q-76 39 -133 111q-125 154 -125 383q0 283 137.5 439.5
t348.5 156.5q61 0 114 -10zM545 940q-172 0 -246 -168q-47 -109 -47 -268q0 -162 67 -271q20 -35 50 -59l241 762q-30 4 -65 4z" />
    <glyph glyph-name="uni023D" unicode="&#x23d;" 
d="M-25 696v154h181v618h198v-618h324v-158h-324v-518h746v-174h-944v694z" />
    <glyph glyph-name="uni023E" unicode="&#x23e;" horiz-adv-x="1251" 
d="M915 1679h152l-74 -211h232v-174h-293l-203 -573v-721h-201v147l-127 -358h-151l278 789v716h-495v174h809zM729 1151l51 143h-51v-143z" />
    <glyph glyph-name="uni0241" unicode="&#x241;" 
d="M612 1489q199 0 317 -112.5t118 -289.5q0 -106 -43 -171.5t-177 -192.5q-96 -94 -123.5 -158.5t-27.5 -564.5h-178q0 516 33.5 604t148.5 201l80 80q37 33 57 69q41 66 41 136q0 98 -58.5 169.5t-193.5 71.5q-168 0 -231 -123q-35 -70 -41 -198h-178q0 215 121.5 347
t334.5 132z" />
    <glyph glyph-name="uni0242" unicode="&#x242;" 
d="M612 1102q199 0 317 -112.5t118 -287.5q0 -106 -43 -171.5t-177 -194.5q-96 -92 -123.5 -156.5t-27.5 -179.5h-178q0 131 33.5 218t148.5 202l80 78q37 35 57 71q41 66 41 136q0 98 -58.5 169.5t-193.5 71.5q-168 0 -231 -125q-35 -68 -41 -198h-178q0 217 121.5 348
t334.5 131z" />
    <glyph glyph-name="uni0243" unicode="&#x243;" horiz-adv-x="1482" 
d="M47 354v144h232v970h630q258 0 367 -153q63 -90 63 -209q0 -139 -77 -229q-41 -47 -119 -86q113 -43 170 -97q98 -96 98 -266q0 -141 -88 -256q-133 -172 -424 -172h-620v354h-232zM901 170q184 0 262 106q49 66 49 162q0 160 -143 217q-76 31 -201 31h-395v-188h215
v-144h-215v-184h428zM836 848q125 0 194 35q111 55 111 198t-117 195q-66 27 -197 27h-354v-455h363z" />
    <glyph glyph-name="uni0244" unicode="&#x244;" horiz-adv-x="1734" 
d="M45 756v141h250v571h203v-571h751v571h203v-571h234v-141h-234v-113q0 -270 -74 -416q-133 -266 -506 -266q-371 0 -503 266q-74 145 -74 416v113h-250zM557 295q88 -160 299 -160q254 0 344 172q49 94 49 254v195h-751v-195q0 -160 59 -266z" />
    <glyph glyph-name="uni0245" unicode="&#x245;" horiz-adv-x="1366" 
d="M51 0l537 1468h211l534 -1468h-223l-416 1251l-422 -1251h-221z" />
    <glyph glyph-name="uni0246" unicode="&#x246;" horiz-adv-x="1366" 
d="M174 1468h639l53 211h152l-51 -211h278v-180h-323l-111 -444h369v-170h-410l-123 -500h615v-174h-658l-51 -211h-154l54 211h-279v1468zM369 844h290l111 444h-401v-444zM369 174h127l122 500h-249v-500z" />
    <glyph glyph-name="uni0247" unicode="&#x247;" 
d="M717 1270h151l-71 -228l2 -2q106 -53 164 -137q53 -82 71 -188q16 -76 17 -238h-435l-112 -354q29 -4 61 -4q141 0 226 92q47 53 67 125h176q-6 -59 -46 -132t-89 -118q-82 -80 -203 -109q-63 -16 -145 -16q-49 0 -94 10l-56 -172h-151l69 221q-59 33 -108 86
q-139 147 -139 408q0 258 140 420t366 162q41 0 79 -9zM567 938q-125 0 -209 -89t-88 -228h240l100 315q-20 2 -43 2zM342 215q12 -16 29 -33l94 295h-201q6 -162 78 -262zM864 621q-10 117 -51 188q-27 45 -68 76l-83 -264h202z" />
    <glyph glyph-name="uni0248" unicode="&#x248;" horiz-adv-x="1110" 
d="M877 438q0 -186 -56 -288q-100 -188 -387 -189q-166 0 -282.5 89t-116.5 319v104h186v-104q0 -119 54.5 -180.5t166.5 -61.5q158 0 207 111q31 66 31 251v435h-160v143h160v401h197v-401h151v-143h-151v-486z" />
    <glyph glyph-name="uni0249" unicode="&#x249;" horiz-adv-x="454" 
d="M311 565h178v-141h-178v-584q0 -117 -37 -174q-63 -98 -239 -98q-12 0 -26.5 1t-47.5 5v156q123 4 146.5 21.5t23.5 109.5v563h-147v141h147v502h180v-502zM311 1262h-180v206h180v-206z" />
    <glyph glyph-name="uni024A" unicode="&#x24a;" horiz-adv-x="1761" 
d="M1702 -459q-287 0 -387 189q-55 102 -55 288v125q-190 -186 -500 -186q-362 0 -559 256q-166 217 -166 547q0 305 145 500q186 250 576 249q317 0 504 -198v157h196v-1398q0 -186 31 -252q49 -111 207 -111q2 0 3 -6t2 -18.5t2 -27.5t1 -32v-82zM238 758
q0 -246 117.5 -434.5t379.5 -188.5q279 0 402 166q111 152 123 365v94q-10 270 -144 416q-143 156 -373 155q-233 0 -369 -157.5t-136 -415.5z" />
    <glyph glyph-name="uni024B" unicode="&#x24b;" horiz-adv-x="1257" 
d="M1196 -426q-31 -4 -45 -5t-27 -1q-176 0 -239 98q-37 57 -37 174v217q-121 -96 -299 -96q-264 0 -390 169t-126 427q0 268 142 406.5t349 138.5q195 0 324 -113v78h178v-1206q0 -92 24.5 -109.5t145.5 -21.5v-156zM219 553q0 -166 66.5 -301t246.5 -135q162 0 238 113.5
t76 283.5q0 178 -76 304t-240 126q-186 0 -262 -147q-49 -94 -49 -244z" />
    <glyph glyph-name="uni024C" unicode="&#x24c;" horiz-adv-x="1599" 
d="M47 631v166h258v671h680q168 0 279 -49q207 -94 206 -346q0 -133 -54 -217t-152 -133q86 -37 129 -93.5t49 -185.5l6 -196q2 -84 14 -125q18 -70 64 -90v-33h-244q-10 18 -16 49t-11 117l-12 244q-6 145 -106 192q-57 29 -179 29h-452v-631h-201v631h-258zM965 797
q141 0 222 55t81 203q0 156 -115 213q-59 31 -162 30h-485v-501h459z" />
    <glyph glyph-name="uni024D" unicode="&#x24d;" horiz-adv-x="798" 
d="M27 354v144h215v573h172v-184q20 53 102 131t189 78q6 0 17 -1t42 -5v-191q-16 4 -29.5 5t-29.5 1q-137 0 -210 -88t-73 -201v-118h244v-144h-244v-354h-180v354h-215z" />
    <glyph glyph-name="uni024E" unicode="&#x24e;" horiz-adv-x="1581" 
d="M25 1055v141h292l-172 272h234l162 -272h518l164 272h231l-172 -272h272v-141h-360l-295 -463v-592h-199v592l-292 463h-383zM801 764l174 291h-350z" />
    <glyph glyph-name="uni024F" unicode="&#x24f;" horiz-adv-x="1257" 
d="M49 655v142h199l-98 274h202l90 -274h396l92 274h198l-100 -274h211v-142h-260l-21 -55l-163 -448q-156 -410 -219.5 -500t-221.5 -90q-37 0 -57.5 3t-50.5 9v166q47 -14 68.5 -17.5t35.5 -3.5q51 0 75 16.5t40 41.5q4 8 34.5 81.5l45.5 110.5l-246 686h-250zM639 199
l152 456h-302z" />
    <glyph glyph-name="uni0250" unicode="&#x250;" 
d="M715 942q-96 0 -185 -43q-150 -74 -149 -240v-145q33 23 84 36t102 19l109 15q98 14 147 41q82 47 82 149q0 80 -56 124t-134 44zM469 412q-61 -8 -82 -54q-12 -23 -12 -67q0 -92 65.5 -134t188.5 -42q139 0 198 75q33 43 43 125h168q-4 -197 -128 -274.5t-285 -77.5
q-190 0 -308 72q-117 72 -116 223v619q0 27 -12.5 44t-49.5 17q-12 0 -26.5 -1t-30.5 -5v133q41 12 63.5 15t59.5 3q94 0 135 -65q23 -37 31 -100q55 72 158.5 125t226.5 53q150 0 244 -90.5t94 -227.5q0 -147 -93.5 -229t-242.5 -103z" />
    <glyph glyph-name="uni0251" unicode="&#x251;" horiz-adv-x="1202" 
d="M881 154q-59 -86 -148.5 -135.5t-210.5 -49.5q-213 0 -339 159t-126 404q0 246 125 405t340 159q119 0 208 -49.5t149 -131.5v160h163v-837q0 -84 13.5 -92.5t97.5 -16.5v-129q-10 -6 -23.5 -8t-58.5 -2q-100 0 -139 41t-51 123zM547 942q-143 0 -229.5 -99.5
t-86.5 -310.5q0 -209 86 -309t230 -100q143 0 229 99.5t86 309.5q0 209 -86 309.5t-229 100.5z" />
    <glyph glyph-name="uni0252" unicode="&#x252;" horiz-adv-x="1202" 
d="M330 909q59 86 148 136.5t210 50.5q213 0 339 -160t126 -404q0 -246 -125 -405.5t-340 -159.5q-119 0 -208 50.5t-148 132.5v-160h-164v835q0 84 -13.5 93.5t-97.5 17.5v129q10 4 23.5 6t58.5 2q100 0 139.5 -41t51.5 -123zM664 123q143 0 229 99.5t86 309.5
q0 207 -86 307.5t-229 100.5t-229.5 -99.5t-86.5 -308.5t86.5 -309t229.5 -100z" />
    <glyph glyph-name="uni0253" unicode="&#x253;" 
d="M465 1350q-123 -4 -146.5 -21.5t-23.5 -109.5v-277q57 76 139 117t178 41q199 0 324 -138.5t125 -406.5q0 -254 -123 -422t-340 -168q-123 0 -207 60q-49 35 -106 112v-137h-166v782h-4v455q0 119 37 176q63 98 239 98q12 0 26.5 -1t47.5 -5v-155zM877 547
q0 170 -73 280.5t-212 110.5q-123 0 -216 -91t-93 -300q0 -152 39 -246q70 -176 264 -176q145 0 218 116t73 306z" />
    <glyph glyph-name="uni0254" unicode="&#x254;" horiz-adv-x="1024" 
d="M57 358h176q16 -98 72.5 -163.5t183.5 -65.5q172 0 246 168q47 109 47 268q0 162 -67.5 271.5t-212.5 109.5q-113 0 -178.5 -67.5t-90.5 -188.5h-176q31 213 151 312.5t306 99.5q211 0 336 -153.5t125 -385.5q0 -281 -137.5 -438.5t-348.5 -157.5q-182 0 -294.5 88
t-137.5 303z" />
    <glyph glyph-name="uni0256" unicode="&#x256;" horiz-adv-x="1243" 
d="M1171 -426q-31 -4 -45 -5t-26 -1q-176 0 -240 98q-39 57 -39 174v279q-55 -76 -127 -113q-86 -45 -196 -45q-180 0 -311.5 150.5t-131.5 400.5q0 236 120 407t341 171q123 0 207 -52q47 -31 108 -104v541h175v-1475h-5v-139q0 -92 25 -109.5t145 -21.5v-156zM553 119
q125 0 206 107.5t81 308.5q0 203 -83 301t-206 98q-135 0 -220 -104.5t-85 -307.5q0 -172 72.5 -287.5t234.5 -115.5z" />
    <glyph glyph-name="uni0257" unicode="&#x257;" horiz-adv-x="1212" 
d="M1176 1346q-121 -4 -145.5 -21.5t-24.5 -110.5v-1214h-162v150q-63 -100 -149.5 -144.5t-196.5 -44.5q-180 0 -311.5 150.5t-131.5 400.5q0 236 120 407t341 171q123 0 207 -52q45 -29 102 -98v295q0 117 37 174q63 98 240 98q12 0 27.5 -1t46.5 -5v-155zM553 119
q125 0 206 107.5t81 308.5q0 203 -83 301t-206 98q-135 0 -220 -104.5t-85 -307.5q0 -172 72.5 -287.5t234.5 -115.5z" />
    <glyph glyph-name="uni0258" unicode="&#x258;" 
d="M160 903q55 84 162.5 138.5t222.5 54.5q225 0 365.5 -162t140.5 -420q0 -260 -139.5 -406.5t-340.5 -146.5q-82 0 -145 16q-123 29 -205 109q-49 45 -88 117.5t-47 132.5h178q20 -72 68 -125q84 -92 225 -92q152 0 223.5 98t75.5 260h-784q0 162 16 238q19 106 72 188z
M852 621q-4 139 -88 228t-209 89q-172 0 -248 -129q-39 -72 -51 -188h596z" />
    <glyph glyph-name="uni0259" unicode="&#x259;" horiz-adv-x="1120" 
d="M549 -23q-141 0 -234.5 58.5t-149.5 148.5t-77.5 196.5t-17.5 203.5h792q2 70 -16.5 132t-59.5 110t-104.5 77t-149.5 29q-111 0 -181 -51.5t-93 -155.5h-172q35 180 153.5 269t299.5 89q127 0 222 -41t158.5 -114.5t95.5 -176t32 -223.5t-37 -221t-103.5 -174
t-157.5 -115t-200 -41zM559 131q68 0 122 23.5t93 64.5t61.5 95.5t26.5 115.5h-608q4 -61 27.5 -116.5t63.5 -95.5t94 -63.5t120 -23.5z" />
    <glyph glyph-name="uni025A" unicode="&#x25a;" horiz-adv-x="1689" 
d="M1413 496q29 -8 54.5 -2t48 20t41 36.5t28.5 47.5q12 -12 24.5 -20.5l22.5 -15.5t21.5 -14t23.5 -20q-29 -72 -87 -109.5t-144 -43.5q-57 -6 -100 10t-74 50t-45.5 83t-14.5 111q-43 -10 -86 -25q-33 -10 -65 -22q31 -199 -45 -357q-94 -190 -314 -250
q-109 -29 -226.5 -5t-192.5 91q-74 66 -119 164q-35 68 -76 226l758 202q-47 156 -142.5 233t-240.5 38q-135 -37 -193 -150q-33 -63 -34 -137l-170 -45q-8 57 11 138t54 136q59 100 168 158q59 33 137 53q195 51 367 -53q160 -96 229 -324q37 10 74 23q121 35 235 72
q12 -45 9.5 -93.5t-2.5 -90.5t12 -72.5t53 -42.5zM303 358q41 -109 98 -165q104 -106 273 -64q119 33 177 141.5t28 241.5z" />
    <glyph glyph-name="uni025B" unicode="&#x25b;" horiz-adv-x="1067" 
d="M979 330q0 -152 -127 -251t-352 -99q-174 0 -296 83.5t-122 225.5q0 106 63.5 178t169.5 102q-90 41 -135 98.5t-45 159.5q0 123 109.5 196t275.5 73q231 0 324.5 -111t93.5 -219h-170q-18 94 -80.5 136t-159.5 42q-119 0 -170 -38t-51 -105q0 -80 53.5 -122t167.5 -42
h105v-143h-119q-113 0 -181.5 -45.5t-68.5 -153.5q0 -88 75 -131t169 -43q133 0 205.5 51t95.5 158h170z" />
    <glyph glyph-name="uni025C" unicode="&#x25c;" horiz-adv-x="1067" 
d="M254 330q23 -106 95.5 -157.5t205.5 -51.5q92 0 168 43t76 131q0 109 -68.5 154t-181.5 45h-121v143h107q113 0 167 42t54 122q0 68 -52.5 105.5t-168.5 37.5q-98 0 -161 -42t-79 -136h-170q0 109 92 219.5t326 110.5q166 0 275.5 -73t109.5 -196q0 -102 -45 -159.5
t-135 -98.5q106 -31 169.5 -102.5t63.5 -177.5q0 -141 -123 -225t-297 -84q-223 0 -350 99t-127 251h170z" />
    <glyph glyph-name="uni025D" unicode="&#x25d;" horiz-adv-x="1622" 
d="M1341 776q27 -8 52.5 -3t48 20.5t41 38t30.5 47.5q12 -12 23.5 -20.5t23 -15.5t22.5 -15.5l24 -18.5q-31 -74 -89.5 -112t-144.5 -44q-55 -6 -99 11.5t-74 51.5t-45 83t-15 108q-41 -8 -84 -22.5l-86 -30.5l-64 -20v-7q0 -102 -45 -159.5t-135 -98.5
q106 -31 169.5 -102.5t63.5 -177.5q0 -141 -121.5 -225t-295.5 -84q-225 0 -352.5 99t-127.5 251h170q25 -106 96.5 -157.5t204.5 -51.5q94 0 169 43t75 131q0 109 -68.5 154t-181.5 45h-118v143h104q115 0 168 42t53 122q0 68 -51 105.5t-170 37.5q-96 0 -158.5 -42
t-81.5 -136h-170q0 109 93.5 219.5t324.5 110.5q166 0 277 -72q45 -33 71 -72l164 49l238 72q10 -45 8 -92t-2 -89t11 -73t54 -43z" />
    <glyph glyph-name="uni025E" unicode="&#x25e;" horiz-adv-x="1021" 
d="M199 985q66 80 202 100l125 11q164 0 273 -72q111 -74 110 -197q0 -102 -45 -159.5t-135 -98.5q106 -31 170 -102.5t64 -177.5q0 -141 -122 -225t-296 -84q-23 0 -43 2q-150 27 -219.5 69.5t-145.5 145t-76 309.5q1 258 138 479zM526 940q-172 0 -245 -168
q-47 -109 -48 -268q0 -162 68 -271q33 -55 84 -81q55 -23 87 -26l42 -4t63.5 -1t128 43t74.5 131q0 109 -68.5 154t-181.5 45l-14 143q115 0 168 42t53 122q0 68 -53 104q-47 37 -158 39v-4z" />
    <glyph glyph-name="uni025F" unicode="&#x25f;" horiz-adv-x="569" 
d="M346 -340q-63 -90 -244 -90q-16 0 -34.5 1t-40.5 3v164q29 -2 41 -3t22 -1q82 0 98.5 43t16.5 217h-178v141h180v924h178v-924h150v-141h-150v-168q-4 -113 -39 -166z" />
    <glyph glyph-name="uni0260" unicode="&#x260;" horiz-adv-x="1239" 
d="M1169 1124q-121 -4 -145 -20q-20 -14 -25 -74v-944q0 -203 -59 -322q-113 -217 -424 -217q-172 0 -289.5 77t-132.5 243h182q14 -72 54 -111q59 -59 190 -59q207 0 273 145q37 86 34 308q-55 -82 -130.5 -122t-200.5 -40q-174 0 -304.5 122.5t-130.5 407.5
q0 270 131.5 421t317.5 151q127 0 219 -62q45 -31 90 -84v70q0 117 37 174q63 98 240 98q14 0 28.5 -1t44.5 -5v-156zM543 932q-190 0 -260 -178q-37 -96 -37 -250q0 -180 73.5 -275.5t196.5 -95.5q195 0 275 176q43 98 43 232q0 199 -82 295t-209 96z" />
    <glyph glyph-name="uni0261" unicode="&#x261;" 
d="M729 1028q51 -35 105 -102v135h165v-975q0 -203 -59 -322q-113 -217 -424 -217q-172 0 -289.5 77t-132.5 243h182q14 -72 54 -111q59 -59 190 -59q207 0 273 145q37 86 34 308q-55 -82 -130.5 -122t-200.5 -40q-174 0 -304.5 122.5t-130.5 407.5q0 270 131.5 421
t317.5 151q127 -1 219 -62zM543 932q-190 0 -260 -178q-37 -96 -37 -250q0 -180 73.5 -275.5t196.5 -95.5q195 0 275 176q43 98 43 232q0 199 -82 295t-209 96z" />
    <glyph glyph-name="uni0265" unicode="&#x265;" 
d="M1004 -426h-181v547q-63 -80 -114 -115q-86 -55 -217 -55q-233 0 -316 162q-45 90 -45 247v687h184v-674q0 -119 31 -174q49 -88 184 -88q111 0 202 76.5t91 291.5v568h181v-1473z" />
    <glyph glyph-name="uni0266" unicode="&#x266;" 
d="M479 1380q-121 -4 -145.5 -21.5t-24.5 -109.5v-96h2v-227q66 82 115 114q88 57 217 58q233 0 318 -164q45 -88 45 -248v-686h-187v676q0 117 -28 172q-49 88 -185 88q-113 0 -204 -77t-91 -292v-567h-180v813h-2v457q0 117 39 174q63 98 240 98q12 0 26.5 -1t44.5 -5
v-156z" />
    <glyph glyph-name="uni0267" unicode="&#x267;" horiz-adv-x="1239" 
d="M1171 -426q-31 -4 -45 -5t-26 -1q-176 0 -240 98q-39 57 -39 174v160h-2v676q0 117 -28 172q-49 88 -185 88q-113 0 -204 -77t-91 -292v-567h-180v813h-2v457q0 117 39 174q63 98 240 98q12 0 26.5 -1t44.5 -5v-156q-121 -4 -145.5 -21.5t-24.5 -109.5v-96h2v-227
q66 82 115 114q88 57 217 58q233 0 318 -164q45 -88 45 -248v-686h-5v-139q0 -92 25 -109.5t145 -21.5v-156z" />
    <glyph glyph-name="uni0268" unicode="&#x268;" horiz-adv-x="698" 
d="M35 760h237v307h183v-307h221v-119h-221v-641h-183v641h-237v119zM272 1468h183v-202h-183v202z" />
    <glyph glyph-name="uni0269" unicode="&#x269;" horiz-adv-x="514" 
d="M465 0q-8 -4 -68.5 -8t-68.5 -4q-90 0 -141.5 57t-51.5 145v885h164v-837q0 -31 5 -47.5t20.5 -32t44 -19.5t55.5 -4h41v-135z" />
    <glyph glyph-name="uni026A" unicode="&#x26a;" horiz-adv-x="577" 
d="M35 184h158v695h-158v186h158v2h182v-2h162v-186h-162v-695h162v-184h-502v184z" />
    <glyph glyph-name="uni026B" unicode="&#x26b;" horiz-adv-x="755" 
d="M287 1468h180v-620l10 -4q23 -6 47 -6q55 0 80 34q12 18 19 58h104q-20 -127 -79.5 -175t-131.5 -48q-20 0 -49 6v-713h-180v770q-8 4 -17 6q-29 8 -57 8q-35 0 -57.5 -22.5t-30.5 -69.5h-98q14 78 43 129q57 92 170 92q20 0 47 -6v561z" />
    <glyph glyph-name="uni026D" unicode="&#x26d;" horiz-adv-x="546" 
d="M483 -426q-31 -4 -45 -5t-26 -1q-176 0 -240 98q-39 57 -39 174v457h4v1171h180v-1468h-4v-139q0 -92 24.5 -109.5t145.5 -21.5v-156z" />
    <glyph glyph-name="uni026F" unicode="&#x26f;" horiz-adv-x="1705" 
d="M1573 23h-178v151q-66 -78 -117 -115q-88 -59 -203 -59q-127 0 -205 61q-45 37 -79 107q-61 -86 -142.5 -127t-181.5 -41q-215 0 -295 156q-41 84 -41 225v713h186v-744q0 -106 54.5 -146t130.5 -40q106 0 183 70.5t77 236.5v623h182v-699q0 -109 27 -159q41 -74 151 -74
q102 0 186.5 78.5t84.5 285.5v568h180v-1071z" />
    <glyph glyph-name="uni0270" unicode="&#x270;" horiz-adv-x="1705" 
d="M1573 -426h-178v600q-66 -78 -117 -115q-88 -59 -203 -59q-127 0 -205 61q-45 37 -79 107q-61 -86 -142.5 -127t-181.5 -41q-215 0 -295 156q-41 84 -41 225v713h186v-744q0 -106 54.5 -146t130.5 -40q106 0 183 70.5t77 236.5v623h182v-699q0 -109 27 -159
q41 -74 151 -74q102 0 186.5 78.5t84.5 285.5v568h180v-1520z" />
    <glyph glyph-name="uni0271" unicode="&#x271;" horiz-adv-x="1705" 
d="M1223 -270q121 4 145.5 21.5t24.5 109.5v139h-7v743q0 109 -53 149t-131 40q-106 0 -183 -72t-77 -237v-623h-182v698q0 111 -27 160q-41 76 -151 76q-102 0 -186.5 -80t-84.5 -287v-567h-180v1071h178v-151q66 78 117 114q88 61 203 62q127 0 205 -64q45 -37 79 -106
q61 86 142.5 128t181.5 42q215 0 295 -158q41 -84 41 -225v-873q0 -117 -37 -174q-63 -98 -240 -98q-14 0 -28.5 1t-44.5 5v156z" />
    <glyph glyph-name="uni0272" unicode="&#x272;" 
d="M-43 -270q123 4 146.5 21.5t23.5 109.5v1206h4v4h172v-4h4v-141q74 88 158 129t188 41q227 0 308 -160q45 -86 45 -250v-686h-185v676q0 96 -28 158q-47 100 -175 100q-63 0 -104 -14q-74 -23 -131 -89q-43 -53 -57.5 -109t-14.5 -161v-561h-4v-160q0 -117 -37 -174
q-63 -98 -239 -98q-12 0 -26.5 1t-47.5 5v156z" />
    <glyph glyph-name="uni0273" unicode="&#x273;" horiz-adv-x="1234" 
d="M1171 -426q-31 -4 -45 -5t-26 -1q-176 0 -240 98q-39 57 -39 174v836q0 96 -28 158q-47 100 -175 100q-63 0 -104 -14q-74 -23 -131 -89q-43 -53 -57.5 -109t-14.5 -161v-561h-180v1071h172v-151q76 94 161 135t189 41q227 0 308 -160q45 -86 45 -250v-686h-5v-139
q0 -92 25 -109.5t145 -21.5v-156z" />
    <glyph glyph-name="uni0274" unicode="&#x274;" horiz-adv-x="1118" 
d="M84 1071h235l527 -792v792h188v-1071h-223l-537 791v-791h-190v1071z" />
    <glyph glyph-name="uni0275" unicode="&#x275;" 
d="M1057 557q0 -258 -126 -427t-390 -169q-221 0 -351.5 149.5t-130.5 401.5q0 270 137.5 430t366.5 160q207 0 350.5 -138.5t143.5 -406.5zM821 797q-76 147 -262 147q-166 0 -240 -125q-61 -100 -71 -233h620q-4 127 -47 211zM319 229q74 -113 238 -112q178 0 246 135
q49 98 61 215h-618q10 -140 73 -238z" />
    <glyph glyph-name="uni0276" unicode="&#x276;" horiz-adv-x="1933" 
d="M578 1100q170 0 280 -82q61 -45 117 -129q63 98 165.5 153.5t231.5 55.5q121 0 217.5 -49.5t161.5 -143.5q61 -88 82 -203q10 -72 12 -225h-792q4 -131 45 -213q76 -154 268 -153q135 0 215 92q43 49 74 133h180q-43 -176 -171 -277.5t-300 -101.5q-119 0 -222.5 47
t-187.5 170q-70 -121 -173 -168t-218 -47q-207 0 -349 142.5t-142 420.5q0 248 133 413t373 165zM1659 616q-8 115 -49 189q-74 133 -252 133q-90 0 -166 -53q-119 -82 -137 -269h604zM885 549q0 197 -88 295t-226 98q-133 0 -224 -105.5t-91 -324.5q0 -184 89 -291.5
t230 -107.5q113 0 211.5 95t98.5 341z" />
    <glyph glyph-name="uni0278" unicode="&#x278;" horiz-adv-x="1478" 
d="M831 160q180 6 277 112q94 109 94 281q-2 369 -371 401v-794zM647 0q-240 4 -399 147q-164 141 -168 385q0 262 151 420q150 160 416 162v332h184v-332q268 -2 418 -162q147 -158 150 -420q-4 -244 -166 -385q-160 -143 -402 -147v-418h-184v418zM647 954
q-371 -33 -371 -401q0 -172 99 -281q94 -106 272 -112v794z" />
    <glyph glyph-name="uni0279" unicode="&#x279;" horiz-adv-x="681" 
d="M657 23h-172v186q-20 -55 -102 -132t-188 -77h-17.5t-42.5 4v191q16 -4 29.5 -5.5t30.5 -1.5q137 0 209.5 88.5t72.5 200.5v617h180v-1071z" />
    <glyph glyph-name="uni027A" unicode="&#x27a;" horiz-adv-x="681" 
d="M657 23h-172v186q-20 -55 -102 -132t-188 -77h-17.5t-42.5 4v191q16 -4 29.5 -5.5t30.5 -1.5q137 0 209.5 88.5t72.5 200.5v991h180v-1445z" />
    <glyph glyph-name="uni027B" unicode="&#x27b;" horiz-adv-x="903" 
d="M827 -426q-31 -4 -45 -5t-26 -1q-176 0 -240 98q-39 57 -39 174v350q-25 -49 -94 -114q-82 -76 -188 -76h-17.5t-42.5 4v191q16 -4 29.5 -5.5t30.5 -1.5q137 0 209.5 88.5t72.5 200.5v617h180v-797v0v-436q0 -92 25 -109.5t145 -21.5v-156z" />
    <glyph glyph-name="uni027C" unicode="&#x27c;" horiz-adv-x="681" 
d="M137 1071h170v-184q23 53 105 131t188 78q4 0 16.5 -1t40.5 -5v-191q-16 4 -29.5 5t-29.5 1q-135 0 -208 -88t-73 -201v-923h-180v1378z" />
    <glyph glyph-name="uni027D" unicode="&#x27d;" horiz-adv-x="681" 
d="M483 -426q-31 -4 -45 -5t-26 -1q-176 0 -240 98q-39 57 -39 174v457h4v774h170v-184q23 53 105 131t188 78q4 0 16.5 -1t40.5 -5v-191q-16 4 -29.5 5t-29.5 1q-135 0 -208 -88t-73 -201v-616h-4v-139q0 -92 24.5 -109.5t145.5 -21.5v-156z" />
    <glyph glyph-name="uni027E" unicode="&#x27e;" horiz-adv-x="454" 
d="M432 874q-162 27 -186.5 9.5t-24.5 -109.5v-774h-178v793q0 117 37 176q63 98 278 67q14 0 28.5 -1t45.5 -5v-156z" />
    <glyph glyph-name="uni027F" unicode="&#x27f;" horiz-adv-x="454" 
d="M43 1030q31 4 45 5t27 1q217 31 278 -67q39 -59 39 -176v-793h-180v774q0 92 -24.5 109.5t-184.5 -9.5v156z" />
    <glyph glyph-name="uni0280" unicode="&#x280;" horiz-adv-x="1077" 
d="M555 580q102 0 161.5 41t59.5 147q0 59 -82 100q-45 23 -119 23h-243v-311h223zM131 1071h496q123 0 202 -37q152 -68 152 -252q0 -96 -41 -157.5t-111 -98.5q63 -53 94 -95t35 -107l7 -144q2 -59 10 -90q12 -51 47 -65v-25h-236q-6 14 -11 35.5t-7 85.5l-8 178
q-6 78 -78 113q-43 18 -131 18h-219v-430h-201v1071z" />
    <glyph glyph-name="uni0281" unicode="&#x281;" horiz-adv-x="1077" 
d="M332 492v-312h243q74 0 119 23q82 41 82 100q0 106 -59.5 147.5t-161.5 41.5h-223zM131 1071h201v-432h219q88 0 131 20q72 35 78 113l8 178q2 63 7 85t11 36h236v-24q-35 -14 -47 -66q-8 -31 -10 -90l-7 -143q-4 -66 -34.5 -108t-94.5 -95q70 -37 111 -98.5t41 -157.5
q0 -184 -152 -252q-80 -37 -202 -37h-496v1071z" />
    <glyph glyph-name="uni0283" unicode="&#x283;" horiz-adv-x="825" 
d="M410 1354q76 190 274 190q43 0 84 -8q23 -4 63 -18l-14 -162q-41 16 -66.5 24.5t-50.5 8.5q-90 0 -122 -91q-33 -92 -46 -317l-32 -682q-18 -365 -94 -543q-76 -176 -281 -176q-39 0 -69.5 7t-57.5 18l12 166q27 -14 51.5 -21.5t53.5 -7.5q84 0 127 76t55 280l51 883
q17 262 62 373z" />
    <glyph glyph-name="uni0284" unicode="&#x284;" horiz-adv-x="825" 
d="M66 119h231l51 862q16 262 62 373q76 190 274 190q43 0 84 -8q23 -4 63 -18l-14 -162q-41 16 -66.5 24.5t-50.5 8.5q-90 0 -122 -91q-33 -92 -46 -317l-32 -682q-4 -98 -15 -180h220v-119h-234q-25 -147 -65 -244q-76 -176 -281 -176q-39 0 -69.5 7t-57.5 18l12 166
q27 -14 51.5 -21.5t53.5 -7.5q84 0 127 76q31 55 45 182h-221v119z" />
    <glyph glyph-name="uni0285" unicode="&#x285;" horiz-adv-x="872" 
d="M440 965q45 -61 62 -205l51 -486q12 -113 53 -153q43 -43 129 -43q29 0 52.5 4t50.5 10l14 -90l-58.5 -8t-68.5 -4q-205 0 -283 96q-76 98 -94 297l-33 377q-10 125 -45 174q-33 49 -123 49q-23 0 -48 -4t-66 -14l-17 90q41 8 66 10q39 4 82 4q198 0 276 -104z" />
    <glyph glyph-name="uni0287" unicode="&#x287;" horiz-adv-x="569" 
d="M377 -18h-182v299h-172v147h172v698q0 57 -39 76q-20 10 -70 10h-27.5t-35.5 -2v142q31 10 64.5 13t72.5 3q127 0 172 -64.5t45 -166.5v-709h143v-147h-143v-299z" />
    <glyph glyph-name="uni0288" unicode="&#x288;" horiz-adv-x="569" 
d="M168 1370h182v-299h170v-147h-170v-1127q0 -55 37 -73q23 -12 72 -13q12 0 27.5 1t33.5 3v-141q-31 -10 -63.5 -14t-73.5 -4q-125 0 -170 64.5t-45 166.5v1137h-145v147h145v299z" />
    <glyph glyph-name="uni0289" unicode="&#x289;" horiz-adv-x="1320" 
d="M47 625v141h170v305h184v-305h498v305h180v-305h197v-141h-197v-625h-170l2 158q-35 -61 -86 -103q-102 -84 -250 -84q-229 0 -313 154q-45 82 -45 217v283h-170zM428 225q47 -96 178 -96q188 0 256 170q37 88 37 246v80h-498v-265q0 -82 27 -135z" />
    <glyph glyph-name="uni028A" unicode="&#x28a;" horiz-adv-x="1126" 
d="M907 500q0 139 -64.5 246.5t-189.5 183.5v141h410v-141h-272q90 -35 181 -142.5t91 -287.5q0 -221 -129 -360.5t-373 -139.5t-373 139.5t-129 360.5q0 180 91.5 287.5t181.5 142.5h-273v141h410v-141q-127 -76 -190.5 -182.5t-63.5 -247.5q0 -164 87 -254t255 -90
q174 0 262 90t88 254z" />
    <glyph glyph-name="uni028C" unicode="&#x28c;" horiz-adv-x="1024" 
d="M793 0l-287 870l-299 -870h-197l404 1069h192l395 -1069h-208z" />
    <glyph glyph-name="uni028D" unicode="&#x28d;" horiz-adv-x="1478" 
d="M1243 0l-207 844l-209 -844h-200l-211 838l-219 -838h-181l312 1069h186l219 -827l211 827h186l310 -1069h-197z" />
    <glyph glyph-name="uni028E" unicode="&#x28e;" horiz-adv-x="1024" 
d="M219 0h-199l168 469l164 451q158 410 221.5 499.5t219.5 89.5q39 0 59 -3t49 -11v-164q-47 14 -67.5 17.5t-36.5 3.5q-49 0 -73 -16.5t-40 -41.5q-4 -8 -36 -81.5t-46 -110.5l397 -1102h-204l-287 872z" />
    <glyph glyph-name="uni028F" unicode="&#x28f;" horiz-adv-x="1015" 
d="M31 1071h231l246 -516l244 516h233l-379 -639v-432h-198v432z" />
    <glyph glyph-name="uni0292" unicode="&#x292;" horiz-adv-x="1024" 
d="M158 428l551 473h-662v166h893v-166l-360 -311q152 -27 256 -148q137 -158 137 -440q0 -229 -149.5 -332.5t-360.5 -103.5q-186 0 -291.5 108.5t-134.5 321.5h174q25 -119 76 -198t162 -79q147 0 239 60.5t92 220.5q0 162 -60.5 300t-232.5 138l-98 -10h-231z" />
    <glyph glyph-name="uni0294" unicode="&#x294;" 
d="M612 1489q199 0 317 -112.5t118 -289.5q0 -106 -43 -171.5t-177 -192.5q-96 -94 -123.5 -158.5t-27.5 -564.5h-178q0 516 33.5 604t148.5 201l80 80q37 33 57 69q41 66 41 136q0 98 -58.5 169.5t-193.5 71.5q-168 0 -231 -123q-35 -70 -41 -198h-178q0 215 121.5 347
t334.5 132z" />
    <glyph glyph-name="uni0295" unicode="&#x295;" 
d="M592 1489q213 0 335 -132t122 -347h-179q-6 129 -41 198q-63 123 -231 123q-135 0 -193.5 -71.5t-58.5 -169.5q0 -70 39 -136q23 -37 59 -69l80 -80q115 -113 149 -201t34 -604h-179q0 500 -28.5 564.5t-122.5 158.5q-133 127 -176 192.5t-43 171.5q0 176 117.5 289
t316.5 113z" />
    <glyph glyph-name="uni0296" unicode="&#x296;" 
d="M612 0q-213 0 -334.5 131t-121.5 348h178q6 -131 41 -198q63 -125 231 -125q135 0 193.5 71.5t58.5 169.5q0 72 -41 135q-20 37 -57 72l-80 78q-115 115 -148.5 202t-33.5 605h178q0 -502 27.5 -566.5t123.5 -156.5q133 -127 176.5 -193.5t43.5 -173.5
q0 -174 -118 -286.5t-317 -112.5z" />
    <glyph glyph-name="uni0297" unicode="&#x297;" horiz-adv-x="1028" 
d="M975 711h-174q-16 100 -73.5 164.5t-182.5 64.5q-172 0 -246 -287q-49 -199 -49 -358q0 -162 67.5 -361.5t214.5 -199.5q111 0 176.5 68.5t92.5 187.5h174q-31 -213 -150.5 -311.5t-306.5 -98.5q-211 0 -336 192.5t-125 524.5q0 381 137.5 593t350.5 212q180 0 293.5 -88
t136.5 -303z" />
    <glyph glyph-name="uni0298" unicode="&#x298;" horiz-adv-x="1593" 
d="M1366 1260q145 -195 145 -500q0 -330 -165 -547q-197 -256 -560 -256q-340 0 -532 223q-174 217 -174 547q0 297 147 510q190 272 564 272q389 1 575 -249zM1309 758q0 258 -136.5 415.5t-369.5 157.5q-229 0 -372.5 -155.5t-143.5 -460.5q0 -246 122.5 -413t401.5 -167
q262 0 380 188.5t118 434.5zM686 848h209v-219h-209v219z" />
    <glyph glyph-name="uni029A" unicode="&#x29a;" horiz-adv-x="1021" 
d="M823 985q139 -221 140 -479q0 -207 -76 -309.5t-145.5 -145.5t-221.5 -69q-18 -2 -41 -2q-174 0 -296 83.5t-122 225.5q0 106 63.5 178t170.5 102q-90 41 -135 98.5t-45 159.5q0 123 108 197q109 72 273 72l127 -11q134 -20 200 -100zM496 944q-109 -2 -158 -39
q-51 -37 -51 -104q0 -80 53 -122t168 -42l-14 -143q-113 0 -181.5 -45.5t-68.5 -153.5q0 -88 74.5 -131t127 -43t62.5 1l42 4t87 26q51 27 86 81q68 109 68 271q0 160 -50 268q-74 168 -245 168v4z" />
    <glyph glyph-name="uni029C" unicode="&#x29c;" horiz-adv-x="1220" 
d="M162 1071h200v-412h484v412h201v-1071h-201v502h-484v-502h-200v1071z" />
    <glyph glyph-name="uni029E" unicode="&#x29e;" horiz-adv-x="1024" 
d="M1016 -397h-172v852l-463 -455h-229l409 401l-434 670h231l334 -541l152 140v401h172v-1468z" />
    <glyph glyph-name="uni029F" unicode="&#x29f;" horiz-adv-x="1007" 
d="M156 1071h198v-897h545v-174h-743v1071z" />
    <glyph glyph-name="uni02A0" unicode="&#x2a0;" horiz-adv-x="1234" 
d="M1174 1202q-121 -4 -145.5 -21.5t-24.5 -109.5h2v-1497h-183v549q-45 -72 -123.5 -115t-197.5 -43q-172 0 -307.5 134t-135.5 409q0 258 127 423t328 165q133 0 223 -68q45 -33 86 -90v152q0 117 37 176q63 98 240 98q12 0 27.5 -1t46.5 -5v-156zM287 289
q70 -168 248 -168q188 0 258 176q39 96 38 248q0 139 -43 231q-72 160 -256 160q-117 0 -200.5 -101.5t-83.5 -314.5q0 -137 39 -231z" />
    <glyph glyph-name="uni02A1" unicode="&#x2a1;" 
d="M270 367h234q8 188 26 237q35 88 150 201l80 80q37 33 57 69q41 66 41 136q0 98 -58.5 169.5t-193.5 71.5q-168 0 -231 -123q-35 -70 -41 -198h-178q0 215 121.5 347t334.5 132q199 0 317 -112.5t118 -289.5q0 -106 -43 -171.5t-177 -192.5q-96 -94 -125 -160
q-14 -35 -20 -196h229v-119h-233q-2 -106 -2 -248h-178q0 139 2 248h-230v119z" />
    <glyph glyph-name="uni02A2" unicode="&#x2a2;" 
d="M932 248h-227q2 -109 2 -248h-179q0 141 -2 248h-233v119h229q-8 162 -22 196q-29 66 -125 160q-131 127 -175 192.5t-44 171.5q0 176 118.5 289t315.5 113q213 0 335 -132t122 -347h-179q-4 129 -41 198q-63 123 -229 123q-135 0 -194.5 -71.5t-59.5 -169.5
q0 -70 41 -136q23 -37 57 -69l80 -80q117 -113 150 -201q20 -49 28 -237h232v-119z" />
    <glyph glyph-name="uni02A3" unicode="&#x2a3;" horiz-adv-x="1906" 
d="M723 1038q47 -31 108 -104v541h175v-404h813v-147l-631 -762h649v-162h-993v150q-63 -100 -149.5 -144.5t-196.5 -44.5q-180 0 -311.5 150.5t-131.5 400.5q0 236 120 407t341 171q123 -1 207 -52zM553 119q125 0 206 107.5t81 308.5q0 203 -83 301t-206 98
q-135 0 -220 -104.5t-85 -307.5q0 -172 72.5 -287.5t234.5 -115.5zM1577 909h-571v-690z" />
    <glyph glyph-name="uni02A4" unicode="&#x2a4;" horiz-adv-x="1910" 
d="M1057 428l551 473h-635v-901h-162v150q-63 -100 -149.5 -144.5t-196.5 -44.5q-180 0 -311 150.5t-131 400.5q0 236 119.5 407t340.5 171q123 0 207 -52q47 -31 109 -104v541h174v-408h866v-166l-358 -311q150 -27 256 -148q137 -158 137 -440q0 -229 -150.5 -332.5
t-359.5 -103.5q-188 0 -292.5 108.5t-135.5 321.5h174q27 -119 77 -198t163 -79q145 0 238 60.5t93 220.5q0 162 -61 300t-234 138l-98 -10h-231zM520 119q125 0 206 107.5t81 308.5q0 203 -84 301t-205 98q-135 0 -220 -104.5t-85 -307.5q0 -172 72.5 -287.5t234.5 -115.5z
" />
    </font>
</defs>
</svg>
