<svg width="100%" height="100%" viewBox="0 0 326 246" fill="none" xmlns="http://www.w3.org/2000/svg"><path d="M88.816 101.807v37.713M88.816 148.572v37.713M46.574 143.48h37.714M93.34 143.48h37.713M42.242 160.957v37.714M42.242 207.722v37.713M0 202.63h37.714M46.766 202.631h37.713M189.895 101.807v37.713M189.895 148.572v37.713M147.652 143.48h37.714M194.418 143.48h37.713M236.828 54.875v37.713M236.828 101.639v37.714M194.59 96.548h37.713M241.355 96.548h37.714M283.762 0v37.714M283.762 46.765v37.713M241.52 41.673h37.713M288.285 41.673h37.714M236.828 148.739v37.714M236.828 195.504v37.714M194.59 190.413h37.713M241.355 190.413h37.714" stroke="#fff" stroke-width="1.634"/></svg>
