<svg width="100%" height="100%" viewBox="0 0 326 246" fill="none" xmlns="http://www.w3.org/2000/svg"><path d="M237.184 101.807v37.713M237.184 148.572v37.713M279.426 143.48h-37.714M232.66 143.48h-37.713M283.758 160.957v37.714M283.758 207.722v37.713M326 202.631h-37.713M279.234 202.631h-37.713M136.105 101.807v37.713M136.105 148.572v37.713M178.348 143.48h-37.714M131.582 143.48H93.869M89.172 54.875v37.713M89.172 101.639v37.714M131.41 96.548H93.697M84.644 96.548H46.931M42.238 0v37.714M42.238 46.765v37.713M84.48 41.673H46.768M37.715 41.673H0M89.172 148.739v37.714M89.172 195.504v37.714M131.41 190.413H93.697M84.644 190.413H46.931" stroke="#fff" stroke-width="1.634"/></svg>
