<svg width="100%" height="100%" viewBox="0 0 165 125" fill="none" xmlns="http://www.w3.org/2000/svg"><path d="M44.955 51.529v19.088M44.955 75.198v19.088M23.573 72.621h19.088M47.242 72.621h19.089M21.382 81.467v19.089M21.382 105.137v19.088M0 102.56h19.088M23.669 102.56h19.088M96.114 51.529v19.088M96.114 75.198v19.088M74.732 72.621h19.089M98.401 72.621h19.089M119.87 27.774v19.088M119.87 51.443v19.089M98.491 48.867h19.089M122.16 48.867h19.088M143.62 0v19.088M143.62 23.67v19.088M122.238 21.093h19.089M145.907 21.093h19.089M119.87 75.283v19.088M119.87 98.953v19.088M98.491 96.376h19.089M122.16 96.376h19.088" stroke="#fff" stroke-width=".827"/></svg>
