<svg width="100%" height="100%" viewBox="0 0 159 163" fill="none" xmlns="http://www.w3.org/2000/svg"><path d="M30.154 62.951 2.8 68.568l34.354 12.024A50.346 50.346 0 0 0 70.692 48.47L86.77 1.054 66.922.744l-14.12 41.663a31.623 31.623 0 0 1-22.648 20.544ZM127.968 99.762l26.977-5.54-33.993-12.144a50.372 50.372 0 0 0-33.581 32.13l-16.198 47.786.858.275 18.895.292 14.334-42.29a31.616 31.616 0 0 1 22.708-20.51ZM113.523 73.55l45.304 16.653V70.07l-38.82-14.257c-9.293-3.435-15.7-11.165-20.183-24.254L91.338 2.522l-10.4 31.632.953 3.246c6.338 18.852 16.722 30.67 31.632 36.15ZM44.6 89.164 0 72.803v20.131l38.081 14c9.688 3.564 16.825 12.023 20.097 23.927l8.95 28.419 10.126-30.729-.91-2.886C71.387 107.818 60.11 94.867 44.6 89.164Z" fill="#10222c"/></svg>
