<svg width="186" height="52" fill="none" xmlns="http://www.w3.org/2000/svg"><path fill-rule="evenodd" clip-rule="evenodd" d="m7.034 21.468-6.38 1.254 8.012 2.683a11.88 11.88 0 0 0 4.827-2.67 11.189 11.189 0 0 0 2.996-4.498l3.75-10.58-4.63-.07-3.293 9.297a7.04 7.04 0 0 1-2.023 2.944 7.493 7.493 0 0 1-3.26 1.64ZM118.898 24.9l10.833-10.29h-5.887l-8.961 8.774V7.672h-4.821v27.197h4.821v-8.104l9.316 8.103h6.454L118.898 24.9Zm-55.347-.165c0-6.432 4.274-10.676 10.545-10.676 6.272 0 10.546 4.244 10.546 10.676S80.358 35.42 74.096 35.42c-6.271 0-10.545-4.254-10.545-10.686Zm4.84 0c0 4.135 2.152 6.606 5.715 6.606 3.553 0 5.695-2.462 5.695-6.606s-2.142-6.597-5.695-6.597c-3.563 0-5.715 2.462-5.715 6.597Zm23.307 0c0 4.135 2.151 6.606 5.714 6.606 3.064 0 4.677-1.856 5.158-4.29h4.811c-.643 4.805-4.302 8.37-9.978 8.37-6.262 0-10.546-4.254-10.546-10.686s4.274-10.676 10.546-10.676c5.676 0 9.335 3.555 9.978 8.37h-4.811c-.471-2.435-2.084-4.291-5.158-4.291-3.563 0-5.714 2.462-5.714 6.597Zm53.229 3.344h4.649c-1.124 4.576-4.889 7.342-9.94 7.342-6.31 0-10.555-4.31-10.555-10.704 0-6.377 4.197-10.658 10.439-10.658 6.156 0 10.152 4.17 10.152 10.612 0 .477-.019.946-.077 1.47h-15.751c.404 3.372 2.584 5.393 5.916 5.393 2.526 0 4.226-1.167 5.167-3.455Zm-11.016-5.246h10.988c-.509-3.207-2.363-4.925-5.36-4.925-3.073 0-5.099 1.82-5.628 4.925Zm23.27 12.036V24.072c0-3.785 2.008-5.935 5.427-5.935 3.198 0 4.773 1.884 4.773 5.642v11.09h4.821v-11.55c0-5.871-2.679-9.261-7.366-9.261-3.947 0-6.694 2.388-7.655 6.523V14.61h-4.821v20.26h4.821ZM61.784 14.391l.028.291v4.647l-5.005.444c-3.064.273-5.407 2.732-5.407 5.675v10.053h-5.142V25.45c0-5.485 4.366-10.067 10.074-10.574l5.452-.484ZM36.142 28.447l-6.293 1.236a7.492 7.492 0 0 0-3.266 1.634 7.04 7.04 0 0 0-2.03 2.943l-3.344 9.437-4.407-.066-.2-.061 3.777-10.663a11.195 11.195 0 0 1 3.001-4.501 11.886 11.886 0 0 1 4.832-2.67l7.93 2.71Zm-9.662-4.613 10.567 3.716v-4.493l-9.055-3.181c-2.168-.767-3.662-2.492-4.708-5.412l-1.979-6.48-2.426 7.059.222.724c1.479 4.207 3.9 6.844 7.379 8.067ZM0 23.667l10.403 3.651c3.618 1.272 6.248 4.163 7.404 8.145l.213.644-2.362 6.858-2.088-6.342c-.763-2.657-2.428-4.544-4.687-5.34L0 28.16v-4.492Z" fill="#F9F9F9"/><path d="M179.645 2.9c.46 0 .899.055 1.317.163.419.107.809.259 1.168.456a4.619 4.619 0 0 1 1.728 1.65c.206.344.365.716.476 1.118.113.4.17.82.17 1.26 0 .443-.058.868-.173 1.275a4.598 4.598 0 0 1-.484 1.136 4.645 4.645 0 0 1-1.752 1.681 4.973 4.973 0 0 1-1.18.47c-.421.11-.863.164-1.325.164-.458 0-.897-.054-1.316-.162a4.84 4.84 0 0 1-2.16-1.186 4.66 4.66 0 0 1-.756-.943 4.603 4.603 0 0 1-.651-2.383 4.638 4.638 0 0 1 .66-2.396c.211-.35.466-.665.763-.948.298-.283.629-.525.994-.726a5.304 5.304 0 0 1 2.521-.628Zm-.005.826c-.384 0-.749.043-1.095.13a4.057 4.057 0 0 0-.961.375 3.657 3.657 0 0 0-1.788 2.297 4.117 4.117 0 0 0-.134 1.06c0 .37.044.723.132 1.058a3.656 3.656 0 0 0 1.765 2.294c.29.163.604.288.942.377.339.088.696.131 1.07.131.38 0 .741-.044 1.084-.133.345-.091.664-.22.958-.385.296-.166.562-.367.799-.602a3.731 3.731 0 0 0 1-1.734c.091-.339.136-.696.136-1.071 0-.367-.043-.715-.131-1.045a3.693 3.693 0 0 0-.378-.92 3.417 3.417 0 0 0-.594-.758 3.512 3.512 0 0 0-.783-.58 3.96 3.96 0 0 0-.947-.366 4.383 4.383 0 0 0-1.075-.128Zm-.901 6.067h-.944V5.47h2.269c.233 0 .448.031.643.094.195.061.362.149.501.262.141.112.25.246.328.403.079.157.118.33.118.519 0 .17-.032.323-.096.46-.062.139-.15.257-.265.357a1.209 1.209 0 0 1-.413.228 1.74 1.74 0 0 1-.54.078V7.87a.754.754 0 0 1 .479.173c.072.055.138.126.2.212.062.083.12.182.173.295l.583 1.244h-1.013l-.583-1.141a.863.863 0 0 0-.126-.192.513.513 0 0 0-.156-.125.673.673 0 0 0-.211-.066 1.66 1.66 0 0 0-.282-.02h-.889l.224-.242v1.786Zm-.194-3.464.194-.335v1.631l-.224-.238h1.286c.142 0 .269-.012.381-.037a.986.986 0 0 0 .284-.105.502.502 0 0 0 .178-.17.425.425 0 0 0 .063-.228.414.414 0 0 0-.06-.222.483.483 0 0 0-.175-.163.961.961 0 0 0-.285-.1 1.992 1.992 0 0 0-.389-.033h-1.253Z" fill="#F9F9F9"/></svg>