<svg width="52" height="63" fill="none" xmlns="http://www.w3.org/2000/svg"><path fill="#ED6F78" d="M30.945 8.026L7.565 20.813l14.613 26.72 23.38-12.786z"/><path d="M3.489 17.587c-.02 7.09 2.29 14.872 6.117 21.938l-8.397 3.842L26.83 58.232c13.03 7.522 23.571 1.514 23.676-13.35.043-14.9-10.369-33.084-23.514-40.673C14.078-3.247 3.529 2.729 3.489 17.587zm32.35 18.828c-1.39 2.093-8.59 5.759-9.22 6.049l-.061-.107c-.875-1.443-7.72-12.934-9.094-16.55-.183-.362-3.64-7.245.026-8.9.093-.035 1.871-.734 4.203.611 1.593.92 3.403 2.813 4.979 6.574 1.595-1.909 3.404-1.704 4.988-.789 2.31 1.334 4.051 4.035 4.144 4.177 3.704 5.909.219 8.786.036 8.935z" fill="#0C1447" stroke="#0C1447" stroke-width="2" stroke-miterlimit="10" stroke-linecap="round" stroke-linejoin="round"/></svg>