<svg width="177" height="146" fill="none" xmlns="http://www.w3.org/2000/svg"><path d="M110.767 113.76c-10.359 1.422-21.638-5.756-31.75-4.926-10.487.861-20.425-3.131-22.46-4.853-2.035-1.721-9.392-6.81-15.34-9.47-4.765-2.13-7.82-8.93-8.85-11.555a2.718 2.718 0 00-1.452-1.505 288.272 288.272 0 01-7.698-3.454c-3.992-1.879-8.139-11.427-11.974-15.183-2.192-2.147-2.568-3.935-2.49-5.074.065-.92-.301-1.817-1.036-2.375-3.02-2.288-9.496-7.708-5.394-9.299 5.242-2.035 15.418 5.478 15.418 5.478s-9.627-7.123-2.27-7.045c7.355.079 20.66 12.834 22.93 14.48 1.931 1.398 15.067 5.342 18.954 6.49.647.19 1.334.124 1.948-.156 5.73-2.609 19.232-.09 21.83-.388 1.182-.136 2.102-.65 2.768-1.191a2.717 2.717 0 00.744-3.243c-1.94-4.18-7.525-6.208-8.286-7.385-.742-1.146-2.831-2.073-3.395-2.306a2.77 2.77 0 01-.292-.14c-10.542-5.787-13.664-16.924-9.936-17.785 3.747-.865 14.55 12.247 17.432 12.247 2.556 0 10.547 4.078 12.325 5.002.228.12.438.27.623.447 1.457 1.394 8.528 7.99 14.57 10.69 6.554 2.93 20.87 23.624 21.78 24.948.031.043.06.088.086.133" fill="#FFEFDF"/><path d="M110.767 113.76c-10.359 1.422-21.638-5.756-31.75-4.926-10.487.861-20.425-3.131-22.46-4.853-2.035-1.721-9.392-6.81-15.34-9.47-4.765-2.13-7.82-8.93-8.85-11.555a2.718 2.718 0 00-1.452-1.505 288.272 288.272 0 01-7.698-3.454c-3.992-1.879-8.139-11.427-11.974-15.183-2.192-2.147-2.568-3.935-2.49-5.074.065-.92-.301-1.817-1.036-2.375-3.02-2.288-9.496-7.708-5.394-9.299 5.242-2.035 15.418 5.478 15.418 5.478s-9.627-7.123-2.27-7.045c7.355.079 20.66 12.834 22.93 14.48 1.931 1.398 15.067 5.342 18.954 6.49.647.19 1.334.124 1.948-.156 5.73-2.609 19.232-.09 21.83-.388 1.182-.136 2.102-.65 2.768-1.191a2.717 2.717 0 00.744-3.243c-1.94-4.18-7.525-6.208-8.286-7.385-.742-1.146-2.831-2.073-3.395-2.306a2.77 2.77 0 01-.292-.14c-10.542-5.787-13.664-16.924-9.936-17.785 3.747-.865 14.55 12.247 17.432 12.247 2.556 0 10.547 4.078 12.325 5.002.228.12.438.27.623.447 1.457 1.394 8.528 7.99 14.57 10.69 6.554 2.93 20.87 23.624 21.78 24.948.031.043.06.088.086.133M55.907 74.138l-9.034-1.66" stroke="#0C1447" stroke-width="2" stroke-miterlimit="10" stroke-linecap="round" stroke-linejoin="round"/><path d="M43.27 71.097l-9.305-5.677a29.695 29.695 0 01-6.788-5.707c-2.418-2.74-6.115-6.51-9.441-8.169M9.127 56.397s4.65-1.527 7.877 2.53c3.226 4.056 10.784 11.062 10.784 11.062M31.98 81.913s-8.985-11.739-3.27-11.922c5.716-.183 10.694 7.651 10.694 7.651s8.574 14.934 23.693 17.148M57.842 81.492s-14.853-2.699-20.195-6.18M61.097 75.13s-3.964 6.728-4.793 12.722M122.523 102.136s-4.229-9.165-14.101-11.562M104.335 87.852s-17.344-2.777-28.34 2.722" stroke="#0C1447" stroke-width="2" stroke-miterlimit="10" stroke-linecap="round" stroke-linejoin="round"/><path d="M69.245 29.559c3.643 6.379 5.892 13.476 5.873 19.912-.017 6.146-2.111 10.587-5.462 12.853l7.28 11.812-22.341-12.827c-8.186-4.727-15.28-14.325-18.53-24.178l6.542 3.778c.043.024.084.048.126.074 13.607 7.858 24.905 2.746 26.512-11.424z" fill="#fff" stroke="#0C1447" stroke-width="2" stroke-miterlimit="10" stroke-linecap="round" stroke-linejoin="round"/><path d="M80.129 8.567c-.01 3.103 1 6.508 2.677 9.601l-3.676 1.681 11.213 6.505c5.701 3.293 10.316.663 10.361-5.842.019-6.521-4.539-14.48-10.29-17.798-5.651-3.265-10.269-.65-10.285 5.853z" fill="#EAEDFF" stroke="#0C1447" stroke-width="2" stroke-miterlimit="10" stroke-linecap="round" stroke-linejoin="round"/><path d="M94.154 15.008l-8.718-4.895M94.154 18.862l-4.98-2.796M65.455 47.89L48.54 38.39M65.455 53.315l-9.667-5.425" stroke="#0C1447" stroke-width="2" stroke-miterlimit="10" stroke-linecap="round" stroke-linejoin="round"/><path d="M175.59 99.233c-1.795-2.596-5.82-5.359-14.815-5.297-16.892.114-18.799-12.014-26.155-11.536-7.018.457-24.993 14.706-23.174 36.322.25 2.963 2.102 5.597 4.872 6.681a7.096 7.096 0 003.1.495c9.384-.649 13.053 19.13 24.757 18.314" fill="#fff"/><path d="M175.59 99.233c-1.795-2.596-5.82-5.359-14.815-5.297-16.892.114-18.799-12.014-26.155-11.536-7.018.457-24.993 14.706-23.174 36.322.25 2.963 2.102 5.597 4.872 6.681a7.096 7.096 0 003.1.495c9.384-.649 13.053 19.13 24.757 18.314" stroke="#0C1447" stroke-width="2" stroke-miterlimit="10" stroke-linecap="round" stroke-linejoin="round"/></svg>