<svg width="167" height="167" fill="none" xmlns="http://www.w3.org/2000/svg"><circle cx="83.571" cy="117.621" r="49.237" fill="#4893F4"/><g filter="url(#a)"><circle cx="83.571" cy="83.429" r="83.429" fill="#fff" fill-opacity=".3"/><circle cx="83.571" cy="83.429" r="82.929" stroke="url(#b)"/></g><g filter="url(#c)"><circle cx="83.57" cy="83.429" r="61.546" fill="#fff" fill-opacity=".2"/></g><g filter="url(#d)"><path d="M134.573 117.878a61.555 61.555 0 0 0 3.454-63.127A61.553 61.553 0 0 0 84.02 21.885l-.45 61.544 51.003 34.449Z" fill="#fff" fill-opacity=".3"/></g><g filter="url(#e)"><path d="m131.492 57.961.885-.466-.885.466Zm-19.483-20.73.519-.854-.519.854Zm-27.365-7.78 9.43 6.666 1.057-11.499-10.487 4.834Zm44.681 83.829a54.39 54.39 0 0 0 9.236-27.47l-1.997-.11a52.393 52.393 0 0 1-8.897 26.461l1.658 1.119Zm9.236-27.47a54.386 54.386 0 0 0-6.184-28.315l-1.77.932a52.384 52.384 0 0 1 5.957 27.273l1.997.11Zm-6.184-28.315a54.383 54.383 0 0 0-19.849-21.118l-1.039 1.709a52.383 52.383 0 0 1 19.118 20.341l1.77-.932Zm-19.849-21.118a54.38 54.38 0 0 0-18.746-7.086l-.35 1.97a52.388 52.388 0 0 1 18.057 6.825l1.039-1.709Z" fill="#4D8FDE"/></g><circle cx="83.571" cy="10.034" r="2.735" fill="#fff"/><circle cx="83.571" cy="82.746" r="4.84" fill="#fff"/><circle cx="47.711" cy="19.148" r="2.735" fill="#fff"/><circle cx="20.975" cy="45.883" r="2.735" fill="#fff"/><circle cx="11.083" cy="82.745" r="2.735" fill="#fff"/><circle cx="20.975" cy="119.389" r="2.735" fill="#fff"/><circle cx="46.84" cy="146.529" r="2.735" fill="#fff"/><circle cx="84.255" cy="156.333" r="2.735" fill="#fff"/><circle cx="121.104" cy="146.529" r="2.735" fill="#fff"/><circle cx="120.882" cy="19.148" r="2.735" fill="#fff"/><circle cx="157.426" cy="83.429" r="2.735" fill="#fff"/><circle cx="147.853" cy="46.589" r="2.735" fill="#fff"/><circle cx="147.853" cy="118.99" r="2.735" fill="#fff"/><path fill="#fff" d="M82.384 34.131h2.373v48.614h-2.373z"/><path fill="#fff" d="m103.087 61.102 1.68 1.675L83.2 84.42l-1.681-1.675z"/><defs><filter id="a" x="-39.858" y="-40" width="246.858" height="246.858" filterUnits="userSpaceOnUse" color-interpolation-filters="sRGB"><feFlood flood-opacity="0" result="BackgroundImageFix"/><feGaussianBlur in="BackgroundImageFix" stdDeviation="20"/><feComposite in2="SourceAlpha" operator="in" result="effect1_backgroundBlur_1467_7445"/><feBlend in="SourceGraphic" in2="effect1_backgroundBlur_1467_7445" result="shape"/></filter><filter id="c" x="-17.976" y="-18.117" width="203.092" height="203.092" filterUnits="userSpaceOnUse" color-interpolation-filters="sRGB"><feFlood flood-opacity="0" result="BackgroundImageFix"/><feGaussianBlur in="BackgroundImageFix" stdDeviation="20"/><feComposite in2="SourceAlpha" operator="in" result="effect1_backgroundBlur_1467_7445"/><feBlend in="SourceGraphic" in2="effect1_backgroundBlur_1467_7445" result="shape"/></filter><filter id="d" x="43.57" y="-18.116" width="141.546" height="175.993" filterUnits="userSpaceOnUse" color-interpolation-filters="sRGB"><feFlood flood-opacity="0" result="BackgroundImageFix"/><feGaussianBlur in="BackgroundImageFix" stdDeviation="20"/><feComposite in2="SourceAlpha" operator="in" result="effect1_backgroundBlur_1467_7445"/><feBlend in="SourceGraphic" in2="effect1_backgroundBlur_1467_7445" result="shape"/></filter><filter id="e" x="44.644" y="-15.382" width="133.998" height="168.662" filterUnits="userSpaceOnUse" color-interpolation-filters="sRGB"><feFlood flood-opacity="0" result="BackgroundImageFix"/><feGaussianBlur in="BackgroundImageFix" stdDeviation="20"/><feComposite in2="SourceAlpha" operator="in" result="effect1_backgroundBlur_1467_7445"/><feBlend in="SourceGraphic" in2="effect1_backgroundBlur_1467_7445" result="shape"/></filter><linearGradient id="b" x1="42.54" y1="0" x2="117.763" y2="173.697" gradientUnits="userSpaceOnUse"><stop stop-color="#fff"/><stop offset=".365" stop-color="#fff" stop-opacity="0"/><stop offset=".786" stop-color="#F7F7F7"/></linearGradient></defs></svg>