<svg width="150" height="196" fill="none" xmlns="http://www.w3.org/2000/svg"><path d="M25.36 53.06v15.333M25.36 77.386v15.333M29.487 72.963H44.82M5.308 72.963h15.333" stroke="#10222C" stroke-width="1.5"/><path d="M29.255 48.58a24.621 24.621 0 0 1 19.911 19.97l-1.454.257a23.144 23.144 0 0 0-18.717-18.773l.26-1.454ZM21.576 97.21A24.621 24.621 0 0 1 .863 78.071l1.443-.316a23.144 23.144 0 0 0 19.47 17.99l-.2 1.463ZM49.193 76.91a24.622 24.622 0 0 1-19.77 20.11l-.27-1.452a23.144 23.144 0 0 0 18.584-18.904l1.456.246ZM50.346 68.286a24.62 24.62 0 0 1 20.128-19.753l.245 1.457a23.144 23.144 0 0 0-18.92 18.568l-1.453-.272Z" fill="#10222C"/><path d="M74.99 53.06v15.332M79.116 72.963H94.45M54.938 72.963H70.27" stroke="#10222C" stroke-width="1.5"/><path d="M78.885 48.58a24.62 24.62 0 0 1 19.911 19.97l-1.455.257a23.143 23.143 0 0 0-18.716-18.773l.26-1.454ZM99.976 68.286a24.624 24.624 0 0 1 20.129-19.753l.244 1.457a23.144 23.144 0 0 0-18.92 18.568l-1.453-.272Z" fill="#10222C"/><path d="M124.622 53.06v15.333M124.622 77.386v15.333M128.749 72.962h15.333M104.57 72.962h15.333" stroke="#10222C" stroke-width="1.5"/><path d="M128.517 48.58a24.62 24.62 0 0 1 19.911 19.97l-1.455.257a23.144 23.144 0 0 0-18.716-18.773l.26-1.454ZM148.456 76.91a24.614 24.614 0 0 1-19.77 20.11l-.27-1.452A23.146 23.146 0 0 0 147 76.664l1.456.246ZM99.688 166.475a24.616 24.616 0 0 1 20.129-19.752l.244 1.457a23.14 23.14 0 0 0-18.921 18.567l-1.452-.272Z" fill="#10222C"/><path d="M124.333 151.249v15.333M124.333 175.575v15.333M128.46 171.153h15.333M104.281 171.153h15.333" stroke="#10222C" stroke-width="1.5"/><path d="M128.229 146.769a24.622 24.622 0 0 1 19.911 19.972l-1.455.255a23.143 23.143 0 0 0-18.716-18.772l.26-1.455ZM120.55 195.4a24.621 24.621 0 0 1-20.714-19.138l1.443-.315a23.143 23.143 0 0 0 19.471 17.989l-.2 1.464ZM148.169 175.101a24.63 24.63 0 0 1-6.72 13.166 24.633 24.633 0 0 1-13.05 6.944l-.271-1.452a23.145 23.145 0 0 0 18.585-18.904l1.456.246ZM100.613 20.285A24.621 24.621 0 0 1 120.741.533l.245 1.457a23.144 23.144 0 0 0-18.921 18.567l-1.452-.272Z" fill="#10222C"/><path d="M125.258 5.06v15.332M125.258 29.385v15.333M129.385 24.963h15.333M105.206 24.963h15.333" stroke="#10222C" stroke-width="1.5"/><path d="M129.154.58a24.62 24.62 0 0 1 19.911 19.97l-1.455.256a23.145 23.145 0 0 0-18.716-18.772l.26-1.455ZM121.474 49.21a24.622 24.622 0 0 1-20.713-19.138l1.443-.315a23.14 23.14 0 0 0 19.471 17.99l-.201 1.463ZM149.094 28.91a24.623 24.623 0 0 1-19.77 20.111l-.271-1.452a23.146 23.146 0 0 0 18.584-18.904l1.457.246Z" fill="#10222C"/><path d="M75.258 5.06v15.332M75.258 29.385v15.333M79.385 24.963h15.333M55.206 24.963H70.54" stroke="#10222C" stroke-width="1.5"/><path d="M79.154.58a24.622 24.622 0 0 1 19.91 19.97l-1.454.256A23.144 23.144 0 0 0 78.894 2.035l.26-1.455ZM71.475 49.21A24.621 24.621 0 0 1 50.76 30.072l1.443-.315a23.143 23.143 0 0 0 19.47 17.99l-.2 1.463ZM99.094 28.91a24.621 24.621 0 0 1-19.77 20.111l-.27-1.452a23.145 23.145 0 0 0 18.583-18.904l1.457.246Z" fill="#10222C"/><path d="M75.091 175.575v15.333M79.218 171.153h15.333M55.04 171.153h15.333" stroke="#10222C" stroke-width="1.5"/><path d="M71.308 195.4a24.626 24.626 0 0 1-20.714-19.138l1.443-.315a23.14 23.14 0 0 0 19.47 17.989l-.2 1.464ZM98.927 175.101a24.623 24.623 0 0 1-19.77 20.11l-.27-1.452a23.144 23.144 0 0 0 18.583-18.904l1.457.246ZM.615 166.475a24.62 24.62 0 0 1 20.128-19.752l.245 1.457a23.14 23.14 0 0 0-18.92 18.567l-1.453-.272Z" fill="#10222C"/><path d="M25.258 151.25v15.333M25.258 175.576v15.333M29.385 171.153h15.333M5.206 171.153H20.54" stroke="#10222C" stroke-width="1.5"/><path d="M21.476 195.4A24.626 24.626 0 0 1 .763 176.262l1.443-.315a23.14 23.14 0 0 0 19.47 17.989l-.2 1.464ZM49.094 175.101a24.623 24.623 0 0 1-19.77 20.11l-.27-1.452a23.144 23.144 0 0 0 18.583-18.904l1.457.246Z" fill="#10222C"/><path d="M124.628 101.123v15.333M124.628 125.449v15.333M128.756 121.026h15.333" stroke="#10222C" stroke-width="1.5"/><path d="M128.524 96.642a24.62 24.62 0 0 1 19.911 19.972l-1.455.255a23.143 23.143 0 0 0-18.716-18.772l.26-1.455ZM148.464 124.973a24.618 24.618 0 0 1-19.77 20.11l-.271-1.452a23.144 23.144 0 0 0 18.584-18.904l1.457.246Z" fill="#10222C"/><path d="M24.667 102.597v15.333M24.667 126.923v15.333M20.54 122.5H5.209" stroke="#10222C" stroke-width="1.5"/><path d="M20.772 98.117A24.62 24.62 0 0 0 .861 118.088l1.455.256a23.142 23.142 0 0 1 18.716-18.773l-.26-1.454ZM.832 126.447a24.617 24.617 0 0 0 19.77 20.111l.27-1.453a23.142 23.142 0 0 1-18.584-18.903l-1.456.245Z" fill="#10222C"/><circle cx="74.742" cy="105.03" r="9.03" fill="#10222C"/><path d="m57.84 140.849 16.66-21.985 16.66 21.985H57.84Z" stroke="#10222C" stroke-width="1.087"/></svg>