<svg width="100%" height="100%" viewBox="0 0 399 301" fill="none" xmlns="http://www.w3.org/2000/svg"><path d="M108.698 124.604v46.159M108.698 181.841V228M57 175.61h46.159M114.237 175.61h46.158M51.698 197v46.159M51.698 254.237v46.158M0 248.005h46.159M57.237 248.005h46.158M232.418 124.604v46.159M232.418 181.841V228M180.721 175.61h46.158M237.958 175.61h46.158M289.862 67.163v46.158M289.862 124.399v46.159M238.164 118.168h46.159M295.401 118.168h46.159M347.303 0v46.159M347.303 57.237v46.158M295.605 51.005h46.159M352.842 51.005h46.159M289.862 182.046v46.159M289.862 239.283v46.159M238.164 233.052h46.159M295.401 233.052h46.159" stroke="#4893F4" stroke-width="2"/></svg>
