<svg width="148" height="187" fill="none" xmlns="http://www.w3.org/2000/svg"><path d="m4.759 41.563 16.867-16.867M29.166 17.867 46.032 1M53.4 41.563l16.868-16.867M53.4 1l16.868 16.867M29.166 24.696l16.867 16.867M77.807 17.867 94.674 1M102.042 41.563l16.867-16.867M102.042 1l16.867 16.867M77.807 24.696l16.867 16.867M126.449 17.867 143.316 1M126.449 24.696l16.867 16.867M4.759 89.667 21.626 72.8" stroke="#fff" stroke-opacity=".2" stroke-width="2"/><path d="m4.759 49.103 16.867 16.868M1 81.581V52.633M29.166 65.97l16.867-16.867M60 44h28.947M110 44h28.947M109 142h28.947M60 142h28.947M11 142h28.947M11 44h28.947M53.4 89.668 70.268 72.8M53.4 49.104l16.868 16.867M29.166 72.8l16.867 16.867M77.807 65.97l16.867-16.867M102.042 89.668 118.909 72.8M102.042 49.104l16.867 16.867M77.807 72.8l16.867 16.867M126.449 65.97l16.867-16.867M147 83.7V54.75" stroke="#fff" stroke-width="2"/><path d="m126.449 72.8 16.867 16.867M4.759 137.77l16.867-16.868M4.759 97.207l16.867 16.867" stroke="#fff" stroke-opacity=".2" stroke-width="2"/><path d="M1 129.684v-28.948" stroke="#fff" stroke-width="2"/><path d="m29.166 114.074 16.867-16.867M53.4 137.77l16.868-16.867" stroke="#fff" stroke-opacity=".2" stroke-width="2"/><path d="m53.4 97.207 16.868 16.867" stroke="#fff" stroke-width="2"/><path d="m29.166 120.903 16.867 16.867" stroke="#fff" stroke-opacity=".2" stroke-width="2"/><path d="m77.807 114.074 16.867-16.867" stroke="#fff" stroke-width="2"/><path d="m102.042 137.77 16.867-16.867M102.042 97.207l16.867 16.867M77.807 120.903l16.867 16.867M126.449 114.074l16.867-16.867" stroke="#fff" stroke-opacity=".2" stroke-width="2"/><path d="M147 131.802v-28.948" stroke="#fff" stroke-width="2"/><path d="m126.449 120.902 16.867 16.868M4.759 185.563l16.867-16.867M4.759 145l16.867 16.867M29.166 161.867 46.032 145M53.4 185.563l16.868-16.867M53.4 145l16.868 16.867M29.166 168.696l16.867 16.868M77.807 161.867 94.674 145M102.042 185.563l16.867-16.867M102.042 145l16.867 16.867M77.807 168.696l16.867 16.868M126.449 161.867 143.316 145M126.449 168.696l16.867 16.867" stroke="#fff" stroke-opacity=".2" stroke-width="2"/></svg>