<svg viewBox="0 0 177 127" fill="none" xmlns="http://www.w3.org/2000/svg"><path d="M48.346 55.22v20.457M48.346 80.586v20.457M25.436 77.825h20.456M50.801 77.825h20.456M22.91 22.602v20.456M22.91 47.967v20.456M0 45.206h20.456M25.366 45.206h20.456M103.176 55.22v20.457M103.176 80.586v20.457M80.265 77.825h20.456M105.63 77.825h20.456M128.633 29.765V50.22M128.633 55.13v20.456M105.722 52.369h20.456M131.088 52.369h20.456M154.089 0v20.456M154.089 25.366v20.456M131.178 22.604h20.456M156.544 22.604H177M128.633 80.678v20.456M128.633 106.043v20.456M105.722 103.282h20.456M131.088 103.282h20.456" stroke="#4893F4" stroke-width=".886"/></svg>
