<svg width="100%" height="100%" viewBox="0 0 400 286" fill="none" xmlns="http://www.w3.org/2000/svg"><path d="M290.304 124.604v46.159M290.304 181.841V228M342.002 175.61h-46.159M284.765 175.61h-46.159M347.699 51v46.159M347.699 108.237v46.158M399.396 102.005h-46.158M342.16 102.005h-46.159M166.583 124.604v46.159M166.583 181.841V228M218.281 175.61h-46.158M161.044 175.61h-46.158M109.14 67.163v46.158M109.14 124.399v46.159M160.838 118.168h-46.159M103.601 118.168H57.442M51.699 0v46.159M51.699 57.237v46.158M103.396 51.005H57.238M46.16 51.005H0M109.14 182.046v46.159M109.14 239.283v46.159M160.838 233.052h-46.159M103.601 233.052H57.442" stroke="#4893F4" stroke-width="2"/></svg>
