<svg width="139" height="170" fill="none" xmlns="http://www.w3.org/2000/svg"><path d="m15.852 68.766-1.649-.399.633-5.742h6.258v1.71h-4.547l-.297 2.657c.162-.099.396-.198.703-.297a3.324 3.324 0 0 1 1.055-.156c.541 0 1.026.089 1.453.266.427.172.789.422 1.086.75.302.328.529.729.68 1.203.156.469.234 1 .234 1.594 0 .52-.078 1.01-.234 1.468a3.468 3.468 0 0 1-.696 1.211 3.302 3.302 0 0 1-1.18.828c-.473.198-1.03.297-1.671.297-.485 0-.95-.07-1.399-.21a3.926 3.926 0 0 1-1.195-.633 3.206 3.206 0 0 1-.852-1.032 3.316 3.316 0 0 1-.343-1.398h2.039c.036.349.13.646.28.89.152.245.35.433.595.563.25.13.539.195.867.195.297 0 .552-.054.765-.164.22-.114.399-.273.54-.476a2.15 2.15 0 0 0 .312-.72c.068-.275.102-.577.102-.905 0-.318-.04-.607-.118-.868a1.883 1.883 0 0 0-.359-.687 1.597 1.597 0 0 0-.61-.445 2.104 2.104 0 0 0-.843-.157c-.432 0-.766.066-1 .196-.23.13-.432.283-.61.46Zm17.296 2.28a1.59 1.59 0 0 0-.101-.585 1.085 1.085 0 0 0-.352-.477 2.804 2.804 0 0 0-.71-.421 9.9 9.9 0 0 0-1.172-.438 12.98 12.98 0 0 1-1.485-.563 5.825 5.825 0 0 1-1.21-.726 3.095 3.095 0 0 1-.805-.953c-.193-.365-.29-.787-.29-1.266 0-.469.1-.896.297-1.281.203-.386.49-.716.86-.992.37-.282.804-.498 1.304-.649a5.822 5.822 0 0 1 1.672-.226c.844 0 1.573.153 2.188.46.62.308 1.099.725 1.437 1.25.339.527.508 1.118.508 1.774h-2.14c0-.354-.076-.666-.227-.937a1.54 1.54 0 0 0-.672-.641c-.297-.156-.672-.234-1.125-.234-.438 0-.802.065-1.094.195-.286.13-.502.307-.648.531-.14.224-.211.474-.211.75 0 .209.05.396.148.563.1.161.248.315.446.46.198.141.442.274.734.4.297.119.64.239 1.031.358a10.86 10.86 0 0 1 1.64.625c.475.23.868.49 1.18.782.318.291.555.62.712.984.161.365.242.779.242 1.242 0 .49-.097.927-.29 1.313a2.777 2.777 0 0 1-.828.984c-.359.271-.791.477-1.296.617-.5.14-1.06.211-1.68.211a6.287 6.287 0 0 1-1.64-.219 4.989 4.989 0 0 1-1.462-.671 3.428 3.428 0 0 1-1.047-1.141c-.26-.463-.39-1.005-.39-1.625h2.156c0 .36.057.667.172.922.12.25.287.456.5.617.219.156.474.27.766.344.291.073.606.11.945.11.437 0 .797-.06 1.078-.18.286-.126.5-.297.64-.516.146-.219.22-.469.22-.75Zm7.454 3.11c-.641 0-1.217-.104-1.727-.312a3.792 3.792 0 0 1-1.305-.867 3.986 3.986 0 0 1-.82-1.305 4.546 4.546 0 0 1-.281-1.61v-.312a5.3 5.3 0 0 1 .281-1.773c.188-.537.453-.998.797-1.383a3.507 3.507 0 0 1 1.234-.89 3.937 3.937 0 0 1 1.586-.313c.6 0 1.128.101 1.586.304.458.198.841.48 1.149.844.307.365.539.802.695 1.313a5.67 5.67 0 0 1 .234 1.68v.866h-6.625v-1.421H42v-.157a2.488 2.488 0 0 0-.188-.898 1.436 1.436 0 0 0-.53-.656c-.24-.167-.55-.25-.93-.25-.308 0-.576.067-.805.203-.224.13-.412.318-.563.562a2.79 2.79 0 0 0-.328.86c-.073.333-.11.703-.11 1.109v.313c0 .354.048.682.142.984.098.302.242.565.43.789.192.219.421.39.687.516.27.12.578.18.922.18.432 0 .823-.084 1.171-.25.355-.173.662-.425.922-.759l1.04 1.079c-.178.26-.417.51-.72.75a3.67 3.67 0 0 1-1.078.585c-.421.146-.908.22-1.46.22Zm6.875-12.164V74h-2.063V61.992h2.063Zm5.296 3.555-3.68 4.133-1.991 2.023-.657-1.601 1.54-1.938 2.296-2.617h2.492ZM50.664 74l-2.617-3.938 1.375-1.335L53.055 74h-2.39Z" fill="#333"/><path d="M3 33h24.744M4 169h24.744M38 169h24.744M73 169h24.744M107 169h24.744M37.596 33H62.34M68.307 63.08V37.853M78.01 39.307l18.697 18.697M77.822 7.307 96.52 26.004M112.822 7.307l18.697 18.697M41 6l18.697 18.697" stroke="#10222C" stroke-width="1.5"/><path d="m77 76 18.697 18.697" stroke="#000" stroke-opacity=".1" stroke-width="1.5"/><path d="M72.188 33H96.93M72 1h24.744M107 1h24.744M38 1h24.744M102.903 63.08V37.853M102.716 31.08V5.853M137.716 31.08V5.853M67.999 28.229V3M112.606 39.307l18.698 18.697M106.785 33h24.743M137.498 63.08V37.853M68.307 97.527V72.3M72.188 67.447h24.744" stroke="#10222C" stroke-width="1.5"/><path d="M102.903 97.527V72.3M112.606 73.754l18.698 18.697" stroke="#000" stroke-opacity=".1" stroke-width="1.5"/><path d="M106.785 67.447h24.743M137.498 97.528V72.3M3 101.895h24.744M1 95.744V71M1 131.744V107M1 165.744V141M1 62.744V38M8.822 126.899l18.697-18.697M33.715 131.975v-25.229M43.418 126.899l18.697-18.697M37.596 101.895H62.34" stroke="#10222C" stroke-width="1.5"/><path d="M68.307 131.975v-25.229M78.01 126.899l18.697-18.697M72.188 101.895h24.744M102.904 131.975v-25.229M112.607 126.899l18.698-18.697M106.786 101.895h24.743" stroke="#000" stroke-opacity=".1" stroke-width="1.5"/><path d="M137.498 131.976v-25.229M8 161.004l18.697-18.697M7 25.153 25.697 6.456M32.893 166.081v-25.229M31.893 30.229V5M42.596 161.004l18.697-18.697M36.773 136h24.744M5 136h24.744" stroke="#10222C" stroke-width="1.5"/><path d="M67.484 166.081v-25.229M77.188 161.004l18.697-18.697M71.366 136h24.743M102.082 166.081v-25.229M111.785 161.004l18.697-18.697M105.963 136h24.744" stroke="#000" stroke-opacity=".1" stroke-width="1.5"/><path d="M136.676 166.081v-25.229" stroke="#10222C" stroke-width="1.5"/></svg>