<svg viewBox="0 0 177 127" fill="none" xmlns="http://www.w3.org/2000/svg"><path d="M128.654 55.22v20.457M128.654 80.586v20.457M151.564 77.825h-20.456M126.199 77.825h-20.456M154.089 22.602v20.456M154.089 47.967v20.456M177 45.206h-20.456M151.635 45.206h-20.457M73.824 55.22v20.457M73.824 80.586v20.457M96.735 77.825H76.28M71.37 77.825H50.913M48.367 29.765V50.22M48.367 55.13v20.456M71.278 52.369H50.822M45.912 52.369H25.456M22.91 0v20.456M22.91 25.366v20.456M45.822 22.604H25.366M20.456 22.604H0M48.367 80.678v20.456M48.367 106.043v20.456M71.278 103.282H50.822M45.912 103.282H25.456" stroke="#4893F4" stroke-width=".886"/></svg>
