<svg width="399" height="300" fill="none" xmlns="http://www.w3.org/2000/svg"><path d="M108.698 124.605v46.158M108.698 181.841V228M57 175.61h46.159M114.237 175.61h46.158M51.698 197v46.159M51.698 254.237v46.158M0 248.005h46.159M57.237 248.005h46.158M232.418 124.605v46.158M232.418 181.841V228M180.721 175.61h46.158M237.958 175.61h46.158M289.861 67.163v46.158M289.861 124.4v46.158M238.163 118.168h46.159M295.4 118.168h46.159M347.302 0v46.159M347.302 57.237v46.158M295.604 51.005h46.159M352.841 51.005H399M289.861 182.047v46.158M289.861 239.283v46.159M238.163 233.052h46.159M295.4 233.052h46.159" stroke="#4893F4" stroke-width="2"/></svg>