<svg width="414" height="273" fill="none" xmlns="http://www.w3.org/2000/svg"><path d="M296.698 0v46.159M296.698 57.237v46.158M245 51.005h46.159M302.237 51.005h46.158M230.698 57v46.159M230.698 114.237v46.158M179 108.005h46.159M236.237 108.005h46.158M361.698 57v46.159M361.698 114.237v46.158M310 108.005h46.159M367.237 108.005h46.158M114.698 56v46.159M114.698 113.237v46.158M63 107.005h46.159M120.237 107.005h46.158M51.698 0v46.159M51.698 57.237v46.158M0 51.005h46.159M57.237 51.005h46.158M171.698 112v46.159M171.698 169.237v46.158M120 163.005h46.159M177.237 163.005h46.158M230.698 169v46.159M230.698 226.237v46.158M179 220.005h46.159M236.237 220.005h46.158M114.698 169v46.159M114.698 226.237v46.158M63 220.005h46.159M120.237 220.005h46.158" stroke="#4893F4" stroke-width="2"/></svg>