<svg width="108" height="48" fill="none" xmlns="http://www.w3.org/2000/svg"><path d="M8.437 33.613v13.235H5.622V33.613H.107v-2.567h13.846v2.567H8.437z" fill="#0B1D49"/><path fill-rule="evenodd" clip-rule="evenodd" d="M20.908 46.852h2.513V35.539h-2.605v.714c-.901-.651-2.063-.975-3.491-.975-1.146 0-2.189.25-3.128.75a5.713 5.713 0 00-2.234 2.102c-.55.905-.825 1.927-.825 3.066 0 1.143.274 2.165.825 3.066a5.82 5.82 0 002.222 2.114c.932.507 1.956.76 3.071.76 1.643 0 2.861-.3 3.652-.9v.616zm.068-5.656c0 1.06-.328 1.911-.989 2.543-.657.632-1.524.948-2.593.952-1.07 0-1.933-.324-2.594-.964-.66-.643-.989-1.486-.989-2.531 0-1.046.329-1.892.99-2.544.656-.651 1.523-.975 2.593-.975s1.932.324 2.593.964c.66.643.99 1.494.99 2.555z" fill="#0B1D49"/><path d="M41.93 35.871c.737.398 1.31.952 1.723 1.662.408.714.614 1.529.614 2.446v6.869h-2.604V40.17c0-.776-.222-1.385-.665-1.83-.443-.444-1.035-.667-1.78-.667-.806 0-1.5.238-2.081.714s-.871 1.1-.871 1.876v6.585h-2.582V40.17c0-.745-.226-1.338-.676-1.783-.451-.445-1.04-.683-1.769-.714a3.638 3.638 0 00-2.081.773c-.596.468-.898 1.072-.898 1.817v6.585h-2.605V35.536h2.605v.546c.714-.492 1.707-.76 2.98-.808h.232c.806 0 1.547.16 2.223.476.676.316 1.23.76 1.666 1.33.45-.554 1.035-.994 1.757-1.318a5.592 5.592 0 012.314-.488c.928.004 1.76.203 2.498.597z" fill="#0B1D49"/><path fill-rule="evenodd" clip-rule="evenodd" d="M48.412 42.264h8.842c.168-.698.256-1.29.263-1.782a5.26 5.26 0 00-.653-2.555c-.435-.8-1.088-1.44-1.955-1.923-.867-.484-1.906-.726-3.117-.726-1.196 0-2.257.25-3.19.75a5.46 5.46 0 00-2.176 2.078c-.52.89-.78 1.904-.78 3.043 0 1.174.272 2.212.814 3.124a5.567 5.567 0 002.246 2.114c.955.5 2.036.75 3.246.75.917 0 1.81-.184 2.69-.547a8.144 8.144 0 002.383-1.521l-1.654-1.806c-1.089.983-2.235 1.474-3.445 1.474-.902 0-1.658-.218-2.27-.655-.614-.437-1.026-1.041-1.244-1.818zm.023-2.356c.202-.725.592-1.283 1.165-1.673.573-.386 1.294-.581 2.161-.581.852 0 1.543.206 2.07.628.528.417.84.96.933 1.626h-6.33zM67.887 30.336v6.034c-.901-.73-2.062-1.092-3.49-1.092-1.147 0-2.19.25-3.129.75a5.712 5.712 0 00-2.234 2.102c-.55.905-.825 1.927-.825 3.066 0 1.143.275 2.165.825 3.066a5.82 5.82 0 002.223 2.114c.932.507 1.948.76 3.048.76.73 0 1.405-.109 2.035-.331a4.911 4.911 0 001.639-.952v.999h2.513V30.336h-2.605zm.187 10.856c0 1.045-.328 1.888-.989 2.531-.66.644-1.524.964-2.593.964-1.085 0-1.952-.324-2.605-.964-.653-.643-.978-1.486-.978-2.531 0-1.046.329-1.892.99-2.544.656-.651 1.523-.975 2.593-.975s1.932.328 2.593.975c.66.652.99 1.498.99 2.544zM72.795 44.285a5.592 5.592 0 002.246 2.103c.955.499 2.028.748 3.224.748 1.195 0 2.272-.25 3.235-.748a5.626 5.626 0 002.269-2.103c.55-.905.825-1.93.825-3.09 0-1.138-.275-2.16-.825-3.065a5.654 5.654 0 00-2.27-2.103c-.962-.5-2.039-.749-3.234-.749-1.196 0-2.27.25-3.224.75a5.593 5.593 0 00-2.246 2.102c-.542.905-.813 1.927-.813 3.066 0 1.158.27 2.188.813 3.089zm9.098-3.093c0 1.045-.336 1.888-1.012 2.531-.672.644-1.547.964-2.616.964-1.085 0-1.956-.324-2.617-.964-.66-.643-.989-1.486-.989-2.531 0-1.046.329-1.892.99-2.544.656-.651 1.531-.975 2.616-.975 1.084 0 1.96.328 2.627.975.669.652 1.001 1.498 1.001 2.544z" fill="#0B1D49"/><path d="M88.34 46.376a5.654 5.654 0 01-2.257-2.114c-.542-.901-.814-1.923-.814-3.066 0-1.14.275-2.157.825-3.055a5.785 5.785 0 012.258-2.102c.955-.507 2.028-.76 3.224-.76.9 0 1.768.17 2.604.51.837.34 1.59.835 2.258 1.486l-1.86 1.783c-.39-.43-.84-.764-1.36-1.01a3.789 3.789 0 00-1.642-.367c-1.085 0-1.964.324-2.628.975-.669.652-1.001 1.498-1.001 2.544 0 1.045.332 1.887 1 2.531.67.64 1.551.964 2.651.964 1.15 0 2.181-.476 3.094-1.428l1.814 1.806a7.946 7.946 0 01-2.326 1.533 6.614 6.614 0 01-2.605.534c-1.195-.004-2.272-.257-3.235-.764zM99.451 46.684c-1.016-.3-1.864-.706-2.547-1.213l1.302-2.044c.481.347 1.12.647 1.921.89.798.245 1.539.366 2.223.366.73 0 1.337-.094 1.826-.285.489-.191.733-.491.733-.901 0-.316-.218-.55-.653-.702-.435-.152-1.131-.312-2.093-.488-1.1-.19-1.979-.405-2.628-.64-.653-.237-1.15-.569-1.49-.998-.34-.43-.511-1.006-.511-1.736 0-1.299.504-2.235 1.512-2.804 1.009-.57 2.212-.855 3.606-.855.836 0 1.684.129 2.536.379a9.292 9.292 0 012.303 1.022l-1.302 2.02a7.462 7.462 0 00-1.723-.749 6.53 6.53 0 00-1.86-.273c-.775 0-1.371.106-1.791.32-.42.215-.631.511-.631.89 0 .175.065.315.199.428.13.11.355.211.676.297.317.086.81.187 1.478.297 1.165.206 2.078.413 2.746.616.669.206 1.215.534 1.643.987.428.452.642 1.088.642 1.911 0 1.174-.478 2.083-1.433 2.734-.955.652-2.223.976-3.804.976-.905.007-1.864-.145-2.88-.445z" fill="#0B1D49"/><path fill-rule="evenodd" clip-rule="evenodd" d="M46.869 25.796a6.164 6.164 0 004.434 1.876c1.677 0 3.25-.667 4.434-1.873l.042-.043a6.43 6.43 0 001.8-4.49c0-1.708-.654-3.319-1.838-4.528l-9.35-9.549a6.187 6.187 0 00-8.785-.086l-.087.086a6.437 6.437 0 00-1.838 4.529c0 1.708.654 3.32 1.838 4.529l9.35 9.549zm-8.04-14.078c0-.843.317-1.635.893-2.235l.027-.024a3.082 3.082 0 014.42 0l9.35 9.55c.591.604.916 1.404.916 2.258 0 .854-.325 1.654-.917 2.258l-.015.016a3.074 3.074 0 01-2.196.92 3.07 3.07 0 01-2.212-.936l-9.35-9.549a3.203 3.203 0 01-.916-2.258z" fill="#51D8DE"/><path fill-rule="evenodd" clip-rule="evenodd" d="M46.895 25.796a6.182 6.182 0 004.435 1.872 6.182 6.182 0 004.434-1.872l14.384-14.69c2.43-2.485 2.445-6.519.038-9.02l-.042-.042a6.187 6.187 0 00-8.868 0l-14.384 14.69a6.43 6.43 0 00-1.838 4.529c0 1.693.638 3.284 1.8 4.49l.041.043zm4.435-1.334a3.072 3.072 0 01-2.192-.921l-.02-.016a3.203 3.203 0 01-.916-2.258c0-.854.324-1.654.916-2.259l14.384-14.69a3.086 3.086 0 014.408-.015l.015.015c.592.605.917 1.404.917 2.259 0 .854-.325 1.654-.917 2.258l-14.384 14.69a3.07 3.07 0 01-2.211.937z" fill="#6665DD"/></svg>