<svg viewBox="0 0 72 72" fill="none" xmlns="http://www.w3.org/2000/svg"><path fill="#EAF3FE" stroke="#4893F4" stroke-width="2.048" stroke-dasharray="11.76 2.35" d="M0 35 35 0l35 35-35 35z"/><path fill-rule="evenodd" clip-rule="evenodd" d="M46.107 23.645H23.645v22.463h22.462V23.645ZM37.47 41.073l.187-.764a3.213 3.213 0 0 1-.467.156c-.214.06-.407.09-.577.09-.361 0-.616-.06-.763-.179-.147-.119-.22-.343-.22-.67 0-.13.022-.325.068-.578.045-.255.096-.482.153-.68l.698-2.471c.069-.227.115-.476.14-.749a6.94 6.94 0 0 0 .038-.569c0-.52-.182-.944-.547-1.27-.366-.326-.886-.489-1.56-.489a3.94 3.94 0 0 0-1.192.2c-.42.133-.859.293-1.318.48l-.187.765c.137-.05.3-.105.49-.161.19-.056.376-.086.557-.086.37 0 .62.063.75.188.13.124.196.346.196.663 0 .175-.02.37-.063.581-.043.213-.096.438-.158.675l-.701 2.481c-.063.26-.108.494-.137.701-.028.207-.042.41-.042.607 0 .51.189.93.565 1.262.377.33.905.497 1.584.497.442 0 .83-.058 1.164-.174.333-.116.781-.285 1.342-.506Zm-.124-10.036c.326-.303.488-.67.488-1.1 0-.43-.162-.799-.488-1.105a1.656 1.656 0 0 0-1.176-.458c-.46 0-.853.153-1.181.458a1.457 1.457 0 0 0-.493 1.104c0 .43.165.798.493 1.1a1.68 1.68 0 0 0 1.181.456c.459 0 .85-.152 1.176-.455Z" fill="#4893F4"/></svg>
