<svg width="117" height="48" fill="none" xmlns="http://www.w3.org/2000/svg"><path d="M65.6 12.207H62v22.161h3.6V12.207zM68.128 21.958l2.847 1.741c.392-1.551 1.898-2.47 4.155-2.47 2.062 0 3.24.792 3.24 2.122v.348c0 .443-.262.665-.95.728l-4.547.444c-3.24.284-5.236 2.184-5.236 4.907 0 2.912 2.225 4.97 5.53 4.97 2.258 0 4.09-.95 5.203-2.564v2.184h3.533V24.332c0-4.115-2.257-6.173-6.838-6.173-3.665 0-6.086 1.33-6.937 3.799zm10.242 5.097v.918c0 2.09-1.898 3.767-4.385 3.767-1.669 0-2.683-.791-2.683-2.057 0-1.14.85-1.9 2.356-2.058l4.712-.57zM87.936 12.207h-3.534v22.161h3.534V32.12c1.309 1.71 3.272 2.628 5.628 2.628 4.516 0 7.657-3.387 7.657-8.295 0-4.907-3.142-8.294-7.624-8.294-2.323 0-4.254.918-5.66 2.66v-8.612zm9.653 14.246c0 3.008-1.964 5.034-4.908 5.034-2.945 0-4.909-1.994-4.909-5.034 0-3.039 1.964-5.033 4.909-5.033 2.944 0 4.908 2.026 4.908 5.033zM108.885 34.368c4.45 0 8.115-2.628 8.115-7.535 0-4.495-3.043-7.44-7.918-7.44a9.79 9.79 0 00-1.898.19v-3.767H117v-3.609h-13.546v11.777c1.701-.633 3.599-1.013 5.104-1.013 2.879 0 4.712 1.361 4.712 3.862 0 2.596-1.931 3.926-4.385 3.926-1.669 0-3.468-.57-5.104-1.741l-1.702 3.229c1.865 1.393 4.483 2.121 6.806 2.121z" fill="#0C1447"/><g clip-path="url(#clip0_911_89)" fill="#0C1447"><path d="M37.724 19.33l-.033-5.695a1.728 1.728 0 10-3.454.018l.035 6.301c-1.727.322-3.403.658-5.029.997L28.44 8.03a1.726 1.726 0 10-3.447.215l.835 13.452c-1.622.367-3.184.736-4.688 1.106l-.231-9.387a1.726 1.726 0 10-3.45.088l.249 10.173c-1.788.47-3.475.935-5.05 1.39l-.761-10.53a1.728 1.728 0 00-3.445.249l.817 11.288a176.683 176.683 0 00-7.632 2.512 22.862 22.862 0 01-.534-3.906C.494 12.267 10.06 1.713 22.473 1.104c10.92-.537 20.4 6.803 22.938 17.026-2.647.37-5.212.772-7.687 1.2zM45.982 21.54c-.493.067-.987.137-1.475.207a233.763 233.763 0 00-7.014 1.13l.104 7.738c.017 1.136-.706 2.056-1.622 2.101l-.076.004c-.956-.005-1.743-.954-1.758-2.122l-.095-7.086c-1.57.3-3.102.61-4.586.924l-.084.018.768 12.863c.068 1.165-.648 2.158-1.6 2.221l-.023.002c-.94.046-1.758-.844-1.824-2.002l-.738-12.33a218.451 218.451 0 00-4.91 1.177l.32 11.043c.035 1.147-.69 2.097-1.623 2.143l-.043.002c-.954.02-1.754-.913-1.789-2.08l-.295-10.221c-1.667.448-3.236.887-4.704 1.315l-.068.02.336 4.956c.08 1.165-.627 2.166-1.58 2.24l-.038.003c-.933.045-1.747-.83-1.827-1.977l-.285-4.2a197.3 197.3 0 00-4.746 1.545c-.752.253-1.435.494-2.047.713 3.454 8.7 12.15 14.648 22.02 14.163 12.413-.609 21.979-11.163 21.37-23.575a22.178 22.178 0 00-.068-.935z"/></g><defs><clipPath id="clip0_911_89"><path fill="#fff" transform="rotate(-2.811 44.974 1.104)" d="M0 0h45v45H0z"/></clipPath></defs></svg>