<svg width="79" height="81" fill="none" xmlns="http://www.w3.org/2000/svg"><path d="M3 56.475l-.928-1.178a1.5 1.5 0 00-.57 1.257L3 56.475zm0 0l-.928-1.178.001-.001.004-.003.011-.009.044-.034.17-.132a162.113 162.113 0 013.025-2.277 178.227 178.227 0 017.969-5.534c3.15-2.057 6.67-4.19 10.115-5.939 3.424-1.738 6.868-3.145 9.848-3.678 5.176-.926 7.516-2.73 9.66-4.798.345-.331.689-.677 1.042-1.03 1.93-1.936 4.138-4.15 8.08-5.935 3.614-1.637 6.82-3.47 9.956-5.264.588-.336 1.173-.671 1.759-1.003 3.678-2.086 7.343-4.052 11.381-5.34a1.5 1.5 0 011.956 1.43v5.581c0 .024 0 .048-.002.072h0V21.416l-.002.043-.008.17-.025.629c-.02.533-.043 1.271-.059 2.092-.031 1.665-.029 3.588.09 4.838h0c.05.549-.024 1.213-.15 1.883-.13.7-.34 1.513-.62 2.402-.561 1.777-1.426 3.912-2.591 6.11-2.311 4.362-5.905 9.17-10.837 11.809l-.161.086c-2.197 1.176-4.354 2.33-6.405 3.103-2.109.794-4.274 1.254-6.428.843-4.108-.783-7.325-4.516-10.189-12.067l-.737.469-.056.224a150.52 150.52 0 01-2.655 9.24c-.876 2.705-1.92 5.626-3.079 8.275-1.148 2.623-2.451 5.081-3.873 6.787-2.71 3.25-6.701 6.33-10.62 8.245-1.961.96-3.967 1.658-5.836 1.915-1.854.254-3.731.094-5.265-.87-.828-.519-1.48-1.302-2-2.146-.526-.855-.97-1.856-1.349-2.915-.757-2.116-1.308-4.613-1.706-6.962-.401-2.36-.657-4.622-.814-6.291a87.887 87.887 0 01-.21-2.719l-.003-.04v-.014h0L3 56.474z" fill="#ED6F78" stroke="#0C1447" stroke-width="3" stroke-miterlimit="10" stroke-linecap="round" stroke-linejoin="round"/><path d="M76.393 15.749L45.875 2.189" stroke="#0C1447" stroke-width="3" stroke-miterlimit="10" stroke-linecap="round" stroke-linejoin="round"/></svg>