<svg width="75" height="77" fill="none" xmlns="http://www.w3.org/2000/svg"><path d="M1 1h47.765v62.185H16.677L1 47.26V1Z" fill="#D2E5FD"/><path d="M16.677 63.185h32.088V1H1v46.26m15.677 15.925L1 47.26m15.677 15.925V47.26H1" stroke="#4893F4" stroke-width="1.561" stroke-dasharray="8.97 1.79"/><path d="M5.248 18.17h16.394M27.88 18.17h16.395M5.248 11.146h16.394M27.88 11.146h16.395M5.251 32.218h16.227M5.251 25.194h16.395M27.888 25.194h16.394" stroke="#4893F4" stroke-width="1.561"/><ellipse cx="51.291" cy="55.632" rx="20.622" ry="21.072" fill="#EAF3FE"/><mask id="a" fill="#fff"><path d="M32.176 63.539a20.992 20.992 0 0 0 7.521 9.519 20.317 20.317 0 0 0 11.429 3.645 20.305 20.305 0 0 0 11.484-3.457 20.97 20.97 0 0 0 7.67-9.394l-1.498-.648a19.316 19.316 0 0 1-7.064 8.653 18.703 18.703 0 0 1-10.58 3.185c-3.756-.031-7.42-1.2-10.527-3.358a19.336 19.336 0 0 1-6.927-8.769l-1.508.624Z"/></mask><path d="M32.176 63.539a20.992 20.992 0 0 0 7.521 9.519 20.317 20.317 0 0 0 11.429 3.645 20.305 20.305 0 0 0 11.484-3.457 20.97 20.97 0 0 0 7.67-9.394l-1.498-.648a19.316 19.316 0 0 1-7.064 8.653 18.703 18.703 0 0 1-10.58 3.185c-3.756-.031-7.42-1.2-10.527-3.358a19.336 19.336 0 0 1-6.927-8.769l-1.508.624Z" fill="#EAF3FE" stroke="#4893F4" stroke-width="1.561" mask="url(#a)"/><mask id="b" fill="#fff"><path d="M32.176 47.724a20.992 20.992 0 0 1 7.521-9.519 20.316 20.316 0 0 1 11.429-3.645 20.304 20.304 0 0 1 11.484 3.457 20.97 20.97 0 0 1 7.67 9.394l-1.371.594a19.457 19.457 0 0 0-7.116-8.716 18.839 18.839 0 0 0-10.655-3.208 18.849 18.849 0 0 0-10.604 3.382 19.476 19.476 0 0 0-6.978 8.832l-1.38-.57Z"/></mask><path d="M32.176 47.724a20.992 20.992 0 0 1 7.521-9.519 20.316 20.316 0 0 1 11.429-3.645 20.304 20.304 0 0 1 11.484 3.457 20.97 20.97 0 0 1 7.67 9.394l-1.371.594a19.457 19.457 0 0 0-7.116-8.716 18.839 18.839 0 0 0-10.655-3.208 18.849 18.849 0 0 0-10.604 3.382 19.476 19.476 0 0 0-6.978 8.832l-1.38-.57Z" fill="#EAF3FE" stroke="#4893F4" stroke-width="1.561" mask="url(#b)"/><ellipse cx="70.945" cy="55.156" rx="3.055" ry="3.122" fill="#4893F4" stroke="#4893F4" stroke-width="1.561"/><ellipse cx="30.706" cy="55.156" rx="3.055" ry="3.122" stroke="#4893F4" stroke-width="1.561"/><path d="M40.559 51.11c.807 0 1.503.166 2.085.499.583.333 1.032.82 1.349 1.46.316.633.474 1.424.474 2.373 0 1.008-.191 1.86-.574 2.56a3.854 3.854 0 0 1-1.561 1.598c-.666.367-1.44.55-2.323.55-.457 0-.899-.05-1.323-.15-.425-.1-.791-.25-1.1-.45l.75-1.485c.242.166.5.282.774.35.275.057.562.087.862.087.75 0 1.344-.23 1.786-.687.45-.458.674-1.137.674-2.036 0-.15-.004-.316-.013-.5a4.107 4.107 0 0 0-.062-.549l.55.525c-.142.325-.342.6-.6.824a2.782 2.782 0 0 1-.899.5 3.793 3.793 0 0 1-1.149.162 3.41 3.41 0 0 1-1.523-.337 2.79 2.79 0 0 1-1.087-.95c-.266-.407-.4-.886-.4-1.435 0-.6.146-1.116.438-1.549.3-.433.7-.766 1.199-.999a3.847 3.847 0 0 1 1.673-.362Zm.125 1.51c-.292 0-.545.054-.762.162-.216.1-.387.25-.512.45a1.23 1.23 0 0 0-.187.687c0 .4.133.72.4.961.274.233.636.35 1.086.35.291 0 .55-.054.774-.162.233-.117.412-.275.537-.475.125-.2.187-.425.187-.674 0-.25-.062-.47-.187-.662a1.154 1.154 0 0 0-.512-.462c-.225-.117-.5-.175-.824-.175Zm8.75 7.53c-.716 0-1.357-.175-1.923-.525-.566-.358-1.012-.874-1.336-1.548-.325-.674-.487-1.49-.487-2.447 0-.958.162-1.774.487-2.448.324-.674.77-1.186 1.336-1.536a3.522 3.522 0 0 1 1.923-.537c.724 0 1.365.18 1.923.537.566.35 1.011.862 1.336 1.536.325.674.487 1.49.487 2.447 0 .958-.162 1.774-.487 2.448-.325.674-.77 1.19-1.336 1.548-.558.35-1.199.525-1.923.525Zm0-1.71c.341 0 .637-.097.886-.288.258-.192.458-.495.6-.912.15-.416.224-.953.224-1.61 0-.658-.074-1.195-.224-1.611-.142-.417-.342-.72-.6-.912a1.415 1.415 0 0 0-.886-.287c-.333 0-.629.096-.887.287-.25.191-.45.495-.6.912-.14.416-.212.953-.212 1.61 0 .658.071 1.195.213 1.611.15.417.35.72.6.912.257.191.553.287.886.287Zm6.24 1.56 5.969-8.741h1.486L57.159 60h-1.485Zm.761-4.02c-.424 0-.799-.097-1.123-.288a2.15 2.15 0 0 1-.775-.837c-.183-.366-.274-.795-.274-1.286s.091-.916.274-1.274c.192-.358.45-.637.775-.836.324-.2.699-.3 1.123-.3.425 0 .8.1 1.124.3.325.2.579.478.762.836.183.358.275.783.275 1.274s-.092.92-.275 1.286a2.06 2.06 0 0 1-.762.837 2.17 2.17 0 0 1-1.123.287Zm0-1.025a.784.784 0 0 0 .662-.337c.167-.233.25-.583.25-1.049 0-.466-.083-.812-.25-1.036a.776.776 0 0 0-.662-.35c-.266 0-.486.117-.661.35-.167.224-.25.57-.25 1.036 0 .458.083.803.25 1.036.175.234.395.35.661.35Zm5.932 5.145c-.416 0-.791-.096-1.124-.287a2.061 2.061 0 0 1-.762-.837c-.183-.366-.274-.795-.274-1.286s.091-.916.274-1.274c.183-.358.437-.637.762-.836.333-.2.708-.3 1.124-.3.433 0 .812.1 1.136.3.325.2.579.478.762.836.183.358.275.783.275 1.274s-.092.92-.275 1.286a2.06 2.06 0 0 1-.762.837 2.195 2.195 0 0 1-1.136.287Zm0-1.024a.784.784 0 0 0 .662-.337c.166-.233.25-.583.25-1.05 0-.457-.084-.803-.25-1.036a.776.776 0 0 0-.662-.35c-.267 0-.487.117-.662.35-.166.225-.25.57-.25 1.037 0 .466.084.816.25 1.049a.805.805 0 0 0 .662.337Z" fill="#4893F4"/></svg>