<svg width="153" height="65" fill="none" xmlns="http://www.w3.org/2000/svg"><path fill-rule="evenodd" clip-rule="evenodd" d="M34.762 21.615a9.044 9.044 0 1 0 18.087 0 9.044 9.044 0 0 0-18.087 0ZM.679 32.551C.679 14.77 15.09.358 32.87.358S65.062 14.77 65.062 32.55c0 17.778-14.412 32.192-32.191 32.192C15.09 64.743.679 50.329.679 32.55Zm77.724-5.985c-1.215 0-2.259-.26-3.129-.783a5.215 5.215 0 0 1-2.012-2.184c-.47-.933-.705-2.014-.705-3.24 0-1.227.235-2.31.705-3.25a5.267 5.267 0 0 1 2.012-2.201c.87-.527 1.914-.79 3.13-.79 1.444 0 2.627.357 3.549 1.074.925.716 1.5 1.722 1.73 3.018h-2.424c-.15-.654-.467-1.167-.956-1.54-.487-.372-1.132-.559-1.934-.559-1.112 0-1.983.378-2.613 1.136-.631.756-.946 1.794-.946 3.111 0 1.32.315 2.354.946 3.105.63.75 1.501 1.125 2.613 1.125.802 0 1.447-.174 1.934-.524.489-.35.805-.834.956-1.453h2.424c-.23 1.238-.805 2.207-1.73 2.905-.922.7-2.105 1.05-3.55 1.05Zm11.28-7.033c-.585 0-1.085.216-1.504.645-.42.43-.628 1.07-.628 1.917 0 .85.208 1.488.628 1.918.419.43.913.644 1.488.644.572 0 1.07-.215 1.495-.644.424-.43.636-1.069.636-1.918 0-.848-.212-1.486-.636-1.917-.424-.43-.916-.645-1.48-.645Zm-.017 7.033c-.826 0-1.567-.189-2.226-.567a4.158 4.158 0 0 1-1.566-1.574c-.384-.67-.576-1.447-.576-2.33 0-.882.195-1.658.585-2.33.39-.67.914-1.194 1.573-1.572.659-.38 1.402-.568 2.226-.568.815 0 1.55.189 2.21.568.66.378 1.18.902 1.564 1.573.385.67.577 1.447.577 2.329 0 .883-.192 1.66-.577 2.33A4.151 4.151 0 0 1 91.884 26a4.413 4.413 0 0 1-2.218.567Zm16.884-8.94a3.61 3.61 0 0 0-1.711.412 3.329 3.329 0 0 0-1.247 1.118c-.549-1.02-1.483-1.53-2.802-1.53-.596 0-1.12.122-1.573.369a3.03 3.03 0 0 0-1.093.989l-.187-1.153h-1.944v8.529h2.2v-4.402c0-.779.181-1.386.542-1.822.362-.436.834-.654 1.42-.654.594 0 1.035.195 1.323.585.287.39.429.951.429 1.685v4.608h2.202v-4.402c0-.779.181-1.386.541-1.822.361-.436.84-.654 1.436-.654.584 0 1.017.195 1.298.585.281.39.422.951.422 1.685v4.608h2.2v-4.814c0-1.284-.298-2.259-.894-2.923-.596-.665-1.45-.998-2.562-.998Zm10.145 7.015c.698 0 1.277-.235 1.736-.705.459-.47.689-1.077.689-1.823 0-.745-.23-1.358-.689-1.84-.459-.48-1.038-.722-1.736-.722-.712 0-1.294.238-1.747.714-.452.476-.678 1.086-.678 1.831 0 .745.226 1.355.678 1.832.453.475 1.035.713 1.747.713Zm2.613-6.431c.631.39 1.129.922 1.497 1.598.366.677.55 1.445.55 2.305 0 .86-.184 1.624-.55 2.295a4.152 4.152 0 0 1-1.497 1.582c-.631.384-1.346.576-2.148.576-.643 0-1.204-.12-1.686-.361a3.035 3.035 0 0 1-1.169-1.015v4.952h-2.201v-12.31h1.96l.241 1.22c.276-.378.639-.71 1.092-.997.453-.287 1.041-.43 1.763-.43.802 0 1.517.195 2.148.584Zm8.916 6.018c-.351.412-.84.62-1.471.62-.413 0-.744-.093-.997-.276-.252-.184-.378-.441-.378-.773 0-.31.126-.572.378-.783.253-.212.67-.318 1.256-.318h1.874c-.092.607-.313 1.117-.662 1.53Zm-1.452-2.906c-1.239 0-2.168.247-2.786.739-.62.493-.929 1.135-.929 1.925 0 .471.115.9.344 1.29.229.39.578.703 1.049.938.469.235 1.072.352 1.805.352.71 0 1.292-.15 1.746-.447a3.169 3.169 0 0 0 1.057-1.135l.206 1.376h1.875v-5.244c0-1.112-.351-1.972-1.049-2.58-.7-.607-1.658-.911-2.872-.911-.71 0-1.353.124-1.925.37-.574.247-1.041.6-1.402 1.058a2.994 2.994 0 0 0-.628 1.615h2.149c.081-.412.288-.725.62-.936.332-.213.722-.319 1.169-.319.492 0 .906.138 1.238.413.333.275.499.705.499 1.29v.206h-2.166Zm14.821.224v4.814h-2.202v-4.608c0-.734-.148-1.296-.445-1.685-.299-.39-.764-.585-1.394-.585-.618 0-1.126.218-1.521.653-.396.437-.594 1.043-.594 1.823v4.402h-2.2V17.83h1.942l.172 1.444a3.001 3.001 0 0 1 1.144-1.203c.498-.298 1.085-.447 1.762-.447 1.054 0 1.874.332 2.46.997.584.665.876 1.64.876 2.924Zm4.848 4.247-1.978 4.35h2.339l5.416-12.312h-2.339l-2.492 6.002-2.391-6.002h-2.39l3.319 7.962h.516Zm-74.193 9.164h9.234v1.77h-3.526v10.266h-2.2V36.727h-3.508v-1.77Zm11.211 6.929c.114-.617.378-1.08.79-1.383a2.344 2.344 0 0 1 1.428-.457c.562 0 1.032.168 1.41.499.378.334.584.78.62 1.34h-4.248Zm4.436-3.077c-.642-.367-1.382-.55-2.218-.55-.895 0-1.67.191-2.329.576a4.042 4.042 0 0 0-1.548 1.607c-.373.689-.559 1.472-.559 2.356 0 .871.19 1.639.567 2.304.38.665.9 1.18 1.565 1.548.665.367 1.427.55 2.287.55.688 0 1.303-.128 1.849-.38a3.95 3.95 0 0 0 1.375-1.039c.373-.442.639-.932.799-1.47h-2.235a1.86 1.86 0 0 1-.678.782c-.306.2-.68.3-1.127.3-.597 0-1.103-.19-1.522-.566-.418-.378-.65-.9-.696-1.565h6.482c.01-.15.02-.291.026-.43.005-.137.008-.268.008-.395 0-.781-.181-1.488-.542-2.124a3.949 3.949 0 0 0-1.504-1.504Zm7.032 2.682 2.15-3.026h2.373l-3.112 4.263 3.112 4.265h-2.373l-2.15-3.026-2.166 3.026h-2.355l3.094-4.265-3.094-4.263h2.355l2.166 3.026Zm8.975-5.314h-1.942l-.259 2.289h-1.462v1.839h1.462v3.715c0 1.111.27 1.885.808 2.32.539.435 1.256.654 2.149.654h1.497v-1.875h-1.066c-.436 0-.742-.077-.92-.232-.178-.154-.267-.438-.267-.851v-3.731h2.304v-1.84h-2.304v-2.288Zm8.338-1.22h2.202v10.316h5.33v1.72h-7.532V34.957Zm14.633 9.688c-.424.431-.922.646-1.495.646-.573 0-1.069-.215-1.487-.646-.42-.43-.628-1.068-.628-1.917 0-.847.208-1.488.628-1.917.418-.43.919-.644 1.503-.644.563 0 1.055.215 1.479.644.424.43.637 1.07.637 1.917 0 .85-.213 1.488-.637 1.917Zm.732-5.819c-.66-.378-1.396-.567-2.211-.567-.824 0-1.567.189-2.226.567a4.226 4.226 0 0 0-1.573 1.572c-.39.672-.584 1.448-.584 2.33 0 .884.191 1.66.575 2.33a4.156 4.156 0 0 0 1.566 1.574c.659.378 1.4.569 2.226.569.813 0 1.553-.19 2.218-.569a4.136 4.136 0 0 0 1.572-1.574c.385-.67.577-1.446.577-2.33 0-.882-.192-1.658-.577-2.33a4.15 4.15 0 0 0-1.563-1.572Zm7.178 3.938c.447 0 .817-.12 1.11-.361.291-.242.437-.586.437-1.033 0-.446-.146-.79-.437-1.032-.293-.24-.663-.36-1.11-.36-.47 0-.848.12-1.135.36-.286.242-.43.586-.43 1.032 0 .447.144.79.43 1.033.287.24.665.361 1.135.361Zm.172 4.16c-.47-.035-.906-.085-1.307-.154-.332.184-.571.384-.714.6a1.207 1.207 0 0 0-.214.672c0 .424.197.741.592.954.397.212.88.32 1.454.32.55 0 .997-.114 1.341-.337.343-.223.516-.526.516-.904 0-.308-.112-.567-.336-.773-.224-.206-.668-.332-1.332-.378Zm-2.046-8.252c.516-.275 1.141-.413 1.874-.413.482 0 .928.07 1.341.206h3.233v1.341l-1.462.103c.23.435.344.917.344 1.446 0 .573-.138 1.094-.412 1.563-.275.47-.673.843-1.196 1.118-.521.276-1.138.413-1.848.413-.413 0-.796-.046-1.152-.137l-.637.636c.196.103.46.188.792.256.332.07.871.138 1.617.206 1.135.105 1.959.374 2.475.81.516.436.774 1.037.774 1.805 0 .504-.138.984-.413 1.436-.276.453-.7.82-1.272 1.1-.573.28-1.307.42-2.201.42-1.215 0-2.194-.225-2.941-.677-.744-.452-1.116-1.132-1.116-2.038 0-.768.372-1.433 1.116-1.994a3.933 3.933 0 0 1-.593-.328 3.174 3.174 0 0 1-.437-.36v-.397l1.495-1.58c-.665-.587-.998-1.335-.998-2.252 0-.575.141-1.096.422-1.565a2.992 2.992 0 0 1 1.195-1.118Zm13.291 5.973c-.424.431-.923.646-1.495.646-.573 0-1.069-.215-1.488-.646-.419-.43-.627-1.068-.627-1.917 0-.847.208-1.488.627-1.917.419-.43.92-.644 1.504-.644.563 0 1.055.215 1.479.644.424.43.637 1.07.637 1.917 0 .85-.213 1.488-.637 1.917Zm.732-5.819c-.66-.378-1.396-.567-2.211-.567-.824 0-1.568.189-2.226.567a4.218 4.218 0 0 0-1.573 1.572c-.39.672-.585 1.448-.585 2.33 0 .884.192 1.66.576 2.33a4.149 4.149 0 0 0 1.566 1.574c.658.378 1.4.569 2.226.569.813 0 1.553-.19 2.218-.569a4.143 4.143 0 0 0 1.572-1.574c.385-.67.577-1.446.577-2.33 0-.882-.192-1.658-.577-2.33a4.15 4.15 0 0 0-1.563-1.572Z" fill="#10222C"/></svg>