<svg width="91" height="62" fill="none" xmlns="http://www.w3.org/2000/svg"><path fill-rule="evenodd" clip-rule="evenodd" d="M32.856.2v16.823L16.033.2v43.877H76.734L32.857.2ZM20.72 54.217c.566 0 1.02.132 1.364.394.343.262.568.625.673 1.084h1.709c-.162-.912-.568-1.622-1.218-2.127-.65-.505-1.485-.757-2.503-.757-.857 0-1.592.185-2.206.557a3.712 3.712 0 0 0-1.418 1.551c-.331.664-.497 1.427-.497 2.291 0 .865.166 1.626.497 2.286a3.671 3.671 0 0 0 1.418 1.538c.614.368 1.35.551 2.206.551 1.018 0 1.852-.245 2.503-.739.65-.493 1.056-1.175 1.218-2.048h-1.71c-.104.437-.329.779-.672 1.025-.343.246-.798.369-1.363.369-.784 0-1.398-.265-1.843-.794-.444-.53-.666-1.258-.666-2.188 0-.928.222-1.66.666-2.194.445-.532 1.059-.8 1.843-.8Zm13.326 5.174c-.48.534-1.125.8-1.933.8s-1.455-.266-1.94-.8c-.484-.532-.727-1.264-.727-2.193 0-.93.243-1.66.728-2.194.485-.533 1.13-.8 1.939-.8.808 0 1.452.267 1.933.8.48.534.721 1.265.721 2.194s-.24 1.661-.72 2.193Zm.286-6.023c-.639-.372-1.378-.557-2.218-.557-.849 0-1.59.185-2.224.557a3.946 3.946 0 0 0-1.491 1.545c-.36.66-.54 1.422-.54 2.285 0 .866.18 1.626.54 2.285.36.658.856 1.174 1.49 1.545.635.372 1.376.557 2.225.557.84 0 1.58-.185 2.218-.557a3.886 3.886 0 0 0 1.49-1.545c.356-.659.534-1.42.534-2.285 0-.864-.178-1.625-.533-2.285a3.893 3.893 0 0 0-1.491-1.545Zm7.537-.412 2.704 5.381 2.665-5.381h1.843v8.484h-1.552v-5.854l-2.362 4.642h-1.224l-2.364-4.642v5.854h-1.55v-8.484h1.84Zm15.376 3.582c-.239.238-.629.358-1.17.358h-1.492v-2.68h1.492c.541 0 .931.12 1.17.359.237.238.357.566.357.987 0 .412-.12.738-.357.976Zm.61-3.243c-.443-.226-1.006-.34-1.684-.34h-3.139v8.486h1.55v-3.285h1.59c.694 0 1.263-.12 1.708-.358.444-.238.772-.554.982-.945a2.69 2.69 0 0 0 .315-1.291c0-.492-.109-.938-.327-1.333-.218-.396-.55-.707-.995-.934Zm7.346 1.443-1.224 3.527h2.46L65.2 54.738Zm-3.964 6.703 3.102-8.485h1.746l3.103 8.485h-1.65l-.678-1.965h-3.308l-.69 1.965h-1.625Zm16.883-2.51-3.987-5.975h-1.55v8.484h1.55v-5.963l3.987 5.963h1.551v-8.484H78.12v5.975Zm8.483-2.06 1.868-3.915h1.733l-2.836 5.466v3.018h-1.552v-3.018l-2.848-5.466h1.758l1.877 3.914ZM.37 61.44l3.103-8.485H5.22l3.102 8.485H6.673l-.679-1.964H2.686l-.691 1.964H.37Zm5.2-3.176-1.237-3.527-1.224 3.527h2.46Z" fill="#10222C"/></svg>