<svg width="141" height="45" fill="none" xmlns="http://www.w3.org/2000/svg"><path fill-rule="evenodd" clip-rule="evenodd" d="M55.267.6 42.584 22.566 55.267 44.53h25.361l12.683-21.965L80.628.6H55.267Zm1.156 21.965 5.764-9.981h11.522l5.764 9.981-5.764 9.98H62.186l-5.763-9.98ZM.16 13.414v2.467h3.033v15.836h2.623V15.88H8.85v-2.467H.16Zm17.92 18.303h-7.816V13.413h7.816v2.467h-5.193v5.374h4.523v2.467h-4.523v5.374h5.193v2.622ZM28.57 13.414H25.79l-2.005 5.424-1.979-5.424h-2.776l3.42 8.714-3.705 9.59h2.779l2.261-6.17 2.288 6.17h2.777l-3.78-9.59 3.498-8.714Zm3.443 2.467h-3.034v-2.467h8.69v2.467h-3.033v15.837h-2.623V15.88Zm70.002-2.467h-2.623v18.304h7.816v-2.622h-5.193V13.414Zm24.18.128c.521.189.996.462 1.425.822.411.377.746.849 1.003 1.414.257.566.386 1.218.386 1.954v.926h-2.623v-.926c0-.634-.175-1.101-.526-1.401-.353-.3-.769-.45-1.248-.45-.478 0-.894.15-1.247.45-.351.3-.527.767-.527 1.4v9.667c0 .634.176 1.101.527 1.401.353.3.769.45 1.247.45.479 0 .895-.15 1.248-.45.351-.3.526-.767.526-1.4v-3.445h-2.082V21.64h4.705v5.76c0 .77-.129 1.43-.386 1.978a4.07 4.07 0 0 1-1.003 1.364c-.429.377-.904.66-1.425.847a4.622 4.622 0 0 1-1.583.284 4.615 4.615 0 0 1-1.581-.284 4.12 4.12 0 0 1-1.4-.848 3.915 3.915 0 0 1-1.029-1.363c-.257-.547-.386-1.208-.386-1.979v-9.666c0-.736.129-1.388.386-1.954a4.142 4.142 0 0 1 1.029-1.414c.412-.36.878-.633 1.4-.822a4.64 4.64 0 0 1 1.581-.283c.532 0 1.06.095 1.583.283Zm-11.018 13.856c0 .634-.174 1.101-.527 1.401-.352.302-.767.45-1.247.45-.479 0-.895-.148-1.246-.45-.353-.3-.528-.767-.528-1.4v-9.667c0-.633.175-1.1.528-1.401.351-.3.767-.45 1.246-.45.48 0 .895.15 1.247.45.353.3.527.768.527 1.4v9.667Zm1.235-13.034a4.685 4.685 0 0 0-1.427-.822 4.641 4.641 0 0 0-1.582-.283c-.532 0-1.058.094-1.581.283-.523.189-.989.462-1.4.822a4.1 4.1 0 0 0-1.028 1.414c-.259.566-.388 1.218-.388 1.954v9.666c0 .77.129 1.432.388 1.98a3.883 3.883 0 0 0 1.028 1.362c.411.378.877.66 1.4.848a4.61 4.61 0 0 0 1.581.284c.532 0 1.059-.095 1.582-.284.523-.188.998-.47 1.427-.848.411-.36.746-.813 1.001-1.362.259-.548.387-1.21.387-1.98v-9.666c0-.736-.128-1.388-.387-1.954a4.281 4.281 0 0 0-1.001-1.414Zm20.656 14.435c.352-.3.527-.767.527-1.4v-9.667c0-.633-.175-1.1-.527-1.402a1.866 1.866 0 0 0-1.247-.449c-.479 0-.895.15-1.246.45-.353.3-.528.768-.528 1.4v9.667c0 .634.175 1.101.528 1.401.351.302.767.45 1.246.45s.895-.148 1.247-.45Zm1.761-14.435c.411.377.746.849 1.002 1.414.258.566.387 1.218.387 1.953v9.667c0 .77-.129 1.431-.387 1.98a4.062 4.062 0 0 1-1.002 1.362c-.429.378-.903.66-1.426.848-.523.19-1.05.283-1.582.283a4.61 4.61 0 0 1-1.581-.283 4.101 4.101 0 0 1-1.4-.848 3.883 3.883 0 0 1-1.028-1.362c-.259-.549-.388-1.21-.388-1.98v-9.667c0-.735.129-1.387.388-1.953a4.1 4.1 0 0 1 1.028-1.414c.411-.36.877-.633 1.4-.823a4.638 4.638 0 0 1 1.581-.282c.532 0 1.059.094 1.582.282.523.19.997.463 1.426.823Z" fill="#10222C"/></svg>