<svg width="84" height="55" fill="none" xmlns="http://www.w3.org/2000/svg"><g clip-path="url(#clip0_152_1659)" fill="#fff"><path d="M60.806 37.583c-.035-.078-.095-.115-.182-.124l-2.769-.295c-.986-.104-1.972-.206-2.957-.313-.123-.013-.244-.047-.368-.072-.097-.217-.103-.43-.09-.678.08-.006.153-.022.224-.015 1.971.208 3.943.416 5.914.628.327.035.652.084.98.126h.448l-.003-.046-.449.047c-.014-.09-.068-.127-.158-.14-.777-.123-1.553-.251-2.33-.374-1.461-.23-2.922-.457-4.383-.688-.108-.017-.212-.048-.322-.073-.114-.23-.104-.457-.115-.719.444.005.836.114 1.234.166.39.052.778.122 1.166.184l1.212.19 1.166.185 1.212.191c.389.062.776.129 1.166.184.397.056.79.154 1.201.113l-8.427-1.792c-.11-.25-.117-.476-.113-.698.122-.09.227-.037.329-.016l7.849 1.658c.151.033.3.079.46.12.023.086.047.158.06.233.059.32.119.641.167.963.025.169.037.342.035.512-.005.427-.237.748-.648.876-.162.05-.34.071-.51.072-2.032.004-4.064.003-6.095.002-.079 0-.159.002-.236-.01-.345-.052-.623-.211-.799-.519-.028-.048-.03-.112-.054-.202.151-.006.272-.02.391-.013.818.041 1.636.087 2.453.132 1.022.056 2.044.112 3.065.17.094.006.187.023.283.034.196.003.392.046.584-.035l-.591.036zM22.264 37.581c.046-.009.092-.023.139-.026 1.776-.1 3.552-.2 5.329-.296.23-.013.462-.034.724-.01-.025.099-.027.162-.055.21-.177.307-.453.47-.798.52-.109.016-.22.011-.33.011-1.985.001-3.969.003-5.953-.002-.186 0-.38-.02-.557-.072-.412-.124-.64-.446-.652-.873-.002-.063-.008-.126.002-.187.078-.504.16-1.008.243-1.533 2.879-.622 5.74-1.217 8.614-1.83.086.274.024.506-.062.768-2.806.62-5.626 1.18-8.426 1.831.917-.08 1.821-.247 2.729-.387.933-.143 1.866-.29 2.798-.437.916-.145 1.832-.294 2.762-.443.103.247.029.467-.025.687-.132.115-.293.116-.446.14l-5.78.919c-.295.046-.591.088-.884.144-.044.008-.076.083-.114.126l-.448-.046-.003.046h.45c.325-.043.65-.092.977-.127 1.314-.14 2.629-.274 3.943-.413.657-.07 1.314-.145 1.97-.215.06-.007.12-.001.206-.001.049.241.02.461-.072.696-.14.026-.276.06-.415.075-1.282.138-2.565.271-3.848.407-.61.064-1.22.132-1.83.195a.211.211 0 00-.184.124l-.594-.027v.026h.59zM1.431 46.635c.102-.021.177-.047.252-.05.137-.006.244.047.291.188.035.103.076.204.113.307.596 1.644 1.191 3.288 1.791 4.93.062.167.091.354.224.498.156-.11.163-.28.214-.42.582-1.616 1.156-3.234 1.732-4.85.058-.163.114-.325.181-.483.06-.141.173-.19.35-.17.123.015.201.078.226.202.082.397.166.794.244 1.192l1.108 5.742c.077.403.02.47-.392.463-.047 0-.095 0-.141-.005-.154-.017-.23-.074-.26-.225-.07-.352-.13-.706-.192-1.06l-.688-3.964c-.016-.09-.048-.178-.083-.305-.122.101-.145.217-.183.323l-1.695 4.814c-.041.118-.077.238-.127.352-.056.129-.164.178-.304.178-.142-.001-.245-.058-.299-.187-.047-.115-.085-.234-.127-.352-.56-1.573-1.12-3.146-1.682-4.72-.046-.127-.1-.253-.177-.443-.051.131-.091.197-.103.268l-.777 4.566c-.031.185-.058.371-.105.552-.017.065-.084.16-.137.167a2.525 2.525 0 01-.557.005c-.049-.005-.109-.107-.123-.172-.016-.071.012-.153.027-.23.43-2.235.862-4.471 1.295-6.707.024-.122.062-.241.104-.404zM40.229 46.715c.114-.01.223-.026.331-.026.85-.002 1.7-.002 2.55 0 .27 0 .534.025.79.116.82.292 1.36.85 1.535 1.693.18.863-.093 1.606-.772 2.181-.213.18-.462.319-.72.493.036.09.066.19.115.282.378.7.76 1.4 1.14 2.1.06.11.121.22.166.335.052.134-.023.265-.163.278-.171.015-.345.012-.518.012-.121 0-.206-.063-.261-.169-.057-.11-.117-.22-.173-.332-.339-.669-.676-1.338-1.016-2.007-.07-.137-.145-.271-.21-.39-.487-.063-1.629-.058-2.031.01-.013.109-.037.228-.038.347-.004.686-.006 1.372 0 2.058.003.435-.04.506-.523.485-.211-.01-.283-.078-.302-.28-.01-.093-.007-.187-.007-.28 0-2.122-.001-4.243.001-6.364 0-.167-.034-.343.106-.541zm.82 3.793c.103.01.209.028.315.03.424.003.848.001 1.272 0 .173 0 .346.008.518-.005.723-.054 1.321-.58 1.447-1.262.126-.68-.225-1.346-.871-1.652-.2-.094-.411-.153-.635-.153-.644 0-1.288.001-1.932.005-.042 0-.085.029-.138.048-.011.061-.03.12-.03.18-.002.886 0 1.773.004 2.66 0 .042.028.085.05.15zM61.229 26.648c.077.323.155.633.145.998-.09-.044-.148-.064-.196-.097-5.288-3.56-10.575-7.121-15.876-10.692.075-.266.22-.46.336-.67.442.219 14.137 9.412 15.59 10.461zM37.403 16.168c.17.22.273.425.37.652-.069.06-.121.117-.184.16-5.264 3.542-10.528 7.084-15.794 10.624-.02.013-.058-.003-.11-.007.014-.277.06-.551.13-.82a.53.53 0 01.155-.22c.067-.064.153-.109.231-.162l14.812-9.976c.117-.079.237-.153.39-.252zM15.694 52.33c-.63-.058-3.47-.043-3.844.02-.068.14-.145.291-.214.446-.174.384-.345.77-.514 1.156-.07.162-.187.23-.368.235-.5.013-.579-.085-.377-.529 1.021-2.246 2.045-4.49 3.069-6.736.032-.07.063-.143.106-.208.111-.17.367-.177.475-.008.059.091.1.195.144.294l2.979 6.571.056.13c.17.399.103.482-.347.487-.218.002-.351-.073-.437-.276-.164-.388-.345-.77-.521-1.152-.065-.141-.134-.28-.207-.43zm-1.945-4.22l-.543 1.201c-.166.37-.34.736-.496 1.11-.16.38-.383.739-.48 1.151.45.072 2.728.067 3.097-.006-.019-.074-.028-.15-.056-.22-.51-1.247-1.257-2.847-1.522-3.236zM68.188 52.332c-.553-.055-3.465-.044-3.853.015l-.416.913c-.103.228-.207.455-.304.685-.068.163-.181.236-.363.241-.51.016-.593-.086-.373-.565 1.016-2.214 2.023-4.432 3.035-6.649.038-.085.076-.172.125-.25.122-.194.384-.186.5.015.054.094.094.197.14.296l2.96 6.529a3 3 0 01.137.347c.042.137-.038.248-.184.266-.077.01-.157.002-.235.01-.216.02-.356-.061-.442-.267-.156-.374-.33-.742-.499-1.111-.07-.155-.147-.307-.228-.475zm-1.883-4.22c-.08.093-.119.123-.136.161a891.651 891.651 0 00-1.418 3.157c-.018.04-.009.09-.014.156.08.013.154.034.229.034.88.002 1.76.002 2.641-.001.07 0 .138-.03.244-.054a198.567 198.567 0 00-1.546-3.453zM21.994 25.909c-.023-.339.071-.639.128-.942.013-.067.08-.131.135-.182.08-.074.173-.136.26-.202l13.378-10.106c.135-.102.259-.227.46-.288l.33.6c-.083.196-.248.27-.383.372-2.679 2.027-5.36 4.052-8.04 6.077-1.954 1.476-3.907 2.953-5.863 4.427-.12.09-.225.213-.405.244zM46.355 14.85l.36-.651c.21.043.33.176.464.278 3.183 2.402 6.364 4.806 9.545 7.21l3.833 2.896c.087.066.18.128.26.202.055.05.122.114.136.182.06.302.14.604.135.919-.05 0-.089.012-.108-.002-4.871-3.653-9.72-7.336-14.624-11.035zM33.489 50.75v2.61c.108.133.242.097.363.097.913.004 1.827.002 2.74.002.111 0 .222.008.331 0 .41-.034.444.216.37.559-.013.059-.1.126-.166.144-.104.028-.219.021-.328.021h-3.64c-.047 0-.094.002-.141 0-.32-.013-.37-.066-.385-.395-.002-.047 0-.094 0-.14v-6.415c0-.167-.037-.346.12-.515.098-.009.221-.029.345-.029 1.244-.002 2.489-.001 3.733-.001h.095c.36.013.5.22.361.557-.024.059-.108.117-.174.13-.122.024-.25.017-.377.017l-2.74.001c-.154 0-.308.013-.485.021-.072.299-.031.579-.038.854-.007.28-.005.562 0 .843.004.277-.022.557.024.86.14.012.26.033.382.034.756.003 1.512.001 2.268.001.095 0 .19-.002.284.002.291.013.35.078.348.373-.002.286-.058.348-.368.35-.804.006-1.607.002-2.41.003-.156 0-.31.01-.512.016zM60.766 23.995c-.155.003-.221-.096-.303-.163C57.15 21.12 47.774 13.18 47.466 12.824c.1-.219.2-.441.376-.648.105.08.192.14.274.21 4.077 3.434 8.153 6.87 12.234 10.3.197.164.304.344.33.589.02.17.06.338.084.507.01.07.002.142.002.213zM35.235 12.174c.172.219.285.435.387.697-4.418 3.724-8.836 7.446-13.312 11.216-.006-.438.072-.77.155-1.097.027-.106.145-.197.238-.277.74-.63 1.485-1.254 2.229-1.88 3.309-2.789 6.618-5.577 9.928-8.364.116-.098.239-.189.375-.295zM53.886 48.23c-.122-.086-.246-.178-.374-.265-.473-.327-.988-.549-1.568-.6-1.384-.122-2.45.696-2.932 1.66-.874 1.743.04 3.861 1.902 4.366.83.224 1.624.117 2.354-.355.21-.135.416-.276.599-.398.055.01.073.009.085.017.652.396.473.555.054.872-2.088 1.578-5.337.633-6.068-2.072-.623-2.31.873-4.345 2.884-4.78 1.224-.264 2.346-.03 3.332.76.05.039.099.078.142.124.084.088.103.211.031.297-.119.142-.232.295-.441.375zM22.678 21.95c-.02-.442.087-.772.14-1.108.013-.084.086-.164.148-.232.094-.104.202-.196.305-.292l10.507-9.826c.113-.106.232-.204.365-.32.187.204.273.433.375.64-.047.186-.192.267-.303.371-2.104 1.972-4.21 3.941-6.315 5.91l-4.773 4.464c-.123.115-.253.222-.448.394zM48.513 10.87l.368-.676c.204.036.298.192.417.302 1.57 1.464 3.138 2.931 4.706 4.398 1.957 1.83 3.912 3.664 5.875 5.489.251.234.441.471.448.832.005.214.061.427.105.71-.134-.084-.217-.12-.28-.178-.631-.586-1.26-1.176-1.89-1.764-3.112-2.913-6.225-5.825-9.338-8.736-.126-.118-.253-.232-.411-.377zM82.703 47.306c-.024.068-.034.114-.055.155-.248.463-.349.435-.726.209a2.956 2.956 0 00-.875-.34 1.782 1.782 0 00-1.02.08c-.862.314-1.076 1.294-.414 1.926.189.18.424.324.657.447.29.154.603.268.904.402.403.178.797.373 1.146.646.316.247.56.546.678.933.25.812-.034 1.603-.757 2.086a2.644 2.644 0 01-1.706.433 3.526 3.526 0 01-1.91-.73 1.611 1.611 0 01-.208-.19.22.22 0 01-.032-.26c.034-.07.081-.134.13-.195.2-.25.282-.262.538-.06.285.225.584.424.925.556.454.177.918.23 1.382.057.172-.064.344-.16.482-.28.45-.395.506-1.008.125-1.469a2.13 2.13 0 00-.53-.456c-.308-.186-.639-.335-.963-.493-.24-.117-.491-.211-.727-.336a5.169 5.169 0 01-.597-.373c-.996-.717-1.035-2.489.286-3.183a2.38 2.38 0 01.663-.235 3.397 3.397 0 012.283.37c.082.043.159.099.231.158.034.028.05.076.09.142zM18.987 53.242c.044-.093.062-.155.097-.204.272-.382.366-.437.734-.12.323.28.7.476 1.12.58.459.112.908.096 1.327-.139.419-.235.64-.588.605-1.078a.949.949 0 00-.314-.66 4.049 4.049 0 00-.68-.498c-.313-.177-.649-.315-.978-.463-.388-.174-.772-.353-1.104-.622a1.898 1.898 0 01.245-3.132c.201-.116.428-.21.654-.256.85-.175 1.658-.036 2.414.388.054.03.107.066.155.107.079.067.099.158.072.254a.705.705 0 01-.08.168c-.178.298-.295.321-.568.158a3.282 3.282 0 00-.956-.39 1.784 1.784 0 00-1.065.086c-.83.322-1.03 1.28-.402 1.91.212.213.469.366.742.49.286.129.577.247.864.375.402.18.795.377 1.14.654.452.361.713.817.733 1.405.022.625-.224 1.12-.711 1.503-.462.363-1 .526-1.58.53-.851.005-1.603-.282-2.258-.817-.07-.057-.123-.136-.206-.23zM71.506 53.218c.035-.192.168-.327.306-.454a.201.201 0 01.262-.02c.09.061.174.134.261.2.34.262.71.468 1.131.564.46.106.912.08 1.326-.167.414-.248.614-.613.563-1.1a.944.944 0 00-.304-.618 3.472 3.472 0 00-.598-.452c-.299-.171-.624-.297-.932-.453-.377-.192-.764-.373-1.12-.6-.426-.272-.671-.675-.785-1.177a1.914 1.914 0 011.127-2.146c.619-.265 1.257-.268 1.9-.13.372.08.724.221 1.043.429.16.104.19.232.1.403-.035.07-.079.135-.126.197-.112.144-.204.167-.368.09-.242-.114-.477-.242-.723-.345a1.87 1.87 0 00-1.34-.048c-.576.19-.896.684-.827 1.262.034.277.16.511.369.687.19.16.4.303.618.425.219.122.46.205.686.312.341.161.688.312 1.016.497.216.123.416.283.6.45.702.636.823 1.967-.15 2.723-.548.424-1.18.586-1.863.535a3.48 3.48 0 01-1.87-.712c-.124-.094-.262-.179-.302-.352zM49.596 8.87l.356-.653c.197-.01.263.135.355.229 1.31 1.35 2.617 2.702 3.924 4.054 1.765 1.825 3.527 3.653 5.3 5.472.207.212.34.436.375.726.034.277.082.55.124.826-.169.04-.213-.084-.28-.154-1.517-1.564-3.032-3.13-4.546-4.697l-5.23-5.408c-.119-.123-.236-.247-.378-.396zM33.08 8.188c.163.205.263.43.364.634-.007.037-.007.053-.012.067a.11.11 0 01-.022.041c-3.385 3.506-6.771 7.012-10.158 10.517a.817.817 0 01-.108.09c-.01.007-.03.002-.045.003-.015-.023-.045-.05-.042-.07.056-.354.118-.707.172-1.061.024-.153.135-.243.232-.343.696-.722 1.394-1.442 2.091-2.163 2.375-2.456 4.75-4.912 7.127-7.367.116-.12.212-.266.4-.348zM48.68 27.013c-.096.188-.164.327-.238.463-.029.053-.071.099-.102.14-.201.03-.351-.074-.508-.135-1.934-.747-3.865-1.5-5.798-2.25-.566-.22-.413-.228-.979-.008l-5.796 2.254c-.16.062-.322.116-.48.173-.199-.186-.259-.411-.384-.63.145-.067.254-.125.368-.17 2.15-.838 4.303-1.672 6.453-2.515a.793.793 0 01.63-.009c2.162.85 4.33 1.69 6.495 2.535.1.04.198.088.339.152zM59.588 16.961c-.367-.324-8.563-9.651-8.888-10.095.051-.107.107-.232.171-.353.058-.11.125-.215.198-.339.18.072.267.224.375.346 1.273 1.447 2.544 2.897 3.815 4.346 1.271 1.449 2.539 2.9 3.818 4.343.207.234.333.481.37.786.034.292.084.582.14.966zM23.517 16.888c.012-.445.098-.858.198-1.264.034-.14.16-.263.261-.38 1.02-1.168 2.044-2.333 3.068-3.5l4.558-5.193c.112-.128.23-.25.368-.4.188.229.29.468.398.696-.007.024-.011.039-.017.054-.005.014-.01.03-.02.042-.068.085-.135.172-.207.254l-8.434 9.61a.408.408 0 01-.071.061c-.01.008-.028.006-.102.02z"/><path d="M47.833 28.63l-.34.64c-.163-.047-.312-.084-.457-.131-1.689-.55-3.38-1.094-5.064-1.657-.3-.1-.56-.104-.862-.003-1.699.569-3.404 1.117-5.108 1.673l-.37.117c-.188-.166-.256-.39-.375-.623.087-.044.162-.094.244-.121 1.926-.632 3.854-1.26 5.78-1.894a.762.762 0 01.504-.007c1.94.64 3.882 1.274 5.824 1.91.058.019.112.047.224.095zM51.774 4.916c.096-.278.227-.502.389-.744.168.072.241.214.334.33 1.319 1.65 2.635 3.3 3.953 4.951.712.893 1.422 1.788 2.14 2.676.172.213.29.431.316.71.025.279.098.553.142.83.013.083.002.17.002.283-.064-.044-.109-.063-.135-.095l-7.141-8.941zM30.881 4.141c.203.266.306.505.434.756l-7.123 8.921c-.036.045-.085.08-.168.158 0-.14-.011-.226.002-.31.045-.276.118-.55.143-.828.025-.279.144-.497.316-.71 1.117-1.39 2.228-2.786 3.34-4.18l2.722-3.41c.097-.121.2-.238.334-.397zM57.122 46.76c.206-.102.38-.072.551-.064.146.007.22.087.233.244.011.14.009.28.009.42v6.051c.133.019.237.046.341.046.755.004 1.51.002 2.265.003.11 0 .22-.002.33 0 .314.01.392.09.383.39-.008.245-.084.327-.349.331-.472.007-.944.003-1.415.003-.63 0-1.259.002-1.888 0-.154-.002-.318.03-.463-.104-.01-.044-.037-.103-.037-.163-.002-2.322-.002-4.643 0-6.965 0-.06.024-.119.04-.191zM27.432 47.392h-.707c-.33 0-.661.004-.992-.002-.294-.006-.354-.074-.35-.366.005-.261.064-.326.337-.333.283-.008.567-.003.85-.003h3.21c.17 0 .344-.023.53.06.018.068.051.14.054.213.016.376-.033.426-.422.43-.41.004-.818 0-1.227.003-.123 0-.245.016-.369.025-.095.18-.062.354-.062.52-.003 1.855-.002 3.71-.002 5.565 0 .124.003.25-.004.374-.013.233-.078.291-.322.304l-.047.001c-.37.008-.437-.05-.438-.428-.003-1.793-.001-3.585-.001-5.377 0-.219.002-.437-.002-.655-.002-.09-.019-.18-.036-.33z"/><path d="M36.43 30.883l-.335-.629c.094-.045.159-.088.23-.108 1.655-.444 3.31-.884 4.964-1.331a.923.923 0 01.507 0c1.653.448 3.309.889 4.963 1.333.059.016.113.047.192.08-.007.135-.082.235-.137.341-.05.096-.106.188-.17.3-.1-.019-.19-.029-.277-.052-1.474-.391-2.949-.78-4.42-1.181a1.502 1.502 0 00-.829.002c-1.455.398-2.915.781-4.373 1.17-.09.023-.181.043-.314.075zM61.51 28.24c.049.332.158.613.117.926-.058-.013-.108-.012-.145-.033-2.943-1.75-5.886-3.503-8.81-5.245a2.654 2.654 0 01-.124-.904c.048-.003.085-.017.107-.004 2.945 1.748 5.889 3.498 8.854 5.26zM30.56 22.943l-.114.84c-.035.055-.042.07-.052.082-.009.012-.018.026-.031.034l-8.642 5.164c-.054.032-.11.06-.166.088a.11.11 0 01-.045.007c-.016.001-.031-.002-.06-.004-.048-.3.066-.579.106-.858.333-.264 8.556-5.162 9.003-5.353zM30.216 25.102c.053.291-.06.556-.085.819-.34.237-8.455 4.49-8.915 4.67-.076-.133.01-.263.007-.39-.01-.385.21-.567.532-.733 2.663-1.38 5.318-2.778 7.977-4.167.15-.078.288-.193.485-.198zM61.901 30.594c-.083-.016-.134-.014-.173-.034-2.922-1.526-5.843-3.054-8.769-4.584-.05-.29-.13-.558-.117-.85.151-.048.248.045.35.098 1.309.682 2.617 1.366 3.925 2.05l4.215 2.208c.042.022.081.05.125.065.255.09.367.266.374.532.004.166.044.331.07.515zM29.924 27.025c.064.318-.046.569-.072.858-.724.363-1.475.68-2.213 1.02-.727.337-1.459.664-2.188.995l-2.232 1.012-2.194.996c-.094-.158-.042-.293-.022-.423.02-.138.058-.274.095-.445 1.448-.68 2.925-1.335 4.395-2.005 1.468-.668 2.936-1.34 4.43-2.008zM29.81 2.108l.407.753c-.161.295-5.112 7.154-5.498 7.618-.027.033-.073.05-.134.09 0-.085-.008-.146.001-.203.044-.26.117-.52.135-.782.032-.471.237-.851.513-1.227 1.428-1.938 2.838-3.889 4.255-5.835.09-.124.189-.243.322-.414zM53.129 27.063c.074.011.124.008.165.027l8.674 3.935c.07.28.142.546.138.814-.035.022-.045.033-.057.036-.015.004-.034.006-.047.001-.13-.054-.262-.107-.39-.165l-8.364-3.802c-.07-.287-.14-.554-.12-.846zM58.495 10.559c-.055-.023-.094-.027-.11-.047-1.844-2.525-3.687-5.052-5.535-7.585.088-.281.249-.51.392-.767.176.057.232.211.318.33 1.373 1.882 2.743 3.767 4.113 5.651.102.14.195.286.306.416.2.235.301.503.34.805.04.309.104.615.154.922.014.086.014.174.022.275zM53.502 29.679a2.358 2.358 0 01-.107-.813c.533.13.994.359 1.473.534.487.178.967.374 1.45.562l1.493.58 1.45.563c.482.188.966.375 1.448.564.482.188.963.378 1.458.573.036.139.078.271.103.407.021.12.025.244.039.396-.2.031-.35-.07-.5-.128-2.02-.782-4.04-1.569-6.06-2.355l-1.8-.701c-.145-.057-.29-.118-.447-.182zM29.684 28.827c-.004.338-.012.597-.118.835-.597.293-8.412 3.312-8.763 3.382-.064-.27.026-.516.1-.8 2.892-1.132 5.8-2.26 8.78-3.417zM53.713 31.31l-.107-.751c.188-.05.327.04.465.085 1.75.569 3.497 1.144 5.245 1.716l3.015.982c.119.244.158.498.153.786-.177.049-.317-.042-.455-.087a2632.32 2632.32 0 01-7.89-2.58c-.133-.044-.265-.094-.426-.152zM29.47 30.53l-.102.751c-.094.045-.187.101-.288.134-2.75.9-5.5 1.797-8.25 2.694-.058.02-.12.03-.206.05-.08-.28.028-.523.068-.757.377-.178 8.217-2.747 8.777-2.873zM53.939 32.817c-.022-.113-.046-.219-.06-.325-.016-.12-.023-.242-.035-.369.077-.012.124-.034.163-.024 2.836.754 5.672 1.51 8.517 2.268.077.263.166.507.113.81l-8.431-2.255c-.09-.024-.173-.067-.267-.105zM20.432 35.177c-.048-.299.052-.518.088-.771.127-.044.256-.097.39-.133 2.596-.696 5.194-1.39 7.792-2.084.15-.04.302-.073.464-.112.115.256-.014.476 0 .674-.138.158-.3.168-.45.208l-6.97 1.868-1.314.35z"/><path d="M46.126 31.836c-.044.102-.07.174-.106.242-.065.123-.135.244-.212.383-.094-.006-.188 0-.276-.02-1.2-.252-2.4-.505-3.598-.766a1.81 1.81 0 00-.792 0c-1.198.26-2.398.513-3.597.767-.076.016-.154.02-.245.032-.168-.175-.234-.4-.366-.623.13-.046.229-.092.332-.114 1.29-.278 2.583-.55 3.873-.829.267-.058.526-.056.793.002 1.275.276 2.552.544 3.827.818.12.026.234.069.367.108zM51.218 22.152c-.065.22-.184.416-.322.63-.094-.04-.182-.067-.26-.113a6953.582 6953.582 0 01-6.185-3.686c-.067-.04-.13-.085-.21-.137.05-.255.18-.457.326-.651.352.143 6.285 3.674 6.651 3.957zM32.187 22.82l-.352-.655c.083-.065.148-.128.223-.174 2.061-1.23 4.123-2.46 6.185-3.688.08-.047.167-.079.257-.12.154.199.257.404.352.633-.075.057-.13.11-.195.148-2.14 1.277-4.282 2.553-6.47 3.857zM40.684 22.176c.06.102.109.18.152.262.058.11.111.222.175.35-.086.053-.16.108-.242.148-2.234 1.078-6.45 2.963-6.881 3.075a2.054 2.054 0 01-.318-.597c.325-.212 6.595-3.069 7.114-3.238zM43.136 20.796l.327-.613c.105.035.195.053.272.093a5452.48 5452.48 0 016.43 3.364c.066.035.127.082.207.135-.086.233-.205.429-.319.623-.351-.115-6.387-3.256-6.917-3.602zM39.573 20.166c.154.223.286.41.331.637-.316.23-6.41 3.424-6.858 3.596-.033-.044-.078-.087-.106-.139-.081-.149-.155-.302-.224-.437.014-.039.017-.055.026-.068a.094.094 0 01.032-.034l6.42-3.372c.11-.058.225-.11.379-.183zM42.057 22.781l.332-.608c.105.033.194.05.275.087 2.186.991 4.371 1.984 6.556 2.978.098.045.19.103.294.16-.09.233-.183.442-.333.615-.366-.103-6.687-2.966-7.124-3.232zM38.13 34.069a1.946 1.946 0 01-.323-.636c.308-.135.63-.13.935-.185.773-.138 1.552-.247 2.327-.374.33-.054.655-.049.985.006.93.153 1.862.297 2.793.448.136.022.27.059.425.093-.072.254-.185.45-.328.649-.116-.009-.225-.01-.332-.026-.869-.139-1.738-.277-2.606-.422a2.949 2.949 0 00-.984.007c-.868.146-1.737.284-2.607.423-.09.014-.185.011-.284.017zM25.205 6.743c.116-.672.21-1.239.315-1.803.016-.088.073-.172.124-.249.95-1.432 1.901-2.862 2.853-4.292.033-.05.08-.092.136-.156.295.131.384.396.494.633-.18.385-3.582 5.502-3.922 5.867zM57.855 6.663c-.063-.015-.107-.013-.12-.031-1.269-1.894-2.535-3.79-3.803-5.687.096-.29.204-.54.494-.702.064.07.134.13.183.203.935 1.404 1.87 2.81 2.801 4.217.06.09.128.187.147.29.106.564.198 1.13.297 1.71zM38.62 35.015c.184-.034.304-.066.427-.079.767-.08 1.534-.16 2.302-.235.109-.011.22-.017.328-.006.8.079 1.598.162 2.396.246.107.012.213.04.312.06.06.16-.046.253-.095.36-.045.098-.108.187-.164.282-.229.051-.446 0-.663-.023-.438-.046-.878-.082-1.313-.146-.537-.08-1.066-.017-1.598.041-.515.057-1.03.11-1.563.168-.075-.116-.145-.215-.205-.32-.052-.094-.092-.194-.163-.348zM39.798 37.278l-.34-.644c.138-.035.234-.073.334-.084 1.107-.122 3.134-.085 3.756.065-.043.27-.043.27-.286.63-.568.049-1.144-.073-1.722-.065-.565.01-1.13.062-1.742.098zM27.335.03c-.13.36-1.027 1.847-1.312 2.177-.011-.05-.032-.09-.026-.127.064-.4.124-.8.2-1.198.098-.51.446-.823.963-.881.055-.006.114.018.175.029zM57.066 2.202c-.039-.02-.077-.026-.09-.047A395.11 395.11 0 0155.797.236c-.031-.05-.048-.11-.076-.18.054-.023.093-.056.131-.054.517.022.9.327 1.01.822.068.305.105.615.153.924.023.148.093.293.05.454zM40.343 38.232c.038-.033.06-.07.081-.07.723-.004 1.445-.006 2.168-.004.039 0 .077.034.124.057-.004.153-.116.222-.205.301-.41.367-1.52.375-1.954-.003-.091-.08-.193-.156-.214-.28zM60.806 37.583l.59-.037c-.191.082-.387.039-.584.035a.035.035 0 01-.006.002zM61.554 36.84l.449-.046.003.045h-.447l-.005.002zM22.264 37.581h-.59v-.025l.594.026h-.004zM21.52 36.842h-.45l.004-.047.448.046h-.002z"/></g><defs><clipPath id="clip0_152_1659"><path fill="#fff" d="M0 0h83.088v54.188H0z"/></clipPath></defs></svg>