<svg width="93" height="51" fill="none" xmlns="http://www.w3.org/2000/svg"><path d="M.587 11.428c0-6.3 5.28-11.406 11.58-11.406 3.476 0 5.953 1.369 7.821 3.15l-2.216 2.195c-1.325-1.26-3.128-2.238-5.605-2.238-4.584 0-8.17 3.693-8.17 8.277 0 4.585 3.586 8.278 8.17 8.278 2.976 0 4.671-1.195 5.757-2.281.891-.891 1.478-2.173 1.695-3.91h-7.452v-3.108H22.66c.108.565.173 1.217.173 1.956 0 2.346-.63 5.236-2.694 7.278-2.02 2.085-4.584 3.194-7.973 3.194-6.3 0-11.58-5.106-11.58-11.385zM31.286 8.148c-4.063 0-7.366 3.085-7.366 7.343 0 4.237 3.303 7.343 7.366 7.343 4.062 0 7.365-3.106 7.365-7.343 0-4.258-3.303-7.343-7.365-7.343zm0 11.775c-2.216 0-4.15-1.825-4.15-4.454 0-2.65 1.912-4.454 4.15-4.454 2.216 0 4.15 1.804 4.15 4.454 0 2.63-1.934 4.454-4.15 4.454zM47.362 8.148c-4.063 0-7.365 3.085-7.365 7.343 0 4.237 3.302 7.343 7.365 7.343 4.063 0 7.365-3.106 7.365-7.343 0-4.258-3.302-7.343-7.365-7.343zm0 11.775c-2.216 0-4.15-1.825-4.15-4.454 0-2.65 1.912-4.454 4.15-4.454 2.238 0 4.15 1.804 4.15 4.454 0 2.63-1.934 4.454-4.15 4.454zM67.09 8.582v1.195h-.108c-.717-.869-2.108-1.651-3.868-1.651-3.671 0-7.039 3.216-7.039 7.365 0 4.106 3.368 7.322 7.04 7.322 1.76 0 3.15-.782 3.867-1.673h.108v1.064c0 2.803-1.499 4.302-3.91 4.302-1.977 0-3.194-1.412-3.694-2.607l-2.802 1.173c.803 1.956 2.954 4.346 6.517 4.346 3.78 0 6.974-2.217 6.974-7.648V8.582H67.09zm-3.693 11.341c-2.216 0-4.085-1.868-4.085-4.432 0-2.585 1.869-4.475 4.085-4.475 2.194 0 3.91 1.89 3.91 4.475.022 2.585-1.716 4.432-3.91 4.432zM75.607 22.377H72.39V.804h3.216v21.573zM84.45 19.923c-1.652 0-2.803-.76-3.564-2.216l9.82-4.063-.326-.825c-.608-1.651-2.476-4.671-6.278-4.671-3.78 0-6.931 2.976-6.931 7.343 0 4.106 3.107 7.343 7.278 7.343 3.368 0 5.301-2.064 6.127-3.258l-2.499-1.673c-.847 1.216-1.977 2.02-3.628 2.02zm-.24-8.95c1.282 0 2.368.63 2.716 1.563l-6.561 2.716c-.087-2.824 2.194-4.28 3.845-4.28z" fill="#fff"/><path d="M4.683 33.821c.605 0 1.101.103 1.489.309l-.454 1.47a2.162 2.162 0 00-.98-.218c-.412 0-.75.146-1.017.436-.254.278-.381.653-.381 1.125v1.126h2.323v1.524H3.34v7.37H1.67v-7.37H0V38.07h1.67V36.78c0-.883.278-1.597.835-2.142.569-.544 1.295-.817 2.178-.817zM6.206 42.515c0-1.367.43-2.498 1.288-3.394.872-.895 1.967-1.343 3.286-1.343s2.408.448 3.267 1.343c.871.895 1.307 2.027 1.307 3.394 0 1.38-.436 2.511-1.307 3.395-.86.895-1.948 1.343-3.267 1.343-1.32 0-2.414-.448-3.286-1.343-.859-.896-1.288-2.027-1.288-3.395zm1.67 0c0 .956.278 1.73.834 2.324.557.593 1.247.89 2.07.89.823 0 1.512-.297 2.069-.89.557-.593.835-1.368.835-2.324 0-.944-.278-1.712-.835-2.305-.569-.605-1.258-.907-2.07-.907-.81 0-1.5.302-2.069.907-.556.593-.834 1.361-.834 2.305zM18.382 46.963h-1.67v-8.894h1.597v1.452h.073c.17-.472.514-.872 1.034-1.198.533-.34 1.053-.508 1.561-.508.485 0 .896.072 1.235.217l-.508 1.616c-.206-.085-.533-.127-.98-.127-.63 0-1.18.254-1.652.762a2.568 2.568 0 00-.69 1.779v4.9zM35.093 43.496c0 1.137-.418 2.05-1.253 2.74-.847.678-1.875 1.017-3.085 1.017-1.077 0-2.027-.315-2.85-.944s-1.392-1.488-1.706-2.577l1.597-.654c.109.387.26.738.454 1.053.194.315.417.587.672.817.266.218.556.393.87.526.315.121.648.182 1 .182.761 0 1.385-.194 1.869-.581.484-.4.726-.926.726-1.58 0-.544-.2-1.01-.6-1.397-.374-.375-1.076-.738-2.105-1.089-1.04-.375-1.688-.63-1.942-.762-1.38-.702-2.07-1.737-2.07-3.104 0-.956.382-1.773 1.144-2.45.775-.678 1.725-1.017 2.85-1.017.992 0 1.852.254 2.578.762.726.496 1.21 1.12 1.452 1.87l-1.561.653a2.249 2.249 0 00-.872-1.198c-.423-.326-.944-.49-1.56-.49-.654 0-1.205.182-1.652.545-.448.339-.672.78-.672 1.325 0 .447.175.835.526 1.161.388.327 1.229.714 2.523 1.162 1.32.448 2.257.998 2.814 1.652.569.641.853 1.434.853 2.378zM39.873 47.108c-.726 0-1.33-.223-1.815-.671-.472-.448-.714-1.071-.726-1.87v-4.973h-1.561v-1.525h1.561v-2.723h1.67v2.723h2.178v1.525h-2.178v4.429c0 .593.115.998.345 1.216.23.206.49.308.78.308.133 0 .26-.012.381-.036.134-.036.255-.079.364-.127l.526 1.488c-.436.158-.944.236-1.525.236zM43.807 44.24c0 .435.182.798.545 1.089.375.29.81.435 1.307.435.702 0 1.325-.26 1.87-.78.556-.52.834-1.131.834-1.833-.52-.412-1.246-.618-2.178-.618-.677 0-1.246.164-1.706.49-.448.327-.672.733-.672 1.217zm2.16-6.462c1.235 0 2.209.333 2.923.998.714.654 1.07 1.555 1.07 2.705v5.481h-1.596v-1.234h-.073c-.69 1.017-1.61 1.525-2.76 1.525-.98 0-1.802-.29-2.468-.871-.653-.581-.98-1.307-.98-2.178 0-.92.345-1.652 1.035-2.197.701-.544 1.633-.817 2.795-.817.992 0 1.81.182 2.45.545v-.381c0-.581-.23-1.071-.69-1.47a2.346 2.346 0 00-1.615-.618c-.932 0-1.67.394-2.214 1.18l-1.47-.926c.81-1.161 2.008-1.742 3.593-1.742zM62.264 47.108c-.726 0-1.331-.223-1.815-.671-.472-.448-.714-1.071-.727-1.87v-4.973h-1.56v-1.525h1.56v-2.723h1.67v2.723h2.179v1.525h-2.178v4.429c0 .593.114.998.344 1.216.23.206.49.308.78.308.134 0 .261-.012.382-.036.133-.036.254-.079.363-.127l.526 1.488c-.435.158-.943.236-1.524.236zm-10.42-9.04h1.598v1.453h.073c.496-1.138 1.518-1.706 3.067-1.706l.345.036v1.743l-.744-.073c-.775 0-1.416.242-1.924.726-.496.472-.744 1.077-.744 1.815v4.901h-1.67V38.07zM72.98 46.963h-1.598V45.73h-.072c-.254.435-.648.799-1.18 1.089-.52.29-1.065.436-1.634.436-1.089 0-1.93-.309-2.523-.926-.58-.63-.87-1.519-.87-2.669v-5.59h1.669v5.482c.036 1.452.768 2.178 2.196 2.178.666 0 1.222-.266 1.67-.799.448-.544.672-1.192.672-1.942v-4.92h1.67v8.895zM79.388 45.728c.798 0 1.47-.302 2.014-.907.545-.593.817-1.362.817-2.306 0-.931-.272-1.7-.817-2.305-.544-.605-1.216-.907-2.014-.907-.811 0-1.489.302-2.034.907-.532.605-.798 1.374-.798 2.305 0 .944.266 1.719.799 2.324.544.593 1.222.89 2.032.89zm.272 1.525c-.654 0-1.253-.14-1.797-.417-.533-.279-.944-.648-1.235-1.108h-.072l.072 1.234v3.921h-1.67V38.068h1.598v1.235h.072c.29-.46.702-.83 1.235-1.108a3.891 3.891 0 011.797-.417c1.174 0 2.166.46 2.977 1.38.835.931 1.252 2.05 1.252 3.357 0 1.32-.417 2.439-1.252 3.358-.811.92-1.803 1.38-2.977 1.38zM92.12 44.494c0 .774-.34 1.428-1.017 1.96-.678.533-1.531.799-2.56.799-.895 0-1.682-.23-2.36-.69a3.905 3.905 0 01-1.452-1.851l1.489-.636c.218.533.532.95.944 1.253.423.29.883.435 1.38.435.532 0 .973-.114 1.324-.344.363-.23.545-.503.545-.817 0-.569-.436-.986-1.307-1.253l-1.525-.38c-1.73-.437-2.595-1.271-2.595-2.506 0-.81.326-1.458.98-1.942.665-.496 1.512-.744 2.541-.744.786 0 1.494.187 2.124.563.641.375 1.089.877 1.343 1.506l-1.489.617a1.819 1.819 0 00-.835-.871 2.484 2.484 0 00-1.27-.327c-.436 0-.829.11-1.18.327-.339.218-.508.484-.508.799 0 .508.478.87 1.434 1.089l1.343.345c1.767.435 2.65 1.325 2.65 2.668z" fill="#fff" fill-opacity=".541"/></svg>