<svg width="117" height="26" fill="none" xmlns="http://www.w3.org/2000/svg"><g clip-path="url(#clip0_152_1645)" fill="#fff"><path d="M1.036 10.379c0-5.22 4.459-9.483 9.78-9.483 2.936 0 5.027 1.138 6.606 2.62l-1.854 1.823c-1.12-1.047-2.66-1.842-4.752-1.842-3.872 0-6.9 3.07-6.9 6.882 0 3.811 3.028 6.882 6.9 6.882 2.514 0 3.945-.994 4.862-1.897.753-.74 1.248-1.806 1.431-3.251h-6.293V9.53h8.862c.092.47.147 1.011.147 1.626 0 1.95-.532 4.353-2.275 6.05-1.688 1.734-3.853 2.656-6.716 2.656-5.34-.018-9.798-4.263-9.798-9.483zM26.963 7.651c-3.432 0-6.22 2.565-6.22 6.106 0 3.522 2.788 6.105 6.22 6.105 3.43 0 6.22-2.583 6.22-6.105 0-3.54-2.79-6.106-6.22-6.106zm0 9.79c-1.872 0-3.505-1.517-3.505-3.703 0-2.203 1.615-3.702 3.505-3.702 1.871 0 3.504 1.499 3.504 3.702 0 2.186-1.633 3.703-3.504 3.703zM40.541 7.651c-3.431 0-6.22 2.565-6.22 6.106 0 3.522 2.789 6.105 6.22 6.105 3.431 0 6.22-2.583 6.22-6.105 0-3.54-2.789-6.106-6.22-6.106zm0 9.79c-1.871 0-3.505-1.517-3.505-3.703 0-2.203 1.615-3.702 3.505-3.702s3.505 1.499 3.505 3.702c0 2.186-1.633 3.703-3.505 3.703zM57.203 8.013v.993h-.092c-.606-.722-1.78-1.373-3.266-1.373-3.102 0-5.946 2.674-5.946 6.124 0 3.413 2.844 6.086 5.946 6.086 1.486 0 2.66-.65 3.266-1.39h.092v.885c0 2.33-1.267 3.576-3.303 3.576-1.67 0-2.698-1.174-3.12-2.167l-2.367.975c.68 1.626 2.496 3.612 5.505 3.612 3.193 0 5.89-1.842 5.89-6.357V8.013h-2.605zm-3.12 9.428c-1.871 0-3.45-1.553-3.45-3.684 0-2.15 1.578-3.721 3.45-3.721 1.853 0 3.303 1.571 3.303 3.72.018 2.15-1.45 3.685-3.303 3.685zM61.68 1.546h2.715v17.936H61.68V1.546zM71.864 17.441c-1.395 0-2.367-.632-3.01-1.842l8.294-3.378-.275-.686c-.514-1.373-2.092-3.884-5.303-3.884-3.193 0-5.853 2.475-5.853 6.106 0 3.413 2.624 6.105 6.147 6.105 2.844 0 4.477-1.716 5.174-2.71l-2.11-1.39c-.715 1.01-1.67 1.68-3.064 1.68zM71.662 10c1.082 0 2 .524 2.294 1.301l-5.542 2.258c-.073-2.348 1.853-3.559 3.248-3.559zM78.91 18.055c0-.885.696-1.571 1.596-1.571.899 0 1.596.686 1.596 1.571 0 .886-.697 1.572-1.596 1.572-.9 0-1.597-.705-1.597-1.572zm16.825-4.244c0 3.45-2.458 6.033-5.926 6.033s-5.927-2.583-5.927-6.033 2.459-6.033 5.927-6.033c3.468 0 5.926 2.6 5.926 6.033zm-2.165 0c0-2.583-1.835-4.1-3.761-4.1-1.927 0-3.762 1.499-3.762 4.1 0 2.6 1.835 4.1 3.762 4.1 1.926 0 3.761-1.5 3.761-4.1zm3.909 5.671V8.157h2.073V10h.092c.477-1.301 2.128-2.132 3.339-2.132.698 0 1.175.09 1.615.271l-.826 1.987c-.312-.108-.679-.163-1.156-.163-1.486 0-2.99 1.229-2.99 3.306v6.213h-2.147zm7.853 2.06l1.982-.813c.422 1.21 1.67 2.167 3.211 2.167 2.404 0 3.835-1.517 3.835-3.901V17.91h-.092c-.697 1.047-2.092 1.95-3.927 1.95-2.935 0-5.468-2.564-5.468-6.032s2.533-6.033 5.468-6.033c1.835 0 3.211.903 3.927 1.95h.092v-1.57h2.073v10.746c0 4.119-2.862 5.943-5.89 5.943-3.027 0-4.624-1.969-5.211-3.323zm9.028-7.731c0-2.583-1.743-4.1-3.67-4.1-1.927 0-3.67 1.553-3.67 4.1 0 2.547 1.743 4.1 3.67 4.1 1.927 0 3.67-1.5 3.67-4.1z"/></g><defs><clipPath id="clip0_152_1645"><path fill="#fff" transform="translate(.935 .472)" d="M0 0h115.6v25.288H0z"/></clipPath></defs></svg>