<svg width="135" height="23" fill="none" xmlns="http://www.w3.org/2000/svg"><g clip-path="url(#clip0_152_1607)" fill="#fff"><path d="M43.517 10.844c0 1.321-.385 2.368-1.138 3.158-.854.926-1.992 1.407-3.381 1.407-1.34 0-2.477-.48-3.398-1.424-.92-.944-1.39-2.128-1.39-3.519 0-1.39.47-2.557 1.39-3.518.92-.944 2.059-1.424 3.398-1.424.67 0 1.322.12 1.925.377.602.24 1.087.601 1.472 1.047l-.853.876A2.867 2.867 0 0040.437 7c-.452-.206-.937-.292-1.456-.292-1.004 0-1.858.36-2.544 1.064-.686.72-1.038 1.63-1.038 2.712 0 1.08.352 1.99 1.038 2.711.703.72 1.54 1.064 2.544 1.064.92 0 1.674-.257 2.293-.79.602-.531.954-1.252 1.054-2.179h-3.347v-1.132h4.469c.05.223.067.463.067.686zM45.425 15.186h-1.189v-6.47h1.138V9.78h.05c.118-.343.369-.635.737-.875s.736-.36 1.105-.36c.351 0 .636.05.87.154l-.368 1.167c-.15-.069-.385-.086-.703-.086-.452 0-.837.189-1.172.55a1.887 1.887 0 00-.502 1.286v3.57h.034zM51.299 8.51c.87 0 1.573.24 2.075.721.502.48.753 1.133.753 1.974v3.981H52.99v-.892h-.05c-.485.738-1.138 1.115-1.958 1.115-.703 0-1.272-.206-1.74-.635-.47-.429-.704-.944-.704-1.579 0-.669.251-1.201.736-1.596.486-.394 1.155-.6 1.975-.6.704 0 1.29.137 1.741.394v-.274c0-.43-.167-.772-.485-1.081a1.644 1.644 0 00-1.138-.447c-.653 0-1.189.292-1.574.859l-1.037-.67c.569-.858 1.422-1.27 2.544-1.27zm-1.523 4.703a1 1 0 00.385.789c.267.206.569.309.92.309.502 0 .937-.189 1.34-.566.384-.378.585-.824.585-1.34-.368-.29-.887-.445-1.54-.445-.485 0-.887.12-1.205.36-.335.24-.485.532-.485.893zM58.078 15.392c-.82 0-1.54-.326-2.126-.995-.585-.67-.87-1.494-.87-2.437 0-.944.285-1.768.87-2.437.586-.67 1.306-.996 2.126-.996.469 0 .887.103 1.272.31.385.205.67.463.887.806h.05l-.05-.893V5.73h1.188v9.456h-1.138v-.892h-.05c-.2.326-.502.6-.887.806a2.838 2.838 0 01-1.272.292zm.184-1.098c.586 0 1.054-.224 1.423-.653.385-.429.585-.995.585-1.681 0-.67-.2-1.236-.585-1.682a1.783 1.783 0 00-1.423-.652c-.569 0-1.038.223-1.423.652-.384.446-.585.995-.585 1.682 0 .686.2 1.252.585 1.681.385.43.87.653 1.423.653zM64.388 6.485c0 .24-.084.446-.252.6a.802.802 0 01-.585.258.776.776 0 01-.586-.257.843.843 0 01-.251-.601c0-.223.084-.446.25-.6a.802.802 0 01.587-.258c.217 0 .435.086.585.257.168.155.252.36.252.601zm-.252 2.231v6.47h-1.188v-6.47h1.188zM68.455 15.392c-.921 0-1.69-.326-2.293-.978-.603-.652-.904-1.476-.904-2.471 0-.979.284-1.802.87-2.455.586-.652 1.322-.978 2.243-.978.937 0 1.674.31 2.226.927.552.618.837 1.493.837 2.609l-.017.137h-4.954c.017.635.218 1.15.62 1.527.4.395.87.584 1.422.584.753 0 1.339-.395 1.774-1.167l1.054.532c-.284.549-.67.978-1.171 1.287a3.34 3.34 0 01-1.707.446zm-1.892-4.222h3.615a1.639 1.639 0 00-.535-1.115c-.318-.292-.753-.446-1.289-.446-.452 0-.837.137-1.155.429-.318.274-.535.652-.636 1.132zM72.522 8.716h1.138v.893h.05c.184-.31.452-.584.837-.79a2.395 2.395 0 011.171-.309c.77 0 1.373.223 1.791.687.418.446.62 1.098.62 1.939v4.067H76.94v-3.998c-.033-1.064-.552-1.58-1.556-1.58-.47 0-.87.19-1.189.584-.318.395-.468.858-.468 1.408v3.57h-1.189v-6.47h-.016zM81.677 15.289c-.519 0-.937-.155-1.289-.48-.335-.327-.519-.773-.519-1.357v-3.62h-1.104V8.715h1.104V6.742h1.189v1.974h1.54V9.83h-1.54v3.227c0 .429.083.72.25.875a.788.788 0 00.553.223c.1 0 .184-.017.284-.034.084-.018.168-.052.252-.086l.368 1.081c-.318.12-.686.172-1.088.172zM89.309 15.186H88.07L84.84 5.73h1.305l2.528 7.671h.05L91.35 5.73h1.306l-3.347 9.456zM96.238 15.392c-.92 0-1.69-.326-2.293-.978-.602-.652-.903-1.476-.903-2.471 0-.979.284-1.802.87-2.455.586-.652 1.322-.978 2.243-.978.937 0 1.673.31 2.226.927.552.618.837 1.493.837 2.609l-.017.137h-4.954c.016.635.217 1.15.619 1.527.401.395.87.584 1.422.584.754 0 1.34-.395 1.775-1.167l1.054.532a3.19 3.19 0 01-1.172 1.287 3.34 3.34 0 01-1.707.446zm-1.891-4.222h3.615a1.639 1.639 0 00-.535-1.115c-.318-.292-.754-.446-1.29-.446-.451 0-.836.137-1.154.429-.318.274-.536.652-.636 1.132zM100.305 8.716h1.138v.893h.051c.184-.31.451-.584.836-.79a2.398 2.398 0 011.172-.309c.77 0 1.372.223 1.791.687.418.446.619 1.098.619 1.939v4.067h-1.188v-3.998c-.034-1.064-.553-1.58-1.557-1.58-.468 0-.87.19-1.188.584-.318.395-.469.858-.469 1.408v3.57h-1.188v-6.47h-.017zM109.46 15.289c-.519 0-.937-.155-1.289-.48-.334-.327-.519-.773-.519-1.357v-3.62h-1.104V8.715h1.104V6.742h1.189v1.974h1.54V9.83h-1.54v3.227c0 .429.084.72.251.875a.786.786 0 00.552.223c.101 0 .184-.017.285-.034.083-.018.167-.052.251-.086l.368 1.081c-.318.12-.669.172-1.088.172zM117.059 15.186h-1.139v-.893h-.05a2.108 2.108 0 01-.837.79c-.385.206-.77.309-1.171.309-.77 0-1.373-.223-1.791-.687-.419-.446-.619-1.098-.619-1.94v-4.05h1.188v3.982c.033 1.064.552 1.58 1.557 1.58.468 0 .87-.19 1.188-.584.318-.395.468-.858.468-1.408v-3.57h1.189v6.47h.017zM119.686 15.186h-1.188v-6.47h1.138V9.78h.05c.118-.343.369-.635.737-.875s.736-.36 1.104-.36c.335 0 .636.05.871.154l-.368 1.167c-.151-.069-.385-.086-.703-.086-.452 0-.837.189-1.172.55a1.886 1.886 0 00-.502 1.286v3.57h.033zM125.611 15.392c-.92 0-1.69-.326-2.293-.978-.602-.652-.903-1.476-.903-2.471 0-.979.284-1.802.87-2.455.586-.652 1.322-.978 2.243-.978.937 0 1.673.31 2.226.927.552.618.836 1.493.836 2.609l-.016.137h-4.954c.016.635.217 1.15.619 1.527.402.395.87.584 1.423.584.753 0 1.338-.395 1.774-1.167l1.054.532a3.18 3.18 0 01-1.172 1.287 3.34 3.34 0 01-1.707.446zm-1.891-4.222h3.615a1.636 1.636 0 00-.535-1.115c-.318-.292-.754-.446-1.289-.446-.452 0-.837.137-1.155.429-.318.274-.536.652-.636 1.132zM134.566 13.384c0 .566-.234 1.047-.72 1.424-.485.395-1.088.584-1.807.584a2.814 2.814 0 01-1.674-.515 2.894 2.894 0 01-1.038-1.339l1.055-.463c.15.395.385.686.669.91.301.223.619.325.971.325.385 0 .686-.085.954-.257.251-.172.385-.36.385-.6 0-.412-.301-.721-.921-.91l-1.088-.275c-1.221-.309-1.841-.927-1.841-1.819 0-.583.235-1.064.703-1.424.469-.36 1.071-.532 1.791-.532.552 0 1.055.137 1.506.412.452.274.77.635.954 1.098l-1.054.446a1.33 1.33 0 00-.586-.635 1.771 1.771 0 00-.904-.223c-.301 0-.585.086-.836.24-.252.155-.369.36-.369.584 0 .377.335.635 1.021.79l.954.257c1.256.309 1.875.944 1.875 1.922zM0 3.036c0 1.252 1.004 2.282 2.226 2.282h11.85c1.222 0 2.226-1.03 2.226-2.282H0z"/><path d="M13.791 19.013L4.151 1.886C3.53.804 2.176.426 1.104 1.062l11.85 21.057a2.316 2.316 0 00.837-3.106z"/><path d="M1.105 1.062A2.306 2.306 0 00.3 4.168l9.64 17.11c.62 1.099 1.976 1.459 3.03.841L1.105 1.062z"/><path d="M16.302 3.035c0-1.252-1.004-2.282-2.226-2.282H2.226C1.004.753 0 1.783 0 3.035h16.302zM22.612 1.062c-1.055-.635-2.427-.258-3.03.84l-9.64 17.11c-.62 1.099-.251 2.49.82 3.107l11.85-21.057z"/><path d="M22.612 1.062L10.745 22.119c1.055.635 2.427.257 3.03-.824l9.64-17.11c.62-1.098.251-2.506-.803-3.123z"/></g><defs><clipPath id="clip0_152_1607"><path fill="#fff" transform="translate(0 .753)" d="M0 0h134.566v21.675H0z"/></clipPath></defs></svg>