<svg width="127" height="21" fill="none" xmlns="http://www.w3.org/2000/svg"><g clip-path="url(#clip0_152_1584)"><path d="M45.574 2.897h9.34V5.58h-2.995v9.811h2.995v2.685h-9.34l.014-2.685h2.98v-9.81h-2.994V2.896zm18.294 9.29h3.765l-.043.24c-.356 2.15-1.782 3.373-3.779 3.373-2.367 0-4.05-1.883-4.05-5.088v-.351c0-3.205 1.683-5.173 4.136-5.173 1.81 0 3.123.998 3.394 2.586h3.336c-.413-3.233-3.065-5.229-6.744-5.229-4.506 0-7.572 3.163-7.572 7.928v.127c0 4.849 2.695 7.787 6.702 7.787 1.953 0 3.608-.802 4.62-2.235v1.925h3.137V9.573h-6.887v2.615h-.015zM34.651 5.582h5.205v6.958c0 2.193-.984 3.261-2.481 3.261-1.511 0-2.453-1.068-2.481-3.134h-3.308c.043 3.598 2.253 5.763 5.789 5.763 3.565 0 5.832-2.067 5.832-5.988V2.897H36.02L34.651 5.58zm87.765-2.684l-4.049 11.779-2.909-11.78h-4.192l-2.909 11.78-4.05-11.78h-3.536l5.404 15.181h4.463l2.624-10.71 2.652 10.724h4.478l5.39-15.194h-3.366zM81.978 9.25l-3.223-.675c-1.412-.295-1.925-.8-1.925-1.63 0-.998.998-1.8 2.823-1.8 1.94 0 3.109.872 3.308 2.32h3.195c-.2-3.078-2.653-4.934-6.503-4.934-3.907 0-6.145 1.898-6.145 4.751 0 2.305 1.297 3.613 4.263 4.231l3.208.66c1.412.31 1.925.788 1.925 1.673 0 1.195-1.112 1.954-3.037 1.954-2.31 0-3.365-.871-3.493-2.544h-3.18c.128 3.205 2.381 5.145 6.688 5.145 4.05 0 6.36-1.842 6.36-4.906 0-2.333-1.299-3.612-4.264-4.245zm15.2-6.353l5.404 15.18h-3.55l-1.156-3.373h-6.16l-1.154 3.36h-3.38l5.404-15.181 4.592.014zm-.214 9.136l-2.168-6.255-2.167 6.255h4.335zm-87.75-8.04a6.603 6.603 0 011.839-.253c3.778 0 6.844 3.022 6.844 6.747s-3.066 6.747-6.844 6.747a6.838 6.838 0 01-6.374-4.301L.786 20.607H21.32V.367H11.053l-1.84 3.626z" fill="#fff"/></g><defs><clipPath id="clip0_152_1584"><path fill="#fff" transform="translate(.516 .1)" d="M0 0h125.534v20.772H0z"/></clipPath></defs></svg>