<svg width="61" height="38" fill="none" xmlns="http://www.w3.org/2000/svg"><path d="M18.867 38C8.63 38 .331 29.713.331 19.486.331 9.258 8.63.972 18.867.972c1.339 0 2.633.145 3.893.412l4.138 8.22a14.299 14.299 0 00-7.529-2.42c-.167-.011-.345-.011-.513-.011-6.814.01-12.324 5.554-12.324 12.346 0 6.804 5.52 12.358 12.347 12.358 5.766 0 10.595-4.227 11.956-9.201H17.674v-6.402h12.648l5.431 10.83C32.82 33.504 26.363 38 18.867 38zM41.743 37.9l-3.603-7.138 14.722-29.4H60.1L41.743 37.9z" fill="#fff"/></svg>