<svg width="101" height="101" viewBox="0 0 101 101" fill="none" xmlns="http://www.w3.org/2000/svg">
<g clip-path="url(#clip0_1510_5826)">
<path fill-rule="evenodd" clip-rule="evenodd" d="M8.73961 43.3673L23.6496 40.3057C26.4862 39.6353 29.1064 38.2564 31.2653 36.2981C33.4242 34.3398 35.0512 31.866 35.9942 29.108L43.6903 6.39893L54.5089 6.56747L45.7454 32.413C44.3276 36.5845 41.9263 40.3533 38.7444 43.4007C35.5625 46.4482 31.6936 48.6846 27.4649 49.9211L8.73961 43.3673ZM91.6677 57.351L76.9637 60.3705C74.123 61.0339 71.4973 62.4075 69.3324 64.3627C67.1676 66.318 65.5345 68.7908 64.5863 71.5495L56.7732 94.6003L46.4743 94.4411L46.0061 94.2913L54.8351 68.2444C56.2556 64.07 58.6606 60.2992 61.8466 57.2509C65.0326 54.2025 68.906 51.9664 73.1391 50.7317L91.6677 57.351ZM69.0883 46.0829L93.7822 55.1599V44.1869L72.6227 36.4159C67.5575 34.5434 64.0652 30.3302 61.6216 23.1959L56.9964 7.36836L51.3274 24.6097L51.847 26.3792C55.3018 36.6547 60.9615 43.0962 69.0883 46.0829ZM7.21094 45.676L31.521 54.594C39.9755 57.7024 46.1221 64.7618 48.8232 74.4896L49.3194 76.0625L43.8001 92.8122L38.9222 77.3217C37.1386 70.8334 33.2484 66.2223 27.9679 64.2796L7.21094 56.649V45.676Z" fill="#F9F9F9"/>
<path d="M90.2415 0C90.9188 0 91.5652 0.0833168 92.1806 0.24995C92.7988 0.413896 93.3726 0.647721 93.9021 0.951423C94.4315 1.25513 94.9113 1.62199 95.3413 2.05201C95.774 2.48203 96.1422 2.96178 96.4459 3.49124C96.7496 4.0207 96.9834 4.59451 97.1474 5.21267C97.314 5.82814 97.3973 6.47451 97.3973 7.1518C97.3973 7.83446 97.3127 8.4889 97.1433 9.11512C96.9767 9.74134 96.7389 10.3246 96.4298 10.8648C96.1207 11.4023 95.7471 11.8914 95.309 12.3322C94.8736 12.7703 94.3872 13.1439 93.8496 13.453C93.3148 13.7647 92.7356 14.0053 92.1121 14.1746C91.4912 14.3439 90.8408 14.4286 90.1609 14.4286C89.4863 14.4286 88.8399 14.3453 88.2217 14.1786C87.6036 14.012 87.0271 13.7741 86.4922 13.4651C85.9601 13.156 85.4763 12.7851 85.0409 12.3524C84.6082 11.917 84.2373 11.4332 83.9282 10.9011C83.6218 10.3662 83.3853 9.78971 83.2187 9.17156C83.0521 8.5534 82.9688 7.90702 82.9688 7.23243C82.9688 6.55246 83.0534 5.90205 83.2227 5.2812C83.3921 4.65767 83.6313 4.07849 83.9403 3.54365C84.2521 3.00612 84.627 2.51966 85.0651 2.08426C85.5032 1.64886 85.991 1.27663 86.5285 0.967549C87.0687 0.658471 87.652 0.420615 88.2782 0.253981C88.9044 0.0846605 89.5588 0 90.2415 0ZM90.2334 1.26991C89.669 1.26991 89.1315 1.3371 88.6208 1.47148C88.1129 1.60586 87.6412 1.79803 87.2058 2.04798C86.7731 2.29793 86.382 2.60029 86.0327 2.95506C85.6833 3.30982 85.3849 3.70759 85.1377 4.14837C84.8931 4.58914 84.705 5.06754 84.5733 5.58356C84.4416 6.09959 84.3757 6.64384 84.3757 7.2163C84.3757 7.78608 84.4402 8.32898 84.5692 8.84501C84.7009 9.35835 84.8877 9.8354 85.1296 10.2762C85.3742 10.7169 85.6685 11.1147 86.0125 11.4695C86.3565 11.8243 86.7422 12.1266 87.1695 12.3766C87.5969 12.6265 88.0591 12.82 88.5563 12.9571C89.0562 13.0915 89.5817 13.1587 90.1326 13.1587C90.6917 13.1587 91.2238 13.0901 91.7291 12.9531C92.2371 12.8133 92.7074 12.6158 93.1401 12.3604C93.5755 12.1051 93.9679 11.796 94.3173 11.4332C94.6694 11.0704 94.969 10.6659 95.2163 10.2197C95.4663 9.7709 95.6571 9.28578 95.7888 8.76438C95.9232 8.24298 95.9903 7.69336 95.9903 7.11552C95.9903 6.55111 95.9258 6.01493 95.7968 5.50697C95.6678 4.99632 95.4824 4.52464 95.2405 4.09193C95.0013 3.65922 94.7097 3.26951 94.3657 2.9228C94.0243 2.57341 93.64 2.27643 93.2127 2.03185C92.7853 1.78728 92.3204 1.59914 91.8178 1.46745C91.3179 1.33576 90.7898 1.26991 90.2334 1.26991ZM88.9071 10.6108H87.5162V3.95486H90.8583C91.2023 3.95486 91.5181 4.00323 91.8057 4.09999C92.0933 4.19406 92.3392 4.32844 92.5435 4.50313C92.7504 4.67514 92.9117 4.88209 93.0272 5.12398C93.1428 5.36586 93.2006 5.63194 93.2006 5.92221C93.2006 6.18291 93.1535 6.41942 93.0595 6.63174C92.9681 6.84406 92.8377 7.02682 92.6684 7.18002C92.5018 7.33053 92.2989 7.44744 92.0597 7.53076C91.8232 7.61138 91.5584 7.6517 91.2655 7.6517V7.64767C91.3972 7.64767 91.5208 7.67051 91.6364 7.7162C91.7546 7.7592 91.8662 7.82505 91.971 7.91374C92.0758 7.99975 92.1739 8.1086 92.2653 8.24029C92.3567 8.3693 92.4413 8.52115 92.5193 8.69585L93.378 10.6108H91.8863L91.0276 8.85307C90.9712 8.73482 90.9094 8.63672 90.8422 8.55878C90.7777 8.47815 90.7011 8.41364 90.6124 8.36527C90.5237 8.31689 90.4202 8.28329 90.302 8.26448C90.1837 8.24298 90.0453 8.23223 89.8867 8.23223H88.5765L88.9071 7.86133V10.6108ZM88.6208 5.27717L88.9071 4.76115V7.27274L88.5765 6.90588H90.4713C90.6809 6.90588 90.8677 6.88707 91.0317 6.84944C91.1956 6.81181 91.3354 6.75806 91.4509 6.68818C91.5665 6.61562 91.6538 6.52827 91.713 6.42614C91.7748 6.32132 91.8057 6.20441 91.8057 6.0754C91.8057 5.94639 91.7761 5.83217 91.717 5.73273C91.6579 5.63328 91.5719 5.54997 91.459 5.48278C91.3461 5.41559 91.2064 5.36452 91.0397 5.32958C90.8731 5.29464 90.6823 5.27717 90.4673 5.27717H88.6208Z" fill="#F9F9F9"/>
</g>
<defs>
<clipPath id="clip0_1510_5826">
<rect width="101" height="101" rx="10" fill="white"/>
</clipPath>
</defs>
</svg>
