<svg width="80" height="80" viewBox="0 0 80 80" fill="none" xmlns="http://www.w3.org/2000/svg">
<g clip-path="url(#clip0_1671_10666)">
<rect width="80" height="80" rx="40" fill="#EAF3FE"/>
<path d="M39.4022 79.4398C49.8523 79.4398 59.8744 75.2885 67.2637 67.8991C74.6531 60.5098 78.8044 50.4877 78.8044 40.0376C78.8044 29.5875 74.6531 19.5654 67.2638 12.176C59.8744 4.78667 49.8523 0.635378 39.4022 0.635376L39.4022 40.0376V79.4398Z" fill="#D2E5FD" stroke="#4893F4" stroke-width="1.25534" stroke-dasharray="7.21 1.44"/>
<path d="M40.3555 80.7109C29.6525 80.7109 19.388 76.4592 11.8198 68.8911C4.25172 61.323 -2.97736e-07 51.0584 0 40.3555C2.97736e-07 29.6525 4.25173 19.388 11.8198 11.8198C19.388 4.25172 29.6525 -1.27631e-07 40.3555 0V40.3555V80.7109Z" fill="#4893F4"/>
<path d="M44.3307 61.3154L42.6513 65.678C42.5439 65.9573 42.2753 66.1415 41.9762 66.1415H36.77C36.4709 66.1415 36.2023 65.9573 36.0949 65.678L34.5569 61.6833C31.8633 61.1053 29.3262 60.0534 27.0034 58.5517L23.0893 60.2909C22.8151 60.4115 22.4953 60.3526 22.2837 60.1411L18.6023 56.4597C18.3907 56.2482 18.3309 55.9278 18.4525 55.6547L20.1908 51.7406C18.69 49.4201 17.6377 46.882 17.0587 44.1856L13.065 42.648C12.7857 42.5406 12.6016 42.2721 12.6016 41.973V36.7667C12.6016 36.4676 12.7857 36.1991 13.065 36.0917L17.0593 34.5541C17.6372 31.8591 18.6896 29.3215 20.1913 27.0001L18.4526 23.085C18.3311 22.8118 18.3909 22.4914 18.6024 22.28L22.2833 18.5986C22.4948 18.3866 22.8146 18.3272 23.0888 18.4488L27.0034 20.188C29.3257 18.6863 31.8628 17.6344 34.5569 17.0564L36.0949 13.0617C36.2024 12.7823 36.471 12.5981 36.7701 12.5981H41.9763C42.2754 12.5981 42.544 12.7823 42.6514 13.0616L44.3312 17.4256C44.4749 17.7988 44.2893 18.2171 43.9162 18.3607C43.5446 18.5034 43.1248 18.3187 42.9812 17.9457L41.4795 14.0453H37.267L35.7653 17.9457C35.6763 18.178 35.4738 18.3475 35.2297 18.3956C32.4475 18.942 29.8383 20.0236 27.4745 21.6102C27.2681 21.7492 27.0044 21.7713 26.7778 21.6709L22.9552 19.9732L19.977 22.9518L21.6743 26.7745C21.7751 27.0015 21.752 27.2649 21.6136 27.4712C20.0265 29.834 18.945 32.4433 18.3985 35.2268C18.3505 35.4708 18.1808 35.6734 17.9486 35.7625L14.0487 37.2637V41.4759L17.9477 42.9772C18.18 43.0662 18.3495 43.2688 18.3976 43.5129C18.9455 46.2979 20.027 48.9076 21.6132 51.2695C21.7516 51.4758 21.7747 51.7391 21.6739 51.9662L19.9772 55.7879L22.9557 58.7665L26.778 57.0688C27.0046 56.9685 27.2684 56.9906 27.4747 57.1295C29.839 58.7166 32.4482 59.7981 35.2299 60.3441C35.4739 60.3921 35.6764 60.5617 35.7655 60.794L37.2673 64.6944H41.4795L42.9808 60.7954C43.1245 60.4222 43.5451 60.2367 43.9158 60.3804C44.2888 60.5241 44.4744 60.9428 44.3307 61.3154ZM33.7548 48.6772C33.8722 48.7483 34.0012 48.7818 34.1289 48.7818C34.3734 48.7818 34.6127 48.6574 34.7483 48.4327C34.9551 48.0907 34.8458 47.646 34.5038 47.4392C31.6529 45.7152 29.951 42.6989 29.951 39.3699C29.951 36.0409 31.6529 33.0245 34.5038 31.3005C34.8458 31.0937 34.9551 30.649 34.7483 30.307C34.542 29.965 34.0964 29.8552 33.7548 30.0625C30.4668 32.0504 28.5038 35.5302 28.5038 39.3699C28.5038 43.2095 30.4667 46.6893 33.7548 48.6772ZM66.1449 39.3699C66.1449 41.2259 64.6347 42.7361 62.7786 42.7361C61.1712 42.7361 59.8251 41.6025 59.4927 40.0934H40.0968V43.381H47.4341C47.6258 43.381 47.8101 43.4573 47.9457 43.593L50.6115 46.2593H52.4084C52.7406 44.7501 54.0869 43.6166 55.6943 43.6166C57.5503 43.6166 59.0605 45.1268 59.0605 46.9828C59.0605 48.8389 57.5503 50.3491 55.6943 50.3491C54.087 50.3491 52.7407 49.2155 52.4084 47.7064H50.3118C50.1202 47.7064 49.9359 47.6301 49.8003 47.4944L47.1345 44.8282H40.0968V48.1163H46.0473C46.239 48.1163 46.4233 48.1926 46.5589 48.3282L51.7152 53.4845C51.8508 53.6201 51.9271 53.8044 51.9271 53.9961V56.5789C52.8181 56.7759 53.6277 57.3275 54.1185 58.1777C54.5684 58.9564 54.6881 59.8637 54.4554 60.7318C54.2227 61.6004 53.6654 62.3264 52.8867 62.7757C52.3681 63.0754 51.7924 63.2285 51.2092 63.2285C50.9167 63.2285 50.6222 63.1899 50.3326 63.1121C49.4639 62.8794 48.738 62.3225 48.2886 61.5439C47.3606 59.9367 47.9132 57.8738 49.5204 56.9454C49.8273 56.7682 50.1509 56.6459 50.48 56.5737V54.2956L45.7477 49.5633H40.0968V54.7596C40.0968 55.1591 39.7727 55.4832 39.3732 55.4832C30.4885 55.4832 23.2599 48.2546 23.2599 39.3699C23.2599 30.4851 30.4885 23.2565 39.3732 23.2565C39.7727 23.2565 40.0968 23.5806 40.0968 23.9801V29.1764H45.7477L50.48 24.4441V22.1617C50.1477 22.0881 49.8238 21.9695 49.5204 21.7942C47.9132 20.8658 47.3606 18.8029 48.2886 17.1957C48.738 16.417 49.4639 15.8602 50.3326 15.6275C51.2007 15.3948 52.1079 15.514 52.8866 15.9639C53.6653 16.4132 54.2221 17.1392 54.4548 18.0078C54.688 18.8764 54.5683 19.7832 54.1184 20.5619C53.6691 21.3406 52.9431 21.8973 52.0745 22.1305C52.0256 22.1436 51.9762 22.1491 51.927 22.1598V24.7435C51.927 24.9352 51.8507 25.1195 51.7151 25.2551L46.5588 30.4114C46.4232 30.547 46.2389 30.6233 46.0472 30.6233H40.0967V33.9114H46.9536L50.1031 30.7613C50.2387 30.6256 50.423 30.5493 50.6147 30.5493H52.4083C52.7405 29.0402 54.0868 27.9066 55.6942 27.9066C57.5502 27.9066 59.0604 29.4168 59.0604 31.2729C59.0604 33.1289 57.5502 34.6391 55.6942 34.6391C54.0869 34.6391 52.7406 33.5055 52.4083 31.9964H50.9143L47.7648 35.1465C47.6291 35.2821 47.4449 35.3585 47.2532 35.3585H40.0968V38.6461H59.4927C59.825 37.1369 61.1712 36.0034 62.7786 36.0034C64.6347 36.0036 66.1449 37.5138 66.1449 39.3699ZM53.7751 31.2732C53.7751 32.3312 54.6362 33.1923 55.6942 33.1923C56.7522 33.1923 57.6133 32.3312 57.6133 31.2732C57.6133 30.2152 56.7522 29.3541 55.6942 29.3541C54.6362 29.3541 53.7751 30.2151 53.7751 31.2732ZM50.244 20.5413C50.6886 20.7975 51.2064 20.8663 51.7 20.7326C52.1951 20.6002 52.6092 20.2823 52.8654 19.8384C53.1216 19.3947 53.19 18.8775 53.0571 18.3824C52.9247 17.8873 52.6068 17.4732 52.163 17.217C51.8671 17.046 51.5388 16.9589 51.2062 16.9589C51.0399 16.9589 50.8722 16.9811 50.7068 17.0253C50.2118 17.1577 49.7976 17.4756 49.5414 17.9194C49.0127 18.8355 49.3278 20.0118 50.244 20.5413ZM38.6496 24.721C30.8973 25.0994 24.7071 31.5251 24.7071 39.3699C24.7071 47.2146 30.8974 53.6403 38.6496 54.0187V24.721ZM51.1998 57.9422C50.8748 57.9422 50.5455 58.0246 50.244 58.1984C49.3278 58.7279 49.0126 59.9042 49.5416 60.8204C49.7978 61.2641 50.212 61.5821 50.707 61.7145C51.2021 61.8469 51.7189 61.7796 52.1631 61.5228C52.6073 61.2666 52.9248 60.8525 53.0576 60.3574C53.19 59.8623 53.1217 59.3455 52.8654 58.9014C52.5104 58.286 51.864 57.9422 51.1998 57.9422ZM53.7751 46.9827C53.7751 48.0407 54.6362 48.9018 55.6942 48.9018C56.7522 48.9018 57.6133 48.0407 57.6133 46.9827C57.6133 45.9247 56.7522 45.0637 55.6942 45.0637C54.6362 45.0637 53.7751 45.9247 53.7751 46.9827ZM64.6977 39.3699C64.6977 38.3118 63.8367 37.4508 62.7786 37.4508C61.7206 37.4508 60.8596 38.3118 60.8596 39.3699C60.8596 40.4279 61.7206 41.2889 62.7786 41.2889C63.8367 41.2889 64.6977 40.4279 64.6977 39.3699Z" fill="#D2E5FD"/>
<mask id="mask0_1671_10666" style="mask-type:alpha" maskUnits="userSpaceOnUse" x="12" y="12" width="55" height="55">
<path d="M44.3307 61.3164L42.6513 65.6789C42.5439 65.9583 42.2753 66.1424 41.9762 66.1424H36.77C36.4709 66.1424 36.2023 65.9583 36.0949 65.6789L34.5569 61.6843C31.8633 61.1063 29.3262 60.0544 27.0034 58.5527L23.0893 60.2919C22.8151 60.4124 22.4953 60.3536 22.2837 60.1421L18.6023 56.4607C18.3907 56.2491 18.3309 55.9288 18.4525 55.6557L20.1908 51.7416C18.69 49.4211 17.6377 46.883 17.0587 44.1866L13.065 42.649C12.7857 42.5416 12.6016 42.273 12.6016 41.974V36.7677C12.6016 36.4686 12.7857 36.2001 13.065 36.0927L17.0593 34.5551C17.6372 31.8601 18.6896 29.3224 20.1913 27.001L18.4526 23.086C18.3311 22.8127 18.3909 22.4924 18.6024 22.281L22.2833 18.5995C22.4948 18.3876 22.8146 18.3282 23.0888 18.4498L27.0034 20.189C29.3257 18.6873 31.8628 17.6353 34.5569 17.0573L36.0949 13.0627C36.2024 12.7833 36.471 12.5991 36.7701 12.5991H41.9763C42.2754 12.5991 42.544 12.7833 42.6514 13.0626L44.3312 17.4266C44.4749 17.7997 44.2893 18.218 43.9162 18.3616C43.5446 18.5044 43.1248 18.3197 42.9812 17.9467L41.4795 14.0463H37.267L35.7653 17.9467C35.6763 18.1789 35.4738 18.3484 35.2297 18.3966C32.4475 18.943 29.8383 20.0246 27.4745 21.6111C27.2681 21.7501 27.0044 21.7723 26.7778 21.6719L22.9552 19.9742L19.977 22.9528L21.6743 26.7755C21.7751 27.0025 21.752 27.2658 21.6136 27.4722C20.0265 29.835 18.945 32.4443 18.3985 35.2278C18.3505 35.4718 18.1808 35.6743 17.9486 35.7634L14.0487 37.2646V41.4769L17.9477 42.9782C18.18 43.0672 18.3495 43.2698 18.3976 43.5139C18.9455 46.2988 20.027 48.9086 21.6132 51.2704C21.7516 51.4768 21.7747 51.7401 21.6739 51.9671L19.9772 55.7889L22.9557 58.7675L26.778 57.0698C27.0046 56.9695 27.2684 56.9915 27.4747 57.1305C29.839 58.7176 32.4482 59.7991 35.2299 60.3451C35.4739 60.3931 35.6764 60.5627 35.7655 60.795L37.2673 64.6954H41.4795L42.9808 60.7964C43.1245 60.4232 43.5451 60.2377 43.9158 60.3814C44.2888 60.5251 44.4744 60.9438 44.3307 61.3164ZM33.7548 48.6782C33.8722 48.7493 34.0012 48.7828 34.1289 48.7828C34.3734 48.7828 34.6127 48.6584 34.7483 48.4337C34.9551 48.0917 34.8458 47.6469 34.5038 47.4402C31.6529 45.7161 29.951 42.6998 29.951 39.3708C29.951 36.0418 31.6529 33.0255 34.5038 31.3015C34.8458 31.0947 34.9551 30.6499 34.7483 30.308C34.542 29.966 34.0964 29.8562 33.7548 30.0635C30.4668 32.0514 28.5038 35.5312 28.5038 39.3708C28.5038 43.2105 30.4667 46.6903 33.7548 48.6782ZM66.1449 39.3708C66.1449 41.2269 64.6347 42.7371 62.7786 42.7371C61.1712 42.7371 59.8251 41.6034 59.4927 40.0944H40.0968V43.382H47.4341C47.6258 43.382 47.8101 43.4583 47.9457 43.594L50.6115 46.2603H52.4084C52.7406 44.7511 54.0869 43.6176 55.6943 43.6176C57.5503 43.6176 59.0605 45.1278 59.0605 46.9838C59.0605 48.8399 57.5503 50.3501 55.6943 50.3501C54.087 50.3501 52.7407 49.2164 52.4084 47.7074H50.3118C50.1202 47.7074 49.9359 47.6311 49.8003 47.4954L47.1345 44.8292H40.0968V48.1172H46.0473C46.239 48.1172 46.4233 48.1936 46.5589 48.3292L51.7152 53.4855C51.8508 53.6211 51.9271 53.8054 51.9271 53.9971V56.5799C52.8181 56.7768 53.6277 57.3285 54.1185 58.1787C54.5684 58.9574 54.6881 59.8647 54.4554 60.7328C54.2227 61.6014 53.6654 62.3274 52.8867 62.7767C52.3681 63.0763 51.7924 63.2294 51.2092 63.2294C50.9167 63.2294 50.6222 63.1909 50.3326 63.113C49.4639 62.8804 48.738 62.3235 48.2886 61.5449C47.3606 59.9377 47.9132 57.8748 49.5204 56.9464C49.8273 56.7692 50.1509 56.6468 50.48 56.5747V54.2966L45.7477 49.5643H40.0968V54.7606C40.0968 55.1601 39.7727 55.4842 39.3732 55.4842C30.4885 55.4842 23.2599 48.2556 23.2599 39.3708C23.2599 30.4861 30.4885 23.2575 39.3732 23.2575C39.7727 23.2575 40.0968 23.5816 40.0968 23.9811V29.1774H45.7477L50.48 24.4451V22.1627C50.1477 22.0891 49.8238 21.9705 49.5204 21.7952C47.9132 20.8668 47.3606 18.8039 48.2886 17.1966C48.738 16.418 49.4639 15.8612 50.3326 15.6285C51.2007 15.3958 52.1079 15.5149 52.8866 15.9648C53.6653 16.4142 54.2221 17.1402 54.4548 18.0088C54.688 18.8774 54.5683 19.7842 54.1184 20.5629C53.6691 21.3415 52.9431 21.8983 52.0745 22.1315C52.0256 22.1446 51.9762 22.15 51.927 22.1608V24.7445C51.927 24.9362 51.8507 25.1204 51.7151 25.2561L46.5588 30.4123C46.4232 30.548 46.2389 30.6243 46.0472 30.6243H40.0967V33.9123H46.9536L50.1031 30.7623C50.2387 30.6266 50.423 30.5503 50.6147 30.5503H52.4083C52.7405 29.0411 54.0868 27.9076 55.6942 27.9076C57.5502 27.9076 59.0604 29.4178 59.0604 31.2739C59.0604 33.1299 57.5502 34.6401 55.6942 34.6401C54.0869 34.6401 52.7406 33.5065 52.4083 31.9974H50.9143L47.7648 35.1475C47.6291 35.2831 47.4449 35.3595 47.2532 35.3595H40.0968V38.6471H59.4927C59.825 37.1379 61.1712 36.0044 62.7786 36.0044C64.6347 36.0046 66.1449 37.5148 66.1449 39.3708ZM53.7751 31.2742C53.7751 32.3322 54.6362 33.1933 55.6942 33.1933C56.7522 33.1933 57.6133 32.3322 57.6133 31.2742C57.6133 30.2162 56.7522 29.3551 55.6942 29.3551C54.6362 29.3551 53.7751 30.2161 53.7751 31.2742ZM50.244 20.5423C50.6886 20.7985 51.2064 20.8673 51.7 20.7335C52.1951 20.6011 52.6092 20.2832 52.8654 19.8394C53.1216 19.3957 53.19 18.8784 53.0571 18.3834C52.9247 17.8883 52.6068 17.4742 52.163 17.218C51.8671 17.047 51.5388 16.9599 51.2062 16.9599C51.0399 16.9599 50.8722 16.982 50.7068 17.0263C50.2118 17.1587 49.7976 17.4766 49.5414 17.9204C49.0127 18.8365 49.3278 20.0128 50.244 20.5423ZM38.6496 24.722C30.8973 25.1004 24.7071 31.5261 24.7071 39.3708C24.7071 47.2156 30.8974 53.6413 38.6496 54.0197V24.722ZM51.1998 57.9432C50.8748 57.9432 50.5455 58.0256 50.244 58.1994C49.3278 58.7289 49.0126 59.9051 49.5416 60.8213C49.7978 61.2651 50.212 61.5831 50.707 61.7155C51.2021 61.8479 51.7189 61.7805 52.1631 61.5238C52.6073 61.2676 52.9248 60.8535 53.0576 60.3584C53.19 59.8633 53.1217 59.3465 52.8654 58.9024C52.5104 58.287 51.864 57.9432 51.1998 57.9432ZM53.7751 46.9837C53.7751 48.0417 54.6362 48.9028 55.6942 48.9028C56.7522 48.9028 57.6133 48.0417 57.6133 46.9837C57.6133 45.9257 56.7522 45.0646 55.6942 45.0646C54.6362 45.0646 53.7751 45.9257 53.7751 46.9837ZM64.6977 39.3708C64.6977 38.3128 63.8367 37.4517 62.7786 37.4517C61.7206 37.4517 60.8596 38.3128 60.8596 39.3708C60.8596 40.4288 61.7206 41.2899 62.7786 41.2899C63.8367 41.2899 64.6977 40.4288 64.6977 39.3708Z" fill="#4893F4"/>
</mask>
<g mask="url(#mask0_1671_10666)">
<path d="M40.3555 81.3474C51.0584 81.3474 61.323 77.0957 68.8911 69.5276C76.4592 61.9594 80.7109 51.6949 80.7109 40.9919C80.7109 30.289 76.4592 20.0244 68.8911 12.4563C61.323 4.8882 51.0584 0.636474 40.3555 0.636475V40.9919V81.3474Z" fill="#4893F4"/>
</g>
</g>
<defs>
<clipPath id="clip0_1671_10666">
<rect width="80" height="80" rx="40" fill="white"/>
</clipPath>
</defs>
</svg>
