<svg width="81" height="81" viewBox="0 0 81 81" fill="none" xmlns="http://www.w3.org/2000/svg">
<g clip-path="url(#clip0_1671_10676)">
<rect width="80.1768" height="80.1768" rx="40.0884" fill="#EAF3FE"/>
<path d="M39.7742 78.9145C50.1552 78.9145 60.1109 74.7907 67.4514 67.4503C74.7918 60.1098 78.9156 50.1541 78.9156 39.7731C78.9156 29.3922 74.7918 19.4364 67.4514 12.096C60.1109 4.75553 50.1552 0.631716 39.7742 0.631714L39.7742 39.7731V78.9145Z" fill="#D2E5FD" stroke="#4893F4" stroke-width="1.24703" stroke-dasharray="7.16 1.43"/>
<path d="M40.4009 48.6116C42.745 48.6116 44.993 47.6804 46.6506 46.0229C48.3081 44.3654 49.2393 42.1173 49.2393 39.7732C49.2393 37.4291 48.3081 35.181 46.6506 33.5235C44.993 31.866 42.745 30.9348 40.4009 30.9348L40.4009 39.7732V48.6116Z" fill="#4893F4"/>
<path d="M39.7734 65.6566C44.5956 65.6566 49.3219 64.3096 53.4195 61.7673C57.5171 59.225 60.8231 55.5886 62.9646 51.268C65.1062 46.9475 65.9983 42.1146 65.5402 37.3142C65.0822 32.5138 63.2923 27.9368 60.3723 24.0992" stroke="#4893F4" stroke-width="1.24703" stroke-dasharray="7.16 1.43"/>
<path d="M53.2688 17.6817L49.4695 11.5661L46.0729 17.9142L53.2688 17.6817ZM49.8286 15.2439C47.9651 14.4805 46.0207 13.9318 44.033 13.6086L43.8329 14.8395C45.727 15.1475 47.58 15.6703 49.3558 16.3978L49.8286 15.2439ZM42.8377 13.4421C41.8414 13.3264 40.8362 13.267 39.827 13.2651L39.8248 14.5122C40.7865 14.5139 41.7443 14.5705 42.6938 14.6808L42.8377 13.4421Z" fill="#4893F4"/>
<path d="M40.7212 80.1768C30.0891 80.1768 19.8925 75.9532 12.3744 68.4351C4.8564 60.9171 0.632812 50.7205 0.632813 40.0884C0.632813 29.4563 4.8564 19.2596 12.3744 11.7416C19.8925 4.22358 30.0891 -1.26787e-07 40.7212 0V40.0884V80.1768Z" fill="#4893F4"/>
<path d="M39.7401 13.8887C32.8753 13.8974 26.2951 16.6329 21.4472 21.4932C16.5992 26.3536 13.8806 32.9407 13.8893 39.8055C13.8981 46.6703 16.6335 53.2505 21.4939 58.0985C26.3542 62.9464 32.9414 65.6651 39.8062 65.6563" stroke="#D2E5FD" stroke-width="1.24703" stroke-dasharray="7.16 1.43"/>
<circle cx="41.0331" cy="39.7722" r="2.52525" fill="#D2E5FD"/>
</g>
<defs>
<clipPath id="clip0_1671_10676">
<rect width="80.1768" height="80.1768" rx="40.0884" fill="white"/>
</clipPath>
</defs>
</svg>
