<svg width="81" height="80" viewBox="0 0 81 80" fill="none" xmlns="http://www.w3.org/2000/svg">
<g clip-path="url(#clip0_1671_10686)">
<rect width="80" height="80" rx="40" transform="matrix(-1 0 0 1 80.0859 0)" fill="#EAF3FE"/>
<path d="M39.773 78.7401C29.4149 78.7401 19.4811 74.6254 12.1569 67.3011C4.83261 59.9769 0.717888 50.0431 0.717888 39.685C0.717888 29.3269 4.83261 19.3931 12.1569 12.0689C19.4811 4.74461 29.4149 0.629885 39.773 0.629883L39.773 39.685V78.7401Z" fill="#D2E5FD" stroke="#4893F4" stroke-width="1.24428" stroke-dasharray="7.15 1.43"/>
<path d="M39.4531 79.3701C50.0618 79.3701 60.2359 75.1558 67.7374 67.6544C75.2389 60.1529 79.4531 49.9788 79.4531 39.3701C79.4531 28.7615 75.2389 18.5873 67.7374 11.0858C60.2359 3.58439 50.0618 -0.629883 39.4531 -0.629883V39.3701V79.3701Z" fill="#4893F4"/>
<path d="M39.7718 59.2125C34.2586 59.2125 28.9713 57.0224 25.0729 53.124C21.1745 49.2256 18.9844 43.9383 18.9844 38.4251C18.9844 32.9119 21.1745 27.6246 25.0729 23.7262C28.9713 19.8278 34.2586 17.6377 39.7718 17.6377V38.4251V59.2125Z" fill="#D2E5FD" stroke="#4893F4" stroke-width="1.24428" stroke-dasharray="7.15 1.43"/>
<path d="M39.4547 53.5433C43.3807 53.5433 47.1459 51.9837 49.9221 49.2076C52.6982 46.4314 54.2578 42.6662 54.2578 38.7402C54.2578 34.8141 52.6982 31.0489 49.9221 28.2728C47.1459 25.4966 43.3807 23.937 39.4547 23.937V38.7402L39.4547 53.5433Z" fill="#4893F4" stroke="#D2E5FD" stroke-width="1.24428" stroke-dasharray="7.15 1.43"/>
<circle cx="40.0824" cy="38.7401" r="13.5433" fill="#4893F4"/>
<path d="M34.1016 38.7401L38.0176 42.9358C38.2784 43.2153 38.726 43.1999 38.967 42.9033L46.7 33.3857" stroke="#EAF3FE" stroke-width="2.51969" stroke-linecap="round"/>
</g>
<defs>
<clipPath id="clip0_1671_10686">
<rect width="80" height="80" rx="40" transform="matrix(-1 0 0 1 80.0859 0)" fill="white"/>
</clipPath>
</defs>
</svg>
