<svg width="1728" height="970" viewBox="0 0 1728 970" fill="none" xmlns="http://www.w3.org/2000/svg">
<rect width="1728" height="970" fill="white"/>
<path d="M283.758 531.88L283.758 562.212" stroke="#4893F4" stroke-width="1.62716"/>
<path d="M283.758 569.491L283.758 599.823" stroke="#4893F4" stroke-width="1.62716"/>
<path d="M317.727 565.396H287.395" stroke="#4893F4" stroke-width="1.62716"/>
<path d="M280.117 565.396H249.786" stroke="#4893F4" stroke-width="1.62716"/>
<path d="M424.969 352L424.969 382.332" stroke="#4893F4" stroke-width="1.62716"/>
<path d="M424.969 389.611L424.969 419.943" stroke="#4893F4" stroke-width="1.62716"/>
<path d="M458.938 385.516H428.606" stroke="#4893F4" stroke-width="1.62716"/>
<path d="M421.328 385.516H390.996" stroke="#4893F4" stroke-width="1.62716"/>
<path d="M321.211 579.451L321.211 609.783" stroke="#4893F4" stroke-width="1.62716"/>
<path d="M321.211 617.062L321.211 647.394" stroke="#4893F4" stroke-width="1.62716"/>
<path d="M355.18 612.967H324.848" stroke="#4893F4" stroke-width="1.62716"/>
<path d="M317.57 612.967H287.239" stroke="#4893F4" stroke-width="1.62716"/>
<path d="M202.461 531.88L202.461 562.212" stroke="#4893F4" stroke-width="1.62716"/>
<path d="M202.461 569.491L202.461 599.823" stroke="#4893F4" stroke-width="1.62716"/>
<path d="M236.43 565.396H206.098" stroke="#4893F4" stroke-width="1.62716"/>
<path d="M198.82 565.396H168.489" stroke="#4893F4" stroke-width="1.62716"/>
<path d="M164.711 494.133L164.711 524.465" stroke="#4893F4" stroke-width="1.62716"/>
<path d="M164.711 531.744L164.711 562.076" stroke="#4893F4" stroke-width="1.62716"/>
<path d="M198.68 527.649H168.348" stroke="#4893F4" stroke-width="1.62716"/>
<path d="M161.07 527.649H130.739" stroke="#4893F4" stroke-width="1.62716"/>
<path d="M126.969 450L126.969 480.332" stroke="#4893F4" stroke-width="1.62716"/>
<path d="M126.969 487.611L126.969 517.943" stroke="#4893F4" stroke-width="1.62716"/>
<path d="M160.938 483.516H130.606" stroke="#4893F4" stroke-width="1.62716"/>
<path d="M123.328 483.516H92.9964" stroke="#4893F4" stroke-width="1.62716"/>
<path d="M164.711 569.626L164.711 599.958" stroke="#4893F4" stroke-width="1.62716"/>
<path d="M164.711 607.238L164.711 637.569" stroke="#4893F4" stroke-width="1.62716"/>
<path d="M198.68 603.142H168.348" stroke="#4893F4" stroke-width="1.62716"/>
<path d="M161.07 603.142H130.739" stroke="#4893F4" stroke-width="1.62716"/>
<path d="M1473.85 577.187L1473.85 608.488" stroke="#4893F4" stroke-width="1.62716"/>
<path d="M1473.85 616L1473.85 647.302" stroke="#4893F4" stroke-width="1.62716"/>
<path d="M1508.91 611.774H1477.6" stroke="#4893F4" stroke-width="1.62716"/>
<path d="M1470.09 611.774H1438.79" stroke="#4893F4" stroke-width="1.62716"/>
<path d="M1512.52 626.279L1512.52 657.581" stroke="#4893F4" stroke-width="1.62716"/>
<path d="M1512.52 665.093L1512.52 696.394" stroke="#4893F4" stroke-width="1.62716"/>
<path d="M1547.57 660.867H1516.27" stroke="#4893F4" stroke-width="1.62716"/>
<path d="M1508.76 660.867H1477.46" stroke="#4893F4" stroke-width="1.62716"/>
<path d="M1389.96 577.187L1389.96 608.488" stroke="#4893F4" stroke-width="1.62716"/>
<path d="M1389.96 616L1389.96 647.302" stroke="#4893F4" stroke-width="1.62716"/>
<path d="M1425.02 611.774H1393.71" stroke="#4893F4" stroke-width="1.62716"/>
<path d="M1386.2 611.774H1354.9" stroke="#4893F4" stroke-width="1.62716"/>
<path d="M1624.05 349L1624.05 380.301" stroke="#4893F4" stroke-width="1.62716"/>
<path d="M1624.05 387.813L1624.05 419.115" stroke="#4893F4" stroke-width="1.62716"/>
<path d="M1659.11 383.587H1627.81" stroke="#4893F4" stroke-width="1.62716"/>
<path d="M1620.3 383.587H1589" stroke="#4893F4" stroke-width="1.62716"/>
<path d="M1332.06 428.51L1332.06 459.811" stroke="#4893F4" stroke-width="1.62716"/>
<path d="M1332.06 467.323L1332.06 498.625" stroke="#4893F4" stroke-width="1.62716"/>
<path d="M1367.12 463.097H1335.82" stroke="#4893F4" stroke-width="1.62716"/>
<path d="M1328.3 463.097H1297" stroke="#4893F4" stroke-width="1.62716"/>
<path d="M1351.01 616.14L1351.01 647.441" stroke="#4893F4" stroke-width="1.62716"/>
<path d="M1351.01 654.953L1351.01 686.254" stroke="#4893F4" stroke-width="1.62716"/>
<path d="M1386.06 650.727H1354.76" stroke="#4893F4" stroke-width="1.62716"/>
<path d="M1347.25 650.727H1315.95" stroke="#4893F4" stroke-width="1.62716"/>
</svg>
