<svg width="810" height="898" viewBox="0 0 810 898" fill="none" xmlns="http://www.w3.org/2000/svg">
<path opacity="0.6" d="M-313.814 540.581C-313.897 543.886 -313.952 547.198 -313.979 550.517L-313.479 550.521C-313.493 552.179 -313.5 553.839 -313.5 555.5C-313.5 557.162 -313.493 558.821 -313.479 560.48L-313.979 560.484C-313.952 563.803 -313.897 567.115 -313.814 570.42L-313.314 570.408C-313.232 573.71 -313.122 577.005 -312.986 580.294L-313.485 580.315C-313.348 583.624 -313.183 586.926 -312.99 590.221L-312.491 590.192C-312.298 593.501 -312.078 596.803 -311.83 600.097L-312.329 600.134C-312.081 603.431 -311.806 606.719 -311.504 610L-311.006 609.954C-310.703 613.25 -310.372 616.539 -310.014 619.818L-310.511 619.872C-310.152 623.169 -309.765 626.457 -309.351 629.736L-308.855 629.673C-308.442 632.95 -308.001 636.218 -307.534 639.476L-308.029 639.547C-307.558 642.828 -307.061 646.099 -306.536 649.361L-306.043 649.282C-305.517 652.551 -304.965 655.811 -304.385 659.061L-304.877 659.149C-304.298 662.402 -303.691 665.646 -303.058 668.88L-302.567 668.784C-301.931 672.034 -301.267 675.274 -300.578 678.504L-301.066 678.609C-300.375 681.848 -299.656 685.077 -298.911 688.296L-298.424 688.183C-297.679 691.399 -296.909 694.604 -296.111 697.799L-296.597 697.92C-295.794 701.137 -294.965 704.344 -294.109 707.539L-293.626 707.409C-292.77 710.605 -291.888 713.789 -290.98 716.961L-291.461 717.099C-290.552 720.275 -289.617 723.44 -288.656 726.593L-288.178 726.447C-287.212 729.616 -286.22 732.774 -285.202 735.92L-285.678 736.074C-284.659 739.222 -283.614 742.358 -282.544 745.482L-282.071 745.32C-281 748.445 -279.904 751.557 -278.782 754.656L-279.252 754.827C-278.124 757.943 -276.971 761.046 -275.792 764.137L-275.325 763.959C-274.147 767.047 -272.943 770.121 -271.715 773.183L-272.179 773.369C-270.947 776.439 -269.69 779.496 -268.408 782.539L-267.948 782.344C-266.663 785.394 -265.353 788.43 -264.018 791.452L-264.476 791.654C-263.14 794.679 -261.779 797.69 -260.394 800.686L-259.94 800.476C-258.552 803.478 -257.14 806.465 -255.703 809.437L-256.153 809.655C-254.713 812.635 -253.248 815.601 -251.758 818.552L-251.312 818.327C-249.824 821.275 -248.311 824.209 -246.775 827.127L-247.217 827.36C-245.675 830.29 -244.109 833.204 -242.518 836.103L-242.08 835.862C-240.49 838.761 -238.876 841.644 -237.238 844.511L-237.672 844.759C-236.033 847.629 -234.37 850.482 -232.684 853.32L-232.254 853.065C-230.564 855.909 -228.851 858.737 -227.114 861.549L-227.539 861.812C-225.801 864.626 -224.039 867.424 -222.255 870.205L-221.834 869.935C-220.05 872.715 -218.243 875.478 -216.413 878.225L-216.829 878.502C-214.994 881.257 -213.136 883.994 -211.255 886.714L-210.844 886.43C-208.964 889.148 -207.063 891.848 -205.139 894.531L-205.545 894.822C-203.618 897.51 -201.668 900.179 -199.696 902.831L-199.295 902.533C-197.322 905.186 -195.328 907.821 -193.311 910.437L-193.707 910.742C-191.689 913.361 -189.649 915.962 -187.587 918.543L-187.196 918.231C-185.134 920.814 -183.05 923.378 -180.945 925.923L-181.33 926.242C-179.221 928.791 -177.092 931.321 -174.941 933.831L-174.561 933.506C-172.412 936.014 -170.242 938.503 -168.052 940.973L-168.426 941.304C-166.23 943.779 -164.014 946.235 -161.777 948.67L-161.409 948.332C-159.173 950.765 -156.918 953.179 -154.642 955.572L-155.004 955.917C-152.725 958.312 -150.427 960.688 -148.108 963.043L-147.752 962.692C-145.433 965.047 -143.095 967.382 -140.736 969.695L-141.086 970.052C-138.726 972.368 -136.346 974.663 -133.946 976.937L-133.602 976.574C-131.204 978.846 -128.787 981.097 -126.35 983.327L-126.687 983.695C-124.248 985.928 -121.789 988.139 -119.311 990.328L-118.98 989.953C-116.504 992.141 -114.01 994.306 -111.496 996.45L-111.821 996.83C-109.305 998.976 -106.771 1001.1 -104.218 1003.2L-103.9 1002.81C-101.35 1004.91 -98.781 1006.99 -96.1941 1009.05L-96.5051 1009.44C-93.9158 1011.49 -91.3086 1013.53 -88.6835 1015.54L-88.3795 1015.14C-85.7575 1017.15 -83.1177 1019.14 -80.4605 1021.1L-80.7576 1021.5C-78.098 1023.46 -75.421 1025.4 -72.7268 1027.32L-72.4369 1026.91C-69.7455 1028.83 -67.0369 1030.72 -64.3115 1032.59L-64.5941 1033C-61.868 1034.87 -59.125 1036.72 -56.3654 1038.54L-56.09 1038.12C-53.3329 1039.94 -50.5591 1041.73 -47.769 1043.51L-48.037 1043.93C-45.2462 1045.7 -42.439 1047.45 -39.6158 1049.17L-39.3553 1048.74C-36.5368 1050.46 -33.7023 1052.16 -30.8521 1053.83L-31.1049 1054.26C-28.2521 1055.93 -25.3835 1057.58 -22.4996 1059.2L-22.2546 1058.76C-19.3771 1060.38 -16.4844 1061.97 -13.5765 1063.54L-13.8138 1063.98C-10.905 1065.55 -7.9812 1067.09 -5.04254 1068.61L-4.81311 1068.17C-1.87708 1069.68 1.07373 1071.17 4.03906 1072.64L3.81769 1073.09C6.77838 1074.55 9.75354 1075.98 12.7429 1077.39L12.9562 1076.94C15.9424 1078.35 18.9427 1079.73 21.957 1081.09L21.7518 1081.55C24.767 1082.9 27.796 1084.24 30.8387 1085.54L31.0356 1085.08C34.0672 1086.38 37.1122 1087.65 40.1705 1088.9L39.9818 1089.36C43.0428 1090.61 46.1171 1091.83 49.2043 1093.02L49.3847 1092.56C52.4641 1093.75 55.5563 1094.91 58.6612 1096.05L58.4893 1096.52C61.5893 1097.65 64.7019 1098.76 67.8268 1099.84L67.9902 1099.37C71.1123 1100.45 74.2467 1101.5 77.3931 1102.52L77.2383 1103C80.3779 1104.02 83.5295 1105.02 86.6927 1105.98L86.8389 1105.51C89.9932 1106.47 93.1591 1107.41 96.3364 1108.32L96.1989 1108.8C99.3791 1109.71 102.571 1110.59 105.773 1111.44L105.902 1110.96C109.086 1111.81 112.282 1112.63 115.488 1113.42L115.368 1113.91C118.573 1114.7 121.789 1115.47 125.016 1116.2L125.127 1115.71C128.351 1116.45 131.585 1117.16 134.829 1117.84L134.727 1118.33C137.951 1119 141.186 1119.65 144.43 1120.26L144.524 1119.77C147.765 1120.39 151.017 1120.98 154.277 1121.54L154.193 1122.03C157.452 1122.59 160.721 1123.12 163.999 1123.63L164.075 1123.13C167.328 1123.63 170.59 1124.1 173.862 1124.54L173.795 1125.04C177.069 1125.48 180.352 1125.89 183.643 1126.27L183.701 1125.78C186.981 1126.16 190.269 1126.51 193.565 1126.84L193.516 1127.33C196.794 1127.66 200.08 1127.95 203.374 1128.22L203.414 1127.72C206.705 1127.98 210.005 1128.22 213.312 1128.42L213.281 1128.92C216.576 1129.13 219.879 1129.3 223.19 1129.45L223.212 1128.95C226.499 1129.1 229.794 1129.21 233.095 1129.3L233.082 1129.8C236.387 1129.89 239.698 1129.95 243.017 1129.98L243.021 1129.48C244.679 1129.49 246.339 1129.5 248 1129.5C249.661 1129.5 251.321 1129.49 252.979 1129.48L252.984 1129.98C256.302 1129.95 259.614 1129.89 262.919 1129.8L262.905 1129.3C266.207 1129.21 269.502 1129.1 272.789 1128.95L272.811 1129.45C276.122 1129.3 279.425 1129.13 282.72 1128.92L282.689 1128.42C285.996 1128.22 289.295 1127.98 292.586 1127.72L292.626 1128.22C295.92 1127.95 299.207 1127.66 302.485 1127.33L302.436 1126.84C305.732 1126.51 309.02 1126.16 312.299 1125.78L312.357 1126.27C315.649 1125.89 318.932 1125.48 322.206 1125.04L322.139 1124.54C325.41 1124.1 328.672 1123.63 331.925 1123.13L332.001 1123.63C335.279 1123.12 338.548 1122.59 341.808 1122.03L341.723 1121.54C344.984 1120.98 348.235 1120.39 351.477 1119.77L351.57 1120.26C354.815 1119.65 358.049 1119 361.274 1118.33L361.171 1117.84C364.416 1117.16 367.65 1116.45 370.873 1115.71L370.985 1116.2C374.211 1115.47 377.427 1114.7 380.633 1113.91L380.513 1113.42C383.719 1112.63 386.914 1111.81 390.098 1110.96L390.227 1111.44C393.43 1110.59 396.621 1109.71 399.801 1108.8L399.664 1108.32C402.841 1107.41 406.007 1106.47 409.161 1105.51L409.308 1105.98C412.471 1105.02 415.622 1104.02 418.762 1103L418.607 1102.52C421.754 1101.5 424.888 1100.45 428.01 1099.37L428.173 1099.84C431.298 1098.76 434.411 1097.65 437.511 1096.52L437.339 1096.05C440.444 1094.91 443.536 1093.75 446.616 1092.56L446.796 1093.02C449.883 1091.83 452.957 1090.61 456.019 1089.36L455.83 1088.9C458.888 1087.65 461.933 1086.38 464.965 1085.08L465.162 1085.54C468.204 1084.24 471.233 1082.9 474.248 1081.55L474.043 1081.09C477.057 1079.73 480.058 1078.35 483.044 1076.94L483.257 1077.39C486.247 1075.98 489.222 1074.55 492.183 1073.09L491.961 1072.64C494.926 1071.17 497.877 1069.68 500.813 1068.17L501.043 1068.61C503.981 1067.09 506.905 1065.55 509.814 1063.98L509.577 1063.54C512.485 1061.97 515.377 1060.38 518.255 1058.76L518.5 1059.2C521.384 1057.58 524.252 1055.93 527.105 1054.26L526.852 1053.83C529.703 1052.16 532.537 1050.46 535.356 1048.74L535.616 1049.17C538.439 1047.45 541.246 1045.7 544.037 1043.93L543.769 1043.5C546.559 1041.73 549.333 1039.94 552.09 1038.12L552.366 1038.54C555.125 1036.72 557.868 1034.87 560.594 1033L560.312 1032.59C563.037 1030.72 565.746 1028.83 568.437 1026.91L568.727 1027.32C571.421 1025.4 574.098 1023.46 576.758 1021.5L576.461 1021.1C579.118 1019.14 581.758 1017.15 584.38 1015.14L584.684 1015.54C587.309 1013.53 589.916 1011.49 592.505 1009.44L592.194 1009.05C594.781 1006.99 597.35 1004.91 599.901 1002.81L600.218 1003.2C602.771 1001.1 605.305 998.976 607.821 996.83L607.497 996.449C610.01 994.306 612.504 992.14 614.98 989.953L615.311 990.328C617.789 988.139 620.248 985.928 622.688 983.695L622.35 983.326C624.787 981.097 627.204 978.846 629.602 976.573L629.946 976.936C632.346 974.663 634.726 972.368 637.086 970.052L636.736 969.695C639.095 967.382 641.433 965.047 643.752 962.692L644.108 963.043C646.427 960.688 648.726 958.312 651.004 955.917L650.642 955.572C652.918 953.179 655.173 950.765 657.409 948.332L657.777 948.67C660.014 946.234 662.23 943.779 664.426 941.304L664.052 940.972C666.242 938.503 668.412 936.014 670.561 933.506L670.941 933.831C673.092 931.321 675.222 928.791 677.33 926.242L676.945 925.923C679.05 923.378 681.134 920.814 683.197 918.231L683.587 918.543C685.649 915.961 687.689 913.361 689.707 910.742L689.311 910.437C691.328 907.821 693.322 905.186 695.295 902.533L695.696 902.831C697.668 900.179 699.618 897.509 701.545 894.822L701.139 894.53C703.063 891.848 704.965 889.148 706.844 886.43L707.255 886.714C709.136 883.994 710.994 881.257 712.829 878.502L712.413 878.225C714.243 875.478 716.05 872.715 717.834 869.935L718.255 870.205C720.039 867.424 721.801 864.626 723.539 861.812L723.114 861.549C724.851 858.737 726.564 855.909 728.254 853.065L728.684 853.32C730.37 850.482 732.033 847.629 733.672 844.759L733.238 844.511C734.876 841.644 736.49 838.76 738.08 835.862L738.519 836.102C740.109 833.204 741.675 830.289 743.217 827.36L742.775 827.127C744.311 824.209 745.824 821.275 747.312 818.327L747.758 818.552C749.248 815.601 750.713 812.635 752.153 809.654L751.703 809.437C753.14 806.464 754.552 803.477 755.94 800.476L756.394 800.686C757.779 797.69 759.14 794.679 760.476 791.654L760.018 791.452C761.353 788.43 762.663 785.394 763.948 782.344L764.409 782.538C765.691 779.495 766.947 776.439 768.179 773.369L767.715 773.183C768.944 770.121 770.147 767.046 771.325 763.958L771.792 764.137C772.971 761.046 774.124 757.943 775.252 754.826L774.782 754.656C775.904 751.557 777 748.444 778.071 745.32L778.544 745.482C779.614 742.358 780.659 739.222 781.678 736.073L781.202 735.919C782.22 732.774 783.212 729.616 784.178 726.446L784.656 726.592C785.617 723.439 786.552 720.275 787.461 717.099L786.981 716.961C787.889 713.788 788.771 710.604 789.626 707.409L790.109 707.538C790.965 704.343 791.794 701.137 792.597 697.919L792.112 697.798C792.909 694.604 793.68 691.398 794.424 688.183L794.911 688.295C795.656 685.077 796.375 681.848 797.067 678.608L796.578 678.504C797.267 675.274 797.931 672.033 798.567 668.783L799.058 668.879C799.691 665.645 800.298 662.402 800.878 659.149L800.385 659.061C800.965 655.81 801.517 652.55 802.043 649.281L802.536 649.36C803.061 646.098 803.558 642.827 804.029 639.547L803.534 639.476C804.001 636.217 804.442 632.949 804.855 629.673L805.351 629.736C805.765 626.456 806.152 623.168 806.511 619.872L806.014 619.818C806.372 616.538 806.703 613.25 807.006 609.954L807.504 610C807.806 606.719 808.081 603.43 808.329 600.134L807.83 600.096C808.078 596.802 808.298 593.501 808.491 590.192L808.991 590.221C809.183 586.926 809.348 583.624 809.485 580.314L808.986 580.293C809.122 577.005 809.232 573.709 809.314 570.407L809.814 570.419C809.897 567.114 809.952 563.802 809.979 560.483L809.479 560.479C809.493 558.821 809.5 557.161 809.5 555.5C809.5 553.838 809.493 552.179 809.479 550.52L809.979 550.516C809.952 547.197 809.897 543.885 809.814 540.58L809.314 540.592C809.232 537.29 809.122 533.995 808.986 530.706L809.485 530.685C809.348 527.376 809.183 524.074 808.99 520.779L808.491 520.808C808.298 517.499 808.078 514.197 807.83 510.903L808.329 510.866C808.081 507.569 807.806 504.281 807.504 501L807.006 501.046C806.703 497.75 806.372 494.461 806.014 491.182L806.511 491.128C806.152 487.831 805.765 484.543 805.351 481.264L804.855 481.327C804.442 478.05 804.001 474.783 803.534 471.524L804.029 471.453C803.558 468.172 803.061 464.901 802.536 461.639L802.043 461.718C801.517 458.449 800.965 455.189 800.385 451.939L800.877 451.851C800.298 448.598 799.691 445.354 799.058 442.12L798.567 442.216C797.931 438.966 797.267 435.726 796.577 432.496L797.066 432.391C796.375 429.152 795.656 425.923 794.911 422.704L794.424 422.817C793.679 419.601 792.909 416.396 792.111 413.201L792.597 413.08C791.794 409.863 790.965 406.657 790.109 403.461L789.626 403.591C788.77 400.395 787.888 397.211 786.98 394.039L787.461 393.901C786.552 390.725 785.617 387.56 784.656 384.407L784.178 384.553C783.212 381.384 782.22 378.226 781.202 375.08L781.678 374.926C780.659 371.778 779.614 368.642 778.544 365.518L778.071 365.68C777 362.555 775.904 359.443 774.782 356.344L775.252 356.173C774.124 353.057 772.971 349.954 771.792 346.863L771.325 347.041C770.147 343.953 768.943 340.879 767.715 337.817L768.179 337.631C766.947 334.561 765.69 331.504 764.408 328.461L763.948 328.656C762.663 325.606 761.353 322.57 760.018 319.548L760.476 319.346C759.14 316.321 757.779 313.31 756.394 310.314L755.94 310.524C754.552 307.522 753.14 304.535 751.703 301.563L752.153 301.345C750.713 298.365 749.248 295.399 747.758 292.448L747.312 292.673C745.824 289.725 744.311 286.791 742.775 283.873L743.217 283.64C741.675 280.71 740.109 277.796 738.518 274.897L738.08 275.138C736.49 272.239 734.876 269.356 733.238 266.489L733.672 266.241C732.033 263.371 730.37 260.517 728.684 257.68L728.254 257.935C726.564 255.091 724.851 252.262 723.114 249.451L723.539 249.188C721.801 246.374 720.039 243.576 718.255 240.795L717.834 241.065C716.05 238.285 714.243 235.522 712.413 232.775L712.829 232.498C710.994 229.743 709.136 227.006 707.255 224.286L706.844 224.57C704.964 221.852 703.063 219.152 701.139 216.47L701.545 216.178C699.618 213.49 697.668 210.821 695.696 208.169L695.295 208.467C693.322 205.814 691.328 203.179 689.311 200.563L689.707 200.257C687.689 197.639 685.649 195.038 683.587 192.457L683.196 192.769C681.134 190.186 679.05 187.622 676.945 185.077L677.33 184.758C675.221 182.209 673.092 179.679 670.941 177.169L670.561 177.494C668.412 174.986 666.242 172.497 664.052 170.027L664.426 169.696C662.23 167.221 660.014 164.765 657.777 162.33L657.408 162.668C655.173 160.235 652.918 157.821 650.642 155.428L651.004 155.083C648.725 152.688 646.427 150.312 644.108 147.957L643.752 148.308C641.433 145.953 639.095 143.618 636.736 141.305L637.086 140.948C634.726 138.632 632.346 136.337 629.946 134.064L629.602 134.426C627.204 132.154 624.787 129.903 622.35 127.673L622.687 127.305C620.248 125.072 617.789 122.861 615.311 120.672L614.98 121.047C612.504 118.859 610.01 116.694 607.496 114.55L607.821 114.17C605.305 112.024 602.771 109.901 600.218 107.799L599.9 108.186C597.35 106.086 594.781 104.009 592.194 101.954L592.505 101.563C589.916 99.5064 587.309 97.4726 584.684 95.4618L584.379 95.8588C581.757 93.8503 579.118 91.8647 576.461 89.9023L576.758 89.5001C574.098 87.536 571.421 85.5952 568.727 83.6778L568.437 84.0851C565.746 82.1698 563.037 80.2778 560.311 78.4097L560.594 77.9973C557.868 76.1287 555.125 74.2838 552.365 72.463L552.09 72.8803C549.333 71.0611 546.559 69.2659 543.769 67.495L544.037 67.0729C541.246 65.3015 538.439 63.5544 535.616 61.8319L535.355 62.2588C532.537 60.5391 529.702 58.8439 526.852 57.1736L527.105 56.7422C524.252 55.0704 521.384 53.4234 518.5 51.8016L518.255 52.2374C515.377 50.6192 512.484 49.026 509.576 47.4582L509.814 47.0181C506.905 45.4498 503.981 43.9068 501.042 42.3894L500.813 42.8337C497.877 41.3177 494.926 39.8272 491.961 38.3627L492.182 37.9144C489.222 36.4521 486.246 35.0156 483.257 33.6051L483.044 34.0573C480.058 32.6483 477.057 31.2653 474.043 29.9087L474.248 29.4527C471.233 28.0956 468.204 26.7649 465.161 25.4606L464.964 25.9202C461.933 24.6208 458.888 23.3477 455.83 22.1014L456.018 21.6384C452.957 20.3909 449.883 19.1701 446.796 17.9764L446.615 18.4427C443.536 17.252 440.444 16.0882 437.339 14.9516L437.511 14.482C434.411 13.3472 431.298 12.2394 428.173 11.1589L428.01 11.6314C424.888 10.5519 421.753 9.49976 418.607 8.47515L418.762 7.99973C415.622 6.97735 412.471 5.98241 409.307 5.01519L409.161 5.49333C406.007 4.52886 402.841 3.59197 399.664 2.68294L399.801 2.20222C396.621 1.29236 393.429 0.410374 390.227 -0.443455L390.098 0.0396709C386.914 -0.809233 383.718 -1.63028 380.512 -2.4232L380.632 -2.90858C377.427 -3.70134 374.211 -4.46602 370.984 -5.20234L370.873 -4.71487C367.649 -5.45051 364.415 -6.15782 361.171 -6.83653L361.273 -7.32594C358.049 -8.00053 354.814 -8.64689 351.57 -9.26475L351.476 -8.77358C348.235 -9.39087 344.983 -9.9797 341.723 -10.5398L341.807 -11.0326C338.548 -11.5925 335.279 -12.1237 332.001 -12.6259L331.925 -12.1317C328.672 -12.6301 325.41 -13.0999 322.138 -13.541L322.205 -14.0365C318.931 -14.478 315.648 -14.8906 312.357 -15.2742L312.299 -14.7776C309.019 -15.1598 305.731 -15.5131 302.435 -15.8372L302.484 -16.3348C299.206 -16.6572 295.92 -16.9508 292.626 -17.2153L292.586 -16.7169C289.295 -16.9812 285.995 -17.2165 282.688 -17.4225L282.72 -17.9216C279.424 -18.1269 276.121 -18.3032 272.81 -18.4502L272.788 -17.9507C269.501 -18.0967 266.206 -18.2138 262.905 -18.3017L262.918 -18.8015C259.613 -18.8896 256.302 -18.9484 252.983 -18.9779L252.979 -18.4779C251.321 -18.4926 249.661 -18.5 248 -18.5C246.339 -18.5 244.679 -18.4926 243.021 -18.4779L243.016 -18.9779C239.698 -18.9484 236.386 -18.8895 233.081 -18.8015L233.095 -18.3017C229.793 -18.2137 226.498 -18.0966 223.211 -17.9507L223.189 -18.4502C219.878 -18.3032 216.575 -18.1269 213.28 -17.9215L213.311 -17.4225C210.004 -17.2165 206.705 -16.9812 203.414 -16.7169L203.374 -17.2153C200.08 -16.9507 196.793 -16.6572 193.515 -16.3348L193.564 -15.8372C190.268 -15.513 186.98 -15.1597 183.701 -14.7775L183.643 -15.2742C180.351 -14.8906 177.068 -14.4779 173.794 -14.0364L173.861 -13.5409C170.59 -13.0998 167.328 -12.63 164.075 -12.1316L163.999 -12.6258C160.721 -12.1236 157.452 -11.5924 154.192 -11.0325L154.277 -10.5397C151.016 -9.97962 147.765 -9.39079 144.523 -8.7735L144.43 -9.26467C141.185 -8.64681 137.951 -8.00044 134.726 -7.32585L134.829 -6.83644C131.584 -6.15773 128.35 -5.45041 125.127 -4.71476L125.015 -5.20223C121.789 -4.46592 118.573 -3.70124 115.367 -2.90847L115.487 -2.4231C112.281 -1.63018 109.086 -0.809132 105.902 0.0397701L105.773 -0.443354C102.57 0.410477 99.3787 1.29246 96.1985 2.20233L96.3361 2.68304C93.1588 3.59208 89.9929 4.52897 86.8386 5.49344L86.6924 5.01529C83.5291 5.98252 80.3776 6.97746 77.238 7.99985L77.3928 8.47527C74.2464 9.49987 71.112 10.5521 67.9899 11.6315L67.8265 11.159C64.7016 12.2395 61.589 13.3473 58.489 14.4821L58.6609 14.9517C55.556 16.0883 52.4637 17.2521 49.3845 18.4428L49.2041 17.9765C46.1168 19.1702 43.0425 20.391 39.9815 21.6385L40.1702 22.1015C37.1119 23.3478 34.0669 24.6209 31.0354 25.9203L30.8384 25.4608C27.7958 26.765 24.7667 28.0958 21.7515 29.4528L21.9568 29.9088C18.9426 31.2655 15.9422 32.6484 12.9561 34.0574L12.7427 33.6052C9.75336 35.0157 6.77814 36.4522 3.81744 37.9145L4.03888 38.3628C1.07355 39.8274 -1.87726 41.3178 -4.81329 42.8338L-5.04266 42.3895C-7.98132 43.9069 -10.9053 45.4499 -13.814 47.0182L-13.5767 47.4583C-16.4846 49.0262 -19.3774 50.6193 -22.2548 52.2375L-22.4998 51.8017C-25.3838 53.4236 -28.2523 55.0705 -31.1051 56.7424L-30.8523 57.1738C-33.7025 58.8441 -36.537 60.5392 -39.3556 62.2589L-39.616 61.8321C-42.4392 63.5546 -45.2463 65.3016 -48.0372 67.073L-47.7692 67.4952C-50.5593 69.2661 -53.3331 71.0612 -56.0903 72.8805L-56.3656 72.4631C-59.1252 74.2839 -61.8682 76.1288 -64.5944 77.9974L-64.3116 78.4098C-67.0371 80.278 -69.7457 82.1699 -72.4371 84.0853L-72.727 83.6779C-75.4212 85.5953 -78.0982 87.5362 -80.7578 89.5003L-80.4607 89.9025C-83.1179 91.8649 -85.7577 93.8504 -88.3796 95.8589L-88.6837 95.462C-91.3088 97.4728 -93.916 99.5065 -96.5052 101.563L-96.1943 101.954C-98.7812 104.009 -101.35 106.086 -103.901 108.186L-104.218 107.8C-106.771 109.901 -109.305 112.024 -111.821 114.17L-111.497 114.551C-114.01 116.694 -116.504 118.86 -118.98 121.047L-119.311 120.672C-121.789 122.861 -124.248 125.072 -126.688 127.305L-126.35 127.674C-128.787 129.903 -131.204 132.154 -133.602 134.427L-133.946 134.064C-136.346 136.337 -138.726 138.632 -141.086 140.948L-140.736 141.305C-143.095 143.618 -145.433 145.953 -147.752 148.308L-148.108 147.957C-150.427 150.312 -152.726 152.688 -155.004 155.084L-154.642 155.428C-156.918 157.821 -159.173 160.235 -161.409 162.668L-161.777 162.33C-164.014 164.765 -166.23 167.221 -168.426 169.696L-168.052 170.028C-170.242 172.497 -172.412 174.986 -174.561 177.494L-174.941 177.169C-177.092 179.679 -179.222 182.209 -181.33 184.758L-180.945 185.077C-183.05 187.622 -185.134 190.186 -187.197 192.769L-187.587 192.457C-189.649 195.039 -191.689 197.639 -193.707 200.258L-193.311 200.563C-195.328 203.179 -197.322 205.814 -199.295 208.467L-199.696 208.169C-201.668 210.821 -203.618 213.491 -205.545 216.178L-205.139 216.47C-207.063 219.152 -208.965 221.853 -210.844 224.57L-211.255 224.286C-213.136 227.006 -214.994 229.743 -216.829 232.498L-216.413 232.775C-218.243 235.522 -220.05 238.285 -221.834 241.065L-222.255 240.795C-224.039 243.576 -225.801 246.374 -227.539 249.188L-227.114 249.451C-228.851 252.263 -230.564 255.091 -232.255 257.935L-232.684 257.68C-234.37 260.518 -236.033 263.372 -237.672 266.241L-237.238 266.489C-238.876 269.356 -240.49 272.24 -242.08 275.138L-242.519 274.898C-244.109 277.796 -245.675 280.711 -247.217 283.64L-246.775 283.873C-248.311 286.791 -249.824 289.725 -251.312 292.673L-251.758 292.448C-253.248 295.399 -254.713 298.365 -256.153 301.346L-255.703 301.563C-257.14 304.536 -258.552 307.523 -259.94 310.524L-260.394 310.314C-261.779 313.311 -263.14 316.321 -264.476 319.346L-264.018 319.548C-265.353 322.57 -266.663 325.606 -267.948 328.656L-268.409 328.462C-269.691 331.505 -270.948 334.561 -272.179 337.631L-271.715 337.817C-272.944 340.879 -274.147 343.954 -275.325 347.042L-275.792 346.863C-276.971 349.954 -278.124 353.057 -279.252 356.174L-278.782 356.344C-279.904 359.443 -281 362.556 -282.071 365.68L-282.544 365.518C-283.614 368.642 -284.659 371.778 -285.678 374.927L-285.202 375.081C-286.22 378.226 -287.212 381.384 -288.178 384.554L-288.656 384.408C-289.617 387.561 -290.552 390.725 -291.461 393.901L-290.981 394.039C-291.889 397.212 -292.771 400.396 -293.626 403.591L-294.109 403.462C-294.965 406.657 -295.794 409.863 -296.597 413.081L-296.112 413.202C-296.909 416.396 -297.68 419.602 -298.424 422.817L-298.911 422.705C-299.656 425.923 -300.375 429.152 -301.067 432.392L-300.578 432.496C-301.267 435.726 -301.931 438.967 -302.567 442.217L-303.058 442.121C-303.691 445.355 -304.298 448.598 -304.878 451.851L-304.385 451.939C-304.965 455.19 -305.517 458.45 -306.043 461.719L-306.536 461.64C-307.061 464.902 -307.558 468.173 -308.029 471.453L-307.534 471.524C-308.001 474.783 -308.442 478.051 -308.855 481.327L-309.351 481.264C-309.765 484.544 -310.152 487.832 -310.511 491.128L-310.014 491.182C-310.372 494.462 -310.703 497.75 -311.006 501.046L-311.504 501C-311.806 504.281 -312.081 507.57 -312.329 510.866L-311.83 510.904C-312.078 514.198 -312.298 517.499 -312.491 520.808L-312.99 520.779C-313.183 524.074 -313.348 527.376 -313.485 530.686L-312.986 530.707C-313.122 533.995 -313.232 537.291 -313.314 540.593L-313.814 540.581Z" stroke="url(#paint0_radial_1387_31271)" stroke-dasharray="10 10"/>
<defs>
<radialGradient id="paint0_radial_1387_31271" cx="0" cy="0" r="1" gradientUnits="userSpaceOnUse" gradientTransform="translate(822.717 490.5) rotate(139.048) scale(484.419 420.814)">
<stop stop-color="white"/>
<stop offset="1" stop-color="white" stop-opacity="0"/>
</radialGradient>
</defs>
</svg>
