<svg width="399" height="301" viewBox="0 0 399 301" fill="none" xmlns="http://www.w3.org/2000/svg">
<path d="M108.695 124.604L108.695 170.763" stroke="#4893F4" stroke-width="2"/>
<path d="M108.695 181.841L108.695 228" stroke="#4893F4" stroke-width="2"/>
<path d="M57 175.61H103.159" stroke="#4893F4" stroke-width="2"/>
<path d="M114.234 175.61H160.393" stroke="#4893F4" stroke-width="2"/>
<path d="M51.6953 197L51.6953 243.159" stroke="#4893F4" stroke-width="2"/>
<path d="M51.6953 254.237L51.6953 300.395" stroke="#4893F4" stroke-width="2"/>
<path d="M0 248.005H46.1586" stroke="#4893F4" stroke-width="2"/>
<path d="M57.2344 248.005H103.393" stroke="#4893F4" stroke-width="2"/>
<path d="M232.414 124.604L232.414 170.763" stroke="#4893F4" stroke-width="2"/>
<path d="M232.414 181.841L232.414 228" stroke="#4893F4" stroke-width="2"/>
<path d="M180.719 175.61H226.877" stroke="#4893F4" stroke-width="2"/>
<path d="M237.953 175.61H284.112" stroke="#4893F4" stroke-width="2"/>
<path d="M289.859 67.1626L289.859 113.321" stroke="#4893F4" stroke-width="2"/>
<path d="M289.859 124.399L289.859 170.558" stroke="#4893F4" stroke-width="2"/>
<path d="M238.164 118.168H284.323" stroke="#4893F4" stroke-width="2"/>
<path d="M295.398 118.168H341.557" stroke="#4893F4" stroke-width="2"/>
<path d="M347.305 0L347.305 46.1586" stroke="#4893F4" stroke-width="2"/>
<path d="M347.305 57.2367L347.305 103.395" stroke="#4893F4" stroke-width="2"/>
<path d="M295.609 51.0052H341.768" stroke="#4893F4" stroke-width="2"/>
<path d="M352.844 51.0052H399.002" stroke="#4893F4" stroke-width="2"/>
<path d="M289.859 182.046L289.859 228.205" stroke="#4893F4" stroke-width="2"/>
<path d="M289.859 239.283L289.859 285.442" stroke="#4893F4" stroke-width="2"/>
<path d="M238.164 233.052H284.323" stroke="#4893F4" stroke-width="2"/>
<path d="M295.398 233.052H341.557" stroke="#4893F4" stroke-width="2"/>
</svg>
