<svg width="400" height="286" viewBox="0 0 400 286" fill="none" xmlns="http://www.w3.org/2000/svg">
<path d="M290.305 124.604L290.305 170.763" stroke="#4893F4" stroke-width="2"/>
<path d="M290.305 181.841L290.305 228" stroke="#4893F4" stroke-width="2"/>
<path d="M342 175.61H295.841" stroke="#4893F4" stroke-width="2"/>
<path d="M284.766 175.61H238.607" stroke="#4893F4" stroke-width="2"/>
<path d="M347.703 51L347.703 97.1586" stroke="#4893F4" stroke-width="2"/>
<path d="M347.703 108.237L347.703 154.395" stroke="#4893F4" stroke-width="2"/>
<path d="M399.398 102.005H353.24" stroke="#4893F4" stroke-width="2"/>
<path d="M342.164 102.005H296.005" stroke="#4893F4" stroke-width="2"/>
<path d="M166.586 124.604L166.586 170.763" stroke="#4893F4" stroke-width="2"/>
<path d="M166.586 181.841L166.586 228" stroke="#4893F4" stroke-width="2"/>
<path d="M218.281 175.61H172.123" stroke="#4893F4" stroke-width="2"/>
<path d="M161.047 175.61H114.888" stroke="#4893F4" stroke-width="2"/>
<path d="M109.148 67.1626L109.148 113.321" stroke="#4893F4" stroke-width="2"/>
<path d="M109.148 124.399L109.148 170.558" stroke="#4893F4" stroke-width="2"/>
<path d="M160.844 118.168H114.685" stroke="#4893F4" stroke-width="2"/>
<path d="M103.609 118.168H57.4507" stroke="#4893F4" stroke-width="2"/>
<path d="M51.7031 0L51.7031 46.1586" stroke="#4893F4" stroke-width="2"/>
<path d="M51.7031 57.2367L51.7031 103.395" stroke="#4893F4" stroke-width="2"/>
<path d="M103.398 51.0053H57.2398" stroke="#4893F4" stroke-width="2"/>
<path d="M46.1641 51.0053H0.0054239" stroke="#4893F4" stroke-width="2"/>
<path d="M109.148 182.046L109.148 228.205" stroke="#4893F4" stroke-width="2"/>
<path d="M109.148 239.283L109.148 285.442" stroke="#4893F4" stroke-width="2"/>
<path d="M160.844 233.052H114.685" stroke="#4893F4" stroke-width="2"/>
<path d="M103.609 233.052H57.4507" stroke="#4893F4" stroke-width="2"/>
</svg>
